<?xml version="1.0" standalone="no"?><!DOCTYPE svg PUBLIC "-//W3C//DTD SVG 1.1//EN" "http://www.w3.org/Graphics/SVG/1.1/DTD/svg11.dtd"><svg t="1651275957826" class="icon" viewBox="0 0 1300 1024" version="1.1" xmlns="http://www.w3.org/2000/svg" p-id="1968" xmlns:xlink="http://www.w3.org/1999/xlink" width="253.90625" height="200"><defs><style type="text/css">@font-face { font-family: feedback-iconfont; src: url("//at.alicdn.com/t/font_1031158_u69w8yhxdu.woff2?t=1630033759944") format("woff2"), url("//at.alicdn.com/t/font_1031158_u69w8yhxdu.woff?t=1630033759944") format("woff"), url("//at.alicdn.com/t/font_1031158_u69w8yhxdu.ttf?t=1630033759944") format("truetype"); }
</style></defs><path d="M1300.577667 662.302451c-83.351719 11.699647-166.670389 23.514968-250.071684 34.917166-8.262462 1.10717-11.170849 4.32953-12.806816 12.344119-11.336098 55.540271-23.283619 110.882244-35.06589 166.257266-0.396598 1.867316-0.958446 3.701583-1.768167 6.709119-10.9395-6.295996-21.482402-12.327594-32.091404-18.458341-19.301112-11.203899-19.334162-11.236949-14.773282-32.801975q16.524925-77.915019 33.049849-155.763939c0.446173-2.11519 1.090645-4.164281 1.850792-6.973518 7.370116 1.454193 14.508884 2.164765 21.184953 4.313005 23.99419 7.75019 47.839657 5.783724 72.362644 2.098666 72.610519-10.956025 145.419336-20.656156 218.129005-30.852035zM0.066104 812.679265c22.077299-2.858812 44.171123-5.5689 66.215373-8.609486q44.138073-6.081172 88.193522-12.757242c2.726613-0.413123 5.073152-3.519809 7.502316-5.486275 1.536818-1.255894 2.743137-3.718108 4.346055-3.965982 18.177417-2.759662 36.354834-5.188826 55.127148-7.766714v8.014588l110.237772-15.351655c-3.156261 14.872432-6.114222 28.654219-9.022609 42.518631-2.379589 11.303048-4.544354 22.655672-7.204867 33.892621-0.594897 2.561363-2.594413 6.461246-4.445205 6.758694-18.375716 3.007536-36.850582 5.40365-56.383042 8.113738 4.560879-21.8129 8.85736-42.353382 13.434763-64.199332-16.904998 2.429164-32.901125 4.527829-48.781577 7.320541-1.652492 0.313974-3.420659 4.445205-4.015557 7.056143-3.668533 16.359675-7.171817 32.78545-10.394177 49.244275-1.057595 5.40365-2.842287 8.493811-9.138283 9.171333-16.921523 1.817742-33.760421 4.494779-52.301387 7.072668L156.755439 809.721303c-21.482402 2.991011-42.122033 5.816773-62.712089 8.708636-29.149967 4.098181-58.283409 8.262462-87.433376 12.360643a53.937354 53.937354 0 0 1-6.60997 0.115675zM1300.577667 591.245276c-9.452257 3.123211-15.36818-0.611422-19.548986-9.220908-2.445689-4.957477-6.130747-9.452257-10.245453-15.649104-1.751642 7.931964-3.685058 13.930511-4.279956 20.061259-0.760147 7.799764-4.412155 10.708151-13.21994 9.039133 1.817742-8.592961 3.652008-17.268546 5.469751-25.927606 1.288944-6.180322 2.230865-12.476318 3.999031-18.507916 0.694047-2.346539 3.139736-5.684574 4.957478-5.833298 3.304985-0.247874 7.948489 0.561847 9.79928 2.792712 5.387125 6.411671 9.650556 13.748737 14.707183 21.267578l8.262462-27.596624z" p-id="1969"></path><path d="M0.066104 840.771637l36.503558-4.114707c-2.346539 11.187374-4.36258 21.482402-6.841318 31.77743a6.60997 6.60997 0 0 1-4.52783 3.536334c-8.345087 1.421144-16.756274 2.379589-25.13441 3.503284zM1300.577667 706.919748h-15.136831c2.230865-10.278503 4.180806-20.937079 7.105717-31.397357 0.495748-1.751642 5.254926-2.28044 8.031114-3.304985zM1282.40025 673.060177c-19.433311 91.531557-38.503074 181.394097-57.837236 272.661255-10.956025-6.279471-21.647651-11.253474-31.017284-18.078267-13.930511-10.129779-28.092372-11.303048-44.89822-8.543386-44.237223 7.304017-88.771895 12.988591-133.240467 18.838414a25.365759 25.365759 0 0 1-14.608033-3.123211c-29.017768-16.310101-57.688512-33.264673-86.706279-49.574774a22.721771 22.721771 0 0 0-13.12079-2.561363c-25.927607 3.304985-51.756064 7.403166-77.667145 10.708151-5.5689 0.710572-7.270967 3.22236-8.262463 8.080688q-8.080688 39.213646-16.640599 78.328143c-0.594897 2.710088-1.933416 6.213372-4.048606 7.469266-20.259558 12.11277-40.766989 23.812416-63.141737 36.734907 8.69211-41.180112 17.004147-80.459858 25.547533-120.945923-15.533429 2.098665-30.174512 4.081656-44.79907 6.097697-30.802459 4.246906-61.604919 8.609486-92.423903 12.724192a23.134894 23.134894 0 0 0-15.500379 7.865864c-27.894073 31.496506-56.184743 62.662514-85.731309 93.431924 8.097213-38.172576 16.210951-76.328627 24.374264-114.765601l21.482402 1.982991 1.817741-2.24739c-3.982507-5.205351-7.353591-11.071699-12.096244-15.43428-5.354076-4.957477-6.196847-9.667081-4.676554-16.524924 9.914955-44.881695 19.301112-89.86254 28.869043-134.810335 0.380073-1.850792 0.528798-3.751158 0.941921-6.742169l-27.051302 3.304985c-1.652492-4.660029-2.924912-8.626011-4.26343-12.591993-4.164281 2.346539-9.320057 3.833782-12.294544 7.237917-6.428196 7.370116-14.013136 10.162829-23.531493 11.336099-29.232592 3.602434-58.316459 8.262462-87.5821 12.112769-5.882873 0.760147-7.68409 3.18931-8.675585 8.526861-2.495264 13.467814-5.618474 26.819953-8.543386 40.453016-6.60997-0.892346-12.492843-1.999516-18.458341-2.412639s-7.849339 2.627463-4.46173 7.568415a89.994739 89.994739 0 0 0 11.930996 14.707183c4.626979 4.36258 5.271451 8.559911 3.916407 14.558459-6.60997 29.744864-12.674617 59.770652-19.416786 89.565091a17.202446 17.202446 0 0 1-7.089193 9.914954c-18.342666 11.170849-36.999306 21.796375-55.655946 32.405378a29.397841 29.397841 0 0 1-9.914955 3.404134C231.415048 985.430826 154.855072 996.452951 78.228997 1006.863653c-23.300144 3.172786-43.576226-5.453225-64.001033-20.061258 17.185922-2.511789 32.471477-4.808753 47.790082-6.956993q125.490277-17.61557 251.046654-35.082415c5.287976-0.727097 7.237917-2.924912 8.262462-8.064163Q342.297292 836.937854 363.614444 737.226459c0.677522-3.18931 1.437668-6.378621 2.363064-10.460277 6.395146 1.239369 12.691142 1.801217 18.524441 3.701583 25.332709 8.262462 50.599319 6.411671 76.493876 2.396114 60.068101-9.320057 120.36755-17.252021 182.269917-25.993706-13.319089 62.893863-26.439879 125.011054-39.825068 188.136266 21.482402-2.957961 41.824584-5.734149 62.183291-8.592961 29.430891-4.131231 58.828731-8.626011 88.325722-12.278019 7.436216-0.908871 10.609002-3.685058 11.319573-10.856875 0.495748-5.139252 2.016041-10.179354 3.304985-16.657124L646.190654 863.807381a55.143673 55.143673 0 0 1 3.486759-4.957477q53.292882-59.324479 106.734488-118.533284a19.036713 19.036713 0 0 1 10.344603-5.420175c20.110833-3.205835 40.304291-5.849823 60.481224-8.675586 1.206319-0.165249 2.429164-0.148724 5.122726-0.280923l-28.720319 32.223603 82.624623-11.567448c-2.14824 9.914955-3.899882 19.168912-6.362096 28.224572-0.396598 1.437668-3.999032 2.528313-6.246421 2.842287-31.314732 4.527829-62.679039 8.840835-93.993771 13.401713-3.057111 0.446173-6.742169 1.487243-8.72516 3.585909-11.468298 12.178869-22.506947 24.787387-35.297239 38.998822 12.691142-1.751642 23.382768-2.991011 33.95872-4.957477 1.652492-0.313974 3.470234-3.767683 4.032081-6.064648 4.412155-17.714719 4.346055-17.665144 22.771346-20.094308 13.071215-1.652492 26.125906-3.652008 40.519115-5.668049l-4.246905 23.134894 97.38138-13.484338c1.652492 14.459309-0.875821 17.54947-14.26101 19.367211-27.266126 3.718108-54.532251 7.535366-81.715752 11.699647a9.584456 9.584456 0 0 0-6.262946 5.585425c-2.08214 6.411671-3.090161 13.21994-4.759178 20.937079l41.593235-5.684574c10.90645-1.520293 21.97815-2.296965 32.653251-4.808753 12.426743-2.941437 22.556522 0 33.297723 6.60997 31.397357 18.921039 63.207836 36.916681 95.018316 55.044523a18.474866 18.474866 0 0 0 10.691626 2.528314c44.452047-6.064647 88.837994-12.625042 133.290042-18.59054 5.915923-0.793196 7.667565-3.304985 8.75821-8.477287 14.178385-67.322543 28.571595-134.595511 42.667355-201.934578 1.14022-5.46975 3.106686-7.783239 8.857359-8.444236 17.185922-2.049091 34.338793-4.726128 52.516211-7.287492zM859.130832 94.522568a1256.588313 1256.588313 0 0 0-214.972744 4.445205 1235.849533 1235.849533 0 0 0-210.345764 40.585215C476.330955 57.539787 543.901371 11.121274 635.10243 1.652492c90.622686-9.435732 165.794568 22.0112 224.028402 92.870076zM413.618866 258.499395c0-17.764294-0.313974-33.95872 0.347023-50.103571 0.09915-2.462214 4.32953-5.882873 7.320542-6.907419a939.70636 939.70636 0 0 1 135.669631-35.231139A1135.030968 1135.030968 0 0 1 808.283639 147.071829c25.811932 0.941921 51.54124 4.065131 77.336647 5.882873 4.957477 0.347023 7.469266 2.28044 8.526861 6.940468 3.420659 14.988107 6.956993 29.926638 10.9395 47.01341-84.111866-9.914955-166.389465-9.072184-248.55139-0.380073s-163.001856 24.820437-242.916391 51.970888zM425.929935 310.817306c155.896138-50.764568 313.24647-67.173818 477.024997-49.855697-5.420175 16.987622-10.245453 32.554101-15.533429 47.922281-0.446173 1.321994-4.048607 2.429164-6.064648 2.24739-74.924008-6.262946-149.682767-4.081656-224.292801 4.32953-66.578921 7.502316-132.199396 20.044733-196.382203 39.494569-6.345571 1.916891-10.096729 1.388094-13.21994-4.742653-6.725644-12.790292-13.864412-25.382284-21.531976-39.39542zM854.239454 364.291962c-84.574564 107.874708-253.822841 126.019075-359.08661 38.007326 40.915713-23.878516 286.327368-49.987897 359.08661-38.007326z" p-id="1970"></path><path d="M1085.522298 899.567318c9.650556-45.526167 18.970613-89.532041 28.505495-134.545936L1040.756278 775.018962a9.154808 9.154808 0 0 1-0.446173-1.652493c2.693563-16.524925 2.710088-16.392725 19.400261-18.55749 17.202446-2.230865 34.338793-4.874853 51.54124-7.039618 5.188826-0.644472 7.403166-2.842287 8.262462-8.113738 1.652492-10.575952 4.445205-20.986654 6.444721-31.529556 0.826246-4.39563 2.627463-6.60997 7.370116-7.039618 10.592477-1.10717 21.135379-2.858812 32.835025-4.511304-3.123211 15.153356-6.031597 29.232592-9.171333 44.385947l38.949247-5.139251c1.338519 14.624558-0.776671 17.400746-14.459309 19.482886-1.07412 0.165249-2.164765 0.396598-3.304985 0.594897-8.345087 1.487243-19.201962 0.330498-24.308164 5.205351s-4.709603 15.797828-6.494295 24.109865c-7.254442 33.909145-14.574983 67.752191-21.482402 101.777011-1.14022 5.601949-3.304985 7.882389-8.956509 8.394661-10.014104 0.974971-20.011684 2.643988-31.413882 4.180806zM403.274263 975.433247c0.908871-2.726613 1.652492-5.53585 2.726613-8.262463q18.177417-45.559217 36.520083-91.101909c4.577404-11.435248 3.883357-14.674133-5.172301-23.283618-11.170849-10.625526-22.473897-21.118854-33.661272-31.727855a20.193458 20.193458 0 0 1-5.717624-8.626011c2.759662 0.578372 5.585425 0.941921 8.262463 1.735117 15.30208 4.511304 30.57111 9.171333 45.87319 13.682638 11.567447 3.437184 14.789807 2.429164 22.060774-6.841319q30.058838-38.370875 60.051576-76.758275c2.08214-2.677038 3.718108-5.684574 5.5689-8.543386l3.486759 2.693563c-1.07412 3.453709-1.916891 7.006568-3.304985 10.361128-12.04667 30.124937-23.911566 60.3325-36.354834 90.259138-3.685058 8.840835-1.916891 15.169881 4.775703 21.300627 11.782271 10.774251 23.349718 21.779851 34.950216 32.768926 2.24739 2.14824 4.180806 4.626979 6.262946 6.940468l-1.255894 1.933416c-5.965498-1.652492-11.94752-3.304985-17.896493-5.122726-12.11277-3.635483-24.175965-7.452741-36.354834-11.0056-10.8734-3.172786-14.409734-1.982991-21.482402 6.907418q-30.339761 38.668323-60.646474 77.336647c-1.916891 2.445689-4.263431 4.527829-6.41167 6.775219zM657.576327 767.781045c4.808753-22.622622 9.485307-44.617296 14.29406-67.190343 16.277051 3.420659 31.793955 6.973518 47.443058 9.79928a57.424113 57.424113 0 0 0 17.879969 0.413123q107.131086-14.872432 214.229122-30.075363c1.867316-0.264399 3.784208-0.231349 6.874368-0.396598-3.304985 15.186406-6.229897 29.744864-9.534881 44.369422a5.651524 5.651524 0 0 1-3.817258 3.38761c-18.177417 2.726613-36.354834 5.205351-56.184743 7.948489 1.966466-9.914955 3.718108-18.871464 5.668049-28.852519-17.433795 2.396114-33.942195 4.626979-50.450595 6.940469-37.891652 5.321026-75.783304 10.559427-113.625381 16.194426-3.949457 0.578372-7.931964 3.156261-11.187374 5.717624a36.900157 36.900157 0 0 0-8.807785 9.79928c-11.864896 19.929059-31.513031 21.168428-52.780609 21.9451zM951.60431 237.050043c-7.353591-0.958446-14.690658-1.949941-22.04425-2.875337-4.560879-0.578372-5.998548-2.842287-6.37862-7.65104-1.338519-16.971098-3.652008-33.876095-5.106202-50.830668-0.214824-2.412639 1.652492-6.461246 3.618958-7.370116 25.564058-11.699647 51.871738-13.847887 78.675166-4.56088a51.987413 51.987413 0 0 1 11.699647 6.031598c16.971098 11.385673 18.970613 28.769894 4.759178 43.394452s-32.454952 20.110833-51.937838 22.622621c-4.36258 0.561847-8.79126 0.528798-13.21994 0.776672zM349.667408 302.257395c-13.633063-4.346055-27.679249-6.890894-39.825068-13.12079-20.276082-10.427227-22.391273-30.653735-5.519325-45.97234 20.90403-19.020188 46.649862-23.134894 73.849888-21.482402 1.090645 0 2.164765 0.363548 3.304985 0.512273 12.244969 1.768167 11.567447 1.817742 12.542417 13.666112 1.189795 15.583004 3.18931 31.132958 5.53585 46.583763 0.727097 4.792228 0 7.419691-4.560879 8.576435-14.855907 3.751158-29.728339 7.370116-45.327868 11.236949zM246.783228 896.064034c0.495748-3.486759 0.826246-5.833298 1.388093-9.914955l-217.236658 30.571111c-2.296965-13.484338 0.710572-17.813869 12.988591-19.532461l256.450304-36.123485c3.470234-0.495748 6.973518-0.677522 11.451773-1.10717-1.850792 8.840835-3.304985 16.855423-5.304501 24.787387a5.767199 5.767199 0 0 1-3.767683 3.552859c-18.458341 2.693563-36.834057 5.155776-55.969919 7.766714zM19.383741 963.403102c1.057595-5.5028 1.255894-10.030629 2.924911-13.930512a9.667081 9.667081 0 0 1 6.60997-4.42868q92.655252-13.352139 185.393129-26.324204c6.808269-0.958446 13.600013-2.032566 20.408282-2.875337 4.494779-0.528798 8.890409-0.627947 9.204383-6.940469 0-1.189795 2.478739-3.040586 4.015556-3.304984 18.177417-2.677038 36.354834-5.122727 55.804671-7.78324-1.652492 8.477286-2.875337 15.946552-4.957478 23.134894-0.512273 1.801217-3.817258 3.668533-6.048122 3.982507q-70.214404 10.162829-140.461859 19.929059L28.951672 962.246357c-2.677038 0.380073-5.387125 0.627947-9.567931 1.156745zM61.208325 767.053948l278.692852-39.230171a106.288315 106.288315 0 0 0-2.313489 12.030145c-0.363548 5.205351-3.007536 6.60997-7.882389 7.270967-45.542692 6.262946-91.035809 12.823341-136.545452 19.235012q-45.807091 6.428196-91.614181 12.625043c-13.616538 1.817742-27.117401 2.412639-37.858602-8.626011a41.213162 41.213162 0 0 1-2.478739-3.304985z" p-id="1971"></path><path d="M1008.235226 884.215663l94.406894-105.03242 1.272419 0.611422c-4.858328 22.688721-9.667081 45.393968-14.690658 68.033114a13.451289 13.451289 0 0 1-3.552858 5.403651c-13.368664 14.988107-26.902577 29.744864-40.139042 44.89822-3.304985 3.701583-5.783724 4.808753-10.328078 1.900366-8.510336-5.46975-17.433795-10.295028-26.968677-15.814353zM106.304844 826.246228c-3.701583 17.599045-7.023093 33.743896-10.609002 49.822647-0.396598 1.768167-2.21434 4.346055-3.685058 4.577404-18.640115 2.991011-37.412429 5.601949-57.01099 8.394662 3.751158-17.599045 7.122242-33.95872 10.856876-50.235771a7.072668 7.072668 0 0 1 4.593929-4.511304c18.127842-2.809237 36.321784-5.271451 55.854245-8.047638zM338.975782 671.820808c1.834267-8.146788 3.850307-14.178385 4.428679-20.358707 0.776671-8.262462 5.106202-10.014104 12.988591-8.411187-3.22236 15.616054-6.312521 31.132958-9.83233 46.550713a6.60997 6.60997 0 0 1-5.089677 3.800732c-3.156261-0.082625-7.469266-0.677522-9.187858-2.776187-5.321026-6.60997-9.634031-13.880937-15.318605-22.358223-1.652492 7.485791-3.519809 13.385189-4.147756 19.433311-0.809721 7.882389-4.197331 11.435248-13.21994 9.353108 3.304985-15.583004 6.312521-31.298207 9.914955-46.914261 1.123695-4.957477 10.922975-5.601949 14.145336-1.10717 4.874853 6.907418 9.468782 14.062711 15.318605 22.787871zM517.659791 656.634402c3.999032 5.254926 7.931964 10.443752 11.98057 15.748253-13.071215 4.015557-23.134894-1.07412-27.547049-13.600013-1.652492-4.660029 6.097697-13.484338 12.459793-14.393209 4.742653-0.677522 10.823826 0.694047 12.244969-8.642535-7.68409 0.760147-14.591508 1.17327-21.366727 2.330014-1.239369 0.214824-2.412639 3.304985-2.858812 5.271451-1.916891 8.262462-3.982507 16.524925-5.139252 25.002211-1.00802 7.370116-4.346055 10.675101-12.294544 9.501831a10.856875 10.856875 0 0 1-0.446173-3.585908c2.726613-13.451289 5.651524-26.869527 8.361612-40.337341 0.908871-4.494779 2.792712-7.155292 7.915439-7.419691 8.262462-0.446173 16.40925-1.850792 24.622138-2.296965 10.096729-0.545323 14.624558 5.5689 11.831846 15.33513-2.296965 7.998063-7.204867 12.278019-19.76381 17.086772zM921.826396 613.074701l12.112769 16.078752c-11.914471 3.965982-25.745832-3.304985-27.993222-14.29406-0.875821-4.279955 7.403166-12.889441 12.922491-13.633063 4.759178-0.644472 10.889925 0.760147 12.04667-8.807785-7.601465 0.826246-14.492359 1.321994-21.234528 2.544839-1.206319 0.231349-2.263915 3.304985-2.726612 5.321025-1.933416 8.262462-4.131231 16.524925-5.221877 24.985686-0.991495 7.568415-4.29648 10.741201-13.219939 8.89041 1.222844-5.915923 2.495264-11.914471 3.734633-17.913018 1.817742-8.873884 3.304985-17.846919 5.684574-26.572079a9.600981 9.600981 0 0 1 6.147272-5.899398 224.623299 224.623299 0 0 1 25.398809-2.677038c10.642051-0.644472 15.781303 6.461246 12.030145 16.524925-3.25541 8.69211-10.212403 13.236465-19.681185 15.450804zM389.128928 671.275485l-9.452257-12.211919 25.861507-2.875337c-2.098665 10.179354-3.784208 19.499411-6.163797 28.654219-0.396598 1.520293-3.701583 2.924912-5.833298 3.304985q-9.79928 1.520293-19.69771 2.098666c-14.723708 0.859296-23.349718-9.617506-19.383737-23.961141 3.536334-12.806817 11.815321-22.143399 24.605613-25.613633 9.634031-2.627463 19.912534-2.924912 29.893588-4.246906 0.793196 9.485307-2.743137 13.21994-11.303048 12.872917a36.668808 36.668808 0 0 0-14.674133 1.735117c-5.321026 2.11519-11.071699 5.221876-14.442784 9.584456a14.872432 14.872432 0 0 0-1.10717 13.401714c1.503768 2.776187 7.865864 4.131231 11.997095 3.982507 4.593929-0.148724 12.063195 1.867316 11.699647-7.254442zM306.025082 647.529169c1.272419 9.402682-2.875337 12.674617-11.038649 12.773766a77.981119 77.981119 0 0 0-16.392726 1.817742c-2.825762 0.660997-5.221876 3.22236-7.799764 4.957478l1.371569 2.974486 22.506947-1.735117c1.17327 8.592961-1.949941 12.707667-10.542902 12.344118-3.304985-0.132199-6.60997 0.892346-9.914955 1.024546-4.957477 0.181774-6.973518 2.462214-5.866348 8.262462l29.166492-2.891862c1.536818 8.576436-1.652492 12.178869-10.113254 12.575468-10.9395 0.495748-21.8129 2.065616-33.95872 3.304985 3.486759-16.706699 6.60997-32.471477 10.212404-48.137105 0.330498-1.437668 3.156261-3.040586 4.957477-3.304985 12.244969-1.470718 24.556038-2.627463 37.412429-3.965982zM775.729538 616.247487l22.639146-1.768167c0.710572 7.998063-1.487243 12.691142-10.080204 12.278019-3.304985-0.165249-6.60997 0.842771-9.83233 0.892346-5.188826 0.082625-7.61799 2.296965-6.692594 8.427711l29.56309-2.693563c0.462698 7.733665-1.07412 12.195394-9.914955 12.492843-11.170849 0.347023-22.292123 2.098665-34.702341 3.304985 3.519809-16.673649 6.775219-32.388852 10.261978-48.05448A4.775703 4.775703 0 0 1 770.127588 598.202269c13.005116-1.569868 26.043281-2.875337 39.279746-4.263431 0.875821 8.69211-1.751642 12.724192-10.212403 12.509368a69.768231 69.768231 0 0 0-17.169397 1.867317c-2.842287 0.660997-5.205351 3.453709-7.766715 5.271451zM214.212601 657.378024c1.156745 9.914955-3.635483 12.591993-11.435247 12.757242-5.486275 0.115674-10.922975 1.288944-16.409251 1.652492-4.957477 0.280924-6.923943 2.495264-5.585424 8.097213l22.192974-1.867316c0.495748 8.262462-1.817742 12.905966-10.658577 12.443268a25.911082 25.911082 0 0 0-9.76623 1.173269c-2.891862 1.00802-5.321026 3.304985-7.948489 5.040102l1.404619 3.090161 29.744864-2.908386c1.057595 8.642536-2.08214 12.195394-10.526377 12.542417-10.8734 0.429648-21.680701 2.11519-33.89262 3.42066 3.618958-16.921523 6.808269-32.421902 10.377652-47.823132a6.494295 6.494295 0 0 1 4.643504-3.569384c12.558943-1.569868 25.10136-2.743137 37.858602-4.048606zM548.693599 659.906337l29.183017-2.693562c1.189795 8.956509-2.445689 12.129295-10.741201 12.459793-10.856875 0.446173-21.664176 2.08214-33.661271 3.304985 3.536334-16.624074 6.60997-31.893104 10.179353-47.046461a7.105718 7.105718 0 0 1 4.874853-4.26343c12.476318-1.652492 25.002211-2.726613 38.106476-4.065132 0 7.58494-1.239369 12.674617-10.096729 12.525893-5.982023-0.09915-11.997095 1.470718-18.012168 1.834267-5.056627 0.297449-6.742169 2.660513-5.932448 8.130263l22.242549-1.768167c0.842771 7.667565-0.793196 12.575468-9.600981 12.311069a32.636726 32.636726 0 0 0-10.609002 1.189794c-2.842287 0.925396-5.221876 3.304985-7.816289 4.957478zM990.90058 624.642148c3.569384-16.954573 6.60997-32.273178 10.129779-47.509158a6.312521 6.312521 0 0 1 4.098181-3.982507 155.945713 155.945713 0 0 1 22.143399-1.982991c10.063679 0 16.524925 7.667565 16.210951 17.863444-0.528798 13.864412-11.798796 28.373295-25.861507 31.827005-8.163313 1.949941-16.706699 2.379589-26.720803 3.784207z m13.980087-13.219939c4.527829-0.545323 7.799764-0.710572 10.9395-1.371569a18.805364 18.805364 0 0 0 15.500379-15.070731c1.288944-5.717624-0.396598-10.476802-6.791744-11.997096-8.262462-1.966466-13.616538 0.710572-15.070731 7.221392s-2.875337 13.286039-4.577404 21.218004zM1204.832254 580.685849c0.644472-15.450804 15.649104-31.050333 31.166007-32.405377 13.467814-1.17327 22.027724 8.097213 19.82991 21.482402-2.230865 13.831362-15.103781 26.886052-28.918618 29.331741-13.05469 2.313489-22.622622-5.651524-22.077299-18.408766z m31.132958-20.755305c-9.567931-0.280924-19.367212 9.072184-19.466362 17.681669 0 6.295996 3.437184 9.650556 9.485307 10.030629 8.510336 0.545323 18.177417-8.906934 18.342666-17.681669 0.0661-6.229897-3.238885-9.485307-8.361611-10.030629zM993.908117 594.566786c-0.793196 15.40123-14.690658 30.538061-30.075363 32.702825-13.930511 1.982991-23.548017-8.146788-20.854455-21.9451 3.073636-15.847403 18.425291-29.232592 33.429923-29.166491 10.856875 0.049575 18.045218 7.61799 17.499895 18.408766z m-11.782272 1.883841c-0.413123-5.089677-3.536334-8.592961-9.914954-8.543386-8.79126 0-18.491391 9.914955-17.863444 18.491391 0.462698 6.246421 4.263431 9.402682 10.443753 9.253957 8.592961-0.231349 17.45032-9.634031 17.334645-19.201962zM582.52012 666.499782c3.685058-4.527829 6.312521-7.700615 8.857359-10.9395a77.105298 77.105298 0 0 0 4.825278-6.60997c5.816773-9.336582 11.782271-18.59054 17.218972-28.092371 2.974486-5.205351 6.527345-7.915439 13.467813-5.899399 3.618958 15.202931 7.353591 30.852034 11.286524 47.360434l-29.149967 3.304985c-0.875821-3.569384-1.652492-6.874369-2.660513-10.757726l16.012652-2.511788c-1.305469-5.833298-2.511789-11.286523-4.263431-19.185438-6.246421 10.063679-11.765746 17.995643-16.244001 26.43988-3.602434 7.056143-8.774735 9.105233-19.350686 6.890893zM857.164366 618.726225c2.263915-7.485791 5.899398-12.856391 14.872432-12.558942a14.657608 14.657608 0 0 0 6.973518-1.801217 4.726128 4.726128 0 0 0 1.867317-4.065132c-0.181774-0.958446-2.396114-2.263915-3.635484-2.197815a110.022948 110.022948 0 0 0-16.326625 1.883842c-1.388094 0.280924-2.776187 3.040586-3.22236 4.874853a230.935821 230.935821 0 0 0-5.46975 25.745832c-0.941921 7.733665-4.39563 10.592477-13.21994 9.039134 1.735117-8.179838 3.304985-16.359675 5.205351-24.489938 1.966466-8.444236 1.735117-19.532461 7.089193-24.489939 5.073152-4.709603 16.111801-3.090161 24.556038-4.065131 6.312521-0.727097 13.335614-1.949941 16.326625 5.684574 2.792712 7.171817-0.247874 13.451289-5.354075 18.68969-6.130747 6.196847-13.550438 8.097213-29.66224 7.750189zM86.954157 706.539674c-8.262462 7.155292-12.244969 20.061258-27.166976 16.095277 6.163797-7.320542 11.864896-14.591508 18.177417-21.350203 3.420659-3.668533 3.602434-6.60997 1.041071-10.790775-3.304985-5.304501-5.965498-11.0056-8.939985-16.524925 11.98057-4.065131 11.98057-4.065131 21.399778 10.328078 8.262462-6.114222 12.178869-20.160408 27.166976-15.549954-6.246421 7.353591-12.244969 14.756758-18.640115 21.77985-2.875337 3.139736-3.304985 5.5689-1.057595 9.303533 3.420659 5.552375 6.213372 11.567447 10.146303 18.904514-5.750674 0-11.187374 1.536818-14.641083-0.429648s-4.940952-7.469266-7.485791-11.765747zM1062.370879 567.928607c-1.652492 8.014588-3.866832 15.979602-4.610454 24.076815-0.347023 3.800733 1.487243 10.658576 3.585909 11.187374a17.962593 17.962593 0 0 0 13.219939-2.908387c3.18931-2.230865 4.957477-7.023093 6.378621-11.055174a82.938596 82.938596 0 0 0 3.635484-16.888473c0.875821-7.882389 4.957477-10.129779 13.434763-8.394662-2.610938 10.642051-4.114706 21.581551-8.047638 31.562606-4.379105 11.170849-12.922491 19.201962-25.646683 20.77183-12.01362 1.503768-20.457857-6.742169-18.937563-18.772314a127.126245 127.126245 0 0 1 5.238401-24.952636c1.057595-3.073636 6.163797-4.775703 9.419207-7.122242zM133.736219 667.127729c-1.652492 8.031113-3.932932 15.996127-4.676554 24.109865-0.347023 3.751158 1.305469 10.146304 3.751158 11.121274 3.404134 1.371569 9.287008 0 12.476318-2.429163s5.486275-7.386641 6.956993-11.567448c1.867316-5.40365 2.511789-11.236949 3.718108-16.871948 1.916891-9.006084 1.916891-9.006084 13.21994-8.345087-2.478739 10.377653-3.866832 20.986654-7.601465 30.901609-4.263431 11.203899-12.641567 19.400261-25.23356 21.366728s-21.102329-6.345571-19.615086-18.854939a122.284442 122.284442 0 0 1 5.238401-24.936111c1.057595-3.040586 6.196847-4.676554 9.468782-6.956993zM226.58977 674.977068l22.341698-1.949941c0.826246 8.923459-2.511789 13.12079-11.0717 12.443269-1.07412-0.082625-2.197815 0.264399-3.304985 0.198299-8.906934-0.545323-13.880937 3.304985-14.029661 12.525892-0.115674 7.931964-4.246906 10.575952-12.806816 8.493812 3.18931-15.43428 6.312521-30.918134 9.733181-46.269789a5.701099 5.701099 0 0 1 3.800732-3.552859c13.021641-1.652492 26.076331-2.991011 38.932722-4.412155 1.355044 10.113254-3.932932 12.608517-11.88142 12.872916-5.221876 0.165249-10.394178 1.338519-15.599529 1.553343-4.907903 0.132199-7.105718 2.098665-6.114222 8.097213zM710.836159 604.597415l12.674617-1.751642 7.518841 30.521535c5.866348-9.452257 11.269999-17.136347 15.566479-25.415334 3.701583-7.122242 8.626011-10.162829 17.367695-8.262462-10.377653 16.756274-20.408282 33.380348-31.017283 49.574774-1.338519 2.049091-5.618474 2.825762-8.543386 2.875337-1.17327 0-2.991011-3.404134-3.519809-5.5028-3.404134-13.566963-6.54387-27.233076-10.047154-42.039408zM482.329502 667.243404c1.057595 9.022609-2.462214 12.790292-10.394177 12.608517a41.824584 41.824584 0 0 0-5.734149 0.545323c-7.981539 0.908871-15.698678 0.594897-20.573531-6.990043s-3.519809-15.930027 0.528797-23.498443c6.345571-11.864896 16.029177-19.284587 29.744865-20.606581 4.610454-0.429648 9.237433-0.892346 13.831361-1.355044 1.553343 9.83233 0.479223 10.691626-8.444236 12.525893-7.270967 1.487243-14.872432 3.304985-21.135379 7.089193a12.558943 12.558943 0 0 0-4.792228 16.095276c2.759662 6.395146 8.75821 5.53585 14.310585 4.957477 4.098181-0.380073 8.130263-0.875821 12.658092-1.371568zM1134.783098 597.706521c0.363548 7.931964-1.487243 13.05469-10.212403 12.294544a19.433311 19.433311 0 0 0-4.065131 0.578372c-8.72516 1.206319-17.384221 1.652492-22.853971-7.056142s-2.809237-17.58252 1.949941-25.630158c9.914955-16.624074 25.944132-19.433311 43.377927-19.201963 0.925396 8.510336-2.677038 12.211919-10.9395 12.244969-7.766715 0-16.194426 0.561847-20.590056 7.915439-2.627463 4.412155-4.32953 10.922975-3.172785 15.682154 1.470718 5.982023 8.163313 5.073152 13.467813 4.478254 4.29648-0.479223 8.626011-0.809721 13.038165-1.305469zM654.023468 659.34449c2.577888-12.740717 5.056627-24.985686 7.733665-38.139526l-16.4423 1.321994c-0.859296-8.427712 2.330014-12.096245 10.575952-12.591993 11.98057-0.727097 23.911566-2.313489 35.859086-3.536333 1.123695 10.295028 0.462698 12.04667-8.873884 12.145819-8.262462 0-10.675101 3.965982-11.650072 11.104749s-3.304985 13.913986-4.081657 20.97013c-0.908871 7.601465-4.577404 10.377653-13.12079 8.72516zM1192.636859 552.97355c0.512273 8.923459-2.726613 13.137315-11.303048 12.476318-6.329046-0.495748-9.006084 2.908387-9.815805 9.171334-0.991495 7.601465-3.552859 14.988107-4.511305 22.589571-1.04107 8.262462-4.874853 10.8734-13.08774 8.345087 2.544838-12.244969 5.089677-24.489938 7.832814-37.726402l-16.144851 1.222844c-1.07412-7.998063 1.222844-11.964045 9.683606-12.426743 12.509368-0.677522 24.969161-2.396114 37.346329-3.652009zM1208.038089 549.78424c-3.718108 17.896493-6.47777 33.215098-10.427227 48.236255-0.743622 2.842287-6.246421 4.445205-9.567932 6.60997l-2.197815-2.230865c3.304985-15.665628 6.196847-31.397357 10.278503-46.881211 0.627947-2.379589 6.659545-3.338035 11.914471-5.734149zM707.646849 605.985508c-3.304985 15.252505-6.081172 30.620685-10.113254 45.674892-0.743622 2.759662-6.362096 4.197331-9.749706 6.246421l-1.933416-2.18129c3.304985-15.715203 6.378621-31.529556 10.460277-47.04646 0.611422-2.313489 6.246421-3.304985 9.567932-4.874853zM218.93873 844.126196c0.908871-10.691626 6.163797-12.889441 28.885568-12.724192 0.677522 5.998548-0.958446 9.485307-7.898914 9.914955s-13.880937 1.817742-20.986654 2.809237zM110.122102 857.742734c-0.214824-7.270967 2.08214-10.526377 8.906934-10.724676 6.47777-0.181774 12.922491-1.652492 19.829909-2.693563 1.123695 6.262946-0.082625 10.080204-7.138767 10.658577s-13.947036 1.751642-21.598076 2.759662zM221.896691 821.28875c6.213372-17.268546 20.80488-8.72516 29.893589-14.624558 0.925396 9.634031 0.644472 10.113254-6.808269 11.269999-6.956993 1.07412-13.897462 2.032566-23.08532 3.354559zM143.634649 821.619249c1.17327 6.60997-1.14022 9.733181-7.452741 10.295028-7.039618 0.594897-14.029661 1.652492-21.218004 2.643988 1.189795-10.807301-3.866832-9.253958 28.670745-12.939016z" p-id="1972"></path></svg>