<?xml version="1.0" standalone="no"?><!DOCTYPE svg PUBLIC "-//W3C//DTD SVG 1.1//EN" "http://www.w3.org/Graphics/SVG/1.1/DTD/svg11.dtd"><svg t="1651275955341" class="icon" viewBox="0 0 2994 1024" version="1.1" xmlns="http://www.w3.org/2000/svg" p-id="1811" xmlns:xlink="http://www.w3.org/1999/xlink" width="584.765625" height="200"><defs><style type="text/css">@font-face { font-family: feedback-iconfont; src: url("//at.alicdn.com/t/font_1031158_u69w8yhxdu.woff2?t=1630033759944") format("woff2"), url("//at.alicdn.com/t/font_1031158_u69w8yhxdu.woff?t=1630033759944") format("woff"), url("//at.alicdn.com/t/font_1031158_u69w8yhxdu.ttf?t=1630033759944") format("truetype"); }
</style></defs><path d="M520.894189 757.990154H284.745809c78.575008-42.335672 81.792519-108.718006 91.95308-172.644872 19.643752-123.704834 40.896259-247.240326 60.201326-371.114503 7.197064-46.061211-7.874435-70.277216-50.040764-84.671345-126.075632-44.367785-328.355474 71.970643-311.759891 229.967372 8.467134 79.421721 82.639232 139.538376 155.371917 124.212863 0-27.68753-5.503637-56.137101 1.524084-81.115148s34.63058-44.875813 59.269942-28.788258c14.140115 9.144505 23.877319 43.267057 18.204339 60.285998-7.027722 21.083165-29.211614 41.742973-50.040765 52.580905-61.979424 32.344454-158.6741 15.833541-210.238948-31.074384C-16.768849 396.020156-16.768849 280.528442 51.476255 203.223504S211.251082 93.150756 311.755968 91.542001c114.221644-1.439413 228.61263 3.894882 342.749603 7.281735C726.814899 100.686506 787.608924 126.341923 821.477462 194.75637c35.223279 70.277216 21.506522 137.590935-20.575137 199.824373a201.687143 201.687143 0 0 1-146.058069 91.275709c-20.321123 2.455469-32.852482 7.789764-27.602858 30.905041 32.259782 143.941286 80.522449 279.415437 190.933882 383.730534a313.283975 313.283975 0 0 0 194.744092 88.312212c-129.377814 41.488959-245.546899 4.148896-322.936508-103.29904C618.266235 785.338998 589.308635 669.423927 569.918897 550.376017a184.837545 184.837545 0 0 0-3.979553-29.296285c-11.176617-34.799923 1.947441-49.532737 36.747364-59.269942C725.883514 425.993812 779.903832 313.296252 728.931682 204.662917c-20.067109-42.8437-53.088933-68.329775-100.843571-73.494727-54.613017-5.842323-92.037752 20.913822-101.605613 77.982308-26.163445 151.307693-50.802807 302.784728-75.52684 454.346435-8.128449 48.940037 30.058327 68.075761 69.938531 94.493221zM1979.44277 830.638167c6.265679-41.065602 11.430632-75.357497 16.934269-108.294649-47.24661 18.966381-90.767681 43.267057-137.336921 53.850975-112.020189 25.401403-213.287117-80.522449-189.494469-193.474023s120.656666-200.671087 245.546899-220.145495c37.255392-6.011665 75.780853-3.556196 113.459602-7.451079 11.091946-1.100727 29.296285-8.975163 30.820369-16.510912 13.716758-67.737076 25.401403-135.474151 35.561965-203.803926 2.032112-13.039387-3.048168-27.179502-5.080281-42.335672h119.64061c-49.956093 123.196806-57.491843 255.538118-82.131204 384.15389-12.192674 63.503508-20.575137 127.85373-29.804313 191.949938-5.757651 39.541518 8.467134 53.427618 46.823253 46.061211 23.199948-4.487581 45.891869-11.684646 73.410056-18.88171-27.264173-59.269941-38.779476-117.100469-20.659808-178.402523 29.211614-98.89613 119.979295-174.761655 222.685636-178.910551 79.252378-3.217511 144.449314 27.09483 182.382076 99.404159 43.775085 83.570617 29.973656 164.855108-23.96199 238.434506-85.941415 117.269812-222.008265 131.917955-339.616763 41.319616-9.483191-7.366407-32.005768-6.350351-43.944428 0-70.700573 34.545909-139.623047 72.563342-215.234558 113.036245z m343.935001-97.287375c28.703586-10.414575 59.269941-17.442297 85.772072-31.751754C2490.434334 657.739282 2548.772891 592.711689 2574.174294 502.536707c18.458353-66.721019-18.797038-117.947183-81.453833-117.015798-109.226034 1.693427-254.014034 146.820111-256.130818 256.130817-1.100727 55.798416 29.719642 87.211485 86.788128 91.699066zM2035.833885 474.171807c2.963497-64.519565-27.68753-91.783737-84.671344-86.534114a224.125049 224.125049 0 0 0-196.776205 176.116396c-16.934269 79.591064 19.135724 148.174853 81.792519 162.738324 69.684517 16.172227 175.608369-51.480177 180.011278-117.439154 3.471525-48.51668 14.055443-96.864018 19.643752-134.881452zM993.360291 189.845432c-31.836426-49.194051-16.341569-116.846455 41.488959-150.460979 33.191167-19.305067 73.07137-35.307951 110.665448-36.916707 113.459602-4.741595 227.257889-1.693427 343.088288 1.185399C1418.071756 34.981543 1406.302439 93.150756 1405.709739 160.887832c-2.370798 207.444794-7.789764 414.889588-12.023331 622.16504a69.853859 69.853859 0 0 0 8.467135 40.896259c5.334295-9.059834 11.261289-17.865654 15.918213-27.264173 110.580776-221.754251 220.145496-443.931859 331.996342-665.262754 22.099221-43.944428 28.026215-82.639232-21.337179-123.789506h230.560071c-93.81585 26.078774-140.300418 93.138479-178.82588 170.951445-126.329646 255.199432-255.707461 508.959452-381.02105 764.49757-19.813095 40.30356-42.335672 55.544402-91.783738 40.30356v-54.697689q3.302182-372.553916 6.773708-745.107832c0.592699-81.961862-40.557574-128.700444-121.926736-138.437648a286.52783 286.52783 0 0 0-63.164823-0.677371C1041.622958 53.270553 996.662474 101.617891 992.344235 191.030831zM2939.446474 690.422421l-278.145366 143.941285c18.966381-111.342818 36.578021-216.589299 54.782359-321.751109 20.829151-120.741337 42.928372-241.228661 62.572124-362.13934 3.048168-18.797038-3.894882-39.202833-6.265679-59.269942h142.247858c-56.137101 54.951703-51.64952 127.938402-65.450949 193.558694-25.82476 122.604107-45.383841 246.478284-67.737076 369.929104-8.467134 46.823254 2.54014 57.9152 48.177995 49.871422 35.90065-6.435022 71.631957-13.716758 107.447937-20.659808z" p-id="1812"></path><path d="M1175.996382 541.908882c-55.121045 15.410185-113.205588 7.027722-138.268306 70.615902-20.829151-51.64952-65.112264-57.830528-110.072748-64.180879-24.300676-3.386854-33.868538 5.334295-32.175111 29.804313 3.471525 63.672851 18.966381 120.571995 83.401275 149.529594s120.656666 9.906547 169.935388-36.408678l29.465628-27.433515c2.286126 48.347338 4.233567 89.158926 6.604365 139.538375-32.76781-44.029099-67.737076-52.580905-114.390987-40.726916-134.458095 34.461237-225.564462-8.467134-260.787741-117.10047-38.525462-119.217253 24.046662-254.776076 139.030348-300.667944 60.794025-24.216005 124.805562-30.566355 186.276958-12.277345 38.948818 11.515303 60.709354 3.725539 79.845078-28.364901a71.885972 71.885972 0 0 1 29.888984-26.840816l-54.104989 166.125178c-20.829151-28.110886-37.255392-59.269941-61.640739-80.861134-27.68753-24.978047-64.011536-24.893375-100.081529-12.954716-72.478671 23.877319-133.103354 111.004133-127.007017 184.668203 68.245104 12.023331 106.262537-3.725539 135.897508-58.253885 22.437906 63.334166 78.06698 58.338556 138.183635 65.789634zM1059.827297 984.824686c-37.594077-40.811588-49.617408-76.881581-25.401403-118.539883 16.934269-29.211614 39.118161-49.194051 75.018811-37.086049 26.417459 8.467134 39.880203 53.935646 19.897766 83.993974-18.119668 28.110886-46.653911 49.024708-69.515174 71.631958zM992.344235 191.030831a219.298782 219.298782 0 0 0 22.099221-16.002884c28.9576-27.264173 85.602729-27.179502 110.072748 3.725539 9.144505 11.515303 16.934269 33.021824 11.93866 44.875812a64.688907 64.688907 0 0 1-38.694805 32.767811c-47.161939 12.870044-86.788128-14.140115-104.738453-66.551677z" p-id="1813"></path></svg>