<?xml version="1.0" standalone="no"?><!DOCTYPE svg PUBLIC "-//W3C//DTD SVG 1.1//EN" "http://www.w3.org/Graphics/SVG/1.1/DTD/svg11.dtd"><svg t="1651276040116" class="icon" viewBox="0 0 1193 1024" version="1.1" xmlns="http://www.w3.org/2000/svg" p-id="7538" xmlns:xlink="http://www.w3.org/1999/xlink" width="233.0078125" height="200"><defs><style type="text/css">@font-face { font-family: feedback-iconfont; src: url("//at.alicdn.com/t/font_1031158_u69w8yhxdu.woff2?t=1630033759944") format("woff2"), url("//at.alicdn.com/t/font_1031158_u69w8yhxdu.woff?t=1630033759944") format("woff"), url("//at.alicdn.com/t/font_1031158_u69w8yhxdu.ttf?t=1630033759944") format("truetype"); }
</style></defs><path d="M873.087167 990.915795a77.740447 77.740447 0 0 0-4.175852 8.045475c-1.391951 3.813945-3.716508 5.734837-8.811048 4.328967l-5.205896-16.856523-12.318764 31.430247c-5.191976 2.421994-6.959754 1.391951-8.073314-4.690874-1.391951-7.098949-3.257165-14.086541-4.857908-21.129812-1.252756-5.567803-2.380236-11.135606-3.605152-16.703408a28.938655 28.938655 0 0 0-1.238836-3.243245c-2.26888 6.625685-4.175852 12.527556-6.277698 18.248473-1.572904 4.342886-3.340682 8.616175-5.066701 12.903384-0.668136 1.656421-1.391951 3.312843-2.213201 4.885747-1.69818 3.243245-4.969264 3.452038-6.723122 0.236631-2.463753-4.482081-4.621276-9.145116-6.79272-13.780312-2.421994-5.164137-4.718713-10.397872-7.154626-15.770801-2.296719 2.783901-4.857908 5.567803-6.959754 8.560496a12.847705 12.847705 0 0 1-11.608869 6.22202q-90.10097-0.125276-180.160181 0h-5.038862c-2.783901 5.011023-4.676954 9.841092-7.767085 13.724634-7.405178 9.256472-20.433837 11.929018-31.374569 7.112868A27.40751 27.40751 0 0 1 531.725174 986.628587a9.03376 9.03376 0 0 0-1.099642-5.136298Q474.822228 887.187628 418.977166 792.896886c-1.600743-2.783901-3.563394-2.658626-5.999308-2.658625H180.689122c-14.935631 0-29.885182 0.083517-44.820813-0.083518a5.567803 5.567803 0 0 0-5.567802 3.285004Q66.897151 900.884423 3.38244 1008.231662c-0.779492 1.322353-1.642502 2.616867-2.463753 3.925301l-0.918687-0.515022L535.747911 0.236632l0.86301 0.222712v4.036657c0 32.154062 0 64.322043 0.125275 96.476104a19.334195 19.334195 0 0 1-2.881338 10.383952q-66.0759 111.509172-132.096123 223.074022c-1.656421 2.783901-1.809536 4.78831-0.097436 7.669648q77.462057 130.578897 154.75708 261.241311c2.783901 4.718713 6.750961 4.718713 9.520943 0Q643.443138 471.871293 721.030471 340.387628c1.642502-2.783901 1.391951-4.579518-0.417585-7.140707q-75.165339-110.353853-150.247161-220.777303a16.132709 16.132709 0 0 1-3.09013-9.743655c0.125276-32.599486 0-65.185052 0-97.770618V0.320149l0.83517-0.320149Q877.764122 509.105974 1187.333961 1018.211949l-0.751654 0.487183c-4.022738-5.901871-8.18467-11.706306-11.998615-17.733453-1.97657-3.11797-3.95314-4.287208-8.017636-4.259369-20.197205 0.153115-40.366571-0.361907-60.605534-0.598539l-214.276893-2.575108c-2.658626 0-4.983184-0.375827-6.959754 2.783901-2.296719 3.786106-6.709202 3.034453-9.159036-0.84909-0.737734-1.197078-1.41979-2.519431-2.477672-4.551679z m46.505074-364.88596c-1.099641 1.753858-1.962651 3.048372-2.783902 4.384644q-31.235374 52.894127-62.442909 105.788255-39.280849 66.437808-78.631296 132.833857a6.249859 6.249859 0 0 0-0.417585 6.500409 26.850729 26.850729 0 0 1-11.135606 34.061034 27.560624 27.560624 0 0 1-35.564341-7.224224 26.767212 26.767212 0 0 1 3.173648-35.675697 8.101153 8.101153 0 0 0 2.867418-6.570007V367.294035a118.413247 118.413247 0 0 0-9.660138 14.573724q-69.903765 118.176616-139.710093 236.394991a9.214714 9.214714 0 0 0-0.793412 6.570007c3.855703 12.917303-1.12748 25.945961-13.042578 32.418532a4.997103 4.997103 0 0 0-2.992694 5.35901c0.180954 3.980979 0 7.961958 0 11.956857q0 142.146007-0.194873 284.292014c0 3.563394 0.668136 5.804434 4.175852 7.683568 6.959754 3.758267 11.02425 10.063804 12.72243 17.830889l0.765572 3.521635a8.644014 8.644014 0 0 0 1.169239 0.250551h184.837136a6.959754 6.959754 0 0 0 4.565598-2.352396c3.800025-4.370725 7.265983-9.04768 10.940733-13.529761a3.855703 3.855703 0 0 1 2.394155-1.1414c5.164137-0.542861 5.679159 3.939221 7.196385 7.05719 3.452038 7.168546 6.639605 14.476287 10.049884 21.992821l15.394975-41.842038h6.570007c3.577313 16.299743 7.05719 32.19582 10.523148 48.091897a36.552626 36.552626 0 0 0 1.141399-4.175852c1.823455-4.746552 3.813945-9.451345 5.776596-14.156139 1.628582-3.939221 3.145809-7.934119 5.066701-11.720225 1.197078-2.352397 5.191976-2.783901 6.375134-0.890848a26.210432 26.210432 0 0 1 2.310638 6.138502c1.210997 4.008818 2.310638 8.059395 3.507716 12.290925 2.129685-3.452038 3.744347-6.333376 5.65132-8.978082 0.83517-1.155319 2.338477-2.630787 3.452037-2.561189a6.48649 6.48649 0 0 1 4.315048 2.463753 31.889591 31.889591 0 0 1 2.783901 6.361214v-1.39195c2.53335-0.542861 5.08062-1.558985 7.613971-1.531146q135.088817 1.113561 270.177634 2.380236h9.743655zM380.71244 353.973067c-0.695975 1.016124-1.210997 1.670341-1.628582 2.380236Q332.676221 437.907695 286.310343 519.434249c-1.308434 2.26888-0.84909 3.786106 0.320148 5.748756q14.100461 23.663162 28.075646 47.326325Q428.344994 764.417575 541.99777 956.270142c0.946526 1.600743 1.97657 3.159728 2.964855 4.732632a11.344398 11.344398 0 0 0 0.807331-4.927505q0-44.403228-0.125275-88.792536V662.777333c0-3.521635-0.751653-5.874032-3.813945-8.17075a26.057317 26.057317 0 0 1-7.613971-32.404613c1.600743-3.187567 1.224917-5.303332-0.431504-8.101153q-63.55647-107.834422-126.987664-215.752361z m377.218644 496.216511c1.280595-2.004409 1.97657-3.006614 2.589029-4.050577Q831.189451 726.737469 901.984064 607.377695c1.851294-3.11797 1.517226-5.108459-0.389746-7.90628q-70.363109-103.296663-140.587023-206.676842c-0.83517-1.224917-1.767777-2.380236-3.173647-4.273289zM145.681562 766.964845h257.761434l-131.539343-222.030059C229.671868 619.237115 187.82983 692.787791 145.681562 766.964845z m430.72523-135.85439l0.918687-1.322354c-2.54727-9.367828-9.743655-14.907792-18.902691-14.559804a17.942245 17.942245 0 0 0-17.079235 14.615482c2.241041 1.043963 3.479877 0.375827 4.50992-1.934811a13.738554 13.738554 0 0 1 13.460164-8.685772c6.319456 0 10.634503 3.187567 13.501922 8.769289 0.668136 1.308434 2.366316 2.087926 3.591233 3.11797z m-34.297666 4.760471l-0.974366 1.294514c2.505511 9.353909 9.743655 14.935631 18.860933 14.601563a17.900486 17.900486 0 0 0 17.107074-14.504126c-2.26888-1.322353-3.452038-0.417585-4.482081 1.823455a13.822071 13.822071 0 0 1-13.460164 8.685773c-6.319456 0-10.620584-3.187567-13.501922-8.75537-0.668136-1.308434-2.338477-2.115765-3.549474-3.145809z m190.502375 247.502757c2.241041 1.197078 3.452038 0.501102 4.496001-1.823456a14.629402 14.629402 0 0 1 26.80897 0.083518c1.099641 2.561189 2.449833 2.923097 4.746552 2.060087-2.519431-9.465265-9.548782-15.033068-18.512944-14.866034a17.942245 17.942245 0 0 0-17.538579 14.545885z m35.773133 7.641809l-0.876929-1.183158c-1.183158 0.932607-2.783901 1.628582-3.465957 2.853499-2.881338 5.567803-7.224224 8.685772-13.529761 8.685773s-10.871135-3.298923-13.738553-9.061599c-0.598539-1.210997-2.435914-1.795616-3.702589-2.672546 1.670341 10.216918 8.713611 15.854319 17.705613 15.742963A17.984003 17.984003 0 0 0 768.356795 891.015492zM576.545987 987.143609c-1.238836-10.147321-8.657933-16.09095-17.830889-15.854319-8.713611 0.222712-16.007433 6.389054-17.51074 16.063111 2.032248-1.391951 3.800025-1.99049 4.384645-3.159728 2.909177-5.776595 7.33558-8.964163 13.919507-8.894565s10.592745 3.285004 13.432324 8.880646c0.542861 1.322353 2.352397 1.99049 3.605153 2.964855z m-34.450781 4.816149l-0.946526 1.294514c2.505511 9.353909 9.743655 14.921712 18.874852 14.587644a17.914406 17.914406 0 0 0 17.079235-14.518046c-2.296719-1.308434-3.452038-0.375827-4.482081 1.851294a13.83599 13.83599 0 0 1-13.474083 8.671853c-6.319456 0-10.620584-3.201487-13.488003-8.769289-0.668136-1.308434-2.352397-2.101846-3.563394-3.11797zM564.57521 634.729527v-2.032249c-1.726019-1.252756-3.298923-3.173648-5.191976-3.591232-2.672545-0.55678-4.621276 1.266675-4.80223 4.175852-0.194873 3.076211 1.628582 5.150218 4.551679 4.78831 1.962651-0.361907 3.646911-2.26888 5.442527-3.340681zM755.829239 888.329027v-2.032248c-1.69818-1.266675-3.243245-3.215406-5.136298-3.64691-2.658626-0.598539-4.635196 1.210997-4.857908 4.050576-0.236632 3.076211 1.572904 5.178057 4.496 4.843989 1.97657-0.208793 3.688669-2.087926 5.498206-3.215407zM553.912868 988.285008c0 0.682056 0 1.391951-0.097437 2.032248 1.69818 1.280595 3.257165 3.298923 5.136299 3.67475 2.895257 0.584619 4.857908-1.391951 4.899666-4.440322 0-2.783901-1.767777-4.830069-4.482081-4.454243-1.934811 0.27839-3.646911 2.087926-5.456447 3.187567z" p-id="7539"></path></svg>