<?xml version="1.0" standalone="no"?><!DOCTYPE svg PUBLIC "-//W3C//DTD SVG 1.1//EN" "http://www.w3.org/Graphics/SVG/1.1/DTD/svg11.dtd"><svg t="1651275960206" class="icon" viewBox="0 0 1190 1024" version="1.1" xmlns="http://www.w3.org/2000/svg" p-id="2127" xmlns:xlink="http://www.w3.org/1999/xlink" width="232.421875" height="200"><defs><style type="text/css">@font-face { font-family: feedback-iconfont; src: url("//at.alicdn.com/t/font_1031158_u69w8yhxdu.woff2?t=1630033759944") format("woff2"), url("//at.alicdn.com/t/font_1031158_u69w8yhxdu.woff?t=1630033759944") format("woff"), url("//at.alicdn.com/t/font_1031158_u69w8yhxdu.ttf?t=1630033759944") format("truetype"); }
</style></defs><path d="M295.587629 315.772289Q259.180941 446.074795 222.898086 576.253469c-5.139039 0.866826-8.915923-1.857484-12.599933-4.767542-25.880944-20.401367-51.978595-40.586027-77.673792-61.235058C128.599813 507.093146 123.83227 504.616501 123.83227 498.424887q23.06376-83.958279 46.220395-167.8856c6.191614-22.289809 12.97143-44.393869 18.574841-66.776552 1.857484-7.244188 4.736584-9.875624 12.197478-10.525743 51.699973-4.674668 103.307071-10.401911 155.06896-14.457417 11.85694-0.897784 17.026937-4.024549 19.596457-15.788615 8.358678-38.078423 8.792091-37.923633 47.551592-40.245487 9.28742-0.557245 18.42005-1.733652 27.614596-2.600478 2.043232-0.185748 5.169997-1.11449 6.005865-0.15479 14.519334 16.34586 32.010642 3.931675 47.830215 4.457961 17.800889 0.588203 35.72561-3.591136 53.681289-4.550836 4.705626-0.247665 13.404843-5.60341 14.674124 4.984249 1.516945 13.002388-5.943949 24.580706-15.664782 25.47849-30.710403 2.8791-61.420806 5.60341-92.069293 8.761133-4.922333 0.526287-14.116879-1.60982-12.538018 6.810775 1.176407 6.191614 9.597001 3.095807 14.550292 2.600478 36.747226-3.095807 73.432536-7.027481 111.449043-10.773408a439.604559 439.604559 0 0 1-25.973818 90.985761c-1.393113 3.436345-2.383771 6.56311-6.934608 7.027481-16.872147 1.671736-33.713336 3.931675-50.61644 5.262871-6.934607 0.526287-5.108081-4.705626-3.745926-8.6373 3.993591-11.609275 8.111014-23.218551 12.847598-36.716269-26.871603 2.259939-52.22626 4.396046-77.580917 6.625027a5.262871 5.262871 0 0 0-5.169998 6.191613c0.557245 3.436345 4.024549 2.56952 6.191614 2.321855 14.271669-1.671736 28.543338-3.374429 42.784049-5.417661 9.070714-1.300239 15.014663-1.795568 11.825982 11.268736-7.770475 31.793935-7.21323 31.762977-40.493152 34.518246a157.700396 157.700396 0 0 0-31.143816 6.253529c6.686943 4.7985 14.147837 3.095807 21.14436 2.538562q39.873991-3.776884 79.717024-8.389637c10.24712-1.207365 14.89083 1.640778 11.578317 12.383227-10.866282 35.416029 1.733652 34.053874-42.753091 37.149681-49.192369 3.498262-98.229948 9.28742-147.298486 14.457418-10.742449 1.11449-15.943405-0.588203-11.485443-13.033346a253.856154 253.856154 0 0 0 6.625027-28.171842c-9.28742 0.681077-18.017595 0.216706-26.159567 2.198023-11.144904 2.693352-11.113946-2.507603-9.287421-10.401911 1.950358-9.008798 3.807842-18.017595 5.696285-27.057351-0.371497-11.918856 5.727242-17.274602 17.336518-18.57484 5.29383-0.526287 11.175862 0 17.738972-4.860417-18.017595-0.15479-32.165432 1.981316-37.830758 20.091786zM640.831998 749.74248l44.765366-193.611755c1.733652-7.553768 6.191614-10.711491 14.08592-11.361611q109.127188-9.28742 218.19246-19.070169 61.451764-5.572452 122.779696-12.104605c13.435801-1.424071 16.407776 1.795568 13.002389 15.695741-20.370408 83.834447-39.347704 168.009433-59.718113 251.843879-7.182272 29.595913-28.2028 47.087221-57.860628 50.647399-46.437101 5.60341-93.121867 8.854007-139.713759 13.033346-15.479034 1.393113-30.772319 2.56952-46.12752 3.8388-19.441666-10.030414-33.063216-27.212141-49.532908-40.833691-18.079511-14.983705-34.951658-31.453397-52.87638-46.653807a16.252985 16.252985 0 0 1-6.996523-11.423527zM514.739789 752.281041c26.097651-2.228981 52.257218-3.869758 78.231037-6.903649 13.497717-1.60982 13.807298 3.622094 11.299694 14.302627-7.956223 33.80621-7.708559 33.279923-43.341294 35.818484-31.732019 2.228981-63.340206 6.191614-95.01031 8.884966-6.191614 0.557245-9.28742 3.095807-10.185204 9.28742-0.495329 3.52922-1.826526 6.934607-2.662394 10.432869-9.627959 39.378662-29.595913 57.82967-69.593735 63.43308-12.135562 1.702694-24.518789 1.981316-36.778185 2.910059-14.705082-10.618617-29.657829-21.020528-36.654352-38.914291 15.479034-0.681077 26.902561-4.179339 28.914835-23.373341 1.176407-11.113946-1.888442-12.01173-10.556701-11.144905-38.357046 3.776884-76.806966 6.934607-115.102095 11.423527-11.578317 1.362155-14.024005-0.495329-11.36161-12.16652 8.575385-37.149681 8.203888-37.149681 48.69704-39.533452 27.212141-1.671736 54.331409-4.519878 81.512592-6.501195 12.104604-0.866826 21.051486-7.460894 30.958067-13.404843 17.057895-10.154246 35.663694-17.769931 53.340751-27.862261-20.834779-3.653052-41.17423 1.331197-61.575597 2.817184-34.332497 2.507603-68.541162 6.439278-102.811742 9.844666-4.674668 0.464371-6.965565-1.021616-6.191614-5.912991 0-1.021616 0.650119-1.950358 0.835868-3.095807 6.625026-39.688243 8.575385-40.245488 48.418418-43.062672 51.26656-3.653052 102.347371-9.535085 153.552015-14.209753 43.929498-4.055507 87.889954-7.770475 133.274481-11.733107-3.281555 14.921789-6.191614 28.295674-9.101672 41.700517-1.207365 5.541494-5.108081 8.575385-9.720833 11.299694-18.203344 10.649575-36.313813 21.484899-54.486199 32.227349-1.145448 7.182272 3.095807 4.272213 6.098739 3.436345zM756.119842 506.473985c11.949814-43.619917 23.187593-85.691931 35.137406-127.547238 2.755268-9.658917 2.755268-15.045621-9.28742-13.62155-5.696284 0.681077-6.965565-1.950358-5.44862-7.429936a228.532455 228.532455 0 0 0 5.077123-24.116335c1.578861-10.09233 5.572452-17.243644 17.181728-17.150769a11.237779 11.237779 0 0 0 12.383227-9.287421c5.882033-22.258851 11.949814-44.455785 17.831847-66.188348-4.365088-3.869758-7.739517-1.207365-11.113947-0.681077-8.17293 1.331197-9.28742-1.60982-7.801433-9.473169 7.925265-40.616985 8.049098-39.966865 48.975663-42.598301s81.822173-7.460894 122.71778-11.299695c3.591136-0.340539 7.244188-0.216706 10.773407-0.835867 10.835324-1.888442 13.497717 2.538562 10.587659 12.383227-2.321855 7.863349-3.931675 15.943405-5.882032 23.899628-1.238323 5.108081-2.56952 11.05203-8.792092 11.20682-12.01173 0.309581-13.126221 9.28742-15.107536 17.46035-3.962633 16.469692-7.677601 33.0013-11.578318 49.532908-1.362155 5.665326-4.148381 11.825982 6.40832 9.968498 6.56311-1.145448 8.080056 1.950358 6.377362 8.111014-2.414729 8.915923-4.179339 17.986637-6.191613 26.995435-1.702694 7.615685-2.72431 15.169453-13.993047 14.054962-7.677601-0.742994-8.018139 6.594068-9.28742 11.918856-9.28742 38.914291-18.946337 77.766666-27.521722 116.866705-2.136107 9.782749-6.346404 14.085921-15.912447 14.828915-14.333585 1.145448-28.636212 2.786226-42.93884 4.365087-7.801433 0.866826-9.473169-1.362155-7.460894-9.28742q14.302627-57.551048 27.150225-115.380718c1.083532-4.984249 7.615685-13.590592-1.083532-15.479034-7.584727-1.733652-16.562566 0.216706-19.441666 12.135563-6.810775 28.450464-15.076579 56.529431-23.032803 84.701273-10.24712 36.313813-24.549748 47.675424-62.256673 50.183027-4.829459 0.278623-9.225504 0.9597-16.469692 1.76461zM570.495269 460.284548c4.767542-20.958612 9.473169-41.97914 14.395501-62.937751 1.578861-6.779817 0.9597-12.042688-7.615685-9.999456-13.497717 3.095807-8.32772-3.095807-5.169997-9.101672 20.958612-39.440578 41.855307-78.943072 63.061584-118.940895-7.832391-4.581794-14.519334-0.340539-21.237235 0.216706-6.191614 0.526287-10.711491 0-7.244187-8.049097a7.956223 7.956223 0 0 0 0.340538-1.485988C614.239018 210.112404 614.269976 210.514859 654.298757 207.419053c43.000756-3.467304 85.908637-7.956223 128.878436-11.918856 4.581794-0.433413 9.28742-0.185748 13.869214-0.588204 6.934607-0.588203 9.535085 2.383771 7.987181 9.101672-2.290897 9.968498-4.767542 19.936995-6.965565 29.967409-2.105149 9.535085-10.680533 10.618617-16.965021 9.720834-25.292741-3.622094-37.149681 9.93754-45.570275 30.958067-5.231913 13.219095-13.095263 25.385615-21.392025 41.081356l62.813919-4.953291c-10.618617 45.291653-20.98957 89.561689-31.453397 133.800768-2.352813 9.999456-4.953291 19.936995-7.553768 29.874535-6.717901 25.447532-21.918312 37.366388-48.635124 39.25483-17.893763 1.238323-35.756568 3.374429-53.650331 5.108081-23.342383-17.646098-45.81794-36.344771-65.166732-58.541706zM625.724461 549.536657l-20.494241 39.285788c1.578861 1.269281 2.290897 2.352813 3.095807 2.352813 26.283399 0.526287 26.283399 0.526287 20.803822 26.995435-6.532152 31.360522-6.501194 31.515313-37.768843 36.468603-9.627959 1.547903-19.565499 1.145448-29.162499 2.755268-8.97784 1.516945-16.191069 3.095807-12.011731-10.309036 2.259939-7.151314-3.095807-6.191614-7.120355-5.758201L328.155516 662.007316c-4.705626 0.433413-10.525743 0.216706-10.866282 6.191614-0.742994 12.383227-8.730175 12.599933-18.110469 13.219095-15.479034 0.990658-30.648487 3.095807-45.910814 5.139039-8.730175 1.11449-12.97143-0.80491-9.844666-10.711492a113.275569 113.275569 0 0 0 6.191614-25.416573c1.393113-19.751247 10.959156-29.255374 30.958067-28.2028 10.09233 0.557245 7.770475-6.779817 8.265804-12.692807 0.80491-9.627959-7.708559-20.618073-0.402455-28.109926 6.191614-6.470236 17.738973-2.136107 26.840645-3.095806 25.509448-3.095807 51.049853-5.510536 76.590259-8.32772 6.903649-0.742994 12.166521-0.402455 12.16652 8.823049 0 6.191614 2.383771 12.383227 2.105149 18.327176-0.433413 9.875624 2.693352 13.281011 13.188137 13.064304 11.082988-0.247665 11.547359-5.29383 12.383227-14.240711 0.897784-9.720833-8.544427-21.856396 1.269281-28.264715 7.275146-4.767542 18.884421-3.095807 28.605254-3.993591 6.655985-0.588203 13.435801 0 20.060828-0.928742 23.125676-2.693352 22.847054-2.786226 24.054418 21.206276 0.278623 5.789159-4.055507 14.705082 6.191614 16.438734 8.296762 1.424071 17.181727 1.021616 19.906037-9.473169C540.404027 556.53318 566.532636 551.053602 596.376213 551.053602c9.163588 0 18.358134-0.928742 29.348248-1.516945z" p-id="2128"></path><path d="M505.669075 461.275206c11.20682-2.043232 15.200411 0.712036 12.104605 13.373886-9.782749 40.245488-9.28742 39.285788-51.576141 42.28872-52.195302 3.714968-104.266771 9.627959-156.400157 14.395501-18.42005 1.702694-36.902017 2.693352-55.322067 4.241255-8.080056 0.681077-10.185204-2.8791-8.265804-10.061372 0.247665-0.990658 0.742994-1.9194 0.990658-2.910058 8.265804-36.809142 8.265804-36.809142 45.910814-40.245488 24.549748-2.290897 24.518789-2.321855 30.462739-27.676512 1.547903-6.470236 3.52922-12.847598 5.046165-19.348792 8.141972-34.673036 8.111014-34.673036 44.455785-36.097107 25.819028-1.021616 25.757112-1.052574 19.906037 23.497173q-4.64371 19.441666-8.915923 39.007165c-0.835868 3.869758-5.820117 9.28742 1.76461 11.206821 6.191614 1.702694 10.835324-0.464371 12.383227-7.677601 4.334129-19.008253 9.875624-37.768842 13.250053-56.900928 1.702694-9.627959 6.191614-13.281011 14.859872-14.116879 13.807298-1.300239 27.614596-2.538562 41.359978-4.117423 8.32772-0.9597 9.28742 1.981316 7.244188 9.566043-4.396046 16.314902-7.429936 33.0013-11.578317 49.532908-2.817184 11.082988-4.48892 19.998912 12.383227 15.479034a68.107749 68.107749 0 0 1 13.838256-0.835868c4.829459-4.519878 11.175862 1.269281 16.098195-2.600478z" p-id="2129"></path><path d="M90.242767 684.637664c35.044532 63.464038 35.044532 63.464038 95.784261 95.970009-48.820873 13.683466-80.490976 42.381594-93.679113 91.63588C77.85954 825.063458 48.666082 794.167307 0 780.143302c46.808598-15.479034 78.107204-44.455785 90.242767-95.505638zM123.83227 498.424887l99.065816 77.890498C211.010188 611.731415 185.067328 631.544578 147.731898 634.640385c-17.398434 1.362155-34.703994 3.714968-52.071469 5.479578-6.439278 0.650119-13.62155 1.207365-10.525743-8.946882C98.570487 587.026877 108.353236 541.766182 123.83227 498.424887zM640.831998 749.74248q50.152069 44.300995 100.304139 88.632947a106.52671 106.52671 0 0 1 9.070714 10.278078c-25.447532 2.786226-50.895063 5.727242-76.373553 8.265804-16.872147 1.671736-33.837168 2.476645-50.678356 4.210298-6.036823 0.619161-10.278078 1.826526-8.049098-7.027482 8.699217-34.734952 17.088853-69.562778 25.726154-104.359645zM1079.476857 317.784563c6.191614-21.392025 12.538017-42.784049 19.348792-66.095474l-62.875835 5.417662 74.299362-99.468271c4.024549 15.664782-0.557245 29.007709-3.095807 41.545727-3.343471 15.757656 1.455029 19.132086 15.664783 17.553224 12.723766-1.424071 25.571364-1.671736 42.041055-2.631436l-81.946004 105.845633z" p-id="2130"></path><path d="M625.693503 1023.938084c-2.755268-0.278623-7.863349 1.578861-8.606343-4.550836-0.835868-6.779817 4.086465-7.027481 8.97784-7.337062q72.25613-4.705626 144.512259-9.504127c62.504338-4.241255 125.008677-8.606343 187.543973-12.723766 3.807842-0.247665 9.968498-4.891375 11.05203 3.095807 1.176407 8.513469-6.005865 6.470236-10.587659 6.810775-74.794691 5.262871-149.589382 10.370953-224.384073 15.726698-35.849442 2.538562-71.698884 5.572452-108.508027 8.482511z" p-id="2131"></path><path d="M128.352148 897.783959c24.611664-6.996523 39.719201-22.568431 48.356502-51.576141 11.330653 25.664238 22.258851 46.189437 49.532908 50.956979-22.011186 11.330653-41.17423 23.497173-48.449376 49.935363-8.111014-25.106993-26.097651-38.883333-49.440034-49.316201z" p-id="2132"></path><path d="M570.495269 460.284548c23.311425 17.769931 45.81794 36.406687 65.166732 58.603622-22.289809 2.259939-44.641533 4.210297-66.900384 6.872691-11.825982 1.393113-15.479034-1.207365-11.516401-13.838256 5.479578-16.872147 8.915923-34.394413 13.250053-51.638057z" p-id="2133"></path><path d="M1106.565166 396.541887L1139.256885 369.329746l-36.654352-21.330109 74.051698-24.766454c-1.207365 10.866282-7.956223 14.643166-12.66185 19.348792-6.779817 6.810775-7.21323 11.330653 1.888443 16.129154 7.615685 4.024549 14.766998 9.008798 24.17825 14.859872l-81.760256 26.314357z" p-id="2134"></path><path d="M310.045046 851.532606L346.730356 890.446897c-23.373341 2.321855-46.77764 4.427004-70.120023 7.058439-11.949814 1.331197-13.435801-2.662394-10.587659-13.77634 8.606343-33.620461 8.111014-33.744294 44.022372-32.19639z" p-id="2135"></path><path d="M1041.026937 665.165039c18.915379-7.646643 30.369864-20.772863 37.428304-39.533452 7.770475 19.22496 20.834779 31.360522 42.474468 39.069081-21.670647 8.111014-33.744294 21.237234-42.629259 44.208121-5.479578-23.775796-19.07017-35.168365-37.273513-43.74375z" p-id="2136"></path><path d="M273.14303 465.268797c2.043232-13.157179 4.457962-28.35759 6.717901-43.558001 1.795568-12.135562 11.237779-9.28742 19.101127-10.278078 12.042688-1.455029 21.29915-1.76461 14.983705 15.479033-3.095807 8.018139-2.56952 17.181727-3.931675 25.819029-3.095807 20.277534-7.21323 23.590047-28.636212 23.744837-8.946882 0-8.946882 0-8.234846-11.20682zM483.286392 460.748919c-5.882033 0.340539-11.85694 1.269281-8.668259-8.32772 5.324788-16.005321 10.309036-32.165432 15.076579-48.356501a10.525743 10.525743 0 0 1 9.287421-8.296763c28.698129-5.943949 29.007709-5.758201 20.649031 21.484899-3.095807 10.278078-6.625026 20.463283-9.287421 30.958068-1.950358 7.770475-6.191614 11.021072-14.054962 10.401911-3.68401 3.776884-9.008798-0.866826-13.002389 2.136106z" p-id="2137"></path><path d="M606.778124 186.15086c-6.965565-15.231369-15.479034-28.35759-33.80621-32.970342 15.974363-7.306104 28.171841-16.965021 34.425371-34.611119 6.191614 16.686398 17.30556 27.862261 34.9207 33.0013-20.896696 13.250053-20.896696 13.250053-35.539861 34.580161z" p-id="2138"></path><path d="M1025.238323 479.230886l-68.107749 6.965565 72.132297-188.844212 5.231914 1.950358c-22.475557 59.160867-44.920156 118.321734-67.829126 178.597092 15.014663 4.736584 28.729087-3.869758 42.598301-1.424072 4.179339-2.352813 8.730175-0.928742 13.12622-1.26928a4.457962 4.457962 0 0 1 3.684011 2.043232c-0.278623 0.588203-0.557245 1.269281-0.835868 1.981317z" p-id="2139"></path><path d="M346.420776 172.560268q-5.634368 21.051486-11.175863 42.041056a6.625026 6.625026 0 0 1-6.872691 4.984249l-169.309671 14.612208c10.09233-7.677601 18.11047-7.398978 25.695196-8.111014 44.455785-4.179339 88.880612-8.606343 133.398313-11.949814 9.751791-0.742994 13.219095-4.48892 15.479034-13.188137 2.507603-9.906582 3.467304-20.618073 8.977839-29.533996z" p-id="2140"></path><path d="M502.820933 827.10669c-10.24712 59.841945-65.785894 99.901684-157.669438 91.171509 11.423527-8.265804 23.466215-4.767542 34.61112-5.324787 24.333041-1.145448 47.768298-4.581794 69.098406-17.831847a113.306527 113.306527 0 0 0 46.932431-57.272425c1.547903-3.962633 1.238323-9.28742 7.027481-10.74245z" p-id="2141"></path><path d="M1025.269281 473.906098c16.34586-0.650119 32.413097-5.169997 48.944705-3.745926 4.953291-3.095807 10.89724 0.371497 15.881488-2.476646 23.094718-1.671736 23.032802-1.671736 17.30556 20.710948q-11.609275 45.477401-23.032802 91.016718c-1.083532 4.179339-0.247665 9.535085-8.606343 11.268737 7.460894-30.184116 14.519334-59.346615 21.918312-88.416241 8.111014-31.917768 6.56311-34.053874-25.757112-27.55268-10.309036 2.043232-20.432325 1.578861-30.648487 2.043232a20.525199 20.525199 0 0 1-16.005321-0.185748c-0.990658-0.588203-1.331197-1.176407-0.990658-1.76461s0.650119-0.897784 0.990658-0.897784z" p-id="2142"></path><path d="M621.297457 62.101883c-12.66185 2.321855-31.174774-7.491852-31.948725-15.014662s16.593524-19.813163 29.286332-20.649031c-10.680533 12.042688-12.414185 23.651964 2.662393 35.663693z" p-id="2143"></path><path d="M124.110893 1019.727787c-12.383227 1.888442-32.413097-8.451552-32.413097-15.479034 0-6.501194 18.574841-19.472624 29.224416-19.348792-10.990114 12.599933-11.516401 24.333041 3.188681 34.827826z" p-id="2144"></path><path d="M295.587629 315.772289c5.139039-19.844121 18.574841-28.35759 39.595368-24.952203 3.095807 0.495329 6.191614 0.681077 5.974907 5.015207a6.191614 6.191614 0 0 1-5.386703 6.470237 122.036702 122.036702 0 0 1-19.720289 2.383771c-10.24712 0-15.479034 5.262871-17.800889 14.426459z" p-id="2145"></path><path d="M444.55785 980.658705c-2.755268 6.717901-8.668259 6.377362-14.240711 6.191614-3.900717 0-7.770475-2.012274-6.779817-6.346404 1.733652-7.584727 8.637301-5.541494 13.93113-5.789159 3.8388-0.123832 7.089397 1.11449 7.089398 5.943949z" p-id="2146"></path><path d="M566.532636 965.458294c3.931675 0.185748 9.28742-1.021616 9.720833 4.705627 0.526287 6.191614-4.7985 7.027481-9.566043 7.36802s-10.401911 0.495329-10.525743-5.727243 5.851075-5.912991 10.370953-6.346404z" p-id="2147"></path><path d="M334.347129 993.475345c-4.179339 0-9.689875 0-9.813707-4.891374-0.185748-6.965565 6.501194-6.686943 11.423527-7.182272 4.334129-0.464371 8.854007 0.216706 8.699217 5.912991-0.340539 6.717901-5.974907 5.789159-10.309037 6.160655z" p-id="2148"></path><path d="M1120.310548 15.479034c-4.241255 0.185748-9.566043 0-9.751791-4.860417-0.247665-6.872691 6.191614-6.841733 11.237778-7.275146 4.303171-0.402455 8.761133 0 8.637301 5.820117-0.15479 6.686943-5.634368 6.005865-10.123288 6.315446z" p-id="2149"></path><path d="M301.469662 996.230613c-4.024549 0-9.28742 0.773952-9.504127-5.015207-0.340539-6.191614 4.953291-6.903649 9.720833-7.089397s10.463827-0.588203 10.370953 5.820117-6.005865 5.820117-10.587659 6.284487z" p-id="2150"></path><path d="M201.506062 1002.762766c-4.086465-0.340539-9.28742 0.495329-8.730175-5.696285s6.191614-6.036823 10.618617-6.40832 9.28742 0.340539 9.28742 5.386704c0.15479 7.306104-6.315446 6.346404-11.175862 6.717901z" p-id="2151"></path><path d="M1024.712036 76.806966c-1.145448 5.510536-5.417662 6.625026-10.185205 6.625026s-10.216162-0.433413-9.535084-6.655985c0.619161-5.727242 6.191614-5.541494 10.835323-5.510536 3.962633-0.061916 8.482511-0.588203 8.884966 5.541495z" p-id="2152"></path><path d="M991.184448 12.383227c3.993591 0.185748 9.070714-0.557245 9.008798 5.386704s-5.355746 6.625026-10.030414 6.810775-10.401911 0-9.844665-6.191614c0.495329-6.005865 6.284488-5.60341 10.866281-6.005865z" p-id="2153"></path><path d="M347.47335 130.023884c-4.086465-0.340539-9.28742 0.371497-8.544427-5.727243s5.510536-6.470236 10.247121-6.56311c4.210297 0 9.28742 0.588203 9.28742 5.44862 0.123832 7.151314-6.222572 6.439278-10.990114 6.841733z" p-id="2154"></path><path d="M762.651994 40.245488c-3.776884-0.433413-9.28742 1.145448-9.473169-4.767543 0-7.089397 6.191614-7.027481 11.113946-7.306104 4.334129-0.247665 9.039756 0.773952 8.792092 5.943949-0.278623 6.129697-5.820117 6.129697-10.432869 6.129698z" p-id="2155"></path><path d="M865.339904 956.356622c-4.396046-0.371497-9.968498 1.052574-10.216162-4.705626-0.278623-7.151314 5.974907-7.120356 11.082988-7.429936 4.334129-0.278623 9.101672 0.588203 9.008797 5.789159-0.123832 6.315446-5.882033 5.851075-9.875623 6.346403z" p-id="2156"></path><path d="M861.253439 21.670647c4.272213 0.185748 9.28742-0.247665 8.823049 5.758201s-5.820117 6.191614-10.432869 6.470236-9.28742-0.340539-9.535084-5.262872c-0.15479-7.151314 6.315446-6.470236 11.144904-6.965565z" p-id="2157"></path><path d="M732.313088 965.582127c-3.900717-0.371497-9.504127 1.176407-9.968498-4.457962-0.588203-7.275146 5.820117-7.182272 10.89724-7.584727 4.272213-0.309581 9.28742 0.402455 9.28742 5.541494 0.092874 6.346404-5.727242 6.098739-10.216162 6.501195z" p-id="2158"></path><path d="M700.085739 956.139916c4.241255 0.216706 9.28742-0.433413 9.039756 5.634368s-5.912991 6.191614-10.494785 6.470236-9.535085 0-9.720833-5.108081c-0.278623-7.36802 6.377362-6.532152 11.175862-6.996523z" p-id="2159"></path><path d="M730.610394 30.958068c4.519878 0.247665 9.658917-0.495329 9.504127 5.448619s-5.572452 6.501194-10.185205 6.686943-10.401911 0-9.813707-6.40832c0.464371-5.727242 6.377362-5.355746 10.494785-5.727242z" p-id="2160"></path><path d="M599.47202 974.869547c-3.993591-0.216706-9.597001 0.897784-9.968498-4.550836-0.495329-7.21323 5.943949-7.151314 11.021072-7.429936 4.241255-0.247665 9.28742 0.216706 9.28742 5.572452 0.061916 6.40832-5.820117 5.912991-10.339994 6.40832z" p-id="2161"></path><path d="M632.844817 49.532908c-3.8388-0.340539-9.28742 1.11449-9.751792-4.48892-0.464371-7.027481 5.60341-7.36802 10.773408-7.6776 4.303171-0.216706 9.039756 0.526287 9.101672 5.696284 0.030958 6.470236-5.510536 6.25353-10.123288 6.470236z" p-id="2162"></path><path d="M467.126281 984.187925c-4.48892-0.371497-10.649575 0.588203-9.999456-6.191613 0.526287-5.510536 6.501194-5.60341 10.990114-5.943949s8.884965 0.495329 9.008798 5.820116c0.185748 7.027481-5.696284 5.789159-9.999456 6.315446z" p-id="2163"></path><path d="M968.646975 20.525199c-1.331197 5.789159-6.191614 6.191614-10.587659 6.7179s-9.844665-0.247665-9.782749-6.501194c0-5.758201 5.108081-5.262871 9.070714-5.355745 4.48892-0.092874 9.318378-0.619161 11.299694 5.139039z" p-id="2164"></path><path d="M892.273423 31.112858c-3.653052-0.526287-9.28742 1.11449-8.946882-5.015207 0.433413-6.779817 6.903649-6.191614 11.671192-6.872691 4.303171-0.464371 8.915923 1.11449 8.234846 6.346404-0.773952 5.882033-6.346404 5.386704-10.959156 5.541494z" p-id="2165"></path><path d="M481.150286 108.353236c5.417662 0 10.278078 0.588203 10.463827 5.665327 0.216706 6.191614-5.262871 6.439278-9.875624 6.532152s-9.039756-0.433413-9.28742-5.541494c-0.247665-6.377362 5.541494-5.912991 8.699217-6.655985z" p-id="2166"></path><path d="M965.334462 937.565075c4.210297 0 9.504127 0.340539 9.008798 5.572453-0.650119 6.470236-7.027481 6.191614-12.011731 6.56311-4.396046 0.278623-8.915923-0.588203-7.956223-6.191614s6.439278-5.479578 10.959156-5.943949z" p-id="2167"></path><path d="M614.889137 99.065816c4.64371 0 9.504127 0.495329 9.844666 5.44862 0.371497 6.191614-5.077123 6.56311-9.720833 6.717901s-9.070714-0.433413-9.287421-5.417662c-0.526287-6.191614 5.015207-6.284488 9.163588-6.748859z" p-id="2168"></path><path d="M832.462436 946.883454c4.148381 0 9.28742 0 9.28742 5.355745 0 7.027481-6.594068 6.501194-11.547359 6.686943-4.241255 0.15479-9.070714-0.650119-8.513468-6.191613 0.619161-6.067781 6.284488-5.417662 10.773407-5.851075z" p-id="2169"></path><path d="M881.376183 80.490976c5.108081 0.340539 9.875624 0.9597 9.566043 6.191613-0.371497 6.036823-5.851075 6.005865-10.432869 6.005865s-8.97784-0.866826-8.668259-6.191613c0.309581-6.005865 5.974907-5.541494 9.535085-6.005865z" p-id="2170"></path><path d="M996.849775 947.038244c-4.024549 0-9.597001 0.588203-9.658917-4.705626 0-6.594068 6.191614-7.151314 11.237778-7.460894 4.365088-0.247665 8.761133 0.278623 8.606343 5.943949-0.340539 6.501194-5.851075 5.882033-10.185204 6.222571z" p-id="2171"></path><path d="M169.774042 993.289597c5.046165 0 10.154246 0.557245 9.658917 5.882033-0.650119 6.841733-7.058439 6.191614-12.042688 6.191613-4.365088 0-8.97784-1.145448-7.987181-6.594068s6.717901-5.015207 10.370952-5.479578z" p-id="2172"></path><path d="M1098.794691 11.423527c-1.547903 5.758201-6.470236 6.191614-10.959156 6.594068s-9.28742-0.15479-9.28742-5.510536c0-6.532152 5.696284-6.191614 10.278078-6.191613s8.358678-0.123832 9.968498 5.108081z" p-id="2173"></path><path d="M1022.947426 21.670647c-3.776884-0.371497-9.442211 1.238323-9.566043-4.427003-0.185748-7.275146 7.089397-5.758201 11.423527-6.965566s8.854007 0.495329 8.575384 5.572453c-0.340539 6.222572-5.943949 5.820117-10.432868 5.820116z" p-id="2174"></path><path d="M136.215497 996.230613c3.807842 0.340539 9.473169-1.269281 9.658917 4.427004 0.216706 7.429936-7.089397 5.758201-11.454485 6.934607s-8.946882-0.371497-8.699217-5.541494c0.340539-6.25353 6.160655-5.417662 10.494785-5.820117z" p-id="2175"></path><path d="M1064.307404 931.187714c4.024549 0.278623 9.751791-0.80491 9.504127 4.7985-0.309581 7.275146-7.677601 4.953291-12.073647 6.191613s-8.761133-0.278623-8.172929-5.820116c0.712036-6.810775 6.841733-4.303171 10.742449-5.169997z" p-id="2176"></path><path d="M747.451583 89.778396c4.891375 0 10.24712 0.278623 10.123288 5.417662s-5.912991 6.191614-10.432869 6.625026-8.97784-0.928742-8.482511-6.191613 5.355746-5.479578 8.792092-5.851075z" p-id="2177"></path><path d="M1153.683345 12.630892c-4.086465-0.526287-9.751791 1.393113-10.154246-4.210298C1142.971854 0.557245 1150.525622 3.095807 1154.735919 1.76461s8.854007-0.433413 8.823049 4.7985c-0.092874 6.284488-5.943949 5.479578-9.875623 6.067782z" p-id="2178"></path><path d="M827.880642 24.766454c4.024549 0 9.844665-0.588203 9.844666 4.48892 0 6.655985-6.934607 6.191614-11.70215 7.182271a6.191614 6.191614 0 0 1-7.832391-5.479577c-0.495329-7.182272 5.29383-5.912991 9.689875-6.191614z" p-id="2179"></path><path d="M1029.324788 944.22106c-4.024549-0.309581-9.782749 0.681077-9.287421-4.953291 0.526287-7.36802 7.739517-4.612752 12.383227-5.634368s8.884965-0.15479 8.080056 5.634368c-1.145448 6.625026-7.275146 3.962633-11.175862 4.953291z" p-id="2180"></path><path d="M223.517248 133.491187C222.898086 139.744717 217.882879 139.311304 213.39396 139.311304c-3.498262 0-8.080056 0-7.429937-5.046165 0.712036-5.60341 6.191614-6.191614 10.494785-6.872691s6.965565 0.9597 7.05844 6.098739z" p-id="2181"></path><path d="M929.392146 951.527164c-4.210297 0.681077-8.420594-0.278623-8.544427-4.303171-0.247665-7.491852 6.191614-6.470236 11.05203-6.655985 3.807842 0 9.442211-1.052574 9.28742 4.767542-0.495329 7.491852-8.049098 4.117423-11.795023 6.191614z" p-id="2182"></path><path d="M400.876017 977.655773c5.077123 0 10.525743 0 10.309036 5.015207-0.278623 7.151314-7.615685 4.7985-11.949814 6.005865s-8.544427-0.557245-8.049098-5.882033c0.619161-6.841733 6.810775-3.993591 9.689876-5.139039z" p-id="2183"></path><path d="M914.74898 89.778396c-3.745926-0.464371-9.566043 1.021616-9.287421-4.705626 0.371497-7.151314 7.987181-4.086465 12.104605-6.191614a4.7985 4.7985 0 0 1 7.398978 4.705626c-0.309581 6.191614-5.696284 5.882033-10.216162 6.191614z" p-id="2184"></path><path d="M278.963147 990.410497c0 6.748859-4.860417 6.191614-8.606343 6.872691-4.396046 0.866826-9.720833 2.817184-11.609276-3.095807-1.76461-5.355746 2.786226-6.872691 7.089398-6.996523s10.123288-1.888442 13.126221 3.219639z" p-id="2185"></path><path d="M780.700547 99.065816c-3.436345-0.278623-8.420594 0.495329-8.389636-4.179339 0-7.770475 7.646643-4.736584 11.795024-6.191613 3.095807-1.083532 8.049098 0.278623 7.460894 4.860416-0.742994 6.036823-6.40832 5.200955-10.866282 5.510536z" p-id="2186"></path><path d="M698.073465 34.053874c3.931675 0.402455 9.689875-0.897784 9.28742 5.108081s-7.089397 4.64371-11.175862 5.851075-7.739517-0.433413-7.987182-4.7985c-0.464371-7.553768 5.696284-5.634368 9.875624-6.160656z" p-id="2187"></path><path d="M664.267255 36.468604c4.581794 0.557245 10.185204-1.207365 10.494785 4.519877 0.371497 6.965565-6.005865 5.324788-10.123288 5.572453s-9.442211 1.300239-9.782749-4.241256c-0.433413-7.089397 6.439278-4.334129 9.411252-5.851074z" p-id="2188"></path><path d="M324.71917 126.370832c-2.352813 5.882033-8.637301 3.374429-12.847598 5.417662a4.736584 4.736584 0 0 1-6.56311-4.272214c0-6.191614 4.984249-6.686943 9.689875-6.748859 4.117423-0.030958 8.17293 0.309581 9.720833 5.603411zM1058.394413 73.865949c-0.650119 5.077123-4.303171 6.377362-8.606343 6.470236s-10.649575 0.588203-10.556701-5.355745 7.275146-3.095807 10.990114-5.200956 6.686943 0.061916 8.17293 4.086465zM446.724915 122.191493c-4.365088 1.424071-7.925265 0-8.296763-4.024549-0.495329-5.169997 3.900717-6.501194 8.234846-6.625027s10.618617-0.681077 10.649576 5.262872-7.584727 2.631436-10.587659 5.386704z" p-id="2189"></path><path d="M365.305197 990.658161c-3.8388-0.371497-8.699217-0.495329-7.708559-5.324787 1.485987-6.934607 8.141972-4.48892 12.847598-4.891375 3.498262-0.309581 8.32772 0.216706 7.337062 5.169997-1.424071 7.182272-8.203888 3.900717-12.476101 5.046165z" p-id="2190"></path><path d="M798.718143 949.66968c4.117423 0.557245 9.782749-1.207365 9.504126 5.139039-0.309581 6.841733-6.872691 4.674668-10.89724 5.634368s-9.28742 0.433413-9.101671-5.046165c0.340539-6.470236 6.56311-4.984249 10.494785-5.727242z" p-id="2191"></path><path d="M582.847538 102.161623c3.467304 0.216706 8.451552-0.402455 8.32772 4.241255-0.216706 7.646643-7.708559 4.736584-11.918856 6.191614-3.095807 1.021616-8.049098-0.309581-7.36802-4.953291 0.835868-6.067781 6.501194-5.262871 10.959156-5.479578z" p-id="2192"></path><path d="M633.463978 972.083321c-4.117423-0.526287-9.566043 1.424071-10.09233-4.303172-0.619161-7.089397 5.758201-5.510536 9.782749-5.820116s9.28742-1.485987 9.78275 3.962632c0.526287 6.470236-5.665326 5.324788-9.473169 6.160656z" p-id="2193"></path><path d="M765.747801 962.7959c-4.427004-0.557245-10.711491 1.485987-10.339995-5.510536 0.278623-5.386704 5.943949-4.48892 9.782749-4.612752 4.303171 0 10.401911-1.455029 10.09233 5.386704-0.278623 5.386704-6.005865 3.993591-9.535084 4.736584z" p-id="2194"></path><path d="M665.165039 969.761466c-4.550836 0.681077-8.97784 0-9.28742-5.108081-0.278623-5.727242 4.891375-5.510536 8.823049-5.386704s10.401911-2.198023 10.618617 4.705626-6.625026 4.303171-10.154246 5.789159z" p-id="2195"></path><path d="M281.47075 133.367355c-3.931675-1.083532-10.09233 1.640778-9.535085-4.798501C272.430994 123.83227 277.755782 123.83227 281.873205 123.83227s9.28742-1.145448 8.97784 4.984249-6.284488 3.343471-9.380295 4.550836z" p-id="2196"></path><path d="M500.344288 981.370741c-4.303171-0.402455-9.875624 1.052574-9.844666-4.767542 0-6.748859 6.346404-5.046165 10.463827-5.324788s9.504127-1.300239 9.442211 4.365088c-0.061916 6.222572-6.315446 4.922333-10.061372 5.727242z" p-id="2197"></path><path d="M923.788735 28.295674c-3.714968-0.247665-8.761133 0.309581-8.389636-4.48892 0.495329-6.191614 6.40832-5.44862 10.866282-5.479578 3.869758 0 9.535085-0.897784 8.668259 5.324788s-7.275146 3.653052-11.144905 4.64371zM796.024791 27.335974c3.931675 0.340539 8.730175-0.588203 8.854007 4.396045 0.185748 7.306104-6.191614 5.29383-10.278078 5.572452s-9.782749 1.331197-9.287421-4.612752 6.841733-4.612752 10.711492-5.355745z" p-id="2198"></path><path d="M1082.758412 68.107749c3.095807 0.742994 8.544427-1.455029 8.730175 3.467303 0.216706 6.439278-5.789159 5.882033-10.185204 5.851075-3.714968 0-9.473169 1.176407-8.606343-5.231913 0.742994-5.727242 6.377362-3.498262 10.061372-4.086465z" p-id="2199"></path><path d="M714.01687 102.316413c-3.095807-0.712036-8.544427 1.424071-8.730175-3.467303-0.247665-6.377362 5.727242-5.943949 10.154246-5.882033 3.714968 0 9.473169-1.11449 8.637301 5.231913-0.773952 5.634368-6.377362 3.343471-10.061372 4.117423z" p-id="2200"></path><path d="M533.902833 968.399311c4.210297 0 9.875624-0.557245 9.566043 4.767542-0.402455 7.089397-7.584727 4.7985-12.073647 5.851075-3.900717 0.928742-7.52281-0.340539-7.429936-4.953291 0.15479-7.027481 6.098739-5.077123 9.93754-5.665326z" p-id="2201"></path><path d="M1055.824893 9.039756c3.807842 0.278623 9.13263-1.083532 9.287421 4.705626s-5.231913 5.077123-9.039756 5.139039-10.401911 1.455029-10.061372-5.293829c0.371497-5.169997 5.912991-4.148381 9.813707-4.550836z" p-id="2202"></path><path d="M648.943012 108.353236c-4.303171-0.681077-9.844665 1.052574-9.689875-5.200955 0-4.984249 4.984249-4.210297 8.389636-4.272213 3.931675 0 9.627959-0.9597 9.999456 4.272213s-5.479578 4.550836-8.699217 5.200955z" p-id="2203"></path><path d="M948.957644 86.682589c-3.807842-0.557245-9.28742 1.269281-9.566043-4.767542-0.185748-4.953291 4.612752-4.581794 8.080056-4.550836s9.597001-1.207365 10.278078 3.962632c0.773952 5.974907-5.077123 4.829459-8.792091 5.355746zM415.08577 123.83227c-4.055507-0.371497-9.813707 0.495329-9.535085-4.953291s6.005865-4.334129 9.999456-4.334129c3.374429 0 8.203888-0.897784 8.451552 4.117423 0.278623 6.346404-5.324788 4.612752-8.915923 5.169997z" p-id="2204"></path><path d="M899.981981 943.10657c3.8388 0.309581 8.265804 0.495329 7.368021 5.541494-1.207365 6.470236-7.151314 4.210297-11.361611 4.64371-3.653052 0.402455-8.637301-0.371497-8.141972-4.612752 0.835868-7.089397 7.677601-4.705626 12.135562-5.572452zM235.559936 989.667503c3.8388 0.309581 9.28742-1.176407 9.473169 4.736584s-5.231913 5.231913-9.101672 5.262872-10.618617 1.578861-10.339995-5.231914c0.216706-5.200955 6.036823-4.241255 9.968498-4.767542z" p-id="2205"></path><path d="M548.669831 114.54485c-3.931675-0.247665-9.658917 0.835868-9.93754-4.396046s5.44862-4.922333 9.287421-4.829458 9.28742-1.331197 8.977839 4.984249c-0.123832 4.984249-4.953291 3.8388-8.32772 4.241255z" p-id="2206"></path><path d="M523.191341 111.82054c0.309581 4.581794-2.56952 5.696284-5.820116 5.572452-4.210297 0-10.185204 2.259939-11.206821-4.48892-0.557245-3.869758 3.405387-4.612752 6.594069-4.519878 3.807842-0.030958 8.389636-1.516945 10.432868 3.436346zM857.259848 86.403967c0.464371 5.44862-2.538562 6.346404-5.7582 6.191613-3.869758 0-9.008798 1.950358-10.835324-3.095807s2.507603-5.851075 6.191614-6.005865 8.265804-0.588203 10.40191 2.910059z" p-id="2207"></path><path d="M814.475799 95.970009c-3.68401-0.278623-8.32772 0.340539-8.141972-4.7985S811.10137 86.682589 814.630589 86.682589s8.234846-0.990658 8.606343 3.993591c0.433413 6.532152-5.262871 4.64371-8.761133 5.293829zM1123.777852 69.996191c-1.516945 5.60341-6.191614 4.086465-10.09233 4.272213-3.095807 0-6.965565 0-6.996524-4.055507 0-6.346404 5.29383-4.984249 9.070714-5.108081s7.398978-0.371497 8.01814 4.891375z" p-id="2208"></path><path d="M390.071651 122.532031c-1.547903 5.60341-6.191614 4.179339-10.09233 4.241256s-8.018139-0.185748-6.872691-5.541495c1.021616-4.767542 5.634368-3.498262 8.97784-3.591135s7.615685-0.371497 7.987181 4.891374z" p-id="2209"></path><path d="M681.263234 95.970009c4.457962 0.309581 9.070714-0.278623 8.97784 4.767543S685.50449 105.25743 682.037186 105.25743s-9.28742 1.238323-8.637301-5.324788c0.588203-5.262871 5.696284-3.002933 7.863349-3.962633zM256.951961 130.364422c0.340539 4.612752-2.56952 5.727242-5.820117 5.603411-4.210297-0.15479-10.216162 2.259939-11.206821-4.48892-0.557245-3.807842 3.405387-4.550836 6.594069-4.550836 3.8388 0.15479 8.420594-1.485987 10.432869 3.436345z" p-id="2210"></path><path d="M981.370741 74.299362c4.334129 0.340539 9.28742-0.402455 9.039756 4.612752-0.185748 6.005865-5.727242 4.612752-9.535085 4.705626s-8.049098 0.247665-7.337062-5.169997 5.479578-3.405387 7.832391-4.148381z" p-id="2211"></path><path d="M1101.828582 934.500227a7.553768 7.553768 0 0 1-7.987182 5.882033c-4.148381 0.185748-7.151314-1.516945-6.965565-6.191614s3.560178-5.851075 7.491853-5.7582a6.594068 6.594068 0 0 1 7.460894 6.067781z" p-id="2212"></path><path d="M1183.465006 9.813707c-3.374429 0-6.934607-0.309581-7.429936-4.117423C1175.415908 0.681077 1179.502373 0 1183.186383 0c3.095807 0 6.810775 0.340539 7.306104 4.055507 0.681077 5.046165-3.622094 5.231913-7.027481 5.7582z" p-id="2213"></path><path d="M483.286392 460.748919c3.931675-3.52922 8.575385-2.72431 13.188137-2.228981 2.352813 3.095807 6.191614 2.074191 9.28742 2.848143-4.891375 3.962633-10.556701 2.693352-16.098195 2.445687z" p-id="2214"></path><path d="M514.739789 752.281041c-3.095807 2.910058-7.120356 4.272213-9.999456 1.145449-1.60982-1.733652 1.671736-3.776884 4.055507-4.48892 0.990658 3.002933 3.745926 2.755268 5.943949 3.343471z" p-id="2215"></path><path d="M1025.269281 476.568492l16.005321 0.185748c-4.891375 3.714968-10.525743 2.693352-16.036279 2.476646 0-0.897784 0.030958-1.76461 0.030958-2.662394zM1090.095474 467.683526c-4.705626 4.612752-10.525743 2.074191-15.881488 2.476646 4.829459-3.714968 10.432869-2.693352 15.881488-2.476646z" p-id="2216"></path><path d="M1025.269281 473.906098v2.662394l-15.943405-0.185749c4.829459-3.745926 10.463827-2.72431 15.943405-2.476645z" p-id="2217"></path><path d="M972.764398 567.894791c-16.841189 70.8011-33.310881 139.620885-49.532908 208.502585-1.547903 6.655985-4.303171 9.535085-11.05203 10.185204-25.571364 2.414729-51.049853 5.479578-76.621217 7.894307-27.088309 2.56952-54.269492 4.457962-81.357802 7.151314-9.504127 0.9597-12.97143-1.176407-10.494785-11.423527q23.528131-97.23929 46.251353-194.664329c2.228981-9.566043 8.111014-12.383227 16.252986-13.12622q55.229192-5.046165 110.489343-9.875624c17.986637-1.578861 35.849442-2.910058 56.06506-4.64371z" p-id="2218"></path><path d="M910.507724 237.045923c-5.479578 23.001844-10.370953 44.455785-15.819572 65.785894-2.074191 8.32772-9.535085 7.306104-15.231369 6.191613-8.265804-1.516945-2.538562-7.708559-1.702694-10.89724 5.077123-19.813163 11.113946-39.378662 16.407776-59.129909 1.795568-6.686943 6.191614-7.337062 11.671191-6.810774 4.334129 0.433413 5.046165 3.095807 4.674668 4.860416z" p-id="2219"></path><path d="M709.775614 365.955316a99.313481 99.313481 0 0 1-3.436345 17.831847c-5.324788 14.395501 0.712036 22.537473 12.81664 29.626871 7.429936 4.365088 20.432325 8.699217 18.296218 17.181727-1.424071 5.60341-16.222027 6.191614-25.323699 5.572453-15.788614-0.835868-21.422983 7.956223-24.456874 21.670647-1.795568 8.17293-2.136107 21.670647-9.28742 22.568431-8.730175 0.9597-10.928198-12.383227-12.97143-20.02987-5.046165-18.729631-17.862805-19.658373-33.094175-18.172385a130.023884 130.023884 0 0 1-13.900172 0c-3.095807 0-6.903649 0.464371-7.36802-3.560178a12.197479 12.197479 0 0 1 2.910058-6.655985 13.002388 13.002388 0 0 1 4.365088-4.334129c24.518789-13.095263 23.899628-31.855851 12.66185-53.526499-1.9194-3.68401-5.541494-9.070714-0.959701-12.383227 3.52922-2.662394 8.080056 1.145448 10.990114 3.560178 20.153702 16.810231 38.790459 16.438734 56.777096-3.405387 2.352813-2.600478 5.665326-6.903649 10.463827-4.736585 2.507603 1.207365 1.60982 4.457962 1.516945 8.792091z" p-id="2220"></path><path d="M905.61635 731.972549c20.803821-2.414729 20.803821-2.414729 16.129153 15.881489-7.801433 30.710403-7.801433 30.555613-40.431236 32.134474-8.699217 0.433413-17.367476 1.795568-26.035735 2.8791s-13.033346-0.433413-9.968498-11.299695c5.44862-19.22496 9.28742-38.914291 13.77634-58.448831 1.11449-4.891375 6.005865-11.671191-2.755268-13.590592-6.810775-1.485987-14.271669-1.516945-17.553224 7.956223-4.396046 12.599933-9.751791 24.766454-14.952747 37.149682-10.773408 25.63328-29.255374 41.762433-57.365299 45.786981-3.095807 0.402455-6.191614 2.56952-8.761133 0-3.374429-3.374429 0-6.686943 1.331197-9.751791 8.761133-21.422983 17.769931-42.753091 26.531064-64.145116 2.228981-5.417662 6.56311-12.383227-5.355746-11.299694-4.953291 0.433413-6.191614-2.786226-5.479578-6.996524 0.216706-1.516945 0.619161-3.095807 0.928742-4.519878 7.337062-36.375729 7.337062-36.437645 49.842489-40.462194q51.42135-4.891375 102.8427-9.28742c16.934063-1.516945 17.274602-1.021616 13.250053 16.067237-1.76461 7.491852-4.117423 14.859872-5.634368 22.382683-0.897784 4.396046-2.043232 9.101672-6.810775 8.946881-20.246576-0.773952-18.048553 15.479034-21.330108 27.428848a122.562989 122.562989 0 0 0-2.198023 13.188137zM822.246274 640.305711c-27.335974 1.021616-27.335974 1.021616-22.878012-17.893763 7.058439-29.967409 7.089397-29.31729 37.706926-31.453397 31.23669-2.136107 62.411464-5.479578 93.586238-8.761133 19.22496-2.012274 19.751247-1.795568 15.200412 16.376818-7.36802 29.441122-7.337062 29.626871-38.852375 33.094174s-62.349548 6.377362-84.763189 8.637301z" p-id="2221"></path></svg>