<?xml version="1.0" standalone="no"?><!DOCTYPE svg PUBLIC "-//W3C//DTD SVG 1.1//EN" "http://www.w3.org/Graphics/SVG/1.1/DTD/svg11.dtd"><svg t="1651276037855" class="icon" viewBox="0 0 3258 1024" version="1.1" xmlns="http://www.w3.org/2000/svg" p-id="7385" xmlns:xlink="http://www.w3.org/1999/xlink" width="636.328125" height="200"><defs><style type="text/css">@font-face { font-family: feedback-iconfont; src: url("//at.alicdn.com/t/font_1031158_u69w8yhxdu.woff2?t=1630033759944") format("woff2"), url("//at.alicdn.com/t/font_1031158_u69w8yhxdu.woff?t=1630033759944") format("woff"), url("//at.alicdn.com/t/font_1031158_u69w8yhxdu.ttf?t=1630033759944") format("truetype"); }
</style></defs><path d="M3258.180607 1023.533404h-191.814394V341.52667H1598.786293a202.80376 202.80376 0 0 0-33.015671 2.949527c-27.354483 4.42429-47.810879 19.029206-54.138091 46.478835-6.802941 29.685561-0.333011 57.658493 25.451563 76.54498a162.652136 162.652136 0 0 0 42.482702 20.313677c41.055511 14.271904 83.110056 26.070012 123.689837 41.436096 84.204235 31.778774 132.72871 92.624659 147.761783 182.061926 24.78554 147.476345-63.938131 278.968156-209.654275 306.798369a348.377184 348.377184 0 0 1-63.795412 4.995167q-480.487445 0.428157-960.97489 0.618449c-20.741834 0-28.543809-5.280605-31.160324-26.688461-7.231098-54.851686-17.792307-109.417933-27.402057-166.50555h507.128333V247.046664c-13.796174 12.844714-25.974866 23.786507-37.487535 35.013738q-206.466882 203.802794-412.743472 407.843452Q452.609659 850.415205 290.195388 1010.641117a42.815713 42.815713 0 0 1-26.450596 12.178692c-83.205202 0.903887-166.50555 0.523303-249.710753 0.47573-3.044673 0-6.089346-0.808741-14.034039-1.902921 32.968099-32.872953 63.12939-63.367255 93.671265-93.528546q157.514251-155.230746 315.076074-310.366346 274.020563-270.738025 547.803261-541.80906c6.184492-6.089346 14.271904-10.89422 19.029205-17.887454C1009.642084 7.706828 1057.167525-4.376717 1115.15903 1.284471c46.336116 4.757301 93.4334 1.094179 140.197673 1.236899a42.815713 42.815713 0 0 1 7.373817 1.855347v824.392766c10.466063 0.47573 18.172891 1.094179 25.927293 1.141752 91.149896 0 182.347364 0.428157 273.497259-0.333011a146.953041 146.953041 0 0 0 48.76234-8.134985c46.573981-17.269004 59.085684-71.074083 23.786507-105.945103a158.893868 158.893868 0 0 0-51.711866-32.064212c-38.772007-15.841814-78.923631-28.305944-118.266514-42.815713-86.773178-31.778774-137.961742-94.289714-151.329759-184.82116s3.139819-175.449277 72.977004-242.622374c46.003105-44.147757 102.90043-61.226469 164.840495-62.65366 64.937165-1.474763 129.969475-0.999033 195.049359-1.046606h1293.98599c61.844919 0 123.689837-0.523303 185.534756-0.618449 10.228198 0 20.456396 0.856314 32.444796 1.379617z" p-id="7386"></path><path d="M2481.218137 488.860296h195.049359v259.035063c0 47.049711 29.685561 80.01781 72.120689 80.874124s74.166329-33.681694 74.356622-81.302281c0.237865-76.925564 0-153.803555 0-230.681547v-27.30691h195.049359v254.801065a396.378356 396.378356 0 0 1-3.615549 52.044877c-17.269004 125.164601-128.447139 235.343702-275.923484 227.25629-149.61713-8.230131-257.227289-123.689837-257.41758-267.931217 0.285438-88.010077 0.380584-175.97258 0.380584-266.789464zM2165.143029 1023.343112a267.97879 267.97879 0 1 1 2.9971-535.910007c151.091894 1.284471 266.40888 121.168468 265.267128 276.304067-0.903887 141.291853-124.117994 260.509827-268.264228 259.60594z m1.902921-196.619269a71.359522 71.359522 0 0 0 71.359521-73.119723 72.358555 72.358555 0 1 0-71.359521 73.119723z m194.716348-71.97797a43.434162 43.434162 0 0 0 0.237865 14.271904 206.086298 206.086298 0 0 0 11.417523 22.359317c4.757301-6.898087 13.320444-13.463163 13.938893-20.741834a214.078565 214.078565 0 0 0-1.665055-51.75944 219.21645 219.21645 0 0 0-82.919764-141.815156c-9.514603-7.706828-21.027272-12.749568-25.070979 3.94856-1.284471 5.280605 7.183525 14.271904 13.177725 19.695228a198.284324 198.284324 0 0 1 70.883792 154.041421z m-51.426429-24.880687a106.611125 106.611125 0 0 0-42.149691-83.823651c-4.186425-3.282538-13.41559-0.237865-20.266104 0 0.808741 6.232065-0.761168 15.223365 2.759235 18.220464 24.119518 20.646688 34.25257 46.336116 33.634121 77.63916 0 4.757301 7.42139 9.514603 11.417524 14.509769a113.033482 113.033482 0 0 0 14.271904-14.795207c2.04564-2.806808 0.333011-7.801974 0.333011-11.750535z" p-id="7387"></path></svg>