<?xml version="1.0" standalone="no"?><!DOCTYPE svg PUBLIC "-//W3C//DTD SVG 1.1//EN" "http://www.w3.org/Graphics/SVG/1.1/DTD/svg11.dtd"><svg t="1651275967773" class="icon" viewBox="0 0 1024 1024" version="1.1" xmlns="http://www.w3.org/2000/svg" p-id="2732" xmlns:xlink="http://www.w3.org/1999/xlink" width="200" height="200"><defs><style type="text/css">@font-face { font-family: feedback-iconfont; src: url("//at.alicdn.com/t/font_1031158_u69w8yhxdu.woff2?t=1630033759944") format("woff2"), url("//at.alicdn.com/t/font_1031158_u69w8yhxdu.woff?t=1630033759944") format("woff"), url("//at.alicdn.com/t/font_1031158_u69w8yhxdu.ttf?t=1630033759944") format("truetype"); }
</style></defs><path d="M530.432 1024h-36.864a27.5456 27.5456 0 0 0-5.71392-1.90464c-22.65088-2.49856-45.62944-3.29728-67.93216-7.55712-122.44992-23.30624-224.11264-82.88256-303.3088-179.3024q-95.86688-116.736-112.16896-267.42784C3.03104 554.65984 1.47456 541.53216 0 528.384v-32.768c0.79872-4.66944 1.88416-9.29792 2.3552-13.98784 1.65888-16.24064 2.19136-32.6656 4.8128-48.76288 16.52736-101.53984 58.7776-191.05792 128.88064-266.50624 86.65088-93.26592 193.41312-147.6608 320.26624-161.91488C468.72576 3.05152 481.15712 1.47456 493.568 0h36.864c4.62848 0.8192 9.216 1.8432 13.88544 2.4576 23.92064 3.13344 48.18944 4.608 71.68 9.5232 111.04256 23.26528 204.55424 77.6192 279.49056 162.73408q106.00448 120.46336 123.94496 280.576c1.49504 13.47584 3.05152 26.95168 4.56704 40.42752v32.768c-0.79872 4.66944-1.86368 9.29792-2.3552 13.98784-1.65888 16.24064-2.19136 32.6656-4.8128 48.7424-16.384 100.10624-57.61024 188.55936-126.13632 263.49568-86.97856 95.06816-194.6624 150.44608-322.99008 164.9664-12.43136 1.29024-24.84224 2.84672-37.2736 4.32128z m443.04384-512c0-255.13984-206.00832-461.37344-460.96384-461.5168S51.38432 256.47104 50.31936 509.952C49.152 764.57984 256.43008 973.80352 511.488 973.55776c255.6928-0.22528 462.00832-206.0288 461.98784-461.55776z" p-id="2733"></path><path d="M907.264 512.1024A395.264 395.264 0 0 1 116.8384 512c0-218.7264 177.58208-395.5712 396.1856-395.264 217.76384 0.47104 394.24 177.23392 394.24 395.3664z m-103.95648-205.74208c-2.33472 3.64544-4.56704 7.00416-6.67648 10.4448-33.56672 54.62016-68.07552 108.70784-100.12672 164.20864-11.61216 20.13184-35.84 20.13184-47.45216 0.45056-42.43456-71.86432-86.9376-142.72512-130.68288-213.9136-1.86368-3.01056-3.93216-5.91872-6.51264-9.78944-8.9088 14.49984-16.6912 28.09856-25.43616 40.96-4.28032 6.32832-3.93216 10.752 0 17.2032Q616.01792 526.336 745.08288 737.0752c5.8368 9.50272 11.73504 18.96448 17.67424 28.672 128.12288-121.40544 139.50976-326.7584 40.5504-459.38688z m-344.82176 37.80608c-9.99424 16.09728-18.432 30.45376-27.66848 44.15488-4.608 6.79936-3.66592 11.85792 0.36864 18.3296 26.99264 43.37664 53.67808 86.9376 80.42496 130.4576 5.44768 8.86784 10.67008 17.87904 16.93696 28.40576-7.35232 0-12.84096 0.73728-18.08384-0.14336-17.57184-2.90816-27.32032 3.56352-36.53632 19.78368-10.46528 18.432-27.21792 33.23904-41.24672 49.64352-1.82272-0.26624-1.51552 1.06496-0.83968 2.17088q67.70688 110.71488 135.45472 221.45024c3.70688 6.144 8.37632 6.30784 13.824 5.18144a371.28192 371.28192 0 0 0 142.82752-62.60736c8.88832-6.38976 8.84736-10.67008 3.52256-19.31264Q617.14432 602.95168 507.55584 423.936c-15.83104-25.88672-31.744-51.63008-49.07008-79.7696z m319.22176-70.16448a13.43488 13.43488 0 0 0-0.96256-2.56A23.81824 23.81824 0 0 0 774.144 268.288a360.6528 360.6528 0 0 0-184.85248-105.90208c-6.38976-1.47456-10.56768 0.59392-14.11072 6.69696-10.07616 17.34656-20.70528 34.4064-31.6416 51.2-3.64544 5.632-3.584 9.70752 0 15.44192q62.03392 100.22912 123.57632 200.704c1.47456 2.39616 3.3792 4.52608 5.91872 7.8848zM527.54432 868.20864a16.50688 16.50688 0 0 0-0.8192-2.6624Q462.25408 760.4224 397.88544 655.36c-3.072-5.05856-6.2464-4.23936-10.93632-3.7888-17.22368 1.6384-34.5088 3.05152-51.79392 3.50208-9.4208 0.24576-20.86912-5.30432-27.81184-1.57696-7.55712 4.096-10.97728 15.81056-16.15872 24.22784l-44.60544 72.72448c74.09664 86.3232 190.89408 125.37856 280.96512 117.76zM244.61312 271.48288c21.17632 34.38592 40.67328 66.29376 60.64128 97.8944a11.01824 11.01824 0 0 0 9.5232 3.4816c23.92064-5.81632 47.8208-6.4512 71.55712 0 6.77888 1.86368 9.6256 0 12.94336-5.44768q40.57088-66.6624 81.69472-132.99712c3.13344-5.03808 2.99008-8.74496-0.14336-13.66016-10.83392-16.87552-21.6064-33.83296-31.60064-51.2-3.9936-6.9632-8.704-8.54016-15.85152-6.8608-47.90272 11.24352-92.30336 30.47424-131.584 60.1088-19.94752 15.01184-38.15424 32.3584-57.18016 48.68096z m28.01664 119.13216l-51.8144-84.35712c-90.78784 121.9584-84.95104 299.95008 0.18432 411.36128l51.69152-84.29568c-87.16288-60.5184-86.17984-183.64416-0.06144-242.70848z m131.072 43.8272c-3.4816 5.05856-5.69344 8.00768-7.59808 11.14112-8.00768 13.04576-15.54432 26.4192-24.08448 39.1168a29.0816 29.0816 0 0 1-12.75904 10.752c-12.288 4.58752-21.13536 0.69632-28.42624-11.03872-12.71808-20.48-25.2928-40.96-38.42048-62.27968-33.40288 24.33024-50.2784 56.15616-48.06656 96.01024 2.048 34.97984 18.24768 63.03744 48.2304 83.49696 12.94336-21.03296 25.51808-40.8576 37.376-61.09184 5.4272-9.23648 13.0048-13.88544 23.26528-13.84448 21.8112 0.1024 43.64288 0.75776 65.536 1.024 13.08672 0.16384 26.17344 0 42.12736 0z m-74.15808 181.3504c37.51936 13.68064 97.56672-12.288 112.86528-48.3328a7.94624 7.94624 0 0 0-2.70336-1.10592c-25.21088-0.16384-50.44224-0.3072-75.6736-0.24576a8.192 8.192 0 0 0-6.144 2.58048c-9.728 15.52384-18.944 31.37536-28.42624 47.104zM512 198.656l26.27584-43.008h-52.61312z m-160.64512 245.76l23.20384-38.03136h-46.40768zM76.9024 475.3408l13.08672 1.57696v53.10464l-13.08672 0.7168zM239.84128 835.584L282.624 867.4304l-7.22944 11.6736-44.70784-32.93184zM458.752 931.6352l52.59264 3.15392v13.98784l-54.6816-3.46112c0.7168-5.28384 1.31072-9.13408 2.08896-13.68064z" p-id="2734"></path><path d="M776.99072 182.272l8.37632-10.81344 40.96 37.13024-10.91584 8.88832zM762.9824 154.50112l-7.68 11.50976-45.71136-28.07808c2.048-3.87072 3.91168-7.41376 6.43072-12.288zM135.02464 291.328L165.888 245.76l11.14112 8.02816-29.98272 44.50304zM193.41312 232.46848l-9.48224-8.54016 39.54688-38.31808 7.82336 8.64256zM918.07744 673.3824l-12.9024-5.18144c5.57056-17.1008 10.89536-33.42336 16.384-50.64704l13.39392 3.11296c-5.55008 17.57184-10.99776 34.46784-16.87552 52.71552zM297.34912 147.456L252.928 177.70496l-8.45824-10.77248 45.568-31.19104zM219.99616 817.95072L209.92 827.392l-37.33504-40.57088 10.58816-8.82688zM93.63456 449.72032l-13.53728-2.048c3.76832-17.92 7.39328-35.28704 11.264-53.69856l13.4144 3.33824c-3.70688 17.44896-7.33184 34.48832-11.14112 52.40832zM445.93152 80.09728c1.1264 5.40672 1.88416 8.99072 2.84672 13.57824l-52.6336 11.48928c-1.16736-3.91168-2.27328-7.61856-3.93216-13.1072zM690.91328 113.29536c-2.39616 5.20192-4.096 8.78592-5.81632 12.63616l-50.05312-18.67776c1.08544-3.72736 2.17088-7.51616 3.80928-13.2096zM556.1344 91.3408c0.38912-4.25984 0.75776-8.192 1.26976-13.66016l54.41536 8.9088c-1.08544 5.14048-1.86368 8.94976-2.82624 13.59872zM166.8096 756.36736L155.648 764.39552l-29.14304-46.73536 12.00128-6.9632c9.37984 15.11424 18.59584 29.98272 28.30336 45.6704zM852.992 762.24512l10.91584 8.192c-11.69408 14.06976-23.06048 27.79136-35.16416 42.37312-3.87072-3.56352-6.94272-6.38976-10.24-9.40032zM379.74016 913.85856l51.83488 13.4144c-0.7168 3.97312-1.41312 7.82336-2.41664 13.49632l-53.39136-13.6192c1.536-5.18144 2.74432-9.19552 3.97312-13.29152zM532.7872 948.34688c-0.26624-5.50912-0.47104-9.17504-0.69632-13.7216l52.85888-6.144c0.90112 4.1984 1.72032 8.06912 2.88768 13.53728zM321.024 134.59456c-2.048-4.096-3.7888-7.55712-6.144-12.288l50.62656-21.72928c1.86368 5.07904 3.23584 8.82688 4.75136 12.92288zM121.52832 316.0064l12.288 6.144-20.84864 49.152-13.1072-4.3008c7.35232-17.08032 14.25408-33.44384 21.66784-50.9952zM931.4304 457.09312l13.53728-1.76128c1.31072 18.3296 2.60096 36.02432 3.93216 54.45632h-13.98784c-1.14688-17.22368-2.27328-34.36544-3.4816-52.69504zM866.77504 281.62048c-10.97728-14.76608-21.27872-28.5696-32.0512-43.008l10.24-9.07264 33.1776 44.1344zM927.1296 430.32576c-4.62848-17.53088-9.05216-34.22208-13.70112-51.77344l12.94336-4.73088c4.83328 18.00192 9.48224 35.24608 14.336 53.47328zM927.60064 591.07328c2.2528-18.2272 4.38272-35.328 6.61504-53.248l13.70112 0.88064c-2.29376 18.432-4.46464 36.06528-6.73792 54.31296zM77.70112 559.2064l13.70112-2.048 9.15456 52.8384-13.35296 3.33824c-3.23584-18.26816-6.20544-35.45088-9.50272-54.12864zM894.34112 693.1456l12.43136 6.0416c-9.1136 16.384-17.79712 31.90784-26.8288 48.14848l-11.59168-7.31136c8.56064-15.54432 16.91648-30.59712 25.98912-46.87872zM799.27296 822.41536l9.13408 10.24-42.496 34.816-8.33536-11.01824zM916.95104 347.60704l-12.86144 5.36576c-7.86432-16.26112-15.36-31.78496-23.2448-48.06656l11.71456-7.168zM735.232 871.36256c2.23232 3.584 4.34176 6.94272 7.29088 11.63264L693.78048 909.312l-5.95968-12.45184zM615.19872 936.57088c-1.29024-4.99712-2.29376-8.84736-3.46112-13.39392l51.05664-15.9744c1.47456 3.72736 3.03104 7.5776 5.14048 12.86144zM529.408 77.49632c-0.24576 3.87072-0.512 7.86432-0.8192 12.4928h-52.98176c-0.36864-3.52256-0.75776-7.12704-1.31072-12.4928zM126.64832 686.42816l-12.4928 5.79584-19.72224-51.8144 13.2096-4.096zM299.1104 893.60384c3.01056-5.20192 4.83328-8.3968 6.9632-12.06272L354.304 904.4992l-4.93568 12.6976zM351.06816 284.03712c16.6912 0 28.79488 12.3904 28.672 29.22496-0.18432 15.42144-13.63968 28.83584-28.672 28.672S321.536 327.2704 321.92512 312.1152a29.4912 29.4912 0 0 1 29.14304-28.07808z" p-id="2735"></path></svg>