<?xml version="1.0" standalone="no"?><!DOCTYPE svg PUBLIC "-//W3C//DTD SVG 1.1//EN" "http://www.w3.org/Graphics/SVG/1.1/DTD/svg11.dtd"><svg t="1651275970175" class="icon" viewBox="0 0 1024 1024" version="1.1" xmlns="http://www.w3.org/2000/svg" p-id="2890" xmlns:xlink="http://www.w3.org/1999/xlink" width="200" height="200"><defs><style type="text/css">@font-face { font-family: feedback-iconfont; src: url("//at.alicdn.com/t/font_1031158_u69w8yhxdu.woff2?t=1630033759944") format("woff2"), url("//at.alicdn.com/t/font_1031158_u69w8yhxdu.woff?t=1630033759944") format("woff"), url("//at.alicdn.com/t/font_1031158_u69w8yhxdu.ttf?t=1630033759944") format("truetype"); }
</style></defs><path d="M478.721097 437.883759l-25.598894-65.137136c-27.683283-70.380675-55.366565-140.793919-83.294112-211.076887-9.607728-24.149593-7.002242-47.615246 3.761669-70.022421 12.376056-25.908296 26.347971-51.067514 39.652232-76.536135a20.892736 20.892736 0 0 1 1.237605-2.100672C418.794932 6.627068 422.93114-0.538016 431.822359 0.031933s10.079972 8.85865 12.587752 15.209522q92.625007 234.933364 185.152308 469.899296c9.965982 25.273209 4.982991 49.276243-6.839399 72.074241-8.321269 16.023735-30.419042 22.797997-47.794374 15.242089-25.110366-10.91047-49.829909-22.797997-74.647157-34.294702L41.01583 324.089183C25.985436 317.038088 15.693769 306.420735 14.358457 289.126826c-1.286458-16.60997 5.031844-29.816524 19.296877-38.528616 13.027427-7.979299 26.641088-7.555908 40.401308-1.107331q73.6701 34.522682 147.405338 68.817383l246.934881 115.17874c2.833465 1.335311 5.764637 2.458927 10.324236 4.396757z" p-id="2891"></path><path d="M937.644786 371.509018c-9.933413-4.44561-18.433809-7.946731-26.657373-11.985233-11.93638-5.894911-17.652164-17.554458-12.701741-29.865377 6.090322-15.1281 0.895636-27.17847-7.897878-38.382057-14.167327-17.912712-32.715126-29.1163-55.708535-31.884628-10.79648-1.302743-20.957873 1.628428-30.728444 6.106607-14.655856 6.692841-28.302085 2.686907-34.734377-10.259099-6.269449-12.636604-0.846783-26.738794 13.499671-33.627046 38.105224-18.319819 74.907706-13.548524 110.098044 7.735034 30.663307 18.547799 52.239983 44.635222 56.539033 81.095734 1.433017 12.115507 6.513714 16.544832 16.284284 20.111091s19.541141 8.256132 29.034878 12.750594c17.912712 8.370122 20.273933 30.386474 4.575884 42.518265q-28.969741 22.407175-58.216315 44.407243c-4.266482 3.256857-5.976332 6.269449-5.699499 12.034085 1.970398 41.997168 3.517405 84.010621 0.358254 126.007789-5.715784 76.161596-21.886078 149.636285-57.695218 217.753445-32.096324 61.033496-74.907706 112.931509-133.189158 150.792469C701.880924 964.761765 654.167972 980.67151 603.686692 987.787742c-59.225941 8.353838-117.881931 5.341245-175.349169-12.571467a307.772966 307.772966 0 0 1-91.941067-46.051955c-12.017802-8.874935-14.883835-23.75877-6.806831-35.092632s22.586302-13.678798 34.571535-4.885285a275.546368 275.546368 0 0 0 126.219484 50.93724c88.781916 12.538899 172.352861-1.888977 245.208747-56.636739 56.685592-42.567118 95.100218-99.724955 120.275721-165.77401 18.205829-47.712952 27.894978-97.266028 31.347247-148.186984a929.018397 929.018397 0 0 0-1.628429-137.309082c-1.107331-13.776504 3.256857-24.182162 14.476729-32.259166 12.376056-8.826082 24.231014-18.287251 37.584127-28.448644zM480.284388 623.833997c0.537381 9.77057-3.729101 18.759495-10.373088 26.673657Q366.375822 773.893673 262.758924 897.295977q-44.456095 52.956491-88.700494 106.092109c-11.203587 13.515956-24.117024 23.123683-42.615971 20.029669-31.347247-5.259824-45.188888-41.020111-25.191788-65.788507 21.804656-26.999343 44.472379-53.298461 66.765564-79.906981l140.044842-167.076753q47.826942-56.994994 95.767874-113.989987a40.857268 40.857268 0 0 1 45.172603-12.017801c16.15401 5.960048 26.315403 20.827599 26.282834 39.196271z" p-id="2892"></path><path d="M624.530575 384.796994c0.097706-10.552216 3.615111-20.957873 8.891219-30.94014 8.142142-15.323511 16.04002-30.761012 24.068172-46.14966a24.947523 24.947523 0 0 1 1.954114-3.549974c3.061445-4.10364 5.797205-9.363463 11.626979-9.119199 6.220596 0.260549 7.604761 6.090322 9.477453 10.861617 7.051095 17.912712 13.662514 36.004552 21.283559 53.656716 6.985958 16.202862 5.683215 32.112608-1.302743 47.224423C691.621825 426.0288 681.362726 444.592884 671.49445 463.222105a26.869068 26.869068 0 0 1-5.976332 7.60476c-5.243539 4.559599-10.470795 3.810522-13.108849-2.638054q-14.004484-34.196996-26.95049-68.898805a28.269517 28.269517 0 0 1-0.928204-14.493012zM817.939015 371.541586c-18.433809 0.097706-32.959391-13.939347-33.105949-31.949765a32.242882 32.242882 0 0 1 32.845401-32.242882c18.384957 0 31.982334 13.336829 32.145176 31.558943 0.162843 18.824632-13.271691 32.535999-31.884628 32.633704z" p-id="2893"></path></svg>