<?xml version="1.0" standalone="no"?><!DOCTYPE svg PUBLIC "-//W3C//DTD SVG 1.1//EN" "http://www.w3.org/Graphics/SVG/1.1/DTD/svg11.dtd"><svg t="1651275975393" class="icon" viewBox="0 0 1024 1024" version="1.1" xmlns="http://www.w3.org/2000/svg" p-id="3223" xmlns:xlink="http://www.w3.org/1999/xlink" width="200" height="200"><defs><style type="text/css">@font-face { font-family: feedback-iconfont; src: url("//at.alicdn.com/t/font_1031158_u69w8yhxdu.woff2?t=1630033759944") format("woff2"), url("//at.alicdn.com/t/font_1031158_u69w8yhxdu.woff?t=1630033759944") format("woff"), url("//at.alicdn.com/t/font_1031158_u69w8yhxdu.ttf?t=1630033759944") format("truetype"); }
</style></defs><path d="M508.465727 786.684688c35.2933-19.228422 44.19077-47.403746 42.806719-85.020274-2.965824-78.100019-0.889747-156.39776-0.889747-234.59664v-29.658235H413.509944V325.647422c-0.395443-70.784321-1.334621-141.568643-1.186329-212.550685A38.407415 38.407415 0 0 1 421.023364 88.974706C448.25951 59.31647 476.681985 30.745704 506.488511 0c33.612667 33.266654 65.000965 64.25951 95.894961 95.301796a17.350068 17.350068 0 0 1 3.509558 11.36899v235.8324H550.234408V275.920448c0-36.232477-2.768102-72.761537 0.741456-108.746862 3.75671-38.308554-10.676965-64.605522-41.274377-84.624831-29.658235 18.684688-43.696466 43.053871-41.966403 80.917551 3.311836 71.525777 1.186329 143.002124 1.186329 218.531763h137.614212V410.272253c0 112.750724 0.494304 225.550879-0.692026 338.351033a65.099826 65.099826 0 0 1-15.471713 38.555706c-24.715196 28.422475-52.000772 54.373431-82.993628 86.552616-30.745704-32.475768-59.31647-62.035142-86.898629-92.187681a28.620197 28.620197 0 0 1-6.425951-17.69608c-0.296582-89.716161 0-179.432323 0-269.197915a32.426337 32.426337 0 0 1 2.669241-8.156014H468.921413v26.099247c0 65.050396 2.422089 130.199652-0.889747 195.101757-2.174937 36.677351 11.616142 60.55223 40.434061 78.989766zM218.7542 382.14636h148.785479v337.016413L132.003862 485.406449c34.10697 2.224368 68.905966-12.456459 97.476733 22.836841 23.083993 28.620197 51.358177 53.038811 83.487932 77.951728V509.133037c0-17.300637-0.988608-34.601274 0-51.852481S307.03688 434.987449 290.279977 434.987449c-69.202549 0.790886-138.157946 0.346013-201.972582 0.346013l278.737981-278.787411v185.759413H313.808843v-56.350646c-32.179185 32.624059-63.814636 64.556092-95.054643 96.191542zM935.692605 436.717513h-105.682178c5.585634 31.981464 18.190384 62.826028 13.445066 90.704769-3.460127 20.315891-29.905387 36.62792-46.069125 54.768875l-6.574242-2.372659c0-25.011778 0.494304-49.974126 0-74.936474-0.988608-41.719251-40.631782-73.799575-84.773122-66.385017v119.720409c0 17.300637-2.273798 34.996718 0.444873 51.852482 8.007723 49.726974-10.775825 85.910021-54.670013 112.058698V381.306044h146.857694L706.187295 289.118363v53.829696h-55.362039V151.30643zM596.896698 1021.726202v-78.693184h62.134003c-2.422089 16.905194-4.943039 33.760958-7.167407 50.666152l-6.178799-0.444874 12.407028 25.654374-4.547596 4.597026-43.943618-41.076656c-2.076076 18.684688-3.212975 28.817919-4.349875 38.951149z m48.441784-66.039004h-36.825642l-4.053292 6.22823c5.684495 4.597026 10.874686 12.110446 17.102916 13.049623 11.121838 1.680633 26.296969 4.349874 23.776018-19.277853zM542.078394 979.710369c1.977216 45.574821-4.300444 49.726974-59.316471 39.939757l-1.779494-6.327091a229.109867 229.109867 0 0 0 26.099247-4.943039 160.401622 160.401622 0 0 0 21.156208-9.490635 111.168952 111.168952 0 0 0-22.293107-10.726395c-7.661711-1.878355-16.114308-0.444874-26.247538-0.444874v-44.14134h62.282294l0.692025 8.304306-54.373431 4.448735c9.886078 32.278046 39.494883 7.56285 53.780267 23.380576zM364.573856 943.3296H424.434061l0.939177 8.106585-52.000772 4.943039c9.391774 29.658235 34.601274 10.281522 49.430392 20.414752 13.494497 41.422668 0.247152 52.050203-55.609191 42.757289l-1.433482-6.722534a288.228616 288.228616 0 0 0 30.745704-4.943039 74.788183 74.788183 0 0 0 16.855764-9.144622c-5.733925-3.75671-11.072408-9.638926-17.350068-10.874687-9.391774-1.828925-19.426144-0.494304-31.240007-0.494303z" p-id="3224"></path></svg>