<?xml version="1.0" standalone="no"?><!DOCTYPE svg PUBLIC "-//W3C//DTD SVG 1.1//EN" "http://www.w3.org/Graphics/SVG/1.1/DTD/svg11.dtd"><svg t="1651275977747" class="icon" viewBox="0 0 1248 1024" version="1.1" xmlns="http://www.w3.org/2000/svg" p-id="3379" xmlns:xlink="http://www.w3.org/1999/xlink" width="243.75" height="200"><defs><style type="text/css">@font-face { font-family: feedback-iconfont; src: url("//at.alicdn.com/t/font_1031158_u69w8yhxdu.woff2?t=1630033759944") format("woff2"), url("//at.alicdn.com/t/font_1031158_u69w8yhxdu.woff?t=1630033759944") format("woff"), url("//at.alicdn.com/t/font_1031158_u69w8yhxdu.ttf?t=1630033759944") format("truetype"); }
</style></defs><path d="M462.292766 259.588104c81.345158-67.782529 170.252323-85.723162 264.272262-38.7285s133.299517 128.768435 127.60505 234.667156c107.398876-84.621007 214.307905-85.233315 323.666167-0.796001 0.489847-6.980315 1.194001-12.644166 1.224617-18.369249 0-62.761601 0.367385-125.523201-0.214308-188.284802 0-12.88909 3.888158-17.205863 16.532324-16.195555a198.173581 198.173581 0 0 0 35.146497 0c13.838168-1.316463 17.205863 4.163696 17.144632 17.35894q-0.704155 162.261699 0 324.523399c0.183692 36.218036 2.541079 72.527918-7.776315 107.827492-27.125258 92.764707-88.019318 151.24015-182.865874 168.384782-92.274861 16.654786-168.384782-15.705708-226.554071-89.519473-2.847234-3.612619-5.510775-7.317084-8.327393-10.929703-0.275539-0.367385-0.857232-0.489847-3.275849-1.836925-3.306465 4.255543-6.980315 8.725393-10.470472 13.378936-55.566978 74.211766-150.444149 108.347954-239.137007 85.968085-91.631937-23.114638-159.904312-97.234558-173.252633-189.29511-3.061541-21.124636-1.46954-43.045273-5.572006-63.894371-15.307707-78.528539-77.12023-130.268591-157.393848-132.136132C187.396955 460.73138 145.117067 450.0466 106.755952 425.554268c-11.909396-7.623238-22.90033-16.716017-36.738498-27.033411-0.520462 7.684469-1.194001 13.317706-1.194001 18.950942 0 62.792216-0.367385 125.523201 0.214308 188.315417 0 12.521705-3.214619 17.512017-16.22617 16.409863a216.14483 216.14483 0 0 0-36.738498 0C2.694157 623.329849 0 617.727228 0 605.511678c0.428616-93.377016 0-186.754031 0.33677-280.161663 0.153077-42.279888-1.438925-84.86593 2.724771-126.809049C13.011551 99.806253 97.724405 15.0934 195.632502 2.265541c130.54413-17.083402 241.371932 63.986217 263.568107 193.887423 3.398311 19.90002 2.143079 40.565425 3.092157 63.43514z m322.747705 162.261699C779.529696 330.646482 704.797468 260.231027 618.58446 265.160109c-90.284859 5.204621-159.781851 80.243003-156.689694 165.323241 3.275849 89.152088 77.028384 161.986161 166.823396 157.669387 91.907476-4.439235 161.649391-80.120541 156.38354-166.272318z m231.942384 39.80004a161.067698 161.067698 0 0 0-161.802468 159.353235c-0.612308 90.499167 70.721609 163.578162 160.302313 164.19047 87.315164 0.581693 162.598469-73.293303 162.629084-159.628774 0.091846-90.468551-71.762533-163.547547-161.067698-163.914931zM231.574999 391.877312a160.914621 160.914621 0 0 0 160.884006-161.741238c-0.306154-88.784703-73.476996-161.741237-161.955546-161.312621A161.526929 161.526929 0 1 0 231.574999 391.877312z m231.391306 204.235433a165.108933 165.108933 0 0 0 75.98746 165.323241 160.241082 160.241082 0 0 0 178.457254-6.123083c55.291439-40.106194 73.997458-97.234558 66.894682-159.628774-106.296721 83.641314-213.083288 84.13116-321.339396 0.33677z m-70.415454-138.963368v-59.608213l-38.024345 29.91126zM416.79826 944.026321c0-11.664473-0.489847-20.726636 0.244923-29.696952 0.275539-3.061541 3.612619-6.123083 5.54139-9.184625 2.418618 3.061541 6.949699 6.123083 6.980315 9.031548 0.520462 30.615415 0.459231 61.016522 0 91.54009 0 2.877849-2.357387 7.684469-4.561697 8.327393a229.982997 229.982997 0 0 1-37.901884 8.878471c-19.869404 2.20431-34.595419-7.3477-42.861581-25.104641-8.113085-17.175248-5.633236-33.952495 6.888468-48.311125 13.011551-14.909707 29.788799-18.369249 48.464202-12.889089 4.745389 1.530771 9.184624 3.980004 17.205864 7.40893z m-0.214308 35.360804a31.71757 31.71757 0 1 0-63.404525 0 31.71757 31.71757 0 0 0 63.404525 0zM1041.597649 991.327137c10.164318 23.6351 35.483266 25.747564 52.536052 6.735392 3.398311-3.765696 8.786624-5.786313 16.532324-10.715396-6.123083 26.849719-25.257717 38.789731-49.841896 35.758805-18.369249-2.265541-39.06527-23.267715-38.973423-39.616347 0.153077-25.870026 18.369249-46.627277 43.259581-49.290818 22.563561-2.388002 43.963736 14.848476 50.086819 41.728811z m-5.14339-12.55232l60.557291-12.491089c-8.664162-15.307707-19.624481-21.124636-33.156495-18.736634-14.603553 2.541079-24.155562 11.725704-27.400796 31.227723zM300.031067 976.233738l-70.84407 14.848476-2.479849 4.80662c6.67416 4.622928 12.736013 11.113396 20.144943 13.440167 13.195244 4.194312 24.70664-0.520462 33.891264-11.388934a26.57418 26.57418 0 0 1 13.715706-7.164007c-3.980004 23.941255-24.492332 36.279267-48.770356 32.207416-18.369249-3.061541-38.697885-25.410794-37.197729-40.932809 2.877849-29.237721 22.318638-48.984664 47.270201-48.158048 22.992177 0.796001 44.26989 20.818482 44.26989 42.341119z m-76.201768 2.357387l59.700059-12.246166c-8.81724-15.307707-19.808173-21.645098-34.013726-18.736634s-24.186178 11.695089-25.594487 30.9828zM930.157538 969.253423a64.537295 64.537295 0 0 1-11.235857-8.358008c-14.572938-16.593555-33.432033-18.675403-48.066202-4.898467a31.595108 31.595108 0 0 0 0 46.198662c14.174937 13.225859 34.809727 10.715395 48.341741-5.112775 3.061541-3.490157 8.511085-4.837236 13.715705-5.54139-7.653854 25.502641-28.258028 36.738498-52.046205 30.9828-21.03279-5.051543-34.626034-25.288333-32.727879-48.709125 1.775694-21.614483 20.29802-38.759115 43.106505-39.80004 19.838789-0.949078 38.39173 13.103398 41.851272 31.686955zM675.437285 969.069731a115.022114 115.022114 0 0 1-13.930013-10.807242c-12.644166-13.195244-30.186799-15.0934-43.902505-4.163696a31.135877 31.135877 0 0 0-6.337391 43.504504c12.399243 17.083402 36.738498 17.236479 51.495128 0.765386 3.428926-3.826927 8.602932-6.123083 16.2874-11.327704-5.327082 26.084334-22.318638 37.687576-46.229276 36.218036a44.178044 44.178044 0 0 1-40.718502-42.096195c-1.408309-22.349253 14.664784-41.759426 38.146807-46.137431 21.43079-4.041235 41.238964 8.021239 48.219279 29.421414zM981.285281 905.757052c0 34.013726 0 67.996837-0.244923 101.979948 0 2.510464-3.398311 4.959697-5.204621 7.40893-2.449233-3.061541-6.888468-6.123083-7.041545-9.521394-0.704155-17.787556-0.428616-35.605728-0.398001-53.423899 0-11.695089-0.306154-23.451408 0.642924-35.085266 0.367385-4.684158 3.735081-9.184624 5.725083-13.623859zM175.916175 933.770157c-3.857542 7.194623-4.898466 12.613551-7.562008 13.593244-23.482023 8.541701-25.410794 27.553873-25.778179 48.433587 0 6.582314-3.398311 13.134013-5.235236 19.685712-2.020617-6.368006-5.357698-12.644166-5.755698-19.104019-0.887847-14.205553 0-28.472336-0.306155-42.708504 0-7.102776 1.592002-10.654164 10.164318-11.327704 10.103087-0.887847 19.930635-4.837236 34.472958-8.572316zM779.866466 1016.095008c-2.081848-3.796311-5.847544-7.531392-6.123083-11.41955-0.673539-17.205863-0.581693-34.442342 0-51.648205 0-3.428926 2.357387-9.184624 4.776005-9.735702 11.388934-3.33708 23.175869-5.327082 40.19804-8.939701-4.439235 6.67416-6.123083 12.246166-9.184625 13.470783-19.16525 7.592623-24.890332 22.318638-24.124947 41.300194 0.33677 8.388624 0 16.777247 0 25.165872zM722.707486 1013.707006c0-21.185867-0.183692-42.371734 0.244924-63.557602 0-2.418618 3.704465-4.745389 5.694467-7.133392 1.836925 2.60231 5.204621 5.174005 5.265851 7.837547 0.459231 18.736634 0.520462 37.503883 0 56.240517 0 3.061541-4.163696 6.123083-6.368006 9.000932zM728.646877 931.504616c-5.908775-8.970317-11.695089-13.868783-11.052165-17.75694s6.888468-9.398932 11.511396-10.378626c2.60231-0.581693 9.429548 6.27616 9.643856 10.041856 0.33677 4.347389-4.592312 9.000932-10.103087 18.09371z" p-id="3380"></path></svg>