<?xml version="1.0" standalone="no"?><!DOCTYPE svg PUBLIC "-//W3C//DTD SVG 1.1//EN" "http://www.w3.org/Graphics/SVG/1.1/DTD/svg11.dtd"><svg t="1651275988857" class="icon" viewBox="0 0 1209 1024" version="1.1" xmlns="http://www.w3.org/2000/svg" p-id="4019" xmlns:xlink="http://www.w3.org/1999/xlink" width="236.1328125" height="200"><defs><style type="text/css">@font-face { font-family: feedback-iconfont; src: url("//at.alicdn.com/t/font_1031158_u69w8yhxdu.woff2?t=1630033759944") format("woff2"), url("//at.alicdn.com/t/font_1031158_u69w8yhxdu.woff?t=1630033759944") format("woff"), url("//at.alicdn.com/t/font_1031158_u69w8yhxdu.ttf?t=1630033759944") format("truetype"); }
</style></defs><path d="M958.748088 729.025646l0.955423-2.338273a3.947407 3.947407 0 0 1 4.374833-1.156565 8.183954 8.183954 0 0 0 7.542815 0.414855c3.771408-1.407992 7.153103-3.33141 11.314222-3.98512 2.413701-0.377141 4.601117-2.991983 6.637677-4.877687 1.407992-1.257136-0.339427-2.954269-0.213713-4.475404-0.27657-2.31313 1.093708-3.24341 3.067412-3.658265a2.979412 2.979412 0 0 1 1.407992 0.46514 3.193125 3.193125 0 0 1 0.754281 1.94856 9.692517 9.692517 0 0 0 0.188571 2.413701 2.31313 2.31313 0 0 0 1.106279 1.10628 2.841127 2.841127 0 0 0 1.030852 0 2.300559 2.300559 0 0 0 0.993137-1.081137 9.453662 9.453662 0 0 0 0.150856-2.300559 3.88455 3.88455 0 0 1 0.351998-1.257135 2.12456 2.12456 0 0 1 1.747419-0.967995c1.257136-0.113142 2.891412 1.257136 3.771408-0.377141 0.678853-1.181708-0.930281-2.074274-1.257136-3.230839a3.771408 3.771408 0 0 1 0.603425-2.815984 21.220453 21.220453 0 0 0 2.815984-5.682254 4.198834 4.198834 0 0 1 4.374833 3.771407c0.414855 2.137131 1.48342 2.514272 3.406838 1.860561 2.338273-0.791996 4.81483-1.395421 6.449107-3.419409 4.663974-5.757682 11.238794-9.466233 15.902768-15.399914 2.903984-3.683408 8.322239-5.279971 11.879934-8.598809 5.103972-4.764545 11.75422-7.794242 15.613627-13.941637a5.657111 5.657111 0 0 1 2.31313-2.111988c4.299405-1.935989 6.813676-5.983967 10.446799-8.686809a9.667375 9.667375 0 0 0 3.69598-5.028543c0.578282-2.011417 1.495992-3.507409 3.771407-4.010263a2.5897 2.5897 0 0 0 1.521134-1.345136c2.514272-6.046823 8.108526-8.799951 12.734786-12.759929 5.028543-4.261691 10.698226-8.209097 12.67193-15.173629 0.653711-2.31313 3.017126-3.997692 2.727985-6.738248a2.878841 2.878841 0 0 1 3.457123 0.113142c5.267399 3.444552 11.062795 6.185108 15.337057 11.025081a13.828494 13.828494 0 0 1 1.068566 3.69598 2.577128 2.577128 0 0 1-0.716568 2.086845c-0.817138 5.229685-4.53826 8.799951-7.743956 12.407931-6.461678 7.203388-12.646787 14.695918-19.875318 21.19531q-6.625106 5.971395-13.13707 12.093647a8.799951 8.799951 0 0 1-4.53826 2.514272 7.303959 7.303959 0 0 0-6.021681 5.254828 7.253674 7.253674 0 0 1-7.228531 5.204542 8.498238 8.498238 0 0 0-6.687962 3.557694c-2.187416 2.652557-5.543969 4.198834-6.738249 7.894813-0.439998 1.395421-2.338273 2.174845-4.047977 1.961132-2.878841-0.377141-4.550832 1.257136-6.134823 3.268554a32.823817 32.823817 0 0 1-3.771407 3.771407c-0.641139 0.578282-1.609134 1.533706-2.137131 1.370278-3.947407-1.257136-6.134823 2.086845-9.089092 3.356553a6.562249 6.562249 0 0 0-3.922264 4.62626c-1.156565 4.060549-1.935989 4.399975-6.285679 3.620551-1.533706-0.263999-2.514272 0.175999-2.891413 1.508563-0.653711 2.514272-2.300559 3.369124-4.689117 3.343981a2.363415 2.363415 0 0 0-1.521134 0.377141c-4.110834 3.545123-9.843374 3.595409-14.167921 6.587392-2.790842 1.923418-6.10968 2.639985-9.114235 3.997692-5.028543 2.250273-9.327948 5.606826-14.331348 7.794242-3.771408 1.621705-7.706243 2.413701-11.465079 3.88455-2.413701 0.930281-2.023989-1.986275-3.381696-2.514272-1.030851-1.961132 0.842281-4.399975-1.005708-6.285679-0.012571-2.790842-2.338273-3.281125-4.07312-4.274262z" p-id="4020"></path><path d="M1132.710545 622.395384l-0.37714-1.898275c-0.502854-1.10628-0.113142-2.388558-0.691425-3.469695-5.393113-3.658265-10.798797-7.278817-16.141624-10.987367a4.374833 4.374833 0 0 0-1.93599-0.565711l-7.442244-6.19768A239.534663 239.534663 0 0 1 1123.910594 580.029906c2.363415-2.338273 3.633123 0.590854 5.355399 1.357707q6.524535 7.693671 13.061642 15.387342c0.779424 0.917709 1.596563 1.898275 3.05484 1.495992 1.005709-0.930281 2.514272-0.251427 3.51998-0.942852h1.508563c5.569112 1.734847 11.100509 3.494838 15.63877 7.417102a36.896937 36.896937 0 0 1 10.585084 16.279909 70.035038 70.035038 0 0 1 3.205696 11.188509c1.407992 8.246811 6.285679 14.029636 12.659358 18.857038a111.960518 111.960518 0 0 0 13.51421 8.309667c1.257136 0.716567 2.891412 1.156565 3.922264 3.079983a24.237579 24.237579 0 0 1-8.033098 0.703996 85.246381 85.246381 0 0 1-54.056841-19.925603A51.91971 51.91971 0 0 1 1132.710545 622.395384z" p-id="4021"></path><path d="M881.132521 855.468369c2.878841-0.213713 5.191971 1.395421 5.380541 3.771408a4.148548 4.148548 0 0 1-4.789687 4.311976c-3.105126-0.402283-5.028543 1.01828-6.977104 2.891412a60.417949 60.417949 0 0 0-13.702781 19.334749c-0.942852 2.12456-1.75999 4.123406-0.502854 6.537107 1.068565 2.03656 0 3.771408-1.772562 5.028543a3.457124 3.457124 0 0 1-4.412547-0.138285c-1.75999-1.257136-2.614843-3.067411-1.508563-5.028543s0.502854-3.771408-0.263998-5.518827a59.537953 59.537953 0 0 0-14.519919-20.654742 7.542815 7.542815 0 0 0-6.650249-2.375986 3.972549 3.972549 0 0 1-4.500546-4.047978 4.035406 4.035406 0 0 1 5.028543-3.922264 5.405684 5.405684 0 0 0 5.217114-1.634276 59.68881 59.68881 0 0 0 15.651341-21.74845 5.1794 5.1794 0 0 0 0.088-5.028544c-1.131422-2.023989-0.314284-3.771408 1.382849-5.116542s3.356553-0.791996 4.90283 0.276569a3.318839 3.318839 0 0 1 1.257136 4.601118c-1.257136 2.363415-0.339427 4.462832 0.603425 6.587391a59.864809 59.864809 0 0 0 15.324486 20.717599c1.420564 1.081137 2.828556 2.137131 4.764545 1.156565z" p-id="4022"></path><path d="M680.85821 876.864821c2.137131-0.641139 2.790842-2.237702 4.035406-3.155411a3.406838 3.406838 0 0 1 3.934835-0.452569 2.891412 2.891412 0 0 1 1.470849 2.639985 3.042269 3.042269 0 0 1-2.325701 3.130269c-1.395421 0.55314-3.155411 0.27657-4.575975 1.885703 1.822847 0.502854 3.318839 0.791996 4.726831 1.332564a2.966841 2.966841 0 0 1 1.910846 4.24912 3.218268 3.218268 0 0 1-4.877687 1.319992c-1.521134-0.892566-2.212559-2.790842-4.223976-3.406838a42.114051 42.114051 0 0 1 1.081137 5.229685 3.017126 3.017126 0 0 1-3.406838 3.633123 3.24341 3.24341 0 0 1-2.891413-4.16112c0.150856-0.854852 0.55314-1.671991 0.779424-2.514272a2.250273 2.250273 0 0 0-0.414854-2.765698 29.228408 29.228408 0 0 1-3.33141 4.274261c-1.609134 1.445706-3.343981 0.817138-4.588546-0.754281a3.193125 3.193125 0 0 1 1.39542-4.827402 13.463925 13.463925 0 0 1 2.514272-0.766853c0.678853-0.18857 1.370278-0.314284 2.375987-0.540568-1.257136-1.810276-3.14284-1.433135-4.62626-1.961132-2.350844-0.854852-3.155411-2.514272-2.287987-4.487975a3.268553 3.268553 0 0 1 4.890258-1.420563 7.857099 7.857099 0 0 1 2.011418 1.697133 34.458093 34.458093 0 0 1 2.061702 3.067412c0.615997-3.029697-0.326855-4.525689-0.628568-6.071967a3.431981 3.431981 0 0 1 1.257136-3.771407 2.991983 2.991983 0 0 1 3.909693 0.125713 3.230839 3.230839 0 0 1 1.194279 3.771408c-0.452569 1.445706-0.82971 2.941698-1.370278 4.701688z" p-id="4023"></path><path d="M966.768614 901.366399c0.993137 1.734847 2.979412 0.993137 4.223977 1.973703s2.061703 2.438844 1.093708 4.110834a2.828556 2.828556 0 0 1-4.07312 1.257136 29.907262 29.907262 0 0 1-4.035406-3.343981c-0.502854 1.923418 0.666282 3.306267 0.754281 4.852544a2.929127 2.929127 0 0 1-3.067411 3.431981c-2.111988-0.075428-3.343981-1.257136-3.180554-3.356553a40.303775 40.303775 0 0 1 1.093708-4.940544c-1.445706 1.257136-2.375987 2.12456-3.255982 2.966841a3.255982 3.255982 0 0 1-3.884549 0.703996 3.042269 3.042269 0 0 1-1.822847-2.979412 3.306267 3.306267 0 0 1 2.514271-3.029697c1.131422-0.427426 2.514272-0.150856 3.771408-1.445707-1.169136-1.257136-2.916555-0.791996-4.211405-1.332564-1.961132-0.82971-2.715413-2.212559-2.049132-4.211405s2.841127-2.5897 4.839973-1.458277a7.542815 7.542815 0 0 1 1.948561 1.747419 19.649033 19.649033 0 0 1 1.407992 2.514271c1.181708-2.841127-0.301713-4.311976-0.251427-5.958824 0-2.250273 1.533706-3.959978 3.507409-3.620551a3.117697 3.117697 0 0 1 2.803413 3.771408c-0.125714 1.357707-1.257136 2.514272-0.55314 4.07312 1.546277-0.213713 2.12456-1.734847 3.318839-2.40113 1.797704-0.993137 3.51998-0.879995 4.500546 1.055994s0.402283 3.369124-1.646848 4.286834c-1.231993 0.477712-2.740556 0.251427-3.746265 1.332564z" p-id="4024"></path><path d="M852.683537 752.219802c0.993137-0.628568 0.879995-1.860561 1.458277-2.69027 0.879995-1.257136 1.998846-2.023989 3.545123-1.257136a2.602271 2.602271 0 0 1 1.194279 3.557694c-0.326855 0.942852-1.257136 1.734847-0.729139 2.929127 1.257136 0.641139 2.727985-0.439998 3.947407 0.515425-0.113142 1.986275-0.653711 3.645694-3.05484 2.388559-1.923418-0.993137-3.658265-0.150856-5.481112 0-1.458278-0.666282-1.709705-2.023989-1.961132-3.381696a1.697133 1.697133 0 0 1 1.081137-2.061703z" p-id="4025"></path><path d="M964.442913 751.327236c-0.113142 1.822847-0.967995 2.803413-2.614843 2.828556s-3.180554-0.804567-3.017126-2.753128c0.138285-1.596563 1.998846-2.740556 1.332564-4.751973-0.213713-0.653711 0.867424-0.930281 1.57142-0.942852s1.75999 0.377141 1.508563 0.993137c-0.791996 1.986275 0.729139 3.230839 1.219422 4.62626z" p-id="4026"></path><path d="M937.540206 773.352256a2.86627 2.86627 0 0 1-2.891413-3.079983 2.753127 2.753127 0 0 1 3.067412-2.878841 2.665128 2.665128 0 0 1 2.627414 2.765699 2.878841 2.878841 0 0 1-2.803413 3.193125z" p-id="4027"></path><path d="M887.569056 761.660893l3.167983-0.892567c0.339427 0.377141 0.678853 0.766853 1.043422 1.131422 1.10628 1.118851 1.470849 2.325701 0.402284 3.658266-0.804567 0.980566-1.772562 1.722276-3.117697 1.181707a3.042269 3.042269 0 0 1-2.174845-3.155411 7.655957 7.655957 0 0 1 0.678853-1.923417z" p-id="4028"></path><path d="M916.357467 767.83343c-0.452569 1.961132-1.257136 3.268553-3.218268 2.991983a2.514272 2.514272 0 0 1-2.31313-2.941698 2.577128 2.577128 0 0 1 3.105126-2.677699 2.627414 2.627414 0 0 1 2.426272 2.627414z" p-id="4029"></path><path d="M876.12912 758.618624c2.803413-0.842281 4.450261 0.289141 5.141686 3.029697-1.181708 1.646848-2.514272 3.230839-4.751974 1.986275-2.463986-1.370278-1.10628-3.268553-0.389712-5.015972z" p-id="4030"></path><path d="M925.685415 766.702007c1.671991 0.150856 2.841127 0.955423 2.790841 2.5897a2.665128 2.665128 0 0 1-2.991983 2.878841 2.614843 2.614843 0 0 1-2.727985-2.627414c0.012571-1.885704 1.143994-2.790842 2.929127-2.841127z" p-id="4031"></path><path d="M863.859474 756.318065c4.236548-1.558848 4.613689-1.345135 5.682254 3.243411-4.953115 2.137131-5.858253 1.583991-5.682254-3.243411z" p-id="4032"></path><path d="M961.626929 826.466245a2.514272 2.514272 0 0 1 2.715413 2.514272 2.426272 2.426272 0 0 1-2.514272 2.639985c-1.772562 0-3.042269-0.905138-2.929126-2.803413 0.050285-1.546277 1.269707-2.237702 2.727985-2.350844z" p-id="4033"></path><path d="M961.6395 864.532318c-1.671991-0.201142-2.86627-1.043423-2.853698-2.639985a2.5897 2.5897 0 0 1 2.828555-2.514271c1.583991 0 3.004555 0.779424 3.067412 2.287987 0.075428 1.734847-1.420564 2.577128-3.042269 2.866269z" p-id="4034"></path><path d="M964.78234 763.521454c-0.791996 1.722276-1.910846 2.715413-3.708551 2.338272-1.48342-0.326855-2.514272-1.257136-2.212559-2.929126a2.401129 2.401129 0 0 1 3.130268-1.935989 3.394267 3.394267 0 0 1 2.790842 2.526843z" p-id="4035"></path><path d="M949.822423 773.503112c-1.84799 0-2.841127-0.82971-2.841127-2.514272a2.514272 2.514272 0 0 1 2.438844-2.790841c1.948561-0.138285 2.878841 0.967995 2.878841 2.815984a2.363415 2.363415 0 0 1-2.476558 2.489129z" p-id="4036"></path><path d="M961.400644 793.655c1.546277 0.100571 2.803413 0.716567 2.903984 2.375986a2.325701 2.325701 0 0 1-2.514272 2.6777 2.514272 2.514272 0 0 1-2.941698-2.31313c-0.163428-1.671991 1.030851-2.438844 2.551986-2.740556z" p-id="4037"></path><path d="M964.468056 817.792008c0 1.75999-0.930281 2.765699-2.514272 2.815984s-3.193125-0.565711-3.167982-2.514272c0-1.659419 1.257136-2.375987 2.77827-2.438843a2.514272 2.514272 0 0 1 2.903984 2.137131z" p-id="4038"></path><path d="M964.405199 873.131128a2.514272 2.514272 0 0 1-2.991983 2.086845c-1.533706-0.138285-2.740556-0.892566-2.514272-2.5897s1.508563-2.275416 2.991983-2.212559a2.514272 2.514272 0 0 1 2.514272 2.715414z" p-id="4039"></path><path d="M961.903499 881.365367c1.533706 0.314284 2.727985 1.043423 2.426272 2.803413a2.514272 2.514272 0 0 1-3.029698 2.275416c-1.48342-0.226284-2.702842-1.093708-2.514271-2.841127s1.596563-2.174845 3.117697-2.237702z" p-id="4040"></path><path d="M901.48555 763.534025c1.609134 0.088 2.727985 0.791996 2.841127 2.438843a2.514272 2.514272 0 0 1-2.77827 2.979412c-1.684562 0-2.514272-1.055994-2.514272-2.665128a2.514272 2.514272 0 0 1 2.451415-2.753127z" p-id="4041"></path><path d="M856.618372 780.907642a2.514272 2.514272 0 0 1 2.413701 2.841127 2.12456 2.12456 0 0 1-2.350844 2.250273 2.577128 2.577128 0 0 1-2.841127-2.514271c-0.025143-1.546277 1.156565-2.451415 2.77827-2.577129z" p-id="4042"></path><path d="M958.748088 729.025646c0.163428 0 0.326855-0.100571 0.477711-0.175999 1.583991-0.779424 3.255982-1.583991 4.575975 0.27657 1.10628 1.558848 0.150856 2.891412-0.930281 4.07312l-3.155411-0.27657a4.638831 4.638831 0 0 1-0.967994-3.897121z" p-id="4043"></path><path d="M961.538929 782.793346c1.722276 0.163428 2.514272 0.930281 2.5897 2.350844a2.237702 2.237702 0 0 1-2.627414 2.514272c-1.48342-0.100571-2.765699-0.779424-2.627414-2.514272s1.521134-2.174845 2.665128-2.350844z" p-id="4044"></path><path d="M679.047934 831.582788a2.401129 2.401129 0 0 1-2.514272-2.22513c-0.18857-1.785133 0.980566-2.614843 2.514272-2.753128a2.137131 2.137131 0 0 1 2.514272 2.187416 2.401129 2.401129 0 0 1-2.514272 2.790842z" p-id="4045"></path><path d="M681.51192 862.256903a2.325701 2.325701 0 0 1-2.866269 2.111988 2.22513 2.22513 0 0 1-2.162274-2.413701 2.338273 2.338273 0 0 1 2.639985-2.514272c1.659419 0.088 2.426272 1.093708 2.388558 2.815985z" p-id="4046"></path><path d="M856.41723 813.781745c1.797704 0.213713 2.727985 1.055994 2.5897 2.765698a2.262845 2.262845 0 0 1-2.375987 2.275416 2.401129 2.401129 0 0 1-2.790841-2.438843c-0.037714-1.646848 1.194279-2.375987 2.577128-2.602271z" p-id="4047"></path><path d="M681.612491 794.635566c-0.641139 4.374833-0.879995 4.525689-5.229685 3.117697a2.514272 2.514272 0 0 1 0.100571-3.167983c1.734847-2.753127 3.469695-2.77827 5.191971 0z" p-id="4048"></path><path d="M681.549634 807.25721c-0.100571 1.609134-1.10628 2.162274-2.514271 2.174845s-2.514272-0.477712-2.514272-2.023989c-0.088-1.84799 1.118851-2.426272 2.740556-2.363416a2.086845 2.086845 0 0 1 2.287987 2.21256z" p-id="4049"></path><path d="M961.463501 842.394156c-1.495992-0.226284-2.753127-0.879995-2.602271-2.652556 0.125714-1.508563 1.332564-1.961132 2.665128-1.948561 1.659419 0 2.765699 0.766853 2.5897 2.514272-0.150856 1.495992-1.20685 2.086845-2.652557 2.086845z" p-id="4050"></path><path d="M679.135934 820.21828c-1.609134-0.125714-2.639985-0.678853-2.652557-2.212559a2.099417 2.099417 0 0 1 2.31313-2.275416c1.646848 0 2.727985 0.754282 2.677699 2.514272s-1.269707 1.873132-2.338272 1.973703z" p-id="4051"></path><path d="M964.178914 850.829538c-0.27657 2.074274-1.508563 2.438844-3.017126 2.287987-1.257136-0.138285-2.363415-0.729139-2.300558-2.212559 0-1.697133 1.257136-2.338273 2.790841-2.375987a2.300559 2.300559 0 0 1 2.526843 2.300559z" p-id="4052"></path><path d="M679.01022 848.566693c1.382849 0.113142 2.388558 0.74171 2.451415 2.212559 0.100571 1.935989-1.257136 2.31313-2.77827 2.199988a2.049131 2.049131 0 0 1-2.199988-2.350844c0.100571-1.470849 1.143994-1.998846 2.526843-2.061703z" p-id="4053"></path><path d="M961.45093 804.969222c1.521134 0 2.690271 0.578282 2.652556 2.338273a2.049131 2.049131 0 0 1-2.388558 2.12456c-1.508563 0-2.828556-0.540568-2.803413-2.31313 0.025143-1.470849 1.156565-1.998846 2.539415-2.149703z" p-id="4054"></path><path d="M681.51192 839.854742a2.187416 2.187416 0 0 1-2.162273 2.375987c-1.609134 0.150856-2.765699-0.502854-2.828556-2.237702s1.055994-2.074274 2.40113-2.111988 2.476558 0.351998 2.589699 1.973703z" p-id="4055"></path><path d="M963.86463 739.422159c0.088 3.60798-0.427426 4.43769-2.602271 4.211406a2.375987 2.375987 0 0 1-2.325701-1.734848 2.074274 2.074274 0 0 1 1.873132-2.627414 14.871917 14.871917 0 0 1 3.067412 0.163428z" p-id="4056"></path><path d="M856.857228 792.247008a2.03656 2.03656 0 0 1 2.137131 2.338272c-0.113142 1.697133-1.194279 2.375987-2.815985 2.162274-1.332564-0.163428-2.31313-0.905138-2.237702-2.325701 0.113142-1.734847 1.420564-2.149702 2.916556-2.174845z" p-id="4057"></path><path d="M856.492658 759.372905c1.407992 0 2.413701 0.590854 2.514272 2.099417a2.011417 2.011417 0 0 1-2.174845 2.363416c-1.533706 0-2.891412-0.515426-2.86627-2.31313 0.012571-1.48342 1.219422-1.961132 2.526843-2.149703z" p-id="4058"></path><path d="M961.425787 772.082549c1.558848 0 2.702842 0.578282 2.690271 2.338272a2.074274 2.074274 0 0 1-2.375987 2.162274c-1.508563 0-2.841127-0.565711-2.828556-2.325701 0-1.470849 1.131422-2.011417 2.514272-2.174845z" p-id="4059"></path><path d="M859.019501 772.409404c-0.088 1.797704-1.131422 2.212559-2.451415 2.174845-1.558848 0-2.790842-0.716567-2.577128-2.438844s1.521134-2.174845 3.042269-2.023988a2.099417 2.099417 0 0 1 1.986274 2.287987z" p-id="4060"></path><path d="M856.392087 802.932662a2.212559 2.212559 0 0 1 2.5897 2.049132 1.986275 1.986275 0 0 1-2.074274 2.514271c-1.546277 0.075428-2.929127-0.364569-2.954269-2.199987-0.012571-1.521134 1.093708-2.149702 2.438843-2.363416z" p-id="4061"></path><path d="M869.441157 759.51119c1.257136-0.867424 2.5897-1.671991 4.236548-1.005708 0 1.156565 0.263999 2.438844-1.181708 2.916555-1.709705 0.565711-2.262845-0.854852-3.05484-1.910847z" p-id="4062"></path><path d="M963.336633 812.574894c-0.150856 0.980566-0.615997 1.659419-1.621705 1.634277a1.596563 1.596563 0 0 1-1.684562-1.558849c0-0.879995 0.703996-1.131422 1.370278-1.194279s1.722276 0.025143 1.935989 1.118851z" p-id="4063"></path><path d="M933.014517 770.008275a1.546277 1.546277 0 0 1-1.646848 1.67199 1.521134 1.521134 0 0 1-1.495992-1.709705 1.420564 1.420564 0 0 1 1.596563-1.558848 1.609134 1.609134 0 0 1 1.546277 1.596563z" p-id="4064"></path><path d="M54.729132 511.239433l0.075428-1.797704c1.382849-3.771408 1.01828-7.6811 1.257136-11.527936 1.508563-21.371309 4.362261-42.554048 3.871979-64.000786a62.65565 62.65565 0 0 0-1.910847-15.211344c-2.5897-9.478804-8.158812-13.501639-17.851329-12.873071-2.979412 0.201142-5.946253 0.703996-9.139377 1.093709-1.156565-3.017126 0.175999-5.92111 0.301712-8.799951 0.075428-2.061703 2.162274-2.049131 3.620552-2.451415q13.275354-3.695979 26.575851-7.291388l102.280572-27.832988a16.543908 16.543908 0 0 1 5.166829-1.068565c2.31313-0.766853 4.62626-0.716567 5.958824 1.495992s-0.238856 4.223976-1.873133 5.858253a27.832988 27.832988 0 0 0-2.753127 3.079982c-3.959978 5.45597-2.514272 11.980505-3.042269 17.939329-2.325701 25.984998-4.299405 51.995138-6.348536 77.942422-1.57142 19.850175-3.343981 39.70035-4.588546 59.575668-0.641139 10.057087-2.199988 19.98846-2.03656 30.058118 0 1.596563 0 3.193125 0.125714 4.764544 1.005709 10.170229 7.303959 15.08563 17.411331 13.426211 4.34969-0.703996 8.485667-2.451415 12.961071-2.514271 6.85139 1.345135 7.731385 2.853698 5.405684 9.177091-2.086845 2.790842-5.543969 2.514272-8.334811 3.670837-7.86967 3.281125-16.229624 4.852544-24.375864 7.12796-6.159966 1.722276-6.93939 2.677699-7.391959 9.151949-2.111988 30.271831-4.927973 60.493377-7.266245 90.752636a260.591689 260.591689 0 0 0 0 33.942668c0.540568 10.233086 4.198834 14.180492 14.230778 17.109619a27.443275 27.443275 0 0 0 6.637677 1.181708c6.423964 0.18857 8.586238 3.155411 7.065104 9.415947a7.052532 7.052532 0 0 1-1.357707 2.790842c-2.803413 2.715413-6.562249 3.306267-10.057087 4.274262-41.875195 11.452508-83.800675 22.716445-125.713584 34.143809-5.443398 1.48342-10.723369 3.582837-16.342766 4.500546a13.350783 13.350783 0 0 0-4.047977 1.043423c-3.05484 0.955423-6.059395 2.237702-9.390805 1.910847-5.418255-1.395421-3.419409-5.820539-3.771408-9.277663 0.201142-2.979412 2.438844-4.098263 4.789688-5.028543C18.888189 781.435639 26.695003 770.624271 30.328126 756.506636c4.035406-15.601056 5.669683-31.591824 6.901675-47.620306 0.867424-13.023927 2.099417-26.010141 3.079983-38.971211 0.754282-2.903984 1.533706-5.795396 0.867424-8.799951a18.60561 18.60561 0 0 1 0.326855-5.342827 18.278755 18.278755 0 0 0 0.779424-8.51081 15.299343 15.299343 0 0 1 0.326856-4.34969 17.989614 17.989614 0 0 0 0.729139-8.447953 15.299343 15.299343 0 0 1 0.326855-4.34969 20.843312 20.843312 0 0 0 0.729139-9.390805 15.513056 15.513056 0 0 1 0.314284-4.374832 20.654742 20.654742 0 0 0 0.74171-9.428519 15.953054 15.953054 0 0 1 0.326855-4.43769c1.181708-2.677699 0.314284-5.958824 2.426272-8.372524a8.799951 8.799951 0 0 0 0.188571-3.934836c1.118851-2.841127-0.263999-5.92111 0.842281-8.799951a11.955362 11.955362 0 0 0 0.238855-4.902829c1.068565-2.891412-0.301713-6.021681 0.867424-8.900522a7.391959 7.391959 0 0 0 0.175999-3.947407c1.181708-3.205696-0.364569-6.66282 0.905138-9.855945a7.014818 7.014818 0 0 0 0.163428-3.909692c1.169136-3.218268-0.389712-6.687963 0.917709-9.881088a7.7691 7.7691 0 0 0 0.150856-3.871978c1.093708-2.86627-0.314284-5.983967 0.867424-8.862808a7.542815 7.542815 0 0 0 0.163428-3.972549c1.332564-3.959978-0.565711-8.14624 1.043422-12.03079z" p-id="4065"></path><path d="M189.368381 580.029906a7.153103 7.153103 0 0 1 0.075428-1.043423c1.068565-5.191971 1.068565-5.191971-4.412547-6.285679 0.201142-2.514272 2.350844-2.966841 4.098263-3.482266 12.420502-3.645694 19.083322-12.697072 23.156442-24.262722s4.802259-23.470726 5.845682-35.426088q3.60798-41.397483 7.165674-82.769824c1.131422-13.187355 2.287987-26.399853 3.369124-39.562065a46.677454 46.677454 0 0 0-2.426272-19.309606c-2.514272-7.253674-7.153103-10.157658-14.683346-8.799951-11.804506 2.22513-23.23187 6.009109-34.847806 9.013664-2.514272 0.641139-5.028543 2.049131-7.467387-0.27657a39.650064 39.650064 0 0 0 3.51998-2.941698c2.514272-2.514272 2.111988-3.947407-1.257135-5.154257a11.905076 11.905076 0 0 0-2.514272-0.377141c5.191971-2.300559 10.786226-3.255982 16.217052-4.751973q21.19531-5.858253 42.466049-11.427365a63.259076 63.259076 0 0 1 27.883273-1.231993c21.899306 4.085691 38.807783 20.705027 36.356369 49.782579l-5.028544 57.539108q-1.118851 12.935928-2.212559 25.871855c-0.289141 5.682254 1.722276 11.314223 0.088 17.046762-0.615997 2.162274-0.565711 4.513118-1.118851 6.725677-7.454816 27.94613-24.33815 48.940298-48.010018 64.905924a27.166706 27.166706 0 0 1-5.506255 3.155411c-11.691363 5.64454-24.06158 9.415947-36.356369 13.413639-1.395421 0.414855-3.004555 0.905138-4.399975-0.351998z" p-id="4066"></path><path d="M281.830722 499.799497c0.74171-7.417101 2.363415-14.746203 2.03656-22.276447a7.316531 7.316531 0 0 1 0.867424-2.40113c0.703996 4.638831 0.82971 4.827402 6.285679 4.010263a36.079799 36.079799 0 0 1 21.55988 3.507409c10.622798 5.191971 16.342766 13.51421 16.028482 25.721-0.238856 9.177092-1.194279 18.291326-2.011418 27.418132-0.867424 9.654803-1.57142 19.322178-2.401129 28.976982-0.955423 11.226223-1.961132 22.465017-2.929126 33.69124-0.729139 8.598809-2.061703 17.21019-2.011418 25.808999 0.088 14.997631 0.930281 29.970118 7.882242 43.836327 3.343981 6.66282 8.535952 11.603364 13.941636 16.443337 0.892566 0.791996 1.986275 0.578282 3.017126 0.678853 2.149702-2.451415 4.739402-2.740556 5.581684 0.578282a38.971211 38.971211 0 0 1-0.27657 18.78161c-0.201142 0.842281-1.068565 1.382849-1.873133 1.797704q-31.428396 8.586238-62.781364 17.12219c-2.5897 0.703996-5.1794 1.257136-6.285679 4.148549-5.355399-2.111988-10.057087 0.477712-14.796489 2.199987h0.062857c-4.839973 0.163428-9.177092 2.514272-13.828494 3.218268-1.257136 0.213713-2.715413 1.596563-3.771408-0.113142-0.854852-1.332564 0.439998-4.739402 2.174845-5.380542a38.468357 38.468357 0 0 1 8.611381-2.514271c6.549678-0.779424 9.541661-3.595409 9.62966-10.723369 0.125714-10.057087 1.583991-20.026174 2.438844-30.045547 1.257136-15.286772 2.514272-30.573544 3.871978-45.860315 0.326855-3.771408 0.226284-3.871978-3.633122-2.916555-4.613689 1.156565-9.089092 2.878841-13.828495 3.33141-2.011417-1.357707-3.859407-2.790842-3.281124-5.657112 3.771408-3.457124 8.711951-3.708551 13.23764-4.890258 4.865116-1.257136 6.725677-3.633123 7.12796-8.799951 1.84799-23.885581 3.771408-47.859162 5.971396-71.757314 1.319993-15.965625 2.199988-31.956393 3.381695-47.934589z" p-id="4067"></path><path d="M347.51607 706.372058a6.411393 6.411393 0 0 0 1.005709-4.047977c-0.82971-4.739402 0.213713-9.453662 0-14.180493-0.163428-3.88455-0.201142-3.897121-4.462833-2.929126 1.433135-16.669621 2.916555-33.339243 4.286834-50.021435 0.867424-10.534798 1.521134-21.094739 2.401129-31.629538 0.842281-10.057087 1.923418-19.98846 2.803413-29.995261s1.558848-19.674176 2.388558-29.504978c0.955423-11.414793 2.011417-22.817016 2.941698-34.231809q1.257136-15.538199 2.325701-31.101541a24.753005 24.753005 0 0 0-1.835418-10.333657c-0.754282-2.03656-1.898275-2.5897-4.07312-1.94856-6.084537 1.797704-12.231932 3.394267-18.366755 5.028543-1.621705 0.427426-3.570266 1.508563-4.324547-1.156565-0.653711-2.300559 0.326855-3.897121 2.991983-4.638831 12.910785-3.545123 25.859284-7.027389 38.782641-10.54737 2.715413-0.74171 5.418255-1.57142 8.133669-2.350844 9.327948-4.877687 19.43532-6.951961 29.756405-8.309668l2.023989-0.138285c5.443398-1.458278 10.899368-2.941698 16.342766-4.374832 1.722276-0.452569 3.846836-1.948561 4.714259 0.993137 0.716567 2.426272-0.439998 3.771408-3.582837 4.676545q-8.900522 2.514272-17.838758 5.028544c-4.726831 1.257136-4.663974 1.257136-4.953115 5.933681-0.578282 9.692517-1.596563 19.322178-2.803413 28.914124-0.615997 4.90283-0.716567 9.843374-1.257136 14.758775-1.458278 14.922202-2.300559 29.89469-3.545123 44.842035-1.257136 14.582776-2.690271 29.15298-3.934835 43.735756-0.892566 10.54737-1.495992 21.107311-2.388558 31.654681-1.194279 14.06735-2.514272 28.109557-3.457124 42.20205a45.030606 45.030606 0 0 0 0.854853 12.571358c1.583991 7.316531 5.83311 11.314223 15.08563 8.209098a117.517058 117.517058 0 0 0 33.766669-17.348475 41.598625 41.598625 0 0 1 3.595408-2.199988c7.542815 3.972549 8.020527 11.20108 1.156565 15.814769-4.186262 1.118851-8.51081 1.75999-12.571358 3.469695a4.701688 4.701688 0 0 1-2.514272 1.093708c-2.903984-0.263999-5.55654 0.817138-8.259382 1.558849q-37.160935 10.157658-74.334443 20.403314a5.883396 5.883396 0 0 1-0.854852 0.100571z" p-id="4068"></path><path d="M421.410515 352.350034c2.727985 5.55654 3.306267 11.75422 5.229685 17.599902 0.377141 1.131422 0.100571 2.174845-1.257136 2.438843-3.457124 0.703996-2.715413 2.916555-2.011417 5.217114 0.452569 1.495992 1.169136 3.356553-1.068566 3.88455-3.180554 0.754282-2.514272 2.639985-1.898275 4.777116a6.612535 6.612535 0 0 1 0.326855 4.123405l-3.281124 1.118851c-2.111988 0.100571-3.846836 3.117697-6.285679 0.791996l0.10057 0.087999c-1.973703-2.023989-2.5897-5.506255-6.285679-5.669682a1.671991 1.671991 0 0 1-1.458277-1.38285c0-4.236548-3.60798-4.399975-6.159966-5.782825-1.420564-5.279971-2.790842-10.572512-4.286833-15.839911-0.641139-2.275416-0.301713-3.51998 2.325701-4.148549 7.643386-1.822847 6.625106-2.237702 8.485667 4.689117 0.879995 3.24341 1.910846 6.436536 2.627414 9.705089 0.55314 2.514272 1.873132 3.117697 4.186262 2.388558 6.549678-2.099417 6.93939-0.55314 4.865116-7.857099-0.817138-2.891412-1.583991-5.782825-2.338273-8.686809-1.169136-4.513118-1.156565-4.500546 3.117697-5.770253 1.734847-0.55314 3.394267-1.131422 5.066258-1.684562z" p-id="4069"></path><path d="M388.020987 394.878939c2.137131-0.565711 3.846836-1.043423 5.55654-1.470849 1.257136-0.314284 2.426272-0.46514 2.954269 1.257136s-0.339427 2.300559-1.684562 2.665128l-25.067288 6.738248c-1.395421 0.377141-2.413701 0.125714-2.841127-1.433135s0.603425-2.099417 1.860561-2.577128c2.388558-0.905138 6.034252-0.289141 6.838819-2.954269 0.615997-2.023989-0.917709-4.714259-1.546277-7.102818-1.407992-5.292542-2.929127-10.54737-4.211405-15.877625-0.590854-2.514272-1.646848-3.255982-4.073121-2.275416-1.458278 0.590854-3.05484 0.842281-4.588545 1.257136s-2.262845-0.364569-2.6777-1.722277 0.414855-1.910846 1.546277-2.22513c8.523381-2.287987 17.059333-4.550832 25.570143-6.889104 1.609134-0.439998 2.287987 0.18857 2.690271 1.596562s-0.251427 1.935989-1.458278 2.262845c-1.873132 0.502854-3.771408 1.143994-5.606825 1.583991s-2.137131 1.458278-1.684562 3.117697q3.017126 10.974796 5.908538 21.999877c0.46514 1.634277 1.118851 2.564557 2.514272 2.049131z" p-id="4070"></path><path d="M341.972101 406.872015a129.484992 129.484992 0 0 0 13.828494-3.457123c1.357707-0.351998 2.727985-0.754282 4.110834-0.993138s1.747419 0.879995 2.023989 1.910847a1.495992 1.495992 0 0 1-1.194279 1.973703c-0.666282 0.213713-1.332564 0.439998-2.023989 0.615997-7.479958 2.011417-14.997631 3.934835-22.452446 6.071966-2.275416 0.641139-3.658265 0.578282-4.337119-2.023989q-3.771408-14.595347-7.756528-29.127837c-0.603425-2.237702 0.238856-3.255982 2.338273-3.771408 7.831956-1.923418 6.486821-2.815984 8.435381 4.362261 1.797704 6.637677 3.532552 13.287926 5.342828 19.925604 0.351998 1.495992 0.427426 3.130268 1.684562 4.513117z" p-id="4071"></path><path d="M412.29628 444.460377c-3.067411 1.860561-6.637677 2.086845-9.981659 3.05484-6.549678 1.910846-13.174784 3.51998-19.774747 5.254828 2.363415-3.658265 5.418255-5.933681 10.057087-5.191971a4.186262 4.186262 0 0 0 3.545123-0.678854c3.444552-3.24341 8.045669-2.074274 12.03079-3.230839 1.219422-0.351998 2.753127 0.490283 4.123406 0.791996zM397.411791 379.504168a11.653649 11.653649 0 0 0 2.514272-0.301713c1.747419-0.590854 2.652557 0 3.092554 1.709705 0.314284 1.181708 0.628568 2.363415 1.01828 3.532552 0.289141 0.867424 0.930281 1.747419 1.885704 1.357707 4.173691-1.709705 4.098263 1.596563 4.81483 3.959977a24.589577 24.589577 0 0 1 0.515426 2.514272c-3.419409-2.715413-8.963379-3.193125-9.353091-9.089092-0.062857-0.892566-1.131422-1.257136-1.986274-1.433135a3.306267 3.306267 0 0 1-2.501701-2.250273z" p-id="4072"></path><path d="M1035.722515 0.892566c0 1.118851-0.201142 1.747419-1.030851 1.860561A1.84799 1.84799 0 0 1 1032.403677 1.257136c-0.125714-0.55314 0.339427-0.955423 0.854852-1.10628a2.074274 2.074274 0 0 1 2.463986 0.74171z" p-id="4073"></path><path d="M411.215143 392.226383c2.199988 0.565711 4.123406-1.01828 6.285679-0.791996-0.930281 0.716567-1.84799 1.470849-2.815984 2.149702-1.835418 1.319993-2.803413 0.351998-3.469695-1.357706z" p-id="4074"></path><path d="M640.252722 634.350746c1.420564-15.990768 2.86627-31.994107 4.249119-47.997447q3.042269-34.835234 5.983967-69.670468c0.515426-5.971395 1.068565-11.955362 1.495991-17.939328a33.653526 33.653526 0 0 0-1.521134-14.117636c-0.791996-2.199988-1.697133-3.092554-4.236548-2.350844-9.969087 2.916555-20.4536 4.487975-28.398698 12.11879a19.724461 19.724461 0 0 1-5.2674-6.964533c-0.653711-1.257136-0.201142-2.011417 1.030852-2.413701 0.82971-0.27657 1.709705-0.439998 2.514271-0.678853l75.151581-20.390744a14.205635 14.205635 0 0 1 2.074274-0.289141A25.142717 25.142717 0 0 1 696.484408 478.843042c-0.515426 4.198834 0.075428 7.090246 3.205697 9.642232 0.980566 9.026235-0.930281 17.901614-1.57142 26.827279-1.043423 14.595347-2.413701 29.165552-3.620551 43.735756-1.634277 19.510748-3.394267 38.971211-5.028544 58.494531q-1.785133 21.082168-3.51998 42.164336c-0.955423 11.427365-1.697133 22.867301-2.941698 34.256951-0.766853 7.153103 0 7.907384 6.914247 6.071967 2.388558-0.628568 4.739402-1.458278 7.266245-1.005709 3.318839 1.156565 2.250273 4.047977 2.514272 6.411393-0.452569 0.82971-1.370278 0.766853-2.086846 1.093708-0.967995 0.867424-2.388558 0.125714-3.369124 0.942852l-8.309667 2.22513c-0.930281 0.905138-2.375987 0.113142-3.33141 0.980566a1.257136 1.257136 0 0 0-0.91771 0.175999c-1.835418 1.860561-4.135977 2.111988-6.587391 1.84799a172.59218 172.59218 0 0 0-16.770193 4.475403c-0.942852 0.82971-2.338273 0-3.268553 0.930281l-8.385096 2.22513c-0.930281 0.879995-2.350844 0.075428-3.281124 0.955424a43.170045 43.170045 0 0 0-8.397668 2.262844c-0.955423 0.817138-2.338273 0-3.268553 0.917709l-8.397667 2.212559c-0.917709 0.905138-2.350844 0.088-3.268554 0.967995-6.034252 0.917709-11.666221 3.51998-17.750758 4.211405-1.935989-2.111988-2.187416-4.16112 0.213713-6.122251 9.214806-2.426272 18.404469-4.927973 27.656989-7.266246 2.375987-0.603425 3.595409-1.621705 3.771407-4.26169 0.27657-5.631969 0.879995-11.314223 1.257136-16.895906 0.150856-2.086845 0.389712-3.959978-2.514271-5.028543-2.212559-0.842281-1.885704-3.205696 0.553139-4.261691 1.508563-0.666282 2.841127-0.854852 2.979412-2.954269 0.905138-13.375925 2.727985-26.676423 3.017126-40.102633l0.088-1.910847c1.20685-2.828556-0.301713-5.908538 0.917709-8.711951z" p-id="4075"></path><path d="M446.201233 679.758492c4.198834-5.229685 4.324547-7.605672 0.628568-13.187355-0.578282-0.879995-1.181708-1.747419-1.785133-2.627413 7.266245-6.436536 14.230778-13.111927 19.950746-21.057026 9.969087-13.828494 16.204481-29.228408 20.365601-45.596317 3.582837-14.092493 4.513118-28.486698 5.506255-42.906046 1.030851-14.934774 2.602271-29.819262 3.846836-44.728893 0.27657-3.343981 0.18857-6.700534 0.263998-10.057087v-1.998846c1.722276-3.444552-1.257136-7.329102 0.993137-10.723369v-2.03656c1.332564-3.105126-0.339427-6.511964 0.955424-9.617089l0.125713-4.135977c1.257136-2.765699-0.289141-5.820539 0.917709-8.586238 0-1.395421 0.075428-2.790842 0.125714-4.186262a84.592671 84.592671 0 0 0 0-20.327887c-0.578282-3.545123-2.023989-6.562249-5.279971-8.447953a5.129114 5.129114 0 0 0-3.469694-0.477711c-3.922264 0.113142-4.374833-1.697133-2.715414-4.739402 3.60798 0 6.700534-2.514272 10.383942-2.137131 4.90283 4.173691 5.657111 9.981659 5.506255 15.764483-0.100571 3.771408-0.075428 7.354245 1.596563 10.798797a7.140532 7.140532 0 0 1 0.892566 3.029697c0 8.799951 3.771408 16.342766 7.542815 24.099295 3.444552 6.901676 5.657111 14.369063 2.803413 22.477588-1.181708 3.318839 1.395421 6.210251 3.180554 9.126807 5.191971 8.460524 10.786226 16.807906 11.603364 27.166705a18.303898 18.303898 0 0 0 1.646848 6.097109 33.653526 33.653526 0 0 1 2.31313 18.857038 4.588546 4.588546 0 0 0 1.810275 4.62626 7.970241 7.970241 0 0 1 3.067412 4.802258c0.578282 13.250212-1.75999 26.311853-2.388559 39.474066-0.377141 7.894813-2.350844 15.726769-1.106279 23.684439 1.659419 10.497084 4.575974 12.571358 14.89706 10.874225a16.518765 16.518765 0 0 1 3.130268-0.314284c1.257136 0.062857 2.690271 0.754282 3.897121-0.414855 1.734847-1.10628 3.532552-1.772562 5.569112-0.867423a7.882242 7.882242 0 0 1 1.935989 5.581683c-9.654803 3.369124-19.62389 5.64454-29.454693 8.397667q-26.248996 7.379387-52.560849 14.507348c-12.131361 3.381695-24.426149 6.562249-36.695796 9.805659z" p-id="4076"></path><path d="M565.025713 647.098103c-3.130268-0.691425-1.84799-3.230839-2.149702-5.116543a4.62626 4.62626 0 0 1 2.891412-2.891412c9.956516-4.475404 13.162212-13.074213 14.15535-23.030729 0.779424-7.882242 1.357707-15.777055 2.250273-23.646725 0.364569-3.205696 1.257136-6.046823 4.651403-6.964532 12.847928-3.494838 25.331287-8.561095 38.832926-9.315377l5.27997-0.389712c-1.546277 18.567896-3.05484 36.871794-4.575974 55.175692q-29.090123 7.844528-58.217961 15.663913a28.285556 28.285556 0 0 1-3.117697 0.515425z" p-id="4077"></path><path d="M699.715247 705.441778c-3.582837-1.156565-1.697133-3.369124-1.030851-5.342828a4.148548 4.148548 0 0 1 3.406838-2.991983c8.737094-2.12456 17.059333-5.820539 25.620429-6.977104a32.748389 32.748389 0 0 1-9.843374-1.910846c-5.028543-1.860561-7.190817-7.039961-5.028543-12.131361a8.611381 8.611381 0 0 1 11.741648-4.927973c3.871978 1.533706 6.612535 4.425118 9.214806 7.932527-0.942852-3.532552-2.514272-6.587392-2.614843-9.981658-0.163428-4.035406 1.257136-7.329102 4.927973-9.265091a8.498238 8.498238 0 0 1 9.893659 1.181707c3.167982 2.514272 4.550832 5.807968 3.33141 9.868517s-2.149702 7.819385-4.010263 10.446799a26.072997 26.072997 0 0 1 9.780517-9.918802c3.582837-2.187416 8.259382-1.420564 10.283371 2.275416 2.514272 4.550832 5.481112 5.330256 9.90623 3.532551a5.657111 5.657111 0 0 1 4.651403-0.075428c1.747419 1.671991 0.351998 4.223976 1.646848 6.034252-7.241102 2.665128-14.821632 4.198834-22.201019 6.38625l-4.890259 1.458278c1.081137 1.772562 2.652557 1.458278 3.947407 1.785133 6.285679 1.609134 7.882242 3.897121 7.190817 10.471941a2.639985 2.639985 0 0 0 0.905138 2.338273c0.917709 3.620551-1.382849 2.325701-3.05484 1.998846a2.514272 2.514272 0 0 0-2.187417 0.138285 9.189663 9.189663 0 0 1-5.242256 0c-4.53826-2.162274-7.354245-6.285679-10.748512-9.654803-1.257136-0.414855-1.458278 0-1.005708 1.106279a29.794119 29.794119 0 0 0 3.33141 10.509656 5.028543 5.028543 0 0 1 0 4.223976c-1.646848 2.514272-3.419409 4.827402-6.775963 5.204543a7.731385 7.731385 0 0 1-8.297096-4.135977 10.421656 10.421656 0 0 1 0-6.348536 32.471819 32.471819 0 0 1 3.369124-9.44109c0.439998-1.257136 0.113142-1.659419-1.169136-1.194279-3.507409 3.620551-6.587392 7.668529-10.610227 10.798796a5.543969 5.543969 0 0 1-4.186262 0 7.945099 7.945099 0 0 1-6.285679-5.443398 3.60798 3.60798 0 0 0-3.595409-0.100571h-0.402283l-0.377141 0.163428c-0.942852 0.930281-2.375987 0.150856-3.356553 0.980566z" p-id="4078"></path><path d="M486.32901 916.92974a10.145086 10.145086 0 0 1 0 2.049132c-0.641139 2.853698-2.187416 3.846836-5.141686 3.771407-3.633123 0-2.627414-2.841127-3.042269-4.81483 0.138285-1.143994 1.257136-2.803413-1.319992-2.514272a17.386189 17.386189 0 0 1-1.709705 1.194279c-2.715413 1.495992-5.0914 1.257136-6.021681-0.540568a5.028543 5.028543 0 0 1 2.162274-6.285679 11.452508 11.452508 0 0 1 2.514271-0.754282c0.603425-0.477712 1.885704-0.578282 1.018281-1.873132q-9.667375-1.470849-4.186263-8.799951a3.281125 3.281125 0 0 1 3.105126 0l4.186262 3.381695c1.345135 0.402283 1.684562-0.150856 1.319993-1.382849a0.854852 0.854852 0 0 0-0.201142-0.817138 7.417101 7.417101 0 0 1-0.150856-5.229685c1.558848-1.433135 3.117697-2.702842 5.405684-1.395421 2.639985 1.508563 2.212559 3.934835 2.011417 6.285679-0.138285 0.967995-0.515426 2.162274 1.257136 1.407992a5.443398 5.443398 0 0 1 3.193125-2.22513c1.093708-0.490283 2.162274-0.842281 3.105126 0.289141 2.878841 3.457124 2.878841 3.897121 0 7.266245-0.942852 0.892566-2.363415 0.113142-3.33141 0.955423h-0.452569l-0.427427 0.175999c-0.804567 0.804567-1.772562 0.427426-2.451414 0.402284 1.433135 0.213713 2.891412 1.10628 4.525689 1.48342 4.689117 2.916555 4.689117 2.916555 3.130268 7.291388-1.57142 1.609134-3.419409 0.653711-5.1794 0.565711l-2.514272-2.287987c-2.287987-0.012571-0.678853 1.533706-0.804566 2.401129z" p-id="4079"></path><path d="M443.083537 803.00809c-0.817138 1.055994-2.099417 1.143994-3.23084 1.533706s-2.22513 0.729139-3.394266 1.10628c1.10628 1.684562 2.853698 1.345135 4.286833 1.822847a2.954269 2.954269 0 0 1 1.94856 4.173691 2.853698 2.853698 0 0 1-4.274261 1.621705 23.244442 23.244442 0 0 1-3.683408-2.639985c-1.118851 1.169136-0.062857 2.111988-0.138285 3.067411a2.941698 2.941698 0 0 1 0 3.105126l-1.257136 1.257135a2.941698 2.941698 0 0 1-3.092554 0l-1.257136-1.194279a3.092554 3.092554 0 0 1 0-3.079982v-2.514272c-2.803413 0.817138-5.217114 4.211405-8.322239 1.433135a2.514272 2.514272 0 0 1 0-3.130269c0.879995-1.797704 2.514272-2.137131 4.286833-2.237701 0.578282-0.490283 1.634277-0.729139 0.967994-1.860561-1.470849-0.377141-3.14284 0-4.437689-1.118851-1.583991-1.420564-2.237702-3.092554-1.257136-5.028544 0.842281-1.609134 2.903984-1.772562 5.028543-0.414854 1.005709 0.653711 1.898275 1.470849 2.841127 2.212559 0.364569 0.18857 0.74171 0.892566 1.093709 0a31.730109 31.730109 0 0 1-0.91771-4.525689c-0.18857-2.690271 0.82971-3.871978 2.991984-3.771408a3.771408 3.771408 0 0 1 3.934835 4.324547 17.599902 17.599902 0 0 0-0.691425 4.047978c0.27657 0.427426 0.540568 0.402283 0.779424 0 3.771408-4.060549 4.148548-4.110834 7.831957-0.980566a3.180554 3.180554 0 0 1-0.037714 2.790841z" p-id="4080"></path><path d="M579.847345 827.497097a2.815984 2.815984 0 0 1-1.055994-2.174845c-0.842281-1.068565-1.709705-2.061703-3.243411-1.118851-1.822847 0-3.934835 0.46514-4.877687-1.709705a3.469695 3.469695 0 0 1 1.747419-4.71426c0.691425-0.842281 3.494838-0.942852 1.005709-2.891412-4.764545-2.514272-4.764545-2.514272-2.03656-6.687963a3.771408 3.771408 0 0 1 3.092554-0.113142l3.117697 1.407992c0.452569 0.477712 0.867424 0.502854 1.257136-0.087999 0-0.351998 0-0.703996-0.062857-1.055994-0.062857-2.111988-0.402283-4.374833 2.325701-5.204543 2.174845-0.653711 3.381695 0.364569 5.028543 4.047978-0.666282 1.885704-0.578282 2.074274 0.930281 2.049131a6.449107 6.449107 0 0 1 1.785133-0.854852c1.722276-0.226284 3.557694-0.289141 4.412547 1.621705a3.444552 3.444552 0 0 1-1.734848 4.726831c-2.300559 1.030851-0.82971 2.011417 0 3.004554 2.375987 1.407992 2.350844 3.268553 0.980566 5.36797a3.959978 3.959978 0 0 1-4.198834 0.150857 9.365662 9.365662 0 0 0-1.030851-0.213713 2.388558 2.388558 0 0 0-2.162274 1.257136l-1.081136 3.142839a4.110834 4.110834 0 0 1-4.198834 0.050286z" p-id="4081"></path><path d="M585.014173 741.710147c0.251427 1.923418-0.754282 2.853698-1.131422 3.98512-0.980566 2.966841 1.257136 5.870824 0.82971 8.435382-0.55314 2.929127-1.458278 5.631969-0.226285 8.460524a2.991983 2.991983 0 0 1-0.138285 3.444552c-1.747419 2.099417-0.930281 4.613689-0.18857 6.436536a7.706243 7.706243 0 0 1 0.175999 6.059395 3.306267 3.306267 0 0 0-0.188571 1.558848 40.303775 40.303775 0 0 1-0.364569 12.7725c-0.263999 1.458278 0.653711 2.300559 1.043423 3.41941a2.350844 2.350844 0 0 1-0.854853 2.815984 2.727985 2.727985 0 0 1-2.979412 0.351998 2.12456 2.12456 0 0 1-1.068565-2.715413 11.993076 11.993076 0 0 0-0.628568-10.295943c-0.817138-1.57142 1.609134-2.803413 1.131422-4.890258-0.930281-4.047977 0.377141-8.460524-0.37714-12.332503-1.01828-5.242256 2.023989-10.534798-0.804567-15.563342-0.46514-0.82971 0.402283-1.609134 0.74171-2.401129 0.905138-2.137131 1.093708-4.839973 0.062857-6.486821-1.986275-3.167982 1.583991-5.569112 0.46514-8.385096 0-0.125714 0.716567-0.729139 1.181708-0.867424 0.754282-0.226284 1.709705 0.251427 1.722276 0.82971a15.751912 15.751912 0 0 0 1.596562 5.36797z" p-id="4082"></path><path d="M572.405101 727.655368c3.167982-0.125714 6.19768-2.514272 9.44109-0.100571 0.578282-5.191971 0.678853-5.279971 5.267399-4.81483 1.433135 0.540568 0.515426 2.023989 1.156565 2.878841 1.257136 2.31313 0.18857 3.205696-2.074274 3.356553-3.507409 1.48342-7.794242 0.967995-10.622798 4.161119a2.702842 2.702842 0 0 1-3.14284-0.18857c-1.495992-0.515426-2.853698-1.257136-2.715413-3.092554a2.174845 2.174845 0 0 1 2.690271-2.199988z" p-id="4083"></path><path d="M572.405101 727.655368c-3.255982 1.797704-0.867424 3.557694 0 5.317685-2.086845 1.445706-3.846836 3.381695-6.28568 4.299404a6.637677 6.637677 0 0 1-3.268553-4.362261c0.817138-1.257136 0.150856-2.262845-0.502854-3.369124-1.01828-1.722276 0-2.991983 1.257136-4.085692a1.973703 1.973703 0 0 1 3.193125 0.439998c1.382849 2.614843 4.110834 0.088 5.606826 1.75999z" p-id="4084"></path><path d="M481.124467 768.248284l-1.257136-1.332564a3.306267 3.306267 0 0 1 0.213713-3.117697v-2.124559a2.790842 2.790842 0 0 1-0.163427-3.167982c0.905138-1.068565 0.578282-2.199988 0.339426-3.41941a2.187416 2.187416 0 0 1 2.262845-2.790842 2.325701 2.325701 0 0 1 2.690271 2.903984c-0.175999 1.169136-0.967995 2.275416 0.150856 3.356553 0.364569 0.163428 0.527997 0.364569 0.46514 0.615997s-0.150856 0.402283-0.251427 0.402283c-0.364569 1.810276-3.167982 3.318839-0.414855 5.543969 0.791996 0.641139-0.389712 1.84799-0.817138 2.753128a2.22513 2.22513 0 0 1-3.218268 0.37714z" p-id="4085"></path><path d="M586.195881 728.987932a3.633123 3.633123 0 0 0 2.074274-3.356553c4.047977 1.609134 8.070812 2.665128 12.194218 0.113143 0.502854-0.301713 1.370278 0 2.061702 0a17.298189 17.298189 0 0 0-0.213713 6.122251c-2.388558 1.01828-3.205696-3.457124-6.02168-1.583991-1.684562 1.118851-3.947407 0.226284-5.971396 1.357707s-3.733693-0.213713-4.123405-2.652557z" p-id="4086"></path><path d="M436.445859 765.847155l-3.067411 2.074274a2.275416 2.275416 0 0 1-3.167982 0.289141l-3.406839-3.33141a1.75999 1.75999 0 0 1 0.100571-2.22513c0.942852-0.993137 1.785133-0.527997 2.778271 0s1.57142 0.18857 1.257135-1.093708c-0.653711-2.828556 0.326855-3.155411 2.514272-1.684562a35.991799 35.991799 0 0 0 3.230839 1.722276c0.82971 1.48342 1.118851 2.941698-0.238856 4.249119z" p-id="4087"></path><path d="M430.210466 768.21057l3.167982-0.289141c0.27657 2.514272-0.55314 5.028543 0.791995 7.643386 1.169136 2.287987-1.697133 4.751973-1.181707 7.454815 0 0.138285-0.842281 0.641139-1.257136 0.603426s-1.169136-0.653711-1.118851-0.82971c0.879995-3.14284-3.004555-6.034252-0.301713-9.478804 0.817138-1.030851-0.025143-3.369124-0.10057-5.103972z" p-id="4088"></path><path d="M798.752409 726.83823c1.810276 0.502854 3.934835 0.666282 4.110834 3.193125 0.088 1.156565 0.641139 1.257136 1.646848 1.257136 1.785133 0 2.325701 1.257136 2.40113 2.765698-0.138285 0.703996-0.74171 0.729139-1.257136 0.892567-2.514272 0.389712-3.947407-2.514272-6.977104-1.671991-1.684562 0.477712-2.250273-2.514272-2.149702-4.525689 0.062857-1.382849 1.169136-1.621705 2.22513-1.910846z" p-id="4089"></path><path d="M486.115296 703.505788c-0.477712 1.257136-0.163428 3.155411-1.847989 3.431981a2.388558 2.388558 0 0 1-3.067412-2.602271c0-0.653711 0.150856-1.470849-0.829709-1.646848-1.923418-0.364569-1.558848-1.48342-0.892567-2.677699a3.431981 3.431981 0 0 1 3.293696-2.174845 2.388558 2.388558 0 0 1 2.514272 2.086845c0.251427 1.20685 0.565711 2.388558 0.829709 3.582837z" p-id="4090"></path><path d="M681.637634 794.635566a4.261691 4.261691 0 0 0-5.191971 0l0.113142-7.630815a3.394267 3.394267 0 0 1 5.028543 0z" p-id="4091"></path><path d="M830.13052 743.570708c3.846836-0.766853 3.985121-0.691425 5.405684 3.24341a1.84799 1.84799 0 0 1-1.345136 1.973703c-2.401129 1.10628-4.34969 1.068565-5.116543-1.998845-0.905138-1.48342-0.339427-2.489129 1.055995-3.218268z" p-id="4092"></path><path d="M285.954128 730.886207c-4.676545 0.917709-4.865116 0.82971-6.134823-3.130268 1.319993-0.993137 2.388558-2.77827 4.412547-1.835418s1.772562 3.092554 1.722276 4.965686z" p-id="4093"></path><path d="M627.756792 697.911534c-0.301713 2.03656-1.156565 3.281125-3.067412 3.130268a2.86627 2.86627 0 0 1-2.929126-3.029697 2.954269 2.954269 0 0 1 3.105125-2.891413 2.891412 2.891412 0 0 1 2.891413 2.790842z" p-id="4094"></path><path d="M473.820508 761.686035c-1.797704 2.5897-3.947407 2.891412-6.449107 1.030852-0.314284-0.226284-0.427426-0.452569-0.339427-0.703996s0.18857-0.377141 0.27657-0.377141c1.986275-3.771408 2.275416-3.909692 6.172537-1.910847 0.917709 0.515426 0.879995 1.194279 0.339427 1.961132z" p-id="4095"></path><path d="M348.572064 756.443779l-1.01828-1.156565c0.201142-1.948561 0.427426-3.972549 2.941698-4.198834 2.137131-0.18857 3.092554 1.194279 3.381695 3.14284 0.590854 1.257136-0.452569 1.558848-1.106279 2.099417a4.299405 4.299405 0 0 1-4.198834 0.113142z" p-id="4096"></path><path d="M496.926665 759.486048c-1.722276 1.01828-3.457124 1.835418-5.229685 0.087999-1.068565-1.01828-0.55314-2.111988-0.163428-3.193125 2.86627-2.514272 2.86627-2.514272 5.669683-0.075428a2.149702 2.149702 0 0 1-0.27657 3.180554z" p-id="4097"></path><path d="M770.71828 707.201768a4.286833 4.286833 0 0 1 2.275416 3.557694c0.477712 1.156565-0.150856 1.634277-1.169137 1.873133-4.43769 0-4.43769 0-5.166828-3.997692 0.82971-1.948561 2.451415-1.697133 4.060549-1.433135z" p-id="4098"></path><path d="M618.013989 703.24179a12.835357 12.835357 0 0 1-0.125714 3.117697 2.514272 2.514272 0 0 1-3.24341 1.910846 2.514272 2.514272 0 0 1-2.011417-2.727984 2.614843 2.614843 0 0 1 2.4137-2.916556 10.245657 10.245657 0 0 1 3.029698 0.691425z" p-id="4099"></path><path d="M852.683537 752.219802l-1.081137 2.023989c-2.514272 1.747419-4.525689 0.477712-6.499393-1.068565a3.092554 3.092554 0 0 1 1.030852-4.236548 24.991861 24.991861 0 0 1 6.549678 3.281124z" p-id="4100"></path><path d="M383.457584 759.523762c1.395421-2.187416 3.180554-2.275416 5.242256-1.005709a2.31313 2.31313 0 0 1 0.301713 3.230839c-2.878841 2.514272-2.878841 2.514272-5.581683-0.075428a1.546277 1.546277 0 0 1 0.037714-2.149702z" p-id="4101"></path><path d="M778.374237 714.053158c1.772562-0.138285 2.954269 0.967995 4.16112 2.023989 1.257136 2.401129-0.226284 3.431981-2.174845 4.211405-3.218268 0.414855-4.186262-1.345135-4.035406-4.186262 0.113142-1.269707 1.01828-1.734847 2.049131-2.049132z" p-id="4102"></path><path d="M520.309391 754.193506c-2.049131 1.257136-3.871978 1.319993-5.242256-0.993138-0.339427-0.213713-0.46514-0.452569-0.389712-0.716567s0.175999-0.402283 0.27657-0.402284c1.75999-3.457124 1.822847-3.469695 5.380541-2.023988a3.029697 3.029697 0 0 1-0.025143 4.135977z" p-id="4103"></path><path d="M329.400742 749.79353c-3.51998 0.993137-3.620551 0.930281-5.217113-2.979412 3.281125-3.14284 3.507409-3.14284 6.511963 0 0.817138 1.521134 0.263999 2.438844-1.29485 2.979412z" p-id="4104"></path><path d="M680.58164 765.771727c0.477712 2.237702 1.495992 4.412547 0.955423 6.801105a3.633123 3.633123 0 0 1-5.028543 0c-0.46514-2.262845 0.389712-4.34969 0.917709-6.47425a2.074274 2.074274 0 0 1 3.155411-0.326855z" p-id="4105"></path><path d="M407.707734 761.723749c1.169136-1.609134 2.514272-2.451415 4.324547-0.892566a2.514272 2.514272 0 0 1 0.527997 3.708551c-1.407992 1.709705-3.130268 1.998846-4.839973 0.251427a4.43769 4.43769 0 0 1-0.012571-3.067412z" p-id="4106"></path><path d="M376.995905 760.466613c-1.797704 0.791996-3.557694 3.381695-5.405684 0.075429a3.922264 3.922264 0 0 1 0.138285-3.193125 3.658265 3.658265 0 0 1 5.518827 0.075428c0.641139 1.068565 0.993137 2.12456-0.251428 3.042268z" p-id="4107"></path><path d="M680.58164 750.107814a3.293696 3.293696 0 0 1-0.100571 4.852544c-0.879995 1.257136-1.910846 1.156565-3.029697 0.351999-1.709705-1.835418-3.24341-3.658265 0-5.518827a2.262845 2.262845 0 0 1 3.130268 0.314284z" p-id="4108"></path><path d="M605.769486 715.146866a2.841127 2.841127 0 0 1-3.092554-3.092554c0-1.684562 1.257136-2.514272 2.77827-2.375987a2.665128 2.665128 0 0 1 2.803413 3.004555 2.514272 2.514272 0 0 1-2.489129 2.463986z" p-id="4109"></path><path d="M543.89326 745.732981c-1.48342 2.250273-3.306267 2.841127-5.606826 1.169137a3.985121 3.985121 0 0 1-0.113142-3.218268c1.257136-1.747419 2.727985-2.31313 4.689116-1.257136 1.357707 0.804567 1.910846 1.797704 1.030852 3.306267z" p-id="4110"></path><path d="M680.569068 717.246283a3.444552 3.444552 0 0 1-0.062856 4.890259c-0.905138 1.257136-1.948561 1.055994-3.05484 0.301712-1.734847-1.822847-3.180554-3.658265 0-5.518826a2.212559 2.212559 0 0 1 3.117696 0.326855z" p-id="4111"></path><path d="M549.160659 741.509005c1.169136-3.972549 1.433135-4.135977 5.217114-3.180554 0.817138 0.46514 1.734847 0.892566 1.005708 2.099417-1.345135 1.986275-2.514272 4.311976-5.531397 2.262845a1.722276 1.722276 0 0 1-0.691425-1.181708z" p-id="4112"></path><path d="M336.943557 753.351225c-0.389712-0.414855-0.791996-0.817138-1.257135-1.257136 0.364569-2.011417 1.005709-3.871978 3.406838-4.047978 1.973703-0.125714 2.702842 1.319993 3.130268 2.95427-0.427426 3.821693-3.067411 2.627414-5.279971 2.350844z" p-id="4113"></path><path d="M677.426229 733.186766c-1.621705-1.030851-2.652557-2.099417-1.10628-4.110835a2.77827 2.77827 0 0 1 4.07312-0.641139c2.011417 1.257136 1.257136 2.903984 0.175999 4.425118a2.199988 2.199988 0 0 1-3.142839 0.326856z" p-id="4114"></path><path d="M532.264753 749.969529c-1.860561 1.521134-3.771408 2.853698-5.657111 0.113142a1.973703 1.973703 0 0 1 0-2.199987c1.382849-2.5897 3.281125-2.426272 5.418255-1.043423 1.093708 0.980566 0.766853 2.049131 0.238856 3.130268z" p-id="4115"></path><path d="M395.312375 760.655184a14.80906 14.80906 0 0 1 2.287987-1.118851 2.727985 2.727985 0 0 1 3.167982 1.106279c0.892566 1.257136 0.138285 2.338273-0.540568 3.293696a2.350844 2.350844 0 0 1-3.230839 0.540569 9.868516 9.868516 0 0 1-1.835419-1.722276 1.370278 1.370278 0 0 1 0.150857-2.099417z" p-id="4116"></path><path d="M303.00089 741.383291l-1.131423-3.067411 0.289142-0.414855c1.131422-1.495992 2.514272-2.514272 4.374832-1.395421 2.401129 1.357707 1.055994 3.193125 0.452569 4.90283a2.262845 2.262845 0 0 0-0.93028 0.389712c-1.118851 0.201142-2.212559 0.590854-3.05484-0.414855z" p-id="4117"></path><path d="M360.401712 754.281505c1.722276-0.930281 3.281125-1.01828 4.475404 0.842281a2.602271 2.602271 0 0 1-0.603425 3.293696c-1.370278 1.609134-2.929127 1.495992-4.374833-0.062857-0.138285-1.345135-0.993137-2.815984 0.502854-4.07312z" p-id="4118"></path><path d="M294.339224 737.197029a7.706243 7.706243 0 0 1-3.318839-2.03656c0-0.351998 0.062857-0.703996 0.113142-1.055994 0.201142-1.772562 1.01828-2.991983 2.95427-3.042269a2.22513 2.22513 0 0 1 2.124559 1.257136 2.991983 2.991983 0 0 1-1.068565 4.135977c-0.27657 0.226284-0.540568 0.502854-0.804567 0.74171z" p-id="4119"></path><path d="M780.360512 720.263409c1.068565-1.257136 2.31313-2.363415 2.174845-4.211405 1.458278 1.898275 4.299405 2.765699 4.34969 5.73254a2.514272 2.514272 0 0 1-0.263999 3.771407c-1.118851-2.878841-4.110834-3.595409-6.260536-5.292542z" p-id="4120"></path><path d="M592.393561 718.176564c1.345135-1.10628 2.061703-4.249119 4.613688-1.407992a2.891412 2.891412 0 0 1 0.578283 3.771407c-1.005709 1.57142-2.514272 1.57142-4.073121 0.930281a2.149702 2.149702 0 0 1-1.11885-3.293696z" p-id="4121"></path><path d="M786.621048 725.593665l0.263999-3.771407c1.973703-0.892566 3.859407-1.131422 5.481112 0.716567 0.351998 1.659419 0.74171 3.33141-1.420564 4.110834-1.433135-0.150856-3.167982 0.452569-4.324547-1.055994z" p-id="4122"></path><path d="M818.527156 739.371874c2.287987-1.671991 4.198834-1.382849 5.657111 1.118851a2.174845 2.174845 0 0 1-1.332564 3.14284 3.167982 3.167982 0 0 1-4.575974-1.143994c-0.226284-1.068565-0.578282-2.137131 0.251427-3.117697z" p-id="4123"></path><path d="M508.982597 756.330637l-1.370278 1.39542a5.292542 5.292542 0 0 1-3.029697 0l-1.345135-1.257136a2.363415 2.363415 0 0 1 0.339426-3.255981 3.771408 3.771408 0 0 1 5.129115 0c1.081137 0.955423 0.729139 2.03656 0.276569 3.117697z" p-id="4124"></path><path d="M680.569068 717.246283l-3.142839-0.326855a5.958824 5.958824 0 0 0-2.300559-4.211405 17.926757 17.926757 0 0 1 6.574821-1.84799zM592.393561 718.176564c0.377141 1.081137 0.754282 2.174845 1.11885 3.255982-1.169136 2.111988-3.318839 3.017126-5.242256 4.186262-1.030851-0.703996-0.892566-1.873132-1.156565-2.878841 0.967995-2.401129 3.570266-2.979412 5.279971-4.563403zM790.945595 726.624517a6.134823 6.134823 0 0 0 1.420564-4.110835 11.804506 11.804506 0 0 0 6.38625 4.337119l-2.22513 1.948561c-2.86627 1.84799-4.085691-0.515426-5.581684-2.174845z" p-id="4125"></path><path d="M479.85476 819.01143l1.257136-1.332564a1.810276 1.810276 0 0 1 2.250273 0c2.627414 2.790842 2.627414 2.790842-0.113142 5.430826a1.395421 1.395421 0 0 1-2.099417 0.113143l-1.257136-1.156565a3.947407 3.947407 0 0 1-0.037714-3.05484z" p-id="4126"></path><path d="M562.850868 732.910196c2.627414 0.289141 3.356553 2.03656 3.306267 4.34969l-1.257135 1.257136a3.909692 3.909692 0 0 1-3.079983 0l-0.980566-0.540569c-1.257136-1.257136-0.817138-2.602271-0.175999-3.947406z" p-id="4127"></path><path d="M818.527156 739.371874c-0.088 1.030851-0.163428 2.074274-0.251427 3.117697-1.671991-1.822847-4.940544-1.257136-5.983967-4.035406-0.138285-0.18857-0.27657-0.377141-0.427426-0.55314a2.325701 2.325701 0 0 1 1.583991-2.765699 7.718814 7.718814 0 0 1 5.078829 4.236548z" p-id="4128"></path><path d="M846.083573 748.938678a5.493684 5.493684 0 0 1-1.030851 4.236548 3.318839 3.318839 0 0 1-3.117697 0.263998l-1.395421-1.395421a3.356553 3.356553 0 0 1 0.226285-3.142839c1.822847-1.973703 3.595409-1.935989 5.317684 0.037714z" p-id="4129"></path><path d="M456.836603 765.080302a3.092554 3.092554 0 0 1 0-4.651403c1.370278-1.445706 2.86627-0.703996 4.26169 0.163428a3.381695 3.381695 0 0 1-0.138285 4.211405h0.062857c-1.345135 1.043423-2.77827 0.540568-4.186262 0.27657z" p-id="4130"></path><path d="M425.106494 764.866589l-1.257136 1.257136a3.771408 3.771408 0 0 1-3.092554-0.088l-1.257136-1.257136a2.187416 2.187416 0 0 1 0.251427-3.130268 3.871978 3.871978 0 0 1 5.141686 0 2.514272 2.514272 0 0 1 0.213713 3.218268z" p-id="4131"></path><path d="M449.193217 764.766018c-1.772562 1.081137-3.545123 1.973703-5.380542 0.113142a2.841127 2.841127 0 0 1 0-3.205696c2.262845-1.860561 4.148548-1.48342 5.669683 0.967994a1.445706 1.445706 0 0 1-0.289141 2.12456z" p-id="4132"></path><path d="M680.58164 765.771727l-3.14284 0.314284-1.257136-1.257136a3.494838 3.494838 0 0 1 0.075429-3.117697l1.181707-1.131422c1.10628-0.729139 2.162274-0.942852 3.029698 0.364569 1.659419 1.558848 1.370278 3.180554 0.113142 4.827402z" p-id="4133"></path><path d="M443.800104 761.673464v3.205696c-2.31313 1.407992-4.965687 0.201142-7.366816 0.967995 0.100571-1.407992 0.213713-2.815984 0.326855-4.211405a22.628445 22.628445 0 0 0 7.039961 0.037714z" p-id="4134"></path><path d="M479.867331 786.112185l1.257136-1.257136a1.75999 1.75999 0 0 1 2.225131 0c1.357707 0.967995 2.702842 2.162274 1.508563 3.859407s-3.105126 2.074274-4.927973 0.502854a3.871978 3.871978 0 0 1-0.062857-3.105125z" p-id="4135"></path><path d="M481.137039 866.870591l-1.257136-1.257136a4.148548 4.148548 0 0 1 0.075428-3.079983l1.257136-1.257135a1.508563 1.508563 0 0 1 2.149702 0.075428c2.677699 2.715413 2.677699 2.715413 0 5.443398a1.75999 1.75999 0 0 1-2.22513 0.075428z" p-id="4136"></path><path d="M484.292449 883.766497c0.854852 1.332564 1.684562 2.753127 0.201142 4.098263a2.916555 2.916555 0 0 1-4.487975 0 3.255982 3.255982 0 0 1-0.062857-3.130269l1.19428-1.257135a2.250273 2.250273 0 0 1 3.15541 0.289141z" p-id="4137"></path><path d="M680.58164 750.107814l-3.155411-0.314284a8.171383 8.171383 0 0 1 0-6.046823 2.074274 2.074274 0 0 1 3.218268 0 9.403376 9.403376 0 0 1-0.062857 6.361107zM822.851703 743.633565a5.92111 5.92111 0 0 0 1.332564-3.14284c2.023989 0.967995 4.249119 1.521134 5.958824 3.079983-0.364569 1.068565-0.716567 2.149702-1.068566 3.218268-2.137131-0.942852-4.450261-1.521134-6.222822-3.155411z" p-id="4138"></path><path d="M479.917617 829.596513l1.257136-1.194279c0.766853-0.540568 1.458278-0.55314 1.986274 0.339427 2.187416 1.257136 2.954269 2.765699 1.156565 4.915401a2.250273 2.250273 0 0 1-3.155411 0.377141l-1.257136-1.345135a4.173691 4.173691 0 0 1 0.012572-3.092555z" p-id="4139"></path><path d="M677.426229 782.64249a7.806814 7.806814 0 0 1 0-5.971396 2.12456 2.12456 0 0 1 3.193125-0.18857 9.818231 9.818231 0 0 1 0 6.486821 2.049131 2.049131 0 0 1-3.193125-0.326855z" p-id="4140"></path><path d="M314.654539 745.934123l-1.345135-1.257136a10.73594 10.73594 0 0 1 0.427426-2.514271 2.514272 2.514272 0 0 1 3.369124-1.470849 2.338273 2.338273 0 0 1 1.671991 3.193125 12.068504 12.068504 0 0 1-0.82971 1.847989l-0.150856 0.113143a3.545123 3.545123 0 0 1-3.14284 0.087999z" p-id="4141"></path><path d="M680.657068 743.734135h-3.218268c-2.514272-2.22513-2.514272-2.22513 0-4.663974a2.715413 2.715413 0 0 1 3.268553 0 3.155411 3.155411 0 0 1-0.050285 4.663974z" p-id="4142"></path><path d="M778.374237 714.053158l-2.049131 2.049132c-2.514272 0.088-4.311976-0.578282-4.500547-3.444553l1.169137-1.885703c2.489129-0.088 3.419409 2.426272 5.380541 3.281124zM336.943557 753.351225c2.162274 0.113142 4.286833 0.113142 5.342828-2.325702 1.118851-0.477712 2.237702-1.257136 3.369124 0 1.433135 1.521134 0.389712 2.916555-0.263999 4.337119-2.463986-2.338273-5.933681-0.075428-8.447953-2.011417z" p-id="4143"></path><path d="M485.285587 722.023399a2.514272 2.514272 0 0 1-2.86627 2.250274 2.338273 2.338273 0 0 1-2.22513-2.878841 2.275416 2.275416 0 0 1 2.514271-2.061703 2.438844 2.438844 0 0 1 2.577129 2.69027z" p-id="4144"></path><path d="M560.713737 734.066761c0 1.319993 0.113142 2.639985 0.175999 3.959978-1.055994 2.514272-3.255982 2.514272-5.506255 2.401129-0.339427-0.703996-0.678853-1.395421-1.005708-2.099417 1.910846-1.722276 4.663974-2.174845 6.335964-4.26169zM360.401712 754.281505c-0.163428 1.357707-0.326855 2.715413-0.502854 4.07312-1.948561-2.149702-4.965687-0.653711-7.12796-2.074274l1.106279-2.099417c2.199988-1.734847 4.362261-0.238856 6.524535 0.100571zM503.576913 753.21294c-0.113142 1.081137-0.226284 2.162274-0.326855 3.255981-1.433135 2.426272-4.249119 1.935989-6.285679 3.017127 0.088-1.055994 0.18857-2.12456 0.27657-3.180554 1.785133-1.659419 4.110834-2.275416 6.335964-3.092554z" p-id="4145"></path><path d="M680.631925 776.482524l-3.193125 0.18857c-1.521134-1.093708-3.004555-2.212559-0.917709-4.110834a7.178246 7.178246 0 0 1 5.028543 0 4.927973 4.927973 0 0 1-0.917709 3.922264z" p-id="4146"></path><path d="M482.771315 686.471598c1.558848 0.201142 2.627414 1.01828 2.514272 2.652556a2.363415 2.363415 0 0 1-2.841127 2.275416 2.262845 2.262845 0 0 1-2.237702-2.363415c-0.125714-1.671991 0.942852-2.401129 2.564557-2.564557z" p-id="4147"></path><path d="M376.995905 760.466613c0.088-1.01828 0.163428-2.023989 0.251428-3.042268 2.162274 0.477712 4.575974 0.201142 6.285679 2.099417v2.149702a5.506255 5.506255 0 0 1-6.537107-1.206851zM434.333871 787.658462a2.426272 2.426272 0 0 1-2.250273 2.426272 2.451415 2.451415 0 1 1 0-4.865116 2.426272 2.426272 0 0 1 2.250273 2.438844zM526.632785 747.882684v2.199987c-1.030851 3.017126-4.450261 2.375987-6.28568 4.110835v-4.135977c1.860561-1.382849 4.362261-0.930281 6.28568-2.174845zM481.124467 834.034203l3.155411-0.377141v6.637677a2.074274 2.074274 0 0 1-3.155411-0.301712 8.007955 8.007955 0 0 1 0-5.958824z" p-id="4148"></path><path d="M484.317592 807.395494a2.903984 2.903984 0 0 1 0 4.047978 2.401129 2.401129 0 0 1-3.193125 0.289141c-2.438844-2.338273-2.438844-2.338273 0-4.588546a2.287987 2.287987 0 0 1 3.193125 0.251427z" p-id="4149"></path><path d="M508.982597 756.330637c-0.088-1.043423-0.175999-2.074274-0.276569-3.117697a5.405684 5.405684 0 0 1 6.285679-1.131423l0.113142 1.118851c-1.219422 2.690271-3.658265 2.916555-6.122252 3.130269zM532.264753 749.969529c-0.075428-1.043423-0.150856-2.086845-0.213713-3.130268 1.533706-2.03656 4.601117-1.093708 6.122252-3.155411l0.113142 3.218268c-1.319993 2.350844-4.110834 1.860561-6.021681 3.067411zM680.669639 739.120447h-3.268553a7.95767 7.95767 0 0 1 0-5.895967l3.14284-0.326856c0.062857 2.049131 0.100571 4.135977 0.125713 6.222823zM395.312375 760.655184l-0.150857 2.099417c-2.388558 1.772562-4.274262 0.515426-6.10968-1.005709l-0.301713-3.230839c2.061703 1.10628 4.575974 0.791996 6.56225 2.137131z" p-id="4150"></path><path d="M484.317592 774.458535a3.130268 3.130268 0 0 1 0 4.16112 2.577128 2.577128 0 0 1-3.218268 0.27657c-2.401129-2.388558-2.401129-2.388558 0-4.651403a2.31313 2.31313 0 0 1 3.218268 0.213713z" p-id="4151"></path><path d="M484.330164 873.143699a3.017126 3.017126 0 0 1 0 4.098263 2.401129 2.401129 0 0 1-3.193125 0.238856c-2.438844-2.287987-2.438844-2.287987 0-4.62626a2.438844 2.438844 0 0 1 3.193125 0.289141z" p-id="4152"></path><path d="M549.160659 741.509005a1.257136 1.257136 0 0 1 0.691425 1.181708c-1.621705 1.747419-3.959978 2.074274-5.971396 3.042268l-1.01828-3.268553c1.910846-1.521134 3.88455-2.702842 6.298251-0.955423z" p-id="4153"></path><path d="M481.14961 839.993027l3.155411 0.301712a2.954269 2.954269 0 0 1 0 4.060549 2.438844 2.438844 0 0 1-3.193125 0.263999c-2.413701-2.338273-2.413701-2.338273 0.037714-4.62626z" p-id="4154"></path><path d="M484.317592 774.458535l-3.180553-0.213713a8.23424 8.23424 0 0 1 0-5.996538l3.15541-0.37714z" p-id="4155"></path><path d="M484.330164 796.420699c1.75999 1.986275 0.842281 3.419409-0.967995 4.651402a1.772562 1.772562 0 0 1-2.22513 0l-1.257136-1.257136c-0.27657-1.068565-0.641139-2.162274 0.339426-3.092554 1.29485-1.194279 2.665128-0.955423 4.110835-0.301712z" p-id="4156"></path><path d="M491.571266 756.380922c0 1.055994 0.113142 2.12456 0.163428 3.193125-2.061703 1.370278-4.123406 2.074274-6.185109 0a2.187416 2.187416 0 0 1-0.213713-1.01828c1.634277-1.910846 3.997692-1.75999 6.235394-2.174845zM473.820508 761.686035l-0.339427-1.961132c1.835418-1.923418 4.362261-0.27657 6.373679-1.257136 0.062857 1.055994 0.113142 2.111988 0.163428 3.167983-2.061703 0.414855-4.135977 1.772562-6.19768 0.050285z" p-id="4157"></path><path d="M485.210159 743.583279c0 1.533706-0.879995 2.149702-2.287988 2.225131s-2.514272-0.289141-2.765698-1.785133a2.03656 2.03656 0 0 1 1.94856-2.514272 2.514272 2.514272 0 0 1 3.105126 2.074274z" p-id="4158"></path><path d="M485.285587 677.948217c-0.088 1.697133-1.169136 2.149702-2.514272 2.149702s-2.514272-0.439998-2.514272-2.011417a2.049131 2.049131 0 0 1 2.174845-2.388558 2.514272 2.514272 0 0 1 2.853699 2.250273z" p-id="4159"></path><path d="M481.137039 877.480818l3.193125-0.238856c-0.892566 2.174845 0.515426 4.362261 0 6.549678l-3.155411-0.263999a8.297097 8.297097 0 0 1-0.037714-6.046823z" p-id="4160"></path><path d="M485.210159 710.960604c-0.201142 1.646848-1.257136 2.049131-2.627414 2.03656s-2.413701-0.628568-2.514272-2.149702a2.03656 2.03656 0 0 1 2.287987-2.275416 2.514272 2.514272 0 0 1 2.853699 2.388558z" p-id="4161"></path><path d="M483.299312 861.376907l-2.149702-0.075428-0.942852-6.361107c1.508563-1.156565 2.916555-1.257136 4.186262 0.351998-1.118851 1.898275 0.817138 4.337119-1.093708 6.084537z" p-id="4162"></path><path d="M484.39302 855.29237l-4.186262-0.351998c-0.967995-0.930281-0.615997-2.023989-0.351998-3.092554l1.257136-1.332564a2.22513 2.22513 0 0 1 3.142839 0.377141c1.030851 1.445706 1.558848 2.916555 0.138285 4.399975z" p-id="4163"></path><path d="M484.279878 850.94268l-3.142839-0.377141a8.033098 8.033098 0 0 1 0-5.946252l3.193125-0.263999c-0.892566 2.187416 0.515426 4.399975-0.050286 6.587392z" p-id="4164"></path><path d="M482.306175 735.17304a2.137131 2.137131 0 0 1-2.174845-2.426272c0.100571-1.546277 1.257136-2.049131 2.514272-2.049131s2.514272 0.46514 2.514271 2.061703-1.257136 2.338273-2.853698 2.4137z" p-id="4165"></path><path d="M677.426229 782.64249l3.180554 0.326855 0.917709 1.01828a1.961132 1.961132 0 0 1 0 3.079983V786.967037a8.674237 8.674237 0 0 1-5.028544 0v0.088c-1.068565-0.905138-0.666282-1.998846-0.37714-3.079983z" p-id="4166"></path><path d="M481.137039 811.732613l3.193125-0.289141c-1.030851 1.986275 0.854852 4.412547-0.955424 6.285679h-2.237701a8.033098 8.033098 0 0 1 0-5.996538zM484.330164 873.143699l-3.205697-0.289141a8.259382 8.259382 0 0 1 0-5.983967h2.212559c1.860561 1.810276-0.037714 4.324547 0.993138 6.273108zM680.481069 760.919182l-3.029697-0.364569c-0.289141-1.747419-1.345135-3.494838 0-5.242256l3.029697-0.351999a8.799951 8.799951 0 0 1 0 5.958824zM460.909723 764.803732c0-1.407992 0.088-2.815984 0.138285-4.211405 2.287987-0.817138 4.43769-0.842281 6.285679 1.043423 0 0.351998 0 0.716567 0.062857 1.081137-1.835418 1.747419-4.81483-0.100571-6.486821 2.086845zM481.124467 778.896225l3.218268-0.27657c-1.01828 1.961132 0.817138 4.387404-0.980566 6.285679h-2.22513a8.058241 8.058241 0 0 1-0.012572-6.009109zM481.137039 801.097244h2.22513c1.797704 1.885704 0 4.311976 0.955423 6.285679l-3.167982-0.251427a8.297097 8.297097 0 0 1-0.012571-6.034252zM419.776238 761.736321c-0.088 1.043423-0.163428 2.086845-0.251427 3.130268-1.583991 0-3.343981 1.747419-4.701688-0.414855a1.898275 1.898275 0 0 1-0.201142-1.48342c1.043423-2.111988 3.004555-1.093708 4.62626-1.257136a2.514272 2.514272 0 0 1 0.527997 0.025143zM371.728506 757.348917c0 1.068565-0.088 2.12456-0.138285 3.193125-0.703996-0.364569-0.879995-1.810276-2.061703-1.10628s-1.973703 0.74171-2.627413-0.490283a2.12456 2.12456 0 0 1 0.314284-2.514272 1.835418 1.835418 0 0 1 2.77827-0.326855zM484.330164 796.420699l-4.16112 0.351998a7.932527 7.932527 0 0 0 0.314284-3.079983 1.961132 1.961132 0 0 1 2.363415-2.149703c1.370278 0.125714 1.596563 1.257136 1.257136 2.350845a3.431981 3.431981 0 0 0 0.226285 2.526843zM329.400742 749.79353c0.427426-0.993137 0.854852-1.998846 1.257136-3.004554h1.005709c1.382849 0 2.828556 0.113142 2.941698 1.961131 0.125714 2.187416-1.508563 2.262845-3.079983 2.338273-0.326855-1.005709-1.84799-0.113142-2.12456-1.29485zM483.123313 828.741661l-1.986274-0.289141c-1.332564-1.722276-0.238856-3.419409 0-5.141686l2.099416-0.113142a4.362261 4.362261 0 0 1-0.113142 5.543969zM449.193217 764.766018c0.113142-0.703996 0.213713-1.407992 0.326855-2.12456 1.319993-0.540568 2.199988-2.514272 4.035406-1.257135a1.495992 1.495992 0 0 1 0.603425 1.810275c-0.754282 1.84799-2.388558 1.659419-3.934835 1.634277-0.351998-0.012571-0.691425-0.050285-1.030851-0.062857zM677.451372 722.438254l3.05484-0.301712a12.382788 12.382788 0 0 0 0.364569 1.533705c0.427426 1.257136 0.930281 2.577128-0.905138 2.853699s-3.24341-0.163428-2.790841-2.514272c0.100571-0.527997 0.18857-1.043423 0.27657-1.57142z" p-id="4167"></path><path d="M618.076846 703.317218a7.542815 7.542815 0 0 1 0.477711-1.94856 1.634277 1.634277 0 0 1 2.137131-0.842281 1.659419 1.659419 0 0 1 1.10628 2.023988 1.709705 1.709705 0 0 1-1.873133 1.38285 8.799951 8.799951 0 0 1-1.910846-0.691425z" p-id="4168"></path><path d="M405.746602 762.968314a1.48342 1.48342 0 0 1-1.257136 1.546277c-1.068565 0.175999-1.596563-0.515426-1.709705-1.420564-0.138285-1.10628 0.18857-2.162274 1.495992-2.199987 0.942852-0.025143 1.445706 0.729139 1.470849 2.074274zM575.54794 824.203401a9.466233 9.466233 0 0 1 3.670837-3.60798c1.143994 1.885704-0.527997 3.193125-0.427426 4.726831zM591.563851 817.741722l-4.62626-1.458277c1.169136-2.074274 3.029697-1.382849 4.588546-1.546277zM770.71828 707.201768a7.731385 7.731385 0 0 0-4.060549 1.433135c-1.181708 0-2.401129 0.100571-3.230839-1.005709 1.357707-0.150856 2.790842-0.175999 3.05484-2.011417z" p-id="4169"></path><path d="M836.529341 746.73869a2.652557 2.652557 0 0 1 3.218268 2.137131 1.810276 1.810276 0 0 1-0.980566 1.081137 3.255982 3.255982 0 0 1-3.268553-1.081137c-0.729139-1.156565 0.527997-1.458278 1.030851-2.137131z" p-id="4170"></path><path d="M573.423381 814.888024a4.085691 4.085691 0 0 1 3.469695 1.395421 9.868516 9.868516 0 0 1-4.475404 1.495991c0.339427-0.967995 0.678853-1.898275 1.005709-2.891412zM585.152458 824.253686c-0.150856-0.301713-0.301713-0.603425-0.439997-0.905138-0.339427-0.754282-0.980566-1.747419-0.238856-2.287987 1.143994-0.842281 1.634277 0.55314 2.300558 1.156565a3.771408 3.771408 0 0 1 0.540569 0.82971 2.438844 2.438844 0 0 1-2.162274 1.20685zM487.548431 900.662403a4.663974 4.663974 0 0 1-2.77827 3.482266 7.806814 7.806814 0 0 1 1.508563-4.890259zM587.11359 809.243484c-0.263999 1.257136-1.156565 1.986275-2.690271 3.05484a8.799951 8.799951 0 0 1 1.75999-5.103971 2.790842 2.790842 0 0 0 0.930281 2.049131zM486.32901 916.92974c-1.181708-1.357707-1.257136-3.079983-2.149703-5.305113 1.910846 0.804567 2.77827 1.546277 3.067412 2.916555-0.301713 0.791996-0.615997 1.583991-0.917709 2.388558zM476.825063 915.433749a5.242256 5.242256 0 0 1 3.130268-2.6777 10.434227 10.434227 0 0 1-1.810276 5.204543 3.494838 3.494838 0 0 0-1.319992-2.526843zM732.513921 708.622331v6.348536a5.103972 5.103972 0 0 1 0-6.348536zM474.788503 907.136652c0.892566 0 2." p-id="4171"></path></svg>