<?xml version="1.0" standalone="no"?><!DOCTYPE svg PUBLIC "-//W3C//DTD SVG 1.1//EN" "http://www.w3.org/Graphics/SVG/1.1/DTD/svg11.dtd"><svg t="1651275972944" class="icon" viewBox="0 0 2121 1024" version="1.1" xmlns="http://www.w3.org/2000/svg" p-id="3046" xmlns:xlink="http://www.w3.org/1999/xlink" width="414.2578125" height="200"><defs><style type="text/css">@font-face { font-family: feedback-iconfont; src: url("//at.alicdn.com/t/font_1031158_u69w8yhxdu.woff2?t=1630033759944") format("woff2"), url("//at.alicdn.com/t/font_1031158_u69w8yhxdu.woff?t=1630033759944") format("woff"), url("//at.alicdn.com/t/font_1031158_u69w8yhxdu.ttf?t=1630033759944") format("truetype"); }
</style></defs><path d="M65.833161 340.075384A183.656602 183.656602 0 0 0 96.278831 267.320782c6.675795-37.280412 2.268614-73.780536-8.034073-109.746018C72.653454 103.171372 46.036974 54.128846 13.438288 8.149671 11.559818 5.433114 9.074457 3.077801 6.849192 0.505742c2.225265-1.213781 3.453496 0 5.04297 1.27158q98.099502 80.673077 196.357952 161.172757a14.738767 14.738767 0 0 1 5.548713 8.669863c10.11484 45.097738 26.992174 87.233274 55.559373 124.036843 34.303759 44.187403 78.187716 74.069531 132.648907 87.926863 1.618374 0.404594 3.222299 0.910336 6.950341 1.965169-9.695797 1.300479-17.339726 2.210815-25.084805 3.395696-41.702042 6.401249-80.918723 20.822121-118.849374 38.537542-4.797324 2.225265-5.996655 1.444977-7.773978-3.17895-8.973308-23.235233-20.229681-45.300035-36.962517-63.98359-33.494572-37.439359-74.690872-47.453051-122.33177-33.321174a210.301982 210.301982 0 0 0-32.121843 13.077043z" p-id="3047"></path><path d="M115.208032 334.194327Q80.340732 535.234005 45.386734 736.707176H517.301838c8.756562 0 8.669863 0 7.109288 8.669864-1.228231 6.603546-2.731007 13.192642-3.381247 19.853986-0.419043 4.334932-2.442011 5.187468-6.068904 4.768425a27.25227 27.25227 0 0 0-2.889954 0q-252.423067 0-504.831685 0.144498c-6.704694 0-8.048523-1.199331-6.791393-8.091873q21.833606-119.933108 42.988072-239.866215 14.782117-83.02839 29.361936-166.172378c1.054833-6.112254 3.670242-9.218955 9.50795-11.733215 10.360487-4.46498 21.140016-7.239336 32.902131-10.085941z" p-id="3048"></path><path d="M1680.508485 120.005357a443.795848 443.795848 0 0 0-42.019937 68.665316c-16.978482 34.8384-29.434186 70.933931-30.705765 110.150612-0.968135 29.80988 5.67876 57.640141 21.848055 82.956141 1.28603 2.008518 2.600959 4.002587 4.175984 6.430149-3.280098 0.63579-5.216368-1.444977-7.383833-2.427562-39.92472-19.145948-77.869821-14.811016-107.75195 12.845848-13.423838 12.426804-22.671692 27.91696-30.243373 44.418599a86.698632 86.698632 0 0 0-5.331966 12.571301c-1.343829 4.797324-3.395696 4.204884-6.97924 2.485361a352.285442 352.285442 0 0 0-88.143609-28.364902c-6.603546-1.228231-13.380489-1.444977-20.056284-2.283064-2.022968-0.231196-4.40718 0.520192-6.068904-2.066318 38.826537-8.323069 71.59862-27.22337 98.605244-55.862818 28.899544-30.691316 46.036974-67.639383 55.588273-108.37329 1.28603-5.476464 3.005553-10.028142 7.745078-13.900681q76.583792-62.466364 152.864138-125.380672c0.968135-0.765838 1.690623-2.340863 3.858089-1.86402z" p-id="3049"></path><path d="M1081.23309 655.918501c-34.419357 42.121085-89.920931 45.849127-122.245071 31.962896-24.160019-10.389386-37.742805-29.593133-40.705008-55.313728-6.198952-53.912099 31.240407-106.928313 83.953176-118.791575 25.633896-5.779909 51.007695-4.42163 73.231444 11.559817 22.946238 16.48719 29.607583 40.459362 27.974759 67.393737-0.332345 5.505363-1.560575 10.952927-1.90737 16.443841s-2.889954 6.95034-8.308619 6.92144c-41.904339-0.231196-83.808678-0.130048-125.713016-0.115598-8.539815 0-8.929959 0.505742-7.340484 9.074457 3.352347 18.076665 18.38011 29.983277 38.335245 30.792464a67.624933 67.624933 0 0 0 44.490848-13.842881c3.323448-2.499811 5.779909-2.889954 9.50795-0.780288 9.276754 5.115219 18.813603 9.666897 28.726146 14.695418zM214.88256 689.254125c-33.537921 0.202297-59.56196-6.661345-80.138436-28.191505-18.047765-18.885852-24.795809-41.81764-23.726526-67.335938 1.444977-34.477156 13.828432-64.344835 37.569408-89.689735 38.378594-41.051802 102.810128-55.472675 150.84117-33.234475a96.712324 96.712324 0 0 1 36.211128 29.044042c2.51426 3.251199 2.889954 5.173018-0.809187 7.990723-9.031108 6.776943-17.700971 14.045178-26.443083 21.212266-2.427562 1.994069-3.959238 3.308998-6.820292-0.101149-26.255236-31.457154-63.810193-33.624619-92.753087-21.053317-35.647588 15.490156-57.495643 50.6898-54.909133 87.796814 1.979619 28.899544 24.376765 50.299656 54.360042 52.943965 28.133706 2.485361 51.816882-7.369384 73.231445-24.564612 7.672829-6.141153 7.730628-6.068904 14.016278 1.89292 4.753975 6.040005 9.421251 12.181158 14.319725 18.105564 2.167466 2.600959 1.994069 4.017037-0.722489 6.256751-28.783946 23.842124-60.472296 40.213716-94.226963 38.927686z" p-id="3050"></path><path d="M554.5678 769.927202c5.288617-11.054076 10.11484-21.154466 14.926615-31.254857a3.439046 3.439046 0 0 1 3.525744-1.950719h587.021988c9.117806 0 9.175605 0 8.048523 8.742112-0.866986 6.675795-2.196365 13.30824-2.687658 19.998485-0.303445 4.017037-2.124116 4.811774-5.476463 4.493879-1.199331-0.101148-2.413112 0-3.612443 0H554.5678z" p-id="3051"></path><path d="M454.922172 512.143269c55.024732 0 88.490404 47.294104 72.046564 101.683046a111.089847 111.089847 0 0 1-110.28066 79.473746c-38.913236-1.141532-68.679766-32.367489-69.72015-71.266275-1.762872-66.497851 62.495264-112.982767 107.954246-109.890517zM524.700121 807.308762c3.236749-20.403078 6.430149-40.806156 9.724697-61.194784 11.863263-73.332593 23.871023-146.636286 35.48864-219.997779 1.098183-6.95034 3.135601-9.869194 10.591683-9.175605a173.585111 173.585111 0 0 0 24.564612 0c4.869573-0.245646 6.329 1.199331 5.201918 5.895507-0.60689 2.499811-1.791772 5.028521-0.866986 8.135221 9.854745-6.661345 19.579441-13.32269 31.312656-15.981447a56.224063 56.224063 0 0 1 27.151121 0c20.735423 5.505363 31.327106 23.567578 27.26672 48.13219-6.762493 41.022903-14.247475 81.915758-21.400112 122.823062-0.505742 2.889954-1.444977 4.797324-4.970722 4.710626q-14.088528-0.303445-28.162605 0c-3.930338 0-4.031486-1.444977-3.424596-4.768425q8.727662-49.230373 17.10853-98.619694a122.606316 122.606316 0 0 0 1.921819-19.391594c0.130048-15.20116-10.649482-23.625377-25.388249-19.709489-17.570923 4.652827-26.64538 17.75877-30.41677 34.303759-4.638377 20.359729-7.918475 41.022903-11.675416 61.584928q-3.886989 21.284514-7.383833 42.612378c-0.66469 3.959238-3.005553 7.051489-4.580578 10.504984q-24.376765 53.464156-48.970277 106.928313c-0.577991 1.24268-1.184881 2.485361-1.777322 3.713591z" p-id="3052"></path><path d="M465.745052 236.831763c4.334932 27.989208 8.583165 55.992867 13.192641 85.990594l18.683556-36.268928q17.643172-34.289309 35.228544-68.593068c8.669863-17.12298 17.339726-34.260409 25.836192-51.527887 2.138566-4.334932 4.508329-6.574646 9.782496-6.31455 10.331587 0.476842 20.692074 0.231196 31.03811 0.101148 3.973687 0 5.418665 0.895886 3.337897 4.912923q-18.120014 34.85285-36.12443 69.792398c-0.881436 1.705073-1.90737 3.337897-2.774356 5.042971q-25.821743 50.790949-51.614585 101.581897-24.564612 48.16109-49.47602 96.163233c-0.65024 1.25713-1.444977 2.442011-3.1356 5.317516l-47.279654-191.748475a29.491985 29.491985 0 0 1 12.556851-6.632445c10.187089-2.673208 20.128532-6.068904 30.098876-9.377902 3.858089-1.28603 7.484982-1.632824 10.649482 1.560575z" p-id="3053"></path><path d="M718.023621 619.114932c0.823637-51.730184 43.421565-99.009838 95.643041-106.364772 18.38011-2.586509 36.471225-2.080767 53.984348 4.537228a66.353353 66.353353 0 0 1 34.679453 29.087391c2.095217 3.540194 2.268614 5.490913-2.080767 7.528332-10.432735 4.884023-20.562026 10.403836-30.821364 15.649103-2.066317 1.054833-3.626893 2.326413-6.184502-0.158948-21.515711-20.879921-49.692766-23.119635-74.344077-5.779909-19.232647 13.524987-28.003658 32.569786-26.688729 55.906168 1.040384 18.683555 16.024797 32.786533 36.398976 34.679453 19.275996 1.777322 36.818019-2.788806 51.368939-16.125945 3.337897-3.063352 5.418665-3.222299 8.85771-0.231197 6.690244 5.779909 13.727283 11.314171 20.851021 16.646138 3.670242 2.759906 4.334932 4.537228 0.577991 8.120771-21.154466 20.605375-46.542716 30.922512-75.846853 32.006245a107.578553 107.578553 0 0 1-40.459362-5.505363c-28.292654-10.085941-46.441567-37.771704-45.935825-69.994695z" p-id="3054"></path><path d="M993.566324 212.166002h9.377902c13.004795 0.274546 10.504984-1.069283 8.669863 10.259339-5.346416 32.049594-11.343071 63.99804-16.617238 96.062084-1.444977 8.799911-0.780288 17.802119 4.941822 25.474948 9.637998 13.004795 29.434186 9.435701 38.783188 1.329379 11.256372-9.753596 13.97293-23.249683 16.48719-36.644622q8.453117-45.083289 15.808051-90.383324c0.866986-5.230817 3.15005-6.184502 7.61503-6.083354 8.409767 0.173397 16.848434 0 25.272651 0s8.669863 0.693589 7.224886 8.669863q-5.620961 30.662416-10.909578 61.397082c-3.540194 20.533126-6.560196 41.282999-14.59427 60.689042-14.969964 36.023282-47.106257 56.108465-87.999111 50.574202-28.047007-3.915888-43.768359-28.610549-43.76836-52.496021 0-23.42308 4.45053-46.167022 8.149672-69.055461 2.889954-17.455325 6.3579-34.795051 9.045557-52.279275 0.953685-6.155603 3.597993-8.193021 9.5224-7.61503 4.334932 0.419043 8.669863 0.086699 13.004794 0.086699z" p-id="3055"></path><path d="M910.451235 439.085222h389.334657c5.664311 0 9.4935 2.774356 9.594649 8.496466s-3.569094 8.669863-9.262304 8.799911H525.798304c-10.895128 0-15.302309-2.572059-15.157811-8.85771 0.144498-6.025555 4.42163-8.453117 14.825466-8.453117z" p-id="3056"></path><path d="M1301.924458 810.63221q3.294548-19.377144 6.589096-38.783188 12.831398-74.79202 25.677245-149.61294c3.005553-17.455325 5.953306-34.939549 9.392352-52.308174 0.910336-4.551678-0.202297-5.245267-4.334931-5.303067-4.884023 0-11.559818 2.413112-14.117428-1.286029-1.965169-2.889954 0.968135-9.103356 1.733973-13.842882q0.346795-2.124116 0.780288-4.248233c1.054833-5.144119 0.563541-11.660966 3.583543-15.042212 3.251199-3.641343 9.999242-1.025934 15.20116-1.27158 3.106701-0.144498 4.551678-0.866986 5.11522-4.334932 2.673208-17.021831 5.779909-33.956964 8.583164-50.964346 0.708039-4.43608 2.54316-5.924407 7.080388-5.779909 9.363452 0.361244 18.784704 0.447943 28.133707 0 5.505363-0.288995 5.70766 2.095217 4.941822 6.285651-2.991103 16.544989-5.620961 33.162227-8.90106 49.649417-0.939235 4.725075 0.577991 5.331966 4.493879 5.158568 4.566128-0.202297 9.146706 0.072249 13.712834-0.086698 3.280098-0.115598 4.204884 1.025934 3.554644 4.262682-1.777322 8.958859-3.453496 17.932167-4.869574 26.948825-0.534642 3.395696-1.618374 4.797324-5.360865 4.826224-6.141153 0-14.146327-2.889954-17.932167 1.28603s-3.135601 11.689866-4.219333 17.816569q-9.060007 51.455638-18.004416 102.911276a43.349316 43.349316 0 0 1-4.017037 12.181158q-26.168537 52.539371-52.091428 105.22324c-1.127082 2.283064-2.384212 4.493879-3.583544 6.748043z" p-id="3057"></path><path d="M1296.578043 216.74658c7.947375 0 15.894749 0 23.827674-0.231196 4.334932-0.144498 5.505363 1.690623 4.768425 5.66431q-8.279719 45.213337-16.443841 90.426674-6.242302 34.997348-12.108909 70.066944c-0.881436 5.317516-2.658758 7.918475-8.669863 7.586131a288.793143 288.793143 0 0 0-29.593133 0c-6.487948 0.303445-7.571681-2.586509-6.054455-7.788428a17.079631 17.079631 0 0 0 0.809188-7.080388c-3.020002-0.708039-4.334932 1.603925-6.242302 2.889955-23.293032 16.48719-48.522334 21.356763-75.789054 11.935511-14.160777-4.898473-24.70911-14.449772-31.948446-27.642414 5.418665-16.45829 13.409388-30.980311 29.419736-39.592375 2.456461-1.314929 4.43608-1.661724 6.242301 0.823637 2.485361 5.158569 3.959238 10.721731 7.817327 15.331208 12.007761 14.290825 27.367868 16.328242 43.912857 11.559818 27.945859-8.048523 46.672764-41.81764 39.592375-70.081394a33.653519 33.653519 0 0 0-32.425288-25.937341c-5.201918-0.173397-10.620582 1.314929-15.547955-1.632824-2.181916-7.470532-0.881436-10.11484 6.198953-12.354556 15.244509-4.941822 36.008832 1.27158 46.123672 13.770633 2.759906 3.410146 5.635411 6.733594 10.77953 5.635411s7.138187-5.10077 8.149671-9.825845a47.019558 47.019558 0 0 0 1.27158-14.233025c-0.66469-7.210436 0.823637-13.900681 5.909957-19.290446z" p-id="3058"></path><path d="M1126.085183 624.042304c0.751388-13.149293 4.074836-25.908441 6.126703-38.855437 3.308998-20.952169 7.62948-41.730942 10.996277-62.668661 0.910336-5.664311 3.337897-7.138187 8.554265-6.921441 7.672829 0.303445 15.389007 0 23.119635 0.086699 8.25082 0 8.583165 0.433493 6.719144 8.742112a4.334932 4.334932 0 0 0 0.491292 3.959237c6.011105-3.597993 11.632066-7.947375 18.120014-10.822879 36.355626-16.111496 74.575273-1.87847 85.253655 36.384526a42.077736 42.077736 0 0 1 1.040384 9.233404c1.24268 15.374557 3.439046 16.617238-14.449772 20.547576-7.643929 1.676174-14.811016 5.779909-23.018487 4.623927-2.095217-1.777322-1.92182-4.334932-2.080767-6.632445-0.852537-12.614651-4.334932-23.943272-17.065181-29.390837-13.756183-5.895507-26.847676-3.265648-38.913236 4.956272-20.90882 14.233025-28.249304 42.814674-17.166329 63.752394a5.476464 5.476464 0 0 1 0.476842 2.095217c-1.141532 3.973687-4.42163 3.930338-7.57168 3.959238-6.126703 0-11.978861 0.751388-16.848434 5.115219a7.687279 7.687279 0 0 1-7.499432 1.444977 55.024732 55.024732 0 0 0-11.371971-1.90737c-5.014071-0.288995-6.95034-2.788806-4.912922-7.701728z" p-id="3059"></path><path d="M1126.085183 624.042304a12.629101 12.629101 0 0 0 0.549091 4.190434c0.895886 1.733973 20.778772 4.190434 22.035902 2.644308 5.08632-6.285651 12.080009-5.866607 18.958101-5.592062 2.600959 0.101148 4.768425 0 6.112254-2.51426 2.54316-1.141532 4.175984 0.66469 5.592062 2.109667 10.533884 10.620582 31.890647 9.002208 43.493813 0.751388 10.952927-7.788427 18.625756-17.72987 22.021453-30.893613 0.65024-2.51426 0.086699-5.996655 3.82919-6.92144l29.983277-7.571681c6.34345-1.589475 9.074457-5.433114 7.831776-12.02221a24.564612 24.564612 0 0 1 0-5.042971c3.395696 9.450151 1.603925 19.059249-0.303445 28.263754-7.224886 34.679453-26.341934 60.689042-59.720908 73.982833-22.642793 9.060007-44.707595 7.62948-63.723495-9.811395-3.15005-2.889954-4.334932-2.051868-4.898472 1.777322-3.323448 19.998484-6.820292 39.968069-10.042592 59.995453-0.592441 3.684692-2.384212 4.869573-5.779909 4.840674-9.623548 0-19.261546-0.101148-28.899544 0-4.204884 0-4.884023-2.153016-4.334931-5.548713 5.07187-28.177055 10.11484-56.354111 15.331208-84.516716 0.62134-2.687658-0.722489-5.909957 1.965169-8.120772z" p-id="3060"></path><path d="M751.286996 233.421617a59.012869 59.012869 0 0 1 18.784704-16.617238c13.770633-7.58613 27.353418-4.884023 41.022903 0 2.629859 0.924785 3.092251 2.586509 1.835121 5.07187q-7.224886 14.131877-14.261925 28.336003c-1.25713 2.54316-2.889954 2.54316-5.331966 1.676174-3.82919-1.343829-7.788427-2.369763-11.747665-3.352347-9.724697-2.384212-16.573888 0.202297-22.339347 8.409767-8.482016 12.094459-11.863263 26.125188-14.449772 40.285964-5.548712 30.344521-10.736181 60.689042-15.89475 91.033564-0.63579 3.742491-2.586509 4.710626-5.909956 4.696176-9.854745 0-19.723939-0.173397-29.578684 0-4.334932 0.072249-5.519813-1.864021-4.811774-5.779909 4.609477-25.35935 9.305653-50.7187 13.770633-76.106949q7.658379-43.349316 14.941064-86.81423c1.444977-8.279719 9.031108-10.77953 17.339727-5.173019 2.54316 1.705073 3.81474 3.944788 6.256751-0.62134 2.066317-3.872539 7.224886-2.297514 10.533884-1.444977 3.699142 1.011484 0.881436 4.334932 0.823637 6.733594-0.187847 3.106701-2.745457 5.794359-0.982585 9.666897z" p-id="3061"></path><path d="M1348.785069 390.143844c-4.334932 0-8.669863-0.303445-13.004795 0-5.592062 0.476842-6.603546-2.225265-5.779909-6.92144 5.476464-30.171124 10.996277-60.313348 16.357142-90.498923 6.112254-34.419357 12.06556-68.853164 18.091115-103.27252 1.575025-8.973308 3.106701-17.932167 4.725075-26.891026 0.60689-3.424596 2.153016-5.389765 6.271201-5.230817 8.90106 0.317895 17.816569 0.202297 26.717629 0 4.334932 0 5.909957 0.881436 5.014071 5.779908q-12.080009 66.468951-23.639827 132.937903c-5.115219 29.246339-10.013692 58.536026-14.897715 87.825714-0.693589 4.175984-2.167466 6.589096-6.906991 6.242302-4.262683-0.216747-8.612064 0.0289-12.946996 0.028899z" p-id="3062"></path><path d="M1173.538234 323.559295c-6.271201 0.288995-9.898094 5.317516-14.55092 8.366418-7.022589 4.623927-10.331587 12.282306-13.438288 19.65169a56.614207 56.614207 0 0 1-6.444599 10.909578c-9.551299-14.652069-11.993311-30.662416-10.591682-47.929894 1.444977-17.831019 5.982206-34.534955 14.839915-49.923962 18.307861-31.789498 51.845782-56.729805 94.602658-52.235926 15.779151 1.661724 29.029592 9.161155 40.199265 21.674658 1.444977-5.779909 1.444977-11.559818 4.219334-15.446806 3.15005-4.522779 9.377902-1.314929 14.204126-1.892921-6.256751 11.111875-2.239715 23.842124-5.548713 35.488641-1.575025 5.490913-4.161534 8.669863-9.580198 10.273787s-8.669863-1.27158-10.924028-4.869573c-10.317137-16.125946-26.399733-16.530539-42.756876-16.169295-6.329 0.144498-9.190055 3.988137-9.233404 11.386421-0.086699 3.410146-3.1645 3.1645-5.158568 3.988137-25.33045 10.562783-39.390079 32.078494-38.320796 61.570478 0.057799 1.864021 0.361244 3.82919-1.517226 5.158569z" p-id="3063"></path><path d="M465.745052 236.831763c-9.002208-2.398662-16.443841 2.889954-24.449015 5.129669-9.724697 2.745457-19.247096 6.184502-28.899544 9.320103-15.547955-62.13402-31.095909-124.268039-46.990658-187.774787 7.961824 4.725075 11.559818 11.559818 16.48719 16.790635 13.683934 14.449772 26.789877 29.419736 40.155916 44.158503q14.969964 16.516089 30.055526 32.945481c3.453496 3.742491 2.644308 8.669863 3.294548 12.932546 2.673208 17.224128 4.941822 34.491606 8.496466 51.571236 1.054833 4.956272 0.0289 10.100391 1.849571 14.926614z" p-id="3064"></path><path d="M622.785174 390.577338h-6.502398c-12.06556 0-12.06556 0-10.028141-11.559818q13.626135-77.378529 27.194471-154.785958c0.881436-5.05742 2.644308-7.398283 8.279719-6.97924a171.229798 171.229798 0 0 0 23.119635 0c5.779909-0.332345 7.369384 1.155982 6.256751 7.138188-5.779909 31.197058-11.155224 62.451915-16.689486 93.692321-3.944788 22.238199-8.062973 44.447499-11.747665 66.714598-0.751388 4.566128-2.355313 6.198952-6.878091 5.779909s-8.669863 0-13.004795 0z" p-id="3065"></path><path d="M926.476032 264.199632c-3.756941 3.121151-8.22192 1.589475-12.210057 1.314929-7.123738-0.476842-12.759149 0.173397-13.553886 8.87216-0.838087 1.170432-1.618374 2.629859-3.17895 2.731007-7.831776 0.476842-14.709868 4.103735-22.021453 6.329-4.609477 1.444977-8.496466 2.803256-10.952927 7.224886-1.127082 2.008518-2.586509 4.334932-5.66431 2.54316a86.698632 86.698632 0 0 1 3.597993-21.833606c1.127082-4.233783 0-5.577612-4.334932-5.779909-4.898473-0.216747-11.559818 2.456461-14.146327-1.546125-1.90737-2.962203 1.011484-9.016658 1.748423-13.683934 0.115598-0.708039 0-1.444977 0.115598-2.153016 1.040384-5.635411 0.563541-12.354555 3.583543-16.588339 3.453496-4.840674 10.649482-1.444977 16.169295-1.936269 3.294548-0.260096 4.334932-1.358279 4.884023-4.623927 2.644308-16.241544 5.779909-32.396389 8.453117-48.623483 0.852537-5.201918 2.485361-7.571681 8.554265-7.889575 8.85771-0.476842 17.614272 0.953685 26.414183 0.274545 4.334932-0.332345 5.881057 0.997034 4.956272 5.866608-3.048902 16.169295-5.158569 32.511987-8.510916 48.623482-1.25713 6.040005 0.823637 6.574646 5.519813 6.271202 2.629859-0.173397 5.274167 0 7.918475 0.072248 2.037418 4.623927-1.24268 8.207471-2.485361 12.166708a18.784704 18.784704 0 0 1-2.268614 3.670243 19.550542 19.550542 0 0 0-2.311963 12.556851c0.693589 5.346416 6.99369 3.207849 9.724696 6.141154z" p-id="3066"></path><path d="M858.894449 293.185874c10.692831-13.481637 26.529781-15.519055 41.81764-18.784703-2.586509 15.779151-5.129669 31.558302-7.788427 47.337453-3.626893 21.414562-7.499432 42.785775-10.952928 64.229236-0.924785 5.67876-2.283064 9.190055-9.247854 8.583165-7.875126-0.693589-15.894749-0.130048-23.784324-0.173397s-8.669863-1.184881-7.138188-8.91551q3.511295-18.669105 6.921441-37.338211 5.10077-27.469017 10.17264-54.938033z" p-id="3067"></path><path d="M294.775349 105.743432c-1.28603 9.334553-2.673208 18.35121-3.713591 27.454566-0.346795 3.106701-1.618374 4.017037-4.566128 4.017037q-45.126638-0.115598-90.253276 0a7.701728 7.701728 0 0 1-5.288617-1.777322q-16.530539-13.741733-33.133327-27.454567c-0.447943-0.375694-0.62134-1.098183-1.213781-2.167466zM617.539907 156.404332a48.652382 48.652382 0 0 1 6.097803-0.664689c16.328242 0.505742 28.364902-6.271201 35.979933-20.807672a37.569407 37.569407 0 0 1 3.78584-4.884023c3.337897 6.95034 6.589096 13.221541 9.377902 19.709489a13.105943 13.105943 0 0 0 9.074457 8.193021c6.675795 1.936269 13.120393 4.609477 20.807671 7.383833-5.245267 4.985171-9.811395 9.782496-14.883265 14.001829-4.190434 3.511295-6.3579 7.412733-6.097803 13.004795 0.317895 6.690244 0.072249 13.394939 0.072248 21.472361-7.643929-4.074836-14.074078-7.224886-20.22968-10.822879a12.455703 12.455703 0 0 0-11.559818-1.25713c-6.531297 2.340863-13.32269 3.973687-20.720973 6.112254-0.101148-7.730628 2.066317-14.796567 3.453495-21.891405a12.441254 12.441254 0 0 0-2.181915-10.721731c-4.320482-5.881057-8.337518-12.080009-12.975895-18.828053z" p-id="3068"></path><path d="M926.476032 264.199632c-3.034452-0.173397-6.141153 0.708039-9.031107-1.228231-3.525744-2.369763-4.43608-12.643551-0.433493-17.874368 3.626893-4.725075 4.696176-10.244888 6.820292-15.432357 6.300101-1.083733 9.132256 0.375694 7.326034 7.730628-2.167466 8.785461-3.17895 17.859918-4.681726 26.804328z" p-id="3069"></path><path d="M1173.538234 323.559295a66.281104 66.281104 0 0 1 7.224886-40.820606c8.178571-15.374557 21.674658-24.463464 37.757254-29.954377 9.291203 0.361244 18.784704-1.618374 27.772462 2.268614 17.498674 7.484982 25.691695 22.772841 22.613893 45.083289-3.236749 23.495329-15.027763 41.485295-37.482708 50.805398-25.720594 10.678382-52.61162-0.505742-57.885787-27.382318z" p-id="3070"></path></svg>