<?xml version="1.0" standalone="no"?><!DOCTYPE svg PUBLIC "-//W3C//DTD SVG 1.1//EN" "http://www.w3.org/Graphics/SVG/1.1/DTD/svg11.dtd"><svg t="1651275980297" class="icon" viewBox="0 0 1064 1024" version="1.1" xmlns="http://www.w3.org/2000/svg" p-id="3535" xmlns:xlink="http://www.w3.org/1999/xlink" width="207.8125" height="200"><defs><style type="text/css">@font-face { font-family: feedback-iconfont; src: url("//at.alicdn.com/t/font_1031158_u69w8yhxdu.woff2?t=1630033759944") format("woff2"), url("//at.alicdn.com/t/font_1031158_u69w8yhxdu.woff?t=1630033759944") format("woff"), url("//at.alicdn.com/t/font_1031158_u69w8yhxdu.ttf?t=1630033759944") format("truetype"); }
</style></defs><path d="M1064.863986 443.044923q-49.989967 16.489384-99.968338 33.013555c-11.908999 3.954205-23.667252 8.383843-35.587847 12.280068-31.853964 10.436319-63.777503 20.455185-95.619871 30.984271q-103.203597 34.173146-206.186871 68.868108a19.086867 19.086867 0 0 0-9.346303 7.630108c-32.468547 53.236822-64.600813 106.682369-96.988189 160.023555-16.732898 27.52869-33.987611 54.755886-50.732105 82.330959Q415.226335 928.832369 360.342895 1019.848664a27.702628 27.702628 0 0 0-1.669811 4.151336h-6.957546c19.515916-49.329 38.81151-98.762363 58.756474-147.917424 4.093356-10.088441 10.436319-19.295594 16.153103-28.676685Q487.028208 747.936177 547.605241 648.478059q10.436319-17.069179 20.768274-34.138358c1.07842-1.774174 2.04088-3.62952 3.82665-6.795203-6.957546 2.122051-12.535178 3.745479-18.078023 5.589229-14.668826 4.835494-29.291268 9.821736-43.948498 14.668825q-100.988778 33.431008-201.989151 66.79244c-36.063279 11.908999-72.196134 23.609272-108.247818 35.529868-28.178061 9.276728-56.240162 18.959312-84.476202 28.096889a28.989774 28.989774 0 0 1-13.915092 1.008844c-29.117329-5.728379-57.202623-14.587654-82.736815-30.149365-6.540093-3.965801-12.546774-8.812891-18.808566-13.265721l0.649371-1.310338a32.051094 32.051094 0 0 1 3.780267 1.07842A279.333869 279.333869 0 0 0 64.18336 732.861495a16.732898 16.732898 0 0 0 7.746068-0.649371q80.127736-26.543037 160.209089-53.341185 127.694158-42.510605 255.388316-84.974827c32.746849-10.876963 65.598061-21.464029 98.356506-32.3178 19.330382-6.400942 38.567996-13.080186 57.863589-19.597087 2.09886-0.718946 4.255699-1.263954 7.270636-2.133648l-2.319182 6.574881c12.094534-3.038128 23.597676-5.890722 35.089223-8.812891 48.702821-12.430815 97.405642-25.023973 146.270805-37.28085 30.763948-7.722876 61.713432-14.738401 92.488976-22.449681C969.418053 466.155571 1016.253932 454.072633 1063.136195 442.128846a16.744494 16.744494 0 0 1 1.727791-0.243514zM547.141404 449.399481c-5.739975 14.889148-11.062498 28.908603-16.663322 42.823695-0.545008 1.33353-2.713443 2.585888-4.302082 2.840998q-64.18336 10.552278-128.424701 20.872637-59.939257 9.682585-119.878514 19.330382c-14.819573 2.388757-29.662337 4.638364-45.30522 7.14308 0.939269-1.750982 1.495872-3.003341 2.249607-4.128144 8.905659-13.335296 17.695358-26.728572 26.890915-39.855141A12.233685 12.233685 0 0 1 269.025106 493.985754q55.787922-9.392687 111.622227-18.286749c32.468547-5.229755 64.937094-10.297168 97.463621-15.515328 20.513164-3.281642 41.014733-6.714032 61.458321-10.030462 2.110456-0.394261 4.278891-0.45224 7.572129-0.753734zM368.402052 433.350742c5.241351-15.468944 9.868119-29.302864 14.610846-43.113592q24.699288-71.89464 49.549322-143.731301a55.103763 55.103763 0 0 1 6.157428-12.268473c15.468944-23.33097 31.111826-46.534386 46.708325-69.772588a13.694769 13.694769 0 0 1 4.093356-4.313679q-6.783607 19.713047-13.57881 39.530456-37.338829 108.769633-74.619679 217.678418c-1.58864 4.638364-3.873034 7.386594-8.7897 8.627357-7.548937 1.901729-14.981915 4.534001-24.131088 7.363402zM764.657479 354.336213c-11.723465 19.30719-22.507661 37.106911-33.315049 54.871845-17.834509 29.326056-35.611039 58.686899-53.654274 87.896996a13.799133 13.799133 0 0 1-7.282231 5.531249c-12.755501 3.606328-25.62696 6.644456-40.156636 10.331955 3.675903-6.238599 6.470518-11.132073 9.404283-15.944375q37.396809-61.539493 74.979152-122.986219a16.466192 16.466192 0 0 1 8.186713-6.284983c13.242529-4.59198 26.670592-8.615761 41.838042-13.416468zM473.113117 129.282798l4.39485-13.625194-0.765331-0.545008c-3.142492 4.568788-6.076257 9.276728-9.543433 13.625194a17.393865 17.393865 0 0 1-6.957546 5.484865A384.694305 384.694305 0 0 1 349.89498 157.704372c-8.824487 0.521816-17.648975 0.927673-26.496654 1.02044 135.092348-10.958135 241.948656-97.765115 274.823061-144.079178l-56.773574-10.645045c0-4.278891 0.05798-4.371658 4.128144-3.664308Q577.476304 5.797955 609.260693 11.468355l22.380106 3.954205C587.622725 66.247432 535.789009 103.852967 473.113117 129.282798zM572.965495 250.031005q3.107704 23.771615 6.250196 47.54323l1.855345 0.208727a49.178253 49.178253 0 0 0 3.548349-4.870282c10.714621-19.226018 21.498817-38.405653 31.946731-57.770823 2.620676-4.858686 5.797955-8.233096 11.108881-10.053653 6.12264-2.122051 12.001767-4.951453 19.457937-8.117137-5.797955 10.529086-10.876963 19.713047-15.955972 28.989774-11.08569 20.107307-22.1134 40.260999-33.373028 60.298731a11.178457 11.178457 0 0 1-5.658804 5.055816c-32.468547 9.659393-65.076245 19.063676-97.63756 28.537534l-3.478773 1.008844c4.534001-7.282231 8.186712-13.555618 12.326452-19.481128 1.032036-1.472681 3.583136-2.087264 5.554441-2.667059 18.089619-5.392098 36.20243-10.691429 54.303645-16.037143 1.635023-0.475432 3.235259-1.07842 4.638364-1.565448-1.681407-13.648386-3.154087-27.053257-5.067412-40.376958-1.008844-7.015525 5.287735-7.51415 8.035965-11.143669zM300.148527 433.176804c-0.220322 4.151336-0.324685 8.302671-0.684158 12.430815-0.718946 8.209904-1.287146 16.466192-2.574292 24.594924-0.301494 1.890133-2.980149 4.33687-4.997837 4.847091-5.508057 1.414701-11.236437 1.924921-18.79697 3.096108L298.351161 432.527433zM495.725141 303.035909c0.579795 5.206563 1.287146 10.436319 1.600235 15.61969 0.05798 0.904481-1.391509 2.423545-2.446737 2.783019-5.021029 1.704599-10.158017 3.1193-16.663322 5.055816 5.624016-8.836083 10.436319-16.361829 15.190642-23.875978zM560.08244 235.037494l10.436318-4.267295 0.997249 2.446737-10.343552 4.151336z" p-id="3536"></path><path d="M542.10878 883.828643v-22.032228c5.554441-0.684159 11.155265-1.913325 14.923935 3.328026 3.339622 4.638364 3.072916 10.088441 0 14.726805-3.617924 5.368906-9.230344 4.615172-14.923935 3.977397z m3.780266-19.365169v16.732898c6.853183 0.115959 9.705776-2.585888 9.670989-8.73172-0.023192-5.832743-2.794614-8.2215-9.670989-8.001178zM609.944851 870.632498h8.035966c0.602987-3.212067 1.159591-6.169024 1.72779-9.137577l1.924921 0.31309v21.719139l-1.959708 0.405856c-0.51022-3.096108-1.032036-6.18062-1.600236-9.659392h-7.548937c-0.463836 3.235259-0.927673 6.400942-1.379913 9.578221l-1.565448 0.069576a11.271224 11.271224 0 0 1-1.159591-3.246855c-0.162343-5.206563-0.243514-10.436319-0.05798-15.631286 0-1.159591 1.27555-2.226415 1.959709-3.328027a12.396027 12.396027 0 0 1 1.553852 3.17728 41.582932 41.582932 0 0 1 0.069575 5.739975zM487.967477 872.812529c0-6.864779 3.757075-11.456759 9.49705-11.526334s9.601413 4.476021 9.589818 11.375587-3.82665 11.468355-9.520242 11.59591-9.543434-4.499213-9.566626-11.445163z m3.722287-0.127555c0.347877 3.88463 0.405857 8.430226 5.600825 8.615761s5.902318-4.371658 5.948701-8.244692-0.579795-8.522994-5.566036-8.696932-5.566037 4.360062-6.006682 8.325863zM585.744188 884.512802l-8.117137-10.7726-2.029284 10.215996-1.936517-0.301493v-21.753927l1.669811-0.51022q1.008844 4.035377 2.017688 8.117137l8.383843-8.662145 2.574292 1.066824c-10.06525 7.374999-5.797955 14.34414-0.069576 21.29009zM601.479837 863.025581l-7.931602 3.478773c2.075668 1.948113 4.046972 4.023781 6.2386 5.797955 3.409197 2.80621 4.116548 6.018277 1.426296 9.520242-2.446737 3.188875-7.838835 3.084512-12.013362-0.475432 2.319182 0 4.128144 0.324685 5.728379-0.092768s3.548348-1.321934 3.873034-2.446737-1.055228-2.86419-1.924921-4.186123c-0.359473-0.556604-1.310338-0.730542-1.994496-1.07842-3.803458-1.890133-6.63286-4.360062-4.232507-9.010022 1.78577-3.490369 6.273387-4.012185 10.830579-1.507468zM525.178751 882.970546l8.511398-5.067413-4.997837-5.624016c1.02044-1.484276 2.527908-3.641116 4.023781-5.797955l-7.792452-2.585888c2.910573-2.690251 5.948702-3.258451 9.068002-1.437892 4.800707 2.80621 2.60908 6.412538 0.394261 9.856523 3.072916 2.898977 4.371658 6.319771 1.159591 9.566625s-6.969142 3.1193-10.366744 1.090016zM521.966684 863.802507l-7.548937 0.950865c-0.115959 1.936517-0.220322 3.757075-0.347877 5.86753l7.108293 1.472681v1.484276l-6.598073 1.229166-1.623427 9.079598-1.994497-0.162343v-21.649563H521.815938c0.069575 0.579795 0.104363 1.147995 0.150746 1.72779zM475.664217 862.468978a10.134825 10.134825 0 0 1 0.092767 20.258054 10.26238 10.26238 0 0 1-10.2044-9.775352 10.436319 10.436319 0 0 1 10.111633-10.482702z m-8.02437 10.26238a8.244692 8.244692 0 0 0 8.198309 8.569377 8.372247 8.372247 0 0 0 8.012773-8.209904c0.150747-4.638364-3.583136-8.847679-7.943198-8.952042s-8.209904 3.849842-8.267884 8.592569zM570.518758 862.109504q-4.035377 11.445163-8.047561 22.890326l-2.064072-0.70735 7.827239-22.959902z" p-id="3537"></path><path d="M478.493619 879.38741c-2.481525-1.07842-5.658804-1.577044-7.224252-3.478773-1.159591-1.310338-0.939269-5.287735 0.266706-6.563285 1.623427-1.727791 4.777515-2.006092 7.131484-2.852594l-6.308174 6.795203 6.412538 4.939858z" p-id="3538"></path></svg>