<?xml version="1.0" standalone="no"?><!DOCTYPE svg PUBLIC "-//W3C//DTD SVG 1.1//EN" "http://www.w3.org/Graphics/SVG/1.1/DTD/svg11.dtd"><svg t="1651275982721" class="icon" viewBox="0 0 2665 1024" version="1.1" xmlns="http://www.w3.org/2000/svg" p-id="3693" xmlns:xlink="http://www.w3.org/1999/xlink" width="520.5078125" height="200"><defs><style type="text/css">@font-face { font-family: feedback-iconfont; src: url("//at.alicdn.com/t/font_1031158_u69w8yhxdu.woff2?t=1630033759944") format("woff2"), url("//at.alicdn.com/t/font_1031158_u69w8yhxdu.woff?t=1630033759944") format("woff"), url("//at.alicdn.com/t/font_1031158_u69w8yhxdu.ttf?t=1630033759944") format("truetype"); }
</style></defs><path d="M2067.491327 865.574249c25.781553 26.372873 61.379018 0 88.934532 16.911753-5.9132 21.287521-23.652801 16.083905-38.554066 16.083904q-703.079507 0-1405.804222 0.946112c-36.780105 0-47.305602-11.8264-46.477754-47.305601 1.77396-119.919701 0.709584-239.957665 0.709584-359.522574-6.977576-0.946112-13.00904-2.9566-13.836888-1.655696-54.756234 88.698003-139.906317 95.320788-231.087865 86.332723a352.544997 352.544997 0 0 0-35.479201 0c-128.552973 0-127.606861 0-115.425669-131.509573 2.483544-26.136345 11.8264-33.468713 36.188786-32.877393 47.305602 0.946112 94.611204-1.77396 141.916805 0.827848 33.232185 1.892224 58.18589-7.332368 72.850627-37.134898 9.46112-19.277033 45.17685-31.813017 25.899817-57.831098-22.824953-30.985169-36.543577-74.742851-91.063284-70.958403-68.711387 3.902712-137.895829 2.838336-206.725479 0-38.081009-1.537432-46.122962 14.073417-45.413378 48.488242 1.77396 100.287876-1.064376 201.048808 1.537432 301.21842 0.827848 35.479201-9.697648 60.432906-38.199274 79.236883C138.368885 721.410428 96.148636 748.965941 47.896922 768.716029c-35.479201 28.619889-49.197826 25.426761-47.305602-25.190233 3.074864-108.0933 2.601808-216.423128 0-324.516428a95.793844 95.793844 0 0 1 42.101986-88.816267C162.258214 241.258569 280.049163 149.249174 399.022751 59.132002 471.873378 3.311392 562.700134 16.675225 616.510256 89.762379c11.8264 16.793489 25.426761 33.113921 49.789145 64.572147 0-50.735258 0.946112-84.795291 0-118.264005C665.235025 10.525496 674.81441-1.18264 700.477699 1.18264c9.697648 0.827848 19.631825 0 29.447737 0 515.512796 0 1030.907327 0.827848 1546.420123-1.18264 51.326578 0 65.991315 11.8264 65.163467 64.335618-3.429656 212.875208-1.537432 424.922568-1.300904 637.442985 0 25.663289 2.9566 51.68137-23.061481 68.23833a65.163466 65.163466 0 0 1-33.586978 39.26365c-15.137793 6.741048-31.339961 9.579384-44.349001-2.601808s-3.429656-26.845929 4.612296-36.661842c29.684265-36.543577 8.751536-61.615546-17.384809-85.741403-31.694753-29.447737-70.958403-13.245569-107.383716-18.330921-45.649906-6.50452-63.626034 18.567449-72.022779 58.067627-3.311392 15.492585-10.762024 33.823505-28.738153 32.995657-25.899817-1.300904-21.997105-28.146833-30.157321-44.58553 4.612296-52.27269-54.401442-40.44629-71.549723-70.958402a78.527299 78.527299 0 0 1-10.762024-45.058586c7.214104-30.512113 32.167809-30.275585 55.82061-32.049545 21.287521-1.537432 43.521154 2.010488 62.443394-11.826401 60.432906-57.239778 107.147188-125.478109 157.40939-190.996367 17.857865-23.652801 15.965641-47.305602 0-70.958403-45.058586-69.302707-87.515363-140.261109-134.347909-208.49944a89.052795 89.052795 0 0 0-80.064731-40.564553c-153.743206 0-307.486412-1.18264-461.229617 0-60.55117 0.709584-70.958403 12.772512-70.958403 75.097642-0.946112 108.211564 0 216.541392-0.59132 324.871221-0.827848 76.516811-18.803977 87.870155-82.193483 49.789146-96.030372-57.831098-191.232895-117.199628-287.381531-175.030727a314.345724 314.345724 0 0 1-38.554066-27.200721c-13.718625-11.8264-29.802529-23.652801-24.362385-43.639418s26.136345-21.878841 43.757682-23.652801c39.381914-2.838336 78.763827-0.709584 118.264005-0.946112 47.305602 0 94.611204-1.300904 141.916805 0s55.584082-18.449185 37.844481-57.712834c-1.655696-3.54792-2.483544-7.568896-3.784448-11.23508C1300.90405 40.564554 1300.90405 40.564554 1181.812197 40.564554c-86.687515 0-173.256767 0.946112-260.18081 0-34.414825 0-53.100538 11.8264-65.754786 44.467265a1834.156446 1834.156446 0 0 1-78.882091 184.373583c-22.233633 20.696201-39.145385 6.267992-55.111026-9.106328s-25.190233-34.414825-45.058586-59.95985c1.064376 78.527299-0.946112 147.593478 2.128752 223.518968 33.823505-19.868353 51.208314-53.337066 84.085707-65.163466a65.045202 65.045202 0 0 1 17.503073-3.074864c56.648458 8.988064 90.708491 56.057138 137.186245 82.784803 28.383361 15.965641 54.756234 35.479201 82.784803 53.100538 47.305602 34.887881 98.159124 65.754787 145.701254 100.760932 23.652801 17.857865 62.91645 32.995657 52.509218 70.248818s-51.563106 28.028569-81.483899 28.383361c-104.190588 1.419168-208.49944 0-312.808292 0.709584-54.992762 0-48.488242 0-31.576489 52.86401C803.367383 839.674432 863.327233 867.584737 959.475869 860.488897c117.436156-8.633272 236.528009-1.892224 354.082429-2.36528 45.649906 0 50.853522-43.521154 72.850627-68.711387 7.805424-8.988064 15.492585-21.405785 27.555513-19.513561s17.976129 15.965641 18.212657 27.43725c1.300904 59.132002 40.44629 63.50777 85.386611 60.669434a235.345369 235.345369 0 0 1 35.479201 0c46.241226 3.54792 61.73381-19.040505 61.379019-63.389507-1.300904-161.193838 0-322.387676-0.709584-483.581514 0-70.958403 5.558408-77.344659 76.398547-78.763827 59.132002-1.18264 118.264005-2.247016 177.396006 0.59132s115.18914 53.337066 114.006501 99.341764-59.132002 95.557316-115.425669 99.105236c-33.350449 2.128752-66.937427 1.537432-100.287875 0.827848-38.790593-0.709584-59.132002 14.783001-57.358043 55.584082a752.986917 752.986917 0 0 1 0 76.635075v30.866905c0 66.464371 2.128752 133.047005-0.946112 199.393111-2.247016 48.369978 14.664737 66.346107 63.980827 65.399995 81.956955-1.655696 164.032174-4.967088 245.989129-1.064376 15.965641 0.709584 33.941769-3.54792 50.025674 6.622784z" p-id="3694"></path><path d="M2176.057683 850.672985a164.386966 164.386966 0 0 1-113.533444 0c-7.214104-0.827848-4.967088-17.384809-13.955153-10.170705-56.530194 44.940322-92.955508 33.823505-112.469068-35.479201-5.558408 7.214104-1.18264 14.901265-2.9566 21.997105-2.838336 11.8264-5.32188 23.652801-21.050993 27.437249a31.694753 31.694753 0 0 1-35.479201-18.803977 65.163466 65.163466 0 0 1-7.923688-21.287521c0-32.759129-7.68716-65.991315 6.149728-98.04086 48.72477-19.158769 94.611204-11.8264 112.469068 17.266545 7.568896 17.503073 5.32188 38.672329 23.652801 52.86401a33.823505 33.823505 0 0 0 19.158769-29.566001c3.193128-45.413378 38.081009-50.262202 77.226395-52.27269 47.305602-2.36528 90.353699-2.36528 114.361292 44.940322 11.23508 22.233633-4.848824 30.039057-16.556961 41.628929-13.718625 13.600361-28.146833 26.727665-57.121514 22.706689 17.976129 12.654248 43.757682 2.9566 46.596018 24.362385 1.18264 8.988064-12.41772 8.160216-18.567449 12.417721z" p-id="3695"></path><path d="M391.926911 33.232185L11.116816 325.344276c-15.729113-59.132002-16.202169-59.95985 26.727665-93.546827 69.775763-54.401442 141.916805-106.437604 209.800344-162.376478 39.145385-32.049545 80.182995-47.896922 144.282086-36.188786z" p-id="3696"></path><path d="M179.406495 687.23213c14.901265-8.160216 25.426761-8.8698 25.190233 13.127305 0 48.72477-0.827848 97.567804 0 146.292573 0 27.792041-15.847377 31.103433-37.726218 30.866906-40.919346 0-81.838691 0.709584-122.758036 0-14.073417 0-33.823505 8.27848-40.682818-11.826401a42.22025 42.22025 0 0 1 15.492585-51.799634c14.191681-10.288968 26.845929-22.470161 40.209761-33.823505a316.119684 316.119684 0 0 1 120.274493-92.837244z" p-id="3697"></path><path d="M207.3168 41.392402C141.916805 90.945019 77.462923 140.379373 0.946112 198.920056V56.175402C0.59132 35.479201 10.762024 28.619889 29.802529 28.738153h174.439407z" p-id="3698"></path><path d="M2221.471061 861.316745a589.782591 589.782591 0 0 0 106.437604-80.774315c15.610849 4.73056 14.309945 18.094393 10.762024 28.146833-11.8264 31.694753-107.50198 87.870155-145.582989 86.332723 0.59132-18.803977 19.986617-21.642313 28.383361-33.705241z" p-id="3699"></path><path d="M2333.703601 854.339169c4.848824 45.295114 4.848824 45.295114-47.305602 39.500177a74.388059 74.388059 0 0 1 47.305602-39.500177z" p-id="3700"></path><path d="M1818.072542 800.410783h7.332368c5.794936 10.525496 6.741048 30.157321 21.287521 25.071969 11.8264-4.13924 7.450632-20.341409 8.041952-31.931282 0.709584-15.256057-2.9566-32.640865 1.77396-45.295113 6.859312-18.330921 11.8264-6.031464 12.772513 6.149728a49.31609 49.31609 0 0 0-6.977577 15.019528c-6.386256 67.528747-6.267992 67.528747-59.132002 68.238331-78.645563 0.946112-78.645563 0.946112-78.645563-99.341764v-79.709939c0-19.395297 4.73056-28.265097 21.050993-28.265097s20.696201 10.525496 20.223145 29.211209c-0.59132 26.609401 0 53.218802 0 79.709939-0.118264 63.862562-0.118264 63.862562 52.27269 61.142491z" p-id="3701"></path><path d="M1781.055908 556.905197c58.067626-25.071969 63.862562-21.642313 63.034715 36.661842s-1.77396 115.78046-2.601809 173.729822c-47.305602 9.106328-60.669434-11.8264-57.831098-57.476306 3.193128-50.735258-1.419168-101.943572-2.601808-152.915358z" p-id="3702"></path><path d="M1419.168054 732.40898c0-58.422418 1.300904-116.9631 0-175.385519-1.18264-38.435801 10.170704-35.479201 39.85497-21.405785 50.853522 23.652801 59.132002 51.09005 26.845929 97.331276a950.251276 950.251276 0 0 0-55.938874 101.707044z" p-id="3703"></path></svg>