<?xml version="1.0" standalone="no"?><!DOCTYPE svg PUBLIC "-//W3C//DTD SVG 1.1//EN" "http://www.w3.org/Graphics/SVG/1.1/DTD/svg11.dtd"><svg t="1651275994753" class="icon" viewBox="0 0 2096 1024" version="1.1" xmlns="http://www.w3.org/2000/svg" p-id="4479" xmlns:xlink="http://www.w3.org/1999/xlink" width="409.375" height="200"><defs><style type="text/css">@font-face { font-family: feedback-iconfont; src: url("//at.alicdn.com/t/font_1031158_u69w8yhxdu.woff2?t=1630033759944") format("woff2"), url("//at.alicdn.com/t/font_1031158_u69w8yhxdu.woff?t=1630033759944") format("woff"), url("//at.alicdn.com/t/font_1031158_u69w8yhxdu.ttf?t=1630033759944") format("truetype"); }
</style></defs><path d="M647.148187 181.50226c28.550655 0 55.524549-0.95732 82.442129 0.281564 19.259022 0.901007 23.764056-7.545933 23.707744-25.00294s-3.66034-26.52339-23.313553-25.228193c-20.554219 1.295197-41.277377-0.563129-61.944223 0.506817-21.680478 1.069946-26.241825-8.615878-19.427961-30.352669 26.636016 0 53.666222-0.844694 80.583803 0.337877 18.921144 0.788381 23.876682-7.264368 24.101934-24.946628 0-18.695893-6.644926-25.002941-24.721376-23.989308-19.653212 1.126259-39.419051-0.563129-59.072264 0.450504s-28.888533-5.068164-20.666845-30.296356c25.17188 0 52.033147 1.126259 78.838102-0.619443a41.671568 41.671568 0 0 0 25.059253-13.796667 26.241825 26.241825 0 0 1 37.335473-1.464137 52.145773 52.145773 0 0 0 27.593335 15.204491c21.3426 2.30883 43.64252-2.139891 64.421992 1.91464 11.769402 2.252517 30.014791 15.260804 30.465295 24.270873 2.928272 53.04678 1.464136 106.262498 1.464136 162.969618h-97.590307c-14.528736 0-25.678696 0.95732-26.072887 20.216342-0.394191 20.328968 10.699457 22.525172 26.804955 22.525172 28.156465-0.619442 56.31293-1.295197 84.469394 0.506816 8.446939 0.506816 16.33075 8.953756 24.439812 13.796668-7.771184 5.237102-15.37343 14.472423-23.426179 14.979239-29.958479 1.802014-60.029583 1.238884-90.100687 0.563129-15.429743-0.394191-22.130981 5.237102-22.074669 21.117349s7.545933 21.398913 22.525172 21.229974c33.787758-0.337878 67.575516-0.844694 101.363273 0.619443 7.545933 0.337878 14.697675 8.559565 22.074669 13.177225-7.320681 4.786599-14.41611 13.402477-21.962043 13.796668-30.859485 1.576762-61.944223 1.633075-92.803708 0.39419-22.525172-0.844694-32.323622 5.969171-31.591553 30.127418 1.013633 31.760492-1.633075 32.605186-33.787758 25.171879-0.506816-0.732068-1.520449-1.407823-1.576762-2.196204-6.419674-52.765215-6.419674-52.765215-61.944223-52.821528a385.462003 385.462003 0 0 1-47.753364-0.844694c-6.081796-0.788381-11.262586-8.728504-16.893879-13.402477 5.631293-4.61766 10.812082-13.008287 16.499688-13.289852 28.156465-1.464136 56.31293-1.069946 84.469395-0.675755 15.317117 0 24.552437-3.153524 24.665063-21.680478s-10.136327-21.061036-24.946628-20.666845c-21.567852 0.506816-43.192017-0.675755-64.703556 0.337878-20.047403 0.901007-28.719594-5.631293-20.328967-30.408982 23.482492 0 48.485432 0.901007 73.206808-0.337878 14.472423-0.788381 35.815023 9.347946 36.490778-20.216341s-20.103716-21.004723-35.139268-21.567853c-23.200927-0.844694-46.51448 0-70.841665 0z m230.883012 0V108.633329c0-60.254835 9.573198-55.017732-58.452821-55.35561-15.711307 0-29.564288-1.182572-29.78954 21.962043 0 21.3426 7.940123 27.537023 28.156465 27.368083 7.827497 0 15.711307 9.347946 23.538804 14.41611-8.221688 4.955538-16.556001 14.247171-24.552437 13.965607-21.567852-0.788381-27.199145 7.88381-27.199145 28.156465 0 22.525172 13.0646 23.088301 29.339036 22.525172 18.752206-0.563129 37.279159-0.168939 59.410141-0.168939zM712.865376 849.148353h-213.426003c-36.209214 0-40.320058 4.22347-40.601622 40.488997v70.334849c0 18.189076 8.221688 27.48071 27.480709 27.311771 68.532835-0.394191 137.009358 0.563129 205.485881-0.844694 10.417892 0 22.525172-8.052749 30.634233-15.823933 43.811459-42.459949 87.904483-84.469394 129.519738-129.519738 36.547091-39.419051 81.766374-22.525172 124.226323-24.158247 2.984585 0 8.953756 7.658558 8.953756 11.825715 0.619442 63.520985 0.450503 127.098282 0.450503 192.196029h-41.164751c0-45.613473 0.788381-89.537558-0.506817-133.349018-0.337878-12.557783-6.588613-24.890315-10.136327-37.279159-15.992872 5.18079-35.983962 6.081796-47.359174 16.443375-41.615255 37.785976-81.991626 77.317652-119.664975 119.045534-25.284505 28.156465-51.976834 39.925867-90.100688 37.898601-63.63361-3.435089-127.548786-0.732068-191.46396-1.013632-43.811459 0-65.15406-21.793104-65.660876-65.886128 0-28.156465-0.675755-56.31293 0.337877-84.469394 1.238884-33.787758 21.117349-55.7498 54.116726-56.31293 74.107815-1.35151 148.215631-0.563129 222.323446-0.788381 24.496124 0 20.441593 14.979239 16.556001 33.900383zM427.978265 378.14701v28.944846H84.469394v-28.944846c32.886751 0 64.59093-0.788381 96.29511 0 19.03377 0.619442 29.395349-3.040898 29.564288-25.622383s-10.248953-28.663281-30.915798-27.705961a733.138031 733.138031 0 0 1-78.838102-0.506817c-6.419674-0.394191-12.276219-9.066382-18.358015-13.909293 5.631293-4.110844 11.262586-11.262586 17.569634-11.769403 29.001159-1.295197 58.114943-1.238884 87.172415-0.450503 17.625947 0.450503 22.863049-7.827497 22.806737-23.876682s-3.547715-25.340818-22.018356-24.158247a270.865192 270.865192 0 0 1-50.681636 0c-41.052126-5.18079-71.911611 2.759334-88.186048 47.246548-3.378776 10.924708-28.269091 14.078232-43.24833 20.779471L0 309.726801c12.614096-24.777689 23.707743-50.681637 38.686983-73.713625 5.631293-8.278001 19.878464-14.021919 30.57792-14.641362 31.816805-1.858327 63.746236 0 95.731981-0.788381 17.907512 0 36.547091 4.899225 51.582643-12.951974 4.279783-5.18079 24.21456-5.631293 28.663282-0.675755 19.259022 21.229974 43.135704 12.614096 65.210372 13.627729 28.156465 1.238884 56.31293-0.563129 84.469394 1.013633 6.363361 0.337878 12.332532 9.066382 18.470641 13.909293-5.969171 5.124477-11.769402 14.359797-17.963824 14.641362-33.787758 1.464136-67.575516 0-101.363273 1.182572-16.893879 0.675755-41.784194-11.713089-40.9395 23.932995s26.241825 21.793104 42.572574 22.525171c30.859485 1.802014 61.944223-0.450503 92.747396 1.182572 8.503252 0.450503 16.893879 8.728504 24.834002 13.346164-8.615878 4.392409-16.893879 12.10728-25.903948 12.501471-32.774125 1.520449-65.660876 0.675755-98.435001 0.563129-19.03377 0-36.71603-3.26615-36.32184 27.368084 0.337878 29.170098 16.893879 25.453444 34.801391 25.453444 45.782412-0.112626 91.621137-0.056313 140.557072-0.056313zM2096.586683 716.362465c-39.419051 3.716653-39.925867 3.66034-40.094806-30.296356 0-36.547091 0.619442-73.206809-0.506816-109.697587-0.281565-10.080014-5.969171-28.719594-8.784817-28.606968-14.866613 0.450503-33.44988 1.069946-43.586208 9.911076-33.787758 29.564288-68.082332 59.860644-95.73198 94.999912-42.797827 54.454603-94.267844 75.008822-162.80068 66.956073-47.190235-5.631293-95.73198-0.788381-143.372719-1.126258-43.529895 0-65.829815-22.525172-66.224005-65.660876-0.337878-39.419051 0-78.838101 0-118.257152 0-13.740355 1.464136-23.426179 19.03377-23.764057s22.525172 7.320681 22.525172 23.651431c-0.619442 39.419051 0.394191 78.838101-0.337877 118.257152-0.450503 21.229974 7.376994 30.690547 29.507975 30.408982 64.703556-0.732068 129.519738 0.506816 194.110668-0.95732a55.468236 55.468236 0 0 0 33.393568-15.654994c43.304643-41.502629 87.228728-82.723694 127.098282-127.379847 36.941282-41.446316 82.780007-25.002941 126.084649-26.354451 3.153524 0 9.404259 9.179008 9.460572 14.134545 0.450503 62.563665 0.225252 125.183643 0.225252 189.436695zM42.741514 175.307838c0-52.990467-0.563129-104.404172 0.788381-155.761564C43.698833 14.590736 55.35561 5.636981 61.944223 5.636981c106.994566-0.844694 213.989133-0.563129 320.983698-0.56313 20.779471 0 31.309989 10.361579 31.478928 30.915799 0 40.376371 0 80.696428 0.337878 121.016485 0 15.711307-6.363361 21.004723-21.962043 20.94841-84.469394-0.563129-168.938789 0-253.408183-0.901007-7.151742 0-14.247171-9.122695-21.3426-13.965606 7.376994-4.899225 14.697675-13.909294 22.130981-14.02192 68.476522-1.126259 136.896732-0.788381 205.373254-0.619442 15.654994 0 29.78954 1.407823 29.676914-22.018355s-14.641362-21.793104-30.071104-21.793104c-67.575516 0-135.151031 0.506816-202.726547-0.563129-8.165375 0-16.218124-8.897443-24.327186-13.627729 7.88381-4.22347 15.76762-11.938341 23.707744-12.050967 67.575516-0.95732 135.151031-0.506816 202.726546-0.619443 15.035552 0 31.028424 2.196204 30.408982-21.624165-0.563129-20.835784-12.50147-24.383499-29.620601-24.327185-78.838101 0-157.676203 0.619442-236.514304 0-19.371648 0-27.086519 6.419674-26.692329 25.791322 0.675755 30.014791 0 60.029583-0.337877 90.100687-0.563129 31.478928-0.732068 31.478928-39.02486 27.593336zM792.266607 717.99554c0-65.886128-0.506816-127.661411 0.844694-189.436695 0-5.631293 12.050967-16.556001 18.583267-16.893879 73.99519-1.013633 148.103005-1.91464 222.098194 0.394191 42.854139 1.295197 64.816182 42.685201 50.17482 84.131517a57.213937 57.213937 0 0 0 0 35.533458c14.021919 39.813241-6.138109 83.624701-46.401854 85.14515-80.245925 3.26615-160.88604 1.126259-245.299121 1.126258z m94.324157-86.271408c1.126259-14.134545 1.91464-23.65143 2.815647-34.463513h129.519738c18.07645 0 28.156465-6.870177 28.156465-26.410764 0-17.907512-9.179008-25.622383-26.016574-25.678696-56.31293 0-112.625859-0.675755-168.488285 0.901007-6.5323 0-17.738573 12.670409-18.189077 19.934777a865.75498 865.75498 0 0 0 0 98.20975c0.394191 6.475987 10.981021 17.513321 16.893879 17.682259 57.044998 1.35151 114.146308 0.675755 171.247619 0.844694 18.358015 0 24.383499-9.742137 24.270873-26.692328 0-21.117349-13.852981-24.21456-30.127417-24.327186-41.671568-0.112626-83.681013 0-130.082868 0zM47.978616 1022.817428c0-66.674509-0.506816-128.506105 0.844694-190.281389 0-5.631293 12.276219-16.274437 18.921144-16.387062 73.206809-1.069946 146.413617-1.745701 219.620426 0 43.417269 1.069946 66.956073 40.9395 53.778848 82.047938a71.630046 71.630046 0 0 0 0 40.883187c12.219906 38.518044-8.446939 76.979775-47.584426 83.005258a186.677362 186.677362 0 0 1-28.156465 0.675756z m145.568923-35.646084c26.241825 0 52.48365-0.337878 78.838102 0 18.358015 0.337878 31.197363-3.66034 30.746859-26.072886-0.394191-20.94841-12.895661-24.270873-29.78954-24.158247h-106.994566c-13.120913 0-27.142832-1.295197-22.525172-18.752206 1.802014-6.982803 13.965607-15.598682 21.793104-15.936559 35.533459-1.745701 71.179543-1.069946 106.994566-0.675755 18.583267 0 30.915798-4.899225 30.690547-26.692329 0-20.216342-11.938341-25.56607-29.170098-25.56607-54.341977 0-108.740267 0.394191-163.307495 0-17.231756 0-23.369866 7.376994-23.144615 23.595118 0.394191 29.958479 0.506816 59.97327 0 90.100687-0.394191 17.457008 5.631293 25.56607 24.439812 24.665063 26.973893-1.464136 54.229351-0.506816 81.428496-0.506816zM1310.965002 6.932178h40.545309c0 19.202709 0.675755 36.828656 0 54.341977-0.788381 15.992872 6.363361 21.962043 21.511539 21.736791 23.426179-0.281565 46.90867 0 70.334849 0 20.328968 0 32.49256 10.530518 32.267309 30.803172-1.013633 80.583802-2.815646 161.111292-4.61766 241.638781a96.126171 96.126171 0 0 1-3.716654 19.259022c-10.19264 41.784194-10.248953 41.784194-57.551814 37.504411 42.854139-86.327721 19.540587-178.399361 25.678696-267.936919 1.35151-20.272655-6.5323-30.127417-27.424396-28.494342a88.186048 88.186048 0 0 1-19.653213 0c-27.255458-3.998218-35.026642 5.631293-37.842289 34.632452-7.545933 77.148714-21.455226 153.677985-32.098369 230.883011-4.167157 30.127417-19.427961 40.263745-50.005882 30.240043 9.179008-43.980398 19.822151-88.129735 27.255458-132.842201 6.813864-40.601622 9.460572-81.822687 15.035552-122.593247 3.885592-28.156465-2.139891-46.51448-36.772343-40.038493-5.969171-18.977457-7.771184-33.393567 17.400695-32.943064 16.556001 0.281565 20.441593-8.84113 19.822152-23.313553-0.732068-16.781253-0.168939-33.506193-0.168939-52.877841zM48.710684 714.560452c0-61.944223-0.394191-124.507887 0.788381-187.01524 0-5.631293 10.474205-15.035552 16.893879-15.598681 21.3426-1.802014 43.755146-3.772966 64.309366 0.788381a73.826251 73.826251 0 0 1 39.41905 26.52339c29.451662 39.925867 56.31293 81.597435 83.455762 123.325316 12.050967 18.695893 26.467077 24.890315 51.301079 15.598681 0-43.529895-0.563129-88.298674 0.394191-133.01114 0-13.515103-9.573198-33.787758 18.695892-34.294574 29.451662-0.337878 20.610532 20.94841 20.835784 35.646085 0.732068 56.31293 0.281565 112.06273 0.281565 171.416557-30.74686 0-58.903324 2.703021-86.10247-1.182571-12.557783-1.802014-26.241825-14.303484-34.4072-25.56607-28.156465-39.419051-54.679855-80.640115-81.878999-121.016486-4.167157-6.194422-7.714871-14.472423-13.684042-17.457008a45.050344 45.050344 0 0 0-28.606968-5.631293c-5.011851 1.295197-9.629511 14.303484-9.854763 22.187294-1.069946 38.912234-0.450503 77.036088-0.450504 115.497819 0 36.71603-1.295197 37.617037-41.390003 29.78954zM715.174206 718.164479c-82.27319 0-162.688054 1.126259-243.102917-0.619442-29.057472-0.619442-50.062194-26.861267-51.019514-57.608127s-1.013633-60.029583 0-90.100687C422.346972 535.37271 443.126443 512.453347 476.857888 511.721279c73.206809-1.295197 146.413617-0.281565 219.620426-0.788381 23.989308 0 22.018355 13.909294 18.07645 33.787758H664.49257c-56.31293 0-112.625859 0.506816-168.938789 0-23.313553 0-35.026642 7.658558-33.787758 32.661499s0.95732 50.681637 0 75.966142c-0.788381 21.962043 8.784817 30.014791 30.240043 29.78954 63.802549-0.675755 127.548786 0 191.463961 0H715.174206zM1308.994049 718.55867c-27.199145 0-54.39829 0.281565-81.541122 0-40.488996-0.563129-63.23942-22.525172-63.915175-61.944223-0.619442-41.221064 0-82.442129-0.281565-123.888445 0-12.951974 2.534082-21.455226 18.24539-21.680478s21.624165 6.982803 21.511539 22.018355c0 39.419051 0.394191 78.838101 0 118.257153 0 21.849417 7.940123 32.49256 31.591553 31.985744 50.681637-1.069946 101.363273-1.182572 151.763346 0 25.340818 0.619442 32.661499-10.474205 31.929431-33.787758-1.126259-38.405418 0-76.867149-0.450504-115.272567 0-14.247171 2.534082-23.031988 19.653213-23.25724s22.525172 6.813864 22.525172 23.482492c-0.901007 40.263745 0 80.583802-0.506817 120.90386s-23.707743 62.619978-63.126794 63.23942c-29.282723 0.337878-58.340195-0.056313-87.397667-0.056313zM1030.188735 402.36157l46.796044-218.099977a78.04972 78.04972 0 0 0-8.446939-7.827497c-10.474205-5.631293-31.985744 3.941905-29.845853-19.878464 2.252517-25.56607 22.806737-14.021919 35.026642-14.41611 44.712466-1.464136 89.537558-0.563129 133.799521-0.563129 9.347946 24.665063 1.745701 32.323622-21.455226 32.661499-70.391162 0.95732-70.109597 1.633075-82.442129 73.206808-6.757552 39.419051-14.753988 78.838101-23.369866 124.507888 18.526954 0 33.787758 0.844694 49.104875 0 21.736791-1.464136 29.282723 7.88381 24.101934 30.803172zM1355.170652 849.148353c-36.378153 0-68.194958 0.95732-99.899138-0.337877-21.173662-0.844694-27.705961 7.320681-27.199145 28.156465 1.182572 47.528113 0.337878 95.112538 0.337878 144.330038h-41.221065c0-48.260181-1.069946-94.943599 0.394191-141.458079 0.732068-22.919362-6.025483-32.379935-29.902166-30.803172a610.319531 610.319531 0 0 1-78.838101-0.394191c-6.475987-0.450503-12.445157-9.460572-18.63958-14.528736 6.250735-6.081796 12.445157-17.457008 18.752206-17.513321 86.158782-1.182572 172.373878-1.013633 258.53266-0.675755 23.538805-0.225252 16.443375 16.556001 17.68226 33.224628zM544.489717 248.064143l-50.681637-2.815647c9.911076-14.41611 18.245389-25.960261 25.96026-37.842289 16.161811-25.17188 33.787758-49.668004 47.415487-76.13508 12.10728-23.482492 28.156465-26.016573 50.118508-19.765839 0 2.871959 1.182572 5.237102 0.39419 6.194423-35.139268 44.261963-36.603404 95.73198-34.4072 148.947698 1.576762 38.292792 0.732068 76.754523 0 115.103629 0 13.515103 6.138109 31.478928-19.03377 32.210995s-19.427961-16.893879-19.5969-30.803172c-0.450503-44.59984-0.168939-89.255993-0.168938-135.094718z" p-id="4480"></path><path d="M520.049905 901.688317c55.862426 0 111.781165-0.506816 167.587279 0.732068 5.631293 0 15.035552 11.262586 14.753987 16.893879s-9.685824 16.893879-15.317117 16.893879c-51.301079 1.35151-102.771097 1.802014-154.072175-0.337878-7.433307-0.281565-14.303484-15.823933-21.398913-24.327185zM1167.986473 231.170264c24.270873-8.052749 37.391785-6.081796 40.657936 19.653212 6.307048 49.668004 14.697675 99.054443 22.525172 148.835073-25.059254 9.347946-37.729663 6.588613-40.9395-20.38528-6.194422-49.555378-14.8103-98.772879-22.243608-148.103005zM519.205211 598.443191h180.201375c9.460572 23.482492 3.097211 33.787758-22.525172 33.280941-45.050344-0.788381-89.706497-0.901007-134.531589 0-23.031988 0.619442-30.74686-8.390627-23.144614-33.280941zM616.795518 4.229157c-25.847635 36.547091-48.879623 72.418428-75.853516 105.13624-7.264368 8.784817-26.354451 7.771184-40.038493 11.262586l-4.167157-6.644926C516.727442 84.475082 538.802111 56.318617 556.09018 25.008628c13.45879-24.045621 29.902166-30.240043 60.705338-20.779471zM1132.396702 23.31924a540.266247 540.266247 0 0 1 58.903324 0.732069c6.982803 0.788381 13.120913 10.080014 19.5969 15.486055C1205.096694 45.056031 1199.465401 54.572916 1193.270979 54.741855q-60.311148 2.027265-120.678608 0c-5.631293 0-11.262586-10.417892-16.893879-15.992872 5.912858-5.124477 11.262586-14.021919 17.907511-14.641362a586.442849 586.442849 0 0 1 58.790699-0.788381zM927.079761 112.631547l26.91758-24.439812 26.52339 24.439812-24.552438 26.52339zM1250.147038 183.247961L1225.876165 157.681891l25.453444-27.142833 28.494343 27.142833zM16.893879 392.506807l23.764056-26.973893 28.156465 25.397131-25.228192 26.861268z" p-id="4481"></path></svg>