<?xml version="1.0" standalone="no"?><!DOCTYPE svg PUBLIC "-//W3C//DTD SVG 1.1//EN" "http://www.w3.org/Graphics/SVG/1.1/DTD/svg11.dtd"><svg t="1651276042737" class="icon" viewBox="0 0 1484 1024" version="1.1" xmlns="http://www.w3.org/2000/svg" p-id="7694" xmlns:xlink="http://www.w3.org/1999/xlink" width="289.84375" height="200"><defs><style type="text/css">@font-face { font-family: feedback-iconfont; src: url("//at.alicdn.com/t/font_1031158_u69w8yhxdu.woff2?t=1630033759944") format("woff2"), url("//at.alicdn.com/t/font_1031158_u69w8yhxdu.woff?t=1630033759944") format("woff"), url("//at.alicdn.com/t/font_1031158_u69w8yhxdu.ttf?t=1630033759944") format("truetype"); }
</style></defs><path d="M662.518547 630.387999c5.083026-14.386504 9.750168-27.633178 14.478923-40.864449q32.577577-91.278827 65.062735-182.603864c2.07942-5.899391 4.620933-8.333082 11.259673-8.317679 91.864145 0.261853 183.743694 0 275.607839 0.400481a60.626639 60.626639 0 0 1 22.981439 4.867383c12.568937 5.329476 17.082048 17.821398 12.399503 30.806219-11.459913 31.853631-23.104664 63.599439-34.410547 95.499279-1.909986 5.452701-4.759561 6.68495-10.073633 6.669546-77.246594-0.138628-154.493189 0-231.739783-0.292659-7.239461 0-10.458711 2.094823-12.322488 8.96461-2.479901 9.010819-6.161244 17.713576-9.719362 27.648582h9.719362c65.956115 0 131.91223-0.138628 197.868345 0.123224a74.150569 74.150569 0 0 1 22.550153 3.573522c8.779772 2.880381 12.106844 9.442106 9.688556 18.283491a306.814539 306.814539 0 0 1-10.982417 31.961452c-0.708543 1.786761-4.85198 3.080622-7.408896 3.080622-29.004055 0.215644-57.992707 0.138628-86.996763 0.138628H662.518547z m136.394535-149.163712a16.388909 16.388909 0 0 0 2.757157 0.770155q78.879324 0 157.743244 0.077016c1.447892 0 3.927793-0.277256 4.174243-1.001202 1.940792-5.976406 4.620933-12.122247 4.497708-18.12946 0-2.187242-7.470508-5.883988-11.552332-5.914794-47.965283-0.415884-95.930566-0.323465-143.895849-0.154031-2.064017 0-5.237057 1.540311-5.961004 3.157637-2.941994 6.68495-5.129235 13.77038-7.763167 21.194679zM192.831528 629.017123c22.750393-12.799984 46.209329-24.490944 68.081744-38.723418a105.434285 105.434285 0 0 1 68.867303-17.513335c20.20888 1.540311 20.316701 0.462093 27.201891-18.8226q10.782177-30.082273 21.456532-60.149143c0.89338-2.52611 1.540311-5.129235 2.957397-9.750168-4.759561 2.572319-7.609136 4.066421-10.427905 5.637538q-121.684565 67.773682-243.369131 135.624379a38.276727 38.276727 0 0 1-19.592755 5.206251c-33.116685-0.20024-66.233371 0-99.334653 0.154032H0c2.988203-2.171838 4.389886-3.450297 6.007213-4.343677q200.825742-112.334878 401.68229-224.577337c1.971598-1.109024 4.189646-2.52611 6.315275-2.541513 26.631976-0.184837 53.279356-0.123225 80.98955-0.123225-0.970396 3.188444-1.648133 5.791569-2.541513 8.317679q-38.646402 108.330069-77.246595 216.690945c-1.817567 5.113832-4.066421 7.177849-9.750168 7.162446-68.528434-0.20024-137.087675-0.123225-205.585303-0.154031-2.218048 0-4.420692-0.24645-6.63874-0.385078zM1325.776443 630.418806c10.258471-28.803815 20.20888-56.791265 30.190095-84.717103q13.169659-36.967463 26.370124-73.934925c2.941994-8.27147 0.539109-12.676759-8.009617-14.478923a28.896233 28.896233 0 0 0-6.161244-0.539109c-46.455778 0-92.911557 0.169434-139.351932 0-5.776166 0-7.855586 2.171838-9.61154 7.208655-18.591553 52.986697-37.521975 105.865572-56.051916 158.867672-2.002404 5.74536-4.420692 7.932601-10.782177 7.824779-24.644975-0.431287-49.28995-0.184837-74.874515-0.184837 0.985799-3.203847 1.540311-5.606732 2.433691-7.932601q38.507774-107.944992 76.923129-215.951596c2.233451-6.284469 5.329476-7.855586 11.583139-7.840183q138.951451 0.277256 277.933708 0.123225h3.850777c23.998045 0.569915 35.057477 16.157862 27.063264 38.78503Q1444.287968 531.161168 1410.924833 624.611833c-1.293861 3.619731-2.464498 6.161244-7.224058 6.161244-24.644975-0.092419-49.28995 0.184837-73.934926 0.308062a32.577577 32.577577 0 0 1-3.989406-0.662333zM496.226577 629.987519c2.9728-8.286873 5.729957-15.957621 8.456307-23.62837 14.987226-42.019683 30.036064-83.993156 44.823048-126.074452 1.786761-5.083026 4.004808-7.13164 9.703959-7.054624 24.860619 0.369675 49.721238 0.154031 75.475237 0.154031-0.800962 2.849575-1.278458 5.006011-2.002404 7.070027-17.035839 47.74964-34.1795 95.576295-51.061308 143.433756-1.709745 4.821173-3.804568 6.792771-9.241866 6.715756-23.104664-0.354272-46.209329-0.138628-69.313993-0.169434-1.848373-0.061612-3.835374-0.308062-6.83898-0.44669z" p-id="7695"></path><path d="M473.245137 911.386927c128.754593-57.700048 250.901251-127.229685 369.82866-203.844752l-91.140199-59.533018c0.462093-1.032008 0.93959-2.07942 1.417086-3.080622 4.620933 1.648133 9.796378 2.52611 13.862799 5.083026q38.708014 24.444735 77.015547 49.598013c4.282064 2.787963 7.316477 2.77256 11.583139-0.138628 22.24209-15.218272 44.669018-30.02066 67.065138-45.084902 13.354496-8.995416 13.308287-9.087835 30.80622-6.761965l-91.294231 61.689454c0.539109 0.69314 0.831768 1.401683 1.370877 1.725148 54.34217 31.668793 109.808768 61.02712 170.034926 80.09617 21.7954 6.931399 43.898862 12.692162 67.172961 10.366292 20.301298-2.017807 30.328723-14.170861 24.983844-33.578779a175.225774 175.225774 0 0 0-17.759786-42.235326C1084.717779 685.916209 1053.572692 652.090981 1021.226162 619.374776c-2.941994-2.9728-6.500112-5.560523-1.987001-9.935005 0.415884 0.107822 1.047411 0 1.34007 0.369674 34.995865 34.441353 68.697869 70.114955 94.575093 112.103831 9.041625 14.66376 15.310691 31.160491 21.779997 47.241337 4.482305 11.136448 0.323465 20.547748-8.348486 28.92704-15.942218 15.40311-34.549175 15.741978-54.511604 11.8912-46.209329-8.933804-89.091586-27.278907-130.849416-48.196329-27.725597-13.862799-54.742651-29.188893-81.852124-44.268537-4.990607-2.787963-8.286873-2.664738-13.031031 0.400481-112.180847 72.394615-227.750378 138.828226-348.972849 195.095785-2.787963 1.293861-5.591329 2.556916-8.394695 3.866181-10.535727 4.867383-10.535727 4.882786-17.728979-5.483507zM359.600995 956.656666c1.001202 13.52393 0.985799 13.508527-10.458711 17.374707-40.618 13.724171-81.636481 25.70779-124.318497 31.45315-24.244494 3.250056-48.566004 4.80577-72.702677-0.646931-36.736416-8.286873-52.832666-33.886841-45.161917-70.992932 5.760763-27.864225 18.637763-52.586216 33.547972-76.33781 35.56578-56.637234 80.09617-105.911781 126.829204-153.322553 16.94342-17.174467 34.502965-33.717407 51.877673-50.445183 8.394695-8.086633 12.676759-8.995416 25.476743-5.914795-6.007213 5.652941-11.752573 11.059433-17.482529 16.496731C274.17535 714.704621 223.160251 767.075193 180.06235 826.623615c-17.343901 23.951835-33.73281 48.658423-43.714024 76.63047A147.484774 147.484774 0 0 0 127.845809 942.778464c-1.370877 20.609361 9.026222 34.487562 28.449543 41.788636 20.224283 7.593733 41.280334 7.362686 62.320982 5.529716 45.531592-3.958599 89.106989-16.589149 132.297307-30.806219 2.710947-0.816365 5.375685-1.601923 8.687354-2.633931zM1122.208948 120.930152c0.877977 1.109024 1.401683 1.663536 1.802164 2.295063 1.540311 2.618529 3.080622 5.25246 5.206251 8.748966-148.254929 65.278378-287.468233 146.175509-423.369869 236.160476l29.265908 18.360506-4.158839 4.821173c-9.149447-5.591329-17.759785-11.213464-26.770605-16.080846-2.295063-1.232249-6.053422-0.69314-8.795175 0.123225s-4.836576 2.880381-7.054624 4.620933c-7.809377 6.161244-15.60335 12.045232-25.538356 2.464497l23.458936-16.342699c-0.20024-0.816365-0.169434-1.540311-0.44669-1.678939-54.157333-31.545568-109.654737-60.272368-169.911702-78.555858-20.116461-6.161244-40.618-11.090239-62.043725-8.363889-19.377112 2.479901-28.572768 13.231271-24.167479 32.192499 3.188444 13.754977 9.318881 27.04786 15.634157 39.786232 5.668344 11.413704 13.369899 21.826206 21.564353 34.965059-4.744158-1.540311-9.16485-1.663536-10.782177-3.819972-15.911412-21.471935-31.468553-43.39056-37.59899-69.976326-4.451499-19.300096-3.080622-24.56796 16.388908-34.333531s40.86445-8.9184 61.72026-3.789165c50.398974 12.414906 96.885559 34.610787 142.617391 58.531816 15.911412 8.302276 31.668793 16.94342 47.041097 26.185286 5.822375 3.496506 9.565331 2.864978 14.925613-0.708543C815.887309 280.121289 934.229399 210.28359 1058.193625 150.273075c19.854608-9.61154 40.048085-18.591553 60.072127-27.848822 1.124427-0.539109 2.341273-0.908783 3.943196-1.494101zM1297.496334 71.994473c-0.924187-5.175445-1.678939-9.4113-2.649334-14.879404 14.124651-3.280862 27.941241-6.854384 41.896457-9.65775 30.806219-6.161244 61.781872-10.10444 93.219619-5.4527 2.541513 0.385078 5.05222 0.877977 7.547524 1.463295 36.382145 8.610338 52.370572 33.886841 44.900064 70.577048-5.668344 27.864225-18.483731 52.632425-33.424747 76.38402-35.550377 56.637234-80.09617 105.880975-126.752189 153.384165-10.782177 10.982417-22.334509 21.256291-32.685398 32.623786-6.931399 7.701555-14.694566 7.701555-23.335711 6.407693l-1.863776-2.156435a45.208126 45.208126 0 0 0 6.88519-4.620933c51.061308-49.197532 100.120212-100.228034 141.292723-158.251547 17.698173-24.953037 34.1795-50.830261 43.359754-80.234798a130.726191 130.726191 0 0 0 5.49891-33.886841c0.600721-16.94342-7.701555-30.190095-23.366517-36.474563a124.056644 124.056644 0 0 0-35.627393-8.317679c-32.824026-2.72635-64.847091 3.804568-96.654512 11.19806-2.464498 0.631527-4.928995 1.155233-8.240664 1.894583zM1205.200902 0.000339A78.987146 78.987146 0 1 1 1125.967307 79.079903 79.002549 79.002549 0 0 1 1205.200902 0.000339z m0.985799 14.063039a65.170556 65.170556 0 0 0-66.233371 64.015323c-0.646931 35.427152 28.264706 65.216766 63.691858 65.802084a64.924107 64.924107 0 1 0 2.572319-129.817407zM661.856213 398.817651c-6.854384 19.161468-13.061837 36.767222-19.577352 54.249752a6.623337 6.623337 0 0 1-4.882786 3.496505c-25.630774 0.154031-51.261549 0-76.892322 0-0.415884 0-0.816365-0.508303-1.909986-1.247651 6.284469-17.605754 12.568937-35.427152 19.115259-53.140728A6.007213 6.007213 0 0 1 582.23754 398.940876c26.015852-0.169434 52.10872-0.123225 79.618673-0.123225z" p-id="7696"></path><path d="M488.432603 963.125972a60.78067 60.78067 0 1 1-60.457205-60.688252 60.303174 60.303174 0 0 1 60.457205 60.688252z m-10.874595 0a49.890672 49.890672 0 1 0-49.829059 49.752043A49.5364 49.5364 0 0 0 477.496395 963.172181zM459.567176 548.6591c2.618529-12.938612 7.162446-23.212486 18.221879-30.991056 19.02284-13.369899 36.967463-28.295512 57.176342-44.006684-3.881584 11.721766-5.74536 21.179276-15.079644 27.972047-18.591553 13.554736-36.305129 28.326318-54.403783 42.589598-1.771358 1.38628-3.604328 2.710947-5.914794 4.436095zM1097.178895 526.617251c-3.003606 10.99782-5.421895 19.76219-14.201667 26.092867-20.501539 14.786985-40.417759 30.374932-60.857686 45.87046-2.048614-10.474114 1.263055-16.681568 9.673153-22.550152 19.900818-13.862799 38.769627-29.265908 58.069723-44.03749 1.940792-1.494102 3.943196-2.911188 7.316477-5.375685zM537.399088 468.254869c-11.767976-10.782177-23.551354-21.317904-34.841833-32.34653-1.663536-1.617327-1.001202-5.637538-2.187242-6.515516 12.322488 10.951611 24.799006 21.7954 36.859641 33.03967 1.232249 1.093621 0.169434 4.697948 0.169434 5.822376zM662.210485 581.098049c-11.506123-9.334284-23.104664-18.483731-34.379741-28.126078-1.709745-1.463295-1.678939-4.944398-2.464497-7.485911l2.202645-1.001202c11.891201 9.596137 23.87482 19.084453 35.550376 28.942442 1.432489 1.201443 1.170636 4.420692 1.678939 6.715756zM1255.56907 68.343936c2.587722 14.956419 2.510707 14.725373-9.057028 18.8226q-34.37974 12.18386-68.574644 24.814409c-11.04403 4.066421-10.982417 4.251258-17.68277-8.194454z" p-id="7697"></path><path d="M385.200963 961.554854c0.184837-9.965812 2.248854-15.942218 11.567735-18.915018 13.400705-4.266661 26.293108-10.150649 39.370348-15.40311 10.089037-4.066421 10.889998-3.958599 20.717183 5.083026z" p-id="7698"></path></svg>