<?xml version="1.0" standalone="no"?><!DOCTYPE svg PUBLIC "-//W3C//DTD SVG 1.1//EN" "http://www.w3.org/Graphics/SVG/1.1/DTD/svg11.dtd"><svg t="1651275962724" class="icon" viewBox="0 0 1054 1024" version="1.1" xmlns="http://www.w3.org/2000/svg" p-id="2376" xmlns:xlink="http://www.w3.org/1999/xlink" width="205.859375" height="200"><defs><style type="text/css">@font-face { font-family: feedback-iconfont; src: url("//at.alicdn.com/t/font_1031158_u69w8yhxdu.woff2?t=1630033759944") format("woff2"), url("//at.alicdn.com/t/font_1031158_u69w8yhxdu.woff?t=1630033759944") format("woff"), url("//at.alicdn.com/t/font_1031158_u69w8yhxdu.ttf?t=1630033759944") format("truetype"); }
</style></defs><path d="M764.142414 236.472406c-12.260429 2.233681-18.316188 13.551001-27.921018 19.20966-18.489918 10.895402-21.617072 30.675891-30.750348 47.006585-1.712489 3.052698 0.843835 5.509748 1.067204 8.28944 0.670104 9.083638-0.521192 16.851885-10.349391 21.542616a27.598375 27.598375 0 0 0-16.603698 22.932463 85.450724 85.450724 0 0 1-26.307804 52.119233c-14.146649 13.873643-9.927473 30.378067-9.927473 46.485392 0 4.293632 4.318451 6.849956 8.016435 8.810632 2.779692 1.464302 5.782753 4.492182 8.959544 1.762127 2.63078-2.283319 0.74456-5.65866-0.347462-8.090891-6.7755-14.891209 0.992747-27.002726 7.445605-39.436886 2.481868-4.740368 6.179852-9.455918 6.676226-14.444473 1.092022-10.622396 4.790006-16.2066 16.38033-14.171468 4.591456 0.794198 6.477676-2.283319 7.073325-6.651407 0.446736-3.400159-1.166478-7.445605 2.754873-10.101203 8.587264 14.69266 5.857209 21.29443-10.250116 24.173396-6.825138 1.240934-9.356643 4.070264-4.169538 9.629649s2.903786 12.607891 5.782753 18.539556c1.68767 3.424978 2.63078 6.998868 6.924412 7.867522 6.279127 1.290571 26.456715-15.883957 27.945837-22.014171 2.878967-11.664781 4.070264-21.492979-8.959545-28.516666-4.616275-2.481868-3.673165-9.927473 0.843836-12.980171 11.441413-7.619336 13.451726-22.336814 24.570495-30.353249 5.509748-3.896533 3.946171-10.374209 0.347462-15.63577a61.02914 61.02914 0 0 0-4.963737-5.609022 5.609022 5.609022 0 0 1 1.067204-8.736176c12.583072-7.122962-2.804511-28.615941 18.713286-32.264287 56.437684-9.80338 112.230082-22.485726 165.540612-44.375805 16.752611-6.899594 33.951958-13.079446 52.119233-15.362764 4.392907-0.546011 9.629649-2.779692 12.235611 2.481868s-0.620467 9.927473-4.243995 13.253177c-8.314259 7.594517-18.4651 12.409341-28.591122 17.075253a25.935523 25.935523 0 0 0-15.511677 17.720539c-8.115709 27.151639-27.772106 45.616738-50.158557 60.830591-6.7755 4.616275-11.044314 14.097012-21.219974 13.37727a413.801892 413.801892 0 0 1-64.205931-8.463171c18.216913 6.080577 42.19176 4.020627 64.404481 10.845764 9.927473 3.57389 14.518929 18.4651 6.825138 29.459776-11.342138 16.156962-24.967595 30.651073-42.464766 40.727458-7.048506 4.070264-13.203539 3.003061-18.961473-2.754873-3.797258-3.77244-8.09089-7.023687-12.185974-10.498303-8.760995-2.655599-13.327632-10.448665-19.308934-16.355512-10.597577-10.448665-19.135204-22.733913-29.161952-33.505221-0.967929 1.340209-2.481868 3.276066-3.797259 5.311198-3.57389 5.807572 0.794198 10.696852 1.687671 16.00805-0.893473-5.112649-4.963736-9.80338-2.035132-15.43722 2.655599-4.765187 5.807572-3.970989 8.636901-0.446737 13.029808 16.38033 28.541485 30.551798 41.24865 47.155497 15.362764 16.777429 15.412402 17.000797-1.68767 33.15776-14.444473 13.625457-30.824804 21.989353-52.441876 16.603698 1.092022 7.098143 6.353583 8.612083 9.927473 11.342138 12.210792 9.505555 15.213852 17.770177 8.363896 31.84237a38.890875 38.890875 0 0 0-3.549072 22.609819c1.464302 12.632709-4.963736 20.922149-16.156962 24.644952-9.778561 3.226429-20.177589 12.012242-30.278792-0.471555-2.283319-2.82933-5.311198 0.471555-7.445605 2.308138a34.373875 34.373875 0 0 1-17.869452 7.966797c-10.597577 1.638033-18.489918-4.71555-17.149709-15.288309 2.854148-22.187902-12.880896-32.611749-27.002727-43.680881-6.055759-4.740368-13.426907-2.903786-19.110385 2.854149-5.261561 5.336017-11.11877 8.612083-18.812561 5.137467-16.132144-2.481868-18.936655 11.069132-24.992414 20.748418-6.874775 11.912968-21.170336 9.679286-30.948897 16.2066a57.08297 57.08297 0 0 1-18.564374 8.984363 27.474281 27.474281 0 0 1-18.688468-4.591456c-14.494111-8.810632-33.182578-9.927473-44.499898-24.545677-3.970989-7.445605-5.137467-16.876704-13.451725-21.790803-8.810632 7.445605-17.373078 8.587264-25.935524-0.620467a14.022556 14.022556 0 0 0-13.575819-4.268814c-14.419654 2.854148-33.356309 26.953089-32.38838 41.521656 1.141659 17.224166-6.949231 23.478474-23.304743 17.546809a74.952421 74.952421 0 0 1-11.838512-6.576951c-2.481868-1.439484-4.318451-3.176791-7.793066-1.489121-24.818682 12.06188-45.616738-1.588396-44.673628-29.261227a31.122628 31.122628 0 0 0-2.481869-14.394836c-8.537627-18.862199-6.949231-24.620133 8.86027-36.706831 2.854148-2.184044 6.552132-3.623528 8.314259-8.686539-7.321511-2.63078-14.518929 2.332956-21.567435 0-16.529243-5.410473-30.576617-14.072193-41.323107-28.06993-4.963736-6.477676-5.08783-11.218044 1.464303-16.727792a210.660977 210.660977 0 0 0 36.781287-38.543413c-5.435291-0.223368-6.899594 3.052698-8.984363 4.963736-12.23561 11.664781-24.66977 23.180649-36.533101 35.242529-6.006121 6.105396-11.86333 6.40322-18.862198 2.481868-16.975979-9.431099-29.782419-23.627386-40.777096-38.965331C171.248909 362.352764 175.36881 346.543263 186.140118 343.118285c13.551001-5.46011 28.194023-3.970989 42.19176-6.701045 9.058819-1.786945 18.167276-3.400159 27.300551-5.187104a422.736618 422.736618 0 0 1-69.219305 9.60483c-12.905715-1.290571-20.599506-11.590325-29.38532-18.787743-19.854946-16.256237-38.394502-34.2746-44.27653-61.02914-1.191297-5.484929-5.410473-7.892341-9.927473-10.274934-9.927473-5.187105-19.854946-10.299753-29.286045-16.132144-5.435291-3.350522-10.051566-8.885088-7.271874-15.536495s9.282187-3.499434 14.345199-2.481868c32.264287 6.006121 62.046706 19.606759 93.020421 30.080243s62.046706 19.854946 94.956279 22.510545c11.912968 0.992747 22.510545 7.991616 34.746156 8.09089 4.095083 0 5.236742 3.499434 4.765187 7.247055a31.395633 31.395633 0 0 0 6.502495 23.279925c3.797258 5.162286 1.290571 9.009182-2.134407 13.153901-6.03094 7.445605-5.236742 13.923281 1.935857 20.525051 9.009182 8.314259 13.451726 20.301682 22.882825 28.715215 5.584204 4.963736 1.68767 11.366957-4.31845 15.337946-4.492182 2.953423-11.639962 7.445605-8.438352 11.937786 5.956484 8.140528-2.059951 24.818682 15.486857 25.538424a7.966797 7.966797 0 0 1 6.055759 3.871715c2.854148 3.970989 6.303945 6.899594 11.49105 4.641094s4.963736-7.098143 4.963736-11.664781a18.514737 18.514737 0 0 1 5.137468-13.501363c4.963736-5.385654 5.286379-9.058819-3.524253-10.37421-15.387583-2.332956-18.117638-8.711358-9.679286-25.439149-0.496374 14.022556 5.261561 19.706034 17.745358 18.390643a6.40322 6.40322 0 0 1 6.477676 6.452858c0.992747 14.667841 10.448665 25.687336 16.281055 38.220771 4.020627 8.562445 0.645286 16.132144-0.992747 24.098941-0.496374 2.332956-2.084769 4.963736 0 6.998868 2.754874 2.481868 5.385654 0 7.842704-1.216115 6.701044-3.549072 9.927473-8.562445 10.225297-16.77743 0.819017-17.373078-3.003061-31.817551-15.908776-44.673628a76.937916 76.937916 0 0 1-21.368885-47.924876 25.836248 25.836248 0 0 0-15.561314-20.996605c-10.870583-5.236742-11.218044-13.426907-11.515869-23.478474-0.421918-14.370017-4.963736-29.559051-13.575819-39.461705s-19.631578-18.415462-30.105062-27.027545c-2.208863-1.811764-4.119901-3.995808-6.179852-6.006121-1.985495-1.216115-1.191297-3.57389-2.184044-5.211924 0.992747-7.644154 6.279127-8.885088 12.657528-8.537626 4.517 0.273006 9.058819 0.670104 13.57582 0.719741a6.949231 6.949231 0 0 0 6.651406-4.715549c1.464302-3.474616-0.546011-5.708297-3.127154-7.172599C305.269794 200.758322 292.860453 182.293223 281.170853 163.1332c-2.308137-3.77244-6.477676-7.445605-2.481868-12.111517s9.207731-2.481868 13.575819 0c13.104264 7.321511 22.634638 19.20966 34.969524 27.548737a463.662625 463.662625 0 0 1 50.4812 41.025282c15.040122 13.575819 23.55293 27.151639 27.548738 45.517464a4.790006 4.790006 0 0 0 6.378401 4.095082c1.613214-0.347462 3.20161-0.843835 4.765187-1.31539 47.701508-14.419654 38.99015-8.363896 49.637365-52.789337 4.963736-20.028677 2.233681-40.206266 5.609022-60.110849 2.481868-15.189034 8.140528-27.846562 20.946968-37.848491 8.885088-6.97405 18.26655-6.378401 27.945836-7.445605 41.596112-4.963736 62.046706 18.192094 62.319712 54.601102 0 25.141325 5.286379 49.091354 9.927473 73.388844 2.283319 11.764055 7.445605 19.854946 19.606759 22.336814 0.794198 0.173731 1.489121 0.769379 2.283319 0.992747 9.505555 2.730055 19.532303 8.66172 28.44221 7.445605 10.721671-1.613214 6.750682-15.784682 11.366957-23.652204 4.963736-8.512808 8.016434-18.341006 19.408209-20.872512a7.073324 7.073324 0 0 0 3.747621-3.052698c19.854946-30.477342 55.643486-42.19176 80.263619-67.159355 2.481868-2.481868 6.477676-3.549072 9.927473-4.814824a6.725863 6.725863 0 0 1 7.842704 2.233681 6.452857 6.452857 0 0 1-0.248187 8.090891c-12.409341 18.738105-22.659457 39.486524-43.581606 51.22576-3.151973 1.762126-8.835451 2.878967-6.97405 8.612083s7.445605 6.229489 12.409341 5.162286c10.746489-2.308137 19.706034-1.240934 24.396765 10.34939 2.481868-1.116841 2.878967-0.049637 2.45705 1.88622z" p-id="2377"></path><path d="M251.835171 519.455023c5.782753 0.273006 11.590325 0.397099 17.373077 0.843836 9.282187 0.694923 16.082506 2.903786 21.09588 13.253176 7.222237 14.891209 22.957281 19.854946 38.61787 23.131012 1.166478 0.223368 2.754874-0.670104 3.648347-0.148912 15.114578 8.810632 30.998534 16.653336 44.673628 27.300551 6.006121 4.591456-1.786945 8.835451-6.899594 10.523121q-41.174194 13.675094-82.447663 27.027545c-9.927473 3.176791-19.854946 6.204671-29.782419 8.66172-8.86027 2.184044-11.615143 8.264621-12.409341 16.330693-0.843835 9.406281 0 18.440281 7.817885 24.818683 4.963736 4.045445 9.480737 0 13.650275-2.308138 32.264287-16.95116 64.528574-33.753408 97.462966-49.041716 14.097012-6.527313 15.139396-6.105396 14.89121 9.530374-0.148912 14.097012-1.389846 27.821743-8.140528 40.826733a40.404815 40.404815 0 0 0-1.985495 33.753408c2.754874 7.098143 1.240934 12.409341-3.921351 17.844632-11.86333 12.657528-23.106193 25.885886-34.746156 38.741964-4.219176 4.690731-8.041253 9.23255-0.967928 14.295561 6.179852 4.417725 12.955352 9.108456 19.383391 0.645285 8.239803-10.870583 16.156962-21.989353 23.875572-33.232215 4.492182-6.527313 7.271874-5.733116 11.590325 0.521192 18.291369 26.506353 36.582738 53.11198 62.046706 73.612212 5.83239 4.690731 7.693792 10.423847 1.092022 15.437221-7.445605 5.757934-4.641094 10.250116 0.496374 15.015302a38.24559 38.24559 0 0 0 16.032868 9.083638c3.598709 0.992747 7.445605 0.57083 8.066072-3.375341 2.308137-12.558253 8.512808-8.016434 14.345199-3.424978 25.861067 20.276864 51.647678 22.808369 78.35258 1.240934 5.509748-4.417725 13.824006-12.731984 16.851885 3.276066 0.769379 4.020627 5.211923 3.151973 8.463171 2.010314a42.663315 42.663315 0 0 0 16.454787-10.771308c4.119901-4.219176 5.609022-7.793066 0-12.161155-7.147781-5.484929-5.584204-11.416594 0.670104-16.405149 25.563243-20.450594 43.308601-47.527777 62.046706-73.686668 4.616275-6.452857 7.445605-6.428039 11.639962-0.248187 7.271874 10.54794 15.089759 20.7236 22.336814 31.345996 6.328764 9.406281 13.00499 6.353583 19.854946 1.31539 8.463171-6.080577 3.350522-10.895402-1.414665-16.00805-10.969858-11.813693-21.617072-23.92521-32.636567-35.689265-5.584204-5.981302-7.594517-12.185973-4.566638-20.227227 4.814824-12.905715 1.985495-25.290237-4.045445-37.079111-7.321511-14.32038-6.353583-29.782419-5.683478-44.921815 0.397099-8.959544 6.701044-4.963736 10.820945-2.928605 32.884754 16.454786 65.769508 32.934392 98.480532 49.761458 14.072193 7.271874 22.510545 3.151973 24.198216-12.707165s-3.151973-22.60982-18.415463-26.779358c-35.912633-9.927473-71.00625-22.163083-106.248779-34.026414-3.524253-1.191297-7.569698-1.88622-8.314259-6.353583-0.893473-5.261561 3.474616-7.048506 6.949231-9.108456 11.292501-6.701044 24.29749-10.647215 33.381128-20.996605 1.067203-1.240934 3.77244-1.265753 5.757935-1.439484 19.854946-1.811764 36.409007-8.984363 45.244458-28.392573a10.54794 10.54794 0 0 1 4.790005-5.435291c29.509413-15.089759 68.623657-1.538758 83.043312 28.839309 14.891209 31.296359 1.911039 63.411734-31.64382 76.764185-8.165347 3.251247-11.317319 7.098143-8.686539 15.610951a27.12682 27.12682 0 0 1-4.467363 25.910704c-6.179852 7.619336-5.708297 13.923281-1.88622 22.535364 14.221105 32.065738-0.967929 67.481998-32.611749 77.856207a23.180649 23.180649 0 0 1-8.413533 1.960676c-18.192094-1.563577-34.597243 0.918291-49.860733 12.980171-5.83239 4.616275-10.473484 7.445605-11.590325 15.213852a58.249448 58.249448 0 0 1-23.031737 39.461705c-16.827067 12.930534-34.522787 14.891209-53.484261 6.576951-6.527313-2.903786-11.11877-3.474616-15.958412 2.953423a23.404018 23.404018 0 0 1-11.714419 8.736176c-14.469292 3.598709-22.014171 13.253176-29.633506 25.43915-22.336814 35.78854-70.385783 33.976776-91.580939-3.127154-5.882028-10.324572-11.86333-18.589193-24.09894-20.7236a9.356643 9.356643 0 0 1-5.46011-2.730055c-10.622396-13.625457-22.709094-11.292501-37.699579-7.048506-27.474281 7.793066-56.834783-13.873643-63.386915-45.095546-2.184044-10.374209-7.197418-15.213852-15.834319-21.691528-13.997737-10.498303-27.672831-10.299753-43.184508-10.820946-36.855743-1.216115-60.011574-41.050101-45.294095-77.732113 4.045445-10.126022 5.906846-17.794995-2.059951-26.878633-6.006121-6.849956-5.584204-16.181781-3.350522-24.818683 1.88622-7.445605-0.719742-11.416594-7.892341-14.146649-21.741166-8.314259-36.309732-23.205468-38.04704-47.304409-1.985495-27.449463 12.086698-46.262024 34.746155-59.564837 7.495242-4.442544 15.536495-1.662852 23.255106-2.407413z" p-id="2378"></path><path d="M612.698813 514.590562a32.835117 32.835117 0 0 1 3.77244-3.226429c8.66172-5.559385 14.742297-18.142457 28.541485-8.810632 18.216913 12.409341 23.850754 24.024485 19.234479 41.869117a49.637365 49.637365 0 0 0-1.389846 14.69266c1.538758 29.658326 3.176791 59.316651 5.187104 88.950158 0.446736 6.502495 0.819017 13.451726 4.616275 19.085567 11.714418 17.373078 9.530374 35.068798-0.819016 51.275398-13.104264 20.475413-25.190963 41.670568-40.628184 60.656859a263.351039 263.351039 0 0 1-90.017361 70.410602 29.782419 29.782419 0 0 1-28.268479 0A263.301402 263.301402 0 0 1 402.062655 749.89649c-5.906846-9.455918-12.285248-18.589193-17.943907-28.169205-10.473484-17.695721-14.891209-35.738903-2.481868-54.601101 4.517-6.800319 4.442544-15.040122 4.963736-22.733913 2.059951-28.81449 3.57389-57.653799 4.963737-86.493108a44.673628 44.673628 0 0 0-1.662852-13.426908c-4.765187-18.043182 7.222237-39.709892 24.818683-44.872178a12.831259 12.831259 0 0 1 11.590324 2.680418c5.336017 3.846896 10.324572 8.190165 15.486858 12.409341 1.067203 8.041253-2.481868 14.270742-7.098143 20.500232-2.134407 2.854148-7.768248 6.998868-0.248187 10.622396a8.487989 8.487989 0 0 1 3.102335-1.116841c12.086698-2.233681 12.086698-2.233681 19.358573 18.812562 2.680418-2.481868 3.052698-6.626588 6.080577-8.885089a9.282187 9.282187 0 0 1 4.963736-1.265752c6.353583 1.141659 9.182913-1.737308 9.108457-7.966797 0-3.648346-2.233681-7.073324-1.216116-10.895402 8.810632-8.537627 16.330693-1.290571 23.726661 2.357775 10.771308 5.311198 20.822875 12.607891 33.877501 8.636901a105.926137 105.926137 0 0 0 22.60982-9.778561c5.584204-3.151973 11.739237-6.97405 18.83738-3.474615 2.357775 2.730055 1.662852 6.130215 1.960676 9.307006 0.546011 6.006121-0.843835 13.129083 9.927473 7.644154 6.626588-3.375341 7.91716 4.616275 10.299753 9.034 0.719742 0.967929 0.148912 2.332956 1.092022 3.226429a45.691194 45.691194 0 0 1 1.017566-4.790006c4.243995-15.238671 6.353583-16.256237 21.046243-10.175659a4.517 4.517 0 0 0 2.05995 0.124093c2.928605-6.279127-1.489121-10.126022-4.616274-14.221105-3.822077-5.385654-7.594517-10.622396-4.988556-17.794995zM266.72638 157.772364c-11.689599-1.836583-21.09588-9.108456-31.941644-12.781621-4.641094-1.563577-9.927473-4.243995-13.873644 0.273005s0.521192 8.984363 2.2585 13.426908c3.176791 8.190165 9.23255 14.419654 13.774369 20.649143-34.051232 8.66172-64.007382-2.481868-93.070059-18.614012-25.091688-13.997737-52.466695-23.751479-73.26475-45.294095-13.302814-13.774369-21.840441-29.782419-29.782419-46.53503-1.662852-3.474616-4.517-7.941978-0.868654-11.49105s7.743429-0.694923 11.565506 0.670105c2.63078 0.918291 4.963736 3.176791 9.679286 1.836582L25.017232 2.084769C31.27154-1.414665 34.746155 2.481868 38.121496 4.392907 60.061211 17.596446 81.901652 31.122628 103.692455 44.375804c3.20161 1.960676 7.122962 7.247055 10.572759 3.003061 4.14472-4.963736-2.308137-7.966797-5.336017-10.523122-9.654467-8.264621-20.003858-15.933594-29.980968-23.974847-2.730055-2.208863-7.296693-4.690731-4.268814-8.760995s6.701044-0.173731 9.580012 1.712489a855.00361 855.00361 0 0 1 115.08423 91.829125C221.283373 118.136928 243.049357 138.984622 266.72638 157.772364zM1030.322783 0l-37.922947 61.004321a20.500232 20.500232 0 0 0 3.623528 0.19855c6.428039-1.439484 13.551001-9.927473 18.911836-2.978242 4.318451 5.609022-2.680418 12.880896-5.460111 19.160023-13.277995 29.95615-35.068798 51.523585-64.528574 65.595778q-37.501029 17.844633-74.704234 36.260095c-6.97405 3.474616-13.724731 4.963736-21.344067 2.63078-10.324572-3.226429-20.946968-1.489121-34.324238 0.670104 8.28944-9.927473 14.394836-17.621265 18.440281-26.580809 1.563577-3.424978 3.896533-6.800319 1.092022-10.34939s-7.445605-3.424978-11.416594-1.811764c-7.619336 3.176791-14.891209 6.924412-22.535363 10.274935-3.995808 1.786945-7.743429 4.641094-13.277995 3.598709 39.337612-31.023353 73.860399-66.563706 111.435884-98.679082 22.336814-19.060748 46.410936-35.838177 70.534695-52.541151 3.077517-2.134407 7.073324-7.048506 10.572759-2.481868s-2.084769 7.098143-4.963736 9.530374c-9.530374 7.91716-19.433028 15.387583-28.864128 23.453655-3.027879 2.481868-9.60483 5.211923-5.410473 10.423847 3.474616 4.318451 7.445605-0.868654 10.622396-2.82933 20.450594-12.409341 40.702639-25.339875 61.202871-37.724397 4.591456-2.928605 9.23255-6.676226 18.316188-6.825138zM768.485683 259.777149c16.504424-2.730055 29.782419-6.725863 41.149375-14.419654 4.293632-2.903786 17.050435-4.417725 5.336017-14.146649-2.233681-1.836583-0.719742-3.549072 0.94311-4.963737 17.89427-15.337946 33.554859-32.760661 56.661052-42.19176a576.438718 576.438718 0 0 0 113.644747-60.45831c18.018363-12.607891 39.1887-17.373078 59.093283-25.215782 7.71861-3.077517 10.622396 1.737308 8.140528 8.190165-5.46011 14.12183-10.324572 29.161952-21.66671 39.709892-20.599506 19.060748-42.56404 36.657194-63.436552 55.469756-25.463968 22.957281-58.19981 28.839309-89.223164 38.022221s-62.592717 15.43722-93.963531 22.833188c-4.268813 0.967929-8.760995 2.779692-16.678155-2.82933zM284.844018 259.181501c-5.162286 6.204671-9.034 4.740368-12.409341 4.020626-52.119233-10.92022-104.039917-23.329561-154.248111-41.695386-19.085567-6.97405-33.405947-21.09588-48.694255-33.554859-11.838512-9.654467-22.585001-20.698781-34.746156-29.931331-15.834319-12.037061-24.223034-28.839309-32.264287-45.989018C0.446736 107.93645-1.588396 103.047169 1.861401 99.27473s7.619336 0 11.441413 0.819016c36.781287 8.463171 65.74469 32.264287 97.785609 49.960008A903.821958 903.821958 0 0 0 192.592976 189.192816c19.135204 8.190165 30.799985 25.315056 46.410936 37.699579 1.389846 1.116841 2.134407 2.82933 0.57083 4.243995-11.441413 10.448665 1.464302 11.391775 6.105395 14.593385 11.143588 7.644154 23.92521 11.739237 39.163881 13.451726zM159.087754 601.505588c-4.417725-3.57389-8.686539-0.620467-12.905714 0.421917a148.912095 148.912095 0 0 1-47.875239 3.970989 55.420118 55.420118 0 0 1-29.608688-11.193225c-21.66671-16.2066-40.702639-34.746155-54.799651-58.001261-4.641094-7.644154-3.995808-12.80644 5.385654-15.83432 50.530837-16.38033 97.76079-9.480737 141.019754 21.021424 15.089759 10.622396 16.00805 27.821743 15.536495 44.673629 0 4.119901-2.779692 5.286379-6.651407 5.609022s-6.477676 1.960676-4.814824 6.552132a3.747621 3.747621 0 0 1-5.28638 2.779693zM888.682562 599.073357c0.992747-2.481868 1.216115-6.279127-1.265753-6.40322-11.764055-0.620467-9.133275-8.959544-8.860269-15.710226 0.694923-18.564374 7.941978-33.356309 25.017232-42.464766 41.074919-21.890078 83.713416-29.062677 129.057148-14.643023 9.927473 3.151973 14.047374 6.899594 7.445605 17.373078-16.628517 26.282985-37.600304 48.669436-64.652668 63.312459-20.798056 11.242863-44.326167 5.906846-66.737437 1.464302-4.219176-0.843835-9.455918-5.683478-12.607891 1.836583a4.219176 4.219176 0 0 1-3.37534 0.843835 6.353583 6.353583 0 0 1-4.020627-5.609022z" p-id="2379"></path><path d="M893.323656 603.937818h2.605961c29.534232 10.399028 58.77064 20.748419 82.174658 43.432695 24.520858 23.776298 29.782419 54.303277 33.951957 85.599635 0.670104 4.963736-0.868654 9.257369-7.445604 8.339078-38.766782-5.311198-75.870712-13.675094-98.728719-50.431563-12.980171-20.872512-9.927473-43.631244-8.909907-66.241063 0.148912-3.276066 1.762126-7.197418 0.471555-9.679287-1.638033-3.20161-2.357775 1.389846-3.871715 1.811764-5.435291-4.243995-9.331825-8.463171-0.248186-12.831259zM158.690656 641.364392c3.151973 54.601101-28.169205 81.901652-82.348389 95.899388-7.445605 1.960676-15.561314 1.935857-23.155831 3.722803-9.927473 2.332956-11.565506-2.82933-10.870582-10.696852 4.963736-57.579343 30.601435-99.07618 97.735971-118.658121a47.155497 47.155497 0 0 0 13.824006-7.668973c9.058819 2.233681 6.353583 9.331825 5.137467 14.593385a54.005453 54.005453 0 0 0-0.322642 22.80837zM661.219338 885.207947c4.392907 14.196286 7.247055 27.052364 17.646083 36.607556 14.742297 13.501363 30.948897 11.838512 41.521655-4.963736 6.97405-11.168407 7.693792-23.279924 5.882028-35.838178-0.57083-3.946171-3.375341-8.612083 0.57083-11.615143 4.740368-3.648346 9.927473-0.37228 13.675094 2.308137 20.475413 14.643023 37.054293 32.760661 47.453321 55.966129a92.548867 92.548867 0 0 1 8.909907 38.270408c0 10.349391-3.797258 15.660589-14.146649 18.216913-27.573556 6.874775-51.275398-0.496374-72.793196-17.720539a156.15915 156.15915 0 0 1-49.637365-66.712618c-1.51394-4.095083-4.169539-8.314259 0.918292-14.518929zM393.450573 885.158309c4.616275 5.782753 2.481868 9.927473 0.918291 13.352451-14.171468 34.150507-35.78854 61.748882-68.871844 79.86652-18.83738 10.299753-37.997403 9.182913-57.703436 4.71555-6.552132-1.489121-9.431099-5.931665-9.927473-12.409341a85.798185 85.798185 0 0 1 4.963736-35.242529c9.927473-26.953089 28.293298-47.155497 50.927936-63.85847 3.499434-2.481868 8.016434-5.484929 12.607891-2.730055s1.588396 7.445605 1.290572 11.317319c-1.042385 13.352451-1.092022 26.332622 6.849956 38.171134 9.927473 14.667841 26.18371 16.901523 39.188699 4.963736a46.013837 46.013837 0 0 0 12.185974-16.95116c2.804511-6.527313 4.814824-13.17872 7.569698-21.195155zM975.17567 859.297242c-27.002726-2.481868-53.062343-15.735045-76.267811-35.441078-6.254308-5.311198-4.566638-9.158094 1.811764-13.37727 16.305874-10.820946 19.060748-19.011111 13.774369-37.575486-3.127154-11.044314 1.935857-26.580809 10.945039-32.76066 6.428039-4.417725 12.161154-0.645286 17.075253 2.854148a113.346923 113.346923 0 0 1 44.301348 62.443805c3.499434 12.210792 7.743429 24.471221 8.165347 37.451392 0.471555 14.295561-1.762126 16.678155-19.805309 16.405149zM74.183042 859.421335c-9.927473 1.042385-15.486858-2.481868-14.593385-13.079445 3.325703-39.139062 15.313127-74.307135 47.304408-99.746285 6.155033-4.963736 14.270742-13.029808 21.691529-6.055758s16.156962 16.082506 11.962605 29.137133c-2.233681 7.023687-5.08783 14.022556-2.655599 21.716347 2.705236 8.612083 7.271874 15.561314 15.859138 19.457847 6.055759 2.754874 8.686539 6.899594 2.481868 12.111517-23.950029 19.929402-50.233013 34.572425-82.050564 36.458644zM448.225405 988.701852c-0.719742-24.396765 2.605962-47.85042 15.486858-69.070393 2.779692-4.541819 5.981302-8.835451 9.158093-13.104264 6.105396-8.214984 11.317319-6.825138 19.284117-0.744561 13.848825 10.572759 22.585001 19.979039 12.905715 39.064606-6.204671 12.23561 2.233681 24.992413 8.934725 35.763722 4.963736 7.91716 3.375341 12.23561-3.524253 17.373078a273.675611 273.675611 0 0 1-37.67476 23.577748c-9.158094 4.665912-14.767116 2.208863-18.738105-6.576951a62.989816 62.989816 0 0 1-5.83239-26.282985zM605.699945 983.117649a58.596909 58.596909 0 0 1-6.97405 34.125688c-3.276066 5.956484-7.296693 8.537627-14.097011 5.435292a188.820536 188.820536 0 0 1-42.985958-26.75454c-5.137467-4.293632-5.857209-8.339077-2.109588-13.774369 11.714418-16.95116 14.543748-34.746155 4.541818-53.558717-1.141659-2.159225-3.027879-5.609022-0.819016-6.7755 10.423847-5.46011 16.777429-16.132144 27.052364-21.219973 5.906846-2.928605 9.60483 3.747621 12.657528 7.71861 16.305874 21.071061 23.180649 45.269277 22.733913 74.803509z" p-id="2380"></path><path d="M159.087754 601.505588l5.28638-2.779693c8.388715 10.076385 9.704105 23.180649 14.891209 34.746156 9.23255 3.995808 9.009182 12.409341 9.307006 20.376138 21.071061 56.611415 57.951623 102.401884 99.547735 144.916287 2.779692 2.878967 5.286379 5.534566 7.718611-0.94311 2.854148-7.445605 6.353583-3.57389 7.445604 0.94311 7.445605 28.740034 30.253974 43.234145 53.335349 57.306337 2.481868 1.464302 7.048506 8.835451 9.927473-0.868654 0.992747-3.400159 4.343269-0.868654 5.906846 0.819017 20.450594 22.138265 47.577414 16.702973 73.115839 17.745358 3.474616 0.148912 7.147781-2.779692 11.987423 2.481868a64.751942 64.751942 0 0 1-34.2746 7.445605c-34.373875-1.613214-67.010443-9.133275-95.105191-30.750348-6.626588-5.112649-12.80644-11.391775-20.798056 0.992748 1.712489-25.61288-17.373078-36.16082-31.519727-49.860733-41.670568-40.429634-75.969987-85.947097-98.356438-139.902913a86.64202 86.64202 0 0 0-6.155033-10.672034h0.17373l-10.274934-31.817551c-4.963736-6.328764-3.871714-13.402089-2.481868-20.500231z" p-id="2381"></path><path d="M893.323656 603.937818c-2.283319 4.293632 0 8.512808 0.148912 12.781622a375.556303 375.556303 0 0 1-53.409805 114.960137c-21.368886 30.477342-45.194821 58.894733-73.637031 83.365954-10.721671 9.207731-21.914897 19.457847-18.961473 40.330359-9.009182-12.905715-14.891209-7.445605-21.617072-2.481868-34.001595 24.198215-71.701174 34.572425-113.39656 28.665578a65.496503 65.496503 0 0 1-10.771309-2.804511 15.859138 15.859138 0 0 1-3.747621-2.481868c0.670104-4.169539 3.375341-3.896533 5.757935-3.40016 16.975979 3.57389 33.728589-0.347462 50.555656-1.662851 8.835451-0.694923 16.305874-4.963736 23.304743-10.597578 3.027879-2.481868 6.725863-14.196286 12.409341-1.588395a13.650275 13.650275 0 0 0 5.435291-1.638034c23.428836-14.245924 47.031403-28.243661 55.221569-57.281519 1.216115-4.268813 3.970989-10.399028 8.066071-1.836582 3.176791 6.626588 5.609022 2.605962 7.991616 0.198549 43.383057-44.375804 80.884086-92.722598 102.054422-152.01443 0.347462-8.760995 1.439484-17.199347 9.480737-22.758731 2.779692-8.487989 3.375341-17.89427 10.399028-24.570496a7.668973 7.668973 0 0 1 4.71555 4.814824z" p-id="2382"></path><path d="M863.690149 812.687756c2.208863 21.592254-3.57389 44.524716-13.699913 66.737437-4.045445 8.909907-7.445605 9.753742-12.880896 1.092023-16.827067-26.55599-29.484595-54.352915-29.01304-86.691658a14.618204 14.618204 0 0 1 2.730055-9.158094c9.778561-13.302814 19.184842-26.903452 29.186771-40.032535 7.197418-9.455918 12.185973-8.562445 16.156962 2.705237 7.073324 20.177589 7.892341 41.223832 7.520061 65.34759zM190.855668 812.464388c0-24.545677 0-45.194821 7.445605-64.925673 1.414665-3.77244 2.208863-8.463171 7.445604-8.885088s7.122962 3.474616 9.530374 6.825137c9.133275 12.707165 18.415462 25.339875 27.300551 38.195953 6.527313 9.406281 4.020627 20.276864 2.308138 30.030605a165.069057 165.069057 0 0 1-28.44221 67.82946c-6.229489 8.785814-8.86027 5.187105-12.185974-2.059951-10.423847-22.560182-15.63577-46.038656-13.402088-67.010443zM285.117024 832.443428c-5.112649 30.750348-14.072193 59.242195-33.554859 83.465229-4.293632 5.336017-7.073324 4.343269-8.959544-2.233682-5.807572-20.15277-13.00499-39.511342-1.464302-60.83059C248.186824 839.591208 250.668693 823.980257 250.668693 808.418943c0-3.251247-0.248187-7.073324 3.300884-8.760995 4.368088-2.059951 6.924412 1.563577 9.331825 4.169539 8.388715 8.885088 19.160023 16.032869 21.815622 28.615941zM820.679372 876.347677c-1.141659 13.873643-5.385654 26.456715-9.803379 38.841238-2.978242 8.413533-6.874775 1.935857-9.307006-1.166478-13.476545-17.124891-21.691528-36.682013-27.300551-57.628981-7.445605-27.300551-3.846896-38.121496 19.184842-54.849288 4.665912-3.400159 9.753742-4.020627 9.803379 2.481868 0.148912 24.545677 8.760995 46.783216 17.100072 69.194487a12.185973 12.185973 0 0 1 0.322643 3.127154zM171.248909 653.45109c2.481868 18.614012 9.778561 35.714084 16.305874 53.087162 9.182913 24.421584 4.591456 39.709892-15.983231 55.023019-4.963736 3.722802-9.927473 4.293632-14.568567 0a105.057483 105.057483 0 0 1-12.161154-12.26043c-12.012242-15.089759-12.707165-21.443342-0.918292-36.582737s20.103133-31.023353 22.113447-50.10892c0.397099-3.747621 1.365028-7.445605 5.385654-9.083638zM884.835666 655.759227c1.414665 2.481868 2.680418 3.871714 2.804511 5.261561 2.035132 23.304743 14.072193 41.745024 28.591123 58.919552a11.416594 11.416594 0 0 1 2.481868 12.409341 64.528574 64.528574 0 0 1-21.443342 29.58387c-5.509748 4.392907-10.647215 3.251247-15.660588-0.794198-19.58194-15.759863-23.602567-30.725529-14.89121-54.452189 5.956484-16.57888 11.86333-33.108122 18.117638-50.927937zM431.646525 920.54975a114.165939 114.165939 0 0 1-3.102335 36.682013c-1.911039 7.098143-5.112649 8.463171-11.466232 5.211923-7.445605-3.722802-14.891209-6.800319-20.872512-12.880896-8.239803-8.537627-13.675094-16.901523-5.137467-29.062677a55.842035 55.842035 0 0 0 8.314259-21.741166c2.159225-11.813693 9.431099-12.533435 18.986292-11.86333 9.927473 0.694923 13.774369 5.65866 13.352451 15.139396-0.297824 6.155033-0.074456 12.334885-0.074456 18.514737zM622.775198 919.035811v-14.89121c-0.124093-8.86027 0.94311-16.231418 12.409342-17.373078 10.945039-1.017566 18.142457 0.868654 20.276863 13.451726a53.360167 53.360167 0 0 0 8.413534 21.741166c7.023687 9.679286 3.424978 16.802248-2.630781 24.223034-6.725863 8.28944-15.983231 12.707165-25.588061 16.678155-6.155033 2.481868-8.959544 0.620467-10.274935-5.882028a150.823133 150.823133 0 0 1-2.605962-37.947765zM866.345748 643.871078c-4.71555 8.165347-9.381462 16.355512-14.146649 24.520859-1.191297 2.035132-2.184044 4.963736-5.112649 4.417725s-2.928605-3.57389-3.648346-5.906846c-7.222237-23.55293-0.347462-43.606425 15.759863-61.02914 3.797258-4.119901 8.760995-8.612083 15.089759-5.28638s2.283319 9.381462 1.88622 14.32038c0 1.240934-0.248187 2.481868-0.37228 3.673165-1.613214 9.009182-1.092022 18.812561-9.455918 25.290237zM181.623118 630.915726c-1.464302-6.849956-2.978242-13.675094-4.368088-20.549869-0.74456-3.697984-1.31539-7.445605 2.878967-9.778561a9.158094 9.158094 0 0 1 9.356643 0.893473c18.390644 10.250116 30.12988 47.155497 21.046243 66.092151-3.003061 6.229489-5.683478 4.591456-8.587264 0-3.623528-5.509748-7.197418-11.044314-10.796127-16.554061-6.651407-5.013374-7.222237-12.955352-9.530374-20.103133zM357.935038 877.092237a23.081375 23.081375 0 0 1 21.840441 23.55293c-0.248187 10.92022-10.796127 20.574688-22.336815 20.400957-10.796127-0.173731-20.078314-11.540687-19.854945-24.223034s8.041253-19.954221 20.351319-19.730853zM716.813186 896.972002c0 12.583072-9.480737 23.92521-20.078314 24.173397a21.517798 21.517798 0 0 1-21.914897-20.574688 22.535364 22.535364 0 0 1 21.765985-23.453655c12.310066 0 20.276864 7.793066 20.227226 19.854946z" p-id="2383"></path><path d="M184.005712 787.124514a18.092819 18.092819 0 0 1-12.111517 18.514737c-8.959544 3.747621-16.107325 0-22.03899-6.254308a20.500232 20.500232 0 0 1-3.598709-22.957282c2.184044-5.360835 5.633841-9.505555 11.962605-3.846895a11.937786 11.937786 0 0 0 11.590324 2.184044c11.788874-3.102335 14.32038-1.067203 14.196287 12.359704zM908.512689 786.181404c0.967929 8.909907-3.623528 15.561314-12.583072 19.433028-7.867522 3.400159-14.891209 1.042385-20.301682-4.71555-6.924412-7.271874-7.991616-15.983231-4.119901-25.290237 1.911039-4.641094 4.392907-6.899594 9.207731-2.903786a12.409341 12.409341 0 0 0 12.880896 1.538758c12.06188-4.492182 14.767116-2.531506 14.916028 11.937787z" p-id="2384"></path><path d="M541.047277 949.389059c0 10.374209-9.530374 27.300551-14.32038 24.818683-9.530374-4.963736-12.80644-14.494111-13.153901-24.818683-0.322643-9.455918 3.549072-17.596446 8.835451-25.2406 3.474616-4.963736 6.279127-4.14472 9.530374 0.148912a40.826733 40.826733 0 0 1 9.108456 25.091688z" p-id="2385"></path><path d="M439.290679 549.28708c-2.308137 6.279127-4.963736 14.022556-13.327632 9.431099-7.445605-4.045445-4.690731-10.945039-0.819017-17.000797 5.683478-8.959544 11.11877-18.068001 16.678155-27.102002h2.481868c9.530374 6.750682 22.063809 5.484929 31.743095 11.888149a6.849956 6.849956 0 0 1 0.546011 5.08783 13.724731 13.724731 0 0 1-6.552132 6.527314c1.51394 0 2.705236-1.290571 4.243994-1.563577a13.104264 13.104264 0 0 1 4.963737 0.148912c1.216115 4.690731 2.705236 9.356643 3.57389 14.12183s2.779692 11.019495-2.134407 13.451726c-6.080577 3.027879-8.711358-3.697984-12.061879-7.445605-2.754874-1.365028-3.077517-5.633841-7.048506-5.782753 3.549072 0.843835 4.963736 2.481868 2.605962 5.782753-1.365028 7.445605 3.499434 20.003858-7.817885 19.854946-10.672033 0-7.445605-13.054627-7.966797-20.400957S446.736284 546.011014 439.290679 549.386354l-0.843835-0.694923z" p-id="2386"></path><path d="M474.036835 526.975084c-16.603699 3.102335-25.091688-0.421918-29.782419-12.409341a67.829459 67.829459 0 0 0 10.473484-17.646083c16.082506-3.896533 14.221105 9.133275 16.901522 17.89427 1.489121 3.896533 5.83239 7.296693 2.407413 12.161154zM295.590508 231.930587c0.74456 1.737308 1.464302 3.474616 2.184044 5.211924-18.142457-0.967929-28.864128-13.972918-24.421584-30.452524 1.265753-4.591456-0.843835-6.750682-3.102335-9.753742a106.000593 106.000593 0 0 1-11.069132-16.38033c-4.740368-9.580011-0.124093-15.983231 10.870583-16.156963-6.428039 11.764055-4.690731 18.192094 8.388714 30.353249 3.896533 3.623528 8.711358 6.279127 4.641094 13.228358-6.701044 11.391775-1.563577 20.7236 12.508616 23.950028z" p-id="2387"></path><path d="M764.142414 236.472406l-2.233682-2.109588c3.300885-4.690731 8.686539-7.445605 11.267682-12.955352 2.059951-4.392907 4.070264-8.339077-0.496374-12.111517-6.006121-4.963736-3.846896-9.108456 1.14166-12.955352a40.826733 40.826733 0 0 0 9.629649-11.069133c6.725863-10.672033 6.899594-10.572759-1.067204-19.557121 9.083638-3.57389 15.313127 1.340209 14.047374 10.994676-0.670104 5.236742-4.243995 8.835451-7.098143 12.80644-5.112649 7.172599-11.441413 11.888149-6.676225 24.123759 4.293632 11.093951-9.282187 17.397896-18.514737 22.833188z" p-id="2388"></path><path d="M617.985193 554.37491c-3.822077-1.489121-4.963736-8.388715-9.381462-6.701045-5.08783 1.935857-2.2585 7.966797-2.953423 12.185973-1.116841 6.800319 1.911039 17.720539-8.562446 17.000798-8.835451-0.620467-6.055759-10.796127-6.229489-17.497171a10.250116 10.250116 0 0 1 2.481868-2.035132c7.147781-2.159225 3.400159-6.155033 1.662852-9.80338a13.699913 13.699913 0 0 1-0.273006-3.325703c1.414665-4.243995 1.017566-8.760995 1.960676-13.054627 0.446736-2.2585 1.141659-4.467363 1.538758-6.750682 1.861401-5.906846 7.71861-6.825138 12.037061-9.679286h2.481869c6.03094 10.771308 13.997737 20.425776 18.614012 32.040919 1.88622 4.740368 1.464302 9.307006-2.804512 12.185973-5.286379 3.598709-8.239803-0.297824-10.647214-4.541819a25.190963 25.190963 0 0 0 3.052698-3.251247 34.349056 34.349056 0 0 1-2.978242 3.226429z" p-id="2389"></path><path d="M729.669264 276.728309c8.959544 3.226429 11.515869 10.150841 7.296692 18.117638a60.632041 60.632041 0 0 0-5.931665 20.971787c-2.233681 16.2066-16.454786 28.864128-34.746155 29.782419 30.601435-13.799187 29.707963-41.422381 33.381128-68.871844z" p-id="2390"></path><path d="M610.266582 514.714655c0.74456 5.981302-4.765187 7.991616-7.445604 11.813693-8.066072 5.609022-16.132144 10.696852-24.074122-0.173731a11.218044 11.218044 0 0 1 0.769379-6.105396c1.613214-5.509748 3.946171-10.771308 5.882028-16.181781 3.946171-11.069132 9.23255-11.441413 17.025616-1.811764 2.63078 4.045445 5.236742 8.314259 7.842703 12.458979z" p-id="2391"></path><path d="M357.389027 346.096527c-23.329561-4.839643-32.413199-15.288308-34.597243-37.625123-0.471555-4.814824-3.003061-8.363896-4.963737-12.409341-3.921352-8.066072-2.978242-14.891209 5.65866-18.713287C330.088476 302.986475 326.365674 332.570345 357.389027 346.096527z" p-id="2392"></path><path d="M868.653885 343.217559c-39.709892-2.308137-71.676355-8.711358-85.549998-17.89427 27.772106 9.133275 57.08297 9.158094 85.401086 15.486858z" p-id="2393"></path><path d="M186.264212 340.834966c13.848825-4.566638 28.491847-4.194357 42.688133-6.60177s28.293298-5.360835 42.439947-8.066071c-27.052364 12.409341-56.363228 13.873643-85.32663 16.95116 0.074456-0.769379 0.074456-1.51394 0.19855-2.283319z" p-id="2394"></path><path d="M602.423879 502.255676c-8.041253-7.197418-13.054627-4.467363-16.281056 4.814825-1.489121 4.268813-3.325703 8.413533-4.963736 12.607891-0.94311 1.51394-1.861401 1.489121-2.754874 0 1.414665-4.293632 2.779692-8.587264 4.219176-12.856078 5.609022-16.727792 11.540687-17.943907 23.279924-4.814824z" p-id="2395"></path><path d="M866.345748 643.871078l9.455918-25.290237c0.843835 1.68767 1.662852 3.375341 2.481868 4.963737a59.018827 59.018827 0 0 1-9.480737 22.758731z" p-id="2396"></path><path d="M158.566562 601.257401c0.868654 6.825138 1.712489 13.675094 2.481868 20.500231-3.449797 6.204671-1.538758 13.079446-2.481868 19.60676-5.385654-11.987424 1.191297-25.488787-4.71555-37.401755z" p-id="2397"></path><path d="M181.623118 630.915726l9.480737 20.202408-2.705237 2.655599c-4.591456-6.105396-6.378401-13.501363-9.307006-20.376139z" p-id="2398"></path><path d="M732.00222 540.873546c-2.308137 4.517-6.527313 6.552132-10.696852 2.953424a51.498766 51.498766 0 0 1-14.171468-22.709095c-1.439484-4.045445 0.645286-6.378401 5.187105-5.46011 2.45705 0.57083 19.830127 22.585001 19.681215 25.215781zM348.206115 520.050672c-4.318451 8.934726-8.264621 17.546808-15.288309 24.09894-2.82933 2.63078-6.353583 1.414665-8.934725-0.992747s-0.843835-5.162286 0.992747-7.445605c4.839643-6.105396 9.60483-12.409341 14.568566-18.291369a4.665912 4.665912 0 0 1 6.552133-1.290571c1.092022 0.769379 1.365028 2.581143 2.109588 3.921352z" p-id="2399"></path><path d="M749.52421 355.899906a98.257164 98.257164 0 0 0 2.481868 10.771308c3.697984 10.895402-1.067203 16.901523-12.210792 19.854946 14.097012-7.445605 4.219176-21.170336 9.654468-30.775166z" p-id="2400"></path><path d="M726.34356 476.518703c11.069132 4.71555 20.673962 10.895402 26.481534 21.691528z" p-id="2401"></path><path d="M783.128706 319.614992c5.633841-5.782753 13.054627-9.927473 14.543748-18.986292 2.506687 11.888149-4.566638 16.628517-14.543748 18.986292z" p-id="2402"></path><path d="M573.534932 534.346233h4.566638c0.57083-0.347462 0.843835-0.74456 0.794198-1.216116s-0.173731-0.794198-0.322643-0.794197c0.670104-2.605962 1.365028-5.211923 2.035132-7.842704 6.825138 7.321511 14.891209 1.216115 22.212721 1.960676l-2.159226 5.162286c-3.102335 3.747621-0.223368 8.760995-2.481868 12.657528v1.960676c-1.191297 4.616275 1.836583 10.994676-5.435291 13.079445h-1.88622c-1.166478-1.638033 1.960676-8.066072-4.268814-3.970989-1.265753 0.819017-1.68767 2.804511-2.730055 4.045445-2.63078 3.052698-5.261561 7.445605-9.927473 5.509748s-3.151973-7.172599-2.854148-11.069132c0.546011-6.502495 1.613214-12.980171 2.457049-19.482666z" p-id="2403"></path><path d="M464.109362 556.80714c-1.31539-1.240934-1.935857-0.546011-2.332957 0.819017-1.265753 4.343269 0.620467 10.647215-6.080577 11.714418-2.680418 0.421918-3.747621-2.928605-3.822077-5.360835-0.198549-5.584204-2.010313-12.185973 4.045445-15.536495 4.790006-2.655599 8.339077 1.216115 11.019495 5.087829a28.81449 28.81449 0 0 1 1.638033 3.276066z" p-id="2404"></path><path d="M633.025314 568.695289c3.449797 18.688468 2.109588 37.625123 2.481869 58.795459-4.243995-13.575819-5.931665-47.775964-2.481869-58.795459z" p-id="2405"></path><path d="M420.651849 622.948929v-55.072656l3.722802 0.124093c-2.059951 18.341006-2.730055 36.706831-3.722802 54.948563z" p-id="2406"></path><path d="M474.036835 531.516903l2.829329 7.817885c-3.077517 2.82933-21.517798 4.566638-23.577748 2.059951a6.701044 6.701044 0 0 1 0-8.066072c1.68767-2.82933 4.963736-4.243995 7.271874-2.035132 4.864462 4.541819 9.083638 1.762126 13.476545 0.223368z" p-id="2407"></path><path d="M439.290679 549.28708l-2.035132 1.389846c-2.928605 1.960676-5.187105 6.155033-9.555193 3.822077-2.481868-1.389846-2.134407-4.14472-1.11684-6.576951 1.489121-3.623528 3.747621-6.97405 7.892341-6.924412 5.534566 0 4.243995 4.963736 4.740368 8.388714zM447.406388 531.119804c-0.967929 4.194357-2.705236 6.874775-6.849956 6.204671-2.481868-0.421918-6.651407 0-5.757934-4.492182 0.74456-3.722802 3.052698-7.098143 7.445604-6.998868a5.385654 5.385654 0 0 1 5.162286 5.286379z" p-id="2408"></path><path d="M480.588967 555.31802c0.198549 2.283319 0 4.790006-2.754874 4.492181-3.673165-0.397099-5.509748-3.474616-6.303945-6.825138-0.645286-2.754874 0.248187-5.261561 3.598709-4.963736 4.169539 0.471555 4.293632 4.417725 5.46011 7.296693z" p-id="2409"></path><path d="M592.744593 559.388283c0.496374-4.963736-0.322643-10.349391 5.435291-13.054626a14.345198 14.345198 0 0 1 4.765187 11.987423c0 4.293632 1.166478 10.54794-4.392907 11.11877-6.279127 0.670104-4.517-6.229489-5.807571-10.051567z" p-id="2410"></path><path d="M619.846594 533.303848c-0.124093 4.318451-3.623528 3.846896-6.130215 4.14472-4.492182 0.546011-6.725863-2.308137-7.098143-6.353583a4.963736 4.963736 0 0 1 5.08783-5.509747c4.839643 0.024819 6.279127 4.169539 8.140528 7.71861zM617.985193 554.37491c0.223368-4.368088-5.882028-9.778561 0.918291-12.831259 3.623528-1.613214 7.098143 1.88622 8.115709 5.733115 2.332956 9.034-3.276066 8.339077-9.133275 6.998869z" p-id="2411"></path><path d="M598.130247 544.348162c-3.052698-2.730055-8.512808-4.169539-6.428039-9.927473 1.638033-4.517 5.360835-3.896533 9.009182-2.705236 2.184044 4.814824 3.648346 9.530374-2.581143 12.632709z" p-id="2412"></path><path d="M578.573125 532.410376h1.216115c4.790006 0.546011 7.445605 3.077517 7.073325 8.041253a2.804511 2.804511 0 0 1-3.549072 2.481868c-4.765187-0.918291-4.591456-4.963736-5.211923-8.562445 0.173731-0.620467 0.322643-1.290571 0.471555-1.960676zM575.793433 638.808067c9.381462-14.370017 15.685407-30.799985 28.61594-43.159688 6.800319 21.765984-27.69765 97.165142-50.183375 109.375933-0.719742-14.469292 5.311198-26.655265 10.423846-39.089425 3.747621-9.108456 10.374209-17.025616 11.218045-27.300551z" p-id="2413"></path><path d="M527.794101 776.030562c-6.576951-4.839643-8.934726-11.590325-10.274935-18.167275a11.019495 11.019495 0 0 1 9.282187-13.74955c6.552132-0.694923 10.101204 5.956484 10.126023 11.714418 0.024819 7.420786-3.822077 13.997737-9.133275 20.202407z" p-id="2414"></path><path d="M582.420021 552.687239c-0.471555 3.300885-1.811764 6.40322-5.633841 6.775501-2.481868 0.273006-3.276066-2.109588-3.151973-4.268814 0.148912-3.474616 1.240934-6.701044 5.360836-6.874775 2.283319-0.099275 3.424978 1.861401 3.424978 4.368088z" p-id="2415"></path></svg>