<?xml version="1.0" standalone="no"?><!DOCTYPE svg PUBLIC "-//W3C//DTD SVG 1.1//EN" "http://www.w3.org/Graphics/SVG/1.1/DTD/svg11.dtd"><svg t="1651276022740" class="icon" viewBox="0 0 1487 1024" version="1.1" xmlns="http://www.w3.org/2000/svg" p-id="6244" xmlns:xlink="http://www.w3.org/1999/xlink" width="290.4296875" height="200"><defs><style type="text/css">@font-face { font-family: feedback-iconfont; src: url("//at.alicdn.com/t/font_1031158_u69w8yhxdu.woff2?t=1630033759944") format("woff2"), url("//at.alicdn.com/t/font_1031158_u69w8yhxdu.woff?t=1630033759944") format("woff"), url("//at.alicdn.com/t/font_1031158_u69w8yhxdu.ttf?t=1630033759944") format("truetype"); }
</style></defs><path d="M1473.417461 83.287987c-1.292376-1.081662-2.683084-2.079039-3.863079-3.259034Q1431.457397 41.974111 1393.388508 3.877127c-1.179995-1.194043-2.163324-2.584751-3.244987-3.877127h83.27394z" p-id="6245"></path><path d="M961.327683 829.087033a1.123805 1.123805 0 0 0 0.913092-0.280951l1.334518-1.081663c0.63214-0.842854 1.868326-0.589998 2.542608-1.404756 0.674283-0.730473 1.882373-0.46357 2.500466-1.306423 0.716426-0.660235 1.896421-0.421427 2.528561-1.250233 0.744521-0.660235 1.896421-0.477617 2.612846-1.20809 0.758568-0.800711 1.952611-0.63214 2.809513-1.222138a1.404756 1.404756 0 0 0 1.053567-0.196666c0.800711-0.660235 1.924516-0.477617 2.725226-1.095709a1.741898 1.741898 0 0 0 1.123805-0.196666c0.842854-0.63214 1.952611-0.533807 2.809512-1.03952a1.1519 1.1519 0 0 0 0.955235-0.126428c1.545232-1.404756 3.722604 0 5.281882-1.222137a1.67166 1.67166 0 0 0 1.137853-0.098333c2.921893-1.517137 6.27926 0.337141 9.201152-1.1519h7.220446c2.921893 1.489041 6.223069-0.294999 9.144962 1.109757l2.317848 0.210713c1.222138 0.899044 2.893798 0.126428 4.101888 1.081663a1.769993 1.769993 0 0 0 1.137852 0.154523c1.137852 1.039519 2.893798 0.11238 4.017602 1.222138 1.025472 1.194043 2.809512 0.126428 3.849032 1.306423 0.702378 0.730473 1.812135 0.505712 2.556656 1.123805a1.404756 1.404756 0 0 0 1.03952 0.238808c0.870949 0.57595 2.093087 0.393332 2.809512 1.292376 0.758568 0.660235 1.966658 0.449522 2.626894 1.32047h-0.070238c0.758568 0.674283 1.980706 0.449522 2.612846 1.404756 0.533807 0.294999 0.913091 0.800711 1.404756 1.123805 0.57595 0.884996 1.84023 0.57595 2.458323 1.404756 0.421427 0.379284 0.856901 0.744521 1.306423 1.081663a1.137852 1.137852 0 0 0 0.884997 0.294998 2.907845 2.907845 0 0 1 1.685707 1.250233 12.72709 12.72709 0 0 1 1.404756 1.222138c1.137852 1.067615 2.711179 1.545232 3.750699 2.739274 0.913091 0.505712 1.812135 0.786663 2.640941-0.140475 0.842854-0.589998 0.547855-1.882373 1.404756-2.444276l-0.084285 0.084285a6.939495 6.939495 0 0 1 1.222138-1.404756c0.772616-0.674283 0.505712-1.924516 1.404756-2.528561l-0.070238 0.070238c0.351189-0.46357 0.716426-0.913091 1.09571-1.404756a1.123805 1.123805 0 0 0 0.238808-0.913091 4.214268 4.214268 0 0 1 1.081662-1.657612 1.011424 1.011424 0 0 0 0.210714-0.884997 3.947365 3.947365 0 0 1 1.053567-1.671659 1.404756 1.404756 0 0 0 0.224761-0.997377c0.533807-0.899044 0.379284-2.093087 1.236185-2.809512 0.68833-0.730473 0.477617-1.84023 1.09571-2.598799a1.741898 1.741898 0 0 0 0.210713-1.123805c1.039519-1.1519 0.084285-2.907845 1.20809-4.045697a1.179995 1.179995 0 0 0 0.112381-0.969282c0.884996-1.236185 0.154523-2.809512 1.053567-4.101888 0-0.814759 0.126428-1.615469 0.182618-2.41618a61.500221 61.500221 0 0 0 0-18.37421c0-0.772616-0.070238-1.545232-0.098333-2.317847-0.533807-1.404756 0-1.531184 1.194043-1.123805v-0.112381c0.884996 0.589998 0.604045 1.854278 1.404756 2.486419 0.68833 0.702378 0.435474 1.882373 1.278328 2.514513 0.660235 0.730473 0.435474 1.896421 1.222138 2.570704 0.730473 0.730473 0.547855 1.882373 1.222138 2.640941 1.278328 0.997377 0.168571 2.809512 1.404756 3.849032 1.137852 1.09571 0.140476 2.809512 1.26428 3.961412a1.980706 1.980706 0 0 0 0.168571 1.20809c0.913091 1.1519 0 2.809512 1.109757 3.905222a1.966658 1.966658 0 0 0 0.126428 1.20809c1.137852 1.643565 0 3.750699 1.081662 5.394263l0.168571 3.568081a30.272493 30.272493 0 0 1 0 12.755185l-0.182618 3.582128c-1.123805 1.643565 0 3.750699-1.081662 5.394263a1.798088 1.798088 0 0 0-0.140476 1.179995c-1.053567 1.109757-0.182618 2.809512-1.09571 3.91927a1.994754 1.994754 0 0 0-0.182618 1.20809c-1.09571 1.109757-0.11238 2.809512-1.250233 3.961412-1.194043 1.025472-0.084285 2.809512-1.404756 3.849032v-0.070238c-0.674283 0.758568-0.491665 1.910468-1.222138 2.654989-0.786663 0.674283-0.561902 1.826183-1.222137 2.570704a4.537362 4.537362 0 0 0 0 5.057121c0.716426 0.716426 0.51976 1.882373 1.250232 2.584752 0.800711 0.758568 0.618093 1.938563 1.236186 2.809512a1.713802 1.713802 0 0 0 0.238808 1.109757c0.589998 0.758568 0.379284 1.854278 1.09571 2.556656 4.115935 5.619024 4.312601 12.446139 5.619024 18.950159 0.786663 18.374209-2.612846 35.708899-13.401373 50.992646-19.933489 28.263692-47.017186 40.246261-81.377519 35.231282a56.190243 56.190243 0 0 1-9.369723-2.022849c-0.589998-0.154523-1.194043-0.365237-1.769992-0.57595a21.42253 21.42253 0 0 1-2.359991-1.137852c-0.46357-0.210713-0.941187-0.477617-1.404756-0.730473a17.798259 17.798259 0 0 0-2.079039-0.828806 10.844717 10.844717 0 0 1-1.404756-0.449522 19.231111 19.231111 0 0 1-1.882373-0.899044 11.420667 11.420667 0 0 1-1.137852-0.660235c-0.561902-0.323094-1.137852-0.618093-1.72785-0.899044a7.136161 7.136161 0 0 1-1.137853-0.561903c-0.379284-0.168571-0.744521-0.365237-1.123804-0.561902a5.956166 5.956166 0 0 1-1.09571-0.618093 7.332827 7.332827 0 0 1-0.983329-0.758568s-0.46357-0.407379-0.477618-0.393332a12.769233 12.769233 0 0 0-1.573326-0.969282 4.481172 4.481172 0 0 1-1.067615-0.68833c-0.351189-0.238809-0.674283-0.51976-1.011424-0.786663 0 0-0.505712-0.379284-0.51976-0.365237l-1.123805-0.63214a7.838539 7.838539 0 0 1-1.081662-0.688331 9.383771 9.383771 0 0 1-0.969282-0.856901l-0.463569-0.435474a10.858764 10.858764 0 0 1-0.899044-0.899044s-0.449522-0.449522-0.449522-0.435475l-0.941187-0.814758s-0.505712-0.379284-0.505712-0.365237c-0.379284-0.196666-0.730473-0.407379-1.09571-0.618092a5.225693 5.225693 0 0 1-1.053567-0.688331 5.942118 5.942118 0 0 1-0.955234-0.828806l-0.435474-0.435474a10.339005 10.339005 0 0 1-0.884996-0.870949s-0.421427-0.449522-0.435475-0.435474a10.184482 10.184482 0 0 1-0.870949-0.870949l-0.421426-0.435475a6.293307 6.293307 0 0 1-0.828807-0.899043 4.818313 4.818313 0 0 1-0.660235-1.011425c-0.210713-0.337141-0.393332-0.68833-0.57595-1.039519s-0.421427-0.646188-0.646188-0.955234l-0.772616-0.884997s-0.393332-0.421427-0.407379-0.421427c-0.294999-0.252856-0.561902-0.533807-0.842853-0.814758l-0.40738-0.421427a8.00711 8.00711 0 0 1-0.814758-0.884996 4.214268 4.214268 0 0 1-0.646188-1.011425c-0.210713-0.337141-0.407379-0.68833-0.589998-1.039519l-0.702378-1.011425a10.339005 10.339005 0 0 1-0.772615-0.983329 6.756877 6.756877 0 0 1-0.674283-1.095709c-0.210713-0.379284-0.407379-0.758568-0.604045-1.1519s-0.407379-0.744521-0.589998-1.137853-0.421427-0.744521-0.646188-1.109757-0.505712-0.68833-0.758568-1.025472a8.948296 8.948296 0 0 1-0.744521-1.053567 9.833292 9.833292 0 0 1-0.57595-1.1519c-0.280951-0.57595-0.57595-1.137852-0.842853-1.72785a7.571635 7.571635 0 0 1-0.393332-1.20809 16.421598 16.421598 0 0 0-0.618093-1.826183c-0.224761-0.393332-0.393332-0.800711-0.589997-1.20809l-0.941187-1.896421a14.314464 14.314464 0 0 1-0.604045-1.404756c-0.379284-1.067615-0.828806-2.093087-1.292376-3.146654a15.255651 15.255651 0 0 1-0.702378-1.826183c-3.497843-10.816622-2.289752-21.94229-2.261657-32.983672 1.067615-5.534739 1.334518-11.350429 5.408311-15.845649a1.404756 1.404756 0 0 0 0.210713-1.025472c0.561902-0.870949 0.407379-2.064991 1.222138-2.809512 0.730473-0.730473 0.533807-1.882373 1.222138-2.612846 0.814759-0.660235 0.57595-1.826183 1.250233-2.542609a1.039519 1.039519 0 0 0 0.365236-0.955234c0-0.337141-0.154523-0.51976-0.252856-0.519759a1.26428 1.26428 0 0 0-0.182618-1.067615 4.214268 4.214268 0 0 1-1.067615-1.657612 1.025472 1.025472 0 0 0-0.196665-0.899044c-0.68833-0.716426-0.435474-1.868326-1.194043-2.556656-0.758568-0.772616-0.604045-1.952611-1.20809-2.809512a1.531184 1.531184 0 0 0-0.196666-1.081662c-0.646188-0.800711-0.46357-1.924516-1.09571-2.71118a1.78404 1.78404 0 0 0-0.196666-1.137852c-0.618093-0.842854-0.51976-1.952611-1.039519-2.809512a1.067615 1.067615 0 0 0-0.112381-0.941187c-0.913091-1.053567-0.57595-2.3038-0.519759-3.51189 5.309978-4.410934 8.288061-11.083525 14.370654-14.763986a1.123805 1.123805 0 0 1 1.404756 0.716425 1.09571 1.09571 0 0 0 0.182619 0.913092c0.702378 0.68833 0.393332 1.882373 1.236185 2.486418a4.832361 4.832361 0 0 1 1.109757 1.685707 1.165948 1.165948 0 0 0 0.280951 0.927139c0.351189 0.46357 0.702378 0.899044 1.067615 1.404756v-0.070237c0.856901 0.589998 0.547855 1.868326 1.404756 2.444275v0.070238c0.337141 0.505712 0.814759 0.884996 1.1519 1.404756a4.214268 4.214268 0 0 1 1.306423 1.404756h-0.070238c0.927139 0.505712 1.84023 0.744521 2.683084-0.140476 0.46357-0.393332 0.870949-0.856901 1.404757-1.236185a5.253788 5.253788 0 0 1 1.404756-1.292375l-0.070238 0.084285c0.533807-0.899044 1.84023-0.561902 2.374038-1.474994h0.098332a15.452317 15.452317 0 0 0 1.404757-1.123805 3.469747 3.469747 0 0 1 1.32047-1.812135z" p-id="6246"></path><path d="M302.356611 802.115716h24.232042c1.09571 1.109757 2.809512 0.126428 3.933317 1.208091a4.649743 4.649743 0 0 0 1.165947 0c0.505712 0.365237 0.955234 0.800711 1.404756 1.194042 0.63214 0.828806 1.868326 0.547855 2.500466 1.404756a8.203775 8.203775 0 0 1 1.306423 1.306423 5.70331 5.70331 0 0 1 1.292376 1.404756 3.371415 3.371415 0 0 0 0.11238 1.123805 14.047561 14.047561 0 0 1 1.179996 1.404756 4.621647 4.621647 0 0 0 0.098332 1.165948c1.053567 1.109757 0 2.809512 1.194043 3.905222v2.402133c-1.123805 1.081662-0.154523 2.809512-1.179995 3.905222a4.958789 4.958789 0 0 0-0.098333 1.20809l-1.165947 1.404756a4.537362 4.537362 0 0 0-0.140476 1.1519 7.150208 7.150208 0 0 1-1.264281 1.404756 14.328512 14.328512 0 0 1-1.306423 1.306423 7.684016 7.684016 0 0 1-1.404756 1.278328 3.989507 3.989507 0 0 0-1.1519 0.140476c-0.449522 0.379284-0.870949 0.758568-1.292375 1.165947-1.067615 1.179995-2.809512 0.168571-3.933317 1.278328h-7.585683c-5.745452 3.539985-12.080902 1.404756-18.149449 1.868326-11.238049 0.323094-22.476097 0.11238-33.62986 0.11238-2.542608 0-5.099265-0.126428-7.164256-1.980706-4.214268 0-8.512822 0-12.769232-0.084285-2.612846 0-4.03165 0.927139-3.905222 3.708556 0.070238 1.699755 0 3.413557 0 5.113312 0 37.928414 0 75.856828 0.070237 113.785242a29.190831 29.190831 0 0 1-3.961412 15.817553 6.223069 6.223069 0 0 1-1.404756 1.292376 3.806889 3.806889 0 0 0-1.123805 0.154523c-0.449522 0.365237-0.870949 0.758568-1.292375 1.165947-0.716426 0.786663-1.910468 0.547855-2.654989 1.264281h-0.604045l-0.589998 0.070238a4.214268 4.214268 0 0 1-1.798088 0.561902c-23.627997-0.800711-47.157661 2.444276-70.785658 1.404756-4.214268-0.168571-8.611155 0.070238-11.912331-3.413557a11.420667 11.420667 0 0 1-1.404757-1.264281c-0.435474-0.421427-0.856901-0.856901-1.306423-1.26428-0.407379-0.449522-0.842854-0.870949-1.26428-1.292376-0.421427-0.435474-0.870949-0.856901-1.264281-1.404756-5.366168-7.824491-4.115935-14.778034 3.97546-22.153003 4.214268-2.683084 8.821868-2.809512 13.541849-2.809512h44.081245c7.459255 0 7.936872-0.57595 8.0633-7.993062 0.11238-6.377593 0-12.769233 0.140476-19.160873 0.393332-26.985364 1.966658-53.956681 1.250232-80.956092a7.02378 7.02378 0 0 1 2.233563-5.689262c8.611155-8.428536 16.70255-17.236357 24.793944-26.100368a9.313533 9.313533 0 0 1 4.214268-2.809512 30.089875 30.089875 0 0 1 7.768302-0.604045c13.864942-0.407379 27.729885-0.140476 41.594827-0.154524 2.725227 0.014048 5.29593 0.154523 7.360922 2.050944z" p-id="6247"></path><path d="M219.02648 579.138785a1.179995 1.179995 0 0 0 0.182619-0.941186c0.51976-0.927139 0.365237-2.135229 1.250233-2.893798 0.674283-0.758568 0.477617-1.952611 1.292375-2.640941 0.702378-0.730473 0.477617-1.952611 1.334519-2.598799 0.68833-0.744521 0.449522-1.980706 1.404756-2.598799l-0.084286 0.070238a11.490905 11.490905 0 0 1 1.179995-1.404756c0.828806-0.63214 0.533807-1.896421 1.404756-2.486418a7.304732 7.304732 0 0 1 1.236186-1.404756 6.223069 6.223069 0 0 0 1.109757-1.320471l0.098333-0.140476c0.941187-0.491665 0.589998-1.826183 1.517137-2.331895l-0.098333 0.070238a4.214268 4.214268 0 0 1 1.404756-1.404756h-0.070238a5.23974 5.23974 0 0 1 1.320471-1.404756 6.742829 6.742829 0 0 1 1.334518-1.404756 6.672591 6.672591 0 0 1 1.404756-1.334518 7.02378 7.02378 0 0 1 1.404756-1.320471v0.070238a4.930694 4.930694 0 0 1 1.404756-1.334519 3.834984 3.834984 0 0 1 1.404756-1.32047v0.098333c0.51976-0.955234 1.84023-0.63214 2.416181-1.503089 0.491665-0.351189 0.884996-0.814759 1.404756-1.179995a3.259034 3.259034 0 0 1 1.685707-1.250233 1.109757 1.109757 0 0 0 0.899044-0.280952c0.449522-0.351189 0.899044-0.702378 1.32047-1.081662 0.63214-0.842854 1.868326-0.589998 2.528561-1.404756 0.68833-0.730473 1.882373-0.46357 2.514514-1.306423 0.730473-0.660235 1.896421-0.435474 2.556656-1.236185 0.744521-0.716426 1.896421-0.533807 2.640941-1.222138 0.997377-1.26428 2.809512-0.182618 3.863079-1.404756 1.123805-1.1519 2.809512-0.224761 4.045698-1.236185a1.587374 1.587374 0 0 0 1.081662-0.126429c1.587374-1.250233 3.722604 0.084285 5.309978-1.165947l2.402133-0.154523a39.178647 39.178647 0 0 1 14.047561 0l2.47237 0.140475c1.531184 1.292376 3.638318 0 5.211645 1.137853a2.050944 2.050944 0 0 0 1.194043 0.154523c1.109757 1.081662 2.809512 0.11238 3.961412 1.194043a1.236185 1.236185 0 0 0 0.969282 0.154523c0.899044 0.533807 2.079039 0.407379 2.87975 1.165947 0.674283 0.758568 1.812135 0.51976 2.542608 1.1519a1.404756 1.404756 0 0 0 1.011425 0.238809c0.884996 0.561902 2.121182 0.365237 2.809512 1.306423l-0.070238-0.084285 1.404756 1.081662a1.222138 1.222138 0 0 0 0.927139 0.252856 1.236185 1.236185 0 0 1 0.800711 1.517136c-2.739274 10.044006-5.366168 20.116107-9.749007 29.612258-2.626894 0.772616-4.537362-0.870949-6.475926-2.064991-19.217063-11.771856-45.640525 0.393332-50.458838 22.349669-0.589998 2.711179-1.404756 5.380216-1.994753 8.105443a39.656264 39.656264 0 0 0-0.379284 8.934248v146.417725a67.962099 67.962099 0 0 1-0.266904 9.566389c-2.345943 5.380216-7.515445 8.428536-11.013288 12.853518-4.129983 5.29593-9.987816 9.060677-14.890414 13.71042-1.404756 1.404756-4.214268 3.666413-4.439029-1.194043V600.603458c0-2.317848-0.505712-4.691885 0.533807-6.939495l0.154523-2.331895c1.222138-1.615469-0.140476-3.806889 1.222138-5.366168 1.137852-1.053567 0.154523-2.809512 1.179995-3.863079a1.404756 1.404756 0 0 0 0.168571-1.03952c-0.407379 0.028095-0.589998-1.123805 0.140475-1.924516z" p-id="6248"></path><path d="M1256.83217 871.25781c0-0.772616 0.098333-1.545232 0.140476-2.3038 1.165948-3.750699 0.533807-7.59973 0.533807-11.392572q0.11238-32.871292 0-65.756631c-0.154523-4.902599 3.680461-7.459255 6.546163-10.339005 7.585683-7.627825 14.988747-15.452317 22.953715-22.658715 2.317848-2.093087 4.368791-4.832361 8.161632-3.596176 0.927139 0.140476 1.952611 0 2.654989 0.856901 0.744521 0.674283 2.036896 0.407379 2.570704 1.404756l-0.126428-0.126428a3.4557 3.4557 0 0 1 1.404756 1.250233c0.505712 0.337141 0.899044 0.828806 1.404756 1.1519 3.51189 3.638318-0.337141 4.635695-2.317847 6.012356-6.110689 4.214268-10.788527 9.425913-12.207331 16.997549-1.081662 10.858764-0.294999 21.745624-0.463569 32.604388-0.365237 22.377764 1.713802 44.952194-2.711179 67.03496-6.068546 30.328684-18.149448 57.482618-44.067198 76.250159-11.238049 8.17568-23.78252 14.258274-38.082937 15.452317-5.450454-0.393332-5.942118-3.834984-4.691886-8.021157 2.149277-7.206399 4.888551-14.244227 6.644497-21.577053a11.041383 11.041383 0 0 1 5.35212-4.368792c21.450625-10.634003 33.868669-28.600834 41.215543-50.697646 2.093087-5.956166 2.331895-12.418044 5.085217-18.177544z" p-id="6249"></path><path d="M341.942637 958.493162c-9.468056-5.801643-15.873744-14.384702-21.282055-23.768473-2.514513-4.354744-4.509267-9.004486-6.742829-13.513753a8.58306 8.58306 0 0 1-2.402133-4.6076c-0.337141-1.404756-0.618093-2.809512-1.081662-4.214268a11.673523 11.673523 0 0 1-0.393332-1.713803 24.203947 24.203947 0 0 0-1.025472-6.166879 10.914955 10.914955 0 0 1-0.435474-1.89642A77.556583 77.556583 0 0 1 310.743004 876.567788a15.60684 15.60684 0 0 1 0.505712-1.755945c0.379284-1.081662 0.842854-2.121182 1.208091-3.202844a14.244227 14.244227 0 0 1 0.533807-1.404756 19.666585 19.666585 0 0 0 1.011424-2.809512 9.454008 9.454008 0 0 1 0.449522-1.404756 21.731576 21.731576 0 0 1 0.941187-2.008801c0.210713-0.449522 0.46357-0.884996 0.702378-1.334519 0.477617-0.927139 0.870949-1.896421 1.306423-2.809512 2.809512-5.267835 4.790218-11.111621 10.493528-14.216131 0.856901-0.589998 0.561902-1.84023 1.404756-2.444276a7.740206 7.740206 0 0 1 1.306423-1.32047 9.664722 9.664722 0 0 1 1.306423-1.320471 9.566389 9.566389 0 0 1 1.306423-1.306423 9.566389 9.566389 0 0 1 1.306424-1.306423 8.934249 8.934249 0 0 1 1.32047-1.306424 6.770924 6.770924 0 0 1 1.320471-1.292375c0.618093-0.842854 1.868326-0.561902 2.472371-1.404756a15.297794 15.297794 0 0 0 1.306423-1.222138c0.449522-0.435474 0.870949-0.870949 1.334518-1.264281 0.63214-0.800711 1.868326-0.51976 2.486418-1.404756 0.477617-0.365237 0.884996-0.814759 1.404756-1.20809 0.660235-0.786663 1.868326-0.533807 2.528561-1.404756 0.46357-0.407379 0.927139-0.842854 1.404756-1.20809a4.523315 4.523315 0 0 0 1.1519-0.112381c0.435474-0.421427 0.927139-0.786663 1.404756-1.179995a4.214268 4.214268 0 0 0 1.194043-0.126428l1.404756-1.1519a4.804266 4.804266 0 0 0 1.179995-0.11238 17.96683 17.96683 0 0 1 1.404756-1.1519 5.23974 5.23974 0 0 0 1.1519-0.084286c0.702378-0.730473 1.882373-0.46357 2.570704-1.222137 1.025472-1.165948 2.809512-0.098333 3.849032-1.292376 1.081662-1.137852 2.809512-0.126428 3.933317-1.26428a4.986884 4.986884 0 0 0 1.20809-0.070238c1.109757-1.067615 2.809512-0.098333 3.947364-1.194043l2.458323-0.084285c2.809512-1.559279 6.194974 0.421427 9.032582-1.20809h7.515445c2.809512 1.629517 6.194974-0.365237 9.060677 1.222137a4.453077 4.453077 0 0 0 1.222137 0c1.489041 1.404756 3.680461-0.098333 5.18355 1.264281a4.635695 4.635695 0 0 0 1.165948 0c0.744521 0.716426 1.924516 0.46357 2.654989 1.179995a6.026404 6.026404 0 0 0 1.236185 0.084285c0.702378 0.758568 1.896421 0.477617 2.612846 1.194043a3.989507 3.989507 0 0 0 1.1519 0.084285c1.685707 10.226624 0.421427 20.523486 0.660236 30.778206 0 0.955234-0.814759 1.404756-1.78404 1.194042a14.45494 14.45494 0 0 0-1.278328-1.179995 4.649743 4.649743 0 0 0-1.165948-0.140475 12.642805 12.642805 0 0 1-1.404756-1.194043 3.891174 3.891174 0 0 0-1.137852-0.084285 11.490905 11.490905 0 0 1-1.404757-1.179995 4.846408 4.846408 0 0 0-1.194042-0.112381c-0.758568-0.702378-1.938563-0.477617-2.669037-1.236185-1.025472-1.194043-2.809512-0.126428-3.834984-1.250233h-1.194042c-1.09571-1.109757-2.809512-0.154523-3.91927-1.165948l-5.057122-0.126428a7.740206 7.740206 0 0 0-6.574258 0l-3.792842 0.084286c-1.123805 1.039519-2.809512 0.098333-3.947364 1.179995l-2.458323 0.140475c-0.730473 0.68833-1.896421 0.407379-2.598799 1.165948a5.309978 5.309978 0 0 0-1.250233 0.098333c-0.702378 0.68833-1.868326 0.421427-2.528561 1.20809-5.970213 5.225693-13.583991 8.428536-18.163496 15.368032-0.309046 0.505712-0.660235 0.983329-1.011424 1.404756-0.154523 0.252856-0.337141 0.491665-0.491665 0.74452-0.309046 0.51976-0.63214 1.025472-0.969281 1.531184s-0.63214 1.053567-0.969282 1.573327c-13.19066 22.040623-8.203775 49.166462 11.940426 64.73116 1.404756 1.039519 2.964035 1.755945 3.568081 3.525938-6.742829 7.613778-13.022089 15.03089-21.225864 20.453248z" p-id="6250"></path><path d="M758.705668 971.079776c-3.4557-4.396887-4.354744-9.397818-4.326649-14.946604 0.140476-40.442927 0.084285-80.899902 0.11238-121.356877 0-2.809512 0.154523-5.534739 0.238809-8.302108 0.716426-0.730473 0.477617-1.938563 1.292376-2.626894 0.969282-1.236185 1.404756-2.809512 2.809512-3.792842l-0.126428 0.112381c0.505712-1.011424 1.826183-0.702378 2.444275-1.517137A3.792841 3.792841 0 0 1 762.793508 817.568033a0.730473 0.730473 0 0 0 0.814758-0.168571c1.20809-1.025472 2.907845-0.224761 4.144031-1.123805h1.994753c1.587374 1.236185 3.820937-0.196666 5.366169 1.278329 0.744521 0.702378 1.966658 0.477617 2.598798 1.404756l-0.084285-0.084286a7.403064 7.403064 0 0 1 1.404756 1.250233c0.435474 0.421427 0.856901 0.856901 1.306423 1.264281a16.323266 16.323266 0 0 1 1.236185 1.404756h-0.070237c0.856901 0.604045 0.57595 1.854278 1.404756 2.486418 0.68833 0.814759 0.561902 1.966658 1.137852 2.809512a1.165948 1.165948 0 0 0 0.126428 1.011424v133.227066a1.559279 1.559279 0 0 1 0.46357 1.404756c-0.224761 1.011424-0.533807 2.008801-0.828806 3.020226a7.276636 7.276636 0 0 1-0.688331 1.503089 10.760432 10.760432 0 0 1-1.039519 1.404756l-0.589998 0.660235a39.178647 39.178647 0 0 1-4.003555 3.778794c-8.442584 3.834984-14.061608 2.99213-18.781588-3.020226z" p-id="6251"></path><path d="M499.514125 879.911107c-4.439029 11.617333-3.582128 23.164428 0.618093 34.627238 2.275705 6.223069 6.349497 11.420667 10.198529 16.716597-3.062368 9.285438-7.150208 18.261829-7.768301 28.263692-5.18355 2.036896-6.574258-2.612846-9.15901-5.18355v0.112381a3.497843 3.497843 0 0 1-1.404756-1.404756l0.070238 0.084285a3.582128 3.582128 0 0 1-1.404756-1.404756h0.070238a3.4557 3.4557 0 0 1-1.404756-1.404756l0.070237 0.070238a3.39951 3.39951 0 0 1-1.404756-1.404757h0.098333c-0.955234-0.477617-0.589998-1.826183-1.531184-2.303799l-0.098333-0.140476a5.141407 5.141407 0 0 0-1.123805-1.278328c-0.379284-0.477617-0.856901-0.870949-1.20809-1.404756a4.565457 4.565457 0 0 1-1.306423-1.404756l0.098333 0.084285c-0.941187-0.561902-0.646188-1.854278-1.404756-2.486418a11.238049 11.238049 0 0 1-1.194043-1.404756h0.084286c-0.913091-0.604045-0.646188-1.854278-1.404757-2.542609a3.525938 3.525938 0 0 1-1.165947-1.741897 0.884996 0.884996 0 0 0-0.224761-0.842854 4.593552 4.593552 0 0 1-1.081662-1.643564 1.09571 1.09571 0 0 0-0.238809-0.927139 5.309978 5.309978 0 0 1-1.039519-1.61547 1.222138 1.222138 0 0 0-0.224761-0.955234c-0.646188-0.716426-0.379284-1.854278-1.179995-2.500466-0.716426-0.758568-0.547855-1.896421-1.194043-2.669036v0.070237c-1.306423-0.997377-0.224761-2.809512-1.404756-3.891174-1.222138-1.137852-0.323094-2.907845-1.264281-4.129983a1.20809 1.20809 0 0 0-0.126428-0.983329c-1.306423-1.559279 0.084285-3.722604-1.194042-5.29593a1.587374 1.587374 0 0 0-0.098333-1.109758c-1.404756-7.684016 0.435474-15.60684-1.67166-23.234665 0.941187-5.773547 1.657612-11.617333 5.464501-16.449694a1.236185 1.236185 0 0 0 0.196666-0.983329c0.547855-0.899044 0.393332-2.093087 1.222138-2.809512 0.702378-0.744521 0.505712-1.896421 1.222138-2.626894 0.786663-0.660235 0.547855-1.84023 1.26428-2.556656 0.814759-0.660235 0.561902-1.854278 1.320471-2.542608 0.772616-0.68833 0.51976-1.924516 1.404756-2.556657h-0.070238l1.081662-1.404756a0.927139 0.927139 0 0 0 0.280951-0.856901 3.104511 3.104511 0 0 1 1.236186-1.713802 17.573498 17.573498 0 0 0 1.137852-1.404756v-0.084286c0.913091-0.547855 0.57595-1.868326 1.503089-2.388085l-0.084285 0.084285a4.214268 4.214268 0 0 1 1.292375-1.404756 12.993994 12.993994 0 0 1 1.250233-1.404756 10.535671 10.535671 0 0 0 1.194043-1.306423 30.63773 30.63773 0 0 1 6.349497-6.363545 9.524246 9.524246 0 0 0 1.306424-1.179995 16.491836 16.491836 0 0 1 1.404756-1.250233 4.705933 4.705933 0 0 1 1.404756-1.292375l-0.084286 0.098332c0.51976-0.927139 1.84023-0.589998 2.374038-1.503089h0.098333a15.789458 15.789458 0 0 0 1.404756-1.137852 3.118558 3.118558 0 0 1 1.699755-1.222138 1.025472 1.025472 0 0 0 0.884996-0.294999l1.334519-1.081662h-0.070238c0.63214-0.856901 1.868326-0.604045 2.528561-1.404756 0.68833-0.730473 1.882373-0.46357 2.514513-1.306423 0.716426-0.660235 1.882373-0.421427 2.528561-1.250233 0.730473-0.68833 1.882373-0.491665 2.598799-1.222138 0.786663-0.786663 1.966658-0.646188 2.809512-1.20809a1.404756 1.404756 0 0 0 1.039519-0.224761c0.800711-0.63214 1.924516-0.46357 2.739275-1.081662a1.545232 1.545232 0 0 0 1.109757-0.210713c0.856901-0.604045 1.966658-0.533807 2.809512-1.025472a1.025472 1.025472 0 0 0 0.941187-0.126428c1.545232-1.404756 3.736651 0 5.29593-1.222138a1.489041 1.489041 0 0 0 1.123805-0.098333c2.289752-1.137852 4.71998-0.379284 7.02378-0.533807 2.93594 1.896421 1.404756 4.579505 1.067615 6.925447-1.039519 7.655921-4.902599 14.483035-6.644496 21.94229-1.896421 1.474994-4.326649 1.615469-6.461878 2.500466-14.286369 6.897352-24.892278 16.81493-29.42964 32.463912z" p-id="6252"></path><path d="M591.862789 927.630671c-4.214268-11.701618-7.02378-23.585854-6.363545-36.172469 0.309046-5.619024 2.008801-10.858764 2.430228-16.379455 3.736651-10.47948 8.049252-20.649914 15.353984-29.261069l6.602354-7.754254a6.265212 6.265212 0 0 1 1.404756-1.404756h-0.070238a4.621647 4.621647 0 0 1 1.404756-1.334518l-0.070238 0.084285a3.273082 3.273082 0 0 1 1.404756-1.334518l-0.098333 0.11238c0.505712-0.983329 1.84023-0.646188 2.402133-1.531184 0.505712-0.337141 0.899044-0.800711 1.404756-1.165947a4.410934 4.410934 0 0 1 1.404756-1.278328l-0.084285 0.11238c0.561902-0.983329 1.826183-0.716426 2.528561-1.404756a3.202844 3.202844 0 0 1 1.72785-1.194043 0.955234 0.955234 0 0 0 0.856901-0.294998l1.404756-1.067615-0.084285 0.084285c0.646188-0.899044 1.868326-0.674283 2.612846-1.404756 0.660235-0.856901 1.868326-0.646188 2.626894-1.32047h-0.070238c0.730473-0.884996 1.952611-0.702378 2.809512-1.278328a1.404756 1.404756 0 0 0 1.053567-0.252856c0.758568-0.589998 1.854278-0.379284 2.542609-1.109758 0.828806-0.772616 1.994754-0.68833 2.949987-1.1519a0.913091 0.913091 0 0 0 0.884997-0.154523c1.123805-1.123805 2.87975-0.168571 4.017602-1.20809a1.601422 1.601422 0 0 0 1.137853-0.168571c1.236185-0.927139 2.893798-0.196666 4.14403-1.067614l2.261657-0.210714a4.509267 4.509267 0 0 1 3.778794-0.238808c-5.745452 9.482103-8.428536 20.003726-10.802574 30.679872-0.309046 2.809512-2.683084 3.722604-4.649743 4.846409a52.228831 52.228831 0 0 0-20.284677 20.720152c-0.57595 0.969282-1.081662 1.966658-1.601422 2.964035a3.062368 3.062368 0 0 1-1.208091 1.109757c-7.571635 18.739446-4.129983 35.779137 8.274014 51.231454 2.809512 3.441652 6.377593 6.194974 9.594484 9.27139-4.832361 8.316156-7.557588 17.152072-10.3671 25.959892-1.798088 1.081662-3.301177 0.11238-4.748076-0.772615-12.544472-7.712111-21.282054-18.823731-28.095121-31.592964a3.722604 3.722604 0 0 1-0.421427-3.666414z" p-id="6253"></path><path d="M704.650654 885.319418c-9.594484 4.523315-18.416352 10.437338-27.673695 15.536602-5.197597 2.809512-10.212577 6.096641-15.522554 8.723536-9.355675 4.6076-19.399681-0.505712-21.605148-10.591861-0.884996-4.073793 1.222138-7.403064 2.177371-11.041383 1.039519-4.214268 4.621647-5.787595 7.908777-7.65592 12.867566-7.304732 25.650846-14.749939 38.448174-22.195146 2.374038-1.404756 4.832361-2.626894 1.123805-5.23974-0.730473-0.68833-1.404756-1.404756-2.163325-2.107135l-1.109757-0.800711a15.747316 15.747316 0 0 0-1.812135-0.927139c-0.449522-0.168571-0.884996-0.365237-1.320471-0.547854a26.507747 26.507747 0 0 1-2.921893-0.997377 4.832361 4.832361 0 0 1-1.26428-1.179995 37.211988 37.211988 0 0 1 7.922824-25.510371 6.307355 6.307355 0 0 1 1.699755-0.11238c1.039519 0.252856 2.036896 0.63214 3.048321 0.983329 0.46357 0.154523 0.941187 0.294999 1.404756 0.407379s1.404756 0.51976 2.008801 0.814759c0.421427 0.210713 0.828806 0.435474 1.236185 0.660235a14.679701 14.679701 0 0 0 2.640942 0.913092 2.654989 2.654989 0 0 1 1.89642 0.744521c0.730473 0.716426 1.952611 0.477617 2.598799 1.404756h-0.070238c0.758568 0.674283 1.994754 0.435474 2.598799 1.404756l-0.084285-0.098333a8.203775 8.203775 0 0 1 1.404756 1.179995c0.63214 0.814759 1.924516 0.51976 2.486418 1.404756l-0.084285-0.098333a6.532116 6.532116 0 0 1 1.404756 1.222138 32.660579 32.660579 0 0 1 3.792841 2.711179l-0.070238-0.098333a4.930694 4.930694 0 0 1 1.404756 1.306423h-0.070238a9.833292 9.833292 0 0 1 1.404757 1.278328c0.449522 0.407379 0.856901 0.842854 1.32047 1.236186a11.926379 11.926379 0 0 0 1.278328 1.250232 10.507575 10.507575 0 0 0 1.250233 1.250233 17.699926 17.699926 0 0 0 1.236186 1.278328c0.407379 0.46357 0.856901 0.870949 1.250232 1.404756a6.588306 6.588306 0 0 1 1.278328 1.404757 4.115935 4.115935 0 0 1 1.306424 1.404756l-0.140476-0.379285c0.941187 0.491665 0.589998 1.84023 1.531184 2.345943l0.084285 0.112381a9.524246 9.524246 0 0 0 1.109758 1.404756 4.888551 4.888551 0 0 1 1.26428 1.404756l-0.11238-0.084286c0.969282 0.561902 0.702378 1.84023 1.404756 2.528561a3.244987 3.244987 0 0 1 1.179995 1.741898 0.927139 0.927139 0 0 0 0.280951 0.856901c0.365237 0.449522 0.730473 0.899044 1.067615 1.404756l-0.084286-0.098333c0.927139 0.63214 0.702378 1.854278 1.404756 2.626894v-0.070238c0.870949 0.660235 0.674283 1.868326 1.320471 2.640942v-0.084286c2.093087 4.214268-1.081662 6.194974-3.834984 8.0633-4.748076 3.216891-9.917578 5.717357-14.834224 8.653298-0.927139 0.51976-1.910468 0.913091-2.809512 1.404756-0.407379 0.224761-0.842854 0.407379-1.278328 0.604045l-1.20809 0.57595-1.09571 0.646187c-0.323094 0.266904-0.674283 0.505712-1.011425 0.758569a4.6076 4.6076 0 0 1-1.067614 0.646188c-0.561902 0.280951-1.123805 0.561902-1.67166 0.870948a5.141407 5.141407 0 0 1-1.1519 0.561903 4.846408 4.846408 0 0 1-1.250233 0.266903z" p-id="6254"></path><path d="M1101.761148 861.031186a1.081662 1.081662 0 0 0 0.210713-0.913092 5.197597 5.197597 0 0 1 1.09571-1.699754c0.870949-0.604045 0.589998-1.812135 1.404756-2.486419 0.786663-0.660235 0.51976-1.910468 1.404756-2.528561h-0.070238c0.323094-0.505712 0.814759-0.899044 1.137853-1.404756v-0.084285c0.884996-0.561902 0.57595-1.854278 1.404756-2.41618a12.881613 12.881613 0 0 1 1.222137-1.404757c1.053567-1.1519 1.559279-2.697132 2.725227-3.764746h-0.084285a4.214268 4.214268 0 0 1 1.320471-1.404756 6.658544 6.658544 0 0 1 1.306423-1.404756 9.678769 9.678769 0 0 1 1.292375-1.334518 14.483035 14.483035 0 0 1 1.306423-1.320471 16.548027 16.548027 0 0 1 1.320471-1.306423 8.428536 8.428536 0 0 1 1.404756-1.306423 5.29593 5.29593 0 0 1 1.404756-1.320471 3.947365 3.947365 0 0 1 1.404756-1.320471v0.084286c0.51976-0.927139 1.84023-0.604045 2.388086-1.489042h0.084285a15.14327 15.14327 0 0 0 1.404756-1.1519 5.043074 5.043074 0 0 1 1.404756-1.26428l-0.084285 0.098333c0.589998-0.941187 1.854278-0.674283 2.542608-1.404756a3.750699 3.750699 0 0 1 1.67166-1.194043 1.222138 1.222138 0 0 0 0.927139-0.280951l1.404756-1.067615c0.646188-0.870949 1.868326-0.646188 2.598799-1.404756 0.674283-0.814759 1.868326-0.604045 2.612846-1.306423 0.730473-0.856901 1.938563-0.674283 2.809512-1.278328a1.67166 1.67166 0 0 0 1.09571-0.252856c0.744521-0.57595 1.854278-0.365237 2.528561-1.109757 0.814759-0.758568 1.980706-0.646188 2.907845-1.165948a1.109757 1.109757 0 0 0 0.941187-0.140476c1.109757-1.109757 2.809512-0.140476 3.989507-1.20809a1.854278 1.854278 0 0 0 1.165947-0.154523c1.20809-0.941187 2.809512-0.168571 4.08784-1.081662l2.317848-0.182618c2.93594-1.404756 6.251165 0.337141 9.187105-1.109758h4.635695c3.357367 1.531184 7.02378-0.351189 10.451385 1.123805l2.289752 0.196666c1.236185 0.899044 2.907845 0.126428 4.115936 1.081662a1.769993 1.769993 0 0 0 1.137852 0.154523c1.1519 1.053567 2.893798 0.084285 4.017602 1.208091a1.053567 1.053567 0 0 0 0.913092 0.140475 1.489041 1.489041 0 0 1 1.039519 1.404756c-1.306423 4.790218-5.506644 7.276636-8.69544 10.479481-4.579505 4.579505-8.611155 9.833292-14.159941 13.317087-11.448762 1.994754-22.981809 3.539985-32.534151 11.238049a51.37193 51.37193 0 0 0-17.348737 24.428708c-2.809512 6.321402-0.913091 13.232802-2.388085 19.666585-7.02378 5.619024-13.106374 12.403996-19.666585 18.627065-1.657612 1.587374-3.020226 4.424982-6.251165 2.907845-4.424982-7.613778-4.790218-16.070409-5.155455-24.527041-0.126428-2.809512 0-5.492596 0-8.245918 1.123805-6.714734 1.1519-13.752562 5.619025-19.526109a1.053567 1.053567 0 0 0 0.154523-0.913092c0.491665-0.927139 0.379284-2.121182 1.20809-2.907845 0.702378-0.744521 0.51976-1.882373 1.20809-2.626894-0.210713 0.126428-0.46357-1.039519 0.210714-1.741897z" p-id="6255"></path><path d="M820.219936 922.404979q-0.098333-27.406791-0.252856-54.785487c0-2.697132 0.702378-5.619024-1.194043-8.00711a1.559279 1.559279 0 0 0-0.252856-1.165947 4.467124 4.467124 0 0 1-0.969282-1.699755 0.786663 0.786663 0 0 0-0.252856-0.842854c-0.379284-0.449522-0.744521-0.913091-1.095709-1.404756l0.070237 0.070238a3.357367 3.357367 0 0 1-1.306423-1.404756l0.084286 0.084285a2.612846 2.612846 0 0 1-1.404756-1.404756l0.084285 0.084286a2.907845 2.907845 0 0 1-1.404756-1.320471l0.070238 0.084285a8.203775 8.203775 0 0 1-1.404756-1.179995c-0.63214-0.828806-1.812135-0.533807-2.514514-1.236185l-0.421427-0.224761h-0.491664a24.892278 24.892278 0 0 0-11.05543 0h-0.449522l-0.40738 0.196666c-2.528561 0.098333-1.854278-1.854278-1.868325-3.132606 0-8.077347 0-16.140647-0.084286-24.217995 0-3.006178 0.983329-4.284506 4.03165-4.03165 4.410934 0.379284 8.892106-0.618093 13.274945 0.57595a1.404756 1.404756 0 0 0 1.123805 0.126428c1.1519 1.039519 2.809512 0.140476 4.003555 1.1519a1.053567 1.053567 0 0 0 0.969282 0.196666c0.913091 0.51976 2.079039 0.407379 2.893797 1.1519s1.812135 0.51976 2.528561 1.179995a0.856901 0.856901 0 0 0 0.856901 0.238809 4.424982 4.424982 0 0 1 1.755945 1.067614c0.589998 0.884996 1.84023 0.589998 2.458323 1.404756 0.702378 0.730473 1.994754 0.46357 2.542609 1.404756l-0.098333-0.11238a3.694508 3.694508 0 0 1 1.404756 1.292375 9.833292 9.833292 0 0 1 1.404756 1.250233 6.293307 6.293307 0 0 0 1.320471 1.123805l0.140475 0.084285c0.323094 0.477617 0.674283 0.51976 1.025472 0 0.505712-0.351189 0.884996-0.842854 1.404756-1.165947a3.919269 3.919269 0 0 1 1.404756-1.306423l-0.098332 0.11238c0.51976-0.969282 1.84023-0.646188 2.402132-1.517136 0.505712-0.337141 0.884996-0.828806 1.404756-1.137853l-0.084285 0.084286c0.618093-0.913091 1.868326-0.646188 2.542609-1.404756 0.68833-0.758568 1.882373-0.505712 2.542608-1.320471 0.744521-0.702378 1.896421-0.51976 2.626894-1.222138 0.814759-0.814759 1.994754-0.730473 2.964035-1.179995a0.828806 0.828806 0 0 0 0.870949-0.168571c1.165948-1.081662 2.893798-0.196666 4.08784-1.179995a1.137852 1.137852 0 0 0 1.03952-0.126428c3.048321-1.222138 6.223069-0.294999 9.313532-0.561902 2.964035 1.755945 1.039519 4.101888 0.533808 6.082593-1.404756 5.520691-3.413557 10.872812-5.014979 16.351361a12.951851 12.951851 0 0 0-0.561903 7.473302c0 2.331895-1.966658 3.132606-3.51189 4.214269a16.393503 16.393503 0 0 0-7.501397 11.364476c-1.306423 7.234494 0.309046 14.581368-0.941187 21.801814-0.674283 2.388085-2.528561 3.806889-4.368791 5.239741-7.726158 6.012356-13.471611 13.949228-20.383011 20.762294a11.238049 11.238049 0 0 0-3.216891 7.389017c-0.154523 1.755945 0.57595 4.382839-2.570704 4.818314z" p-id="6256"></path><path d="M304.843029 574.292377c-0.126428-1.025472-0.646188-2.205467-0.323094-3.048321 3.441652-8.779725 4.972836-18.261829 9.313533-26.690365a0.842854 0.842854 0 0 1 1.404756 0c0.63214 0.800711 1.896421 0.533807 2.500466 1.404756l-0.070238-0.070238c0.51976 0.323094 0.913091 0.814759 1.404756 1.179995 0.589998 0.842854 1.896421 0.533807 2.444275 1.474994l-0.084285-0.098333a4.410934 4.410934 0 0 1 1.404756 1.306423h-0.070238a9.018534 9.018534 0 0 1 1.404756 1.264281c0.449522 0.407379 0.856901 0.856901 1.334519 1.236185a6.813067 6.813067 0 0 0 1.26428 1.194043v0.070237a5.12736 5.12736 0 0 0 1.20809 1.194043l0.084286 0.084286a4.930694 4.930694 0 0 0 1.194042 1.222137v0.070238a8.428536 8.428536 0 0 0 1.194043 1.264281c0.379284 0.46357 0.828806 0.870949 1.236185 1.334518a7.02378 7.02378 0 0 1 1.292376 1.404756l-0.070238-0.070238a4.073793 4.073793 0 0 1 1.306423 1.404756h-0.084285c0.941187 0.561902 0.660235 1.84023 1.404756 2.486418a9.524246 9.524246 0 0 1 1.20809 1.404756l-0.070238-0.070237c0.899044 0.604045 0.63214 1.854278 1.404756 2.528561a3.708556 3.708556 0 0 1 1.165948 1.713802 1.039519 1.039519 0 0 0 0.238809 0.884996 5.352121 5.352121 0 0 1 1.067614 1.587375 1.306423 1.306423 0 0 0 0.252856 0.983329 5.043074 5.043074 0 0 1 1.025472 1.601422 1.179995 1.179995 0 0 0 0.210714 0.955234c0.646188 0.716426 0.407379 1.868326 1.165947 2.542608 0.758568 0.800711 0.618093 1.966658 1.179995 2.809513a1.404756 1.404756 0 0 0 0.182618 1.011424c0.68833 0.842854 0.561902 1.980706 1.081663 2.809512a1.109757 1.109757 0 0 0 0.126428 0.941187c3.947365 20.607772 2.177372 41.454352 2.247609 62.202598 0 11.027335-7.627825 17.404928-17.615641 16.01422-3.287129-0.449522-5.829738-2.41618-8.569012-4.003555-1.1519-0.393332-0.870949-1.798088-1.713802-2.416181a11.238049 11.238049 0 0 1-1.165948-1.404756h0.098333c-3.638318-3.51189-3.329272-8.147585-3.371414-12.642804-0.168571-15.564697 0-31.143442-0.126428-46.694092a42.058397 42.058397 0 0 0-8.11949-16.857073c-1.09571-1.741898-2.949988-3.090463-2.598799-5.520691z" p-id="6257"></path><path d="M914.914543 964.730279l-4.003555 6.39164c-4.467124 8.835916-18.851826 6.489973-24.386565-2.893797a24.793945 24.793945 0 0 1-3.118559-12.909709c0-24.976563-0.154523-49.953126 0-74.943736 0.224761-6.194974-0.997377-12.474234 0.969282-18.584923 2.514513-2.261657 2.809512 0.238809 3.497842 1.67166 0.561902 3.764746 0 7.585683 0.309047 12.277568 6.251165-6.265212 12.066855-12.137092 17.96683-17.938735 2.079039-2.022849 3.806889-4.6076 7.02378-5.155455a1.78404 1.78404 0 0 1 1.404756 0.941187 1.404756 1.404756 0 0 0 0.112381 1.011424 3.259034 3.259034 0 0 1 0.604045 2.149277c-0.182618 9.538294 1.067615 18.964207 1.966658 28.418215a25.861559 25.861559 0 0 1 0.51976 5.885928c0.280951 9.622579 0.224761 19.231111 0 28.85369s1.222138 19.343491-0.955234 28.937975c-2.612846 2.626894-1.26428 5.970213-1.573327 9.018534-0.05619 2.275705 0.660235 4.635695-0.337141 6.869257z" p-id="6258"></path><path d="M1.415718 823.369676a0.702378 0.702378 0 0 0-0.224761-0.828806c-0.927139-1.250233-0.224761-2.921893-1.067615-4.214269q0.604045-13.682324 0-27.336553a3.610223 3.610223 0 0 1 1.1519-1.755945c0.435474-0.407379 0.870949-0.828806 1.26428-1.278328 0.449522-0.407379 0.870949-0.828806 1.278328-1.278328 0.449522-0.407379 0.870949-0.828806 1.278328-1.278328 0.449522-0.407379 0.870949-0.828806 1.278329-1.278328a15.339936 15.339936 0 0 0 1.26428-1.26428c0.449522-0.393332 0.870949-0.828806 1.278328-1.264281 0.449522-0.407379 0.870949-0.828806 1.278328-1.278328 0.449522-0.407379 0.870949-0.828806 1.278328-1.278328 0.435474-0.407379 0.856901-0.828806 1.264281-1.278328 0.435474-0.407379 0.870949-0.828806 1.26428-1.278328 0.449522-0.393332 0.870949-0.828806 1.278328-1.26428 0.449522-0.407379 0.870949-0.828806 1.278328-1.278328 0.449522-0.407379 0.870949-0.828806 1.278328-1.278329 0.435474-0.407379 0.870949-0.828806 1.264281-1.278328 0.435474-0.393332 0.870949-0.828806 1.26428-1.26428 0.449522-0.393332 0.870949-0.828806 1.278328-1.26428 0.449522-0.407379 0.870949-0.828806 1.278328-1.278328 0.449522-0.407379 0.870949-0.828806 1.278328-1.278329 0.435474-0.407379 0.870949-0.828806 1.264281-1.278328a15.339936 15.339936 0 0 0 1.26428-1.26428c0.449522-0.407379 0.870949-0.828806 1.278328-1.26428a8.428536 8.428536 0 0 1 1.404756-1.194043l-0.084285 0.126428 0.463569-0.604045 0.688331 0.351189-0.084286 58.578328c-0.884996 1.26428 0 3.090463-1.306423 4.214268v-0.098333c-0.618093 0.786663-0.365237 2.050944-1.404756 2.584751l0.140476-0.11238a2.683084 2.683084 0 0 1-1.320471 1.404756l0.098333-0.084285a3.385462 3.385462 0 0 1-1.404756 1.404756l0.098333-0.112381c-0.491665 0.955234-1.84023 0.618093-2.35999 1.531184h-0.098333a5.057122 5.057122 0 0 1-1.784041 1.03952h-0.449522l-0.393331 0.238808a19.231111 19.231111 0 0 1-10.212577 0l-0.154523-0.435474-0.407379 0.070238a3.778794 3.778794 0 0 1-1.840231-1.081662c-0.561902-0.884996-1.966658-0.561902-2.402133-1.503089l0.126428 0.126428a2.598799 2.598799 0 0 1-1.404756-1.404756l0.126428 0.126428c-1.011424-0.477617-0.674283-1.826183-1.559279-2.388086v-0.070237a4.214268 4.214268 0 0 1-1.067614-1.826183zM101.237684 750.799977a0.63214 0.63214 0 0 0-0.182618 0.786663 4.340696 4.340696 0 0 1-1.03952 1.812136v0.098333c-0.913091 0.533807-0.561902 1.868326-1.517136 2.374037l0.098333-0.098332a3.385462 3.385462 0 0 1-1.404757 1.404756l0.098333-0.084286a2.978083 2.978083 0 0 1-1.404756 1.320471l0.126428-0.140476c-0.547855 1.053567-1.826183 0.800711-2.598798 1.404756h0.098333c-1.09571 1.320471-2.907845 0.351189-4.115936 1.320471H30.704882l0.098333 0.084285c-0.337141-0.323094-0.421427-0.604045-0.266904-0.870948s0.280951-0.379284 0.407379-0.379284l-0.11238 0.084285a8.428536 8.428536 0 0 1 1.20809-1.404756c0.435474-0.407379 0.870949-0.842854 1.278328-1.278328 0.449522-0.407379 0.870949-0.828806 1.278328-1.264281 0.449522-0.407379 0.870949-0.828806 1.278328-1.278328 0.435474-0.407379 0.856901-0.828806 1.26428-1.278328 0.435474-0.407379 0.870949-0.842854 1.278328-1.278328 0.449522-0.407379 0.870949-0.842854 1.278328-1.278328 0.449522-0.407379 0.870949-0.828806 1.278329-1.26428 0.449522-0.407379 0.870949-0.828806 1.278328-1.278328 0.435474-0.407379 0.856901-0.828806 1.278328-1.278328 0.435474-0.407379 0.870949-0.842854 1.278328-1.278328 0.435474-0.407379 0.870949-0.842854 1.278328-1.278328 0.449522-0.421427 0.870949-0.842854 1.278328-1.278328 0.435474-0.421427 0.856901-0.842854 1.278328-1.292376 0.435474-0.407379 0.856901-0.828806 1.278328-1.278328 0.435474-0.407379 0.870949-0.842854 1.278328-1.278328 0.449522-0.407379 0.870949-0.842854 1.278328-1.278328 0.449522-0.421427 0.870949-0.842854 1.278328-1.278328 0.435474-0.407379 0.856901-0.828806 1.26428-1.278328 0.435474-0.407379 0.856901-0.828806 1.278328-1.278328 0.435474-0.407379 0.870949-0.842854 1.278328-1.278328 0.449522-0.421427 0.870949-0.842854 1.306423-1.278328a176.999265 176.999265 0 0 1 33.306767 0c0.68833 0.772616 1.868326 0.547855 2.570703 1.292375 0.63214 0.800711 1.980706 0.477617 2.444276 1.55928l-0.126428-0.140476a2.149277 2.149277 0 0 1 1.404756 1.404756l-0.140476-0.126428c1.081662 0.46357 0.772616 1.812135 1.545232 2.472371 0.772616 0.702378 0.547855 1.882373 1.278328 2.598799a17.728022 17.728022 0 0 1 0.070238 10.058053z" p-id="6259"></path><path d="M1227.374435 732.748862a2.107134 2.107134 0 0 0 1.250233 0.154523c1.503089 1.404756 3.624271 0 5.169503 1.165947a2.022849 2.022849 0 0 0 1.222137 0.126428c1.517137 1.404756 3.652366 0 5.18355 1.165948a1.713802 1.713802 0 0 0 1.1519 0.140475c1.137852 1.053567 2.809512 0.11238 3.989508 1.194043a1.236185 1.236185 0 0 0 0.969281 0.140476c0.913091 0.533807 2.079039 0.421427 2.893798 1.165947 0.674283 0.772616 1.84023 0.547855 2.556656 1.250233 0.63214 0.814759 1.896421 0.533807 2.500466 1.404756a12.474234 12.474234 0 0 1 1.404756 1.194043c0.856901 0.786663 2.35999 0.323094 2.949987 1.489041l0.238809 0.140476s-0.196666-0.421427-0.224761-0.46357c-1.179995-1.011424-0.772616-2.669037-1.685707-3.750698a3.610223 3.610223 0 0 1-1.20809-1.67166 1.123805 1.123805 0 0 0-0.266904-0.913091c-0.365237-0.449522-0.716426-0.913091-1.067615-1.404757v0.084286c-1.404756-1.011424-0.238809-2.809512-1.404756-3.91927a2.079039 2.079039 0 0 0-0.140475-1.20809 20.944913 20.944913 0 0 1 0-10.170434c0.084285-0.758568 0.154523-1.517137 0.224761-2.275705 0.899044-1.236185 0-2.99213 1.222137-4.214268 1.404756-1.503089-0.084285-3.652366 1.208091-5.169502a1.67166 1.67166 0 0 0 0.098332-1.137853c1.20809-2.388085 0.323094-4.958789 0.604046-7.417112 0.154523-1.334518-0.477617-3.160701 1.910468-3.118558l0.098333 0.098333a5.197597 5.197597 0 0 0 1.194042 1.222138v0.070237a7.810444 7.810444 0 0 0 1.194043 1.264281c0.379284 0.46357 0.828806 0.870949 1.236185 1.334518a7.824491 7.824491 0 0 1 1.278328 1.404756 4.129983 4.129983 0 0 1 1.320471 1.404756l-0.084285-0.084285c0.927139 0.533807 0.57595 1.854278 1.503089 2.374038v0.11238a14.988747 14.988747 0 0 0 1.137852 1.404756 5.253788 5.253788 0 0 1 1.264281 1.404756l-0.098333-0.084285c0.941187 0.589998 0.660235 1.854278 1.404756 2.528561a3.834984 3.834984 0 0 1 1.194042 1.67166 1.165948 1.165948 0 0 0 0.266904 0.927139l1.081662 1.404756c0.884996 0.646188 0.660235 1.854278 1.334519 2.612846 0.884996 0.702378 0.68833 1.924516 1.292375 2.809512a1.67166 1.67166 0 0 0 0.252856 1.09571c0.589998 0.744521 0.365237 1.84023 1.109758 2.528561 1.1519 1.09571 0.182618 2.809512 1.250232 3.975459a2.008801 2.008801 0 0 0 0.154524 1.179996c1.137852 1.629517 0 3.736651 1.081662 5.366168v11.027335a0.997377 0.997377 0 0 1-1.334518 0.533807c-2.430228-1.137852-3.441652 0.969282-4.705933 2.219515-3.933317 3.863079-7.866634 7.740206-11.715666 11.729713 0.46357 2.149277 6.728782 0.716426 3.230939 5.23974-1.1519 0.196666-1.404756-0.842854-2.050944-1.404756h-2.598799a2.205467 2.205467 0 0 1-2.47237 0l-2.486418-0.210713c-1.517137-1.404756-3.736651 0.140476-5.239741-1.278328-0.702378-0.730473-1.84023-0.505712-2.570703-1.1519a1.320471 1.320471 0 0 0-0.969282-0.210714 6.180927 6.180927 0 0 1-1.657612-1.09571c-0.589998-0.870949-1.854278-0.561902-2.458323-1.404756h0.070238c-0.505712-0.351189-0.899044-0.814759-1.404756-1.194042-1.09571-1.109757-2.697132-1.545232-3.708557-2.809512v0.098333a3.329272 3.329272 0 0 1-1.404756-1.334519h0.070238a3.4557 3.4557 0 0 1-1.404756-1.404756 3.371415 3.371415 0 0 1-1.404756-1.404756h0.098333c-0.955234-0.505712-0.63214-1.826183-1.517137-2.388085v-0.070238a15.311841 15.311841 0 0 0-1.165947-1.404756 5.970213 5.970213 0 0 1-1.264281-1.404756h0.084286c-0.913091-0.589998-0.646188-1.854278-1.404756-2.528561a3.596176 3.596176 0 0 1-1.179995-1.699755 1.053567 1.053567 0 0 0-0.224761-0.884996 4.874504 4.874504 0 0 1-0.842854-1.418804 1.222138 1.222138 0 0 0-0.224761-0.955234 4.677838 4.677838 0 0 1-1.039519-1.643565 1.081662 1.081662 0 0 0-0.182619-0.899044c-0.983329-4.158078 1.629517-3.132606 3.863079-2.654988z" p-id="6260"></path><path d="M535.784927 845.733392c-1.404756-0.210713-2.570704-0.63214-1.601422-2.388085a77.978009 77.978009 0 0 0 4.579505-11.828046 74.044692 74.044692 0 0 0 3.188796-14.159941c0.280951-0.716426 0.983329-0.814759 1.573327-1.09571H550.675341c2.93594 1.404756 6.251165-0.294999 9.187105 1.09571l2.289752 0.210713c1.236185 0.884996 2.893798 0.140476 4.129983 1.067615a1.573327 1.573327 0 0 0 1.123805 0.16857c1.1519 1.025472 2.893798 0.11238 4.017602 1.222138 1.025472 1.194043 2.809512 0.126428 3.849032 1.306423 0.702378 0.730473 1.826183 0.505712 2.570704 1.137853a1.320471 1.320471 0 0 0 0.997376 0.238808c0.899044 0.547855 2.121182 0.379284 2.809513 1.278328H581.579975c0.772616 0.660235 1.980706 0.449522 2.626894 1.404756h-0.070238c0.772616 0.660235 1.994754 0.435474 2.612846 1.404756l-0.084285-0.098332c0.547855 0.294999 0.927139 0.800711 1.404756 1.123804h0.070238c0.57595 0.884996 1.84023 0.57595 2.444275 1.404756a14.890414 14.890414 0 0 0 1.404756 1.09571l0.140476 0.084286c0.505712 0.941187 1.812135 0.589998 2.35999 1.404756h-0.070238a12.72709 12.72709 0 0 1 1.404756 1.222137 4.930694 4.930694 0 0 0 1.306423 1.09571l0.154524 0.112381c0.407379 0.842854 2.093087 1.20809 0.955234 2.612846-6.546163 6.026404-10.521623 13.8228-14.91851 21.94229-4.214268-2.711179-8.231871-5.338073-12.291615-7.908777s-9.173057-3.315224-13.71042-5.141407c-2.064991-1.306423-4.579505 0.126428-6.658543-1.067615h-5.871881c-2.486418 1.404756-5.450454-0.379284-7.908776 1.165948l-0.505713 0.16857z" p-id="6261"></path><path d="M427.773233 886.625841q0-8.976391 0.140475-17.938735v-38.377935c1.1519-1.053567 0.154523-2.809512 1.194043-3.877127a5.773547 5.773547 0 0 0 0.098333-1.20809c0.393332-0.449522 0.758568-0.927139 1.165947-1.404756a3.778794 3.778794 0 0 0 0.126428-1.123805 6.602354 6.602354 0 0 1 1.292376-1.404756 9.566389 9.566389 0 0 1 1.306423-1.306423 5.928071 5.928071 0 0 1 1.404756-1.278329 3.778794 3.778794 0 0 0 1.123805-0.126428c0.435474-0.421427 0.913091-0.786663 1.404756-1.179995a4.846408 4.846408 0 0 0 1.194043-0.098333c1.09571-1.039519 2.809512 0 3.905222-1.179995h2.388085c1.081662 1.123805 2.809512 0.140476 3.905222 1.194043a5.619024 5.619024 0 0 0 1.179995 0.084285c0.46357 0.393332 0.955234 0.758568 1.404756 1.179995a3.778794 3.778794 0 0 0 1.123805 0.126428 6.194974 6.194974 0 0 1 1.404756 1.278329 9.566389 9.566389 0 0 1 1.306423 1.306423 6.532116 6.532116 0 0 1 1.278328 1.404756 3.778794 3.778794 0 0 0 0.126428 1.123805c0.421427 0.435474 0.786663 0.927139 1.179995 1.404756a4.846408 4.846408 0 0 0 0.098333 1.194042c1.039519 1.09571 0 2.809512 1.179995 3.891175l0.196666 38.34984a26.184653 26.184653 0 0 1 0 20.509439v37.169846a8.512822 8.512822 0 0 1 1.755945 5.324025c0.168571 8.878058 0.323094 17.756117-0.098333 26.620128-0.098333 2.079039 0.196666 4.958789-3.244986 5.211645-1.910468-2.064991-1.868326-4.677838-1.868326-7.206399 0-26.690365-0.294999-53.493111 0.154523-80.225619-0.280951-3.118558 0.098333-6.237117 0-9.355676-0.168571-2.177372 0.126428-4.368791 0-6.546163s0.070238-4.03165 0.084286-6.040451a57.918093 57.918093 0 0 0-0.140476-8.75163c-7.810444 7.473302-15.157318 14.876367-22.476097 22.391811-3.371415 3.483795-2.149277 7.936872-2.219515 12.09495 0.098333 2.739274 0 5.464501 0.112381 8.189728 0.070238 2.219515 0 4.410934 0 6.630449 0.309046 3.104511-0.154523 6.223069 0.168571 9.32758 0.11238 16.730645 0.070238 33.447242 0 50.177887 0 3.132606 0.435474 6.405688-1.72785 9.15901-4.298554-0.589998-3.385462-4.214268-3.4557-6.714735-0.252856-9.229247-0.280951-18.472542 0-27.701789-0.365237-11.687571-0.11238-23.375141-0.126428-35.118902 0.084285-2.486418 0.210713-5.043074 1.952611-7.178304z" p-id="6262"></path><path d="M689.324765 821.262542c-1.320471 0.098333-2.739274 0.393332-3.230939 1.657612-2.669037 7.02378-5.450454 14.047561-6.630448 21.619196-0.11238 0.716426 0.547855 1.559279 0.856901 2.345942a4.734028 4.734028 0 0 1-4.790218 0.941187c-8.962344-2.191419-17.742069-1.123805-26.4937 1.165947a4.439029 4.439029 0 0 1-4.214268-0.646187c-2.598799-1.84023-1.404756-3.97546-0.533807-6.152832a140.967272 140.967272 0 0 0 5.548786-17.306595c1.404756-5.211645 1.404756-5.225693 6.166879-7.332826 1.994754-1.67166 4.649743 0 6.714734-1.292376h3.273082c3.371415 1.489041 7.094018-0.337141 10.47948 1.09571l2.261658 0.224761c1.250233 0.856901 2.907845 0.140476 4.14403 1.053567a1.573327 1.573327 0 0 0 1.1519 0.154523c1.137852 1.067615 2.809512 0.11238 4.003555 1.20809a0.927139 0.927139 0 0 0 0.884996 0.168571c0.828806 0.070238 1.011424 0.435474 0.407379 1.09571z" p-id="6263"></path><path d="M862.446903 846.983625c-2.654989-0.323094-2.809512-1.755945-2.107134-4.017602 2.809512-8.498774 5.619024-17.053739 8.330204-25.594656a11.954474 11.954474 0 0 1 7.641873 0l2.191419 0.252856a21.900147 21.900147 0 0 1 2.935941 0.997377 1.404756 1.404756 0 0 0 1.123804 0.210714c0.800711 0.63214 1.924516 0.449522 2.725227 1.095709a1.053567 1.053567 0 0 0 0.969282 0.238809c0.913091 0.533807 2.135229 0.365237 2.87975 1.292375h-0.084286c0.772616 0.646188 2.008801 0.421427 2.626894 1.404756l-0.098333-0.098332a15.986124 15.986124 0 0 1 1.404756 1.109757c0.561902 0.899044 1.854278 0.57595 2.416181 1.474994l-0.084285-0.084286a11.603285 11.603285 0 0 1 1.404756 1.194043c1.123805 1.09571 2.739274 1.517137 3.708556 2.809512l-0.154524-0.084285a1.165948 1.165948 0 0 1 0.632141 1.489041c-5.619024 6.813067-11.757808 13.218755-17.236357 20.172297a3.919269 3.919269 0 0 1-3.230939 1.741898c-5.352121-3.708556-12.080902-3.315224-17.994926-5.604977z" p-id="6264"></path><path d="M1339.277304 799.685488a12.895661 12.895661 0 0 0 3.371415-10.549718c-0.421427-3.863079 1.236185-5.408311 4.691885-5.956166a5.619024 5.619024 0 0 0 3.469747-1.404756 0.884996 0.884996 0 0 0 0.913092-0.238808c0.800711-0.716426 1.966658-0.561902 2.809512-1.123805a1.053567 1.053567 0 0 0 1.025472-0.266904c0.730473-0.57595 1.854278-0.323094 2.472371-1.137852 0.730473-0.68833 1.882373-0.477617 2.570703-1.236185 0.68833-0.744521 1.882373-0.505712 2.556656-1.292376 0.674283-0.730473 1.882373-0.449522 2.472371-1.404756 0.51976-0.337141 0.884996-0.870949 1.489041-1.09571l-0.11238 0.126428c0.899044-1.081662 1.713802-1.1519 2.374038 0.224761a0.814759 0.814759 0 0 0 0.210713 0.856901c0.913091 1.250233 0.224761 2.921893 1.053567 4.214269l0.210714 2.177372c0.323094 8.63925-0.140476 17.194214-2.949988 25.482275-1.053567 3.371415-4.214268 3.680461-6.742829 3.778793a39.010076 39.010076 0 0 1-21.394435-5.281882c-2.430228-1.531184-3.834984-3.539985-0.491665-5.871881z" p-id="6265"></path><path d="M138.365387 886.625841c-1.643565 8.428536-4.129983 10.619956-12.825423 11.561143l-9.917578-0.154523c-0.899044-0.533807-2.107134-0.379284-2.809512-1.250233-0.491665-0.351189-0.884996-0.828806-1.404756-1.179995a7.824491 7.824491 0 0 0-1.222138-1.236186c-0.365237-0.491665-0.842854-0.884996-1.179995-1.404756v0.070238c-1.26428-1.081662-0.294999-2.87975-1.292376-4.045697v-11.097573c1.025472-1.1519 0-2.93594 1.264281-4.03165a10.788527 10.788527 0 0 1 3.792841-3.91927c0.744521-0.716426 1.924516-0.505712 2.669037-1.222137a2.205467 2.205467 0 0 0 1.20809-0.126428 31.90201 31.90201 0 0 1 12.741138 0 2.388085 2.388085 0 0 0 1.250233 0.126428c0.730473 0.744521 1.882373 0.533807 2.640941 1.165947h0.084285c0.561902 0.884996 1.868326 0.561902 2.402133 1.489042l-0.098333-0.098333c0.941187 0.561902 0.646188 1.84023 1.404756 2.486418 0.730473 0.800711 0.589998 1.952611 1.165948 2.809512q0.084285 5.071169 0.126428 10.058053z" p-id="6266"></path><path d="M1346.287037 776.169872c-5.000932 2.050944-5.029027 2.079039-7.712111-2.079039a29.232974 29.232974 0 0 0-5.197597-6.251165c-1.306423-1.123805-2.486418-2.275705-2.163325-4.214268 0.814759-0.660235 0.505712-1.854278 1.20809-2.556656a0.744521 0.744521 0 0 0 0.238809-0.842854c0.421427-0.983329 0.365237-2.163324 1.1519-3.020225 1.137852-1.053567 0.168571-2.739274 1.165947-3.849032a1.179995 1.179995 0 0 0 0.168571-1.09571c1.222138-1.587374 0-3.708556 1.123805-5.309978 0-0.744521 0.126428-1.503089 0.196666-2.247609 0.870949-1.531184 0.393332-3.216891 0.57595-4.832361 0.224761-1.980706 0.927139-3.202844 3.146653-1.868326 0.716426 0.730473 1.938563 0.491665 2.584752 1.404756h-0.070238c0.744521 0.674283 2.008801 0.421427 2.584751 1.404756l-0.11238-0.126428a4.677838 4.677838 0 0 1 1.404756 1.208091c0.660235 0.786663 1.994754 0.477617 2.458323 1.545231l-0.112381-0.140475a2.697132 2.697132 0 0 1 1.404756 1.306423l-0.084285-0.084286a4.705933 4.705933 0 0 1 1.404756 1.278328c0.491665 0.379284 0.899044 0.828806 1.404756 1.250233a13.429468 13.429468 0 0 0 1.278328 1.250233 15.185413 15.185413 0 0 0 1.250233 1.264281c0.407379 0.46357 0.842854 0.870949 1.250233 1.32047a9.833292 9.833292 0 0 1 1.278328 1.404756 4.214268 4.214268 0 0 1 1.306423 1.404757l-0.11238-0.098333c1.994754 2.261657 3.006178 4.691885 1.278328 7.571635v-0.112381c-0.589998 0.814759-0.351189 2.064991-1.404756 2.626894l0.140475-0.126428a3.51189 3.51189 0 0 1-1.236185 1.404756 15.536602 15.536602 0 0 0-1.137853 1.404756v0.084286c-0.899044 0.505712-0.547855 1.910468-1.615469 2.317847l0.140476-0.126428a2.205467 2.205467 0 0 1-1.404757 1.404756l0.126429-0.238808a2.3038 2.3038 0 0 1-1.404757 1.404756l0.098333-0.126428c-0.899044 1.404756-2.584751 1.699755-3.638318 2.809512-0.491665 0.337141-0.884996 0.828806-1.404756 1.165947a3.863079 3.863079 0 0 1-1.404756 1.264281z" p-id="6267"></path><path d="M166.362175 844.483159c0 2.514513 0.11238 5.029027 0.154524 7.557588a87.811302 87.811302 0 0 1-8.554965 10.858764c-3.97546 4.214268-8.428536 5.984261-14.047561 5.113313a2.584751 2.584751 0 0 1-1.78404-0.561903 12.249473 12.249473 0 0 1-2.556656-2.486418v-0.070238a10.254719 10.254719 0 0 1-1.109757-1.573327 1.292376 1.292376 0 0 0-0.210714-1.011424c0-4.467124-0.126428-8.934249 0-13.401373 0.196666-5.857833 3.764746-9.397818 9.566389-9.706864 1.685707-0.098333 3.413557 0.140476 5.099265 0 5.478549-0.730473 10.044006 0.758568 13.443515 5.281882z" p-id="6268"></path><path d="M1327.294735 762.192549c-6.321402-1.067615-12.83947-0.68833-19.048493-2.514514v0.070238c-0.870949-0.604045-0.589998-1.868326-1.404756-2.486418a9.566389 9.566389 0 0 1-1.165947-1.404756v0.084285a2.809512 2.809512 0 0 1-1.292376-1.404756l0.140476 0.112381c-1.053567-0.407379-0.702378-1.812135-1.61547-2.317848v-0.084285a6.461878 6.461878 0 0 0-1.179995-1.292376 13.583991 13.583991 0 0 0-1.250233-1.292375 4.481172 4.481172 0 0 1-0.814758-1.784041 5.23974 5.23974 0 0 1 1.854278-5.759499c3.385462-2.907845 5.057122-7.346874 8.976391-9.720912 3.497843 0.294999 7.02378-0.702378 10.47948 0.63214a7.894729 7.894729 0 0 1 1.250233 1.404756l-0.084285-0.084286c0.899044 0.618093 0.63214 1.854278 1.404756 2.542609 0.758568 0.716426 0.57595 1.882373 1.250233 2.640941 1.278328 0.997377 0.196666 2.809512 1.404756 3.877127 1.404756 1.587374 0 3.792841 1.236185 5.422359l0.182619 2.289752a20.495391 20.495391 0 0 1 0 10.184481 1.601422 1.601422 0 0 0-0.323094 0.884997z" p-id="6269"></path><path d="M0.095247 760.577079a103.951949 103.951949 0 0 0 0-15.789458c0.828806-1.278328 0.140476-2.93594 1.067614-4.214268a0.730473 0.730473 0 0 0 0.210714-0.842854 4.565457 4.565457 0 0 1 1.067615-1.769992v-0.070238c0.884996-0.547855 0.547855-1.896421 1.545231-2.374038l-0.11238 0.11238a2.711179 2.711179 0 0 1 1.404756-1.404756l-0.112381 0.126428c0.491665-0.997377 1.826183-0.674283 2.402133-1.545231a3.849032 3.849032 0 0 1 1.812135-1.067615 0.63214 0.63214 0 0 0 0.786664-0.182618c6.377593-1.222138 12.825423-0.365237 19.245158-0.477617 0.955234 0 1.320471 0.800711 1.011424 1.755945l0.154524-0.112381a3.877127 3.877127 0 0 1-1.404756 1.404756l0.098332-0.084285a3.56808 3.56808 0 0 1-1.404756 1.404756l0.098333-0.084285a3.694508 3.694508 0 0 1-1.404756 1.404756l0.084286-0.098333a3.56808 3.56808 0 0 1-1.404756 1.404756l0.084285-0.098333a3.413557 3.413557 0 0 1-1.404756 1.404756l0.098333-0.084285a3.56808 3.56808 0 0 1-1.404756 1.404756l0.098333-0.084285a3.694508 3.694508 0 0 1-1.404756 1.404756l0.084285-0.098333a3.56808 3.56808 0 0 1-1.404756 1.404756l0.084285-0.098333a3.56808 3.56808 0 0 1-1.404756 1.404756l0.084285-0.084285a3.469747 3.469747 0 0 1-1.404756 1.404756l0.098333-0.084286a3.56808 3.56808 0 0 1-1.404756 1.404756l0.098333-0.084285a3.56808 3.56808 0 0 1-1.404756 1.404756l0.084285-0.084285a3.56808 3.56808 0 0 1-1.404756 1.404756l0.084286-0.098333a3.56808 3.56808 0 0 1-1.404756 1.404756l0.084285-0.084286a3.56808 3.56808 0 0 1-1.404756 1.404757l0.098333-0.084286a3.56808 3.56808 0 0 1-1.404756 1.404756l0.098333-0.084285a3.469747 3.469747 0 0 1-1.404756 1.404756l0.084285-0.084285a3.56808 3.56808 0 0 1-1.404756 1.404756l0.758568-0.744521a3.51189 3.51189 0 0 1-1.404756 1.404756l0.098333-0.098333a3.51189 3.51189 0 0 1-1.404756 1.404756l0.098333-0.084285a3.56808 3.56808 0 0 1-1.404756 1.404756l0.084285-0.084285a3.469747 3.469747 0 0 1-1.404756 1.404756l0.098333-0.126428c-0.814759 0.913091-1.629517 1.011424-2.261657-0.40738z" p-id="6270"></path><path d="M1295.617485 755.758766c-3.160701-0.323094-5.071169 1.657612-7.02378 3.666413q-13.429468 13.499706-26.929174 26.915127a43.982913 43.982913 0 0 1-3.39951 2.809512 14.131846 14.131846 0 0 1-0.11238-8.948296 1.404756 1.404756 0 0 0 0.11238-1.1519c0.814759-0.969282 0.477617-2.3038 1.067615-3.34332 6.700686-8.737583 15.157318-15.775411 22.728953-23.684187 1.179995-1.236185 2.809512-0.730473 4.214269-0.646188a4.354744 4.354744 0 0 1 2.654988 0.491665 1.109757 1.109757 0 0 0 1.011425 0.252856c0.884996 0.533807 2.093087 0.379284 2.809512 1.222138 0.730473 0.716426 1.924516 0.505712 2.612846 1.292375 0.365237 0.154523 0.533807 0.379284 0.51976 0.660235s-0.182618 0.46357-0.266904 0.46357z" p-id="6271"></path><path d="M1286.570856 752.008067c-1.404756 0.168571-2.809512 0.098333-4.003555 1.404756-7.459255 7.880682-14.9747 15.71922-22.995856 23.052047a1.657612 1.657612 0 0 1-0.140476-2.556656 0.786663 0.786663 0 0 0 0.154523-0.899043c0.477617-0.927139 0.393332-2.079039 1.081662-2.935941a0.842854 0.842854 0 0 0 0.210714-0.899044c0.477617-0.941187 0.365237-2.149277 1.222138-2.93594 0.365237-0.533807 0.491665-1.278328 1.32047-1.404756 0.870949-0.899044 1.165948-1.980706-0.280951-2.345942a35.118902 35.118902 0 0 0-5.506644-0.449522c2.205467-4.509267 6.180927-7.02378 9.144962-10.25472s6.138784-6.293307 9.060677-9.27139c2.233562 0.716426 1.194043 2.345943 1.741897 3.329272 0.927139 0.983329-0.098333 2.598799 1.109758 3.51189l2.149277 0.238809c1.292376 0.786663 2.964035 0.126428 4.214268 1.053567a1.067615 1.067615 0 0 0 0.997377 0.196666c0.604045 0.238809 0.800711 0.589998 0.519759 1.165947z" p-id="6272"></path><path d="M941.731336 822.512774c-2.809512 3.51189-5.619024 7.108066-8.681392 10.521623-1.404756 1.67166-2.87975 3.652366-5.534739 3.652366-0.674283-0.294999-0.800711-0.983329-1.109758-1.545231a1.165948 1.165948 0 0 0-0.098333-1.053568c-1.306423-5.731405-0.266904-11.547095-0.604045-17.306594 1.179995-5.7595 5.380216-8.793773 10.184482-11.238049 1.179995 0.168571 1.489041 1.109757 1.84023 2.022849a0.856901 0.856901 0 0 0 0.112381 0.927139c1.09571 1.222138 0.323094 2.964035 1.1519 4.214268a0.744521 0.744521 0 0 0 0.140475 0.856901c1.1519 1.053567 0.084285 2.809512 1.278328 3.863079 0.772616 0.814759 0.660235 1.980706 1.179995 2.893798a1.053567 1.053567 0 0 0 0.280952 0.983329 0.716426 0.716426 0 0 1 0.210713 0.828806c-0.140476 0.252856-0.252856 0.379284-0.351189 0.379284z" p-id="6273"></path><path d="M458.832389 889.210593v-20.509439a16.730645 16.730645 0 0 1 5.492597 0.786663 9.833292 9.833292 0 0 0 8.428536-0.74452q-1.938563 7.698063-3.863079 15.452316c-1.404756 1.924516 0.365237 4.481172-1.264281 6.349498-3.118558 0.505712-5.801643-1.503089-8.793773-1.334518z" p-id="6274"></path><path d="M1309.426238 732.945527c0.505712 3.764746-2.514513 5.464501-4.593553 7.698064s-4.902599 4.073793-4.453077 7.782348a1.025472 1.025472 0 0 1-1.222137-0.154523 8.765678 8.765678 0 0 0-1.278328-1.222138 4.453077 4.453077 0 0 0-1.250233-1.1519l-0.098333-0.084285c-0.491665-0.941187-1.882373-0.57595-2.3038-1.601422l0.098333 0.126428a2.949988 2.949988 0 0 1-1.404756-1.306423l0.084285 0.084285a6.012356 6.012356 0 0 1-1.404756-1.250233c-0.674283-0.758568-1.994754-0.46357-2.486418-1.517136l0.154523 0.126428c-1.09571-0.716426-0.983329-1.531184-0.182618-2.416181 0.660235-0.814759 1.868326-0.589998 2.570703-1.334518 0.786663-0.800711 1.966658-0.646188 2.809512-1.20809a1.1519 1.1519 0 0 0 1.025472-0.252856c0.842854-0.589998 1.938563-0.477617 2.809512-1.03952a1.137852 1.137852 0 0 0 1.053568-0.196665c1.194043-0.941187 2.809512-0.140476 4.059745-1.09571a1.09571 1.09571 0 0 0 1.053567-0.126428 4.958789 4.958789 0 0 1 4.958789 0.140475z" p-id="6275"></path><path d="M936.547786 805.908558c-3.989507 2.331895-6.223069 6.644496-10.212576 8.976391a7.613778 7.613778 0 0 1 0-6.405688 1.404756 1.404756 0 0 0 0.11238-1.095709c1.250233-1.573327-0.126428-3.750699 1.194043-5.324026a0.899044 0.899044 0 0 0 0.140475-0.913091c0.477617-0.913091 0.421427-2.008801 0.997377-2.809513a1.545232 1.545232 0 0 0 0.224761-1.137852c0.618093-0.800711 0.46357-1.896421 1.053567-2.711179a1.404756 1.404756 0 0 0 0.252856-1.067615c0.589998-0.856901 0.435474-2.022849 1.179995-2.809512 0.786663-0.660235 0.51976-1.812135 1.179995-2.528561a0.842854 0.842854 0 0 0 0.238809-0.856901 5.436406 5.436406 0 0 1 1.039519-1.755945l0.379285 0.252856c2.964035 0.68833 1.404756 3.062368 1.559279 4.635695 0.51976 4.214268-0.730473 8.428536 0.955234 12.642805a2.711179 2.711179 0 0 1-0.294999 2.907845z" p-id="6276"></path><path d="M143.492747 867.394731c8.428536 1.812135 12.123045-4.748076 16.857072-9.425913 2.036896-2.036896 3.230939-4.930694 6.251165-5.928071 0 2.500466 0.238809 5.029027 0.098333 7.529493a9.27139 9.27139 0 0 1-9.285438 9.116866c-4.214268 0.182618-8.428536 0-12.642804 0l-0.435475-0.16857h-0.477617c-0.435474-0.154523-0.646188-0.379284-0.589997-0.674283s0.11238-0.449522 0.224761-0.449522z" p-id="6277"></path><path d="M1258.110498 780.299855q0 4.481172 0.112381 8.948296-0.126428 35.118902-0.280951 70.237803c0 3.146654 0.646188 6.405688-0.969282 9.397818l-0.084285-83.877985c0-1.615469-0.351189-3.413557 1.222137-4.705932zM810.990689 817.371367c-4.424982 0-8.864011-0.070238-13.288993 0-1.868326 0-3.343319 0.604045-3.343319 2.809512 0 8.864011 0.084285 17.713974 0.210713 26.577985 0 0.491665 0.702378 0.969282 1.067615 1.404756-0.618093 0.646188-1.489041 1.20809-2.022849 0.252856a6.419735 6.419735 0 0 1-0.51976-3.034273v-24.737754c0-3.160701 1.039519-4.888551 4.368792-4.481172 4.453077 0.561902 9.187105-1.404756 13.527801 1.20809zM416.394708 853.276932c1.489041-0.983329 1.404756-2.514513 1.404756-3.989507l-0.224761-27.982741a3.39951 3.39951 0 0 1 1.404757 3.287129v26.577985c-0.098333 1.292376 0.51976 4.14403-2.584752 2.107134zM92.233198 731.611009a277.340991 277.340991 0 0 0-33.306767 0 3.708556 3.708556 0 0 1 3.371415-1.292375h26.549889a3.778794 3.778794 0 0 1 3.385463 1.292375zM926.293067 808.479261v6.405688c-0.955234 6.39164 0.084285 12.797328 0 19.203015a3.427605 3.427605 0 0 1-1.250233-2.809512v-20.045869a3.371415 3.371415 0 0 1 1.250233-2.753322zM30.508216 732.833147c-0.856901-2.135229-2.809512-1.629517-4.368792-1.61547-5.29593 0-10.591861 0.210713-15.887791 0.337142 1.236185-1.559279 2.99213-1.236185 4.635695-1.236185h14.440893c1.587374 0.154523 3.259034 0.51976 1.179995 2.514513z" p-id="6278"></path><path d="M936.421358 803.379997c-2.093087-2.809512-0.758568-6.124736-1.179995-9.173057s1.025472-5.899975-0.955234-8.569012a12.193283 12.193283 0 0 1-0.196666-1.250233 9.973768 9.973768 0 0 1 1.053567-1.503089 1.278328 1.278328 0 0 0 0.252856-0.870949c2.008801 0.421427 2.121182 0.772616 1.404756 4.593552a63.551165 63.551165 0 0 0 0 14.244227 1.755945 1.755945 0 0 1-0.379284 2.528561z" p-id="6279"></path><path d="M1072.486031 785.160311a31.494631 31.494631 0 0 1 0 18.374209q-0.028095-9.187105 0-18.374209zM876.311846 817.329225h-17.882545a28.095121 28.095121 0 0 1 17.882545 0zM1309.426238 732.945527l-5.113313-0.11238a26.409414 26.409414 0 0 1 16.632312 0.070238 43.926722 43.926722 0 0 0-11.518999 0.042142zM288.224764 535.464919h-14.04756a17.685879 17.685879 0 0 1 14.04756 0zM1258.180736 696.871391c-1.868326 1.081662-1.179995 2.921893-1.334518 4.509267-0.210713 2.050944 0.351189 4.214268-1.179995 6.026404a87.094876 87.094876 0 0 1 0-10.493528c0.379284-2.964035 1.601422-1.194043 2.514513-0.042143zM1083.990983 827.654182v-12.755185a14.960652 14.960652 0 0 1 0 12.755185zM129.346853 868.588774H116.605715a15.283746 15.283746 0 0 1 12.741138 0zM494.485098 836.616525a24.203947 24.203947 0 0 1-6.349497 6.363545 7.810444 7.810444 0 0 1 6.349497-6.363545zM101.237684 750.799977l-0.084285-10.226624a9.594484 9.594484 0 0 1 0.084285 10.226624zM10.237586 831.615594h10.212576a9.945673 9.945673 0 0 1-10.212576 0zM1252.940996 720.106057v10.170434a10.268767 10.268767 0 0 1 0-10.170434zM1340.148253 738.044792c-1.404756 0-2.472371 0.168571-2.626894 1.882373s0.084285 3.39951-1.09571 4.818313a25.749179 25.749179 0 0 1 0.126428-6.166879c0.547855-2.205467 2.191419-2.261657 3.596176-0.533807zM676.443152 817.343272c-3.51189-0.154523-7.122113 0.547855-10.47948-1.09571 3.483795 0.379284 7.192351-1.292376 10.47948 1.09571zM662.69059 816.26161c-2.036896 1.517137-4.523315 0.604045-6.714734 1.292376l-3.806889-0.210714c3.301177-2.374038 7.009733-0.730473 10.521623-1.081662zM1327.505448 761.026601v-10.184481a10.212577 10.212577 0 0 1 0 10.184481zM1185.105325 817.35732c-3.497843-0.196666-7.108066 0.646188-10.451385-1.123805 3.483795 0.407379 7.192351-1.292376 10.451385 1.123805zM543.525133 816.26161l-1.573327 1.09571h-7.669968c2.837607-2.3038 6.152832-0.842854 9.243295-1.09571zM385.714836 816.163277c-2.809512 2.149277-6.012356 0.870949-9.032582 1.20809 2.753322-2.331895 6.026404-0.772616 9.032582-1.20809zM1360.475073 761.012554c0.899044-2.809512-0.168571-5.155455-1.26428-7.571636 3.413557 2.753322 3.539985 3.806889 1.26428 7.571636zM402.290957 817.41351c-3.034273-0.351189-6.27926 0.927139-9.060676-1.222138 3.020226 0.407379 6.307355-1.1519 9.060676 1.222138zM1170.018245 816.247562c-2.893798 1.699755-6.096641 0.955234-9.187105 1" p-id="6280"></path></svg>