<?xml version="1.0" standalone="no"?><!DOCTYPE svg PUBLIC "-//W3C//DTD SVG 1.1//EN" "http://www.w3.org/Graphics/SVG/1.1/DTD/svg11.dtd"><svg t="1651276012763" class="icon" viewBox="0 0 1024 1024" version="1.1" xmlns="http://www.w3.org/2000/svg" p-id="5618" xmlns:xlink="http://www.w3.org/1999/xlink" width="200" height="200"><defs><style type="text/css">@font-face { font-family: feedback-iconfont; src: url("//at.alicdn.com/t/font_1031158_u69w8yhxdu.woff2?t=1630033759944") format("woff2"), url("//at.alicdn.com/t/font_1031158_u69w8yhxdu.woff?t=1630033759944") format("woff"), url("//at.alicdn.com/t/font_1031158_u69w8yhxdu.ttf?t=1630033759944") format("truetype"); }
</style></defs><path d="M511.859554 1023.719108q-248.041531 0-496.083061 0.280471c-10.517662 0-12.551077-2.103532-12.551077-12.551076q0.525883-497.836005 0-995.67201c0-10.517662 2.103532-12.551077 12.551077-12.551077q497.836005 0.525883 995.67201 0c10.517662 0 12.551077 2.103532 12.551076 12.551077q-0.525883 497.836005 0 995.67201c0 10.517662-2.103532 12.586136-12.551076 12.551076q-249.794474-0.63106-499.588949-0.280471z m229.986211-635.582319a45.015594 45.015594 0 0 0-15.425905 5.854832q-118.744405 74.324812-237.523868 148.649624c-9.395778 5.889891-13.112019 12.516018-6.24048 23.03368 6.345656 9.711308 13.497666 14.479315 24.541212 7.853188 7.011775-4.172006 14.30402-7.993423 21.035324-12.586136 11.709664-8.028482 20.264029-6.170362 26.960274 6.626127 5.434125 10.307309 11.639546 20.22897 17.529437 30.220749 7.011775 11.639546 15.56614 6.591068 24.050387 1.928238s13.567784-10.728015 7.011775-21.035324c-5.714596-8.799777-10.868251-17.985202-15.846611-27.240745-9.886602-18.405909-8.869895-23.208974 8.799777-34.182401q66.92739-41.614883 134.275486-82.49353c15.460963-9.430837 23.279092-6.661186 29.379336 10.061897 14.233903 39.160762 8.344012 75.832344-15.706375 109.24345-15.355787 21.280736-32.429458 41.299353-48.521481 62.054206q-86.981065 112.188395-173.68166 224.376791c-3.961653 5.118596-12.095311 10.517662-6.485892 17.950143 4.873183 6.345656 12.025194 0.701177 17.529437-1.612708q62.124324-26.188979 124.038295-52.938899c6.205421-2.699533 14.93508-4.768007 12.480959-14.023549s-3.716241-20.088735-14.93508-24.015329c-20.193911-7.011775-20.86003-8.168718-8.028482-24.541211q67.277978-86.350006 134.941604-172.384482c6.135303-7.818129 12.76143-15.425904 14.724727-25.52286q10.973427-56.760316 21.631325-113.520632c1.262119-6.626127 1.472473-14.023549-5.819773-16.723083-23.279092-8.904954-47.049008-16.7932-70.713748-25.032036z m-224.692321-87.051183c1.893179-15.496022-8.063541-17.529437-16.828259-20.754853s-14.584491 0.31553-17.529437 8.799777c-7.011775 19.738146-14.549433 39.441233-21.420972 59.284556q-38.564761 110.856158-76.56858 221.852552a53.640077 53.640077 0 0 1-26.153919 31.062162c-30.010396 16.898377-59.109261 35.374403-88.909304 52.58831-12.375782 7.011775-14.023549 14.93508-6.696245 27.135568s15.460963 11.288957 26.083802 4.838125q53.114193-32.324281 106.614035-63.982445a41.790177 41.790177 0 0 0 18.96685-24.050387c10.167073-29.835101 21.526148-59.284555 31.237457-89.259892a51.466426 51.466426 0 0 1 21.806619-28.257452c44.629946-29.800043 89.01448-59.985733 133.53925-89.996129 7.78307-5.258831 15.425904-10.517662 18.721438-20.053675Q648.589161 286.746527 677.617908 203.341467c3.505887-10.096956 0.245412-16.442612-9.851543-20.684736-15.215551-6.415774-22.683091-0.350589-27.486157 14.02355-16.162141 47.539833-32.709929 94.93943-49.082423 142.409144-2.664474 7.712952-4.522595 16.232258-11.569428 21.035324q-39.371115 27.661451-79.268113 54.656784a11.394134 11.394134 0 0 1-14.689668-0.31553c-4.66283-4.03177-4.136947-9.430837-2.419063-14.584491 6.345656-18.826615 12.831548-37.583112 19.282381-56.33961 5.118596-15.075316 10.307309-29.940278 14.61955-42.456296z m-185.81203 243.413759c-2.384003-11.324016-5.60942-27.310863-9.185425-43.26265q-14.30402-63.947385-28.958629-127.89477c-1.121884-4.943301-1.823061-11.359075-8.589424-11.53437s-6.380715 5.854832-7.397423 10.237191c-17.003554 73.833988-34.147343 147.667975-50.73019 221.60714-3.015063 13.427549 2.944945 18.090379 15.390846 12.165429 26.820038-12.796489 53.254429-26.46945 79.688819-39.967116 6.450833-3.365652 11.253898-8.41413 9.67625-21.350854z" p-id="5619"></path></svg>