<?xml version="1.0" standalone="no"?><!DOCTYPE svg PUBLIC "-//W3C//DTD SVG 1.1//EN" "http://www.w3.org/Graphics/SVG/1.1/DTD/svg11.dtd"><svg t="1651275997175" class="icon" viewBox="0 0 1872 1024" version="1.1" xmlns="http://www.w3.org/2000/svg" p-id="4636" xmlns:xlink="http://www.w3.org/1999/xlink" width="365.625" height="200"><defs><style type="text/css">@font-face { font-family: feedback-iconfont; src: url("//at.alicdn.com/t/font_1031158_u69w8yhxdu.woff2?t=1630033759944") format("woff2"), url("//at.alicdn.com/t/font_1031158_u69w8yhxdu.woff?t=1630033759944") format("woff"), url("//at.alicdn.com/t/font_1031158_u69w8yhxdu.ttf?t=1630033759944") format("truetype"); }
</style></defs><path d="M600.902822 489.753237c3.916021-23.887727 7.760841-47.330451 11.712463-71.520779l49.573262 2.776815c-3.310818 25.774537-6.497034 50.676869-9.807852 76.540406h247.13651c-18.725699 92.36469-37.237797 183.679173-55.892296 275.723461l-5.429029-4.147422-25.311734 34.941585c-3.239617-6.870836-6.301233-13.421271-9.291649-19.775905-8.704246-1.780009-266.752214-2.581014-325.083123-0.979005-5.001827 15.753083-10.074853 31.773168-15.14788 47.775453l-1.352808 0.302602c-5.891831-12.282065-10.875858-25.009133-16.482887-37.380198-5.820631-12.851668-11.498861-25.774537-17.194891-38.679605S417.205849 729.80531 411.207217 716.241638c-1.424008 2.420813-2.545413 4.076222-3.382018 5.856231q-12.549067 26.700142-25.009132 53.400283c-1.050206 2.242812-2.278412 4.396623-3.898221 7.51164l-24.59973-23.638526c-8.650846 18.405298-17.105891 35.93839-27.127344 54.219088a88.71567 88.71567 0 0 1-5.945232-7.120038c-4.788225-7.369239-9.861252-14.613877-13.937474-22.374719-2.794615-5.340028-6.354634-6.639435-12.068463-6.603835-31.701968 0.284802-63.421736 0.178001-95.123705 0-3.951621 0-7.992242 1.050206-11.872663-1.97581-1.513008-1.174806-5.197628 0.445002-8.205843 0.818804-9.149248-15.592883-16.91009-31.897769-20.096307-49.751263-1.370607-7.61844-4.236422-15.681883-0.961205-23.709726a3.560019 3.560019 0 0 0 0.142401-2.047011c-4.200822-15.770884-3.026016-32.182571-5.74943-48.060255-0.195801-1.139206-0.551803-2.242812-0.747604-3.382018a20.71931 20.71931 0 0 0-8.775447-13.528071c-14.026474-10.680057-28.052949-21.217712-41.54542-32.449572a92.186689 92.186689 0 0 1-23.246923-29.939759 56.444099 56.444099 0 0 1-5.874031-25.418535 74.208593 74.208593 0 0 1 16.589688-48.184855c7.387039-9.256049 14.898679-18.280697 24.457329-25.418535 2.776815-2.082611 5.340028-4.521224 7.938842-6.746235 10.680057-8.900047 21.199912-17.924695 32.04017-26.700142 6.123232-4.930626 11.000458-10.680057 13.27887-18.173896q6.461434-21.199912 12.460066-42.542226a108.776376 108.776376 0 0 0 3.560019-16.215886c0.676404-5.340028 3.649019-8.775447 7.760841-11.605661 1.121406-0.783204 2.278412-1.495208 3.560019-2.296212a83.856244 83.856244 0 0 0-11.000458-35.368788c-6.781836 6.461434-12.922868 12.335465-19.224102 18.067096a48.416257 48.416257 0 0 1-6.408034 5.233228c-5.785031 3.73802-9.558651 3.560019-14.044274-1.78001-7.120038-8.383844-15.913284-14.863079-24.920132-20.897311-8.223644-5.482429-16.99909-10.146054-25.578736-15.076679-6.354634-3.649019-13.20767-6.568235-18.440898-12.727068 8.205843-9.273849 12.958469-19.918306 12.353266-32.18257a35.88499 35.88499 0 0 0-11.676862-24.920133c-5.019627 5.64263-3.933821 12.869468-6.087632 19.455504l-3.64902-10.235055c-3.560019 9.238249-2.883615 17.461893-2.937015 26.557741-8.811047-7.120038-8.900047-18.512098-16.020085-26.700141-4.663625 7.120038-5.945232 14.596077-6.283433 22.161117s-0.089 15.00548-0.623004 22.62392C25.372372 256.3228 20.477346 225.528637 18.020933 193.897869a66.643553 66.643553 0 0 0-8.739846 25.899138c-1.174806 9.309449-1.032405 18.7969-1.459608 28.177549a69.86537 69.86537 0 0 1-7.120037-24.421729c-2.207212-21.716115 1.032405-42.969428 6.728435-63.813339C10.705095 147.742225 15.261919 136.083163 19.142339 124.2461c0.801004-2.403013 1.103606-4.966226 1.78001-7.440439a205.466489 205.466489 0 0 1 18.743499-50.570068A94.838903 94.838903 0 0 1 72.649423 30.350603c9.985853-6.230033 20.274307-11.997264 30.580562-17.800095A100.552733 100.552733 0 0 1 147.765821 0.606645c17.604293-0.890005 35.101786-1.139206 52.599279 1.655409a115.700613 115.700613 0 0 1 41.189418 15.806484A202.280272 202.280272 0 0 1 287.122759 55.181734a118.86903 118.86903 0 0 1 31.292566 65.860349c2.136011 16.020085 5.57143 32.04017 7.600641 48.060255 2.296212 18.120496 3.898221 36.347793 5.340028 54.557289 2.972616 36.258792 7.796441 72.179383 17.995895 107.245569a226.3994 226.3994 0 0 0 28.31995 60.698321 361.555516 361.555516 0 0 0 57.458705 67.462358c13.884074 12.940669 29.957559 22.410319 47.18805 30.028759a13.29667 13.29667 0 0 0 5.340028 1.068006h109.701982c0.890005-0.0178 1.79781-0.213601 3.542218-0.409403z m-382.844429-5.909631a33.072575 33.072575 0 0 1 5.197628 0 101.92334 101.92334 0 0 1 51.193071 24.653131c3.987221 3.560019 4.948426 6.977637 3.987221 12.086264-4.628025 24.759931-8.900047 49.608863-13.31447 74.422194-1.495208 8.419445-3.097216 16.821089-4.396623 25.276134-0.907805 5.909631 0.676404 7.315839 6.977637 6.603835 0.391602-1.90461 0.872205-3.916021 1.228206-5.945231q8.900047-49.840264 17.657694-99.680529c2.331812-13.20767 4.681425-26.39754 6.942036-39.62301 1.014605-5.874031-0.338202-7.244638-6.977637-6.977637-1.780009 8.900047-3.435418 18.067096-5.340028 28.21315-20.505709-18.084896-43.236429-27.447745-69.420368-28.836153a31.363766 31.363766 0 0 0-1.014605 3.221817q-11.26746 63.866738-22.481519 127.751277c-0.961205 5.464629-2.118211 10.911458-2.705615 16.411687-0.516203 4.984026 0.836604 5.945232 7.120038 5.66043q12.638067-71.360578 25.347334-143.237359z m265.93341 143.611161c3.008216-17.693294 6.034232-34.959385 8.793246-52.278877a29.387956 29.387956 0 0 0-0.267001-9.665451c-1.780009-9.52305-7.209038-15.913284-16.785489-18.191697-11.28526-2.670014-21.004111 0.462802-29.209955 8.561846-1.530808 1.513008-3.008216 3.061616-4.645824 4.717025-8.490645-16.358287-26.48654-18.209497-43.147429-7.280239-1.97581-2.848015-3.79142-6.675035-8.668646-3.75582q-5.67823 32.360572-11.40986 64.810144a68.138761 68.138761 0 0 0-1.317207 8.188043 4.556824 4.556824 0 0 0 4.467823 5.126427c2.972616 0.302602 3.221817-2.011411 3.560019-4.076221 1.513008-8.650846 2.865815-17.337292 4.556824-25.952538s3.239617-17.283892 5.731631-25.667736a23.656325 23.656325 0 0 1 16.678688-16.287086c13.474671-4.111822 23.816526 4.022821 22.908721 18.120496a120.257437 120.257437 0 0 1-1.780009 13.047469c-1.90461 11.160659-4.005021 22.303518-5.856231 33.464177-0.961205 5.74943 0.712004 7.298039 6.870836 6.639436 0.338202-1.246007 0.783204-2.545413 1.014606-3.898221q3.560019-20.131907 7.120038-40.299414a42.079423 42.079423 0 0 1 6.924236-17.942495 23.834326 23.834326 0 0 1 16.020085-10.057053c10.448655-1.673209 18.440898 4.556824 18.939301 15.07668a57.690106 57.690106 0 0 1-0.872205 11.730262c-2.136011 12.994069-4.574624 25.934737-6.746236 38.946606-0.925605 5.357828 0.302602 6.550435 7.120038 6.924237z m216.164345-22.69512a74.368794 74.368794 0 0 1-5.963031 7.120038 35.83159 35.83159 0 0 1-23.140123 9.754451c-13.723873 0.747604-25.311734-7.244638-28.248749-19.722504a33.001375 33.001375 0 0 1 0.907804-18.476498c2.029211-5.945232 2.029211-6.016432 8.294844-6.034232h51.371073a44.215434 44.215434 0 0 0 4.859425 0c4.094022-0.427202 5.963032-2.705614 4.877226-6.532635-3.346418-12.015064-10.359655-20.79051-23.140122-23.335923-18.8859-3.79142-34.140581 2.723414-45.906444 17.622093-2.207212 2.794615-4.307623 4.610224-7.992242 4.147422a10.128254 10.128254 0 0 0-2.937016 0.427202c-3.061616 4.752625 1.192606 6.425834 2.901416 8.561846-0.943405 4.734825-2.118211 8.900047-2.616614 13.31447a34.05158 34.05158 0 0 0 27.643546 37.593799c16.607488 2.937016 30.527162-2.563214 42.150624-14.400276 3.595619-3.70242 3.061616-5.820631-3.061617-10.039253z m-187.078991-26.45094c-0.658603 2.331812-1.281607 4.307623-1.780009 6.319033-6.461434 25.916937 11.641262 47.277051 38.163402 45.141039 12.175265-0.961205 22.036517-6.479234 30.420361-14.969879 3.916021-3.951621 3.257417-6.265633-3.328618-9.683251a63.617537 63.617537 0 0 1-4.984026 6.158832 35.244187 35.244187 0 0 1-15.414882 9.006848c-16.714289 4.788225-32.04017-2.545413-36.383393-17.479692a32.431772 32.431772 0 0 1 0.747604-19.793705c1.780009-5.340028 2.064811-5.57143 7.956643-5.57143h50.659068c1.780009 0 3.70242 0.124601 5.55363 0 4.432223-0.391602 6.194433-2.687814 4.948426-7.013237-3.471018-12.015064-10.680057-20.523509-23.407124-22.962122-17.123691-3.275217-31.666368 1.86901-43.022828 14.934279-3.79142 4.361023-7.209038 8.188043-13.278871 7.120038-2.598814 4.610224 0.605203 6.692835 3.150617 8.793247z m-161.037453-1.78001c-5.019627-2.527613-9.238249-5.60703-13.919674-6.835236-17.800094-4.645825-36.863995 7.743041-41.759022 26.557741-5.037427 19.259702 8.277044 35.083986 28.052949 33.517577a37.593799 37.593799 0 0 0 18.583299-7.351439c1.780009 3.560019 3.560019 6.977637 8.597445 4.574625 2.136011-12.264265 4.396623-24.51073 6.408034-36.810595a161.980858 161.980858 0 0 0 2.634414-20.576909c0.409402-11.623462-7.013237-20.363308-18.387497-22.62392-9.683251-1.90461-18.120496 1.014605-26.059338 6.265633 2.865815 6.034232 3.75582 6.408034 8.900047 4.378823a51.620274 51.620274 0 0 1 6.532634-2.260612c12.317665-2.954816 20.470108 3.471018 20.63031 16.198086 0.106801 1.602008-0.089 3.186217-0.213601 4.984026z m255.377953 50.87267c0.569603-2.705614 1.139206-4.930626 1.530808-7.120038q12.922868-73.371989 25.792337-146.743978a20.71931 20.71931 0 0 0 0.623003-3.399818 4.734825 4.734825 0 0 0-4.467824-5.108627c-2.883615-0.142401-3.346418 1.780009-3.666819 4.040622-0.231401 1.584208-0.605203 3.168417-0.890005 4.770425l-18.298497 103.72115c-2.527613 14.329076-5.037427 28.658152-7.404839 43.022828-0.890005 5.375628 0.284802 6.497034 6.781836 6.835236z m222.71478-79.014619c-2.581014 0.623003-4.165222 0.925605-5.69603 1.424008a30.865364 30.865364 0 0 0-17.497493 13.990874 133.144706 133.144706 0 0 0-7.333638 14.916479c-2.990416 6.746236-5.464629 13.759473-8.615246 20.434508-4.183022 8.900047-10.252854 15.931084-19.829305 19.348703-0.640803 0.231401-1.263807 0.569603-1.92241 0.801004-2.331812 0.783204-3.560019 2.438613-2.687815 4.752625s2.652214 3.880421 5.482429 2.901416a43.912833 43.912833 0 0 0 6.461435-2.438613c6.568235-3.560019 12.460066-8.277044 16.020085-14.95208s6.799636-14.151075 10.163853-21.235512c3.168417-6.675035 6.034232-13.510272 9.576451-19.971706a20.84391 20.84391 0 0 1 15.806484-11.24966c2.741215-0.391602 4.770425-1.566408 3.86262-4.343223-0.551803-1.79781-2.634414-3.115017-3.79142-4.361023z m-53.400283 8.312644c1.655409-6.354634 0-8.757646-5.429028-7.707441a29.014154 29.014154 0 0 0-19.081702 12.816068 116.626218 116.626218 0 0 0-8.348244 15.913285c-3.168417 6.924237-5.66043 14.240075-8.900047 21.075311-4.218622 9.078048-10.413055 16.340487-20.238707 19.793705a13.581472 13.581472 0 0 0-2.545414 1.103606 3.560019 3.560019 0 0 0-0.890004 5.820631c1.566408 1.95801 3.435418 1.90461 5.589229 1.192606a36.080791 36.080791 0 0 0 20.060706-15.18348 213.067129 213.067129 0 0 0 10.893658-21.591515c2.474213-5.215428 4.396623-10.680057 6.906437-15.877684 4.592424-9.36285 10.680057-16.91009 22.036517-17.337292zM1479.212877 520.5118c0.142401-0.124601 0.658603-0.302602 0.801005-0.658603 7.315839-17.212691 17.461893-33.090375 23.140122-51.086271a121.521244 121.521244 0 0 0 5.500229-38.982206 23.763126 23.763126 0 0 0-1.97581-7.938842c-1.370607-3.435418-3.293017-6.639435-4.841626-9.985853-3.061616-6.675035-5.64263-13.100869-5.76723-20.986312a53.578284 53.578284 0 0 0-14.062075-35.012785l2.812415-4.574624a4.076222 4.076222 0 0 0-0.765404-1.014606c-0.996805-0.587403-2.349612-0.836604-3.008216-1.673209-4.984026-6.283433-12.299865-8.437245-19.206302-11.623461A51.851675 51.851675 0 0 1 1436.492651 312.286297c-10.680057-21.360113 3.275217-41.972622 19.740305-48.505257 24.59973-9.736652 43.040628 3.310818 51.388872 22.74852a45.532641 45.532641 0 0 0 7.867642 13.634873 17.05249 17.05249 0 0 1 3.86262 7.796441c1.085806 4.272023 4.165222 8.045643 6.603835 12.460066l8.455045-7.921042c6.906437 2.118211 11.30306 5.927431 11.854863 13.11867 0.409402 5.340028 2.972616 8.579645 7.992242 10.964858 3.79142 1.780009 6.835236 5.340028 9.896853 8.437244 2.581014 2.616614 4.610224 5.74943 7.120037 8.508445a8.419445 8.419445 0 0 0 3.257418 1.78001c1.94021 0.747604 3.987221 1.192606 5.891831 1.99361 6.087632 2.545413 10.146054 6.959837 9.683251 13.759473-0.747604 10.893658 3.666819 18.9037 11.552261 26.094939 5.927431 5.340028 10.680057 12.015064 15.842084 17.800094a43.200829 43.200829 0 0 1-18.654499 21.360113l-25.525335-17.266091a33.535378 33.535378 0 0 0-7.956642 13.33227c-2.990416 10.181654-6.853036 20.114107-9.612051 30.349161-3.221817 12.032864-5.69603 24.279329-8.401645 36.454593-1.157006 5.197628-2.260612 10.413055-3.132816 15.664083-2.438613 14.809678-4.539024 29.672757-7.120038 44.500236a199.877259 199.877259 0 0 1-12.050664 41.207219c-3.969421 9.612051-7.209038 19.580104-10.680056 29.316755a210.735317 210.735317 0 0 1-29.049754 53.400283c-3.453218 4.699225-8.900047 7.974442-13.492472 11.783662-2.581014 2.153811-4.770425 0.356002-6.853036-1.121405q-24.724331-17.301692-49.413062-34.638984l-2.403013-1.655409c-4.218622 3.079416-9.113648 5.838431-12.887268 9.701052-2.385213 2.438613-3.435418 6.408034-4.450024 9.879052-3.471018 11.748062-5.820631 23.869927-10.181654 35.261987-4.147422 10.893658-8.900047 21.360113-6.675035 33.357377a14.115475 14.115475 0 0 1-0.373802 7.56504c-4.022821 9.39845 2.349612 13.990874 8.170243 18.9571l6.603835 5.58923a39.783211 39.783211 0 0 1-6.230033 2.759014 24.920132 24.920132 0 0 1-5.535829 0.106801h-146.512576a26.077138 26.077138 0 0 0-13.652673 3.73802c-9.629851 5.500229-19.758105 10.092653-29.637157 15.18348-2.545413 1.299407-4.343223 0.249201-6.354634-1.050205q-9.612051-6.194433-19.330902-12.282065c-1.92241-1.192606-3.987221-2.171612-6.603835-3.560019l-11.125059 15.254681c-5.71383-2.812415-6.212233-9.024648-10.680057-13.17207-1.495208 2.616614-3.008216 5.019627-4.272022 7.52944q-20.79051 41.59882-41.563221 83.197641c-1.299407 2.598814-2.919215 5.055227-5.179827 8.900047a43.41443 43.41443 0 0 1-3.68462-6.781836c-8.366044-29.103154-16.607488-58.241909-24.920132-87.362863a6.390234 6.390234 0 0 0-2.954815-3.933821c-2.652214-1.050206-4.147422 1.032405-5.340029 3.221817-5.197628 10.074853-10.377455 20.149707-15.699683 30.17116-1.477408 2.776815-3.399818 5.340028-5.856231 9.078048-2.064811-3.471018-3.86262-5.60703-4.699225-8.063443-2.972616-8.739846-5.64263-17.604293-8.401644-26.41534-0.765404-2.420813-1.406207-4.877226-2.331813-8.152443h-165.345076l-0.249201-1.317207c0.694204-0.391602 1.370607-1.068006 2.100411-1.139206 2.527613-0.249201 5.073027-0.391602 7.61844-0.391602h157.281634l12.673667 40.940217h1.548608c1.103606-1.94021 2.260612-3.84482 3.293018-5.820631 5.144227-9.843452 10.359655-19.580104 15.379281-29.548156 2.438613-4.788225 5.785031-7.013237 11.37426-5.126428 9.113648 31.577367 18.280697 63.279335 27.785948 96.12051l51.01507-101.175736 10.199454 16.340486c2.723414-3.933821 5.108627-7.47604 7.60064-10.929258 3.346418-4.628025 4.058422-4.895026 9.006848-1.92241q10.680057 6.461434 21.093112 13.385671a6.532635 6.532635 0 0 0 7.61844 0.480603c10.591056-5.67823 21.235513-11.26746 32.04017-16.554088a20.114107 20.114107 0 0 1 8.615246-1.655409q73.58559-0.160201 147.18898 0h8.366044c-4.289823-4.432223-8.010042-8.010042-11.44546-11.872663a10.181654 10.181654 0 0 1-2.314013-11.28526c1.602008-4.806025 0.925605-10.537656 0.534003-15.824284a29.476956 29.476956 0 0 1 2.759015-16.126885c6.995437-13.723873 10.680057-28.586952 13.723873-43.539031 1.619809-8.099043 5.162027-14.240075 12.086264-18.476498 2.919215-1.780009 5.66043-3.916021 8.490645-5.891831 9.754452 7.120038 19.152902 14.240075 28.800552 20.915111 7.778641 5.340028 15.913284 10.306255 23.727526 15.681883 3.061616 2.100411 5.233228 1.424008 8.081243-0.445002 8.900047-5.802831 13.795073-14.756278 19.295302-23.229123 10.128254-15.628483 17.01689-32.805574 23.140123-50.267467 2.563214-7.120038 5.340028-14.240075 7.974442-21.466914a222.127377 222.127377 0 0 0 13.27887-57.280703c0.587403-5.963032 1.584208-11.908263 2.705615-17.800094 2.598814-13.634872 5.108627-27.305345 8.223643-40.815617 1.780009-7.832042 4.734825-15.414882 7.120038-23.140122a219.831165 219.831165 0 0 0 6.336834-21.235513c1.584208-7.867642 5.856231-13.866273 11.000458-20.220907l26.148338 17.800094c7.58284-3.933821 12.282065-10.252854 16.215886-18.369697-5.874031-6.639435-11.35646-13.830673-17.800094-19.953906s-10.359655-13.385671-9.683251-22.60612v-1.388407c0.569603-8.437245-6.230033-13.937474-15.806484-12.460066-3.987221-5.340028-7.404839-10.804657-11.765862-15.397082a29.067554 29.067554 0 0 0-10.502056-6.390234 5.340028 5.340028 0 0 1-4.022821-3.969421 75.579201 75.579201 0 0 1-2.064811-8.775446c-0.640803-5.108627-3.560019-7.760841-9.202649-8.900047l-7.814242 9.131448c-3.86262-5.927431-8.348244-11.214059-10.217254-18.298497a17.800094 17.800094 0 0 0-4.467823-7.49384 21.822916 21.822916 0 0 1-5.749431-10.021453 20.025106 20.025106 0 0 0-0.996805-2.598813c-10.680057-25.276134-37.219997-28.925153-57.102703-14.435877-9.968053 7.244638-13.990874 18.351897-11.605661 30.811963 4.218622 22.072117 23.353724 34.371982 41.385219 36.383393-0.551803 8.597446 7.120038 7.885442 12.727068 10.573256l-5.162028 5.53583c0.160201 0.658603 0.106801 1.459608 0.498403 1.92241a58.046108 58.046108 0 0 1 13.17207 31.541767c0.249201 2.047011 0 4.147422 0.338201 6.194433a35.600189 35.600189 0 0 0 1.655409 8.650846 170.400303 170.400303 0 0 0 7.707441 16.304886 27.803747 27.803747 0 0 1 3.168417 13.29667c0.178001 24.920132-8.615246 47.045649-19.864905 68.601564-3.73802 7.120038-6.959837 14.560477-10.413056 21.858516-0.605203 1.246007-1.157006 2.509813-2.082611 4.521224-0.979005-1.584208-1.780009-2.563214-2.225011-3.560019a56.711101 56.711101 0 0 0-15.575083-18.458698c-20.345508-16.803289-40.726616-33.553178-60.733922-50.712469a291.423144 291.423144 0 0 1-21.039711-21.164312 21.360113 21.360113 0 0 1-3.66682-6.568235c-5.874031-14.240075-9.558651-28.960753-12.922868-43.877232a60.41352 60.41352 0 0 0-4.111822-10.911458c-0.925605-2.100411-2.670014-3.86262-3.435418-5.998632a21.360113 21.360113 0 0 0-10.039254-11.854863 21.716115 21.716115 0 0 1-5.980831-5.71383 7.725241 7.725241 0 0 1-1.78001-4.966226 127.573276 127.573276 0 0 1 12.157465-41.563221c7.956642 1.281607 15.646283 2.527613 23.371524 3.73802 4.556824 0.729804 9.131448 1.495208 13.706072 2.100411a37.558199 37.558199 0 0 0 7.600641 0.409403c4.325423-0.338202 4.912826-1.210406 5.055226-5.713831s0.427202-9.238249 0.534003-13.848473a61.997729 61.997729 0 0 1 5.891831-24.012327c1.228207-2.723414 2.171612-5.57143 3.382018-8.722047-6.443634-7.209038-16.571888-6.425834-24.831131-11.801462 6.942037-3.916021 13.403471-7.725241 20.025106-11.24966 8.900047-4.770425 9.52305-5.57143 8.134643-15.699683-1.228207-8.900047 0.676404-17.497493 1.95801-26.148339 0.267001-1.780009 0.694204-3.560019 1.192607-6.087632-3.453218 0.427202-6.319033 0.890005-9.202649 1.085806A46.992249 46.992249 0 0 1 1374.192321 177.290381a11.071659 11.071659 0 0 1-5.037427-9.968052c0.284802-4.592424 0.818804-9.149248 1.281607-14.240076 9.291649 0.925605 16.322687 5.62483 23.745326 10.893658-0.676404-17.586493-7.404839-33.214976-10.555456-50.516668 10.306255 3.221817 17.337292 9.273849 25.543135 15.468282-0.996805-6.425834-5.69603-9.45185-8.259244-13.670472a143.32636 143.32636 0 0 0-9.024647-12.299866c-3.239617-4.200822-6.443634-8.455045-9.896853-12.460066s-6.799636-7.387039-9.825652-11.42766c22.855321 9.718852 34.478783 30.15336 48.060255 49.252861a40.797816 40.797816 0 0 0-1.78001-4.396623 154.255618 154.255618 0 0 0-38.021001-47.294851 216.555948 216.555948 0 0 0-65.664548-38.234603c-26.539941-9.647651-53.898686-10.235054-81.417632-4.467823-43.39663 9.078048-77.964413 31.773168-103.91695 67.640358-10.680057 14.774078-15.859884 31.577367-18.903701 49.413062-4.307623 25.222734-1.406207 49.840264 4.984027 74.172993 3.649019 13.866273 7.333639 27.714747 11.196259 41.50982a173.942522 173.942522 0 0 1 5.340028 59.203114 206.356494 206.356494 0 0 1-21.680515 79.068019c-5.891831 11.801463-12.157464 23.389324-18.191696 35.119586-10.573256 20.541309-23.602925 39.160208-41.49202 54.147887a13.403471 13.403471 0 0 1-9.273849 3.68462c-43.503431-0.195801-87.024661-0.213601-130.528092-0.320402a7.120038 7.120038 0 0 1-4.699225-1.655409 15.859884 15.859884 0 0 1 4.005022-1.050206q41.314019 0 82.628037 0.089001c16.429487 0 32.858974 0 49.288462 0.160201a12.460066 12.460066 0 0 0 8.579645-3.66682c16.714289-13.884074 28.28435-31.612968 38.252403-50.570068 6.230033-11.872663 12.246465-23.852126 18.618899-35.600188a175.152928 175.152928 0 0 0 12.104064-30.260161 203.77548 203.77548 0 0 0 9.202649-82.183035c-1.352807-14.240075-5.482429-27.625746-9.220449-41.225019-6.479234-23.424924-13.26107-46.867648-13.848474-71.324978-0.267001-11.23186 1.548608-22.57052 3.043816-33.820179 4.307623-32.271571 23.140123-55.999097 46.618447-76.540406 34.656784-30.366961 75.365599-44.357835 121.432244-42.008222a135.92152 135.92152 0 0 1 48.914659 11.979463 222.269778 222.269778 0 0 1 68.387963 46.689648c17.159291 17.408492 30.082159 37.380198 36.472393 61.303525a17.355092 17.355092 0 0 1 0.551803 2.705614c0 0.373802-0.249201 0.783204-0.818804 2.385213-3.560019-5.980832-6.853036-11.178459-9.772252-16.589688-7.849842-14.489277-16.500687-28.480151-27.625747-40.655416a44.179834 44.179834 0 0 0-7.262438-6.319033C1394.929431 105.021998 1408.404102 117.944867 1415.132538 135.282159c-9.238249-5.340028-16.536288-13.314471-27.803748-17.533093 3.80922 17.639893 10.163854 33.820179 11.32086 52.617079-8.294844-6.408034-15.521682-12.210865-24.813331-13.866274-0.356002 0.498403-0.801004 0.818804-0.872205 1.228207-2.723414 14.382476-1.352807 18.227297 13.24327 23.264723a47.561852 47.561852 0 0 0 25.240534 2.136011c5.74943-1.139206 7.63624 1.014605 6.479235 6.639436-2.064811 10.217254-3.73802 20.434508-2.064811 30.936563 0.979005 6.212233-1.673209 10.680057-7.369239 13.474672s-11.37426 6.105432-17.800095 9.558651c7.120038 5.179827 17.177091 4.111822 21.182112 13.31447-0.747604 1.92241-1.495208 4.343223-2.581013 6.621635-5.66043 11.730262-6.924237 24.297129-6.995437 37.077597 0 8.561845-3.204017 11.712462-11.943864 10.680056-9.647651-1.157006-19.206302-2.865815-28.818352-4.361023-3.186217-0.480603-6.354634-1.050206-9.932453-1.637608a34.923785 34.923785 0 0 0-2.598814 4.841625 167.320887 167.320887 0 0 0-8.277044 30.758563c-0.712004 4.930626 0.569603 8.223644 4.325423 10.680057 12.460066 8.152443 17.568693 20.648109 21.360114 34.247381 3.86262 14.026474 8.241444 27.910548 12.566866 41.812422a14.934279 14.934279 0 0 0 3.364218 5.945231c7.440439 7.60064 14.738478 15.414882 22.784121 22.339119 18.618899 16.020085 37.7362 31.328166 56.426299 47.20585 6.087632 5.144227 11.481061 11.160659 17.657693 17.248291z" p-id="4637"></path><path d="M947.346059 565.937641c33.98038-2.420813 56.835701 25.382935 48.754458 58.45551-6.959837 28.480151-32.253771 51.620274-61.374725 56.283898l-6.105433 0.979005c-1.281607 5.251028-2.598814 10.573256-3.86262 15.913285-0.694204 2.919215-1.299407 5.856231-1.92241 8.793246-0.498403 2.331812-1.780009 4.254223-4.200823 3.204017-1.530808-0.676404-2.581014-2.776815-3.560018-4.432223-0.338202-0.605203 0.231401-1.780009 0.427202-2.670014q15.432682-66.821554 30.847563-133.678709c0.267001-0.872205 0.640803-1.708809 0.996806-2.848015z m-16.92789 106.996367c2.242812-0.124601 3.150617-0.106801 4.040621-0.231401 25.062533-3.72022 48.345056-25.365134 53.845286-50.053865a42.293024 42.293024 0 0 0-2.509814-27.821548c-5.874031-12.620267-19.063901-21.039712-32.520772-20.398908-7.51164 32.431772-15.07668 65.023745-22.855321 98.505722zM1168.44103 664.176362a20.042906 20.042906 0 0 1-2.082611-2.242812c-2.634414-3.73802-1.637609-6.301233 2.865815-6.265633 3.73802 0 5.838431-1.655409 8.116843-4.218623 11.214059-12.460066 25.080333-18.654499 42.043823-16.625288A25.418535 25.418535 0 0 1 1242.133421 655.044913c1.441808 5.998632-0.160201 8.241444-6.443634 8.259244-16.643088 0-33.303977-0.089-49.947065-0.142401-8.348244 0-8.900047 0.195801-11.28526 8.010043a38.021002 38.021002 0 0 0-1.780009 10.181654c-0.267001 12.460066 7.885442 21.609315 20.363308 22.944321a36.490193 36.490193 0 0 0 27.198544-8.081242c2.705614-2.136011 5.340028-4.450024 7.867642-6.639436 4.396623 3.026016 5.073027 5.055227 1.94021 7.956643-12.780468 11.890463-27.518946 17.978095-45.069839 13.118669-15.272481-4.254223-23.300323-19.010501-19.847105-35.600189 0.801004-3.560019 2.136011-7.031037 3.310817-10.875857z m64.489742-8.900047c-2.616614-7.280239-7.120038-10.982658-13.723873-12.317666a34.763584 34.763584 0 0 0-30.26016 7.796442 44.856238 44.856238 0 0 0-4.022821 4.521224zM1041.116956 677.544233c1.637609-17.301692 13.011869-31.310366 31.737568-39.694211a41.990423 41.990423 0 0 1 25.738936-3.132816 29.049754 29.049754 0 0 1 24.101328 28.907353c0.267001 27.536746-29.370156 52.581479-56.5687 47.811053-15.272481-2.670014-25.222734-14.685078-25.009132-33.891379z m32.609772 26.824742c18.618899 0 38.145602-16.99909 40.726616-35.386588a23.140123 23.140123 0 0 0-21.199912-27.145144c-19.580104-1.97581-41.207218 14.898679-43.948433 34.425383-2.278412 16.162486 8.152443 28.159749 24.421729 28.106349zM1091.170821 778.132566c-3.435418 0.160201-5.233228-1.085806-5.429029-3.844821s1.780009-3.257417 4.040621-3.560018c15.788684-1.95801 25.382935-11.659062 30.384761-25.952538 3.560019-10.003653 5.891831-20.416708 8.561846-30.705163 6.123232-23.478324 12.104064-47.010049 18.156096-70.506173 0.338202-1.352807 0.801004-2.670014 1.085806-4.022822 0.427202-2.118211 1.548608-3.382018 3.80922-3.026016a3.84482 3.84482 0 0 1 3.560019 4.343223 20.114107 20.114107 0 0 1-0.783204 4.076222q-12.175265 46.992249-24.368329 93.966698a59.345515 59.345515 0 0 1-13.617073 26.201739 40.050212 40.050212 0 0 1-25.400734 13.029669zM1325.366662 709.869204c-14.240075 0.729804-23.407124-8.490645-21.004111-21.858516 1.993611-11.107259 5.464629-21.947516 8.294844-32.894574 0.818804-3.115017 1.780009-6.212233 2.598813-9.505251-2.492013-1.780009-7.333639-1.192606-6.639435-5.73163 0.801004-5.340028 5.820631-2.029211 9.39845-4.236422 1.441808-4.930626 3.132817-10.680057 4.806025-16.322687 0.569603-1.993611 1.174806-3.987221 1.655409-6.016432 0.605203-2.492013 1.673209-4.539024 4.681425-3.666819s3.560019 3.132817 2.652214 6.034232-1.637609 5.767231-2.438613 8.668646l-3.346418 12.175264 8.615246 0.302602a64.08034 64.08034 0 0 1 6.924237 0.213601 3.68462 3.68462 0 0 1 3.417618 4.378823 3.239617 3.239617 0 0 1-3.79142 3.097217c-3.239617-0.089-6.479234 0-9.718852 0h-8.063442c-3.73802 14.240075-7.654041 28.035149-10.840258 41.937022-1.94021 8.419445 1.050206 12.762668 9.32725 15.913284 4.378823 1.637609 4.378823 1.637609 3.471018 7.51164zM1278.748215 710.563408c-22.054317 1.246007-33.98038-15.18348-30.26016-35.226387 3.68462-19.580104 23.869927-37.380198 43.823832-38.982207 1.139206-0.106801 2.670014-0.498403 3.364218 0a7.440439 7.440439 0 0 1 2.848015 4.040622c0.124601 0.872205-1.673209 2.527613-2.919216 2.990416a56.6399 56.6399 0 0 1-6.141032 1.032405c-15.717483 3.82702-27.038343 12.905068-32.04017 28.480151-4.912826 15.05888 1.513008 25.970338 16.892289 29.797358 5.874031 1.566408 6.283433 2.189412 4.432224 7.867642zM1013.153007 635.892012c4.628025-0.979005 5.73163 1.993611 6.283434 4.645825 6.408034-1.780009 12.691467-3.951621 19.152901-5.144228 5.197628-0.961205 6.532635 1.388407 4.752625 7.280239-1.246007 0.106801-2.598814 0.267001-3.951621 0.338202-12.816068 0.747604-21.253313 7.49384-24.920132 19.491103-3.186217 10.128254-5.340028 20.541309-8.027842 30.847563-1.352807 5.340028-2.652214 10.680057-3.951621 15.895485-5.927431 0.142401-7.49384-0.979005-6.497035-5.144228 5.340028-22.481519 10.875858-44.909638 16.376087-67.355557-0.0356-0.178001 0.231401-0.302602 0.783204-0.854404zM1156.888769 618.145318c0.907805 1.192606 2.830215 2.670014 3.204017 4.450023 0.658603 3.204017-1.780009 6.230033-4.005021 6.034232a3.880421 3.880421 0 0 1-3.969421-4.574624c0.284802-2.331812 0.106801-5.322228 4.770425-5.909631zM701.953958 568.767856h-48.950259a22.57052 22.57052 0 0 1 2.492013-3.88042c9.167049-8.900047 20.131907-11.730262 32.502972-9.095849a17.337292 17.337292 0 0 1 13.955274 12.976269zM529.043842 568.465255c8.561845-10.377455 18.7791-14.435877 31.043364-13.421272 8.544045 0.712004 15.361481 4.289823 18.939301 12.709268-4.752625 1.744409-37.6828 2.260612-49.982665 0.712004zM348.248283 595.450198c-0.284802 12.940669-12.940669 25.756737-25.863537 26.219539-12.602467 0.427202-21.253313-10.680057-18.173896-23.389324a29.637157 29.637157 0 0 1 24.670931-21.360114 17.550893 17.550893 0 0 1 19.366502 18.529899z" p-id="4638"></path></svg>