<?xml version="1.0" standalone="no"?><!DOCTYPE svg PUBLIC "-//W3C//DTD SVG 1.1//EN" "http://www.w3.org/Graphics/SVG/1.1/DTD/svg11.dtd"><svg t="1651276025076" class="icon" viewBox="0 0 1124 1024" version="1.1" xmlns="http://www.w3.org/2000/svg" p-id="6431" xmlns:xlink="http://www.w3.org/1999/xlink" width="219.53125" height="200"><defs><style type="text/css">@font-face { font-family: feedback-iconfont; src: url("//at.alicdn.com/t/font_1031158_u69w8yhxdu.woff2?t=1630033759944") format("woff2"), url("//at.alicdn.com/t/font_1031158_u69w8yhxdu.woff?t=1630033759944") format("woff"), url("//at.alicdn.com/t/font_1031158_u69w8yhxdu.ttf?t=1630033759944") format("truetype"); }
</style></defs><path d="M1054.578056 1.789016c-2.565826 6.80297-4.872716 12.476035-6.873589 18.243259A268.022896 268.022896 0 0 0 1036.664353 70.619066c-3.177858 22.197926-4.919795 44.725409-10.381003 66.499621-1.271143 5.013954-2.918921 9.933749-4.237144 14.947702-2.612905 9.886669-9.415875 16.265925-17.984322 20.714926-12.405416 6.379256-25.352245 5.578906-38.58155 2.565826C950.744489 171.839728 943.941519 161.717662 940.434105 148.300039c-0.400175-1.483-0.847429-2.942461-1.50654-5.249351a52.517046 52.517046 0 0 0-4.401922 3.295557q-18.996529 18.007862-37.922438 36.086343-62.144778 59.225857-124.242478 118.475253l-104.775154 99.925979-57.695777 54.988713c-6.732351 6.402795-13.417623 12.82913-20.173514 19.161306a43.430726 43.430726 0 0 1-4.707937 3.389716c2.23627 2.353969 3.601572 3.672191 5.037493 5.037493q71.560654 68.123859 143.191927 136.177099 91.804786 87.261626 183.609572 174.546792a8.803844 8.803844 0 0 0 8.709685 2.636446c18.831751-3.554493 37.663502-6.732351 56.495253-10.169146a9.415875 9.415875 0 0 1 9.627732 2.707064c10.098526 10.122066 20.597228 19.843958 31.00177 29.683548a36.180502 36.180502 0 0 0 3.719271 2.754143c-0.188318 0.423714-0.400175 0.823889-0.612032 1.224064l-59.155237 10.663479c0.894508 2.118572 7.061907 9.156939 8.756764 9.415876a14.123813 14.123813 0 0 0 4.707937-0.282477c12.82913-2.353969 25.658261-4.590239 38.487392-6.897128 5.249351-0.965127 10.522241-1.836096 15.748051-2.918922a4.237144 4.237144 0 0 1 4.260684 1.129905q17.678306 16.972116 35.450771 33.897152a9.415875 9.415875 0 0 1 1.106366 1.789016l-60.143905 10.922416a61.697524 61.697524 0 0 0 9.415875 9.015701c0.847429 0.682651 2.754144 0.306016 4.095906 0 17.796005-3.130779 35.56847-6.261557 53.317395-9.627733a7.509161 7.509161 0 0 1 7.532701 2.142112c10.687019 10.428082 21.562355 20.667847 32.367072 30.97823 0.894508 0.847429 1.694858 1.789016 3.154318 3.342636l-90.01577 16.054068c-3.366175 30.295579-6.732351 60.544079-10.169145 91.333992a19.985196 19.985196 0 0 1-2.848303-1.859635c-11.181352-10.6164-22.268546-21.303418-33.520516-31.82566a6.614653 6.614653 0 0 1-2.212731-6.214477c1.906715-17.019195 3.601572-34.06193 5.508287-51.081125 0.894508-7.979954 1.035746-7.979954-4.707938-13.417623-1.247604-1.176984-2.518747-2.353969-4.425461-4.025286-1.953794 10.56932-2.495207 20.667847-3.719271 30.601595s-2.142112 20.267672-3.248477 30.931151a14.123813 14.123813 0 0 1-2.495207-1.577159c-11.393209-10.851797-22.7158-21.750672-34.109009-32.578929a5.696605 5.696605 0 0 1-2.000874-5.31997c1.953794-17.654767 3.76635-35.309533 5.602446-52.987839 0.141238-1.247604 0.188318-2.495207 0.376635-3.742811a4.966874 4.966874 0 0 0-1.741937-5.013954c-2.495207-2.118572-4.825636-4.449001-7.979954-7.415002-2.777683 20.950323-4.307763 41.147376-6.82651 61.815223a24.95207 24.95207 0 0 1-2.542286-1.812556c-11.393209-10.828257-22.762879-21.703593-34.179628-32.50831a5.625986 5.625986 0 0 1-1.930255-5.343509c2.353969-20.926783 4.707938-41.877106 6.873589-62.80389a9.580653 9.580653 0 0 1 0.141238-1.412381 7.838716 7.838716 0 0 0-2.966-8.215352c-11.040114-10.263304-21.891911-20.762005-32.814326-31.190087L566.670927 508.457277c-1.812556-1.741937-3.672191-3.436795-5.837843-5.484748-1.365302 1.106365-2.730604 2.071493-3.931128 3.224938L484.917588 575.003977q-51.340061 49.009632-102.727202 97.972184L305.356842 746.208133q-37.404565 35.615549-74.83267 71.184019a10.381003 10.381003 0 0 0-3.601573 9.886669c2.495207 20.267672 4.51962 40.582423 6.82651 60.850096a10.122066 10.122066 0 0 1-3.554493 9.533574c-9.86313 9.015701-19.443783 18.337418-29.142134 27.517896-1.106365 1.059286-2.353969 2.071493-4.001748 3.648651-2.707064-20.45599-3.907588-40.417646-6.80297-60.238063-3.130779-0.117698-4.119446 2.23627-5.837842 3.389715-5.061033 3.366175-6.143859 7.885796-5.34351 13.770718 1.812556 13.229305 3.01308 26.529229 4.449001 39.805614 0.400175 3.742811 0.800349 7.509161 1.176985 11.251971a6.167398 6.167398 0 0 1-1.718397 5.602446c-11.463828 10.969495-22.880577 21.96253-35.074137 33.685294-1.129905-10.851797-2.024413-20.926783-3.295556-30.95469s-1.553619-19.867497-3.884049-30.413278a43.430726 43.430726 0 0 0-10.875336 9.81605 4.707938 4.707938 0 0 0-0.353095 3.154318q2.966001 27.659134 6.073239 55.27119a7.744558 7.744558 0 0 1-2.353968 7.203144C122.406381 1000.436772 111.507506 1010.629457 100.655709 1020.916301a13.417623 13.417623 0 0 1-1.50654 0.965127c-1.812556-4.919795-1.553619-9.980828-2.165651-14.830004-1.671318-13.252845-3.03662-26.50569-4.496081-39.782074-1.059286-9.651272-2.189191-19.326084-3.130779-29.000896-0.564953-5.908462-0.75327-6.238018-6.449874-7.250225l-77.327878-13.888416c-1.647778-0.306016-3.319096-0.541413-5.578906-0.894508a19.373164 19.373164 0 0 1 1.977334-2.707064c10.875336-10.475161 21.797752-20.879704 32.649548-31.354866a5.084573 5.084573 0 0 1 5.084573-1.388841c11.769844 2.23627 23.751546 4.307763 35.639089 6.402795 6.638192 1.153445 13.299924 2.353969 19.961656 3.319096a5.013954 5.013954 0 0 0 3.578032-0.376635c3.201398-2.659985 6.167398-5.649525 9.933749-9.180478a36.698375 36.698375 0 0 0-4.590239-1.694858c-17.584147-3.201398-35.309533-6.332176-52.775982-9.415876-0.588492 0-1.153445-0.306016-2.212731-0.588492a21.303418 21.303418 0 0 1 2.000873-2.707064c10.56932-10.098526 21.18572-20.102894 31.731501-30.27204a7.697478 7.697478 0 0 1 7.273764-2.142111c17.748925 3.224937 35.52139 6.355716 53.246776 9.674812a6.308637 6.308637 0 0 0 6.379255-1.694858c2.495207-2.542286 5.084573-4.990414 8.380129-8.215351-10.710558-2.98954-20.597228-4.095906-30.342658-5.932002s-19.373164-3.578033-29.730627-5.484747c1.318223-1.50654 2.118572-2.589366 3.083699-3.507414 10.310384-9.910209 20.691386-19.773339 30.97823-29.707087a6.897129 6.897129 0 0 1 6.732351-2.118572c19.891037 3.695731 39.829153 7.061907 59.74373 10.757638a7.061907 7.061907 0 0 0 6.708812-2.353969c11.34613-10.851797 22.786419-21.656514 34.179628-32.484771l117.910301-112.119537 119.605158-113.767316q27.023563-25.658261 54.023586-51.316521c1.812556-1.718397 3.507414-3.554493 5.625985-5.720145L184.362842 143.992276c-0.517873 1.50654-0.894508 2.353969-1.176984 3.436795s-0.659111 2.754144-1.082826 4.095905c-3.978207 12.687892-11.393209 21.585895-25.163927 24.622515-11.134273 2.353969-22.009609 3.366175-32.955564-0.188318a39.805614 39.805614 0 0 1-16.972116-10.687018 29.448151 29.448151 0 0 1-6.80297-11.134273 287.654996 287.654996 0 0 1-11.228432-52.469966c-2.754144-20.220593-4.707938-40.582423-9.204018-60.54408a189.235558 189.235558 0 0 0-12.82913-38.346153c-0.329556-0.706191-0.612032-1.435921-1.200524-2.777683a16.783798 16.783798 0 0 1 2.353969 0.706191 137.000988 137.000988 0 0 0 48.680076 13.959035c15.465576 1.812556 30.97823 3.06016 46.443806 4.707938a130.456955 130.456955 0 0 1 40.464725 10.263304 75.986115 75.986115 0 0 1 22.551022 15.253718 48.750695 48.750695 0 0 1 14.123813 45.313901c-2.824763 14.994782-12.711432 23.704467-27.423738 27.117722-1.812556 0.423714-3.672191 0.72973-5.578906 1.082825 1.953794 3.248477 344.362107 329.555642 354.413554 337.606216 1.176984-0.941588 2.565826-1.859635 3.74281-2.98954q21.397577-20.291212 42.724535-40.629503 51.975633-49.433346 103.951266-98.748994 34.226707-32.48477 68.265097-65.01662l115.203237-109.530172 17.41937-16.477782c1.176984-1.129905 2.212731-2.353969 3.931128-4.354843-2.212731-0.541413-3.483874-0.988667-4.707938-1.176984-17.513528-2.612905-28.247626-15.018321-29.683548-30.083722A49.433346 49.433346 0 0 1 901.570079 41.265074a89.898071 89.898071 0 0 1 36.27466-17.37229A238.24519 238.24519 0 0 1 971.78897 18.831751c17.466449-1.647778 35.097676-2.353969 52.21103-6.614653 8.050574-2.000874 15.86575-4.943335 23.751546-7.55624 2.118572-0.682651 3.978207-1.647778 6.82651-2.871842z" p-id="6432"></path><path d="M804.798418 142.532815a13.982575 13.982575 0 0 1-20.926783 12.546654c-4.095906-2.353969-7.909335-5.108112-11.769844-7.650398a384.96807 384.96807 0 0 0-138.460449-54.612078c-13.064527-2.353969-26.364451-3.695731-39.617297-4.990414-10.286844-1.012207-20.667847-1.647778-31.00177-1.694858a401.492931 401.492931 0 0 0-43.195328 2.353969 386.804165 386.804165 0 0 0-164.212869 56.495253c-5.061033 3.177858-9.957288 6.614653-15.065401 9.698352a13.653019 13.653019 0 0 1-15.15956 0 13.794258 13.794258 0 0 1-6.496954-13.299924 14.547528 14.547528 0 0 1 7.367923-11.440289c7.932875-5.084573 15.771591-10.333923 23.892784-15.11248a412.085791 412.085791 0 0 1 115.69757-46.279028 467.568837 467.568837 0 0 1 47.69141-8.309511 442.546148 442.546148 0 0 1 65.911128-2.542286c9.86313 0.235397 19.67918 1.624239 29.51877 2.495207a343.679456 343.679456 0 0 1 41.759408 6.755891 410.414473 410.414473 0 0 1 114.638284 43.148249c10.286844 5.743684 20.126434 12.264178 30.154341 18.455116a37.145629 37.145629 0 0 1 4.190065 3.03662 12.82913 12.82913 0 0 1 5.084572 10.945955zM561.539275 895.167284c-7.697478 0-15.418496 0.329556-23.115974 0-8.756764-0.494333-17.489989-1.412381-26.176134-2.636446-12.570194-1.741937-25.187467-3.436795-37.663502-6.02616a398.315073 398.315073 0 0 1-108.565045-39.405439c-13.111607-7.061907-25.658261-15.183099-38.440311-22.904117a26.129055 26.129055 0 0 1-5.108113-4.119446 14.123813 14.123813 0 0 1 16.477782-22.503942 40.84136 40.84136 0 0 1 4.707938 2.966001 386.757086 386.757086 0 0 0 173.346268 63.721937 354.790189 354.790189 0 0 0 51.787315 2.589366c12.217098-0.423714 24.410657-1.577159 36.580676-2.612905a338.477184 338.477184 0 0 0 59.108159-11.087194 384.897451 384.897451 0 0 0 115.344475-52.799522c3.107239-2.118572 6.120319-4.307763 10.216225-4.307763 6.732351 0 12.146479 3.154318 13.982575 9.08632 2.047953 6.661732 0.706191 12.758511-5.037494 16.807338s-11.181352 7.57978-16.925036 11.134273a410.155537 410.155537 0 0 1-128.55024 52.305188c-13.911956 3.06016-28.106388 4.943335-42.206662 7.061907a285.88952 285.88952 0 0 1-49.762902 2.730604zM142.391577 476.560999a425.503414 425.503414 0 0 1 37.381026-172.357601 410.744029 410.744029 0 0 1 35.144755-62.850969 26.764626 26.764626 0 0 1 3.554493-4.378382 13.676559 13.676559 0 0 1 17.348751-1.318223 14.123813 14.123813 0 0 1 5.625985 16.124687 23.539689 23.539689 0 0 1-2.777683 5.414128 385.438863 385.438863 0 0 0-49.17441 101.408979 390.452817 390.452817 0 0 0-14.35921 63.298223 417.735316 417.735316 0 0 0-3.719271 45.031425 366.348176 366.348176 0 0 0 3.06016 59.673111 387.651594 387.651594 0 0 0 62.992207 167.343647 19.938116 19.938116 0 0 1 4.331303 12.12294 13.817797 13.817797 0 0 1-23.539689 9.604193 40.017471 40.017471 0 0 1-5.178732-6.685272 419.00646 419.00646 0 0 1-58.025332-131.822257 387.722213 387.722213 0 0 1-9.83959-56.071538c-1.483-14.735845-1.930254-29.660008-2.824763-44.537091zM981.157766 476.819935a425.880049 425.880049 0 0 1-22.574561 134.694099 415.710903 415.710903 0 0 1-48.750695 98.560677c-0.894508 1.294683-1.718397 2.636445-2.683525 3.884049a14.123813 14.123813 0 0 1-19.302545 3.413254 14.38275 14.38275 0 0 1-4.354842-19.208386c3.342636-5.673065 7.179605-11.063654 10.663479-16.666099a382.425783 382.425783 0 0 0 51.057585-130.951289 338.971518 338.971518 0 0 0 6.520494-55.082871c0.258937-10.216225 0.941588-20.43245 0.564952-30.601596a399.233121 399.233121 0 0 0-9.133399-72.784717 375.811131 375.811131 0 0 0-34.250247-94.511851c-7.203145-13.5824-15.606814-26.50569-23.539689-39.711455a18.831751 18.831751 0 0 1-3.672191-9.0157 14.35921 14.35921 0 0 1 8.874462-14.665226 13.276384 13.276384 0 0 1 16.289465 4.707937c3.954668 5.27289 7.55624 10.828257 11.040114 16.477782a416.840808 416.840808 0 0 1 52.211029 126.619986 351.070918 351.070918 0 0 1 8.168272 50.139537c1.200524 14.924163 1.930254 29.824786 2.871842 44.701869z" p-id="6433"></path><path d="M320.281005 497.111147c0.400175 0.447254 0.564953 0.77681 0.823889 0.894508 16.948576 7.061907 29.401071 19.585021 40.582424 33.591136 3.648652 4.51962 7.061907 9.298177 10.428082 13.982575A76.715846 76.715846 0 0 0 399.444978 569.660468a12.758511 12.758511 0 0 1 1.55362 1.365302 45.431599 45.431599 0 0 1-15.724512-0.353096 54.800395 54.800395 0 0 1-29.000897-15.724512c-9.180479-9.251098-17.725386-19.137767-26.48215-28.789039-2.730604-3.03662-5.155192-6.355716-7.956415-9.415876a47.079377 47.079377 0 0 0-21.515275-13.040987 42.37144 42.37144 0 0 0-4.707938-0.847429c-5.131652 18.572814-13.911956 34.556263-28.930277 47.691409 5.837843 0.706191 11.204892 0.470794 16.477782 0.659112s10.59286 0.353095 16.854417 0.541412a28.459484 28.459484 0 0 1-15.371417 11.769845 41.665249 41.665249 0 0 1-8.28597 1.647778 174.829268 174.829268 0 0 1-26.435071-0.211857c1.647778-1.977334 2.612905-3.319096 3.742811-4.449001a58.143031 58.143031 0 0 0 15.88929-28.506563c4.707938-19.373164 9.721891-38.675709 14.641686-58.001793 1.129905-4.425461 2.353969-8.827383 3.625112-13.182226a4.707938 4.707938 0 0 0-1.694857-5.767224c-1.977334-1.50654-3.742811-3.295556-6.332177-5.625986 11.063654-4.707938 21.18572-9.251098 31.77858-13.935495l-12.334797 53.081998a32.390612 32.390612 0 0 0 15.583274 2.353969 33.520517 33.520517 0 0 0 24.434197-56.636491 47.64433 47.64433 0 0 0-29.283373-14.806465 65.487414 65.487414 0 0 0-36.462977 4.707938 51.151744 51.151744 0 0 0-23.775086 20.714926 29.189214 29.189214 0 0 0-4.401922 12.829131 23.139514 23.139514 0 0 0 5.461208 17.513528c0.988667 1.200524 2.000874 2.353969 3.366175 3.978207a23.657387 23.657387 0 0 1-3.460334 3.672192 30.836992 30.836992 0 0 1-14.123813 4.872715 4.872716 4.872716 0 0 1-5.508287-3.319096 33.238041 33.238041 0 0 1 0.870968-29.989563 53.199697 53.199697 0 0 1 13.299924-16.336544 109.742029 109.742029 0 0 1 63.274684-26.45861 85.190134 85.190134 0 0 1 35.309533 3.978207 42.206662 42.206662 0 0 1 17.843084 11.087194 24.434197 24.434197 0 0 1 5.861382 25.234546 53.152617 53.152617 0 0 1-13.017448 20.526608 118.122158 118.122158 0 0 1-29.42461 21.844832c-1.624239 0.870968-3.177858 1.812556-4.802097 2.777683zM657.604745 173.91122a19.537942 19.537942 0 0 1-2.918922 2.636446 77.91637 77.91637 0 0 1-35.309533 12.334796 59.602492 59.602492 0 0 1-11.769844-1.012206c-3.272017-0.376635-6.567573-0.77681-9.792511-1.435921a5.037493 5.037493 0 0 0-5.814303 2.707064A63.816096 63.816096 0 0 0 583.784281 207.149261c-2.612905 9.415875-4.707938 18.831751-7.367923 28.836119a438.61502 438.61502 0 0 0 57.813476-1.435921c-18.313878 14.265051-38.53447 17.207512-60.355762 13.864876-0.800349 2.636445-1.412381 4.51962-1.930255 6.449875a85.519689 85.519689 0 0 1-11.416749 26.741086c-2.659985 3.860509-5.767224 7.415002-8.733224 11.181353 0.282476 0.235397 0.588492 0.682651 0.941587 0.72973 13.723639 1.765477 26.529229 6.614653 39.028804 12.07586 14.641686 6.426335 27.470817 4.919795 38.793407-6.661732a12.0994 12.0994 0 0 1 1.271144-1.059286c0.211857 0.423714 0.353095 0.612032 0.329555 0.682651a45.855314 45.855314 0 0 1-48.138663 23.210133 118.381095 118.381095 0 0 1-27.588515-9.415875 76.739385 76.739385 0 0 0-19.632101-6.402795 48.632997 48.632997 0 0 0-35.992184 7.5327c-0.517873 0.353095-1.082826 0.612032-2.565826 1.459461a28.247626 28.247626 0 0 1 1.647778-2.754144c9.698352-10.875336 21.421117-17.890163 36.251121-18.831751a6.496954 6.496954 0 0 0 5.861382-3.74281 118.075079 118.075079 0 0 0 12.946829-38.181376c1.718397-9.251098 3.319096-18.549275 5.367049-27.729753a57.366221 57.366221 0 0 1 23.539689-35.709708c0.494333-0.329556 0.918048-0.77681 1.906715-1.624238a21.18572 21.18572 0 0 0-3.81343-0.847429c-12.570194-0.353095-25.140388-0.72973-37.663502-0.918048a27.588515 27.588515 0 0 0-15.748052 4.025287 36.745454 36.745454 0 0 0-3.460334 2.353969c-11.769844 9.580653-10.734098 22.7158 2.212731 30.601595l4.896255 2.824763a18.572814 18.572814 0 0 1-2.848302 2.612905 43.713202 43.713202 0 0 1-20.079355 6.026161 6.708811 6.708811 0 0 1-6.544033-3.648652 19.914577 19.914577 0 0 1-1.247604-18.125561 37.169169 37.169169 0 0 1 10.098527-14.123813 84.436864 84.436864 0 0 1 38.393232-20.149973c16.030528-3.78989 32.343532-4.095906 48.727156-3.436795 15.700972 0.635572 31.401945 2.071493 47.079377 0.612032 2.189191-0.211857 4.354842-0.564953 6.544034-0.77681 1.624239-0.188318 3.248477-0.258937 4.896255-0.376635zM495.816464 775.91522l20.032275-11.204892c1.176984 1.483 2.142112 2.871842 3.295557 4.095906a208.185007 208.185007 0 0 0 14.900623 15.653893 35.52139 35.52139 0 0 0 22.62164 9.415876 34.367946 34.367946 0 0 0 15.112481-2.942461 59.531873 59.531873 0 0 0 18.054941-12.593734 23.233673 23.233673 0 0 0 3.201397-4.072366c4.001747-6.308637 3.719271-12.358337-1.647778-17.537068a57.342682 57.342682 0 0 0-12.405416-9.251098c-8.121193-4.401922-16.61902-8.121193-24.95207-12.146479-7.061907-3.389715-14.265051-6.591113-21.18572-10.286844a44.725409 44.725409 0 0 1-9.83959-7.061907 20.926783 20.926783 0 0 1-5.131652-24.763752 39.499598 39.499598 0 0 1 6.520494-10.804717c12.993908-15.15956 29.071516-25.352245 48.939013-28.718421a38.746328 38.746328 0 0 1 34.06193 9.86313c3.625112 3.295556 4.307763 5.696605 2.353969 10.051447-4.072366 9.415875-11.652146 15.253718-19.867498 20.43245l-0.988667-0.541413c0.306016-1.247604 0.588492-2.471667 0.965128-3.695731 3.436795-11.487368-1.082826-20.785545-12.405416-24.716673a36.510057 36.510057 0 0 0-31.755041 3.272016 25.187467 25.187467 0 0 0-12.07586 26.129055 11.228432 11.228432 0 0 0 4.707938 7.885796 71.278178 71.278178 0 0 0 10.875336 6.544033c9.03924 3.978207 18.313878 7.415002 27.400198 11.34613a172.663617 172.663617 0 0 1 18.196179 8.803844 44.937266 44.937266 0 0 1 10.074987 8.33305 14.735845 14.735845 0 0 1 2.966001 15.394956 68.641732 68.641732 0 0 1-64.31043 48.727156 64.875382 64.875382 0 0 1-27.612055-4.849176 41.547551 41.547551 0 0 1-13.252845-8.850923 24.857911 24.857911 0 0 1-6.850049-11.911083zM753.27004 512.01177c0.164778-10.381003 3.907588-23.42199 9.863129-35.874486a153.831866 153.831866 0 0 1 53.034919-60.638238 72.549321 72.549321 0 0 1 28.247627-12.499575 50.68095 50.68095 0 0 1 14.476908-0.659111c11.628606 1.294683 19.184846 7.979954 22.527482 19.184846a49.762902 49.762902 0 0 1-0.423714 26.52923 116.780396 116.780396 0 0 1-15.418496 34.203167A220.496264 220.496264 0 0 1 821.535137 532.42068a88.744627 88.744627 0 0 1-24.316498 15.08894 59.461254 59.461254 0 0 1-11.769845 3.319097 25.399324 25.399324 0 0 1-28.671341-15.512655c-2.377509-5.508287-3.507414-12.12294-3.507413-23.304292z m19.820418-12.946829c0.235397 2.212731 0.470794 6.143859 1.129905 10.004368a38.793407 38.793407 0 0 0 5.555366 14.900623c5.837843 9.06278 14.900623 12.758511 25.211007 9.557113a52.16395 52.16395 0 0 0 13.558861-6.379255 112.119537 112.119537 0 0 0 37.239787-41.735868 72.408083 72.408083 0 0 0 8.121193-30.201421c0.470794-10.781177-1.388842-21.020942-7.768097-29.989564a25.399324 25.399324 0 0 0-28.647802-10.004367 45.502218 45.502218 0 0 0-16.124686 8.544907 106.728949 106.728949 0 0 0-32.57893 43.713202 84.225006 84.225006 0 0 0-5.790763 31.566722z" p-id="6434"></path></svg>