<?xml version="1.0" standalone="no"?><!DOCTYPE svg PUBLIC "-//W3C//DTD SVG 1.1//EN" "http://www.w3.org/Graphics/SVG/1.1/DTD/svg11.dtd"><svg t="1651276017897" class="icon" viewBox="0 0 1024 1024" version="1.1" xmlns="http://www.w3.org/2000/svg" p-id="5929" xmlns:xlink="http://www.w3.org/1999/xlink" width="200" height="200"><defs><style type="text/css">@font-face { font-family: feedback-iconfont; src: url("//at.alicdn.com/t/font_1031158_u69w8yhxdu.woff2?t=1630033759944") format("woff2"), url("//at.alicdn.com/t/font_1031158_u69w8yhxdu.woff?t=1630033759944") format("woff"), url("//at.alicdn.com/t/font_1031158_u69w8yhxdu.ttf?t=1630033759944") format("truetype"); }
</style></defs><path d="M59.369379 538.708807q36.176561-43.716874 72.31076-87.433748l292.293054-351.21764c2.287511-2.711124 4.786828-5.210441 6.862533-8.048649 9.870186-13.428536 14.657014-8.218095 18.766061 4.447938 10.463244 32.236959 21.180656 64.304472 32.27932 96.371985 7.921565 23.25636 9.573657 23.807057 25.670955 4.702106C559.953005 135.556199 611.718529 73.030902 663.73822 10.802135c3.473628-4.236131 5.549332-11.564638 11.94589-10.717412 7.667398 0.97431 7.41323 9.404211 9.404212 15.038265 15.292434 43.971042 30.711951 87.942084 45.326604 132.167295 5.591693 16.944525 12.369503 16.47855 22.536218 4.024324 16.097299-19.613288 32.745294-38.802962 48.41898-58.75514 8.472262-10.759773 13.428536-11.141025 18.003557 2.541679 6.947255 20.714682 14.657014 41.217557 21.773715 61.932238q58.246804 170.207752 116.408886 340.584951c11.903529 34.86336 11.734083 34.990444-24.315393 34.990443H134.94196c-24.484838 0-49.39329-3.261821-72.014231 10.802135zM507.46734 548.536632h421.452695c7.074339 0 17.664667-4.236131 20.587597 4.702105 2.118066 6.650726-7.243784 11.225748-12.327141 15.80077q-174.867497 156.736855-349.989162 313.47371c-48.842593 43.801597-98.024076 87.306664-146.019443 132.04021-14.657014 13.725065-21.604269 11.861167-31.559178-4.490299-34.778637-56.933604-71.209366-113.358871-106.115087-170.589004-8.048649-13.216729-13.004923-17.791751-25.925123-4.702106-27.068879 27.407769-23.722335 29.991809-46.597443-6.269474Q150.615646 700.274852 70.764572 571.877715c-3.55835-5.761138-10.717412-11.649361-6.438919-18.850784s12.708394-4.024325 19.613287-4.024325q211.806561-0.254168 423.613122 0z" p-id="5930"></path></svg>