<?xml version="1.0" standalone="no"?><!DOCTYPE svg PUBLIC "-//W3C//DTD SVG 1.1//EN" "http://www.w3.org/Graphics/SVG/1.1/DTD/svg11.dtd"><svg t="1651275951845" class="icon" viewBox="0 0 1024 1024" version="1.1" xmlns="http://www.w3.org/2000/svg" p-id="1482" xmlns:xlink="http://www.w3.org/1999/xlink" width="200" height="200"><defs><style type="text/css">@font-face { font-family: feedback-iconfont; src: url("//at.alicdn.com/t/font_1031158_u69w8yhxdu.woff2?t=1630033759944") format("woff2"), url("//at.alicdn.com/t/font_1031158_u69w8yhxdu.woff?t=1630033759944") format("woff"), url("//at.alicdn.com/t/font_1031158_u69w8yhxdu.ttf?t=1630033759944") format("truetype"); }
</style></defs><path d="M208.733084 817.910405a204.25432 204.25432 0 0 1-52.209646-42.446866c-11.460654-12.73406-23.345776-15.068637-39.433138-12.012464-37.141008 7.088627-74.621591 12.479379-115.285689 19.10109 19.10109-38.541754 36.461858-74.49425 54.798904-109.937383a33.617918 33.617918 0 0 0 0.806491-32.981215Q-40.642255 418.103372 89.287602 212.957668a69.018604 69.018604 0 0 1 5.305859-6.451924c4.244687 17.997471 0.80649 36.249624 1.995002 54.331989 0.509362 7.428202-2.419471 15.70534 5.051177 21.520561 12.309591 10.102354 17.700343 27.335782 33.957493 33.363237a10.102354 10.102354 0 0 1 9.21097 0.80649c7.343308 4.711602 17.74279 1.528087 23.98248 9.168524 6.536817 15.535553 3.735324 31.920043 3.141068 47.752724-0.80649 20.926305 3.268409 38.711542 20.374495 52.336986a20.798964 20.798964 0 0 1 9.338311 15.747787c-5.772774 10.01746-15.70534 7.343308-24.491842 8.107352-20.798964 1.740322-41.937504-3.438196-62.396893 3.183515 3.183515 18.209706 15.365766 26.699079 32.344512 27.038654 33.702812 0.67915 67.44807 1.825215 101.065988-0.764044 11.290866-5.390752 3.65043-17.700343 9.126077-25.170992a7.597989 7.597989 0 0 1 4.838942-3.268408 12.097357 12.097357 0 0 1 7.852671 4.244686c7.003733 8.998736 13.200975 18.803962 23.940032 24.067373a12.73406 12.73406 0 0 0 11.757782 0.976278 25.46812 25.46812 0 0 1 5.390752 0c14.049913 1.867662 28.184719 0.67915 42.234632 0.933831 3.905112 0 9.041182 1.018725 8.489373-5.857667-5.518093-9.041182-7.640436-22.029924-23.091095-18.506834-9.21097 0-20.119815 5.136071-24.406948-8.489373 5.475646-3.183515 11.290866-1.867662 16.978746-1.528087-7.937564-3.225962-18.803962 4.541815-24.491841-6.579265-4.244687-36.504305-1.655428-73.00861-1.612981-109.512914 0-11.418207 5.942561-18.931302 17.912577-19.143537 16.724065-0.254681 33.660365-3.438196 50.044855 2.84394 8.489373 7.470648 6.791499 17.74279 6.961286 27.293335 0.67915 33.490577-0.764044 66.981155 0.848938 100.344392a17.275875 17.275875 0 0 0 2.928834 5.68788 208.244325 208.244325 0 0 0 35.952495 34.80643 101.872479 101.872479 0 0 0 10.441929 5.475646c22.963755 2.801493 45.927509 1.3583 68.763924 0.764043 4.244687-1.867662 2.631706-4.541815 0.848937-7.258414-10.56927-10.102354-19.398218-21.94503-32.471853-29.203444a18.252152 18.252152 0 0 0-6.112349-1.655427c-48.601662 1.782768-42.446866-11.715335-41.767716-47.285809 0.551809-28.524294-4.584262-57.345716 3.607984-85.530436 24.704076-7.300861 49.662833 0 69.825095-3.098621h-61.802638a8.956289 8.956289 0 0 1-6.409476-1.952556 5.305858 5.305858 0 0 1 1.358299-5.942561c22.454392-8.489373 46.05485-1.061172 71.098501-5.00873a163.038413 163.038413 0 0 0-27.420675-26.104823c-9.041182-5.645433-19.185984-3.310856-28.863869-4.244687-10.823951-0.848937-20.119815-4.244687-20.501837-16.639171-0.67915-21.563008-4.244687-43.33825 2.674153-64.604131 10.272142-9.975014 23.260883-5.602986 35.230899-6.579264 8.828948-0.721597 17.870131 1.061172 26.486844-1.825215l2.377025-1.995003c0.594256-0.848937 1.230959-1.655428 1.782768-2.504365a29.330785 29.330785 0 0 0-0.891384-28.778975 22.836414 22.836414 0 0 0-15.960022-4.244687H323.127388a26.996207 26.996207 0 0 0-14.09236 3.310856c-9.083629 5.348305-15.238425 14.559275-24.831416 19.313324-8.744054 3.183515-14.89885 8.489373-15.45066 18.634174a55.180926 55.180926 0 0 1-1.230959 6.409477 54.714011 54.714011 0 0 0-1.358299 6.876392c-0.721597 57.175929 0 114.266964-0.339575 171.357999 0 9.762779 1.273406 19.78024-2.801493 29.203444a12.73406 12.73406 0 0 1-5.645434 5.305858 52.294539 52.294539 0 0 1-37.777711-1.273406 6.579264 6.579264 0 0 1-2.504365-6.409476c8.489373-4.626708 18.634174 0.297128 29.712807-3.990006-11.970016 2.589259-21.223433 3.225962-30.858872 0-9.21097-20.119815-1.697875-41.682823-5.220965-62.269553a86.336926 86.336926 0 0 0-4.754049-14.729062c-1.443193-2.504365-2.886387-5.00873-4.244686-7.428202-6.239689-9.253417-12.73406-18.379493-23.388224-22.963754a27.081101 27.081101 0 0 1-5.348305-1.995003l-5.220964-2.801493c-8.786501-2.801493-20.162261 1.103619-25.680354-9.975014-2.122343-38.796436 0-77.550425-1.146066-116.304413 0-1.230959-0.297128-2.504365-0.466915-3.735324C213.062664 71.906732 303.72917 25.46986 408.190908 7.854411c146.569029-24.491842 280.149317 8.107351 398.024264 100.429285 12.182251 9.550545 23.685351 19.992474 35.48558 30.052381 0 9.805226-9.720332 8.149798-14.559275 12.309591-10.823951 8.234692-4.584262 18.506834-3.395749 28.18472 0.339575 6.324583 1.230959 12.73406-6.706605 15.620446-4.669155-2.759046-4.032452-6.36703-1.740322-10.229694-5.68788 8.064905 2.928834 13.200975 4.244687 19.865133 0.891384 7.72533 2.928834 15.832681-6.621711 20.077368a7.72533 7.72533 0 0 1-2.928834-10.484376c-4.796496 6.409477 3.056174 12.73406 5.178518 19.652899 0.551809 14.601722 1.230959 29.245891-9.126076 41.428141-6.409477 1.018725-2.631706-5.136071-4.923837-7.003733-0.976278 4.244687 0.764044 8.022458 0.509363 12.097357-2.03745 21.011199-5.433199 41.810163-9.465652 62.524234a124.114637 124.114637 0 0 1-2.079896 19.78024 51.700283 51.700283 0 0 0-0.212234 31.665362c0.509362 6.621711 1.612981 13.54055-6.36703 16.978746-5.178518-2.334578-3.820218-6.36703-2.886387-10.187248-3.098621 5.857668 1.400747 11.800229 0.297128 17.827684-4.244687 21.520561-4.711602 43.89006-13.498104 62.354447-0.80649-2.546812 1.910109-4.244687 5.985009-4.244687 11.927569 5.560539 25.850142 1.952556 37.65037 8.107351a4.244687 4.244687 0 0 1 1.400746 3.565537c0 1.315853-0.424469 1.995003-0.721596 1.952556-9.423204 5.220965-19.822687 0.80649-29.712807 3.013727-2.801493 0 1.400747 3.438196 0 1.018725 9.126076-3.777771 19.143537 0.891384 28.269613-2.886387 4.754049-11.121079 2.334578-22.284605 0.297128-33.490577 0.636703-30.604191 3.905112-60.741466 15.45066-89.477994a6.876392 6.876392 0 0 1 9.720332-0.891384c5.560539 8.489373 15.195978 13.498103 18.294599 23.727798 13.667891 13.455657 26.401951 27.887591 41.470589 39.900054 15.026191 16.38449 29.967488 32.896321 45.121018 49.153471 8.871395 9.550545 20.926305 5.602986 31.707809 6.791499a3.225962 3.225962 0 0 1-0.382022 4.923836 129.802517 129.802517 0 0 1-15.875127 1.018725c-0.764044 0 2.886387 4.244687 2.16479 1.655428-0.297128-1.188512 1.612981-1.952556 3.141068-1.867662 4.244687 0.254681 8.489373-0.721597 12.05491 1.825215a8.871395 8.871395 0 0 1-0.254681 8.489373c-6.197242 46.691553-17.488109 91.727678-38.20218 134.174544-2.971281 6.154796-4.244687 13.498103-11.927569 16.342044-6.282136 1.3583-10.654163-2.377025-15.026191-5.857668-33.957493-26.826419-70.122223-48.729002-112.781323-58.491781a16.978746 16.978746 0 0 1-10.611717-6.324583 15.450659 15.450659 0 0 1-0.848937-6.664158v-51.445602c0 0.976278-2.334578 3.52309-2.292131 3.735324 3.777771 16.469384 1.570534 33.108556 1.528087 49.70528a5.00873 5.00873 0 0 1-5.857667 2.16479c-9.126076-10.866398-4.669155-24.024926-5.985009-36.207176-0.848937-7.597989-0.212234-16.978746-11.205972-16.681619s-9.932567 9.508098-10.739057 16.978747c-1.3583 12.73406 3.395749 27.250888-11.078632 35.910048a19.90758 19.90758 0 0 1-6.282137 1.655428c-13.498103-0.594256-27.335782-3.820218-39.772713 4.838943-12.352038 3.353302-23.770245 13.582997-37.777711 5.560539-4.499368-9.805226-1.3583-20.034921-2.589259-30.009934 1.995003 10.187248-2.716599 20.841411 2.84394 30.816425-1.612981 6.069902-5.433199 5.815221-9.975013 3.438196a19.185984 19.185984 0 0 1-3.905112-9.380757c-4.669155-27.972485-4.669155-27.972485-32.684087-26.741526-12.139804 11.036185-11.503101 22.284605-0.721597 33.957493 7.937564 1.48564 16.299597 0 23.812692 3.820218 6.579264 15.493106-9.126076 15.111084-15.280872 21.605455a94.444277 94.444277 0 0 1-10.908844 6.112349 22.496839 22.496839 0 0 1-12.73406 1.910108 17.233428 17.233428 0 0 1-13.795232-8.913841c-4.626708-23.345776-1.018725-46.988681-2.334577-70.419351-0.424469-7.215967 2.631706-15.662894-6.069902-20.45939a57.133482 57.133482 0 0 0-32.684087 1.018725c-7.428202 8.489373-3.990005 18.931302-4.244687 28.481847-0.594256 14.771509 0.254681 29.712806-0.297128 44.356975-0.764044 20.841411-4.754049 25.46812-24.704076 25.807695-26.783973 0.721597-53.525498 0.67915-80.267024 0-20.204708-0.509362-24.491842-5.051177-25.46812-25.46812-1.061172-24.619182 0.891384-49.280812-0.976278-73.730206a10.229695 10.229695 0 0 0-5.13607-2.589259c-8.913842 0-18.209706-2.249684-25.722801 4.966283-6.876392 24.279607-1.400747 48.983684-3.183515 73.390632-0.764044 10.229695 2.079896 21.563008-8.489373 28.948762-19.695346 6.791499-40.197182 1.48564-60.104763 4.244687-12.267144 6.239689-11.503101 13.031188-0.848937 20.204708 19.10109 3.141068 38.838883-3.013727 57.55795 4.244687a4.244687 4.244687 0 0 1 1.697875 6.069902c-15.068637 6.069902-30.646637 0-45.842616 2.674152-2.84394-0.636703 0.424469 3.480643-0.424468 0.806491 0-0.594256 0.424469-0.933831 1.867662-0.891384 52.294539 1.782768 50.129749-11.503101 50.426877 49.195918 0.212234 45.248359-0.976278 90.496719 0.721597 135.829971a20.714071 20.714071 0 0 0 4.669155 7.597989c9.508098 4.754049 18.761515 7.470648 26.826419-2.674152 0.382022-1.018725 0.764044-1.952556 1.146066-3.013728s0.636703-2.16479 0.933831-3.268408c1.103619-54.247095 0-108.409296 0.594256-162.571498 0-10.059907-2.971281-21.605455 8.489373-28.609188 36.249624-0.891384 72.541694-0.212234 108.833765-0.254681 7.640436 0 15.535553 0 21.223433 6.23969 6.451924 10.993738 4.244687 22.114817 0.594256 33.278343-12.988741 20.332049-12.394485 46.351978-27.378228 65.877536-9.677885 5.518093-20.841411 2.334578-30.901319 5.136071-9.083629 8.022458-8.871395 16.087362 0 24.10982 8.871395 2.589259 18.719068 0 26.95376 5.263411a38.541754 38.541754 0 0 1 8.956289 24.364501 35.230899 35.230899 0 0 1-1.018725 9.21097c-5.815221 14.431935 0 27.208441 5.900114 39.942501a48.134746 48.134746 0 0 1 2.419472 4.923837 226.581372 226.581372 0 0 1 9.423204 25.46812c-31.368234 8.107351-62.863809 3.056174-94.062255-0.509363-44.059847-5.051177-87.525438-13.370763-127.807515-33.235896 1.782768-3.183515 5.348305-1.697875 7.895118-2.971281-3.65043 1.018725-7.85267-0.721597-11.121079 2.207237a19.355771 19.355771 0 0 1-15.493107-4.244686c0.636703-13.54055 14.177253-5.136071 20.416943-12.73406a82.304474 82.304474 0 0 0-26.019929-25.128545c-27.76025-6.791499-27.76025-6.791499-27.76025-35.782708v-131.330604c0-6.451924 3.777771-14.09236-3.607984-19.355771H217.434691a6.282136 6.282136 0 0 1-4.838942-7.470648c10.102354-11.078632 24.279607-4.244687 35.994942-8.192246 8.489373-6.791499 8.744054-13.455657-0.254681-19.992474-11.927569-2.207237-23.897586-0.933831-35.867602-0.933831-6.833945 0-14.89885-0.848937-17.530556 8.064905s3.438196 12.73406 9.805226 16.554278c2.971281 1.782768 6.027455 3.862665 4.244687 8.149798 5.00873 11.24842 3.905112 23.260883 3.905112 35.146005v121.610272c0.212234 6.918839 2.546812 15.111084-4.159793 21.26588z" fill="#73B9F7" p-id="1483"></path><path d="M509.893599 838.454688l0.636703-8.744054c4.923836-5.518093-2.928834-16.978746 7.895117-19.058643 13.285869-2.334578 13.795232 10.866398 19.143537 18.124812a93.128424 93.128424 0 0 0 27.845144 27.548016 12.05491 12.05491 0 0 0 11.672888 0.976278 25.892588 25.892588 0 0 1 5.433199 0.212234 418.441207 418.441207 0 0 0 52.464327 0.594256c-5.900114-12.73406-15.238425-18.803962-22.836414-26.444398-9.041182-8.489373-23.897586-0.848937-32.259618-11.333313-5.348305-13.285869-3.692877-26.911313-1.825216-40.451863a10.484376 10.484376 0 0 1 4.626709-6.069902 20.798964 20.798964 0 0 1 7.003733-1.230959c-2.971281-0.254681-5.942561 0-8.956289 0a5.645433 5.645433 0 0 1-3.990006-3.990006 6.833945 6.833945 0 0 1 3.183515-4.923836 36.461858 36.461858 0 0 1 24.10982-0.891384c14.347041 0.339575 17.233428-13.370763 25.46812-20.714071 1.443193-2.207237 3.098621-4.244687 4.711602-6.451924a33.490577 33.490577 0 0 0 4.669156-11.630441c0.382022-1.740322 0.80649-3.438196 1.273406-5.178518 0.254681-7.85267 4.244687-16.426937-4.584262-22.327051-27.63291-2.546812-27.63291-2.546812-33.023662 24.576735a9.041182 9.041182 0 0 1-4.244686 4.244687 4.838943 4.838943 0 0 1-4.584262-3.310856 107.645253 107.645253 0 0 1 0.721597-24.279607c-3.52309 9.932567 2.631706 20.034921-4.711602 28.014931a8.234692 8.234692 0 0 1-9.465652-3.268408 74.918719 74.918719 0 0 1 0.509363-49.111024c10.01746-8.956289 22.327052-5.220965 33.957493-6.027455 15.790234-1.146065 31.750256 2.122343 47.328256-2.207237a11.121079 11.121079 0 0 0 2.928833-5.305859c4.244687-18.379493-4.541815-23.812692-21.520561-23.473117-14.601722 0.297128-29.415678 2.03745-43.932506-2.079896a9.89012 9.89012 0 0 1-4.796496-4.499368c0.466916-1.018725 0.891384-2.079896 1.315853-3.098621l8.149798-3.947559c19.865133 2.631706 39.730267 1.400747 61.63285 1.825215-19.22843-3.183515-37.480583 6.579264-53.567946-6.749051l22.072371-15.365766c2.504365-6.409477 7.810223-5.602986 13.031188-5.051177l8.149798-4.244687 37.098561-9.041182c8.489373 7.597989 7.04618 17.997471 7.131074 27.63291 0.339575 39.518032 0 78.993618 0 118.469203a88.798844 88.798844 0 0 0 1.230959 18.97375 10.56927 10.56927 0 0 0 12.097357 9.168523 10.059907 10.059907 0 0 0 10.229694-8.786502 80.946174 80.946174 0 0 0 1.315853-18.931302v-122.71389c0-9.677885-1.3583-19.992474 6.536818-27.972485l5.645433-1.103618a18.676621 18.676621 0 0 1 3.480643 7.215967c2.292131 59.765188 0.382022 119.572822 1.061172 179.338009-1.061172 17.74279 2.16479 35.697814-2.419472 53.228371-4.923836 10.823951-18.124812 5.518093-24.78897 12.734059-4.796496 9.041182-2.716599 18.591727-2.249684 28.014932a11.503101 11.503101 0 0 0 2.164791 5.00873c18.634174 3.820218 37.141008 4.966283 55.562947-1.103618 3.353302-2.84394 7.300861-4.966283 9.21097-9.253417 3.353302-65.495515 0-130.948582 1.655428-196.359203 0.509362-23.770245-3.777771-47.795171 3.183515-71.268288 0.933831-0.976278 1.867662-1.910109 2.84394-2.84394 54.119754 6.918839 96.821302 36.079836 136.976037 70.29201-0.891384 6.664158 4.456921 9.975014 7.767777 14.304594 42.786441 56.369438 56.581673 118.851225 38.966223 187.530255a28.142272 28.142272 0 0 0 5.220965 25.46812c14.89885 21.223433 29.415678 42.446866 46.394424 67.023601h-87.22831a29.245891 29.245891 0 0 0-22.921307 7.85267c-110.149618 106.753868-295.472635 85.827563-376.41881-48.686555-4.584262-4.923836-8.998736-9.932567-9.508098-16.978747-0.424469-3.438196 1.825215-6.664158 0.764044-10.059907 0-0.254681-2.461918 0.80649-3.438196 2.03745-1.952556 0.466916-3.013727-0.254681-3.183515-2.207237v0.764043a67.914986 67.914986 0 0 1-10.017461-42.404419z" fill="#FE9B65" p-id="1484"></path><path d="M959.490806 435.379247l-38.20218-36.631646c-10.229695-19.525558-29.967488-30.689084-42.446866-48.21964l-29.712806-27.930038c-16.511831-20.289602-3.905112-41.385695-1.867662-62.184659a558.303631 558.303631 0 0 1 8.956288-58.109759 64.264555 64.264555 0 0 0-2.079896-23.770246c0.339575-8.064905-1.528087-18.124812 12.479379-14.474381 46.946234 58.91625 83.323198 123.095912 98.901198 197.675056 3.905112 18.549281 7.980011 37.056114 7.555542 56.199651 3.268409 7.72533 1.188512 15.790234 1.443193 23.727798-9.168523 7.428202-10.484376-3.141068-15.02619-6.282136z" fill="#73B9F7" p-id="1485"></path><path d="M866.532169 164.058878c-11.800229 1.443193-7.131074 10.484376-7.937564 16.978747 2.971281 7.72533-1.995003 15.195978-0.721597 22.87886-2.928834 17.870131-7.04618 35.570474-8.489373 53.695286-4.244687 20.162261-6.749052 40.621651-9.423204 60.996147-3.735324 5.985008-2.716599 13.200975-5.093624 19.525558-0.933831 9.975014-0.764044 20.162261-6.027455 29.203444-5.390752 30.816425-12.73406 61.335722-13.540551 92.831297-2.207237 8.149798 2.546812 17.615449-4.584261 24.91631-12.988741-1.315853-28.31206 10.059907-38.20218-7.131073-1.48564-19.652899 2.461918-38.796436 5.815221-57.98242 1.655428-2.971281 0.976278-6.918839 3.947559-9.33831 4.244687-5.348305 3.52309-11.715335 3.438196-17.912578-2.589259-9.975014-3.735324-19.822687 1.867662-29.288337 0.80649-3.268409 0.551809-6.706605 1.612981-9.932567 3.820218-23.175989 6.621711-46.691553 9.550545-69.782648a17.615449 17.615449 0 0 1 4.838942-8.489373 148.564032 148.564032 0 0 0 7.343308-43.677826c-1.655428-2.759046-1.995003-5.348305 0.933831-7.555542 4.796496-6.749052 3.65043-14.474381 3.650431-21.987477-1.995003-2.716599-2.504365-5.263411 0.80649-7.385754 4.244687-5.390752 3.480643-11.800229 3.438196-18.039918-1.697875-10.314588-5.942561-21.223433 4.244687-29.712807 3.947559-6.791499 14.2197-0.636703 17.657896-8.489373z" fill="#FDFEFE" p-id="1486"></path><path d="M293.499475 828.097653a31.750256 31.750256 0 0 1 3.183515 2.631705c8.489373 8.913842 24.449395 18.167259 24.024927 26.656632-0.80649 16.299597-21.563008-0.551809-29.458125 10.272142a113.120898 113.120898 0 0 1-31.750256-17.827684 23.43067 23.43067 0 0 1-2.079897-20.883858c11.800229-9.253417 23.897586-7.428202 36.079836-0.848937z" fill="#F4F9FD" p-id="1487"></path><path d="M208.733084 817.910405c0-52.124752 0-104.29195 0.551809-156.416702 0-12.73406-2.504365-20.841411-16.978747-21.223433l17.488109-1.867662h2.589259l5.093624 4.838942c0 53.567945-0.254681 107.13589-0.976278 160.703836 0.042447 4.838943 6.579264 16.129809-7.767776 13.965019z" fill="#5FB0F7" p-id="1488"></path><path d="M174.945378 278.071161c0 1.146065 0.254681 2.292131 0.297128 3.480643-3.013727 5.772774-9.126076 5.68788-14.262147 7.258414a10.441929 10.441929 0 0 0-8.489373 12.267144c0.80649 6.961286 5.985008 8.956289 11.885123 9.253417 15.195978 0.721597 30.47685-0.254681 45.672828 1.867662 4.244687 3.65043 3.183515 8.489373 3.565536 13.285869l-2.631705 2.249684a59.680294 59.680294 0 0 1-33.957493 1.018725 37.820158 37.820158 0 0 1-8.998736-4.923837c-8.489373-3.013727-18.082365 1.570534-26.529291-2.97128l-5.518093-5.136071a24.449395 24.449395 0 0 1 1.570534-3.607984 51.572942 51.572942 0 0 0 0.084894-29.24589c0-38.753989-0.339575-77.465531-0.339575-116.21952 0-5.475646-1.3583-11.418207 3.310855-15.960022l1.273406 0.933831c3.480643 39.220904 0.551809 78.484256 1.528088 117.662713 0 7.04618 4.711602 6.749052 9.635438 7.088627 7.17352 0.466916 14.771509-1.697875 21.902583 1.697875z" fill="#82C2F9" p-id="1489"></path><path d="M293.499475 828.097653c-11.460654-1.825215-22.963755-5.051177-33.957492 1.48564-3.905112 0.721597-6.154796 0-4.244687-4.711602q-0.509362-90.708953-1.061172-181.545247c9.21097 4.88139 5.645433 13.625444 5.68788 20.798965 0.297128 44.399422 0.848937 88.798844-0.212234 133.198266-0.382022 17.275875 2.589259 27.505569 22.666627 24.152267 4.88139-0.848937 9.932567 0.084894 11.121078 6.621711z" fill="#5BAEF8" p-id="1490"></path><path d="M836.692022 320.390686c0-21.478114 4.966283-42.446866 9.083629-63.160937 4.626708-2.334578 5.772774 1.995003 8.064905 4.244687-5.942561 20.034921-10.654163 40.197182-4.796496 61.165934-3.353302-1.061172-6.536817-1.48564-8.489373 2.334578-3.692877 0.382022-6.197242-0.042447-3.862665-4.584262z" fill="#72B9F8" p-id="1491"></path><path d="M878.926654 350.527961c15.790234 14.601722 35.952496 25.46812 42.446866 48.21964-15.153531-15.195978-33.533024-27.548016-42.446866-48.21964z" fill="#61B1F7" p-id="1492"></path><path d="M101.63964 282.358294c-10.187248-2.504365-6.918839-10.823951-7.003733-16.978746-0.339575-19.525558 0-39.093564 0-58.661569 8.786501 0.212234 4.541815 6.918839 4.796496 10.611716 1.400747 21.520561-2.207237 43.380697 2.207237 65.028599z" fill="#5DAFF6" p-id="1493"></path><path d="M895.565825 430.964773c-18.676621-8.489373-30.731531-23.388223-41.470588-39.900055 18.506834 8.446926 29.627913 24.534289 41.470588 39.900055z" fill="#61B0F7" p-id="1494"></path><path d="M828.924245 367.379367c-1.782768-10.314588 3.225962-19.652899 4.244687-29.712806a2.16479 2.16479 0 0 1 3.692877 0c-0.382022 9.847673-0.721597 19.737793-1.061171 29.712806z" fill="#65B3F7" p-id="1495"></path><path d="M255.169955 824.871691l4.244687 4.711602v20.247155c-11.418207-6.579264-8.107351-15.70534-4.244687-24.958757z" fill="#75BBF9" p-id="1496"></path><path d="M519.656378 879.585701a24.279607 24.279607 0 0 1 3.52309 0.509363 6.961286 6.961286 0 0 1 4.541815 8.998735c2.461918 5.942561 4.88139 11.885123 7.300861 17.870131l-3.141068-0.509362c-10.781504-5.900114-10.951291-16.639172-12.224698-26.868867z" fill="#6EBAF3" p-id="1497"></path><path d="M972.352206 443.826173l0.636703-25.892588c6.282136 11.121079 3.565537 23.006201 2.886387 34.679089 0 0.382022-0.933831 0.976278-1.400746 0.933831a5.263411 5.263411 0 0 1-1.910109-0.80649 6.451924 6.451924 0 0 1-0.212235-8.913842z" fill="#9BCDF9" p-id="1498"></path><path d="M973.24359 503.081998l-1.018724-8.489373c-1.230959-0.80649-1.697875-1.655428-1.400747-2.589259s0.67915-1.443193 1.061172-1.443193a26.656632 26.656632 0 0 0 0.509362-3.692878c1.230959-5.857668-1.952556-12.394485 4.244687-19.610452-0.891384 13.285869 3.777771 25.128545-3.39575 35.825155z" fill="#E9F4FD" p-id="1499"></path><path d="M137.634583 282.867657a26.699079 26.699079 0 0 1-0.254681 29.24589z" fill="#7BBDF8" p-id="1500"></path><path d="M836.861809 337.751455h-3.692877c-0.466916-6.112349-1.103619-12.267144 3.52309-17.403216l3.777771 4.499368c0.551809 4.796496 0.848937 9.550545-3.607984 12.903848z" fill="#73B9F7" p-id="1501"></path><path d="M972.352206 443.826173v8.913842c-6.749052-3.990005-12.394485-8.786501-13.073634-17.360768z" fill="#67B3F8" p-id="1502"></path><path d="M306.742898 871.945265c5.093624-6.027455 11.036185-3.310856 16.978746-0.551809l-13.795231 1.315853a4.754049 4.754049 0 0 1-3.183515-0.764044z" fill="#64B3F7" p-id="1503"></path><path d="M573.648792 143.259914l0.891384 80.054789c7.640436 10.357035 4.499368 22.327052 5.093624 33.957493a157.053405 157.053405 0 0 0 0 45.036125c0.509362 10.866398 0 21.732795 0 32.599193a57.982419 57.982419 0 0 1-1.825215 14.049913 18.591727 18.591727 0 0 1-2.97128 6.282136c-0.297128 38.711542-0.382022 77.423084-1.146066 116.134626 0 3.777771 5.857668 15.535553-7.810223 10.102354-11.418207-5.518093-18.761515-15.280872-26.019929-25.128544l-3.692878-3.565537c-3.777771-4.244687-2.419471-9.380757-2.461918-14.177253V158.668126c0-5.263411-2.546812-11.460654 3.225962-15.70534l7.088627-0.594257c10.102354-5.263411 20.034921-6.239689 29.627912 0.891385z" fill="#FCFDFE" p-id="1504"></path><path d="M736.517418 578.51008c11.800229-12.73406 5.645433-28.099825 5.602986-42.022398 0-15.323319 7.131074-16.554278 19.313324-16.978746 12.73406-0.297128 17.403215 4.244687 16.766512 16.978746-0.764044 14.686616 0.297128 29.415678 0.55181 44.144741 4.244687 7.131074 2.886387 15.068637 2.886387 22.75152v230.656271c0 8.701608 4.244687 20.714071-5.687881 25.043651-8.489373 3.65043-14.559275-6.451924-21.223433-11.418207-1.697875-1.273406-3.353302-2.546812-5.093624-3.735324a27.335782 27.335782 0 0 1-13.158528-18.549281 57.006141 57.006141 0 0 0 0.848937-7.597989v-53.610392-163.802456c0-6.876392 1.655428-14.007466-1.782768-20.629177z" fill="#FDFCFB" p-id="1505"></path><path d="M365.871382 520.145639h33.957493a20.671624 20.671624 0 0 1 4.244687 13.880125c1.952556 108.663977-4.244687 217.243061-2.377025 325.864591 0 1.273406-1.103619 2.589259-1.655427 3.862665-31.156 9.89012-37.947498 5.00873-38.20218-26.868866-0.721597-62.099765-1.952556-124.369318-0.297128-186.299296 1.061172-43.295804-1.230959-87.058523 4.32958-130.439219z" fill="#FDFDFE" p-id="1506"></path><path d="M302.92268 481.943459c-3.268409 5.00873-5.730327-0.297128-8.489373-0.721597-11.460654-5.475646-18.761515-15.238425-26.019929-25.086098l-3.692878-3.777771c-8.701608-9.423204-7.300861-21.223433-6.112349-32.132277 7.640436-69.315732 1.612981-138.843699 3.692878-207.989645 0-7.597989-2.03745-15.493106 2.079896-22.75152v0.297128a34.80643 34.80643 0 0 1 39.390692-0.80649c7.640436 13.031188 4.244687 27.378229 4.244687 41.17346 0.551809 24.534289 0 49.068577 0 73.645313a1400.746584 1400.746584 0 0 0-0.424469 146.866157c0.254681 10.526823 2.801493 21.732795-4.669155 31.28334z" fill="#FBFDFE" p-id="1507"></path><path d="M415.873791 485.593889a213.592631 213.592631 0 0 1-33.702812-33.278343c-3.820218-5.68788-3.480643-12.139804-3.353303-18.464386 1.188512-72.159673-2.631706-144.107111-1.825215-216.18189 0.382022-33.235896 7.810223-38.838883 41.72527-31.156a6.706605 6.706605 0 0 1 3.310855 6.961286c0 85.360648-2.461918 170.721296 0 256.039497 0.721597 12.267144 4.669155 25.637907-6.154795 36.079836zM637.106857 214.613096q0.339575-27.208441 0.594256-54.416883c0-4.244687-0.254681-9.423204 4.669156-10.314588 2.419471-0.424469 5.602986 3.310856 8.489373 5.220964 21.223433 14.431935 27.76025 35.146005 25.170991 59.680294 9.720332 8.956289 23.515564 0 33.533025 7.597989 12.73406 11.37576 26.868866 21.732795 33.957493 38.20218-10.484376 6.069902-21.94503 2.546812-32.853875 2.674152-41.513035 0.466916-82.983623 0.297128-124.496658 0a10.272142 10.272142 0 0 1-9.295864-6.324583c0.297128-11.205973-4.244687-22.793967 2.7166-33.405683 18.931302-3.735324 38.881329 4.584262 57.345716-4.711603-1.146065-1.018725-1.48564-1.995003-1.061172-2.928833s0.80649-1.273406 1.230959-1.273406z" fill="#FCFDFE" p-id="1508"></path><path d="M282.717971 164.228666l19.950028-18.846409c4.754049-5.602986 11.24842-4.838943 17.488108-4.838943h155.90734c6.324583 0 12.73406-0.551809 17.318321 5.220965a59.425613 59.425613 0 0 1-0.594256 35.018664v-0.636703c-15.662894 9.550545-32.896321 3.225962-49.365705 4.711603a240.164369 240.164369 0 0 1-25.46812 0c-11.842676 0-23.685351-0.551809-35.48558 0.594256-36.504305 2.84394-72.966163 0.509362-109.385574-1.400747-7.04618-8.701608-6.197242-10.441929 9.635438-19.822686z" fill="#FBFDFE" p-id="1509"></path><path d="M730.871985 579.613698c0 56.369438-0.891384 112.781323 0 169.150762 0 15.026191-4.711602 18.973749-19.228431 18.973749s-19.270877-4.244687-19.10109-19.058643c0.636703-54.968692 0-109.937383-0.339575-164.906075 11.163526-16.214703 25.086098-8.53182 38.669096-4.159793z" fill="#FEF9F6" p-id="1510"></path><path d="M574.115708 859.465887c-3.056174 3.692877-5.560539 0-8.489373-0.594256a102.254501 102.254501 0 0 1-32.556747-32.938769 123.435487 123.435487 0 0 1-3.310855-23.642904v-36.589199a371.325185 371.325185 0 0 1 2.377024-64.052321c6.112349-8.701608 3.183515-18.676621 4.244687-28.142272 4.541815-5.602986 10.908845-6.112349 17.403215-6.282136 7.810223 0.212234 15.832681-0.254681 21.775242 6.324583 6.112349 19.058643 0 38.966223 4.244687 58.152207a123.095912 123.095912 0 0 1-3.225962 38.796435c3.990005 18.039918 0 36.461858 2.631706 54.544223 0.297128 11.800229 3.056174 23.897586-5.093624 34.424409z" fill="#FEFDFC" p-id="1511"></path><path d="M697.466301 304.175983q1.612981 0 3.183515 0.382022a29.288338 29.288338 0 0 1 16.978746 17.74279c5.730327 6.536817 11.460654 13.031188 16.978747 19.568006a9.465651 9.465651 0 0 1 0.67915 7.937564c-1.103619 38.881329-0.424469 77.762659-0.382022 116.601541 0 14.644169-2.504365 24.406948-20.671624 24.322054-16.978746 0-22.029924-7.04618-22.029924-23.006201 0-46.691553 1.528087-93.383106-1.400746-139.862424-0.254681-8.319586-0.551809-17.190981 6.664158-23.685352z" fill="#FCFDFE" p-id="1512"></path><path d="M254.618146 486.145699c-30.307062 0-60.783912-1.655428-90.836294 1.146065-31.453128 2.928834-48.601662-12.182251-60.699018-37.820158a4.244687 4.244687 0 0 1 6.36703-2.122343c38.20218 1.612981 76.404359 0.67915 114.903666-0.848937a78.229574 78.229574 0 0 1 26.996207 1.782768 12.479379 12.479379 0 0 1 5.815221 4.838943c-0.382022 11.036185 3.565537 22.284605-2.546812 33.023662z" fill="#F9FBFE" p-id="1513"></path><path d="M536.253103 520.357873h36.928774c7.85267 8.489373 4.711602 18.676621 4.754049 28.142272 0 23.133542 1.146065 46.309531-0.67915 69.443073a12.309591 12.309591 0 0 1-4.626709 6.451924c-13.370763 4.244687-26.614185 6.664158-38.881329-3.098621-2.292131-33.745259-6.833945-67.532964 2.504365-100.938648z" fill="#FBFCFE" p-id="1514"></path><path d="M475.936106 272.468174l37.056114 35.48558H425.424336c-6.961286-12.309591-5.136071-24.958757-1.528088-37.735264 17.530556-2.801493 35.018665-5.942561 52.039858 2.249684z" fill="#F5F9FE" p-id="1515"></path><path d="M476.148341 451.211928l31.28334 31.156c-2.759046 9.21097-10.611717 7.810223-17.403215 7.98001-14.007466 0.339575-28.057379 0-42.107291 0-25.46812-0.212234-26.95376-1.952556-26.699079-28.099825a68.636583 68.636583 0 0 1 0.636703-8.489373c17.403215-14.347041 35.782708-9.295864 54.289542-2.546812zM212.468408 638.402608l-1.315853-0.254682-1.273406 0.254682c-7.555542-5.560539-23.600458 2.504365-23.006201-16.978747 0.509362-16.129809 3.990005-23.175989 21.223433-21.223433 15.323319 1.570534 30.901319 0.764044 46.394424 1.018725a39.475586 39.475586 0 0 1 0.297128 33.745259c-13.965019 2.504365-28.694082-2.971281-42.319525 3.438196z" fill="#F6FAFE" p-id="1516"></path><path d="M357.50935 664.295196H290.825323a39.178457 39.178457 0 0 1 0-33.745259h66.896261a32.811428 32.811428 0 0 1-0.212234 33.745259z" fill="#FCFDFE" p-id="1517"></path><path d="M269.219868 179.934006l114.18207 1.655428a83.662773 83.662773 0 0 0 33.278343 0l76.149678-1.400747c0 1.655428 0.297128 3.310856 0.466916 4.966284-20.756518 4.244687-41.810163 0.764044-62.694022 1.995002a17.233428 17.233428 0 0 0-10.187248 3.183515 27.378229 27.378229 0 0 0-4.244686-1.061171c-33.957493-3.353302-33.957493-3.353302-33.957493 30.47685q0 116.34686-0.297128 232.608826h-3.565537c-4.244687-38.923776-0.721597-77.974893-1.910109-116.941116-0.254681-8.489373 1.103619-16.978746-2.801493-24.704076a177.767476 177.767476 0 0 1-1.146066-27.293335V214.188627c0-6.876392 1.188512-14.134806-4.244686-19.78024-18.337046-7.470648-37.438136-1.443193-56.029864-3.523089a46.267084 46.267084 0 0 1-9.975013-1.697875l-38.20218 0.551809v-4.754049c1.995003-1.655428 2.334578-4.541815 5.178518-5.051177z" fill="#74BAF9" p-id="1518"></path><path d="M506.243169 804.369854h-32.599193a44.272081 44.272081 0 0 1-0.382022-37.862604l37.353242-0.764044c7.343308-5.093624 14.601722-5.602986 21.690349 0.466916a125.472936 125.472936 0 0 1 0 38.838882 22.029924 22.029924 0 0 1-26.062376-0.67915z" fill="#FBFBFC" p-id="1519"></path><path d="M697.466301 304.175983c-0.297128 55.180926-0.339575 110.064724-1.103619 165.075863 0 12.267144 2.716599 17.912578 16.384491 17.615449 12.521826-0.297128 19.525558-1.995003 19.058643-16.978746-1.018725-33.957493-0.424469-67.914986 0-101.617798 0-7.597989-1.952556-15.578 2.84394-22.666626 5.730327 20.671624 2.292131 41.725269 2.419471 62.566681 0 25.935035 2.377025 51.954964-1.48564 77.805105l-0.339575 4.754049a77.762659 77.762659 0 0 1-38.20218 0l-4.244686-4.244686c-4.244687-37.056114-0.848937-74.282016-1.995003-111.423024a234.900957 234.900957 0 0 0-0.67915-27.335782c-1.273406-3.565537-3.905112-6.451924-5.178518-10.01746-5.305858-27.335782-5.305858-26.911313-33.745258-27.590463-23.091095-0.509362-46.351978 2.801493-69.315733-2.461919a9.805226 9.805226 0 0 1-5.051177-5.305858 5.518093 5.518093 0 0 1 5.390752-4.499368c35.315793 1.146065 70.716479-2.292131 106.117166 1.825216z" fill="#83C1F9" p-id="1520"></path><path d="M251.434631 525.069475l3.438196 3.65043a70.674032 70.674032 0 0 1-0.594256 46.479319c-50.25709-0.339575-40.621651 7.980011-41.725269-41.597929a70.376904 70.376904 0 0 1 0.80649-8.489373 56.921248 56.921248 0 0 1 38.074839-0.042447z" fill="#F3F9FD" p-id="1521"></path><path d="M646.996977 597.101807c-2.928834 5.305858-8.489373 3.820218-13.031188 5.051177l-30.009934-1.443193a55.902523 55.902523 0 0 1 0-46.691553c40.451863-1.910109 40.451863-1.910109 43.041122 43.083569z" fill="#F8FAFD" p-id="1522"></path><path d="M425.127207 452.145759c0.509362 34.509302 0.551809 35.146005 34.891324 34.212174 15.790234-0.466916 32.302065 4.966283 47.41315-3.990005 0.891384 2.801493 1.782768 5.560539 2.631706 8.489373a392.973087 392.973087 0 0 1-84.469264 0l-9.720332-5.00873c0.594256-38.669095 1.528087-77.33819 1.740321-116.007286C417.7839 318.353237 417.7839 266.737847 417.7839 215.334692c0-7.597989-1.910109-15.578 2.801493-22.624179 5.730327 16.978746 1.273406 33.957493 2.546812 50.936239 0.67915 8.913842-1.273406 18.039918 2.759046 26.571738 0 12.73406-0.297128 25.086098-0.466915 37.607924l-0.339575 0.891384a1105.698417 1105.698417 0 0 0 0.042446 143.427961z" fill="#7CBEF9" p-id="1523"></path><path d="M536.253103 520.357873v101.023541c-2.16479 13.54055-13.285869 10.272142-21.478114 10.484376-34.339515 0.848937-68.721476-0.212234-103.103438 0.67915a11.333313 11.333313 0 0 1-7.428202-2.249684 600.495816 600.495816 0 0 1 0-110.149617c8.107351 0.933831 3.990005 7.215967 4.244687 10.739057 0.382022 25.46812 0.509362 50.936239 0 76.107231 0 10.654163 3.438196 15.280872 14.644169 15.111084 29.712806-0.466916 59.170931-0.551809 88.756397 0 12.224697 0.254681 15.960022-4.754049 15.662894-16.299597-0.594256-22.539286-0.382022-45.121019 0-67.660304-0.127341-7.003733-3.438196-16.511831 8.701607-17.785237z" fill="#6DB6F8" p-id="1524"></path><path d="M314.29844 448.537775c9.338311 5.602986 20.332049 0.636703 29.712806 4.584262a42.446866 42.446866 0 0 1 21.223433 21.732795c-0.466916 4.244687 12.309591 10.69661 1.3583 10.993739-19.992474 0.594256-41.003673 6.536817-60.486784-3.862665-4.244687-8.192245-0.976278-16.978746-1.952556-25.46812a10.993738 10.993738 0 0 1 3.990005-8.489373 4.244687 4.244687 0 0 1 6.154796 0.509362z" fill="#F2F8FD" p-id="1525"></path><path d="M357.50935 664.295196v-33.957493c8.489373-13.455657 2.546812-28.396953 4.244686-42.446866 2.504365-22.496839-4.584262-45.587934 4.244687-67.914986 0 108.621531 0 217.243061-0.551809 325.822145 0 30.943765 22.75152 12.73406 34.721536 17.955024v4.244687a60.316997 60.316997 0 0 1-33.957493 0l-4.244686-4.456921c-4.244687-46.988681-0.636703-94.147149-1.995003-141.178277-0.509362-18.973749 2.16479-38.20218-2.207237-56.878801z" fill="#84C2FA" p-id="1526"></path><path d="M311.666734 448.75001l-4.838943 3.692877c-1.3583 1.910109-2.674153 1.867662-3.905111 0v-148.564032a9.847673 9.847673 0 0 1 6.239689-2.122343c19.950027 1.825215 40.069842-1.018725 59.977422 2.079896a14.049913 14.049913 0 0 1 5.815221 3.353303 7.980011 7.980011 0 0 1-0.594256 9.423204c-15.365766 0-30.816425 0.721597-46.139744-0.254681-14.134806-0.891384-17.955024 5.00873-17.657896 18.337046 0.67915 36.334517 0 72.711482 0.254681 109.088446a7.385755 7.385755 0 0 0 0.848937 4.966284z" fill="#6AB5F8" p-id="1527"></path><path d="M748.232753 839.091391c13.498103-0.891384 16.002469 14.389488 30.519297 19.398218V580.67487a7.003733 7.003733 0 0 0 3.056174-0.848938c1.952556-2.589259 3.268409-2.292131 3.862665 0.933831a8.828948 8.828948 0 0 0 0.551809 2.546812l-0.636703 1.3583c-3.735324 10.272142-1.655428 20.968752-1.697875 31.410681-0.212234 74.833825 0 149.66765 0 224.501475 0 7.640436 1.612981 15.535553-1.655427 23.006202a9.89012 9.89012 0 0 0-8.871395 4.541814 238.593835 238.593835 0 0 1-67.914986 0v-4.244686c19.865133-10.781504 40.664098-4.244687 58.10976-3.862665-7.810223-2.589259-16.002469-8.022458-15.323319-20.926305z" fill="#FEA371" p-id="1528"></path><path d="M692.500018 342.081035v144.064664c-6.494371-5.518093-4.244687-13.073635-4.244687-19.822687-0.254681-33.957493-0.594256-67.914986 0-101.575351 0.297128-13.200975-3.013727-19.355771-17.573003-18.761514-23.940033 0.976278-47.964959 0.848937-71.947438 0-13.073635-0.424469-16.978746 4.499368-16.978746 17.233427a963.543862 963.543862 0 0 1-4.032453 118.087182v-101.872479c0-8.192245 2.801493-16.978746-3.183515-24.491842v-4.711602c1.528087-7.640436 5.602986-13.116082 13.837679-13.370763 31.453128-0.891384 62.948703-2.334578 94.40183 0.848938a24.619182 24.619182 0 0 1 9.720333 4.372027z" fill="#67B3F7" p-id="1529"></path><path d="M209.794255 312.198441c-18.591727 8.956289-38.20218 4.244687-57.473056 3.862665-11.460654 0-6.876392-11.715335-7.385755-18.591727s-1.697875-14.941297 9.083629-15.365766c7.003733-0.254681 14.049913-0.382022 21.223433-0.551809a8.786501 8.786501 0 0 0 3.692878 1.782768c11.205973 5.093624 17.74279 15.238425 25.765247 23.770245z" fill="#F6FAFE" p-id="1530"></path><path d="M217.731819 401.633988h36.546752c10.272142 12.73406 4.966283 26.95376 3.735324 40.791439-10.993738 9.932567-24.067373 4.244687-36.249623 4.796495a12.73406 12.73406 0 0 1-6.197243-3.947558 53.398158 53.398158 0 0 1-0.466915-39.178458z" fill="#F4F9FD" p-id="1531"></path><path d="M404.200902 520.145639v90.496718c0 6.706605-2.377025 14.2197 3.990006 19.737793 8.192245 10.01746 6.791499 20.798964 2.546812 31.83515l-2.674153 2.631705c-6.876392 6.239689-3.820218 14.474381-3.862665 21.775243-0.254681 51.785177 0 103.6128-0.297128 155.397977 0 7.343308 2.886387 15.578-3.990005 21.775242v-343.607382z" fill="#8CC6F8" p-id="1532"></path><path d="M536.9747 142.750551q-0.382022 154.888615-0.848937 309.862123c-6.876392-5.263411-4.584262-12.73406-4.584262-19.652899V161.766747c0-6.664158-2.759046-14.559275 5.433199-19.016196z" fill="#65B3F8" p-id="1533"></path><path d="M264.296032 189.272317q0 131.585285 0.339574 263.17057h-4.669155c-1.443193 2.079896-3.056174 2.079896-4.711602 0.254681l-0.297128 0.339575c-2.16479-5.051177 3.65043-8.489373 2.928834-13.073635 1.146065-12.73406-2.334578-25.807695 2.079896-38.202179V211.514475c0.127341-7.767777-2.801493-16.25715 4.329581-22.242158z" fill="#63B2F7" p-id="1534"></path><path d="M357.424456 665.526155c7.72533 5.942561 3.990005 14.347041 4.244687 21.478114 0.339575 58.873803 0 117.747607 0 176.578964-6.918839-6.239689-3.947559-14.516828-3.990006-21.902583-0.254681-50.002408-0.636703-100.004817 0-149.964778 0-14.941297-4.754049-20.077368-19.398218-19.058643A262.406527 262.406527 0 0 1 294.687988 671.511163c20.459389-6.324583 42.446866 1.782768 62.736468-5.985008z" fill="#62B1F8" p-id="1535"></path><path d="M530.183201 766.549697l-19.568005-0.976278c4.244687-22.242158 10.102354-44.0174 21.223433-63.924981 8.489373 21.223433 2.419471 43.083569 3.183515 64.646578-1.3583 2.207237-3.056174 2.292131-4.838943 0.254681z" fill="#FC9860" p-id="1536"></path><path d="M170.700692 321.069836l4.499367 4.244687c7.640436 8.913842 6.494371 19.90758 5.56054 30.052381-2.631706 28.821422 1.612981 55.180926 21.860136 77.550425a9.465651 9.465651 0 0 1-2.03745 6.664158c-24.576736-16.172256-38.20218-37.183455-34.297067-68.297008 1.952556-15.111084 0.297128-30.689084 0.297128-46.05485a10.187248 10.187248 0 0 1 4.117346-4.159793z" fill="#65B3F8" p-id="1537"></path><path d="M493.127087 146.910344c-1.867662-0.933831-3.777771-2.631706-5.645433-2.674152-61.63285-0.848937-123.095912-3.056174-184.813655 1.146065 1.995003-9.041182 9.338311-6.918839 15.280871-6.918839h159.854898c7.85267 0 15.70534-0.297128 19.652899 8.489373-1.400747 1.952556-2.84394 1.952556-4.32958-0.042447z" fill="#5EAFF7" p-id="1538"></path><path d="M637.106857 214.613096v4.244686c-14.771509 0-29.712806-0.254681-44.356975 0-9.295864 0-14.686616-2.461918-14.474381-12.988741 0.382022-19.568005 0-39.136011 4.244686-58.704016 0 16.426937 1.103619 32.896321-0.297128 49.195918-1.528087 18.252152 8.786501 19.143537 22.157264 18.252153 11.970016-0.764044 26.699079 4.244687 25.043651-17.360769a320.346499 320.346499 0 0 1 1.103619-50.214642c6.536817 22.284605-2.461918 45.757722 6.579264 67.575411z" fill="#6BB5F8" p-id="1539"></path><path d="M573.563899 621.720989l-0.382022-101.363116c12.097357 1.146065 8.998736 10.526823 9.041182 17.573002 0.297128 28.014932 0 55.987416 0 84.002349a6.324583 6.324583 0 0 1-8.65916-0.212235z" fill="#6CB6F8" p-id="1540"></path><path d="M425.127207 452.145759c-7.300861-8.489373-4.244687-19.058643-3.565536-28.396954 1.782768-38.20218-5.263411-76.871275 3.52309-114.903666a23.600458 23.600458 0 0 1 0.339575 3.395749q2.292131 1.443193 1.528087 2.928834c-0.509362 0.976278-0.976278 1.443193-1.528087 1.443193 0 34.551749 0.976278 69.188392-0.424469 103.697694-0.764044 18.337046 4.244687 25.46812 23.388223 24.067373 8.913842-0.636703 21.563008-7.215967 27.760251 6.833946-17.06364-2.207237-34.12728-4.711602-51.021134 0.933831z" fill="#67B4F7" p-id="1541"></path><path d="M582.944656 261.049967l160.534048-0.466915c-5.602986 8.107351-14.134806 4.88139-21.223433 4.923836-46.691553 0.297128-93.128424 0-139.692637 0-1.782768 0-4.244687 0.67915-4.244686-1.995002-0.382022-3.565537 1.995003-3.438196 4.626708-2.461919z" fill="#60AEF8" p-id="1542"></path><path d="M552.807381 672.275207l-16.639172 1.230959c-7.300861-8.489373-16.978746-4.244687-25.765247-4.754049-33.957493-2.589259-68.424348 4.584262-102.212054-3.905112l0.466915-0.67915a13.455657 13.455657 0 0 1 7.173521-4.244686c44.951231-2.631706 89.902463-5.602986 134.726353 1.697874a7.088627 7.088627 0 0 1 2.249684 10.654164z" fill="#89C6F9" p-id="1543"></path><path d="M374.445649 316.570468l0.424469-8.107351c1.103619-1.740322 2.292131-1.697875 3.565537 0v143.937323c-7.17352-7.003733-3.905112-15.960022-3.947559-23.982479-0.212234-37.438136-0.042447-74.664038-0.042447-111.847493z" fill="#5DAEF7" p-id="1544"></path><path d="M735.371352 485.763677q-0.424469-70.16467-0.933831-140.371787a7.17352 7.17352 0 0 1 0.424469-3.523089c5.433199 3.990005 4.244687 9.847673 4.244687 15.323318v115.158348c0.169787 4.796496 0.976278 9.932567-3.735325 13.41321z" fill="#5AADF7" p-id="1545"></path><path d="M425.891251 270.345831c-9.677885-16.978746-2.377025-35.188452-4.244687-52.719008-0.933831-8.234692-0.636703-16.596725-0.891384-24.91631a7.682883 7.682883 0 0 1-0.254681-2.419472l5.00873-5.051177c1.528087 0.848937 2.03745 1.740322 1.570534 2.674153s-0.976278 1.443193-1.443193 1.443193c0 18.252152 1.103619 36.589199-0.382022 54.714011s5.985008 22.75152 22.878861 22.114817c9.083629-0.339575 21.223433-6.791499 27.972485 6.282136-16.724065-4.20224-33.533024-1.273406-50.214643-2.122343z" fill="#5CAEF8" p-id="1546"></path><path d="M200.583285 439.454146v-3.820218c2.504365-2.16479 4.754049-0.764044 7.003733 0.466915a49.323259 49.323259 0 0 1 10.059908 7.682883c0.339575 4.541815-2.249684 6.282136-6.282137 6.197243-34.891324-0.721597-69.867542 2.249684-104.716418-1.528087l-3.52309 1.061171c5.815221-9.508098 15.195978-4.669155 23.006201-5.602986 24.704076-2.928834 50.129749 5.348305 74.451803-4.456921z" fill="#5AADF7" p-id="1547"></path><path d="M141.454801 274.166049l0.424468-122.544103c7.85267 17.318321 2.716599 35.570474 3.480643 53.355711 0.933831 23.006201 0.254681 46.05485 0.297129 69.103498-1.48564 1.528087-2.84394 1.825215-4.20224 0.084894z" fill="#60B0F7" p-id="1548"></path><path d="M246.85037 493.743688H141.879269v-1.910109h104.971101z" fill="#5EAFF8" p-id="1549"></path><path d="M506.243169 804.369854l23.388223-0.466915a3.310856 3.310856 0 0 1 5.560539 0.424469l0.976278 23.770245a4.244687 4.244687 0 0 1-0.509362 5.985008l-4.244687-4.244687c-4.541815-4.754049-1.782768-15.662894-10.781504-15.70534s-3.480643 12.436932-10.144801 15.747787c-1.146065-8.659161-5.815221-16.554278-4.244686-25.510567z" fill="#FE955C" p-id="1550"></path><path d="M688.00065 299.337041h-109.810043c-1.146065-3.990005 0.382022-5.220965 4.244687-4.244687h85.954904c6.621711 0.424469 14.09236-2.207237 19.610452 4.244687z" fill="#59ABF7" p-id="1551"></path><path d="M802.692082 282.528082c-6.833945 23.940033-2.249684 49.70528-11.885122 73.220844-5.051177-3.353302-0.424469-10.144801-4.838943-13.710338 6.833945-20.714071 4.541815-43.21091 12.73406-63.670299a10.654163 10.654163 0 0 1 3.990005 4.159793z" fill="#72B9F8" p-id="1552"></path><path d="M781.341308 418.27316c-5.985008 19.483112-1.612981 40.49431-8.913841 59.72274l-5.475646 8.489374c1.867662-22.963755 2.079896-46.097297 10.56927-67.914986 1.061172-2.334578 2.504365-2.249684 3.820217-0.297128z" fill="#70B8F8" p-id="1553"></path><path d="M603.658727 554.145578v46.691553c-12.394485-11.37576-12.436932-35.273346 0-46.691553z" fill="#6DB7F8" p-id="1554"></path><path d="M425.424336 316.612915v-4.244686h79.63032v4.244686z" fill="#67B4F7" p-id="1555"></path><path d="M425.594123 490.60262h84.469264a179.295563 179.295563 0 0 1-84.469264 0z" fill="#5EAFF8" p-id="1556"></path><path d="M582.392847 295.262141l-4.244687 4.244687c0 1.48564-0.424469 3.013727-0.594256 4.541815l-1.528087 1.400746-1.485641-1.400746v-46.691553c1.273406-2.03745 2.631706-2.079896 4.244687 0l4.244687 4.244687c-2.631706 1.230959-3.990005 2.631706-0.55181 4.626708z" fill="#66B3F7" p-id="1557"></path><path d="M611.681184 617.51875c17.615449 9.338311 37.225902 1.230959 55.180926 7.17352-21.223433-0.764044-42.446866 5.475646-63.415618-2.249684z" fill="#FE8B49" p-id="1558"></path><path d="M213.52958 325.48431c8.489373 22.029924 1.697875 44.993678 4.032452 67.405624 1.528087 0.933831 2.03745 1.910109 1.528087 2.84394s-1.018725 1.443193-1.528087 1.443193v4.456921a5.136071 5.136071 0 0 1-6.876392-1.995003c-5.900114-24.873864-7.895117-49.620387 1.528087-74.197122z" fill="#5EAFF7" p-id="1559"></path><path d="M369.182238 493.5739h-58.152207v-2.079896h58.321994z" fill="#5EB0F8" p-id="1560"></path><path d="M573.648792 143.259914l-29.712806-1.103619-4.244687-6.579264c11.757782 1.018725 26.189716-10.144801 33.957493 7.682883z" fill="#6EB7F9" p-id="1561"></path><path d="M709.478764 222.380872c-10.951291-3.52309-25.46812 9.380757-33.533024-7.597989 10.993738 3.225962 25.170992-7.428202 33.533024 7.597989z" fill="#61B1F7" p-id="1562"></path><path d="M425.466782 189.35721v-4.244686h67.914986c-22.284605 8.913842-45.418147 1.655428-67.914986 4.244686z" fill="#63B1F6" p-id="1563"></path><path d="M193.239978 593.324036h53.90752v2.037449H193.112637z" fill="#5DAEF8" p-id="1564"></path><path d="M785.670889 580.759763a5.857668 5.857668 0 0 1-3.862665-0.933831v-54.03486h3.862665z" fill="#5FAFF7" p-id="1565"></path><path d="M509.893599 838.454688q4.88139 20.926305 9.89012 41.895057c-11.24842-12.097357-17.997471-25.255885-9.89012-41.895057z" fill="#6ABBF6" p-id="1566"></path><path d="M736.135396 565.733573v-41.131014h2.03745v41.428142z" fill="#5BAEF8" p-id="1567"></path><path d="M207.884146 528.762352v41.215907h-1.782768v-41.215907z" fill="#5BAEF7" p-id="1568"></path><path d="M204.700631 307.104817c-10.823951-5.518093-17.997471-14.941297-25.765247-23.770245 15.450659 0.509362 20.501836 12.267144 25.765247 23.770245z" fill="#65B3F8" p-id="1569"></path><path d="M539.81864 456.135764c11.163526 5.772774 18.294599 15.747787 26.019929 25.128545-14.941297-1.910109-22.029924-11.927569-26.019929-25.128545z" fill="#60B0F7" p-id="1570"></path><path d="M268.328484 456.135764c11.163526 5.772774 18.209706 15.832681 26.019929 25.128545-14.941297-1.910109-22.029924-11.927569-26.019929-25.128545z" fill="#5FB0F7" p-id="1571"></path><path d="M254.278571 575.199224q0.339575-23.218436 0.594256-46.479319c7.937564 15.578 8.956289 31.113553-0.594256 46.479319z" fill="#59AEF8" p-id="1572"></path><path d="M365.659148 474.854832l-21.223433-21.732795c14.347041-0.084894 18.931302 9.550545 21.223433 21.732795z" fill="#5FB0F7" p-id="1573"></path><path d="M641.224203 548.882167h-32.217171v-1.782768h31.665362z" fill="#5DAFF8" p-id="1574"></path><path d="M259.966451 401.379307v42.446866a3.310856 3.310856 0 0 1-5.475646-0.424469v-41.725269z" fill="#57ACF7" p-id="1575"></path><path d="M810.799434 485.126974c1.188512-8.489373-0.933831-17.360768 4.584261-24.916311 7.003733 11.205973 2.971281 20.926305-3.990005 30.264616z" fill="#67B4F8" p-id="1576"></path><path d="M251.434631 525.069475h-38.20218a33.278343 33.278343 0 0 1 38.20218 0z" fill="#5DAEF8" p-id="1577"></path><path d="M654.934541 592.85712c-9.253417-10.526823-2.674153-22.496839 0-33.957493v33.957493z" fill="#69B4F8" p-id="1578"></path><path d="M696.956939 569.893366c11.036185-2.589259 20.416943-4.796496 33.193449 0z" fill="#68B5F8" p-id="1579"></path><path d="M217.816713 580.67487h29.245891v2.079896h-29.245891z" fill="#66B4F7" p-id="1580"></path><path d="M540.582683 512.462756h28.057379v1.995002H540.879812z" fill="#65B3F8" p-id="1581"></path><path d="M697.041832 490.560173h38.20218a38.584201 38.584201 0 0 1-38.20218 0z" fill="#5FB0F8" p-id="1582"></path><path d="M811.39369 490.475279c-10.56927 8.489373-22.157264 2.419471-33.448131 0h33.448131z" fill="#5FAFF8" p-id="1583"></path><path d="M473.261954 766.337462l0.382022 37.862605c-9.168523-12.521826-8.616714-25.170992-0.382022-37.862605z" fill="#62B0F7" p-id="1584"></path><path d="M141.454801 274.166049h4.244686c9.762779 1.655428 20.501836-3.692877 29.458126 3.990005-11.333313-1.867662-23.30333 3.990005-33.702812-3.990005z" fill="#59ADF7" p-id="1585"></path><path d="M578.615076 256.975068h-4.244687v-33.957493l5.00873 0.339575q-0.297128 16.9363-0.764043 33.617918z" fill="#64B3F6" p-id="1586"></path><path d="M269.219868 179.934006l-4.838943 4.88139c-0.297128-12.73406 5.051177-20.204708 18.42194-20.58673q-6.833945 7.895117-13.582997 15.70534z" fill="#64B2F8" p-id="1587"></path><path d="M824.042856 146.867897c-6.706605 9.083629-1.612981 19.90758-4.244687 29.712807-5.220965-11.036185-10.01746-21.732795 4.244687-29.712807z" fill="#6CB6F8" p-id="1588"></path><path d="M493.127087 146.910344h4.244687c-1.952556 11.24842 4.711602 23.685351-4.626709 33.957493q0.297128-17.021193 0.382022-33.957493z" fill="#5DAFF7" p-id="1589"></path><path d="M477.209512 759.248836c8.871395-1.103619 16.978746-3.268409 26.062376 0.933831-10.059907 2.461918-18.549281 2.971281-26.062376-0.933831z" fill="#69B4F8" p-id="1590"></path><path d="M365.956276 514.16063a69.825095 69.825095 0 0 1 33.957493-0.721596 70.886267 70.886267 0 0 1-33.957493 0.721596z" fill="#64B3F8" p-id="1591"></path><path d="M217.562032 397.177067v-4.244686h28.906316v4.244686z" fill="#69B4F9" p-id="1592"></path><path d="M255.254849 452.527781l4.711602-0.254682c-2.419471 11.205973 5.348305 23.982479-5.348305 33.957493z" fill="#59AEF7" p-id="1593"></path><path d="M311.666734 448.75001c-2.377025-1.315853-4.669155-2.589259-0.933831-5.008731h25.46812v3.310856l-21.902583 1.48564-1.230959 0.254681z" fill="#59ADF7" p-id="1594"></path><path d="M748.572328 513.226799c8.871395-1.103619 16.978746-3.268409 26.062376 0.891385-9.932567 2.461918-18.42194 2.971281-26.062376-0.891385z" fill="#64B3F8" p-id="1595"></path><path d="M789.958022 363.177127c-6.324583 9.126076-1.570534 19.90758-4.244686 29.712807a25.043651 25.043651 0 0 1 0.339575-29.712807c1.230959-1.995003 2.546812-2.079896 3.905111 0z" fill="#6EB7F8" p-id="1596"></path><path d="M180.887939 601.006919a42.446866 42.446866 0 0 1 0 28.524294z" fill="#62B1F6" p-id="1597"></path><path d="M366.083617 868.040154h33.957493a31.877597 31.877597 0 0 1-33.957493 0z" fill="#61B1F7" p-id="1598"></path><path d="M254.83038 634.624837c0-11.24842 0-22.496839-0.297128-33.745259 8.489373 11.163526 8.022458 22.411945 0.297128 33.745259z" fill="#59AEF7" p-id="1599"></path><path d="M717.713456 322.300795l-16.978746-17.74279c13.582997-1.782768 15.493106 7.767777 16.978746 17.74279z" fill="#60B0F7" p-id="1600"></path><path d="M290.655535 630.549937v33.745259a26.232163 26.232163 0 0 1 0-33.745259z" fill="#59ADF7" p-id="1601"></path><path d="M170.700692 321.069836l-4.244687 4.244687c-8.489373-1.443193-17.955024 3.310856-25.46812-4.244687z" fill="#5EAFF7" p-id="1602"></path><path d="M303.177361 452.315546h3.905112q0 14.771509-0.466916 29.712807h-3.607984c0.169787-9.975014 0.169787-19.865133 0.169788-29.712807z" fill="#68B4F9" p-id="1603"></path><path d="M811.775712 223.866513c-0.297128 2.504365-0.594256 5.051177-0.933832 7.555542-5.772774-6.621711-4.244687-13.837678-0.933831-25.892589 0.933831 9.21097 1.400747 13.795232 1.867663 18.337047z" fill="#60B0F7" p-id="1604"></path><path d="M802.692082 282.528082l-4.244686-4.244687v-12.73406c6.579264 1.655428 3.183515 6.579264 4.881389 9.295864-0.084894 2.716599-0.382022 5.305858-0.636703 7.682883z" fill="#5EAFF7" p-id="1605"></path><path d="M573.563899 621.720989l8.828948 0.212235c4.796496 0 9.89012-0.551809 13.073634 4.244686-8.786501 4.838943-17.233428 8.489373-22.07237-4.796496z" fill="#5CACF1" p-id="1606"></path><path d="M816.232632 194.493281c-0.254681 2.461918-0.551809 4.923836-0.80649 7.385755-5.475646-4.669155-4.244687-10.484376-2.249684-19.865133z" fill="#5EAFF7" p-id="1607"></path><path d="M789.958022 363.177127h-3.990005v-21.223433c5.263411 3.268409 3.735324 8.956289 4.838943 13.710338-0.297128 2.546812-0.551809 5.136071-0.848938 7.513095z" fill="#5EAFF8" p-id="1608"></path><path d="M781.341308 418.27316h-3.820217v-16.978747h3.353302c0.424469 3.141068 0.891384 6.282136 1.315853 9.423204-0.254681 2.504365-0.551809 5.263411-0.848938 7.555543z" fill="#5CAEF7" p-id="1609"></path><path d="M971.885291 490.60262a4.499368 4.499368 0 0 1 0.339575 4.244686h-16.044916l-0.254681-3.268408z" fill="#5EAFF7" p-id="1610"></path><path d="M553.613871 665.016793l-145.083388-0.848938c0-11.24842 0-22.496839-0.339575-33.957492 12.436932-3.607984 25.170992-1.995003 37.692817-1.570535 49.832621 1.655428 99.622795-4.244687 149.455416 0 17.573003 0.297128 35.315793 2.16479 52.719008 0.424469 20.416943-2.03745 26.401951 6.36703 23.600457 24.873864a96.184599 96.184599 0 0 0-0.382022 10.526823c-7.300861 5.772774-16.044915 4.499368-24.194713 3.990005-30.986212-2.03745-62.481787 4.966283-93.468-3.438196z" fill="#FEFDFD" p-id="1611"></path><path d="M616.053212 828.437228c10.357035 9.932567 30.689084 21.223433 26.911313 30.901318-4.711602 11.927569-25.850142 3.820218-39.815161 4.541815-8.489373 0.424469-18.209706 3.990005-25.468119-4.244687-3.480643-10.01746-0.933831-20.374496-1.528088-30.519297a6.239689 6.239689 0 0 1 3.692878-5.305858c11.970016 1.528087 25.213439-4.584262 36.207177 4.626709z" fill="#FEF6F1" p-id="1612"></path><path d="M748.232753 839.091391l21.223433 24.576736h-64.052321v-36.928774c11.460654-4.244687 22.878861-6.239689 33.957493 0.721597z" fill="#FEF4EF" p-id="1613"></path><path d="M607.26671 765.318738a61.08104 61.08104 0 0 1-29.033656 0.636703c-4.244687-10.484376-1.528087-21.223433-1.782769-32.132278a8.998736 8.998736 0 0 1 5.348306-4.923837c12.73406-0.764044 25.46812-3.056174 38.202179-2.207237 7.300861 0.466916 16.342043-1.103619 18.42194 9.720333l-5.136071 5.178517c-8.149798 8.616714-14.559275 18.888855-26.019929 23.727799z" fill="#FEF9F6" p-id="1614"></path><path d="M599.668721 723.678362c-2.03745-37.395689-2.03745-37.395689 41.979951-33.957493a52.719008 52.719008 0 0 1-0.339575 33.957493l-0.254681-0.67915a43.508038 43.508038 0 0 1-41.385695 0.67915z" fill="#FEF7F3" p-id="1615"></path><path d="M782.062905 863.583233v-261.218015c0-6.027455-2.377025-12.73406 3.607984-17.74279q0 131.585285 0.339575 263.170571c-0.084894 5.390752 1.061172 11.503101-3.947559 15.790234z" fill="#FE8B4D" p-id="1616"></path><path d="M595.508928 628.639828l-187.148233 1.570535c25.892588-8.701608 52.634114-1.528087 78.823831-4.244687 16.299597-1.655428 33.448131 5.093624 48.983683-4.669155l37.183455 0.212234c6.112349 7.343308 14.686616 3.183515 22.072371 4.796496a2.631706 2.631706 0 0 1 0.084893 2.334577z" fill="#82C1F9" p-id="1617"></path><path d="M735.371352 579.825932c5.645433 1.273406 5.136071 5.900114 5.136071 9.932567q-0.339575 88.247035-0.80649 176.451623c-1.570534 1.867662-3.098621 1.952556-4.626709 0q0.127341-93.213318 0.297128-186.38419z" fill="#FD8645" p-id="1618"></path><path d="M687.830862 593.663611v171.145764h-2.122343v-171.952255z" fill="#FE9458" p-id="1619"></path><path d="M553.613871 665.016793l117.70516-0.551809v4.244686c-23.091095 4.032452-46.351978 0.80649-69.527966 1.782769-8.489373 0.382022-16.978746-0.933831-25.086098 2.29213l-3.820218 0.212235-20.119815-0.848938c0.339575-2.292131 0.848937-4.711602 0.848937-7.131073z" fill="#F9AC81" p-id="1620"></path><path d="M574.158155 732.295076q-0.636703-29.712806-1.230959-59.128485l1.825215-0.382022a4.966283 4.966283 0 0 1 7.640436 0v50.93624a12.988741 12.988741 0 0 1-0.891385 4.923836c-0.976278 1.3583-1.952556 2.759046-2.84394 4.244687l-0.339574-0.424469c-1.443193 1.867662-2.801493 1.867662-4.159793-0.169787z" fill="#FE955C" p-id="1621"></path><path d="M578.657522 732.804438l-0.551809-4.754049c5.985008-4.456921 13.752785 0 19.865134-3.905112l1.697874-0.466915 41.385695-0.594256c0.551809 4.754049 1.570534 9.635439-2.801493 13.328316-19.440665-8.574267-39.68782-3.098621-59.595401-3.607984z" fill="#FEAD80" p-id="1622"></path><path d="M574.285495 825.635734v-55.180926c1.230959-1.910109 2.461918-1.825215 3.692878 0l0.254681 0.212235a10.781504 10.781504 0 0 1 4.244686 4.244686v46.479319c-0.424469 2.377025-3.141068 3.056174-3.862664 5.220964l0.424468-0.212234a2.928834 2.928834 0 0 1-4.754049-0.764044z" fill="#FE965C" p-id="1623"></path><path d="M582.392847 672.954357h-7.640436c19.90758-8.489373 40.791438-2.16479 61.123487-3.777771 11.757782-0.933831 23.642904 0 35.48558 0-29.330785 8.489373-59.383166 1.48564-88.968631 3.777771z" fill="#FE8A49" p-id="1624"></path><path d="M583.326678 869.058879h58.2371v2.079896h-57.982419z" fill="#FE8E53" p-id="1625"></path><path d="M705.403865 868.082601h67.914986a115.66771 115.66771 0 0 1-67.914986 0z" fill="#FE8F53" p-id="1626"></path><path d="M535.658847 834.082661l0.509362-5.985008 29.712807 30.773978c-16.172256-0.933831-20.756518-15.662894-30.222169-24.78897z" fill="#FE8D4F" p-id="1627"></path><path d="M735.074224 766.210122h4.626709v55.180926a2.759046 2.759046 0 0 1-4.626709 0z" fill="#FE8A49" p-id="1628"></path><path d="M607.26671 765.318738c7.767777-8.828948 15.195978-18.082365 25.850142-23.727799-4.626708 12.267144-10.993738 22.454392-25.850142 23.727799z" fill="#FE9053" p-id="1629"></path><path d="M604.550111 682.165327h32.217171v2.037449h-32.64164z" fill="#FE8A4B" p-id="1630"></path><path d="M578.530182 826.484672l3.862665-5.220965c11.078632 3.141068 24.91631-6.749052 33.660365 7.173521-12.352038-3.735324-25.001204-1.697875-37.52303-1.952556z" fill="#FE8F52" p-id="1631"></path><path d="M697.678535 771.388639h28.057379v1.995003H697.933216z" fill="#FE8847" p-id="1632"></path><path d="M700.310241 830.856699v28.014932h-2.079897v-28.354507z" fill="#FE9256" p-id="1633"></path><path d="M578.020819 770.412362h-3.692877v-38.20218h4.244687v33.575471c-0.424469 1.655428-0.509362 3.141068-0.55181 4.626709z" fill="#FE8D50" p-id="1634"></path><path d="M590.754879 723.720809v-28.906316h4.244687v29.11855a2.631706 2.631706 0 0 1-4.244687-0.212234z" fill="#FD8F53" p-id="1635"></path><path d="M641.309097 723.763256c0-11.290866 0.212234-22.62418 0.339575-33.957493a30.47685 30.47685 0 0 1-0.339575 33.957493z" fill="#FE9155" p-id="1636"></path><path d="M734.989331 821.348601h4.626708v6.112349l-33.957493-0.721597c8.149798-10.144801 19.568005-3.268409 29.330785-5.390752z" fill="#FE8B4D" p-id="1637"></path><path d="M574.285495 825.635734l4.669156 0.636703c-0.424469 11.036185-0.80649 22.114817-1.23096 33.19345h-3.607983q0.127341-16.851406 0.169787-33.830153zM678.195424 664.464984a72.159673 72.159673 0 0 1-0.721597-33.957493 71.607863 71.607863 0 0 1 0.721597 33.957493z" fill="#FE8D4F" p-id="1638"></path><path d="M527.678836 889.093799c-1.48564-3.013727-3.013727-6.027455-4.541815-8.998735 0.466916-2.971281 0.67915-9.338311 2.249684-8.064905 5.136071 4.159793 9.21097 10.399482 2.292131 17.06364z" fill="#FA9856" p-id="1639"></path><path d="M582.392847 774.784389l-4.244687-4.244687h22.666627c-6.749052 6.494371-12.988741 3.056174-18.42194 4.244687z" fill="#FE8846" p-id="1640"></path><path d="M590.754879 723.720809h4.244687a22.921308 22.921308 0 0 1 2.928834 0.339575c-5.475646 7.04618-13.328316 2.207237-19.865134 3.905111l4.244687-4.244686z" fill="#FE894A" p-id="1641"></path><path d="M853.840556 261.389542l-8.064905-4.244686q4.244687-27.63291 8.744055-55.180926a5.051177 5.051177 0 0 1 7.810223 0c-3.990005 19.652899-8.998736 39.136011-8.489373 59.425612z" fill="#6EB7F8" p-id="1642"></path><path d="M862.329929 202.006376h-7.810223c-2.546812-7.72533 2.16479-14.007466 4.244686-20.841411 6.197242 5.985008 2.589259 13.795232 3.565537 20.841411z" fill="#5EB0F7" p-id="1643"></path><path d="M212.468408 325.399416l0.721597 76.022338c4.244687 10.823951 1.740322 21.860136 0.976278 32.853874-0.509362 6.833945-3.310856 8.786501-9.380758 5.433199l-4.244686-4.244687c-38.20218-29.967488-23.345776-72.159673-25.46812-110.361852z" fill="#F8FBFE" p-id="1644"></path><path d="M692.500018 342.081035h-95.420556c-8.701608 0-16.978746-0.339575-22.284604 8.489373 0-4.244687-0.212234-8.489373-0.297128-12.73406a20.926305 20.926305 0 0 1 6.791498-4.244686c30.561744-4.244687 61.293275-1.782768 91.939912-1.528088a23.175989 23.175989 0 0 1 15.280872 6.027455z" fill="#73B9F7" p-id="1645"></path><path d="M579.081991 337.41188l-4.626708 0.254681v-33.957493h3.013727l1.485641 0.466915a29.458125 29.458125 0 0 1 0.12734 33.235897z" fill="#64B3F7" p-id="1646"></path><path d="M306.827791 303.793962H303.177361l-0.509362-114.606539 4.244686-3.862665a28.778975 28.778975 0 0 1 4.244687 6.282136c4.244687 25.46812-0.551809 51.657836 3.141068 77.33819-1.528087 11.757782 0.721597 24.364501-7.470649 34.848878z" fill="#6AB4F9" p-id="1647"></path><path d="M416.595387 181.546987a35.782708 35.782708 0 0 1-33.278343 0z" fill="#72BAF9" p-id="1648"></path><path d="M535.191931 804.327408l-5.560539-0.424469c0-12.436932 0.382022-24.91631 0.551809-37.353242l5.051177-0.254681c0 12.649166-0.042447 25.340779-0.042447 38.032392z" fill="#FE8C4D" p-id="1649"></path><path d="M254.448359 443.444151l5.475645 0.424469c-1.655428 2.971281-3.268409 5.985008-4.923836 8.998736-41.979951-0.466916-83.959901-0.848937-125.939852-1.485641-7.513095 0-15.493106 1.952556-22.454392-2.97128 30.349509 0 60.699019-0.254681 91.048528-0.67915 6.791499 0 14.304594 2.377025 19.950027-3.990006z" fill="#77BBF8" p-id="1650"></path><path d="M374.530543 185.239864c9.168523 21.223433 2.079896 43.847613 3.905112 65.750196 0.891384 10.399482 0 20.968752 0 31.453128a4.244687 4.244687 0 0 1-5.900115-0.891384 27.802697 27.802697 0 0 1-3.607983-13.370763c0-2.377025-0.339575-4.754049-0.509363-7.173521 0.764044-23.175989-2.377025-46.691553 1.910109-69.61286a30.179722 30.179722 0 0 1 4.20224-6.154796z" fill="#5DAEF7" p-id="1651"></path><path d="M374.530543 185.239864v4.244687c-19.737793 10.951291-40.579204 6.112349-61.208381 4.244687a30.307062 30.307062 0 0 1-6.621711-4.244687v-4.244687z" fill="#63B1F6" p-id="1652"></path><path d="M375.337033 282.528082a28.736528 28.736528 0 0 0 3.310856 0v25.807694h-3.565537l-0.67915-0.721596c-6.324583-8.53182-7.300861-16.978746 0.933831-25.086098z" fill="#6BB5F8" p-id="1653"></path><path d="M579.081991 337.41188v-33.108556c29.330785-0.339575 58.661569 0.297128 87.90746-1.400747 17.827684-1.061172 24.237161 5.178518 21.690349 22.327052a82.644048 82.644048 0 0 0 0 12.73406z" fill="#FAFCFE" p-id="1654"></path><path d="M375.337033 282.528082q-0.509362 12.73406-0.976277 25.213438c-22.454392-1.443193-45.3757 5.051177-67.363177-3.947558 2.207237-11.163526-2.546812-23.218436 4.244687-33.957493 21.223433-9.041182 42.192185-10.144801 63.076043 0.848937z" fill="#FBFCFE" p-id="1655"></path><path d="M204.785525 439.708827c13.116082-10.484376 4.88139-25.46812 8.489373-38.202179h4.626709l-0.254681 42.192185c-4.754049 0.084894-9.805226 1.146065-12.861401-3.990006z" fill="#74BAF8" p-id="1656"></path><path d="M374.063627 270.812747l-63.076043-0.848938c-9.508098-26.486844-1.910109-53.865073-4.244686-80.649046h4.244686c10.781504 15.153531 5.815221 32.556746 6.112349 48.941237 0 15.153531 5.602986 21.605455 21.223433 21.223433 12.309591-0.382022 25.46812-2.759046 36.334518 6.154796z" fill="#67B4F8" p-id="1657"></path><path d="M374.445649 265.591782c-20.034921-1.103619-45.800169 8.489373-58.619122-3.65043-13.965019-13.200975-3.183515-39.560479-4.923836-60.104763-0.339575-4.244687 0-8.489373 0-12.521826h63.670299z" fill="#72BAF7" p-id="1658"></path></svg>