<?xml version="1.0" standalone="no"?><!DOCTYPE svg PUBLIC "-//W3C//DTD SVG 1.1//EN" "http://www.w3.org/Graphics/SVG/1.1/DTD/svg11.dtd"><svg t="1651275965446" class="icon" viewBox="0 0 1304 1024" version="1.1" xmlns="http://www.w3.org/2000/svg" p-id="2568" xmlns:xlink="http://www.w3.org/1999/xlink" width="254.6875" height="200"><defs><style type="text/css">@font-face { font-family: feedback-iconfont; src: url("//at.alicdn.com/t/font_1031158_u69w8yhxdu.woff2?t=1630033759944") format("woff2"), url("//at.alicdn.com/t/font_1031158_u69w8yhxdu.woff?t=1630033759944") format("woff"), url("//at.alicdn.com/t/font_1031158_u69w8yhxdu.ttf?t=1630033759944") format("truetype"); }
</style></defs><path d="M407.691526 676.344433c8.777143 34.553695 29.307586 63.709951 44.743252 95.186601 34.553695 70.1667 71.37734 139.223645 105.376157 209.693005 5.952315 12.257734 22.497734 21.942857 13.569261 42.775961-32.031527-38.841379-63.205517-76.371232-94.177734-114.1533-66.786995-81.46601-133.27133-163.285123-200.461872-244.297143-7.717833-9.33202-10.643547-15.637438 0-24.011035a32.586404 32.586404 0 0 0 5.397439-8.424039q49.98936-80.70936 143.158226-62.549754c46.508768 9.02936 76.724335-12.459507 100.8867-49.98936 11.652414-18.109163 28.550936-32.788177 42.826404-49.182266s27.945616-32.636847 45.399015-53.268177H497.833792a123.233103 123.233103 0 0 1-25.221675 0c-58.211626-12.661281-88.074089 23.607488-118.541871 64.113498-28.752709 38.236059-63.407291 71.932217-93.572414 109.361182-36.722759 45.399015-76.421675 88.830739-114.657734 133.220887q-55.487685 64.264828-110.37005 128.630541c-3.581478 4.136355-6.557635 10.08867-17.352512 6.608079 17.756059-36.016552 34.705025-71.52867 52.612414-106.586798 74.908374-146.739704 150.472512-293.227192 224.82601-440.269556 7.768276-15.385222 16.595862-20.17734 32.788177-20.17734 135.238621 0.403547 270.477241 0 405.715862 0a272.394089 272.394089 0 0 1 52.309754 5.649655c29.156256 5.800985 38.690049 27.138522 22.14463 52.360197a612.180493 612.180493 0 0 1-48.980492 62.49931q-95.842365 111.328473-193.298916 221.950739c-15.133005 17.453399-33.897931 31.829754-58.312513 35.310345-24.515468 5.044335-49.232709 0.655764-73.79862 2.269951-8.827586 0.958424-18.159606-2.471724-26.432316 3.278817z" p-id="2569"></path><path d="M214.99793 5.296552q0.60532 190.221872 1.160197 380.494187A40.35468 40.35468 0 0 1 211.870443 405.060099q-101.94601 198.545025-203.337143 397.291822c-13.871921-5.346995-6.658522-17.503842-6.658522-25.927882Q1.118127 490.965123 1.471231 205.455764V21.84197C1.521674 12.762167-0.49606 2.623054 14.233398 2.976158c66.938325 1.5133 133.927094-2.976158 200.764532 2.320394zM760.593201 0.252217c-73.243744 85.753695-142.855567 166.866601-211.862069 248.483941a25.221675 25.221675 0 0 1-21.84197 8.878029H316.086403c20.984433-41.212217 40.909557-80.154483 60.53202-119.147192Q407.8933 76.774778 438.865516 15.133005c4.338128-8.625813 8.524926-15.133005 20.17734-15.133005 98.868966 0.403547 197.737931 0.252217 301.550345 0.252217z" p-id="2570"></path><path d="M1006.908078 363.494778c19.067586-28.349163 44.995468-40.80867 79.347389-35.663448 9.836453 1.5133 20.17734 0 30.26601 0.403547s27.037635-5.044335 30.26601 3.177931c4.186798 10.99665-9.735567 20.530443-17.352512 29.761576-23.002167 27.945616-51.754877 50.947783-71.83133 81.365123a37.328079 37.328079 0 0 1-46.660099 14.225025c-21.9933-8.777143-41.464433-1.967291-61.994877 0-11.29931 1.109754-21.9933-2.219507-12.560394-13.922365 19.622463-24.263251 36.066995-52.612414 66.988769-65.576354 11.29931-8.676256 24.465025-5.901872 37.126305-6.355862 6.910739 0.75665 12.863054-3.379704 24.717241-4.338128-12.560394-0.60532-18.664039 5.800985-26.230542 4.186798-10.643547-3.480591-24.465025 7.869163-32.08197-7.263843z" p-id="2571"></path><path d="M1093.267093 136.701478c14.729458-17.201182 34.301478-7.566502 58.564729-12.055961-22.144631 27.239409-40.35468 49.938916-58.816946 72.184434-10.39133 12.409064-22.497734 23.405714-32.636847 36.066995-18.865813 23.557044-38.639606 32.737734-68.956059 17.201182-10.69399-5.498325-28.853596 3.531034-43.583055 6.053202-6.608079 1.109754-13.972808 3.531034-18.361379-3.480591s2.370837-12.207291 6.406306-16.898522c27.844729-32.435074 56.496552-64.214384 83.786404-97.103449 16.595862-20.17734 37.782069-9.836453 57.202758-11.702857 0.252217 19.773793-16.646305 29.055369-26.634089 42.321971-8.323153 11.047094-19.622463 19.72335-28.601379 35.007685 30.467783-19.168473 42.725517-52.309754 71.629557-67.594089z" p-id="2572"></path><path d="M912.07458 419.133793c-14.023251 25.524335-33.242167 41.514877-64.668374 39.345813-20.17734-1.412414-40.35468 0-60.53202 0-5.901872 0-12.459507 0-15.133005-6.053202-2.522167-5.397438 2.017734-9.231133 5.346996-13.014384 28.853596-32.2333 57.404532-64.769261 86.560788-96.750345a44.793695 44.793695 0 0 1 35.865221-14.628572c29.711133 0.807094 59.422266 0.252217 90.293596 3.127488-21.741084 23.153498-33.696158 53.570837-63.25596 67.846306-20.530443 12.207291-43.330837 3.581478-64.668375 7.213399a31.527094 31.527094 0 0 0-3.985024 4.741674c-1.614187 3.177931-3.329261 6.557635 2.875271 5.498326s11.047094-2.976158 16.797635-3.631922c11.955074 0 24.565911-3.833695 34.503251 6.305419z" p-id="2573"></path><path d="M1149.057438 166.463054c16.999409-31.17399 42.32197-45.096355 78.338522-40.35468a320.416158 320.416158 0 0 0 47.719409 0.30266c14.073695-0.30266 14.376355 6.910739 7.314285 15.133005-30.820887 36.319212-62.146207 72.234877-93.572413 108.049656-10.593103 12.005517-27.794286 10.340887-37.529853 5.700098-20.63133-10.08867-38.790936-2.269951-57.908965 0.353104-10.08867 1.36197-20.78266-0.353103-14.174581-11.198424 16.444532-26.785419 32.989951-54.680591 63.911724-68.451626 18.210049-9.281576 38.992709 0 57.202758-7.717832-0.554877 3.278818-0.45399-3.379704 2.169064-1.412414 1.008867 0.75665 2.421281-2.925714 1.563744-2.875271-8.928473 0.554877-15.738325 8.171823-25.221675 7.616946-9.987783-1.109754-21.08532 3.682365-29.812019-5.145222z" p-id="2574"></path><path d="M750.756748 146.891034c18.664039-23.809261 42.271527-25.221675 68.905616-16.192315 15.133005 5.044335 29.408473-4.640788 44.541478-4.388571 13.115271 0 18.462266 4.287685 9.130246 15.839212-14.174581 17.604729-27.693399 36.218325-44.491035 51.04867-12.358621 10.895764-30.26601 2.976158-48.677832 4.237241l15.133005-22.396847c-11.349754-6.961182-17.352512 0-23.405714 6.910739-13.771034 15.788768-29.156256 30.26601-41.060887 47.467192-17.503842 25.221675-39.547586 34.099704-71.175567 25.221675 19.017143-31.93064 46.508768-56.597438 70.31803-84.189951 6.204532-8.424039 8.272709-20.63133 20.78266-23.557045zM1001.8133 98.414975c-5.044335 6.406305-9.079803 11.501084-13.014385 16.696749-2.017734 2.623054-5.548768 5.649655-5.296551 8.171823 3.026601 27.239409-3.833695 34.200591-34.251035 43.885714-21.791527 6.910739-29.105813 30.820887-47.719409 47.164532l21.387981 4.792118c-12.610837 14.578128-20.17734 34.906798-39.59803 36.773202-18.210049 1.715074-44.037044 10.593103-54.024827-5.599212-7.465616-12.106404 16.545419-25.625222 25.877438-38.942266 10.08867-14.225025 34.906798-31.880197 31.880197-38.992709-9.432906-22.346404 9.079803-31.02266 16.797635-34.452808 31.678424-13.972808 51.149557-57.505419 97.960986-39.497143z" p-id="2575"></path><path d="M1092.409556 453.586601c29.156256-33.090837 57.454975-65.576355 85.753694-97.557438 22.548177-25.524335 46.256552-50.090246 67.594089-76.573005 15.133005-19.017143 34.856355-13.871921 52.965517-11.803744 10.643547 1.21064 2.068177 8.87803-1.412413 12.156847-35.764335 33.343054-63.255961 74.050837-97.456552 108.755862a421.000197 421.000197 0 0 0-37.126306 42.221084c-20.379113 27.289852-31.47665 31.728867-70.318029 22.800394z" p-id="2576"></path><path d="M719.179211 156.374384c-22.094187 27.037635-49.131823 49.585813-68.148965 79.650049-14.628571 23.103054-38.639606 25.221675-67.947193 18.36138 40.80867-43.482167 73.04197-90.79803 116.524138-128.781872 14.729458-5.952315 29.711133-13.821478 40.707784 5.901872v0.30266c-4.287685 10.643547-8.625813 21.135764-21.135764 24.565911z" p-id="2577"></path><path d="M709.998521 106.385025c34.805911-32.334187 34.805911-32.334187 73.445518-30.26601-6.053202 16.293202-20.93399 25.473892-28.45005 39.698916-12.863054 9.281576-27.441182 5.498325-41.212216 4.439015-9.836453-0.655764-13.922365-6.154089-3.783252-13.871921z" p-id="2578"></path><path d="M1093.267093 136.701478c-18.310936 21.589754-36.672315 43.129064-54.932808 64.819704-7.717833 9.231133-17.150739 12.207291-30.619113 8.676256 23.506601-28.349163 46.357438-55.790345 69.157832-83.231527 6.154089 2.068177 8.474483 10.643547 16.394089 9.735567z" p-id="2579"></path><path d="M709.998521 106.385025c-2.824828 5.800985-5.044335 11.248867 5.044335 10.895763l39.799803-1.311527a31.123547 31.123547 0 0 1-14.679014 15.586995c-12.257734-10.946207-27.441182-1.664631-40.707784-5.901872 1.008867-7.818719-2.875271-18.210049 10.54266-19.269359z" p-id="2580"></path><path d="M1208.782364 171.759606c-21.438424 8.424039-43.835271 1.815961-65.576355 4.237241a10.08867 10.08867 0 0 1 5.851429-9.533793l34.906798 1.059311c8.272709 1.261084 17.756059-4.338128 24.818128 4.237241z" p-id="2581"></path><path d="M407.691526 676.344433c22.699507-11.551527 46.912315-2.976158 70.31803-5.044334a281.877438 281.877438 0 0 1 29.912906 0c-32.939507 11.14798-66.887882 1.815961-100.230936 5.044334z" p-id="2582"></path><path d="M1208.782364 171.759606c-8.323153-1.311527-17.503842 2.875271-24.818128-4.237241 9.130246-8.676256 19.017143-14.779901 32.485517-9.432907-1.462857 5.094778-1.462857 11.047094-7.667389 13.670148z" p-id="2583"></path></svg>