<?xml version="1.0" standalone="no"?><!DOCTYPE svg PUBLIC "-//W3C//DTD SVG 1.1//EN" "http://www.w3.org/Graphics/SVG/1.1/DTD/svg11.dtd"><svg t="1651276035974" class="icon" viewBox="0 0 7865 1024" version="1.1" xmlns="http://www.w3.org/2000/svg" p-id="7229" xmlns:xlink="http://www.w3.org/1999/xlink" width="1536.1328125" height="200"><defs><style type="text/css">@font-face { font-family: feedback-iconfont; src: url("//at.alicdn.com/t/font_1031158_u69w8yhxdu.woff2?t=1630033759944") format("woff2"), url("//at.alicdn.com/t/font_1031158_u69w8yhxdu.woff?t=1630033759944") format("woff"), url("//at.alicdn.com/t/font_1031158_u69w8yhxdu.ttf?t=1630033759944") format("truetype"); }
</style></defs><path d="M1133.043536 409.308469v-87.974044c-10.87633 10.470686-19.065268 18.127217-27.026032 26.037274-18.684977 18.583566-37.141779 37.42066-56.054932 55.776051-3.929676 3.828265-9.431223 8.39176-14.298951 8.518525-33.085339 0.73523-66.221384 0.380291-102.627934 0.380291 6.236777-6.693126 9.912925-10.952388 13.893308-14.93277 58.311326-58.43809 117.028296-116.622652 174.933978-175.567797a43.099676 43.099676 0 0 0 10.800271-25.606278c1.47046-23.32453 0.507055-46.801177 0.507055-74.613145-6.895948 6.262129-11.408738 10.1411-15.591941 14.222893Q985.135589 267.840121 852.971701 400.435006a36.178375 36.178375 0 0 1-29.155663 11.915793c-29.155663-0.811288-58.311326-0.253528-90.483966-0.253528 5.07055-5.729722 8.011469-9.659398 11.484796-13.132724Q936.762542 206.917462 1128.911037 15.073199c3.676149-3.650796 9.659398-7.073417 14.527126-7.022712 76.69207 0.709877 153.485551-0.152117 230.025505 3.802913 67.920019 3.49868 108.611183 60.593074 93.323475 124.228477-7.022712 29.231721-27.051385 46.927941-54.229533 60.060666a43.099676 43.099676 0 0 0 8.036822 4.715611c89.31774 26.595035 83.334491 138.527429 28.496491 183.224328-22.183657 18.076511-47.739229 24.79499-75.094847 24.997812-79.556931 0.608466-159.088509 0.228175-240.95254 0.228175z m105.08715-72.584925c39.930582-2.864861 77.782238-3.929676 115.12684-8.873463 20.2822-2.662039 29.637365-18.684977 30.245832-39.474232 0.583113-20.2822-8.974874-36.051611-27.888026-41.857391-38.688297-11.89044-78.238588-5.374783-117.535351-6.312835z m0.152117-166.74504c35.088207-2.535275 68.782012-3.346563 101.968762-7.884705 19.72444-2.687392 28.344375-17.9751 27.888026-38.561534-0.481702-18.963857-10.1411-32.502226-30.14442-34.631857-32.705048-3.49868-65.765035-4.031087-99.661663-5.856485zM2909.814994 410.98175V9.36883h315.565685V86.314428H3014.445795v76.058251h195.216179v75.094847h-195.216179v94.185468h216.816722v79.328756zM2329.642652 279.502386l96.517921-7.605825c1.495812 5.07055 2.864861 9.355165 4.081793 13.741191 14.527126 52.708368 74.055384 75.525844 120.957973 46.496944 14.729948-9.101637 22.817475-22.082246 21.803365-39.296763s-11.510149-27.888026-27.482381-32.603637c-27.888026-8.341055-56.511281-15.21165-84.221837-24.313288-22.082246-7.301592-44.51943-15.034181-64.573456-26.442918-37.648834-21.423074-56.333812-55.345054-54.38165-99.129255 1.876104-43.099676 24.921754-72.458161 63.381877-89.393798 63.381876-27.888026 127.879273-27.659851 190.906211-0.988757 43.353203 18.330039 62.190297 55.776051 65.765034 103.363163l-98.064438 5.070551c-18.837094-49.361805-52.784426-66.449559-97.60809-50.173094-13.766544 5.07055-25.707689 12.422848-26.417566 29.181016-0.709877 17.214518 10.825624 25.555572 24.972459 29.738776 33.592394 10.014336 67.641138 18.507508 101.258886 28.445786a252.589453 252.589453 0 0 1 45.81242 17.239871c42.719385 22.48789 65.029805 58.488795 62.950879 107.064665-2.332453 54.38165-29.485249 94.692523-79.937222 113.681733-64.80163 24.389346-131.225836 22.817475-195.089415-5.400136-45.508187-19.901909-74.66385-71.013054-70.632763-118.676225zM1806.61541 411.514158h-106.912549c7.326945-19.673734 14.070777-38.029126 21.068136-56.511281Q1783.823288 189.550828 1846.723461 24.048073c4.309968-11.383385 9.329812-16.631404 22.462537-16.098997 28.065495 1.166227 56.207048-0.152117 84.272543 0.811288 5.324078 0.177469 13.436958 4.867728 15.21165 9.456576q75.728666 193.441486 150.2404 387.390027a32.096582 32.096582 0 0 1 0.709877 6.464952c-33.6431 0-66.855203 0.329586-100.067307-0.45635-3.980382 0-9.710103-5.476194-11.408737-9.710103-7.37765-18.43145-14.020071-37.192485-19.977968-56.13099-2.915566-9.203048-7.326945-13.107372-17.417339-12.980608q-62.317061 0.760583-124.684827 0c-9.86222 0-14.628537 3.219799-17.518751 12.676375-6.743832 22.259715-14.552479 44.088433-21.930129 66.043915zM1957.007926 253.642581c-16.276466-48.398401-31.843055-94.743229-48.85475-145.27126l-48.170226 145.27126zM843.565831 7.720901c-6.312835 6.81989-10.1411 11.079152-13.969366 15.059534q-188.877991 188.928697-378.11092 377.451749a44.544783 44.544783 0 0 1-27.026032 11.33268c-29.510602 1.419754-59.122614 0.532408-92.182601 0.532407 6.388893-6.972006 10.014336-11.256621 13.969366-15.21165Q534.49045 208.56539 722.557153 20.118396c9.000226-9.050932 17.746925-13.107372 30.60077-12.676375 29.003547 0.912699 58.133857 0.27888 90.407908 0.27888zM1044.207498 7.720901c-6.81989 7.200181-10.673508 11.43409-14.729948 15.490531q-188.244172 188.32023-376.310875 376.792577a38.029126 38.029126 0 0 1-30.727534 12.34679c-28.57255-0.811288-57.170452-0.253528-88.734626-0.253528 4.309968-5.400136 6.667773-8.974874 9.634045-11.966498Q734.625062 208.692154 926.317208 17.633827a36.660077 36.660077 0 0 1 22.589301-9.481929c30.372595-1.064816 60.821248-0.430997 95.300989-0.430997zM0.282645 412.097271c0-16.352524-0.836641-30.423301 0.380291-44.316608a29.155663 29.155663 0 0 1 8.543877-15.997585Q176.712435 183.694342 344.801171 16.138014c3.802913-3.802913 9.532634-7.935411 14.451068-8.036821 32.654343-0.709877 65.359391-0.380291 101.664529-0.380292-6.262129 6.81989-10.1411 11.43409-14.501773 15.744058Q260.604687 209.351326 75.022553 395.415161c-12.067909 12.143967-23.907644 18.938505-41.147514 16.884932-10.293217-1.216932-20.890666-0.202822-33.592394-0.202822zM643.126986 7.720901c-5.729722 6.287482-8.949521 10.1411-12.473554 13.63978q-189.942807 190.145629-380.291257 379.682791a42.592621 42.592621 0 0 1-25.580925 10.546744c-23.654116 1.445107-47.460349 0.507055-74.638497 0.507055 6.211424-6.769184 9.811514-11.003094 13.741191-14.93277q188.700522-188.77658 377.324985-377.755982c8.493171-8.518524 16.859579-12.524259 29.028899-12.017203 23.147061 1.01411 46.344828 0.329586 72.889158 0.329585zM0.257292 261.248406c0-28.902136-0.253528-60.46631 0.354938-92.030484a26.620388 26.620388 0 0 1 7.326945-16.428583q68.452426-69.365125 137.741494-137.766846a24.363993 24.363993 0 0 1 14.856711-6.972006C192.684668 7.416668 224.705192 7.720901 253.734091 7.720901zM1549.056818 411.133867v-93.044594h97.684148v93.044594zM2813.778775 411.539511h-97.101034v-93.805177h97.101034zM2156.914363 317.201926h96.619333v93.805177h-96.619333zM0.916463 61.747613V9.140655h56.054932C38.03289 26.887581 19.271855 44.507742 0.916463 61.747613z" p-id="7230"></path></svg>