<?xml version="1.0" standalone="no"?><!DOCTYPE svg PUBLIC "-//W3C//DTD SVG 1.1//EN" "http://www.w3.org/Graphics/SVG/1.1/DTD/svg11.dtd"><svg t="1651275985104" class="icon" viewBox="0 0 1024 1024" version="1.1" xmlns="http://www.w3.org/2000/svg" p-id="3856" xmlns:xlink="http://www.w3.org/1999/xlink" width="200" height="200"><defs><style type="text/css">@font-face { font-family: feedback-iconfont; src: url("//at.alicdn.com/t/font_1031158_u69w8yhxdu.woff2?t=1630033759944") format("woff2"), url("//at.alicdn.com/t/font_1031158_u69w8yhxdu.woff?t=1630033759944") format("woff"), url("//at.alicdn.com/t/font_1031158_u69w8yhxdu.ttf?t=1630033759944") format("truetype"); }
</style></defs><path d="M612.736061 441.443592c9.978622 7.985018 19.586094 15.598887 29.108732 23.329403q27.284798 22.141725 54.463553 44.400096c16.319978 13.37199 32.183972 27.274193 47.920715 41.35667 12.672108 11.304156 24.061098 23.658136 31.272004 39.235814a87.813995 87.813995 0 0 1 8.313751 33.742801c0.848342 23.902034-6.023228 45.598379-19.808784 65.322329-12.725129 18.249956-29.235984 31.982491-48.631201 42.364076-13.117487 7.030634-27.507487 10.604274-42.130782 12.067664-26.74398 2.598047-50.635409-5.058239-71.356161-22.396228-9.883184-8.271334-17.253154-18.536271-23.976264-29.320818-18.33479-29.437465-36.001511-59.277893-53.424333-89.26678-13.605284-23.414237-27.051504-46.923913-40.052344-70.677488-0.530214-0.975593-1.134657-1.908769-1.876957-3.181282-3.181282 5.736912-6.309543 11.229926-9.352969 16.765358q-22.50227 40.932498-46.022551 81.260553c-14.697524 25.238173-29.596529 50.359698-45.460523 74.887384a101.917679 101.917679 0 0 1-40.593162 36.711998 87.517075 87.517075 0 0 1-33.615549 8.854569c-29.37384 1.802727-55.59821-7.168489-79.107886-24.835211-18.695335-14.050663-33.138357-31.431069-41.611172-53.191039-5.524827-14.199123-9.268136-29.193567-7.263927-44.612182 2.237502-17.210737 7.147281-33.509507 18.027266-47.719234 8.133478-10.604274 18.090892-19.087694 27.804407-28.027096 7.422992-6.818548 15.206529-13.308364 22.915836-19.79818q13.711327-11.516242 27.634739-22.841607 31.378047-25.545697 62.692469-51.186832c6.521629-5.302137 13.085674-10.604274 19.639116-15.906411 0.455984-0.37115 1.060427-0.615048 1.198283-1.664871-7.083655-1.31493-14.199123-2.587443-21.293383-3.94479q-45.937716-8.812152-91.642137-18.63171C219.784075 408.74001 193.061304 403.013702 166.476389 396.651138c-10.211916-2.449587-19.087694-7.635077-27.677156-13.605284-16.426021-11.442012-28.302808-26.436456-34.675976-45.343877a124.950163 124.950163 0 0 1-6.659485-33.551923c-0.668069-13.467428 2.269315-26.319809 5.376368-39.235815 5.40818-22.459853 17.136507-41.356669 33.329233-57.400936a96.636751 96.636751 0 0 1 50.900517-26.807605c13.700722-2.619256 26.828814-1.569433 40.296242 1.378555 15.40801 3.372159 28.748187 10.848173 42.098968 18.568085q23.827804 13.785556 47.167812 28.398246Q347.035366 248.191299 377.321173 267.586516c6.754923 4.24171 13.488637 8.631879 20.24356 12.937215 0.572631 0.360545 1.177074 1.124053 1.876956 0.710486 0.86955-0.519609 0.392358-1.473994 0.243898-2.216293-2.85255-14.040059-5.906581-28.048305-8.578857-42.130782-3.329742-17.624304-6.42619-35.291025-9.480222-53.021371-2.449587-14.156706-4.877966-28.324016-6.988216-42.533743-2.120855-14.517251-5.418784-28.970877-4.665881-43.742632 1.61185-31.70678 13.785556-57.835712 40.391681-76.647694 13.425011-9.543847 28.334621-14.432417 44.050155-18.133308 20.604105-4.856758 40.677996-2.937384 60.963972 2.120854a104.080951 104.080951 0 0 1 47.846485 26.510686C576.681528 44.43017 585.048301 60.336581 588.982486 78.84104a112.044761 112.044761 0 0 1 0.954385 41.886883c-2.4814 15.280759-4.665881 30.61454-7.168489 45.895299-3.032822 18.578688-6.097458 37.11496-9.4272 55.672439-3.997811 22.20535-8.292542 44.368283-12.438814 66.541821a4.729506 4.729506 0 0 0 0.159064 0.975593l14.358188-7.868371c19.448239-10.720921 38.875269-21.494864 58.323508-32.141556 23.679344-12.947819 47.719234-25.269985 71.621268-37.68759a156.741777 156.741777 0 0 1 44.060759-15.227738c12.407001-2.279919 24.506478-0.551422 36.637768 2.40717 23.191548 5.641474 40.76283 19.225549 54.961953 37.825447 8.75913 11.46322 15.906411 23.8172 19.829993 37.751216 3.891769 13.785556 7.422992 27.634739 7.422992 42.045947a94.812816 94.812816 0 0 1-2.746507 22.852211c-2.417775 9.639285-4.24171 19.42703-9.289345 28.186161-13.880995 24.389831-34.03972 40.243221-61.716876 46.372491-20.582896 4.559838-41.494525 7.009425-62.268298 10.328563q-27.878637 4.432587-55.842108 8.356168c-17.433427 2.470796-34.919875 4.634068-52.37451 6.935195zM435.4432 326.853805c-1.590641-0.996802-2.534422-1.527015-3.414576-2.120855-7.847163-5.55664-15.471636-11.452616-23.583906-16.606293-6.362565-4.050833-13.509845-6.362565-21.303987-4.411378a3.181282 3.181282 0 0 1-2.746507-0.763508c-16.139705-10.29675-32.236994-20.646522-48.419116-30.858438q-23.636927-14.899005-47.422314-29.585925c-14.549064-9.003029-29.331422-17.634908-44.241032-26.044098-15.48224-8.737922-31.876448-13.096279-49.840089-10.657295-15.036861 2.046625-27.571113 8.992425-38.57835 19.013463a93.232779 93.232779 0 0 0-17.656116 22.268976c-12.884193 22.088703-17.857598 45.831673-12.831172 70.857761 5.641474 28.101327 23.541489 46.117989 50.539971 54.643825 11.601076 3.658475 23.785387 5.524827 35.715195 8.122874q29.29961 6.362565 58.609824 12.566065c14.124893 2.979801 28.239182 5.970206 42.417097 8.716713q28.801209 5.599057 57.687252 10.763338c3.107052 0.562027 2.492004 1.155866 1.060427 3.107053-6.192896 8.610671-7.094259 17.804576-2.428379 27.39084a21.759971 21.759971 0 0 0 9.098467 9.480221c1.452786 0.827133 2.237502 1.770914 0.455984 3.181282q-13.605284 10.89059-27.136337 21.876618-13.318968 10.784547-26.606124 21.600907t-26.234975 21.558489c-10.127082 8.377377-20.254164 16.754753-30.296411 25.227568-7.582056 6.362565-15.079278 12.873589-22.534083 19.395218-8.960612 7.847163-18.430229 15.132299-25.863825 24.633729-12.555461 16.033663-16.966839 34.145763-13.456824 53.965151 3.117657 17.666721 12.141894 32.480892 24.389831 45.354481A106.159389 106.159389 0 0 0 263.855439 713.019055c14.474834 6.659484 29.585925 9.766537 45.428711 7.613868 19.204341-2.619256 34.516913-12.258541 46.266448-27.507487 7.179094-9.310553 12.937215-19.596699 19.087694-29.596529q16.309374-26.510686 31.759801-53.572794c10.381584-18.207539 20.911629-36.340848 31.176566-54.622616 9.13028-16.245748 18.027266-32.629352 26.956065-48.991747 1.145262-2.120855 2.120855-2.438983 4.411378-1.346743 8.695505 4.146271 17.359197 4.008416 25.662344-1.251304 3.361555-2.120855 3.361555-2.226898 5.302137 1.367951 3.107052 5.694495 6.065645 11.473825 9.246927 17.125903 9.342366 16.585085 18.684731 33.180774 28.175557 49.691629q13.531054 23.573302 27.380236 46.976935c9.745328 16.468438 19.660324 32.87325 29.564716 49.214437 5.174886 8.568254 9.978622 17.433427 16.680524 24.941252 18.313582 20.529875 41.261231 28.260391 68.15367 23.180944 19.713346-3.7221 36.531725-13.531054 50.900516-27.39084a99.128755 99.128755 0 0 0 21.208549-30.094931 71.260723 71.260723 0 0 0 6.288334-38.652579c-1.749705-15.195925-8.90759-28.037701-19.299779-39.055542-7.921393-8.409189-16.754753-15.906411-25.450258-23.52028Q693.858758 540.869267 674.33629 524.962856c-14.899005-12.110081-29.691968-24.389831-44.537952-36.499912q-21.791784-17.677325-43.785048-35.068335c-1.495203-1.177074-1.187679-1.527015 0-2.598047 8.03804-7.274532 11.166301-15.980641 7.953205-26.722771-0.625652-2.120855-2.916175-4.824945-1.378555-6.288335s4.570442-0.827133 6.967008-1.060427c7.422992-0.86955 14.845984-1.654267 22.268976-2.587443 8.790943-1.060427 17.581887-2.354149 26.37283-3.510015 9.692307-1.283117 19.405822-2.449587 29.087524-3.817539 10.381584-1.473994 20.720752-3.181282 31.091732-4.718902 10.169499-1.505807 20.360206-2.884363 30.519101-4.44319 9.766537-1.484598 19.511865-3.096448 29.257192-4.708298 9.543847-1.580037 19.204341-2.470796 28.398247-5.92779 20.084495-7.571452 33.933677-21.208548 40.996124-41.515733 5.121864-14.665711 5.461201-29.691968 3.022218-44.813663-3.563036-22.099307-12.672108-41.483921-28.70577-57.379728-14.496043-14.368792-31.611341-21.929639-52.321489-21.081297a76.212919 76.212919 0 0 0-30.349433 7.698703c-30.593331 14.782358-60.539801 30.826625-90.412042 47.008748-9.35297 5.068843-18.621106 10.29675-27.931658 15.439823q-12.375188 6.829153-24.771585 13.615888c-1.060427 0.572631-1.982999 1.145262-3.361555 0.44538-8.016831-4.103854-16.245748-4.24171-24.601916-1.060428-6.532233 2.523817-11.664702 7.274532-17.327384 11.102675-4.411378 2.979801-8.695505 6.150479-13.679514 9.692307 1.208887-5.811142 2.290523-10.81636 3.276721-15.842786 3.329742-17.01986 6.680693-34.050324 9.936205-51.091393 2.831341-14.845984 5.7051-29.691968 8.26073-44.612181 3.817539-22.152329 7.422992-44.347075 10.996632-66.531217 1.46339-9.05605 2.4814-18.18633 3.987207-27.231776 1.76031-10.604274 2.682881-21.208548 1.060428-31.897657-3.446389-22.364414-15.291363-38.960103-34.622956-50.126404-20.604105-11.887391-42.989728-15.047465-66.287318-11.38899-20.243559 3.181282-38.175387 11.251135-51.748858 27.263589-9.543847 11.272343-14.53846 24.442852-15.545866 39.066146-0.837738 11.972226 1.208887 23.753574 2.831341 35.587944 2.364753 17.380405 5.302137 34.675977 8.228917 51.960944 3.361555 19.989057 7.094259 39.914488 10.96482 59.808106 4.803736 24.76098 9.925601 49.458335 14.899005 74.22992 0.646861 3.531223 1.2407 7.147281 2.099646 11.495033zM413.545374 770.176093h52.682034c2.4814 0 3.266116 0.604444 3.266117 3.181282q-0.127251 52.056382 0 104.144577c0 2.4814-0.784716 3.00101-3.107053 2.990405q-53.021371-0.095438-105.968512 0c-2.438983 0-3.287325-0.519609-3.287325-3.181282q0.14846-52.077591 0-104.144577c0-2.470796 0.763508-3.054031 3.117657-3.043427 17.772764 0.095438 35.534923 0.053021 53.297082 0.053022z m27.306006 55.046787c0-9.639285-0.07423-19.278571 0-28.917856 0-2.354149-0.572631-3.107052-3.022218-3.085844q-24.814002 0.159064-49.628003 0c-2.18448 0-2.958593 0.434775-2.947989 2.820737q0.14846 29.214775 0 58.440155c0 2.428379 0.858946 2.799528 2.990406 2.788925 16.542668-0.07423 33.085336-0.095438 49.628003 0 2.523817 0 3.00101-0.880155 2.979801-3.181283-0.063626-9.57566 0-19.225549 0-28.864834z" p-id="3857"></path><path d="M562.312737 952.315106a6.447399 6.447399 0 0 0-0.434775 3.563036c0 21.516072-0.063626 43.042749 0 64.569426 0 2.566234-0.721091 3.244908-3.181283 3.181282-7.613869-0.159064-15.238342-0.106043-22.852211 0-1.792122 0-2.460192-0.434775-2.460191-2.364753q0.07423-53.922734 0-107.834864c0-1.866352 0.646861-2.470796 2.470796-2.460192 11.367782 0 22.746168 0.106043 34.11395 0 2.651069 0 2.884363 1.802727 3.467597 3.425181q11.070862 30.593331 22.067495 61.197266a67.994606 67.994606 0 0 0 4.432587 10.349772v-3.181282c0-22.735564 0-45.481732-0.053022-68.227901 0-2.757111 0.657465-3.690287 3.541828-3.616057 7.422992 0.201481 14.845984 0.127251 22.268976 0 1.993604 0 2.85255 0.349941 2.852549 2.62986q-0.116647 53.76367 0 107.52734c0 2.046625-0.646861 2.534422-2.587442 2.513213-11.98283-0.07423-23.96566-0.095438-35.94849 0-2.120855 0-2.969197-0.615048-3.64787-2.587443q-11.198114-32.639956-22.608313-65.205682c-0.424171-1.028615-0.858946-2.099646-1.442181-3.478202zM336.123568 881.711849h-28.504289c-1.696684 0-2.226898-1.060427-2.873759-2.237502-6.161083-11.070862-12.375188-22.120516-18.462041-33.233796-0.996802-1.823935-2.057229-2.62986-4.24171-2.545025-4.761319 0.180273-9.543847 0.212085-14.305166 0-2.651069-0.127251-3.181282 0.805925-3.12826 3.255512 0.137856 10.657296 0 21.314591 0.106042 31.971887 0 2.173876-0.44538 3.011614-2.831341 2.958592-7.497222-0.14846-15.015652-0.127251-22.523478 0-2.120855 0-2.746507-0.678674-2.746507-2.77832q0.07423-53.594002 0-107.177399c0-1.961791 0.530214-2.608651 2.55563-2.608652q43.085166 0.095438 86.170332 0c2.25871 0 2.661673 0.816529 2.651069 2.831342-0.07423 14.845984 0.116647 29.638946-0.106043 44.453117-0.095438 6.786735-0.710486 13.615888-5.03703 19.395218A13.785556 13.785556 0 0 1 316.87681 840.970227c-2.40717 0.901363-2.057229 1.972395-1.060427 3.775122 6.235313 11.145092 12.375188 22.35381 18.536271 33.530715 0.551422 0.94378 1.007406 1.929978 1.770914 3.435785z m-53.784879-90.051497c-5.079447 0-10.14829 0.063626-15.227738 0-1.813331 0-2.470796 0.44538-2.449587 2.364753q0.137856 12.343375 0 24.676146c0 1.898165 0.604444 2.40717 2.428379 2.385962q15.376198-0.116647 30.752395 0c2.067833 0 2.576839-0.763508 2.55563-2.682881-0.084834-8.016831-0.106043-16.044267 0-24.061099 0-2.226898-0.805925-2.746507-2.85255-2.704089-5.058239 0.095438-10.127082 0.021209-15.206529 0.021208z" p-id="3858"></path><path d="M749.054006 967.511031c0 17.666721 0 35.333442 0.063625 53.021371 0 2.566234-0.763508 3.181282-3.266116 3.181283q-46.128593-0.127251-92.257186 0c-2.523817 0-3.244908-0.678674-3.244908-3.181283q0.127251-53.297082 0-106.604768c0-2.396566 0.636256-3.181282 3.064635-3.07524 7.200302 0.14846 14.411209 0.169668 21.622116 0 2.651069-0.063626 3.425181 0.615048 3.414576 3.361555-0.106043 27.306006 0 54.612012-0.137856 81.928623 0 3.054031 0.699882 3.934186 3.838748 3.881164 11.866183-0.201481 23.753574-0.159064 35.630361 0 2.640464 0 3.435785-0.625652 3.425181-3.372159-0.106043-27.199963-0.063626-54.410531-0.063626-81.652912 0-4.09325 0-4.09325 4.24171-4.093249 6.903383 0 13.785556 0.106043 20.710147-0.063626 2.460192-0.053021 3.054031 0.742299 3.043427 3.107052-0.127251 17.825785-0.084834 35.693987-0.084834 53.562189zM242.14849 967.023235c0-17.666721 0.053021-35.333442-0.063626-53.021371 0-2.55563 0.721091-3.276721 3.244908-3.181283q10.81636 0.254503 21.632719 0c2.534422-0.053021 3.181282 0.689278 3.181283 3.181283-0.084834 27.412049-0.053021 54.834702-0.053022 82.24675 0 3.955394 0 3.955394 3.902373 3.955395 11.876787 0 23.764179-0.07423 35.640966 0.063625 2.757111 0 3.64787-0.689278 3.637266-3.563036-0.106043-27.412049 0-54.834702-0.137856-82.246751 0-2.958593 0.827133-3.775122 3.732705-3.690287 7.104864 0.201481 14.220332 0.127251 21.325195 0 1.982999 0 2.619256 0.572631 2.619256 2.587443q-0.084834 53.76367 0 107.537945c0 2.120855-0.646861 2.757111-2.767716 2.746507q-46.658807-0.07423-93.21157 0c-2.4814 0-2.767716-0.996802-2.767715-3.07524 0.106043-17.793972 0.084834-35.662174 0.084834-53.54098z" p-id="3859"></path><path d="M809.869518 911.806779c12.894797 0 25.789595 0.063626 38.684393 0 2.428379 0 3.096448 0.699882 3.05403 3.085844q-0.201481 11.887391 0 23.764178c0 2.120855-0.689278 2.725298-2.778319 2.70409q-12.035851-0.159064-24.071703 0c-2.025416 0-2.55563-0.646861-2.566234-2.619256 0-6.27773-0.106043-6.27773-6.362565-6.27773-5.48241 0-10.96482 0.084834-16.447229 0-2.248106-0.053021-3.266116 0.392358-3.181282 2.990405 0.180273 6.585254 0.180273 13.202321 0 19.787576-0.07423 2.545026 0.880155 3.022218 3.181282 3.011614 16.754753-0.07423 33.509507 0 50.26426-0.084834 2.385962 0 3.393368 0.434775 3.35095 3.181282-0.190877 13.499241 0 27.009086-0.307524 40.508327-0.14846 6.956404-2.025416 13.499241-7.953205 18.027267-4.125063 3.181282-9.05605 4.029624-14.082476 4.050832-20.148121 0.063626-40.211408 0-60.317112 0.063626-1.982999 0-2.640464-0.615048-2.619256-2.608651 0.084834-7.709307 0.095438-15.429219 0-23.149131 0-2.067833 0.752903-2.55563 2.672277-2.534422 7.719912 0.084834 15.439823 0.106043 23.149131 0 2.248106 0 2.672277 0.827133 2.651068 2.831342-0.053021 4.984009 0 4.984009 4.920384 4.984009 6.701901 0 13.403803-0.07423 20.148121 0 2.025416 0 2.661673-0.625652 2.62986-2.598048-0.084834-6.298939-0.116647-12.597878 0-18.886212 0.053021-2.248106-0.551422-2.92678-2.873759-2.916175-16.553272 0.106043-33.106544 0-49.659816 0.127251-3.011614 0-3.658475-0.901363-3.637266-3.764518q0.190877-29.999492 0-60.009587c0-2.746507 0.668069-3.626662 3.531224-3.594849 12.820568 0.021209 25.725969-0.07423 38.620766-0.07423zM362.135852 967.521636c0-17.762159 0-35.534923-0.053021-53.307687 0-2.18448 0.455984-2.937384 2.820737-2.937384q43.572963 0.127251 87.124717 0c1.887561 0 2.92678 0.169668 2.916175 2.545026-0.127251 16.966839-0.07423 33.933677-0.169668 50.900516a34.029116 34.029116 0 0 1-0.816529 6.935195c-2.18448 10.349772-8.547045 15.906411-19.236154 16.691128-13.690118 1.007406-27.401445 0.275711-41.091562 0.37115-2.714694 0-3.616058 0.593839-3.563036 3.467597 0.201481 9.543847 0 19.087694 0.137855 28.631541 0 2.460192-0.784716 3.07524-3.128261 3.032822q-10.954215-0.201481-21.929639 0c-2.364753 0-3.085844-0.593839-3.075239-3.032822 0.106043-17.751555 0.053021-35.524319 0.063625-53.297082z m46.330075-1.420973c5.471805 0 10.954215-0.063626 16.42602 0 1.76031 0 2.502609-0.37115 2.4814-2.343545q-0.137856-13.785556 0-27.677155c0-1.813331-0.424171-2.4814-2.354148-2.470796-10.848173 0.084834-21.696345 0.063626-32.544518 0-1.61185 0-2.375357 0.339337-2.354149 2.120854q0.106043 13.997642 0 27.98468c0 2.014812 0.837738 2.33294 2.545026 2.301128 5.249116-0.021209 10.51944 0.084834 15.800369 0.084834zM123.87902 825.466778c0-17.656117 0.053021-35.322837 0-53.021371 0-2.523817 0.636256-3.181282 3.181282-3.181282q43.233626 0.127251 86.48846 0c2.470796 0 3.266116 0.551422 3.244908 3.181282-0.14846 16.744149-0.095438 33.488298-0.180272 50.243051a36.860457 36.860457 0 0 1-0.721091 6.638276c-1.929978 10.22252-8.483419 16.22454-18.949838 17.041069-13.880995 1.060427-27.793803 0.307524-41.685402 0.392358-2.725298 0-3.382763 0.710486-3.340346 3.372159 0.169668 9.543847 0 19.087694 0.116647 28.63154 0 2.25871-0.424171 3.234304-2.990406 3.181283q-10.954215-0.254503-21.919035 0c-2.492004 0-3.266116-0.583235-3.244907-3.181283v-53.297082zM170.336345 824.003388h16.139705c1.866352 0 2.672277-0.328733 2.651069-2.4814q-0.201481-13.690118 0-27.412049c0-2.120855-0.689278-2.523817-2.598047-2.513213q-15.980641 0.116647-31.982491 0c-1.845144 0-2.693486 0.29692-2.672278 2.470796q0.190877 13.711327 0 27.412049c0 2.120855 0.731695 2.55563 2.62986 2.513213 5.280929 0.010604 10.561857 0.010604 15.832182 0.010604z" p-id="3860"></path><path d="M569.958418 825.5198c0-17.46524 0-34.919875-0.063625-52.374511 0-2.788924 0.742299-3.64787 3.584244-3.637266q36.531725 0.159064 73.074054 0c2.757111 0 3.456993 0.805925 3.361555 3.446389-0.201481 5.164282-0.180273 10.360376 0 15.524658 0.07423 2.385962-0.615048 3.107052-3.054031 3.096448-14.920214-0.116647-29.840428 0-44.760641-0.116647-2.682881 0-3.7221 0.519609-3.605454 3.456993 0.243898 6.182292 0.180273 12.385792 0 18.578689-0.063626 2.33294 0.710486 2.884363 2.937384 2.863154 13.29776-0.095438 26.59552 0 39.89328-0.095439 2.460192 0 3.107052 0.742299 3.022218 3.096448-0.169668 4.464399-0.190877 8.939403 0 13.393199 0.116647 2.502609-0.593839 3.276721-3.181282 3.244908-13.096279-0.127251-26.192557 0-39.235815-0.116647-2.608651 0-3.531223 0.519609-3.42518 3.308533 0.233294 5.980811 0.212085 11.98283 0 17.963641-0.095438 2.62986 0.816529 3.181282 3.266116 3.181282 14.920214-0.106043 29.840428 0 44.760642-0.116647 2.682881 0 3.510015 0.646861 3.393367 3.361555-0.22269 5.068843-0.137856 10.14829 0 15.227738 0 2.004208-0.413567 2.863154-2.661673 2.852549q-37.295232-0.116647-74.601069 0c-2.566234 0-2.693486-1.134657-2.693485-3.181282 0.010604-17.634908-0.010604-35.301629-0.010605-52.957745z" p-id="3861"></path><path d="M673.487948 825.551612v-53.307686c0-2.205689 0.466588-2.937384 2.820737-2.937384q44.166802 0.127251 88.344208 0c2.364753 0 2.884363 0.742299 2.820737 2.947988-0.137856 5.577848-0.169668 11.166301 0 16.744149 0.07423 2.428379-0.668069 3.043427-3.054031 3.032823-19.490656-0.095438-38.991916 0-58.493177-0.116647-2.714694 0-3.584245 0.604444-3.563036 3.478202 0.137856 20.413228 0.106043 40.826456 0 61.229079 0 2.364753 0.572631 3.07524 3.011614 3.064635 19.596699-0.106043 39.235815 0 58.800701-0.137855 2.788924 0 3.372159 0.805925 3.27672 3.403972-0.190877 5.376367-0.116647 10.763338 0 16.139705 0 1.866352-0.349941 2.661673-2.470796 2.661673q-44.474326-0.095438-88.948652 0c-2.385962 0-2.545026-1.060427-2.545025-2.905571 0.021209-17.730346 0-35.524319 0-53.297083zM830.537249 769.508023c14.305166 0 28.63154 0.116647 42.936706-0.095438 3.181282 0 3.891769 0.964989 3.764517 3.923581-0.233294 5.164282-0.169668 10.349772 0 15.524658 0.053021 2.120855-0.593839 2.767716-2.735902 2.735902-9.034842-0.106043-18.027266 0-27.104525-0.106042-2.576839 0-3.181282 0.731695-3.181283 3.181282 0.084834 27.815011 0 55.630023 0.106043 83.445034 0 2.682881-0.551422 3.64787-3.446389 3.552432-6.998821-0.22269-14.008246-0.190877-21.007067 0-2.55563 0.063626-3.181282-0.678674-3.181282-3.181283 0.095438-27.815011 0-55.630023 0.116647-83.445033 0-2.672277-0.519609-3.64787-3.44639-3.573641-8.928799 0.212085-17.857598 0-26.797001 0.127251-2.33294 0-2.905571-0.678674-2.841945-2.916175 0.159064-5.174886 0.212085-10.360376 0-15.524657-0.127251-2.85255 0.540818-3.775122 3.594849-3.743309 14.39 0.190877 28.801209 0.095438 43.223022 0.095438zM551.294896 825.5198c0 17.666721-0.053021 35.333442 0.053021 53.021371 0 2.576839-0.752903 3.181282-3.244908 3.181282q-25.450258-0.159064-50.900516 0c-1.919374 0-2.873758-0.434775-3.361555-2.40717q-3.085844-12.385792-6.468607-24.707959c-0.615048-2.248106-0.381754-3.043427 2.18448-2.979801 6.998821 0.14846 14.008246 0.106043 21.007068 0 1.845144 0 2.831341 0.477192 3.096448 2.354149 0.159064 1.060427 0.721091 2.120855 0.79532 3.244907 0.22269 2.85255 2.046625 2.990405 4.24171 2.863155 1.251304-0.063626 1.919374-0.392358 1.802727-1.76031-0.063626-0.699882 0-1.410368 0-2.120855 0-27.815011 0-55.630023-0.053022-83.445034 0-2.55563 0.424171-3.510015 3.266117-3.435784 8.218313 0.22269 16.447229 0.159064 24.665541 0 2.290523 0 2.916175 0.636256 2.905572 2.905571-0.053021 17.762159 0.010604 35.524319 0.010604 53.286478zM144.663397 966.864171c0-17.454635 0-34.909271-0.063626-52.363906 0-2.672277 0.689278-3.467598 3.382764-3.393368 7.200302 0.190877 14.411209 0.169668 21.611511 0 2.576839-0.063626 3.181282 0.752903 3.181282 3.244908-0.084834 27.698364 0 55.407333-0.127251 83.105697 0 3.032822 0.837738 3.616058 3.690287 3.584244 13.997642-0.159064 28.005888 0 42.014134-0.116647 2.290523 0 3.181282 0.455984 3.107053 2.969197-0.201481 5.577848-0.127251 11.166301 0 16.744149 0 1.940582-0.509005 2.640464-2.566235 2.640464q-35.778821-0.095438-71.547038 0c-2.566234 0-2.672277-1.187679-2.672277-3.181282 0.010604-17.719742-0.010604-35.471297-0.010604-53.233456z" p-id="3862"></path><path d="M478.507158 967.23532c0-17.550074 0-35.110752-0.053022-52.67143 0-2.460192 0.551422-3.329742 3.181283-3.266116 7.709307 0.169668 15.418615 0.116647 23.138526 0 1.961791 0 2.619256 0.593839 2.619256 2.598047q-0.07423 53.424333 0 106.869875c0 2.120855-0.572631 2.831341-2.735903 2.799529-7.719912-0.116647-15.429219-0.137856-23.138526 0-2.438983 0-3.064635-0.689278-3.054031-3.07524 0.084834-17.730346 0.042417-35.492506 0.042417-53.254665z" p-id="3863"></path><path d="M435.4432 326.853805c-0.816529-4.347752-1.452786-7.96381-2.18448-11.558659-4.973405-24.729167-10.095269-49.426522-14.899006-74.229919-3.87056-19.893618-7.603265-39.81905-10.964819-59.808107-2.916175-17.295571-5.864164-34.591142-8.228917-51.960944-1.622454-11.83437-3.669079-23.615719-2.831341-35.587944 1.007406-14.623294 5.948998-27.793803 15.545866-39.066146 13.615888-16.012454 31.505299-24.082307 51.748858-27.263589 23.329403-3.658475 45.683213-0.498401 66.287318 11.38899 19.331592 11.166301 31.176566 27.76199 34.622955 50.126405 1.654267 10.74213 0.731695 21.293383-1.060427 31.897656-1.505807 9.045446-2.523817 18.175726-3.987207 27.231777-3.584245 22.184142-7.179094 44.378888-10.996633 66.531216-2.55563 14.90961-5.429388 29.755593-8.260729 44.612182-3.255512 17.041069-6.606463 34.071533-9.936205 51.091393-0.986198 5.026426-2.120855 10.031643-3.276721 15.842785 4.984009-3.541828 9.268136-6.712506 13.679514-9.692306 5.694495-3.828143 10.795151-8.578858 17.327384-11.102675 8.356168-3.181282 16.585085-3.032822 24.601916 1.060427 1.378556 0.699882 2.311732 0.127251 3.361555-0.445379q12.396397-6.807944 24.771585-13.615888c9.310553-5.143073 18.578688-10.37098 27.931658-15.439824 29.87224-16.182122 59.818711-32.226389 90.412042-47.008747a76.212919 76.212919 0 0 1 30.349433-7.698703c20.710148-0.848342 37.825446 6.712506 52.321489 21.081297 16.033663 15.906411 25.142734 35.28042 28.70577 57.379727 2.438983 15.142904 2.120855 30.147952-3.022218 44.813663-7.094259 20.338998-20.911629 33.933677-40.996124 41.515734-9.193906 3.456993-18.8544 4.347752-28.398247 5.927789-9.745328 1.61185-19.490656 3.181282-29.257192 4.708298-10.158895 1.558828-20.349602 2.937384-30.519101 4.443191-10.37098 1.548224-20.710148 3.244908-31.091732 4.718902-9.681702 1.367951-19.395218 2.534422-29.087525 3.817538-8.790943 1.155866-17.581887 2.40717-26.37283 3.510015-7.422992 0.933176-14.845984 1.717892-22.268975 2.587443-2.396566 0.275711-5.567244-0.233294-6.967009 1.060428s0.752903 4.188688 1.378556 6.288334c3.181282 10.74213 0.084834 19.448239-7.953206 26.722771-1.187679 1.060427-1.495203 1.420973 0 2.598047q22.025078 17.550074 43.83807 35.153169c14.90961 12.099477 29.691968 24.389831 44.537952 36.499912q19.543677 15.906411 38.419285 32.544518c8.663692 7.624473 17.497052 15.111091 25.450258 23.52028 10.392189 11.017841 17.550074 23.859617 19.299779 39.055542a71.260723 71.260723 0 0 1-6.288334 38.652579 99.128755 99.128755 0 0 1-21.208549 30.094931c-14.358187 13.859786-31.176566 23.66874-50.900516 27.39084-26.892439 5.079447-49.840089-2.651069-68.15367-23.180944-6.701901-7.507826-11.505638-16.372999-16.680524-24.941252-9.904392-16.372999-19.819388-32.745999-29.564716-49.214437q-13.859786-23.403633-27.380236-46.976935c-9.543847-16.510855-18.833191-33.106544-28.175557-49.691629-3.181282-5.652078-6.139875-11.431408-9.246927-17.125903-1.961791-3.594849-1.961791-3.510015-5.302137-1.367951-8.303147 5.302137-16.966839 5.397576-25.662343 1.251304-2.301128-1.060427-3.266116-0.763508-4.411379 1.346743-8.928799 16.362395-17.825785 32.745999-26.956065 48.991747-10.264937 18.281769-20.794982 36.415078-31.176566 54.622616s-20.89042 35.884864-31.759801 53.572794c-6.139875 9.999831-11.897996 20.285977-19.087694 29.596529-11.749536 15.248946-27.062108 24.888232-46.266448 27.507487-15.842786 2.120855-30.953876-0.954385-45.428711-7.613868a106.159389 106.159389 0 0 1-32.979293-23.467259c-12.216124-12.873589-21.208548-27.68776-24.38983-45.354481-3.49941-19.819388 0.901363-37.931489 13.456824-53.965152 7.422992-9.543847 16.903213-16.786566 25.863825-24.633729 7.422992-6.521629 14.952027-13.011444 22.534082-19.395217 10.042248-8.483419 20.148121-16.850192 30.296412-25.227568q13.07507-10.81636 26.234974-21.55849t26.606124-21.600906q13.552262-10.96482 27.136338-21.876618c1.781518-1.431577 0.996802-2.375357-0.455984-3.181282a21.759971 21.759971 0 0 1-9.098467-9.480222c-4.665881-9.543847-3.764517-18.78017 2.428379-27.39084 1.410368-1.951186 2.025416-2.545026-1.060428-3.107052q-28.886043-5.164282-57.687252-10.763339c-14.16731-2.746507-28.281599-5.736912-42.417096-8.716713Q240.971415 387.107291 211.68241 380.744726c-11.929808-2.598047-24.11412-4.464399-35.715196-8.122874-26.998482-8.483419-44.898497-26.510686-50.53997-54.643825-5.026426-25.026087-0.053021-48.779661 12.831171-70.85776a93.232779 93.232779 0 0 1 17.656117-22.268976c11.017841-10.021039 23.541489-16.966839 38.57835-19.013463 17.942432-2.438983 34.33664 1.919374 49.840088 10.657295 14.90961 8.409189 29.691968 17.041069 44.241032 26.044098q23.785387 14.697524 47.422315 29.585925c16.182122 10.211916 32.279411 20.561688 48.419116 30.858438a3.181282 3.181282 0 0 0 2.746507 0.763507c7.794142-1.972395 14.930818 0.360545 21.303987 4.411378 8.11227 5.153677 15.736743 11.049654 23.583905 16.606294 0.858946 0.562027 1.802727 1.09224 3.393368 2.089042z m33.933678 151.227554a21.420634 21.420634 0 0 0 1.378555 8.377377 10.604274 10.604274 0 0 0 19.851202 0 16.129101 16.129101 0 0 0 1.251304-6.839757c-0.360545-5.662682-0.699882-11.335969-1.177075-16.966839-1.060427-12.725129-2.279919-25.450258-3.393367-38.175387-0.933176-10.81636-1.813331-21.622115-2.714694-32.438475-0.106043-1.31493-0.159064-2.470796 1.346742-3.340346s2.470796 0 3.531224 0.678674c7.635077 5.18549 15.333781 10.29675 22.873419 15.609491Q535.568757 421.369701 558.654262 438.007807a18.472646 18.472646 0 0 0 12.523648 3.79633 10.233125 10.233125 0 0 0 9.299948-12.279749c-1.060427-4.867362-4.24171-7.974414-8.483419-10.116478q-7.062447-3.563036-14.24154-6.87157c-21.441842-9.914996-43.053353-19.469447-64.219485-29.967678-1.187679-0.593839-2.70409-0.848342-2.725298-2.810133s1.484598-2.226898 2.693485-2.820737c4.909779-2.428379 9.808954-4.877966 14.771754-7.189698q31.272005-14.61269 62.565218-29.15115a18.515063 18.515063 0 0 0 7.369971-5.736912c2.502609-3.425181 3.361555-7.157885 1.431577-11.155697a10.413397 10.413397 0 0 0-9.745328-6.139874 17.528865 17.528865 0 0 0-10.752734 3.637266q-10.604274 7.422992-21.102506 14.983839c-15.567075 11.198114-31.102336 22.449249-47.125395 32.989897-1.46339 0.954385-2.799528 2.841945-5.100655 1.527016s-1.219492-3.297929-1.060428-4.920383c0.731695-10.105873 1.633058-20.201142 2.523817-30.307016 1.527015-17.369801 3.107052-34.739602 4.591651-52.109404a22.894628 22.894628 0 0 0-1.060427-9.9256c-1.792122-4.867362-5.068843-7.253324-10.063456-7.253324s-8.387981 2.513213-10.09527 7.242719a18.875608 18.875608 0 0 0-1.145261 7.772933c0.37115 5.302137 0.752903 10.51944 1.208887 15.768556 1.060427 12.725129 2.290523 25.450258 3.393368 38.175387q1.399764 16.054871 2.672277 32.120347c0.106043 1.261909 0.413567 2.55563-1.155866 3.446389s-2.682881 0.106043-3.849351-0.668069c-3.054031-2.014812-6.12927-3.987207-9.109072-6.086854q-30.09493-21.208548-60.147443-42.544348a18.377207 18.377207 0 0 0-10.699713-3.849351 10.455814 10.455814 0 0 0-9.819558 5.503618c-2.120855 3.859956-1.580037 7.613869 0.721091 11.208718a15.567075 15.567075 0 0 0 6.362564 5.55664c3.711496 1.866352 7.422992 3.732705 11.18751 5.503618 22.470457 10.604274 45.280251 20.445041 67.474996 31.600737 1.134657 0.572631 2.40717 0.858946 2.470796 2.661673s-1.230096 2.354149-2.4814 2.958592c-5.842955 2.841945-11.664702 5.747517-17.528865 8.48342Q420.10942 405.134557 390.046302 419.036761a16.839587 16.839587 0 0 0-8.048644 7.157885c-3.987207 7.316949 0.721091 15.333781 9.045446 15.598887a18.090892 18.090892 0 0 0 11.092071-3.531223q6.511024-4.517421 12.947819-9.109072c18.843795-13.414407 37.475505-27.146942 56.838909-39.819049 1.060427-0.699882 1.961791-1.580037 3.531224-0.657465s1.431577 2.036021 1.336138 3.340346c-0.402962 5.164282-0.795321 10.317959-1.251304 15.471636-1.124053 12.725129-2.279919 25.450258-3.393368 38.175387-0.964989 10.795151-1.855748 21.611511-2.77832 32.417266z" p-id="3864"></path></svg>