<?xml version="1.0" standalone="no"?><!DOCTYPE svg PUBLIC "-//W3C//DTD SVG 1.1//EN" "http://www.w3.org/Graphics/SVG/1.1/DTD/svg11.dtd"><svg t="1651275991816" class="icon" viewBox="0 0 1024 1024" version="1.1" xmlns="http://www.w3.org/2000/svg" p-id="4322" xmlns:xlink="http://www.w3.org/1999/xlink" width="200" height="200"><defs><style type="text/css">@font-face { font-family: feedback-iconfont; src: url("//at.alicdn.com/t/font_1031158_u69w8yhxdu.woff2?t=1630033759944") format("woff2"), url("//at.alicdn.com/t/font_1031158_u69w8yhxdu.woff?t=1630033759944") format("woff"), url("//at.alicdn.com/t/font_1031158_u69w8yhxdu.ttf?t=1630033759944") format("truetype"); }
</style></defs><path d="M0 1024V0h1024v1024z m294.846585-461.957346v130.956265c0 25.889337 7.824668 33.588206 33.990761 33.588206h358.727077c29.537494 0 36.632531-6.994398 36.63253-36.053857q0-193.151057-0.176118-386.302113c0-9.334251 3.119803-14.869386 10.214841-20.932875 46.847371-40.003931 93.644423-80.083342 139.158329-121.571695 13.359803-12.152138 23.87656-28.15371 33.110172-43.903686 9.938084-16.932482 2.390172-27.424079-17.158919-26.996363a31.525111 31.525111 0 0 0-8.730418 0.981228c-29.084619 9.132973-58.521474 17.385356-87.077739 28.027912-23.398526 8.730418-45.715184 20.354201-69.264669 31.021916-6.566683-16.957641-19.725209-19.901327-35.751941-19.851007-120.414349 0.352236-240.828698 0.176118-361.217887 0.201277-24.052678 0-32.45602 8.453661-32.456019 32.707617 0 81.366486-0.150958 162.732973 0.176118 244.04914a23.725602 23.725602 0 0 1-10.063882 21.008354c-36.229975 29.185258-72.963145 57.99312-107.180344 89.417592-23.323047 21.385749-43.425651 46.419656-63.905651 70.698772-6.113808 7.271155-12.80629 17.611794-5.837052 27.675675s18.693661 7.547912 29.0343 5.837052c42.243145-7.145356 80.636855-25.159705 119.257002-42.419263 12.177297-5.459656 24.102998-11.347027 38.519509-18.140147z m214.486486 330.623685h184.923833c20.630958 0 29.83941-9.334251 29.91489-30.191646q0.150958-43.400491 0-86.775823c0-20.832236-9.233612-30.443243-29.638133-30.468403q-185.527666-0.150958-371.080491 0c-19.045897 0-28.455627 9.711646-28.556266 28.883341-0.176118 28.933661 0 57.867322 0 86.775823 0 23.222408 8.654939 31.701229 32.078624 31.701229z" p-id="4323"></path><path d="M194.736118 558.04226c3.094644-5.535135 5.031941-12.227617 9.460049-16.404127 28.380147-27.021523 57.288649-53.514693 86.021032-80.158821l4.352629 2.515971c0 19.750369 0 39.525897-0.201278 59.276265 0 1.811499-2.515971 4.377789-4.604226 5.233219-25.335823 10.818673-50.696806 21.637346-76.309385 31.801867-4.679705 1.861818-10.516757 0.805111-15.825455 1.107027zM724.272432 247.823096c0-18.341425-0.251597-36.70801 0.251597-55.024275a11.472826 11.472826 0 0 1 5.585455-8.428502c23.373366-10.21484 46.94801-19.976806 70.623292-29.512334a36.632531 36.632531 0 0 1 12.353416-1.761179c7.245995-0.251597 8.831057 3.698477 6.063489 9.711646a27.675676 27.675676 0 0 1-5.409337 8.403342Q771.472039 211.341523 729.002457 250.91774z" p-id="4324"></path></svg>