<?xml version="1.0" standalone="no"?><!DOCTYPE svg PUBLIC "-//W3C//DTD SVG 1.1//EN" "http://www.w3.org/Graphics/SVG/1.1/DTD/svg11.dtd"><svg t="1651276033760" class="icon" viewBox="0 0 2524 1024" version="1.1" xmlns="http://www.w3.org/2000/svg" p-id="7072" xmlns:xlink="http://www.w3.org/1999/xlink" width="492.96875" height="200"><defs><style type="text/css">@font-face { font-family: feedback-iconfont; src: url("//at.alicdn.com/t/font_1031158_u69w8yhxdu.woff2?t=1630033759944") format("woff2"), url("//at.alicdn.com/t/font_1031158_u69w8yhxdu.woff?t=1630033759944") format("woff"), url("//at.alicdn.com/t/font_1031158_u69w8yhxdu.ttf?t=1630033759944") format("truetype"); }
</style></defs><path d="M721.084752 380.126822h77.723549a46.062949 46.062949 0 0 1 1.259054 5.849994c1.949998 26.455487 1.934644 26.470841 29.173201 26.578322h39.752325v73.178671c-17.795652 0-35.683431 0.706299-53.479084-0.245669-12.114555-0.644881-15.676757 3.147635-15.584631 15.461796 0.552755 78.414493 0 156.84434 0.598819 235.258833 0.092126 12.529122-3.669682 15.8303-15.676757 15.354316-21.050768-0.936613-42.162952-0.261023-64.488128-0.261023v-43.89799c-3.070863 0-4.928736-0.460629-6.433459 0C661.463943 726.412716 608.460843 723.188309 556.44042 707.833993c-43.391298-12.820854-71.535759-54.323571-70.721981-97.146759 0.798424-42.301141 31.430285-83.036142 74.376308-94.858965 19.254313-5.297239 39.921222-6.525584 59.881833-7.677158a513.125894 513.125894 0 0 1 62.231044 0.230314c11.699989 0.737007 23.185017 4.959444 37.648783 8.275977 0-7.799993 0.967322-16.321638-0.522047-24.382654-0.506692-2.733068-7.201174-6.141726-11.116525-6.141727-32.244064-0.491338-64.580254-0.307086-96.870381-0.307086-47.982238 0-95.964476-0.337795-143.93136 0.245669-11.638572 0.138189-15.354316-3.59291-14.724789-14.970459a291.593819 291.593819 0 0 0-0.10748-42.86925c-1.212991-13.619278 4.606295-15.845654 16.551953-15.784237 77.047959 0.429921 154.080563 0.199606 231.128522 0.153543 19.561399 0 19.53069 0 19.960611-19.116124 0.076772-4.145665 0.506692-8.199205 0.859841-13.358255z m-78.307012 270.312737c13.373609 0 26.762573 0.414567 40.120828-0.092126 20.605492-0.78307 36.312958-16.075969 37.188154-35.483825 0.936613-20.636201-13.281484-37.572012-35.099967-38.539333-27.637769-1.228345-55.275538-1.320471-82.913308-0.107481-21.787775 0.951968-35.82162 17.795652-35.007841 38.585397 0.752361 19.546045 16.275575 34.762172 37.019257 35.560596 12.882271 0.506692 25.810606 0.092126 38.708231 0.076772zM1479.495848 380.111468h79.136145c0.337795 6.034246 1.443306 11.500383 0.783071 16.751559-1.750392 13.742113 4.283854 17.120063 17.227542 16.72085 20.697618-0.614173 41.456654 0.230315 62.169627 1.381888 23.737773 1.305117 43.314526 12.02243 58.991283 29.572413 47.506254 53.202706 56.81097 115.940442 44.803894 183.622268a172.935664 172.935664 0 0 1-40.473977 85.108975c-16.39841 18.732266-36.312958 32.55115-60.97199 34.992487-24.090922 2.364565-48.611765 0.506692-74.975126 0.506692 0-23.645647-0.230315-47.475546 0.353149-71.29009 0-2.364565 4.851964-5.972829 7.953536-6.633065a57.271599 57.271599 0 0 1 16.536599-0.32244c52.204675 4.606295 74.407016-31.829498 81.055435-67.666472 6.479521-34.823589-0.307086-66.944819-26.409424-93.169991-10.748021-10.748021-22.939348-16.475181-38.385791-15.861009-11.976367 0.475984-23.998796 0.552755-35.959808 0-9.21259-0.460629-12.068493 3.301178-11.945658 12.099202 0.322441 24.444071 0.368504 48.888143-0.10748 73.332214-0.752361 39.153506-7.815347 76.664101-26.839345 111.733359-26.762573 49.302709-71.627885 59.758999-122.036105 59.037346-2.748423 0-7.677158-5.174405-7.799993-8.061016q-0.982676-31.783435 0-63.628287c0.092126-2.80984 5.036216-7.677158 7.984244-7.861409 40.166891-2.748423 61.07947-13.496444 66.392064-70.276706 2.963383-31.568474 1.535432-63.551515 2.487399-95.350303 0.245669-8.583063-3.454721-11.162588-11.546446-10.993691-17.979904 0.368504-35.990517-0.368504-53.955067 0.261024-10.3181 0.368504-15.200773-2.072833-14.632663-13.680696 0.89055-17.949196 0.78307-35.990517 0-53.939713-0.475984-10.901565 4.468106-13.435027 13.957073-13.235421 17.058645 0.353149 34.194062-0.798424 51.175936 0.383858 12.820854 0.89055 16.39841-4.053539 15.031876-15.707465-0.522047-5.435428 0-11.009045 0-17.826361zM434.174 615.539198H380.940585c-1.888581 13.972428-2.994092 26.301944-5.281884 38.385791-15.231482 80.287719-58.100733 112.255406-139.724278 104.486122-54.231445-5.15905-95.856996-38.523979-106.866041-85.646376-13.035814-55.859002 24.459426-114.773514 83.251103-126.765235 24.106276-4.913381 49.440898-4.452752 74.238119-4.990153 11.039753-0.245669 14.018491-3.669682 13.987782-14.356285-0.138189-32.428316 0.276378-32.428316-31.568475-32.412962H138.188846V420.094107c4.314563-0.368504 9.10511-1.105511 13.818885-1.120865 44.251139-0.092126 88.532987-0.445275 132.784126 0.184252 11.853532 0.168897 17.212188-2.687005 15.599985-15.262191-0.859842-6.679128-0.153543-13.542507-0.153543-21.09683h79.980633c0 8.506291 0.245669 17.027937 0 25.518873-0.291732 7.600387 2.687005 10.916919 10.517707 10.655896 11.055108-0.383858 22.140924 0.276378 33.196032-0.168898 8.675189-0.353149 12.636602 2.594879 12.406287 11.792115-0.429921 17.519275-0.353149 35.03855 0 52.557825 0.153543 8.229913-2.840548 11.66928-11.331485 11.208651-10.10314-0.537401-20.267697-0.138189-30.416901-0.092126-2.763777 0-6.448813-0.951968-8.137787 0.429921-12.544476 10.333455-3.685036 24.566906-5.926766 36.850358-1.35118 7.431489 3.853933 9.21259 10.302746 9.21259 14.172034-0.153543 28.344068 0 43.314526 0z m-130.204602 0.614173c-26.946825 0-48.074364-1.136219-69.094423 0.368503-16.122032 1.166928-28.205879 20.574784-25.396039 37.003902 2.671651 15.599985 12.790145 26.977534 26.731865 30.048397 19.53069 4.299209 42.33185-1.704329 49.302709-15.953134 7.523615-15.26219 11.730698-32.12123 18.501951-51.467668z" p-id="7073"></path><path d="M1348.385341 468.859415l61.417265 51.943652C1388.982154 551.112487 1363.985327 576.001834 1331.219216 591.14119c-82.1763 37.863744-156.475837 22.094861-225.339945-33.963748-16.413764-13.358255-36.205478-24.812575-56.319632-30.862175-43.729093-13.158649-79.120791 5.281885-108.800684 37.080673-6.525584 7.001568-12.928334 14.125971-20.252344 22.12557l-60.327108-51.007039c42.393267-72.74875 140.79908-109.123125 221.102154-83.205039 32.244064 10.410226 59.559393 28.512965 85.462124 49.701921 31.184616 25.488165 66.02356 38.800357 106.620371 27.100369 25.810606-7.431489 44.650352-25.227142 62.154272-44.527517 3.961414-4.529523 7.830701-8.997629 12.866917-14.72479zM110.259345 751.670566c-24.827929 0-49.133812 0.307086-73.547175-0.337795-3.347241-0.092126-8.675189-4.360626-9.53503-7.677158-7.984244-30.570444-20.498012-61.171596-21.618878-92.125898-3.070863-83.327874-1.074802-166.824646-1.074802-250.275354 0-3.070863 0.368504-6.249207 0.629527-10.287392h80.456617v23.829899c0 71.443633 1.013385 142.902621-0.414566 214.315546C84.448739 667.528913 92.125897 703.227698 107.203836 737.851681c1.289763 2.948029 2.518108 5.926766 3.59291 8.951566 0.276378 0.752361-0.153543 1.750392-0.537401 4.867319zM1126.085551 198.070695c-15.814946 7.370072-27.898793 15.845654-41.164921 18.578722-26.977534 5.542908-52.204675-10.486998-62.154273-37.049965a109.967613 109.967613 0 0 1-1.028739-75.850322C1034.880913 64.948773 1082.11079 52.742092 1113.187926 79.596791c3.347241 2.901966 6.556293 5.957475 10.978336 9.995659 4.775192-12.651957 9.565739-24.566906 24.444071-19.960611s11.239359 18.256282 11.300777 29.372807c0.199606 35.053904 0.399212 70.123162-0.10748 105.177066a145.866004 145.866004 0 0 1-4.084248 34.163354c-8.199205 31.783435-30.98501 49.855465-64.058208 50.669243-14.617309 0.353149-29.342098-1.320471-43.913344-3.070863-8.736606-1.028739-15.04723-6.433458-12.713374-16.122032 2.13425-8.905503 9.627156-9.857471 17.718881-8.828732a252.762754 252.762754 0 0 0 28.804697 2.733069c24.966118 0.276378 36.558627-8.798023 41.564134-33.196032 2.13425-10.394872 2.011415-21.296437 2.963383-32.459024z m0.644882-56.903096c-2.34921-9.21259-3.746453-18.931872-7.247238-27.74525-5.819286-14.694081-17.703527-22.371239-33.410992-22.217695-15.246836 0.138189-26.639739 7.799993-31.491702 22.432656a95.196761 95.196761 0 0 0-5.112988 28.205879c-0.414567 30.708632 14.801561 49.993654 37.833036 49.594441 23.384624-0.445275 38.17083-19.776359 39.429884-50.30074zM541.331773 86.844028c12.544476-13.818885 27.560998-21.849192 46.277909-21.3425 29.756665 0.78307 52.910974 21.204311 56.503883 53.970422a204.212406 204.212406 0 0 1-2.45669 57.59404c-3.992122 22.140924-17.96455 38.646814-40.673584 44.373974-22.12557 5.573617-42.009409 0.491338-57.440497-17.565338-1.151574-1.335826-2.825194-2.226376-6.003538-4.606295-1.535432 4.606295-1.781101 9.32007-4.237791 11.34684-4.867318 4.053539-11.331485 9.53503-16.490535 8.920858s-9.765345-7.677158-13.818885-12.559831c-1.412597-1.688975-0.522047-5.358656-0.522047-8.122433 0-59.006637-0.122835-118.028629 0.153543-177.035266 0-5.696451 0.644881-13.48109 4.207083-16.536599C511.29873 1.412612 520.327068-1.366519 525.117615 0.706314c5.251176 2.364565 10.748021 10.348809 11.300776 16.306284 1.535432 18.317699 0.583464 36.850359 0.690945 55.275538 0 4.360626 0.414567 8.721252 0.629527 13.066523z m73.700717 61.954666c-2.763777-13.327546-3.930705-24.428717-7.446843-34.762172-4.805901-13.818885-15.768883-20.973996-30.616507-21.618877s-26.409424 5.389365-32.704693 18.655494c-10.179912 21.496043-10.748021 43.928699-0.936613 65.547576 11.45432 25.273204 43.974762 28.113753 59.221597 4.836609 6.525584-9.949597 8.798023-22.662971 12.467705-32.65863zM1673.205901 89.531033c4.207083-3.792516 6.940151-6.141726 9.53503-8.629126 28.804697-27.422809 75.650716-18.133447 90.590466 18.609432 11.224005 27.49958 11.408257 56.150734 1.873227 83.942047-14.033845 40.87319-57.578686 52.696013-91.788103 26.102337-2.425982-1.888581-5.143696-3.37795-10.011014-6.540939-0.552755 6.679128-1.2437 11.392903-1.274408 16.106678-0.153543 17.074 0 34.132645-0.122835 51.206645 0 10.932273-6.387396 15.907072-16.521244 16.321638s-16.61337-4.606295-17.903133-15.124002a91.680622 91.680622 0 0 1-0.261023-11.070462q0-82.329844-0.076772-164.70575c0-3.224406-1.028739-7.18582 0.429921-9.550384 3.777162-6.141726 7.677158-14.172034 13.419673-16.459827 8.490937-3.347241 15.814946 2.02677 18.563368 11.623217a86.598343 86.598343 0 0 0 3.546847 8.168496z m-2.287793 50.838141c1.888581 11.761406 2.564171 20.559429 4.805901 28.942886 4.391334 16.383055 17.150771 26.777927 32.397607 27.637769 15.799591 0.844487 28.451548-7.677158 35.007841-23.968087 7.677158-19.269667 6.878734-38.84642 0.153543-58.05467-4.406689-12.605894-13.557861-20.605492-27.361391-22.263758-15.139356-1.811809-28.190525 2.687005-35.069259 16.475181-5.205113 10.379518-7.231883 22.371239-9.934242 31.230679zM90.175899 180.812443c5.573617-17.642109 11.270068-35.314927 16.705496-52.926328Q122.466026 77.078683 137.774279 26.194479c3.792516-12.713374 10.348809-21.09683 25.165725-20.77439 15.246836 0.353149 19.131478 4.990153 14.049199 19.730296-13.91101 40.473978-28.06769 80.871184-42.132244 121.299098-6.049601 17.381086-12.406288 34.654692-18.087384 52.204676-4.606295 14.325577-12.91298 22.693679-29.050366 22.125569-16.521244-0.583464-22.693679-4.606295-28.881469-22.309821Q31.55312 120.208957 4.606295 41.901944C3.070863 37.541319 0.522047 33.303527 0.184252 28.881484c-0.56811-7.093694 0.337795-14.310223 0.614172-21.496043 9.21259 0.721653 19.392501-0.660236 27.361392 2.901966 5.327948 2.379919 8.844086 11.34684 10.932273 18.07203 14.218097 45.679091 27.822021 91.542433 41.702323 137.329005 1.535432 5.05157 3.531493 9.949597 5.327948 14.924395zM742.718984 156.614041c-13.373609 0-26.762573 0.21496-40.120828 0-9.980306-0.21496-11.961012 4.237791-9.21259 13.02046 6.51023 20.712973 28.574382 33.073197 53.386957 29.280681 7.677158-1.166928 15.354316-4.698421 22.939349-4.314563 5.220468 0.276378 11.239359 4.606295 14.709435 8.844086 1.151574 1.427951-3.439367 10.256683-7.277946 12.529122-32.366899 19.100769-87.043619 6.602356-107.480214-23.922024-22.417302-33.57989-16.61337-88.671176 13.081878-111.134541 25.872023-19.561399 55.13735-20.236989 83.681023-7.155112 27.346037 12.529122 33.933039 38.63146 35.483825 65.716474 0.583464 10.149203-6.433458 17.027937-17.718881 17.104708-13.818885 0.092126-27.637769 0-41.456654 0z m-13.112586-23.031475c9.21259 0 18.425179-0.245669 27.530289 0 9.550385 0.322441 11.961012-4.2685 10.425581-12.928334-3.470075-19.438564-16.521244-30.800758-36.097998-31.015719-20.037383-0.199606-34.808235 11.362194-38.692877 30.155877-1.842518 8.874795 0 14.37164 10.67125 13.818885 8.690543-0.337795 17.427149-0.030709 26.163755-0.030709zM1307.251128 144.791217c0-48.872789 29.173201-79.842444 75.604653-79.949924 45.325941-0.153543 75.389693 31.87556 75.650716 80.61016 0.261023 46.92279-29.925562 77.738903-76.249534 77.846383s-74.99048-30.125168-75.005835-78.506619z m32.597214-0.99803l2.180313 0.706298c0.276378 5.5122 0.168897 11.085816 0.921259 16.551953 2.855903 20.375178 16.72085 34.854298 34.240125 36.128706 23.031474 1.67362 39.276341-7.907473 42.792479-29.756665 2.625588-16.306284 1.67362-33.90233-1.381888-50.223968-2.932674-15.753528-15.753528-24.735803-31.967687-26.194463-15.922426-1.443306-29.802728 3.930705-36.727524 19.039352-4.867318 10.579124-6.801962 22.44801-10.057077 33.748787zM436.615336 198.193529c-16.244867 17.027937-33.334221 26.516904-55.275538 25.104307-21.496043-1.381888-37.234217-12.283453-38.923192-33.779496-2.763777-35.314927-2.594879-70.798752-2.763777-106.221159 0-10.748021 8.199205-14.93975 18.210219-14.402349 10.748021 0.583464 15.354316 7.677158 15.492505 17.565338 0.307086 21.204311 0.092126 42.408621 0.199606 63.597578 0 7.370072 0 14.786207 0.67559 22.094861 1.028739 9.99566 3.823225 21.004705 15.04723 22.094861 9.688574 0.951968 21.496043-0.552755 29.434224-5.558263 12.483059-7.846056 18.056676-21.618877 18.010613-36.957839 0-20.283052-0.092126-40.550749 0-60.833801 0.092126-15.170064 6.141726-22.171633 18.42518-22.110215 11.838178 0 17.488566 6.141726 17.642109 21.496043 0.353149 34.562566 0 69.094423 0 103.703051 0 11.300777 0.629527 23.507458-14.125971 26.102338-13.388964 2.24173-17.887778-8.107079-22.048798-21.895255zM1573.464263 198.316364c-15.93778 16.690142-32.520442 26.102338-53.939713 25.027535-22.524782-1.105511-38.385791-11.653926-40.1976-33.90233-2.855903-35.238156-2.395273-70.768043-2.70236-106.175097-0.092126-10.164557 7.18582-14.294868 16.751559-14.325577 9.964951 0 15.707465 5.066924 15.922426 15.062584 0.368504 18.870455 0 37.771618 0.46063 56.642073a338.654798 338.654798 0 0 0 2.02677 34.393668c2.088187 16.889748 16.091323 25.25785 32.351544 20.298406 16.521244-5.020861 29.510996-22.923994 29.894854-42.408621 0.429921-21.649586-0.10748-43.314526 0.307086-64.948758 0.261023-13.450381 6.51023-19.53069 18.164156-19.177541 10.625187 0.322441 16.214158 5.83464 16.229512 16.429119 0.092126 39.614136 0 79.228272 0 118.842407 0 9.519676-5.358656 15.953135-13.818884 15.354316-5.988183-0.368504-11.976367-5.957475-17.273606-10.087785-2.042124-1.489369-2.211022-5.481491-4.176374-11.024399zM1872.228548 528.802666c-26.900762 0-53.509792 0.184252-80.103468-0.276378-2.80984 0-6.801962-3.239761-8.122433-5.988183-18.425179-38.232247-36.328312-76.633392-54.323571-115.034537-0.506692-1.090156 0-2.625588 0-5.72716 26.747219 0 53.294832-0.184252 79.842444 0.276377 2.779131 0 6.725191 3.316532 8.061016 6.141727 18.317699 38.232247 36.282249 76.633392 54.2468 115.019183 0.460629 1.074802 0.184252 2.594879 0.399212 5.588971zM255.326924 137.835712c0.629527 12.866917 1.059448 25.749188 1.949999 38.600751 1.028739 14.893687 7.07834 20.498012 21.803129 20.712973 5.066924 0 10.640541-1.35118 15.062584 0.32244s10.118494 6.003538 10.748021 9.857471-3.715745 11.331485-7.277946 12.360225c-19.407856 5.61968-39.291695 6.571647-57.901126-2.855903-15.001167-7.600387-18.501951-22.386593-18.977935-37.49524-0.690944-21.634232-0.629527-43.314526 0-64.964112 0.291732-11.070462-3.162989-16.459827-14.909041-15.477151-8.398811 0.690944-16.889748-1.182282-17.104708-11.408257-0.153543-10.748021 8.275976-13.388964 17.473211-12.728728 11.838178 0.844487 15.446442-4.882673 14.463766-15.861009a193.080526 193.080526 0 0 1-0.10748-22.110215c0.337795-13.388964 6.249207-19.960611 17.734235-19.592107 12.636602 0.445275 17.764944 7.677158 17.580692 19.868485-0.122835 8.736606 0.998031 17.519275 0.537401 26.225172s3.761807 11.423611 11.546446 11.331485c9.21259-0.092126 18.74762-1.274408 27.545644 0.67559 5.389365 1.197637 9.642511 7.431489 14.417703 11.392903-4.606295 4.038185-8.767315 10.241329-14.110617 11.623217-7.784638 2.02677-16.490536 1.059448-24.751158 0.506693-11.515737-0.752361-15.814946 4.406689-15.124001 15.47715 0.475984 7.815347 0.092126 15.676757 0.092126 23.507458zM1224.629553 95.949137c12.498413-8.030307 24.029505-16.029906 36.174769-23.031474 5.466137-3.070863 12.283453-5.865349 18.256282-5.466137 5.343302 0.368504 12.605894 4.176374 14.816915 8.583063 1.535432 3.070863-2.687005 10.870856-6.356687 14.540538-3.178343 3.178343-9.089755 3.915351-13.972428 5.05157-29.787373 6.909442-45.433422 23.860607-48.012947 54.384988-1.35118 16.029906-0.644881 32.244064-0.982676 48.350742-0.337795 15.799591-5.819286 22.325176-18.28699 22.079506-11.715343-0.245669-17.304314-6.878734-17.365732-21.66494-0.153543-35.959809 0-71.919617-0.092126-107.879426 0-11.162588 2.088187-20.851161 15.354316-21.956672s17.427149 7.677158 18.548014 19.023998a58.05467 58.05467 0 0 0 1.91929 7.984244zM856.955097 97.085357c8.153142-6.372041 14.740144-12.989752 22.586199-17.273606a115.618001 115.618001 0 0 1 30.447609-12.068493c4.606295-0.982676 13.496444 3.331887 14.924395 7.247238 1.535432 4.16102-2.472045 11.5618-6.034246 15.93778-2.441336 3.070863-8.183851 3.654327-12.605894 4.606295-32.244064 7.385426-48.304679 25.856669-49.870819 58.83774-0.721653 15.185419-0.168897 30.4169-0.414566 45.617673-0.245669 14.310223-6.141726 20.820453-18.3177 20.329115-12.974397-0.522047-17.089354-8.42952-17.027936-20.344469 0.199606-36.850359 0.122835-73.700718 0-110.551077 0-10.855502 3.070863-19.561399 15.354316-20.436595s16.889748 6.878734 17.780298 18.041322c0.368504 2.994092 1.857872 5.865349 3.178344 10.057077zM286.020202 364.726443a42.700353 42.700353 0 1 1 0.660236-85.400707 42.700353 42.700353 0 1 1-0.660236 85.400707zM852.73266 322.287113c-0.122835 24.275174-18.870455 42.65429-43.314526 42.454684s-42.684999-19.023998-42.393267-43.422006a42.853897 42.853897 0 0 1 85.707793 0.967322zM392.041756 279.44857a42.65429 42.65429 0 1 1-0.813779 85.308581c-24.198402-0.261023-42.65429-18.947226-42.485393-42.992085S367.751228 279.44857 392.041756 279.44857zM704.379256 364.726443c-24.25982 0-42.684999-18.762974-42.43933-43.176337A42.070826 42.070826 0 0 1 704.148942 279.44857a42.65429 42.65429 0 0 1 43.314526 42.685c-0.168897 24.321237-18.64014 42.608227-43.084212 42.592873z" p-id="7074"></path></svg>