<?xml version="1.0" standalone="no"?><!DOCTYPE svg PUBLIC "-//W3C//DTD SVG 1.1//EN" "http://www.w3.org/Graphics/SVG/1.1/DTD/svg11.dtd"><svg t="1651276015861" class="icon" viewBox="0 0 3907 1024" version="1.1" xmlns="http://www.w3.org/2000/svg" p-id="5772" xmlns:xlink="http://www.w3.org/1999/xlink" width="763.0859375" height="200"><defs><style type="text/css">@font-face { font-family: feedback-iconfont; src: url("//at.alicdn.com/t/font_1031158_u69w8yhxdu.woff2?t=1630033759944") format("woff2"), url("//at.alicdn.com/t/font_1031158_u69w8yhxdu.woff?t=1630033759944") format("woff"), url("//at.alicdn.com/t/font_1031158_u69w8yhxdu.ttf?t=1630033759944") format("truetype"); }
</style></defs><path d="M1160.954089 1021.334008c-197.628477 2.173732-319.991481-82.511248-404.223599-226.430428C634.548631 586.134726 665.433741 307.987588 825.56534 139.342206c186.578673-195.998178 475.956759-183.680363 645.598435 27.171651 188.299544 234.310207 152.795253 589.171973-78.344928 770.769176-74.722041 59.053056-159.044732 92.021326-231.864758 84.050975z m-9.057217-826.289917c-89.847594-1.992588-160.312743 35.05143-211.486019 108.0526-64.215669 91.477893-81.062093 192.556436-57.785045 301.152469C909.163454 728.423607 1014.408317 827.600134 1124.906365 833.306181s214.02204-74.812613 256.1381-198.262483c31.247399-91.387321 18.114434-180.238621-9.057217-269.90507-28.167945-94.738491-121.457281-168.645383-220.180948-170.094537zM2766.708111 1020.428286c-190.201559 0.634005-319.810336-97.002795-398.517553-261.663002C2273.361495 558.78193 2291.475929 361.334597 2421.809283 181.63941c173.626852-239.563393 504.124704-240.469114 685.450191-6.430624 176.162873 227.426722 142.470025 574.499281-73.001169 751.74902-80.609232 66.661118-154.697268 92.20247-267.550194 93.47048z m-268.637059-501.226395c7.51749 38.221456 12.046099 77.258062 23.005331 114.483225 32.515409 110.316904 131.42022 194.096163 232.408191 200.164498 103.614564 6.24948 201.251364-63.40052 249.798048-175.257151 46.463524-107.146878 34.598569-213.750324-9.057217-315.915733-77.076918-180.691481-306.315083-203.062808-422.428606-44.380364-48.003251 65.574252-68.925422 139.481144-73.725747 220.905525zM190.201559 307.353583c74.631469-1.086866 146.908062-14.310403 213.56918-0.724577C554.482832 337.514116 652.119632 461.960279 658.369112 617.834986c3.894603 100.897399 2.173732 202.157086 0.634005 303.145057-0.996294 67.929128-35.413719 99.629388-101.350259 98.361377-56.33589-0.905722-87.855006-36.228868-88.489012-101.712548-0.905722-93.470481 0.905722-187.031533-1.449154-280.77373-2.626593-105.788296-82.692392-169.822821-175.891157-143.91918A131.691937 131.691937 0 0 0 193.281013 618.650135c-1.720871 99.629388-0.724577 199.258776-2.08316 298.888165-0.81515 64.034525-34.326853 100.625682-89.757021 101.531404C36.228868 1019.884853 0 986.554294 0 920.617754Q0 513.3147 0.996294 106.011647C1.177438 44.150854 41.753771 0.58564 95.463068 0.676212S188.842977 44.331998 190.201559 106.464508c1.177438 70.646293 0 141.292587 0 200.889075z" p-id="5773"></path><path d="M3905.924879 563.7634c0 48.274967-1.902016 96.640507 0 144.915473 7.608062 168.283094-162.486475 309.12282-310.39083 313.923146a333.033873 333.033873 0 0 1-343.359101-344.174251c3.079454-95.010208 0.81515-190.201559 1.902016-285.302339 0.452861-43.202926 20.288166-76.805201 61.770221-90.572171 36.228868-12.317815 75.265474-8.151495 98.270805 25.179064a155.693562 155.693562 0 0 1 25.994213 78.797789c3.35117 92.021326 1.539727 184.133224 2.08316 276.154549 0.543433 89.394733 57.15104 151.346098 138.213133 151.980103s141.473731-63.40052 142.017165-153.97269c0.543433-98.180233 0-196.269895 1.177438-294.359557a85.318985 85.318985 0 0 1 59.053056-83.145253c34.145709-12.770676 71.189726-9.691222 95.734784 20.107022a118.649544 118.649544 0 0 1 25.360208 64.125097c3.441743 58.600195 1.177438 117.743822 1.177439 176.525162zM1813.798299 553.709889v135.858256c0.634005 82.60182 58.056762 143.285175 135.858256 144.100325s139.028283-58.147334 140.749154-140.205721c2.173732-101.078543 0-202.157086 1.811444-303.235629a92.20247 92.20247 0 0 1 72.457737-91.74961c45.286086-8.604356 86.586996 10.687516 104.792002 51.71671a124.265019 124.265019 0 0 1 9.781794 48.003251c1.449155 92.021326 2.354876 184.133224 1.177438 276.063977 0 16.393563-10.053511 32.96827-16.846423 48.818401-28.80195 67.113979-57.060468 134.409102-87.855006 200.617359a110.13576 110.13576 0 0 1-36.228869 43.112353c-175.347723 117.743822-458.295186 54.343303-505.120998-196.360467-23.729909-126.80104-11.864954-261.210142-9.872367-392.086929 0.724577-52.531859 49.271261-84.775552 101.440832-81.514954 47.731534 3.35117 84.413263 41.119766 86.315279 93.651625 1.902016 54.343303 0 108.686605 0 163.029908z" p-id="5774"></path></svg>