<?xml version="1.0" standalone="no"?><!DOCTYPE svg PUBLIC "-//W3C//DTD SVG 1.1//EN" "http://www.w3.org/Graphics/SVG/1.1/DTD/svg11.dtd"><svg t="1651276052436" class="icon" viewBox="0 0 1024 1024" version="1.1" xmlns="http://www.w3.org/2000/svg" p-id="8325" xmlns:xlink="http://www.w3.org/1999/xlink" width="200" height="200"><defs><style type="text/css">@font-face { font-family: feedback-iconfont; src: url("//at.alicdn.com/t/font_1031158_u69w8yhxdu.woff2?t=1630033759944") format("woff2"), url("//at.alicdn.com/t/font_1031158_u69w8yhxdu.woff?t=1630033759944") format("woff"), url("//at.alicdn.com/t/font_1031158_u69w8yhxdu.ttf?t=1630033759944") format("truetype"); }
</style></defs><path d="M725.827212 221.283504l-43.294598 2.16473a7.696818 7.696818 0 0 1-3.848409 0l-27.900964-13.709956h5.772614v-2.645781c-12.266803-3.848409-24.052555-7.937343-37.28146-11.545226 0 0-2.886307 0-3.848409 1.683679l-13.469431 14.912584a110.401227 110.401227 0 0 0 37.040935 14.672058 32.230423 32.230423 0 0 0-30.30622 31.027796 323.025811 323.025811 0 0 0-2.16473 45.699854 745.6292 745.6292 0 0 0 12.747855 134.694307 342.748906 342.748906 0 0 0 30.78727 96.210219 110.401227 110.401227 0 0 0 33.914102 41.129869v1.443153a82.740789 82.740789 0 0 0-36.800409 0 36.800409 36.800409 0 0 0-10.342598 3.126833 240.525548 240.525548 0 0 1-66.625577 20.444671c-11.545226 2.405255-24.052555 4.32946-36.319358 6.734716l10.342598 6.253664a109.439124 109.439124 0 0 0 48.10511 9.621022 334.811563 334.811563 0 0 0 67.587679-6.013139 294.643797 294.643797 0 0 1-89.716029 30.065694 65.904 65.904 0 0 0 24.052555 13.228905 115.452263 115.452263 0 0 1-41.851446 9.139971c-14.191007 0-28.382015 0-43.054073 2.645781l20.925723 10.823649h-2.645781a351.648352 351.648352 0 0 1-168.367884-52.675095 466.138513 466.138513 0 0 1-108.717548-88.994453c-2.405255-2.886307-4.569985-2.886307-6.734715 0a123.389606 123.389606 0 0 0-12.98838 16.596263c-5.532088 8.899445-9.861547 18.279942-15.15311 27.900964a21.887825 21.887825 0 0 1-2.645781-5.291562 417.792877 417.792877 0 0 1-42.091971-91.88076 1194.690399 1194.690399 0 0 1-46.661956-192.420438l-2.886306-19.001519v-3.607883c0-1.683679 0 0 1.443153 1.443153a331.684731 331.684731 0 0 0 102.704409 107.274395 586.882338 586.882338 0 0 0 164.519475 77.930277l6.013139 1.924205c-10.342599 2.16473-19.723095 3.367358-28.863066 6.013139a288.630658 288.630658 0 0 0-33.192526 11.785751c-10.342599 4.810511-11.785752 9.380496-10.102073 20.925723a104.869139 104.869139 0 0 0 22.368876 48.10511 357.66149 357.66149 0 0 0 115.933314 98.615475 82.981314 82.981314 0 0 0 27.660439 7.696817 177.988906 177.988906 0 0 0 48.105109 0 173.899971 173.899971 0 0 0-44.497226-17.79889v-1.202628h33.673577v-1.443153a238.360818 238.360818 0 0 1-110.641753-48.10511 157.544234 157.544234 0 0 0 74.081869 15.634161 194.344643 194.344643 0 0 0 74.322395-16.596263A312.683213 312.683213 0 0 1 453.552292 544.790367a179.672585 179.672585 0 0 0 24.052555-46.902482 331.925257 331.925257 0 0 0 17.317839-79.373431c2.405255-26.45781 4.088934-52.915621 4.569985-79.613956a401.918191 401.918191 0 0 0-6.253664-83.22184 30.546745 30.546745 0 0 0-33.673577-27.660438l8.65892-4.32946h-6.975241A104.147562 104.147562 0 0 1 501.657401 211.181431l-14.912584-12.266803a6.013139 6.013139 0 0 0-3.607883 0 48.10511 48.10511 0 0 0-24.052555 11.785752 9.621022 9.621022 0 0 1-4.088934 2.16473L409.536116 216.472993a54.599299 54.599299 0 0 1 19.963621-13.46943 166.924731 166.924731 0 0 1 52.434569-14.431533c19.963621-2.16473 40.167767-3.607883 60.371913-5.532088v1.443154l-22.368876 5.532087 3.607883 2.886307a120.262774 120.262774 0 0 0 15.15311 9.139971 29.344117 29.344117 0 0 1 16.596263 26.938861c1.924204 19.723095 3.367358 39.44619 5.051036 59.40981a6.013139 6.013139 0 0 0 0 3.367358c0-11.304701 0-22.609402 1.443154-33.914102 1.683679-19.723095 3.607883-39.205664 6.013138-58.688234 1.443153-9.380496 2.405255-9.621022 12.026278-10.342599a2.16473 2.16473 0 0 0 2.16473 0L573.815066 184.964147l33.914102-3.367358 34.154628-3.126832A271.553344 271.553344 0 0 0 573.815066 166.924731a334.089987 334.089987 0 0 1 116.654891 11.785751l-74.322395 5.772614c18.279942 4.088934 36.800409 7.937343 55.080351 12.747854a207.333023 207.333023 0 0 1 54.599299 24.052554z" p-id="8326"></path><path d="M627.211738 675.39574l-18.039416-6.253665c6.734715-1.202628 13.469431-2.16473 20.204146-3.607883a233.069256 233.069256 0 0 0 114.971212-61.815066 295.365373 295.365373 0 0 0 50.510365-62.777168 6.975241 6.975241 0 0 0 0-9.139971A93.804964 93.804964 0 0 0 760.462891 505.103651a252.3113 252.3113 0 0 0-59.40981-19.001518l34.876204-5.051036A308.594278 308.594278 0 0 0 862.445724 435.110717a173.659446 173.659446 0 0 0 42.573022-39.205664A442.085958 442.085958 0 0 1 878.32041 505.103651a360.788322 360.788322 0 0 1-57.004555 97.893899L818.189023 577.261316a449.782775 449.782775 0 0 1-216.472993 120.262774l10.342598 7.937343a256.400235 256.400235 0 0 1-59.650336-13.709956 185.204672 185.204672 0 0 0 74.803446-16.355737z" p-id="8327"></path><path d="M681.329986 693.675681h-30.065694c5.051037-1.202628 10.342599-1.683679 15.393636-3.367357 9.139971-3.126832 18.039416-6.49419 26.938861-10.342599a61.334015 61.334015 0 0 1 27.900964-6.49419l-3.848409 2.886307a495.723155 495.723155 0 0 0-110.641752 100.780205 192.420439 192.420439 0 0 0-38.003037 73.841343l-1.683679 6.975241a234.271884 234.271884 0 0 0-164.038424-146.239534 213.586687 213.586687 0 0 1 108.717548 27.179387h-13.228905A277.085432 277.085432 0 0 1 549.762511 792.050631a72.157664 72.157664 0 0 0-9.621022-46.902482l20.685197-11.785752c-8.65892 0-16.115212-1.443153-24.052555-3.126832-11.064175-2.405255-21.887825-5.772613-32.711474-8.65892l-45.459329-10.82365h-2.405255A216.472993 216.472993 0 0 0 501.657401 702.334601a452.669082 452.669082 0 0 1-157.303708-48.10511 755.971798 755.971798 0 0 0 191.458336 43.294599l-11.785752 4.569986c37.762511 26.45781 129.402745 21.406774 157.303709-8.418395zM316.452729 220.080877c20.925723-8.899445 40.889343-18.760993 62.777168-27.660438s41.129869-13.950482 61.815066-20.925723a76.246599 76.246599 0 0 0 26.698336-12.98838H429.499737c5.291562-1.443153 10.583124-2.645781 15.874686-4.32946a115.692789 115.692789 0 0 0 72.157665-60.131387 664.57209 664.57209 0 0 0 36.078832-90.437606l1.683679-3.607883c3.126832 9.380496 5.772613 18.039416 9.139971 26.45781 11.064175 28.863066 22.609402 57.485606 33.673576 86.108147a67.587679 67.587679 0 0 0 50.029314 41.851445 18.039416 18.039416 0 0 1 5.772614 1.924204l-65.42295 2.886307a33.914102 33.914102 0 0 0-24.052554-21.647299 10.583124 10.583124 0 0 1-5.532088-6.734716c-1.924204-6.975241-2.645781-14.191007-4.32946-21.647299 0 5.051037-1.202628 9.861547-1.683679 14.912584a17.317839 17.317839 0 0 1-7.696817 14.431533 29.825168 29.825168 0 0 0-12.507329 19.723095l-17.317839 6.734715v1.443153H549.762511V168.367884a853.865697 853.865697 0 0 0-232.828731 53.877723zM800.630658 934.682281a16.836788 16.836788 0 0 1-1.924204 3.367357h-1.924205a26.45781 26.45781 0 0 1-33.914102 2.405256 153.936351 153.936351 0 0 0-24.052555-10.82365 20.925723 20.925723 0 0 0-6.734715 0 20.925723 20.925723 0 0 0 0 6.734716c3.367358 8.177869 7.456292 16.355737 11.064175 24.052554s2.16473 6.734715-2.886307 9.621022l-11.064175 6.253665a4.810511 4.810511 0 0 1-7.696817-2.405256l-24.052555-53.637197c-1.683679-3.607883 0-5.772613 2.645781-7.937343 16.115212-9.861547 16.115212-9.861547 33.673577-2.405256 8.65892 3.607883 17.077314 7.456292 25.976759 10.82365a6.49419 6.49419 0 0 0 6.013138 0 7.215766 7.215766 0 0 0 0-6.013139L753.006599 889.944529a5.291562 5.291562 0 0 1 2.405256-8.177869l12.026277-6.734715a4.810511 4.810511 0 0 1 7.696818 2.405255l24.052555 53.637198a30.546745 30.546745 0 0 1 1.443153 3.607883zM329.681634 913.997084l-40.648817 58.207182-55.080351-32.230423-9.861547-5.532088a5.772613 5.772613 0 0 1-1.683679-8.899445l32.952-48.10511a6.013139 6.013139 0 0 1 8.177869-2.16473z m-59.40981 37.762511a24.052555 24.052555 0 0 0 4.810511-3.607884l24.052555-34.395153c2.886307-4.088934 2.405255-6.49419-2.16473-9.139971l-15.15311-9.139971a6.013139 6.013139 0 0 0-8.658919 1.683679l-24.052555 35.11673a5.291562 5.291562 0 0 0 1.924204 8.65892l16.115212 9.380496zM185.847356 810.571098a16.596263 16.596263 0 0 1 4.088935 2.405255l50.75089 48.10511a5.532088 5.532088 0 0 1 0 8.899445l-17.79889 16.355738a6.013139 6.013139 0 0 1-8.177869 0c-4.569985-3.367358-6.975241-2.645781-9.621022 2.645781s-5.051037 10.583124-7.696817 15.874686-6.013139 5.532088-10.102073 1.924204-4.810511-4.810511-7.456292-6.734715a7.696818 7.696818 0 0 1-1.683679-11.064175c3.607883-6.975241 6.734715-13.950482 10.102073-20.925723a5.291562 5.291562 0 0 0 0-7.456292c-8.899445-9.380496-9.621022-9.380496-19.242044 0l-10.82365 10.102073a5.772613 5.772613 0 0 1-9.380496 0l-9.139971-8.177869c-2.886307-3.126832-3.367358-6.013139 0-9.139971l43.294599-39.205664a16.115212 16.115212 0 0 1 2.886306-3.607883z m33.673577 42.091971a27.900964 27.900964 0 0 0-3.126832-4.810511c-2.405255-2.645781-5.291562-4.810511-7.937343-7.456292-10.583124-10.102073-9.139971-9.861547-20.925723 0a5.051037 5.051037 0 0 0 0 8.418394l8.899446 8.418394c9.139971 8.418394 9.139971 8.418394 18.279941 0a56.764029 56.764029 0 0 0 4.810511-4.569985zM503.34108 988.800529V962.102193c0-5.291562 1.924204-7.456292 7.215767-7.937343l63.258219-4.32946a6.253664 6.253664 0 0 1 6.975241 5.291562 100.539679 100.539679 0 0 1-1.924205 60.131387 7.215766 7.215766 0 0 1-7.215766 4.810511l-63.017694 3.848409a6.253664 6.253664 0 0 1-7.215766-6.975241v-28.141489z m25.255183-2.645781h-1.202628v20.204146c0 4.810511 2.16473 7.456292 6.49419 7.456292a128.440643 128.440643 0 0 0 16.596263 0 7.456292 7.456292 0 0 0 5.532087-4.088934 80.816584 80.816584 0 0 0 1.683679-45.94038 6.253664 6.253664 0 0 0-6.49419-4.810511h-16.355737a6.253664 6.253664 0 0 0-6.253664 6.734716zM346.277897 921.21285a170.773139 170.773139 0 0 1 16.596263 5.772613s2.16473 3.126832 2.16473 4.810511c0 9.861547 0 19.723095 1.924204 29.584643 0 1.924204 0 4.810511 2.405256 5.291562a7.937343 7.937343 0 0 0 5.772613-2.16473c7.696818-6.975241 15.15311-14.431533 22.609402-21.887825a7.937343 7.937343 0 0 1 9.621021-2.16473c3.607883 1.443153 7.456292 2.405255 11.304701 3.607883s5.051037 4.569985 1.683679 7.937343c-16.115212 15.874686-32.470949 31.508847-48.10511 48.10511a6.975241 6.975241 0 0 1-5.772613 1.443153 158.506336 158.506336 0 0 1-17.317839-5.291562 8.418394 8.418394 0 0 1-3.848409-5.532087c-1.202628-20.925723-2.16473-41.851445-3.367358-62.777169-0.962102-4.32946 0-6.49419 4.32946-6.734715zM173.099502 796.139565a13.228905 13.228905 0 0 1-2.886306 3.367358l-24.052555 13.46943c-3.367358 1.924204-5.051037 0-6.734715-2.405255-8.65892-12.507329-17.317839-24.052555-25.736234-37.28146-2.405255-3.848409-4.569985-4.088934-8.418394-1.924205s-13.469431 7.696818-19.963621 11.545227a4.32946 4.32946 0 0 1-6.975241-1.443153L70.154568 769.681755c-2.16473-2.886307-1.924204-5.051037 1.202627-6.975241l53.156147-30.065694a4.088934 4.088934 0 0 1 6.253664 1.443153c13.469431 19.963621 27.179387 39.686715 40.889343 59.650336a12.747854 12.747854 0 0 1 1.443153 2.405256z m-21.166248-17.558365a4.810511 4.810511 0 0 0 0-1.924204c-4.32946-6.49419-8.65892-12.98838-13.469431-19.242044a5.772613 5.772613 0 0 0-5.291562 0 80.816584 80.816584 0 0 0-10.102073 5.291562c-3.848409 1.924204-4.088934 4.32946-1.683678 7.696817s7.696818 11.064175 11.545226 16.596263a7.696818 7.696818 0 0 0 2.405255 2.405256c1.443153 0.721577 16.596263-7.696818 16.596263-10.82365zM907.905053 731.438192l-2.886307 5.051037c-8.418394 11.785752-16.355737 24.052555-24.052555 35.597781-2.645781 3.607883-2.405255 6.013139 0 8.418394a96.210219 96.210219 0 0 1 7.456292 6.49419c3.126832 2.645781 5.291562 2.16473 7.696818 0l22.849927-33.192526c0-1.202628 1.443153-2.886307 2.645781-3.607883a17.317839 17.317839 0 0 1 5.291562 0 19.963621 19.963621 0 0 1 0 5.291562 24.052555 24.052555 0 0 1-2.886307 4.569986c-7.456292 10.82365-14.912584 21.647299-22.609401 32.230423-2.645781 3.607883-2.645781 6.253664 0 9.139971s6.734715 5.532088 10.342598 8.418394 5.532088 3.848409 9.139971 0l24.052555-34.395153s0-2.405255 1.924204-2.886307a8.177869 8.177869 0 0 1 5.291562 0 5.772613 5.772613 0 0 1 0 4.569986 48.10511 48.10511 0 0 1-4.810511 7.456292l-35.357255 50.991416c-3.607883 5.291562-4.569985 5.532088-9.621022 1.443153-14.431533-12.026277-29.103591-24.052555-43.77565-36.078832a5.772613 5.772613 0 0 1-1.202628-9.380496l38.484088-55.561402c0-1.202628 1.202628-2.645781 2.16473-3.126832a6.013139 6.013139 0 0 1 4.569985 0s4.569985-2.405255 5.291563-1.443154zM616.628614 1014.055712a24.052555 24.052555 0 0 1-3.126833-5.291562c-3.367358-15.874686-6.49419-31.749372-9.621022-48.10511l-2.164729-10.583124a4.569985 4.569985 0 0 1 3.607883-6.013139l68.549781-19.723095a6.253664 6.253664 0 0 1 5.532088 1.924205c1.443153 2.886307 0 4.569985-3.607884 5.291562-14.431533 4.088934-28.62254 8.418394-43.054073 12.266803-4.569985 1.202628-6.253664 3.607883-4.810511 8.177868s1.202628 6.013139 1.683679 9.139971 2.645781 5.051037 6.734715 4.088934q19.723095-6.253664 39.686716-11.545226s1.924204-1.202628 2.645781 0l5.291562 2.405256c0 1.683679-1.683679 4.088934-3.126832 4.569985s-10.342599 3.367358-15.634161 4.810511l-26.938861 7.696818c-4.32946 1.202628-6.253664 2.886307-5.051037 7.696817s2.16473 9.621022 3.126832 14.431533 2.405255 5.051037 6.49419 3.848409l42.573022-12.98838c2.645781 0 5.532088-1.443153 6.49419 2.16473s-1.924204 4.32946-4.569985 5.051037h-2.405256l-61.815066 18.039416zM849.457344 812.254777a48.10511 48.10511 0 0 1-3.607883 4.088934L814.340614 844.966251c-5.291562 4.810511-5.291562 4.810511 0 10.583124l24.052555 32.711475c3.607883 4.569985 4.569985 4.569985 8.65892 0l30.306219-28.141489s2.16473-2.405255 3.367358-2.886307 4.32946 0 4.810511 0a6.253664 6.253664 0 0 1 0 5.051037c-2.16473 2.645781-5.051037 4.810511-7.456292 7.215766l-44.256701 40.889343c-4.810511 4.569985-5.772613 4.32946-9.861548 0-11.785752-14.912584-24.052555-30.065694-35.357255-44.978277a5.291562 5.291562 0 0 1 0-8.418394l50.269839-46.421431a10.102073 10.102073 0 0 1 3.607883-2.645781c4.32946-0.962102 6.975241 0.721577 6.975241 4.32946zM436.234452 1010.207303c1.202628-1.443153 3.367358-2.886307 3.848409-4.810511 3.367358-14.912584 6.49419-29.825168 9.621022-44.737752 0-3.126832 0-4.569985-3.607883-5.772613s-2.645781-2.886307-4.088935-4.32946 3.367358-2.886307 5.051037-2.645781c11.304701 1.202628 22.849927 2.405255 34.154628 4.32946a6.253664 6.253664 0 0 1 4.32946 3.848409c0 2.886307-2.16473 3.607883-4.810511 3.126832s-5.291562 1.443153-6.013139 4.810511c-2.886307 14.191007-6.013139 28.62254-8.899445 42.813547 0 3.607883 0 6.013139 4.088934 6.734716s1.924204 2.645781 3.126832 4.088934-3.126832 3.126832-4.32946 3.126832c-12.026277 0-24.052555-2.645781-35.597781-4.569985-1.443153 0-2.645781-2.645781-3.848409-4.088935l5.051037-3.848408zM712.357782 185.204672a380.511417 380.511417 0 0 1 80.335533 28.62254c-7.937343 0-15.874686-1.924204-24.052555-2.405255s-11.785752 0-17.798891 0a7.696818 7.696818 0 0 1-5.051036-1.924204 128.440643 128.440643 0 0 0-33.433051-24.293081zM440.323387 919.288646l5.291562-24.052555 27.179387 3.848409-5.291562 22.849927z m24.052554-17.798891l-10.823649-1.443153-4.088935 17.79889 10.102073 1.202628zM421.321868 891.147157c-2.405255 10.102073-3.126832 11.064175-7.937343 11.3047v10.102073c-7.696818 0-8.177869 0-7.937343-7.696817s0-6.734715-6.013139-6.734716c0 1.443153-1.202628 2.886307-1.924204 4.569986a42.813548 42.813548 0 0 1-2.16473 5.532087l-8.177869-2.164729 8.177869-22.128351z m-11.3047 6.734715l2.645781-6.253664-9.861548-1.683679-2.16473 6.253664zM372.495182 875.994047l-5.772613 10.82365-17.077314-7.456292-5.532088 9.861547-7.937343-3.367358 11.304701-20.925722z m-9.139971 0l-9.139971-4.088934-3.367357 6.013138 9.13997 3.848409zM549.762511 900.527653l25.976759-2.886307v2.16473l-17.79889 2.645781v6.49419l17.317839-1.443153v2.16473l-17.79889 2.405255v8.418394l18.760992-1.924204a51.712993 51.712993 0 0 1-27.179387 5.291562zM611.096526 911.351303l18.039416-4.569986c0 3.126832-16.115212 8.177869-25.976759 8.899445 0-6.734715-2.405255-13.228905-3.126832-19.723094a3.848409 3.848409 0 0 1 2.405255-3.607884c7.456292-2.405255 15.15311-4.088934 22.849927-6.013138v1.443153A33.673577 33.673577 0 0 1 621.920176 889.944529l-6.734716 1.683679-6.975241 1.924204zM495.163212 922.896529h18.279941l2.16473-20.444672h8.65892l-2.405256 22.368876h-26.938861zM658.480059 877.918251l-8.899445 2.645781v-1.683678c7.937343-4.32946 16.596263-6.975241 24.052554-10.583125l1.202628 1.924205-8.418394 4.32946 5.772613 19.723095-7.696817 3.126832z" p-id="8328"></path><path d="M270.271824 951.759595l-3.607883-1.443154-16.115212-9.380496a5.291562 5.291562 0 0 1-1.924204-8.65892l24.052554-35.11673a6.013139 6.013139 0 0 1 8.65892-1.683679l15.15311 9.139971c4.569985 2.645781 5.051037 5.051037 2.16473 9.139971l-24.052555 34.395153a24.052555 24.052555 0 0 1-4.32946 3.607884zM219.520933 852.663069a56.764029 56.764029 0 0 1-4.810511 5.532087c-9.139971 8.418394-9.139971 8.418394-18.279941 0l-8.899446-8.418394a5.051037 5.051037 0 0 1 0-8.418394c11.785752-10.82365 10.342599-11.064175 20.925723 0 2.645781 2.645781 5.532088 4.810511 7.937343 7.456292a27.900964 27.900964 0 0 1 3.126832 3.848409zM528.596263 986.154748v-20.685197a6.253664 6.253664 0 0 1 6.253664-6.734715h16.355737a6.253664 6.253664 0 0 1 6.49419 4.810511 80.816584 80.816584 0 0 1-1.683679 46.661956 7.456292 7.456292 0 0 1-5.532087 4.088934 128.440643 128.440643 0 0 1-16.596263 0c-4.32946 0-6.49419-2.645781-6.49419-7.456292V986.154748zM151.933254 778.5812c0 3.126832-15.15311 11.545226-17.317839 10.102073a7.696818 7.696818 0 0 1-2.405256-2.405256c-3.848409-5.532088-7.456292-11.064175-11.545226-16.596262s-2.16473-5.772613 1.683679-7.696818a80.816584 80.816584 0 0 1 10.102073-5.291562 5.772613 5.772613 0 0 1 5.291562 0c4.810511 6.253664 9.139971 12.747854 13.469431 19.242044a4.810511 4.810511 0 0 1 0.721576 2.645781zM463.413839 901.489755l-3.848409 17.558365-10.102073-1.202628 4.088935-17.79889zM410.017168 897.881872l-9.380497-2.645781 2.16473-6.253664 9.861548 2.645781zM363.355211 875.031945l-3.367358 5.772613-9.13997-3.848409 3.367357-6.013139z" p-id="8329"></path></svg>