<?xml version="1.0" standalone="no"?><!DOCTYPE svg PUBLIC "-//W3C//DTD SVG 1.1//EN" "http://www.w3.org/Graphics/SVG/1.1/DTD/svg11.dtd"><svg t="1651276047862" class="icon" viewBox="0 0 1026 1024" version="1.1" xmlns="http://www.w3.org/2000/svg" p-id="8012" xmlns:xlink="http://www.w3.org/1999/xlink" width="200.390625" height="200"><defs><style type="text/css">@font-face { font-family: feedback-iconfont; src: url("//at.alicdn.com/t/font_1031158_u69w8yhxdu.woff2?t=1630033759944") format("woff2"), url("//at.alicdn.com/t/font_1031158_u69w8yhxdu.woff?t=1630033759944") format("woff"), url("//at.alicdn.com/t/font_1031158_u69w8yhxdu.ttf?t=1630033759944") format("truetype"); }
</style></defs><path d="M2.808403 1023.129395l56.168066-130.983928c8.649882-20.220504 17.917613-40.188251 25.612637-60.745763a24.23652 24.23652 0 0 0-1.825462-18.647798C-19.883495 647.617794-29.095058 477.428556 66.727662 308.475015c85.993308-151.653777 222.144699-229.278043 396.462289-239.472547 12.946739-0.758269 15.474302 3.903681 15.446218 15.839395q-0.505513 221.863858-0.196588 443.727716c0 18.900554 0 18.928638 19.377982 18.928638h440.919314c18.366957 0 18.366957 0 17.580604 18.703966a475.771598 475.771598 0 0 1-424.630574 454.680489c-112.167627 12.385058-216.836816-12.160386-311.732763-74.198014-11.514453-7.526521-20.389008-8.42521-32.998738-2.808403-59.81899 26.370907-120.143492 51.81504-184.147003 79.25314z m386.267786-658.205474c-22.045966 45.748889-50.129998 63.048653-87.453678 55.100872a71.445779 71.445779 0 0 1-55.971477-66.980418c-1.376118-38.812133 19.209478-62.149964 67.401678-76.416653C277.301739 252.756294 209.506884 261.743185 170.048818 300.49915c-49.427898 48.33262-55.522133 121.575778-14.042016 177.350666 38.840217 52.376721 112.336131 67.401678 171.312599 35.273545 51.421864-28.421041 81.190939-98.097526 61.756788-148.19944zM1026.078218 477.203883c-23.927596 0-45.355713 0.14042-66.755745 0-18.254621 0-36.509242-1.179529-54.707696-0.674016-10.363008 0.252756-13.733092-3.370084-14.266689-13.564588-3.48242-66.980418-23.393999-128.76529-63.104821-183.192145-62.543141-85.684384-146.795239-133.98892-252.756294-143.228567-29.909495-2.639899-24.545445-0.505513-24.770117-26.174319-0.308924-35.947562 0-71.895124 0-110.257912 118.45845 1.74121 223.071472 39.710822 311.732763 117.615929 107.252921 94.22193 160.809171 214.309253 164.628599 359.475618z" p-id="8013"></path><path d="M818.958477 476.557951c-19.658823 0-38.250453-0.14042-56.870166 0-9.660907 0-8.228622-6.852504-8.70605-12.637815-4.128353-50.888267-23.534419-94.895946-59.510065-131.236685s-80.179913-55.887225-130.843509-60.155998c-10.812353-0.926773-14.603697-3.959849-14.042016-14.912621 0.842521-16.85042 0.224672-33.476167 0.224672-50.07383 132.191542-9.380067 275.055016 115.004114 269.747134 269.016949z" p-id="8014"></path><path d="M681.599473 476.108606h-131.629861v-131.657945c72.091712-7.273764 138.650869 68.581208 131.629861 131.657945z" p-id="8015"></path></svg>