<?xml version="1.0" standalone="no"?><!DOCTYPE svg PUBLIC "-//W3C//DTD SVG 1.1//EN" "http://www.w3.org/Graphics/SVG/1.1/DTD/svg11.dtd"><svg t="1651275999201" class="icon" viewBox="0 0 1346 1024" version="1.1" xmlns="http://www.w3.org/2000/svg" p-id="4791" xmlns:xlink="http://www.w3.org/1999/xlink" width="262.890625" height="200"><defs><style type="text/css">@font-face { font-family: feedback-iconfont; src: url("//at.alicdn.com/t/font_1031158_u69w8yhxdu.woff2?t=1630033759944") format("woff2"), url("//at.alicdn.com/t/font_1031158_u69w8yhxdu.woff?t=1630033759944") format("woff"), url("//at.alicdn.com/t/font_1031158_u69w8yhxdu.ttf?t=1630033759944") format("truetype"); }
</style></defs><path d="M229.98753 0c243.036468 144.071567 686.418048 125.470557 886.857263 1.850691L1101.788326 25.094111c-5.144293 7.873277-10.10038 15.840658-15.432878 23.588465-50.533267 73.368908-118.224632 126.976203-193.19329 173.52578a1377.290301 1377.290301 0 0 0-130.0816 92.064021c-33.594742 26.631126-54.485589 64.397763-71.330011 103.513209-2.446676 5.677543-0.439147 16.060231 3.513175 21.204524 10.915938 14.272276 12.35885 27.948567 6.681307 44.887092-9.849439 29.548316-17.53451 59.818088-27.415316 94.259756-3.136764-8.37516-5.018822-12.327482-6.273528-16.468011-7.904645-27.10164-14.993732-54.422854-23.682568-81.242185-4.611043-14.272276-4.140528-26.474287 5.865749-37.829373 9.127983-10.382689 8.061483-20.420333 2.289838-32.873286-33.657477-72.741555-89.742816-123.149351-157.402814-163.111724-58.908426-34.818079-117.1895-70.828129-166.781737-118.851985C290.464339 90.966154 258.751656 48.996252 229.98753 0z" p-id="4792"></path><path d="M275.627445 510.445592c1.129235-18.099128 0.407779-36.606035 3.764117-54.328751 12.296115-64.931013 50.188223-110.194516 112.484354-131.148099 62.923484-21.173156 121.079087-7.873277 170.514487 36.762873s65.589734 120.984984 40.338784 186.323777a165.621135 165.621135 0 0 1-151.756639 105.175694c-32.183198 0.627353-62.139293-5.834381-90.056492-22.114186a54.893369 54.893369 0 0 0-65.872042 9.692601c-6.273528 6.77541-12.547056 12.829364-20.984951 5.363866-8.939777-8.030116-4.046425-17.283569 3.32497-22.741538 12.547056-9.410292 26.662493-16.907158 40.087843-25.25095-8.594733-13.01757-37.892108-16.938525-56.900897-6.587204A41.122975 41.122975 0 0 0 254.077877 595.985144c-7.371395 6.273528-15.68382 11.29235-22.804273 1.286074s0.53325-17.565878 8.531998-21.737774a232.308736 232.308736 0 0 1 34.504403-13.519453 80.144318 80.144318 0 0 1 16.656216-2.007529c-3.826852-18.287334-22.490597-27.352581-42.942298-21.957347a33.030124 33.030124 0 0 0-7.277292 2.823087c-7.96738 4.297367-17.158099 10.194483-22.929745-1.066499-6.273528-12.547056 4.171896-19.071525 13.519453-21.675039 14.178173-4.109161 29.203272-5.238396 44.291106-7.685072z m170.765428 116.279839c82.841935-1.160603 142.597288-62.515705 141.468053-145.294905-1.035132-76.693878-66.091616-139.899671-142.754126-138.7077a143.946096 143.946096 0 0 0-141.530788 145.451743 141.562156 141.562156 0 0 0 142.816861 138.550862zM1028.576256 596.549762c16.656216 9.818071 30.457978 16.87579 42.973666 25.752832 7.43413 5.238396 12.829364 14.397746 4.956087 22.929744-8.594733 9.410292-15.68382 1.913426-22.302392-4.673778a56.461751 56.461751 0 0 0-67.62863-9.03388c-68.412821 37.954843-158.061534 25.094111-207.873344-29.579684-46.455474-51.066517-58.908426-126.976203-30.740287-187.170703 30.740286-65.715204 90.683845-101.662519 164.052753-98.46302a167.40909 167.40909 0 0 1 159.190769 180.050249c-0.407779 5.081558-0.784191 10.163115-1.254706 16.028864 9.974909 0 18.820584-1.0665 27.321214 0.282309 9.096615 1.442911 19.008789 3.45044 26.317449 8.50063 4.799249 3.136764 5.614807 12.390217 8.218322 18.820583-6.430366 0.941029-14.178173 4.642411-19.040157 2.289838a48.055223 48.055223 0 0 0-42.377681-0.752823c-6.022587 2.666249-10.257218 9.410292-15.307408 14.115437l2.415309 4.077793c8.092851 0.972397 16.718952 0.501882 24.121714 3.136764a127.885865 127.885865 0 0 1 32.841918 16.969893c3.670014 2.760352 2.195735 12.35885 3.136764 18.820584-6.11669 0-14.303643 2.321205-18.036392-0.721456-16.34254-13.331247-34.504403-14.240908-53.324987-10.10038-6.11669 1.505647-11.480556 5.614807-17.659981 8.720204z m-126.631159 30.112933c79.830642 0 143.09917-61.135529 142.848229-138.017612-0.282309-82.026376-62.107926-145.796787-140.903435-145.389007-82.434156 0.439147-144.29114 61.229632-144.291141 141.62489s61.38647 141.781729 142.346347 141.781729zM823.400528 702.352809c36.606035 0.721456 69.197012 9.222086 94.102918 38.39399 20.514436 24.058979 23.870773 69.824365 8.218321 97.239682-23.023847 40.181946-60.790485 58.155603-102.195768 71.016335a226.599825 226.599825 0 0 1-39.742799 7.779174c-12.547056 1.505647-16.969893 7.30866-16.060231 19.66751 1.631117 22.867009 3.32497 45.859488 2.823087 68.726497 0 6.712675-7.151822 18.287334-11.888335 18.820584a32.340036 32.340036 0 0 1-23.619832-9.755336 51.662502 51.662502 0 0 1-11.951071-26.56839c-4.171896-29.391478-7.559601-58.939794-9.222086-88.550846a343.036502 343.036502 0 0 1 2.917191-56.085338 40.777931 40.777931 0 0 1 8.908409-21.204525c4.51694-5.144293 12.8921-10.163115 19.040157-9.56713 4.642411 0.407779 10.853203 9.410292 12.107909 15.276041a315.778024 315.778024 0 0 1 6.273528 49.435399c0.627353 12.8921 4.893352 17.346304 18.161863 16.060231 50.000017-4.861984 91.93855-40.777931 101.599783-88.237169 4.673778-23.149318 2.383941-45.451709-15.181937-62.735278-19.855716-19.479304-45.483077-19.479304-69.008806-11.104144a170.326281 170.326281 0 0 0-98.870799 88.080331c-4.51694 9.190718-10.602262 19.102892-22.45923 14.397746s-12.35885-16.091599-9.222086-26.97617c7.277292-26.129243 22.867009-45.388974 44.824357-61.794249a206.022654 206.022654 0 0 1 75.094128-36.606035c11.543291-2.854455 23.557097-3.85822 35.351329-5.70891zM227.572222 840.150848a94.824373 94.824373 0 0 0-15.683819-61.261A44.447945 44.447945 0 0 0 163.111724 759.786956q-21.957347 6.273528-22.521965 38.519461c-0.282309 14.680055-8.249689 25.627361-18.06776 24.84317-11.355085-0.909662-18.977422-12.013806-17.28357-25.50189 7.151822-56.86953 65.652469-77.760378 103.51321-52.666267a101.442945 101.442945 0 0 1 46.486841 79.297392c2.038897 33.87705-1.129235 67.973674-17.032628 98.964902-23.400259 45.514444-60.476808 68.444189-112.547089 69.636159-42.064004 0.972397-77.070289-11.480556-101.819357-45.514445C0.595985 915.401814-3.136764 877.729279 2.164367 839.837171c5.959851-42.001269 19.981186-81.336288 54.454222-109.253487 20.451701-16.530746 43.287342-29.705154 71.141805-26.505655 5.332499 0.627353 10.006277 6.994984 14.962364 10.696365-3.701381 3.795484-7.151822 10.476791-11.198247 10.884571-36.511932 3.481808-48.525738 30.897125-61.825617 58.939794-14.209541 29.956095-15.15057 62.264764-14.08407 93.099153 1.0665 29.548316 5.834381 61.731514 35.069021 81.555862 22.710171 15.495614 60.821852 16.907158 87.264772-4.485573 37.013814-29.830625 48.557105-69.824365 49.623605-114.617353zM394.197122 267.032712C361.919821 285.445517 326.223447 302.760453 294.008882 324.874639c-33.3438 22.772906-54.516957 56.900897-71.643688 93.695138-0.878294-88.456742 22.678803-172.804324 40.777931-257.214641zM1124.623967 417.409175c-33.87705-78.732774-97.239681-121.769175-175.313735-146.894655l135.225893-109.284855c17.220834 84.159376 42.377681 167.691399 40.087842 256.17951zM1275.00043 707.77941c8.814307 10.319953 16.279805 16.122967 19.79298 23.745303 11.449188 24.749067 10.884571 24.592229 38.205784 23.588465 4.422837 0 9.065248 5.144293 13.613556 7.936013-3.513176 4.454205-6.273528 10.10038-10.790468 13.048938-4.015058 2.572146-10.257218 1.380176-15.025099 3.136763-11.574659 4.360102-19.730245 10.194483-14.962364 25.627362 2.79172 9.127983 1.568382 19.66751 1.160603 29.548316-1.787955 44.165636-4.109161 88.331272-18.005025 130.74032-3.920955 12.013806-8.281057 28.920963-23.337524 27.289846s-11.888335-19.291098-12.107909-30.018831c-1.003764-50.188223-0.595985-100.156872-0.219573-150.250991 0-12.547056-0.407779-20.984951-17.53451-18.820584-7.089086 0.878294-15.244673-6.963616-22.929745-10.821835 7.496866-4.234631 14.648687-11.198247 22.521965-12.139277 13.613555-1.59975 19.416569-7.685072 20.357598-20.545803 0.501882-6.77541 0.470515-14.052702 3.136764-20.012554 2.979926-6.64994 8.720204-12.170644 16.122967-22.051451zM340.056576 925.345356c25.941038-28.230875 48.870782-44.604783 98.58849-9.159351 7.151822-13.927232 14.209541-27.63489 21.173157-41.342548 3.764117-7.465498 6.085322-16.248437 11.574659-21.957348 4.015058-4.234631 12.139276-4.548308 18.444171-6.618572 1.160603 5.520704 5.05019 12.547056 3.136764 16.34254-20.169392 40.056475-40.777931 79.862009-62.735278 119.197029-3.136764 5.457969-12.547056 10.884571-18.444172 10.414056-10.978674-0.846926-9.410292-11.480556-9.410292-19.91845 0-10.414056 1.223338-21.361362-1.505646-31.085331-2.070264-7.30866-9.127983-17.659981-14.805526-18.255966-6.273528-0.627353-16.436643 7.057719-19.479304 13.613556-5.520704 12.076541-7.716439 25.878302-10.131747 39.146813-3.293602 18.318701-7.340028 22.145553-25.094112 15.997496-8.845674-3.136764-18.820584-8.877042-23.745303-16.405275-16.750319-25.094111-31.744051-51.756605-30.42661-83.751597 0.250941-5.646175 0.439147-12.233379 3.356338-16.562113 3.98369-5.897116 10.319953-13.613555 16.060231-13.9586s14.021335 6.273528 17.40904 11.919703c7.590969 12.954835 12.766629 27.321214 19.102892 40.997505 1.850691 3.481808 4.203264 6.77541 6.932248 11.386453zM522.30256 919.260034c0-57.371412-0.345044-114.742824 0.250941-172.114236 0-12.390217-1.317441-27.603522 14.899629-32.590978 10.257218-3.136764 22.741538 8.155586 27.948566 26.913435 4.140528 14.930996 7.810542 30.897125 6.994984 46.141797-2.697617 51.913443-6.932248 103.76415-11.919703 155.520755a109.786737 109.786737 0 0 1-12.107909 36.919711c-2.603514 5.238396-10.821836 9.786703-16.813055 10.288586-2.948558 0.219573-8.971145-9.410292-9.629865-14.899629-2.289838-18.60101-2.79172-37.390226-3.952322-56.116706zM986.857296 993.068089c-36.355094 2.446676-63.676308-35.100388-63.864513-65.872043a71.455482 71.455482 0 0 1 68.412821-73.055231 44.792989 44.792989 0 0 0 15.307408-2.227103c23.11795-10.131747 37.641167-6.493101 48.117958 16.185702 15.213305 32.747815 19.291098 66.96991-2.446676 98.306181-13.174408 19.040157-33.939786 27.948567-65.526998 26.662494z m53.54456-80.081583c-2.979926-18.820584 1.223338-38.707667-17.189466-41.028872-13.676291-1.72522-35.131756 3.32497-41.813063 13.080305a73.274805 73.274805 0 0 0-10.570894 59.880824c3.826852 14.052702 12.547056 24.592229 28.011301 26.003772 14.397746 1.348808 26.191979-5.332499 31.210801-18.820583 5.081558-13.895864 7.747807-28.82686 10.351321-39.115446zM1191.405671 873.965163c-7.716439-3.136764-15.307408-7.873277-23.212053-8.37516-5.332499-0.376412-14.523217 4.391469-15.683819 8.688836a21.706406 21.706406 0 0 0 5.426601 18.820584c8.406527 7.402763 19.228363 12.045173 29.171905 17.65998 4.046425 2.289838 8.626101 3.732749 12.547055 6.273528 13.55082 8.814307 23.243421 20.577171 19.447937 37.641167A42.283578 42.283578 0 0 1 1188.833525 987.139605c-28.70139 9.253454-57.120471 10.727733-85.131773-1.631117-4.893352-2.164367-10.915938-6.744042-12.013806-11.260983-1.348808-5.520704 1.944794-12.170644 3.136764-18.350069 5.457969 1.537014 13.268511 1.348808 15.903393 4.956087 8.531998 11.731497 19.949819 14.491849 32.904654 13.989967 10.696365-0.407779 19.071525-4.548308 21.612303-16.499378 2.352573-11.041409 2.132999-20.388965-10.319953-25.595993a224.560929 224.560929 0 0 1-20.514436-10.821836 105.395268 105.395268 0 0 1-12.107909-7.089086c-23.6512-17.659981-22.710171-41.311181 1.537014-57.904662a71.925997 71.925997 0 0 1 62.421602-10.319954 34.504403 34.504403 0 0 1 18.255966 15.181938c1.474279 2.603514-6.555837 10.664997-10.288585 16.217069z" p-id="4793"></path><path d="M416.781822 571.110606c19.855716-27.133008 21.957347-48.525738 7.559601-67.879571-14.868261-19.824348-36.104153-23.588465-66.154351-11.700129-8.720204-29.140537 11.919703-69.008806 45.04393-87.264772 37.484329-20.577171 86.731522-12.547056 114.868294 18.820583a93.412829 93.412829 0 0 1 5.489337 117.1895c-24.435391 33.437903-70.043938 46.988723-106.806811 30.834389z m79.015083-111.888368a23.870773 23.870773 0 1 0-47.741547 0.439146 24.18445 24.18445 0 0 0 23.996244 23.745303 24.874538 24.874538 0 0 0 23.745303-24.184449zM992.628942 492.471935c-34.065256-11.072777-53.324987-7.998748-67.409057 11.574659-17.503143 24.435391-10.978674 47.051459 7.810542 67.879571-34.002521 15.997496-77.823113 4.579675-103.732782-26.286082a92.440433 92.440433 0 0 1-4.328735-113.33128 94.291123 94.291123 0 0 1 110.539561-31.838154c37.86074 14.711423 61.762882 52.729001 57.120471 92.001286z m-115.119236-8.218321a23.933509 23.933509 0 0 0 23.808038-23.870774 23.839406 23.839406 0 1 0-47.647444 0 23.745303 23.745303 0 0 0 23.839406 23.964877z" p-id="4794"></path></svg>