<?xml version="1.0" standalone="no"?><!DOCTYPE svg PUBLIC "-//W3C//DTD SVG 1.1//EN" "http://www.w3.org/Graphics/SVG/1.1/DTD/svg11.dtd"><svg t="1651276003474" class="icon" viewBox="0 0 1024 1024" version="1.1" xmlns="http://www.w3.org/2000/svg" p-id="5142" xmlns:xlink="http://www.w3.org/1999/xlink" width="200" height="200"><defs><style type="text/css">@font-face { font-family: feedback-iconfont; src: url("//at.alicdn.com/t/font_1031158_u69w8yhxdu.woff2?t=1630033759944") format("woff2"), url("//at.alicdn.com/t/font_1031158_u69w8yhxdu.woff?t=1630033759944") format("woff"), url("//at.alicdn.com/t/font_1031158_u69w8yhxdu.ttf?t=1630033759944") format("truetype"); }
</style></defs><path d="M590.319431 198.574249l108.196065-120.532304 10.086689 5.297326c2.176983 69.808595-19.302584 134.247298-50.796275 196.363885l-12.191106 18.939754c1.959285-15.09375 3.628305-30.1875 5.950421-45.208684 4.789363-29.969802 9.941557-59.939604 14.513221-89.909407h-4.789363l-92.158956 162.54808 35.194562 40.709586 37.952074-53.263523-0.943359-1.233624c-12.771635 36.283053-0.725661 61.028096 28.010517 85.990837 43.539664 37.952074 82.797928 81.056341 123.362382 122.781853 24.890175 25.833534 21.769832 37.589243-13.497296 45.281251Q679.866007 588.036545 580.45044 607.629394c-10.449519 2.031851-23.003456-4.934495-32.872446-2.031851-61.753757 17.996395-123.362382 37.734376-184.53561 56.819261l-11.247747-15.456581L382.780365 602.549766c38.967999-26.414063 43.539664-46.442308 9.070763-67.559045-62.697116-38.460037-89.83684-139.109227-63.277645-212.981524 22.132663-61.028096 48.256461-120.60487 72.566107-180.834739l22.713191-38.169772v21.116737l21.189304-27.357422c-15.311449 62.551984-31.13086 125.031402-45.498949 187.873651a258.480473 258.480473 0 0 0-2.684946 45.208684L451.863299 312.285338c0-5.515024-0.653095-15.09375 0-24.59991 4.644231-58.052886 10.231821-116.6863 14.513221-175.102016 1.015925-14.513221-2.684946-29.026443-22.422927-14.513221l28.228216-59.794472c8.780499 7.982272 24.59991 15.456581 25.253005 23.946815 3.192909 46.514875 2.757512 93.247447 3.265475 139.98002a324.297932 324.297932 0 0 0 8.707932 85.337742l56.456432-66.615686z m-102.318211 281.556495c8.490235-39.185698-8.562801-50.796275-29.026443-60.157303a17.3433 17.3433 0 0 0-15.674279 2.467248 15.311449 15.311449 0 0 0-1.233624 15.166316c12.336238 13.061899 26.84946 24.817609 45.934346 42.523739zM623.482141 395.518663l-36.71845 88.966047c43.902495-24.309646 39.838793-56.093601 36.71845-88.966047z" p-id="5143"></path><path d="M645.759936 298.64291l12.191106-18.939754c11.030048 1.161058 26.051232-1.886719 32.364484 4.136269 67.486479 64.003306 134.682694 128.369443 199.774492 194.76743 63.713042 65.309496 33.380409 145.930441-62.116587 167.627707-88.240386 19.955679-176.843603 38.314904-265.301687 57.182093q-150.502106 32.074219-301.004212 63.858174c-129.603067 27.502555-183.156854-30.622897-145.132213-156.597659C168.782916 438.768063 220.014587 266.641257 272.262184 94.587018a205.507215 205.507215 0 0 1 25.54327-59.213944c35.920223-50.796275 117.847358-46.152044 145.930441 9.215896 4.934495 9.578726-12.11854 30.332633-19.084886 45.934346-55.295373-33.960938-87.950122-22.350361-105.656252 38.242338Q246.42865 377.594835 174.29794 626.206317c-18.722056 64.946666 13.352164 103.914665 79.822717 94.335939 52.537861-7.256611 104.422628-19.592849 156.525093-30.260067C540.75678 663.505296 670.940375 636.946101 800.978839 609.806377c57.109526-12.045974 77.137772-61.898889 38.822867-101.59255-64.583835-66.905951-132.142881-130.618992-198.468302-195.928489l0.943359 1.015926zM267.763085 849.27453h104.422628c-5.22476 20.536208-9.796424 38.822867-14.513221 56.964393-15.166316 57.399791-15.166316 57.399791-73.291768 63.132513-16.327374 17.778696-2.61238 71.042219-56.528997 49.635218 12.989333-55.585638 25.978666-110.735879 39.911358-169.732124z m58.705981 30.332632l-16.182242-6.240685-19.157452 61.536059 16.907903 5.58759zM914.327098 845.210828c30.260067 13.860126 71.042219-22.277795 88.312952 24.59991 5.442458 14.513221-1.30619 42.378606-12.771635 52.537861s-35.775091 6.095553-54.497146 14.513222l51.44937 3.192908c-5.660156 31.058294-23.874249 35.267128-103.551835 24.454778zM496.273756 953.334327c-7.256611 4.426533-15.021184 12.408804-22.713191 12.771635-34.759165 1.378756-69.51833 0.580529-108.849161 0.580529 9.723858-36.283053 16.327374-70.316558 28.591046-102.100513 3.91857-10.304387 22.640625-14.513221 34.614033-21.769832l7.256611 8.490235q-10.231821 41.94321-20.31851 83.958985l11.610577 3.410607a583.213801 583.213801 0 0 0 18.214093-60.375001c5.297326-27.139724 17.923828-37.589243 47.458234-26.196364-6.603516 26.414063-13.207031 52.75556-19.157452 76.339544l22.713191 26.268931zM118.784868 779.683633c-13.642428 50.796275-27.284856 101.59255-40.564454 151.227767l48.47416 23.148588-3.483174 10.159255H19.006471c15.891977-58.052886 29.389273-115.670374 48.691858-171.183446 4.063702-11.683143 29.606972-15.964544 45.208684-23.583985zM166.823631 937.006953l50.14318 2.322115c2.104417 3.773438 4.571665 6.313251 4.063702 7.619441-15.238882 40.63702-49.054688 12.263672-73.727165 17.488432-3.991136 0.870793-19.665415-24.672476-19.375151-37.661809 0.580529-21.044171 9.070763-42.160908 15.746846-62.697117 9.433594-29.026443 34.686599-16.03711 52.537861-15.601713 13.860126 0 36.283053 8.272536 39.113132 17.70613 4.644231 14.513221-2.176983 34.178636-8.054838 50.14318-1.596454 4.426533-16.907903 4.136268-26.051233 5.587591-11.683143 1.814153-23.511419 3.265475-35.267128 4.861929z" p-id="5144"></path><path d="M495.693227 954.350252L570.508883 926.484867l-57.327224-7.25661c9.288462-75.105921 21.769832-82.797928 114.872147-60.447567a161.024191 161.024191 0 0 1-29.679538 14.513221 223.285911 223.285911 0 0 1-36.936148 3.846004c1.451322 7.692007 1.451322 11.610577 2.394682 11.900841 23.003456 6.603516 42.015776 15.529147 39.621094 45.208685-2.684946 34.976864-26.631761 34.831731-50.796275 31.638822a565.217407 565.217407 0 0 1-56.093601-13.061899zM775.870966 849.855058h36.936148v65.309497c30.622897-16.835337 18.359225-79.822718 78.806792-64.583836-19.302584 37.008715-34.178636 74.162561-57.182092 105.438554-8.780499 12.045974-36.283053 10.449519-58.560848 16.037109zM618.329948 963.058185c15.964544-60.810398 31.929087-121.620795 48.256461-183.664816 29.026443 14.077825 38.895433 32.364484 27.284856 63.640475a630.381771 630.381771 0 0 0-24.890175 93.75541c-5.950421 29.244141-20.753907 37.589243-50.651142 26.268931zM590.319431 198.574249l-24.527345 22.277795c-48.111329-12.626503-65.309496-46.805139-50.288312-116.105771 27.575121 34.614033 51.231671 64.221005 74.815657 93.827976zM684.727936 961.897127c6.821214-25.54327 15.674279-50.796275 20.100811-76.702375 4.861929-29.026443 20.536208-31.421124 45.86178-23.221154-7.256611 29.026443-12.771635 59.068811-23.729117 86.571366-4.2814 10.81235-21.769832 16.39994-32.945013 24.309646zM713.464114 830.915305l49.127254-32.945013c0.653095 42.959135-12.11854 54.06175-40.564453 45.136118zM382.780365 602.549766c-11.320313 13.78756-19.955679 32.79988-34.541467 40.201623A468.486786 468.486786 0 0 1 258.474624 674.680476a72.566107 72.566107 0 0 1-40.709586-3.192908c-3.483173-1.233624-3.338041-20.391076-0.653095-30.114935q70.098859-252.602618 141.794173-504.914972c2.830078-9.941557 12.771635-17.923828 19.447716-26.776893l23.221155 31.49369c-24.382212 60.229869-50.796275 119.806643-72.566107 180.834739-26.776893 73.872297 0.580529 174.158657 63.277645 212.908957 34.10607 21.116737 29.461839 41.144983-9.50616 67.631612z" p-id="5145"></path></svg>