<?xml version="1.0" standalone="no"?><!DOCTYPE svg PUBLIC "-//W3C//DTD SVG 1.1//EN" "http://www.w3.org/Graphics/SVG/1.1/DTD/svg11.dtd"><svg t="1651276006030" class="icon" viewBox="0 0 1246 1024" version="1.1" xmlns="http://www.w3.org/2000/svg" p-id="5300" xmlns:xlink="http://www.w3.org/1999/xlink" width="243.359375" height="200"><defs><style type="text/css">@font-face { font-family: feedback-iconfont; src: url("//at.alicdn.com/t/font_1031158_u69w8yhxdu.woff2?t=1630033759944") format("woff2"), url("//at.alicdn.com/t/font_1031158_u69w8yhxdu.woff?t=1630033759944") format("woff"), url("//at.alicdn.com/t/font_1031158_u69w8yhxdu.ttf?t=1630033759944") format("truetype"); }
</style></defs><path d="M966.766456 17.313153c-2.049877 17.437808-0.498619 35.595842-12.049954 51.343886l5.30475 1.980625-15.761894 19.612339C951.75249 95.568604 959.17637 100.984158 966.766456 106.233506c8.684277 6.080379 9.861572 8.157958 6.038828 17.825622-10.720304 27.05007-21.440609 54.017037-27.57639 82.618366-3.310275 15.346379-6.426642 30.734309-9.54301 46.108388-0.443217 2.174532-0.457067 4.446018-0.692526 6.828308 1.260398 0.069253 2.049877 0.373964 2.548496 0.124655 29.792473-15.512585 59.460292-11.232774 88.975755 0.706376 28.144261 11.385129 52.313423 29.18305 75.803909 47.964359 11.011165 8.795082 21.662217 18.005679 32.728784 26.717657a45.291208 45.291208 0 0 0 11.994552 6.675952c2.146831 0.78948 5.941874 0.304711 7.437731-1.163444a8.310313 8.310313 0 0 0 1.301949-7.42388c-3.891997-8.864334-8.462669-17.410107-12.797883-26.080533-2.465393-4.944636-5.387853-9.695366-7.285374-14.903162-3.324125-9.099793 1.495856-15.000116 10.969613-12.950238a53.892382 53.892382 0 0 1 17.188499 6.925261A206.774447 206.774447 0 0 1 1241.006798 373.964102c11.786794 24.93094 4.321363 47.091776-18.961365 62.32735-17.645565 11.482083-37.313307 18.82286-57.562771 23.171924-42.16099 9.044391-70.513009 66.260899-60.817643 105.139315 3.199471 12.825584 9.390654 23.545888 20.443371 31.856201 12.839434 9.695366 24.792435 20.568026 36.662332 31.440686a66.579461 66.579461 0 0 1 11.454382 14.681553c11.246624 18.656654 7.908648 36.85624-11.080418 47.534993a159.779625 159.779625 0 0 1-43.061274 16.19126c-46.246894 10.360191-93.144762 11.495934-139.419357 1.260398-22.590202-5.000039-44.169316-14.653853-66.094692-22.520949-9.986227-3.573435-19.764695-7.728591-29.501613-11.966852-3.878146-1.689764-6.509745-1.634362-9.695366 1.57896-32.742635 32.770336-69.47422 60.762241-106.649021 88.172425-4.335213 3.18562-5.540209 5.540209-2.770105 10.526397 13.157996 23.268877 28.864488 44.487878 48.324473 62.909072 3.822744 3.628837 7.43773 4.889234 12.396217 2.770105q42.839665-18.5597 85.762434-36.925493c3.836595-1.634362 5.30475-4.044353 5.2909-8.49037q0-25.928178 1.052639-51.828654c0.083103-1.994475 3.324125-4.667626 5.664864-5.623312 23.213475-9.55686 47.631946-10.457144 72.188922-8.878185 47.091776 3.033264 90.499313 19.210674 132.674153 39.183127 9.792319 4.639925 19.293778 9.903123 28.739834 15.235575a51.343886 51.343886 0 0 1 9.875422 7.506983c4.155157 3.836595 3.947399 7.659339-1.301949 10.512546-10.955763 5.941874-22.036181 11.648289-32.89499 17.75637-8.22721 4.639925-16.205111 9.695366-24.293816 14.640002-4.265961 2.590048-4.903085 5.623312-2.770105 10.415593q13.130295 29.390808 25.318755 59.183282c1.163444 2.880909 1.163444 8.157958-0.609423 9.792319s-7.105318 1.786717-9.972376 0.52632c-13.324202-5.803369-26.315992-12.46547-39.473989-18.531999-29.792473-13.753569-60.526782-23.698244-93.768036-24.418471-6.828307-0.138505-9.598412 1.745166-9.778468 8.642726-0.207758 8.310313-2.036027 16.620627-1.731316 24.847837 0.346263 9.335252-4.806131 15.041667-11.509784 19.002917-27.243977 16.094307-54.183243 32.714934-82.369056 46.911719-35.637394 17.908725-74.280351 28.11656-113.034112 36.634631-87.756909 19.293778-176.372551 25.512662-265.45911 10.512546-72.175072-12.160759-138.15896-39.861803-196.677417-84.169624a302.481556 302.481556 0 0 1-26.994668-23.739795 17.576313 17.576313 0 0 1-4.529121-10.180134c-1.080341-10.221685-1.301949-20.526474-1.85597-30.581953-34.224641-2.451542-65.886935 4.044353-96.413485 16.357467-17.119246 6.925261-33.712171 15.083219-50.776015 22.160836-3.296424 1.385052-8.504221 1.565109-11.343578-0.166207-4.446018-2.770104-1.675913-7.42388 0-11.177371 8.822783-19.058319 17.548612-38.158189 26.662255-57.091853 2.229934-4.626074 1.980625-7.853246-2.354588-10.540248q-20.000154-12.368516-40.069561-24.626228c-5.540209-3.365677-11.232774-6.398941-16.800684-9.695366-4.944636-2.894759-4.667626-6.509745-0.914134-10.08318a36.523827 36.523827 0 0 1 7.659338-5.886472c50.485154-27.008518 103.034035-48.25522 160.94307-51.246932 19.390731-1.011088 39.058473 1.883671 58.490755 3.98895 6.925261 0.761779 13.850522 3.808894 19.958603 7.229973 2.603898 1.385052 4.279811 6.482044 4.487569 9.986226 0.734078 13.130295 1.038789 26.315992 0.78948 39.446288-0.110804 6.011127 1.662063 9.695366 6.814457 12.977939a501.568964 501.568964 0 0 0 79.959065 41.10835c6.149632 2.493094 10.512546 1.939073 15.457183-2.770104 19.072169-18.171885 34.376996-39.113875 47.438039-61.884134 2.409991-4.155157 2.202233-6.565148-1.966774-9.612262-38.102787-27.701045-75.513048-56.330074-108.823554-89.862189-2.936311-2.950161-5.221647-2.160681-8.545772-0.886433-27.32708 10.484845-54.252496 22.382444-82.258252 30.609654-37.562616 11.011165-76.468734 12.271563-115.305598 7.506983a491.845897 491.845897 0 0 1-51.662449-9.349103c-13.753569-3.213321-26.689956-8.892035-36.759286-19.62619-9.196747-9.82002-12.133058-21.302103-5.983425-33.075047a113.089515 113.089515 0 0 1 19.307628-26.606853A266.830312 266.830312 0 0 1 122.313962 596.957511a51.662448 51.662448 0 0 0 21.592965-38.656808c3.019414-36.925492-10.983464-66.801069-40.540479-88.975755C98.186353 465.377549 91.413447 463.53543 85.097609 461.222392c-15.38793-5.540209-31.246778-10.055479-46.205342-16.620626A93.117061 93.117061 0 0 1 13.850522 427.870335c-13.241099-12.146908-16.70373-27.825699-11.482083-45.000347a89.599029 89.599029 0 0 1 7.825545-18.421195c16.274364-28.36587 37.077848-52.936696 63.712403-72.022716a103.227943 103.227943 0 0 1 23.906001-12.119207c3.351826-1.260398 9.598412-0.304711 11.703692 2.11913s1.648212 8.171808 0.609423 12.008403c-1.385052 4.792281-4.321363 9.127494-6.662101 13.628914-3.518033 6.759055-7.285375 13.393455-10.540248 20.263314-1.994475 4.155157-5.900322 9.82002-0.52632 12.922537 3.130218 1.800568 9.875422 0.609423 13.171847-1.772867 12.714779-9.155195 24.709332-19.307628 36.939343-29.086096 24.363069-19.570788 49.418664-38.047385 78.684817-49.861881 22.479398-9.058242 45.595919-13.559661 69.654277-7.313075 6.398941 1.662063 12.46547 4.542971 19.875499 7.285374a59.557246 59.557246 0 0 0-0.80333-8.836633q-12.46547-50.028087-25.110997-100.000771c-2.257635-8.947437-4.819982-17.811772-7.022215-26.759209-2.13298-8.698128 0.360114-15.664941 7.603937-21.343655 26.662255-20.886588 55.568295-38.088936 85.942491-52.908995 12.160759-5.928024 22.160836-1.703614 27.31323 10.997315 4.418317 10.914212 8.975138 21.759171 13.573512 32.590279 4.459868 10.526397 8.919736 12.382367 19.293777 8.199509 13.25495-5.360152 26.482199-10.831108 39.7787-16.108158 4.584523-1.800568 5.651013-3.947399 4.639925-9.321401-1.495856-7.96405-0.484768-16.385168-1.121892-24.570827a54.210944 54.210944 0 0 0-2.977862-13.157996c-6.592849-19.390731-4.030502-24.293816 15.983502-27.894952C579.796714-5.263198 671.584125-3.17177 763.163779 14.59845c13.351903 2.590048 18.005679 9.944675 14.155233 23.144223-2.673151 9.2937-6.412792 18.282689-9.515309 27.451735-3.504182 10.33249-2.770104 13.725868 6.925262 18.393494 14.085981 6.814457 28.504375 13.061043 43.088974 18.753607 8.919736 3.476481 16.426719-0.346263 20.166361-9.390654Q845.532835 74.79282 852.222637 56.163868c5.02774-14.05828 10.900361-17.036142 23.822898-9.584562 13.767419 7.9502 26.966967 16.883787 40.166515 25.789673 4.598373 3.116368 7.188421 2.188383 11.080418-1.385052 13.157996-11.745243 22.714857-25.914327 30.041783-41.89783 2.036027-4.418317 4.833832-8.49037 7.271524-12.71478zM404.199792 521.333659c-6.509745 1.385052-6.412792-3.282574-6.828307-7.479282q-9.55686-96.330383-19.058319-192.688466c-0.26316-2.576197-0.886433-5.110843-1.385052-7.770143-7.299225 1.772867-5.84492 6.717503-5.401704 10.87266q10.457144 98.684971 21.094346 197.356092a44.764888 44.764888 0 0 0 1.537407 5.81722l9.861572-6.288138c2.64545-0.650975 5.332451-1.163444 7.922499-1.994475 16.856086-5.387853 33.379759-12.313114 50.609809-15.997353 51.246932-10.941913 98.781925 0.26316 143.145148 26.980817 3.642687 2.188383 6.925261 4.903085 10.443293 7.382329l1.385053-1.828269c-6.260436-4.695327-12.105356-10.166283-18.864412-13.961327-59.40489-33.310506-120.222534-36.620781-182.286724-7.673189a131.746168 131.746168 0 0 0-12.174609 7.271524z m440.044944-34.196939c-2.243785-65.886935-4.459868-130.693528-6.703653-196.081844L808.870502 306.096543c1.648212 1.204995 2.92246 2.105279 5.207796 3.753491-11.343578 5.2909-21.551413 9.695366-33.324356 9.169046-2.243785-0.096954-5.761817 0.955686-6.62055 2.562347-5.706415 10.789557-9.944675 22.451697-16.482121 32.673382-4.529121 7.091467-11.953001 12.340815-18.005679 18.407344l-1.385053-1.385052c1.108042-2.493094 2.105279-5.04159 3.351827-7.465432 7.451581-14.335291 15.041667-28.587478 22.396294-42.936619 1.911372-3.72579 4.155157-7.077617 1.952924-12.20231a98.878879 98.878879 0 0 1-6.925261-23.698244c-1.135743-7.382328-0.235459-15.083219-0.235459-22.520949-19.390731-3.72579-77.853786 14.32144-94.045046 29.70937 4.50142 2.409991 8.310313 5.346302 12.576274 6.509746 5.678714 1.537408 6.011127 3.43493 3.074816 8.130256-2.229934 3.587285-3.18562 7.96405-4.639925 12.008403-0.78948 2.216084-1.385052 4.487569-2.160682 6.731354-2.13298-1.385052-4.861533-2.354589-6.315838-4.279811-4.404466-5.761817-9.473757-9.265999-17.133096-7.922499-1.703614 0.304711-3.614986-0.650975-5.429405-1.038789a39.044622 39.044622 0 0 1 3.254873-4.626075c2.853208-3.074816 5.872621-5.983426 8.836633-8.961288-1.85597-1.288099-2.38229-1.385052-2.770104-1.260397-1.011088 0.554021-1.952924 1.218846-2.92246 1.85597-13.615063 8.919736-22.340892 21.980779-28.975293 36.288368a45.277357 45.277357 0 0 0-3.43493 19.252226c0.304711 15.9004 1.675913 31.856201 2.548497 47.687348a37.39641 37.39641 0 0 1-0.290861 4.806132c-2.243785-10.512546-2.479243-21.025093-3.559585-31.440686-1.385052-13.642764-0.54017-26.994668-8.462669-40.263468-27.230127-45.706724-65.789981-72.022716-119.045239-75.942414-6.191183-0.457067-12.46547 0-18.656653 0l-0.24931 1.772867 7.202272 3.476481c-2.770104 7.299225-5.180095 13.850522-7.756293 20.360268-0.360114 0.886433-1.897522 2.216084-2.243784 2.049877-1.301949-0.650975-3.144069-1.703614-3.337976-2.839357-1.385052-7.590086-6.052678-9.695366-13.019491-9.072092-1.246547 0.110804-3.684239-1.288099-3.725791-2.077578a7.742442 7.742442 0 0 1 2.036027-4.390616 73.407768 73.407768 0 0 1 4.986188-5.429405l-1.108042-1.648212a36.953193 36.953193 0 0 0-6.495895 1.05264c-8.698128 3.060965-17.50706 5.872621-25.900476 9.598412-11.537485 5.124693-11.232774 5.429405-10.59565 18.171885l8.310314 168.699362c0.512469 10.498696 0.914134 20.997392 1.385052 32.327119 8.905886-2.631599 16.620627-4.695327 24.279965-7.229973 55.16663-18.435045 107.424651-12.46547 156.233892 19.279927 9.127494 5.941874 16.620627 14.418394 24.93094 21.842274-2.022176-35.249579-4.155157-71.357891-6.163482-107.466203l2.091428-0.096953c2.326888 38.781462 4.667626 77.632177 7.105318 118.172656 27.31323-33.241254 61.704077-49.764927 100.333184-58.435354s76.967352-6.731354 114.696175 9.321402z m300.70869-199.613728l-1.385053 1.675914c1.772867 3.601136 3.808894 7.105318 5.263199 10.831108 4.487569 11.537485 10.207835 22.867212 12.714779 34.847914 2.964012 14.169084-6.509745 21.038943-19.473834 14.723105-8.601174-4.155157-16.315915-10.33249-24.058357-16.094307-20.706531-15.429482-40.748237-31.856201-61.953387-46.523904-18.476597-12.825584-38.906117-22.160836-61.385514-26.066683-18.005679-3.102517-35.457337-2.11913-51.759402 7.077617s-16.994591 21.399057-1.274248 31.03902a225.444951 225.444951 0 0 0 31.579191 15.512585c24.93094 10.34634 50.679061 18.878262 74.959026 30.471149 14.930863 7.174571 28.268916 18.074932 41.260706 28.62903 5.346302 4.349064 8.75353 11.814496 11.454382 18.504298 2.950161 7.299225 1.274248 14.653853-5.05544 20.138659s-13.407306 4.432167-20.069407 0.927985-12.811733-7.396179-18.975216-11.39898c-25.097146-16.45442-52.133366-27.784148-82.230551-30.651206-20.471072-1.952924-40.166515 0.886433-57.881332 12.146909-25.055595 15.941951-32.063959 42.327196-17.036143 67.784456a108.518842 108.518842 0 0 0 20.775784 24.750883c22.770259 20.540325 49.349411 33.061197 80.457684 34.487801 18.144184 0.817181 33.892228-13.850522 33.102748-30.692758-1.274248-27.243977-38.088936-48.213668-62.32735-35.498889-11.745243 6.163482-12.756331 12.576274-3.988951 22.396295 1.509707 1.689764 1.537408 4.695327 2.257635 7.091467-2.770104 0-6.024977 0.997238-8.047153-0.193907-9.80617-5.775668-11.648289-18.628952-4.155157-27.631792 6.592849-7.880947 15.443332-11.218923 25.554214-12.063805 16.302065-1.385052 29.69552 6.468194 42.659609 14.196786 24.93094 14.86161 24.40462 50.457453-0.443217 65.568372-2.077578 1.260398-4.155157 2.548496-6.329689 3.933548 1.952924 3.573435 3.670388 6.315838 5.000039 9.238299a61.080803 61.080803 0 0 1 3.614986 9.695365c2.285336 8.864334-0.900284 15.443332-9.27985 19.141422a39.307782 39.307782 0 0 1-9.252149 2.770105c-12.46547 2.11913-25.097146 3.795043-37.590317 6.052678a63.809356 63.809356 0 0 0-15.138621 4.612224c-5.997276 2.770104-6.786756 6.925261-1.994475 11.385129a44.570981 44.570981 0 0 0 13.712017 8.975139c10.33249 3.919698 21.149748 6.551297 31.648443 10.055479 30.471149 10.138582 60.942298 19.986304 91.094885 30.886665 13.850522 5.000039 23.919852 14.917013 26.939266 30.152587a26.149786 26.149786 0 0 1-0.360114 10.817258c-0.346263 1.482006-3.254873 2.354589-5.013889 3.504182-0.470918-1.745166-1.551258-3.573435-1.385052-5.221647 2.105279-14.515347-10.748005-30.138737-24.307666-30.623505 0 6.038828 0.401665 12.091506-0.083104 18.005679-1.288099 15.969652-8.310313 24.279966-24.210713 27.465586a170.361424 170.361424 0 0 1-27.437884 3.116367 366.831083 366.831083 0 0 1-134.142309-19.820097c-2.770104-0.927985-5.540209-1.606661-8.988989-2.603898 0.581722 1.454305 0.623274 2.049877 0.927985 2.243784a48.476828 48.476828 0 0 0 5.928024 3.531883c29.349257 13.157996 59.557246 24.196862 91.053333 30.471149 33.836826 6.800606 67.950662 5.387853 101.967546 0.77563 20.651129-2.770104 41.149902-6.398941 59.778854-16.357467 19.487685-10.415593 22.784109-25.623466 9.695365-43.407537a72.022716 72.022716 0 0 0-11.163521-12.230011c-8.961288-7.617787-18.144184-15.000116-27.617941-21.953078a68.781694 68.781694 0 0 1-27.424034-41.842428c-9.986227-44.709486 28.753684-108.227981 66.108543-114.779278a83.421696 83.421696 0 0 0 19.127571-6.024977c13.448857-5.914173 27.548689-11.080418 39.695597-19.07217 17.645565-11.634439 22.27164-28.989143 13.2688-47.978209a199.669129 199.669129 0 0 0-77.355167-86.482661c-3.351826-1.925223-7.340777-2.936311-11.025015-4.418317zM159.973533 638.952295c-17.410107 4.806131-25.388007 15.443332-24.363069 32.202464 0.096954 1.565109-1.385052 3.241022-2.216084 4.861533-1.606661-1.05264-4.473719-1.966774-4.584523-3.157919-0.470918-4.930786-1.080341-10.180134 0.124655-14.84776 3.698089-14.446095 14.487646-22.964166 27.534838-28.10271 18.213437-7.202272 36.759286-13.670466 55.40209-19.736994 21.939227-7.14687 44.197017-13.310352 66.150094-20.387969a38.324395 38.324395 0 0 0 12.71478-7.908648c6.121931-5.387853 5.429405-10.249386-2.285337-12.797882-8.698128-2.867058-17.839473-4.473719-26.870013-6.218885-9.695366-1.897522-19.709293-2.673151-29.280004-5.110843-13.407306-3.407228-17.410107-11.731392-12.631676-24.66778 1.883671-5.124693 4.612224-9.916974 6.925261-14.709255a7.174571 7.174571 0 0 0-1.080341-1.385052c-0.955686-0.623274-1.980625-1.163444-2.964012-1.731315-13.25495-7.70089-20.526474-19.044468-20.387969-34.543203s7.590086-26.828462 21.052794-34.099986a195.527823 195.527823 0 0 1 20.055557-9.390654c16.052755-6.412792 34.183089-2.977862 44.321671 8.019453 7.728591 8.393417 7.68704 18.57355-0.346263 26.52375-2.894759 2.867058-6.565148 7.008364-10.498696 2.839357s1.246547-6.786756 3.587285-9.695366a7.368478 7.368478 0 0 1 1.011088-0.955686c5.152394-4.155157 4.736879-9.072092 0.831032-13.213398a30.540402 30.540402 0 0 0-11.302026-7.562385c-20.858887-7.562385-49.571019 6.786756-56.565534 27.83955a30.471149 30.471149 0 0 0 30.346495 39.917205 125.527284 125.527284 0 0 0 59.640349-18.213437c19.058319-11.426681 35.831301-25.401858 45.388161-46.219193 9.196747-20.014005 5.664864-39.127725-9.972376-54.584908-13.490409-13.338053-30.277242-19.266077-48.79539-20.110958-36.136013-1.648212-68.546235 9.861572-98.726523 28.892189-7.797844 4.916935-15.498734 10.193984-23.850599 13.975177-13.324202 6.052678-25.789673-3.614986-23.739795-18.130334a32.299418 32.299418 0 0 1 5.096992-13.407305 83.393995 83.393995 0 0 1 13.656615-15.457183c15.443332-13.545811 33.435161-23.088821 52.327273-30.706608 23.753646-9.570711 47.964359-18.005679 71.690304-27.701045a82.632216 82.632216 0 0 0 21.108196-12.894836c10.969614-9.058242 9.916974-18.393494-2.132981-26.177487-12.257712-7.908648-25.845075-10.623351-40.291169-10.166283-27.285529 0.872583-51.537793 11.246624-73.407768 26.177487-24.723182 16.883787-47.839704 36.108312-71.925763 54.017037a80.333029 80.333029 0 0 1-19.736994 11.080418c-10.027778 3.670388-17.022292-1.925223-16.70373-12.590125a43.158227 43.158227 0 0 1 2.520795-14.210636c3.518033-9.002839 7.908648-17.645565 11.911449-26.454498 1.260398-2.770104 2.437692-5.540209 3.642688-8.407267L100.734849 288.090864c-5.401704 2.770104-11.080418 5.069291-16.149709 8.310313-17.687117 10.955763-32.437923 25.374157-44.958796 41.717773a257.107245 257.107245 0 0 0-26.122085 40.471226c-9.390654 18.725906-4.847683 35.097223 11.800645 47.798153a104.848454 104.848454 0 0 0 24.016806 13.462708c13.019491 5.263198 26.800761 8.642726 39.847953 13.850522 8.21336 3.282574 16.786833 7.216122 23.282728 13.019491 18.448896 16.495972 31.412985 37.008596 37.285606 61.191607 8.171808 33.68447 0.207758 64.114068-29.820175 83.851062a108.892806 108.892806 0 0 0-19.487685 15.443333 160.208991 160.208991 0 0 0-20.775783 26.315992c-5.387853 8.836633-2.964012 18.282689 4.916935 25.000193a71.482546 71.482546 0 0 0 18.005679 11.315876c25.651167 10.900361 53.130604 13.642764 80.457684 15.789596 51.246932 4.030502 100.153127-5.941874 147.078696-26.315992 9.335252-4.058203 18.31039-8.905886 27.465586-13.393456-0.235459-0.54017-0.457067-1.094191-0.692526-1.634361-1.482006 0.373964-2.977862 0.706377-4.446018 1.135743-17.23005 5.110843-34.238491 11.14967-51.71785 15.235574a313.811284 313.811284 0 0 1-108.657347 6.329689c-8.116406-0.983387-17.063843-4.072054-23.421234-9.01669-12.714779-9.930824-11.246624-24.39077-8.670426-39.016921z m589.949146 136.178335c-11.93915 8.157958-22.673305 15.692642-33.615217 22.922614-20.401819 13.476558-40.775938 26.980817-61.413216 40.069561-16.911488 10.734155-33.795274 14.085981-53.393764 4.155157-34.293893-17.437808-66.482507-38.019684-97.923192-59.945061-2.38229-1.662063-4.847683-3.241022-7.922499-5.277049-15.706492 26.5099-35.831301 48.352173-59.044777 67.313539 1.163444 1.274248 1.385052 1.745166 1.786718 1.925222a26.77306 26.77306 0 0 0 3.227171 1.246547c45.194254 14.556899 90.95638 26.066683 138.962291 25.235652 14.764657-0.249309 29.543164 0 44.321671-0.457067 59.487993-2.008326 118.241909-9.002839 175.527669-25.96973 2.479243-0.734078 4.916935-1.662063 8.684277-2.964011-24.044507-19.972453-43.933857-41.565417-59.197132-68.255374z m142.231014-117.48013a36.149863 36.149863 0 0 0 5.443255 2.548496c11.592887 3.047115 23.102671 6.509745 34.834063 8.850484 37.64572 7.506983 75.5823 12.673228 114.072902 8.988988a68.047616 68.047616 0 0 0 23.698244-6.495894c10.817258-5.540209 12.839434-25.498812 3.310275-31.454537-12.243862-7.659339-24.93094-15.235575-38.379798-20.235613-21.163598-7.839396-43.324434-12.964089-64.695789-20.304865a65.748429 65.748429 0 0 1-21.676068-12.936388c-9.473757-8.462669-7.285375-20.055556 4.542972-24.833987 8.448819-3.421079 17.673266-5.110843 26.676106-6.925261 10.6095-2.146831 21.454459-3.144069 32.022407-5.540209 8.130257-1.814418 9.916974-5.900322 7.520834-13.919775-0.720227-2.423841-1.883671-4.709178-2.770105-7.063766-2.770104-6.925261-6.856009-10.817258-15.235574-9.099793-4.819982 0.997238-10.166283 0.290861-15.138621-0.484768-23.809048-3.684239-44.80644-13.850522-63.90631-28.296618-2.506945-1.897522-4.986188-3.850445-8.310313-6.454343-0.429366 3.199471-0.886433 5.180095-0.927985 7.16072-0.318562 18.933664-0.734078 37.867328-0.678676 56.787142 0 2.770104 2.160681 5.720266 3.573435 8.462669 3.116368 6.066529 7.216122 11.772944 9.335252 18.144184a11.717542 11.717542 0 0 1-6.260436 14.681554c-4.695327 2.271486-5.747967 5.277049-5.083142 9.889272 0.498619 3.421079 0.567871 6.925261 0.872583 10.346341 1.038789 11.772944-1.385052 22.382444-9.529159 31.496087-4.695327 5.166245-8.684277 10.789557-13.310352 16.68988zM355.736815 659.284861c-5.124693-5.692565-8.587324-10.360191-12.853285-14.127532-8.864334-7.880947-11.800645-17.936426-11.731392-29.196901 0-6.218885 1.024939-12.46547 0.983387-18.642803 0-2.063728-1.385052-5.083142-3.074816-5.983426-7.742442-4.155157-9.515309-10.87266-7.285375-18.227287 1.675913-5.540209 5.540209-10.387892 8.310313-15.62339 1.385052-2.770104 3.601136-5.623312 3.601136-8.448818 0-19.155272-0.484768-38.310545-0.872583-57.465817a48.26907 48.26907 0 0 0-1.06649-6.177333c-3.130218 2.368439-5.443255 4.155157-7.797844 5.900322-23.448934 16.98074-48.587632 29.390808-78.463209 28.712133-11.177371-0.249309-11.274325-0.318562-16.094307 9.972376-0.692526 1.454305-1.288099 2.964012-1.842119 4.473719-3.462631 9.473757-1.246547 13.850522 8.684277 16.066606 6.066529 1.385052 12.326965 1.85597 18.393494 3.157919 13.241099 2.853208 26.828462 4.833832 39.51554 9.321401 10.761856 3.808894 12.700929 15.692642 4.307512 23.545888a70.249849 70.249849 0 0 1-20.775783 13.171847c-10.152433 4.265961-21.038943 6.828307-31.634593 10.027778-23.822898 7.188421-47.99206 13.116445-69.003302 27.770297-7.68704 5.346302-9.944675 11.385129-9.487608 19.695443s4.612224 15.013966 12.770182 17.049993c10.207835 2.562347 20.775783 4.806131 31.205227 5.152394 41.052948 1.3158 81.427221-4.418317 121.316724-13.850522 7.16072-1.731315 14.141383-3.919698 22.894914-6.274287z m414.130616-351.581658c37.105549-70.970076 85.790135-132.258637 136.150634-192.356053a3.698089 3.698089 0 0 1-0.692526 2.645449q-29.792473 42.507253-59.640349 85.014506c-23.712094 33.545965-47.46574 67.064229-66.094692 103.878918a97.701584 97.701584 0 0 0-3.822744 10.290938l1.634361 1.745165 23.86445-5.540209-7.96405-5.387853c13.767419-6.786756 26.066683-13.642764 38.98922-18.989066A75.152934 75.152934 0 0 0 859.826574 270.085185c10.914212-11.856047 15.63724-26.634554 20.914288-41.011397 10.207835-27.8534 29.280004-50.014236 45.568219-73.975639 3.836595-5.637163 14.32144-31.703846 13.989027-38.44905q-0.373964-7.96405-1.385052-15.844998c-0.872583-6.578998 0.387815-12.340815 5.166245-17.174647A9.529159 9.529159 0 0 0 945.990673 80.333029c-4.972338-4.044353 0.304711-6.246586 1.731315-8.76738 2.936311-5.221647 7.008364-9.861572 9.473757-15.235575 2.770104-6.038828 4.155157-12.673228 6.260436-19.044468l-1.897521-0.692526a11.495934 11.495934 0 0 0-1.620511 1.994475c-6.191183 13.185697-15.872699 23.545888-25.98358 33.836826-31.593041 32.022408-63.227634 64.017114-94.100449 96.732048a311.636752 311.636752 0 0 0-56.440878 84.169624c-1.385052 2.90861-3.601136 5.415554-6.163482 9.182896l-4.252111-12.396217c-10.554098 8.310313-12.437769 40.208066-3.102517 57.521219zM408.978222 147.798923l0.124655 2.770105-11.080418 1.952924c-12.659377 2.313037-25.678868 3.504182-37.867328 7.354627a75.222187 75.222187 0 0 0-24.833986 14.141383c-7.43773 6.218885-4.681477 13.698167 5.05544 14.667703a253.990878 253.990878 0 0 0 30.983619 0.540171c16.094307-0.346263 32.230165-2.354589 48.241369-1.482006 28.448973 1.551258 55.402089 8.795082 78.670967 26.496049a15.997353 15.997353 0 0 0 3.282573 1.468155l1.482006-1.385052c-7.880947-12.631676-14.750806-26.025131-23.850599-37.701122-17.714818-22.728707-39.072323-41.37151-68.186121-47.812003-8.005602-1.772867-16.953039-0.886433-25.207951 0.457068-7.590086 1.246547-7.811695 4.072054-2.285336 9.252148 5.235497 4.930786 10.997315 8.171808 18.504298 7.783994 2.313037-0.027701 4.653775 0.997238 6.966812 1.495856z m519.879355 154.710334c-2.354589 22.479398-4.598373 43.989259-6.925261 66.357853 42.618057-15.235575 81.427221-6.218885 118.906733 12.368516 12.133058 6.024977 23.296579 14.030579 35.014121 20.914289 5.02774 2.950161 10.664902 7.867097 16.205111 2.11913s1.468155-12.46547-2.562347-16.620627c-8.199509-8.601174-16.468271-18.116483-26.662255-23.545888-22.27164-11.966851-45.60977-21.980779-68.809395-32.147062-15.817296-6.925261-32.216315-12.534723-48.144415-19.238376-5.623312-2.465393-10.6095-6.343539-17.022292-10.207835z m-611.805271 0.595573C289.475916 322.827974 257.619715 328.423585 228.990685 341.30457A457.524303 457.524303 0 0 0 180.05679 366.775681c-8.462669 5.110843-15.595688 12.880986-22.285491 20.374118-4.058203 4.542971-9.002839 11.080418-3.559584 17.271602 5.789518 6.578998 11.814496 0.817181 17.257751-2.229935 15.457183-8.684277 30.22184-18.933664 46.385399-25.983579 33.116599-14.418394 67.465894-20.41567 102.950932-7.9502a11.966851 11.966851 0 0 0 3.17177 0c-2.313037-21.343655-4.529121-42.368748-6.925261-65.152857z m288.78339 212.453161c-1.745166-1.385052-3.44878-2.853208-5.249348-4.155156a155.776824 155.776824 0 0 0-50.457453-23.781347c-43.005872-12.036104-84.488186-6.772905-124.654701 11.911449-9.27985 4.307512-11.218923 2.936311-11.634438-7.257674q-3.850445-92.659994-7.783994-185.292287c-0.221608-5.360152-0.872583-10.692603-1.385052-16.371317-20.900438 8.310313-22.00848 10.886511-19.390731 29.750922 1.897522 13.476558 3.753492 26.966967 5.05544 40.498927 3.961249 41.329959 7.645488 82.687618 11.468233 124.031427 0.775629 8.310313 1.675913 16.620627 2.603898 25.98358 68.615487-32.61798 135.167247-30.942067 201.428146 4.681476zM412.468554 641.279182l0.692526 1.745166c4.598373-0.983387 9.196747-1.939073 13.78127-2.964012 15.166322-3.421079 30.471149-4.155157 44.82029 2.299187 8.434968 3.767342 17.548612 8.545772 23.241176 15.429482 11.080418 13.490409 15.692642 30.069484 14.653853 47.839704-0.401665 6.925261-0.761779 13.933625-1.135743 20.900438A10.041629 10.041629 0 0 0 511.084273 721.612212c2.770104-14.473796 6.066529-28.89219 8.047153-43.47679 2.229934-16.468271 3.130218-33.116599-1.204995-49.474066s-16.080456-23.892151-32.825738-20.914288c-18.421195 3.282574-35.041821 11.274325-51.163829 20.346417-7.340777 4.155157-14.349141 8.822783-21.46831 13.185697z m423.576673 2.396141l0.761779-1.385053c-6.260436-3.587285-12.811733-6.745204-18.712056-10.844959A154.225566 154.225566 0 0 0 765.933883 608.467295a41.177603 41.177603 0 0 0-20.318716 0.193907c-14.196785 4.155157-17.188498 16.537524-18.795159 29.390809-3.351826 26.842312 2.964012 52.728938 7.631638 78.78177a10.844959 10.844959 0 0 0 1.551258 2.922461 31.606892 31.606892 0 0 0 0.180057-8.518072c-1.149593-23.545888 3.227172-45.166553 22.742558-60.873045 15.429482-12.46547 33.545965-14.515347 52.410376-11.883748 8.282612 1.163444 16.45442 3.462631 24.709332 5.235497z m-238.228984 308.478832H596.957511c0-8.310313 0.166206-16.620627 0-24.93094s-2.936311-11.260475-11.205073-11.966851c-15.38793-1.385052-30.803562-2.423841-46.219192-3.227172-9.847721-0.512469-14.224486 2.839357-15.457183 12.700929-1.925223 15.540286-3.033264 31.191376-4.390616 46.800915-0.54017 6.191183 2.770104 9.404505 8.656576 10.401742 5.221647 0.900284 10.387892 2.409991 15.63724 2.770105 15.11092 0.997238 30.23569 1.634362 45.374311 2.229934 6.163482 0.249309 8.587324-3.407228 8.559623-9.210598-0.180057-8.462669-0.138505-16.994591-0.138505-25.526512zM555.405944 119.530007c-7.119168-24.93094-15.761894-49.183205-37.714972-64.945099-6.232735-4.459868-14.653853-6.246586-22.354743-8.061004-2.977862-0.706377-8.199509 0.80333-9.889273 3.144069-6.135781 8.448819-5.678714 18.407344-2.770105 27.867251 2.465393 8.088705 9.972376 9.238298 17.077694 8.711978C524.186867 84.488186 540.308875 96.745898 552.497334 116.344387a24.93094 24.93094 0 0 0 2.90861 3.18562z m232.688775 763.773202c-1.925223 2.243785-2.770104 2.770104-2.770105 3.241022-0.124655 5.747967 0 11.509784-0.290861 17.23005-0.138505 2.257635-0.941836 5.872621-2.354589 6.412792-5.332451 1.994475-11.080418 3.933548-16.620626 3.781192-1.703614 0-3.241022-6.772905-4.861534-10.443294a13.684316 13.684316 0 0 0-1.204995-2.479243c-2.077578-2.92246-4.155157-2.880909-5.540209 0.498619a9.778469 9.778469 0 0 0-0.567871 5.401703c1.565109 6.925261 1.385052 12.700929-7.133019 15.000116-1.232696 0.332413-2.326888 2.673151-2.603899 4.25211-0.110804 0.609423 2.423841 2.548496 3.43493 2.354589 8.185659-1.648212 10.886511 3.005563 12.46547 9.778469 0.332413 1.385052 3.379527 3.407228 4.459868 3.047115a9.141345 9.141345 0 0 0 4.349064-4.584523c0.581722-1.218846 0-3.17177-0.470918-4.709178-1.149593-4.155157 0.27701-6.62055 4.570673-7.506983a39.51554 39.51554 0 0 0 6.662101-1.828269c5.914173-2.326888 7.70089 0.27701 8.310313 5.886472a180.569259 180.569259 0 0 0 3.753492 22.465548c0.623274 2.700852 3.282574 4.930786 5.02774 7.368477 1.135743-2.770104 3.337976-5.443255 3.227171-8.088705a179.876733 179.876733 0 0 0-2.146831-21.939227c-1.080341-6.62055-0.734078-11.9253 7.368478-13.448857a8.047153 8.047153 0 0 0 4.570672-2.90861 40.360422 40.360422 0 0 0 3.337976-6.925261c-2.493094-0.26316-5.166245-1.246547-7.451581-0.664825-10.415593 2.64545-10.207835 2.770104-12.687078-8.047153-1.011088-4.155157-2.894759-8.047153-4.76458-13.144146z m-137.120171-359.518007c64.44648-42.507253 132.147833-52.24417 204.73842-20.15251-0.457067-3.157919-0.80333-5.540209-0.900283-6.274287a192.52226 192.52226 0 0 0-106.358161-15.969652c-36.399173 4.653775-69.418818 17.991828-97.396873 42.396449z m115.651861-337.523378a15.055518 15.055518 0 0 0 2.894759 0.567871q23.656692-2.534646 47.299534-5.152394c1.551258-0.180057 3.614986-0.304711 4.51527-1.301949 7.354627-8.047153 14.501497-16.302065 21.717619-24.501574-28.310468 3.060965-52.659686 14.5846-76.344079 30.388046z m130.513472 368.714754c-5.02774 1.385052-10.318639 2.160681-15.000116 4.279811-5.817219 2.631599-6.800606 7.811695-2.340738 12.340816a38.781462 38.781462 0 0 0 31.052871 12.21616c4.916935-0.304711 7.894798-3.531883 6.759055-8.434968-2.590048-11.579037-6.121931-20.789634-20.387969-20.401819z m-558.536162 29.764772c8.310313 0 22.839511-6.592849 27.797998-12.46547 3.72579-4.404466 3.407228-8.310313-1.163444-11.814495-12.825584-9.695366-32.133212-3.033264-36.011358 12.46547-2.008326 7.936349 1.06649 11.828346 9.376804 11.814495z m317.564775-53.823129c64.197171-38.98922 130.568874-49.210906 199.973841-16.218962-4.265961-8.379566-27.340931-17.105395-51.773253-20.568026-54.446403-7.714741-104.017422 3.753492-148.200588 36.786988z m196.677416-55.789904h1.620511v-8.241061q-0.747928-61.953386-1.537407-123.920623c-0.180057-13.393455-0.346263-26.78691-0.817181-40.166515 0-2.049877-1.828269-4.030502-2.770105-6.052678-0.734078 1.897522-2.049877 3.795043-2.091429 5.720266-0.152356 5.983426 0.152356 11.966851 0.346263 18.005679zM656.750216 986.448048a48.061312 48.061312 0 0 0 7.229972-2.313037c12.46547-6.468194 24.93094-13.00564 37.216354-19.695442 3.379527-1.828269 6.482044-4.681477 3.919698-8.878185s-6.315838-2.520795-9.695366-0.664825c-11.509784 6.301988-23.033419 12.576274-34.487801 18.975215a28.268916 28.268916 0 0 0-6.675951 4.806131 5.664864 5.664864 0 0 0-1.246547 4.819982c0.443217 1.274248 2.562347 2.091429 3.739641 2.950161zM616.666804 230.334186c4.155157-29.640118 2.770104-59.238684-0.512469-90.845576-7.811695 18.227287-7.590086 78.310853 0.512469 90.845576z m-135.735118 718.703602c2.299187-1.966774 5.761817-4.155157 5.540209-4.833833-1.094191-2.617749-2.880909-5.955725-5.249348-6.925261-8.587324-3.282574-17.50706-5.678714-26.315993-8.434968a59.266385 59.266385 0 0 0-7.894797-2.506944c-1.606661-0.27701-3.421079 0.609423-5.138544 0.983387a23.33813 23.33813 0 0 0 1.274248 4.875384 7.451581 7.451581 0 0 0 3.102517 3.614986c11.260475 4.50142 22.673305 8.711979 34.654007 13.227249z m145.05652-351.803267c-8.379566 14.667703-7.645488 61.454767 1.108041 69.903586 3.614986-23.476635 1.966774-46.13609-1.135742-69.945137zM674.188023 134.350066c17.354704-10.097031 35.859002-18.809009 46.731663-37.077848C699.174365 101.732086 686.985906 118.435816 674.188023 134.350066z m11.218923 801.945241c2.243785-1.759016 6.080379-3.72579 5.83107-4.764579-0.595572-2.631599-2.534646-6.121931-4.806131-6.925262a191.552723 191.552723 0 0 0-24.376919-7.326926c-2.354589-0.567871-5.249348 1.121892-7.894798 1.786717 1.288099 2.603898 1.939073 6.703653 3.9751 7.576236 8.545772 3.656538 17.590163 6.37124 27.271678 9.653814z m183.934936-70.416055c-0.387815-0.706377-0.775629-1.385052-1.149593-2.146831-4.570672-1.246547-16.288214 3.047115-18.57355 6.925261a3.421079 3.421079 0 0 0-0.235459 3.019414 3.17177 3.17177 0 0 0 2.92246 0.927985c5.747967-2.714702 11.371279-5.734116 17.036142-8.684278zM383.839524 600.724853c-2.562347 3.836595-5.360152 6.191183-5.152394 8.241061s3.850445 4.944636 5.540209 4.709177c1.994475-0.27701 4.598373-3.462631 4.972338-5.706415 0.318562-1.620511-2.631599-3.781193-5.360153-7.243823z m485.045291 10.498696c-4.155157-2.576197-6.731354-5.30475-8.587324-4.916935-2.146831 0.457067-3.698089 3.670388-5.540209 5.678714 1.85597 1.620511 3.72579 4.542971 5.540209 4.51527 2.257635-0.027701 4.446018-2.562347 8.587324-5.277049zM658.038314 305.570223c3.324125 1.59281 5.886472 3.241022 8.698128 3.9751 1.385052 0.373964 4.155157-0.470918 4.723028-1.57896s-0.346263-3.670388-1.385052-4.750729a55.277434 55.277434 0 0 0-7.396179-5.360152 26.315992 26.315992 0 0 0-2.202233 2.770104c-0.831031 1.385052-1.440454 2.853208-2.437692 4.944637z m50.11119-150.596729c-5.706415 8.047153-5.429405 9.307551 2.673151 13.601213 6.135781-6.745204 6.135781-6.745204-2.673151-13.601213zM623.17655 792.526886c2.770104-3.822744 5.374003-5.928024 5.429404-8.102556 0-1.703614-3.642687-5.207796-4.750729-4.875384a9.2937 9.2937 0 0 0-5.540209 5.401704c-0.401665 1.482006 2.368439 3.864296 4.861534 7.576236zM465.377549 260.902288l-3.324125 0.747929v8.587324l7.063766-0.761779z" p-id="5301"></path><path d="M147.147949 262.342743c-6.606699 0-10.138582-3.490332-9.695366-9.695366 1.011088-15.595688 24.93094-31.316031 39.460138-25.858925 5.997276 2.257635 8.171808 7.077617 5.706415 12.631676-4.362915 9.750768-24.723182 22.908764-35.471187 22.922615z m28.019606-26.800761c-7.617787-2.770104-15.235575-3.324125-21.135897 1.59281-5.055441 4.155157-9.27985 9.80617-9.307551 18.421195a45.111151 45.111151 0 0 0 30.443448-20.014005zM1075.908572 225.098688c14.002878 0.083103 30.194139 12.99179 32.839588 24.820136 1.662063 7.368478-2.534646 12.839434-9.972376 11.731393-14.626152-2.174532-26.052832-10.097031-34.335445-22.160836-3.72579-5.429405-1.260398-10.844959 5.110843-13.047192a40.000308 40.000308 0 0 1 6.35739-1.343501z m26.025131 28.573628c-1.301949-8.545772-5.235497-15.235575-12.049954-18.753607a20.277165 20.277165 0 0 0-18.961365-0.304712c4.958487 10.207835 20.138659 19.695443 31.011319 19.058319z" p-id="5302"></path><path d="M892.153693 657.6505c4.626074-5.900322 8.615025-11.523635 13.157996-16.620627 8.088705-9.113644 10.567949-19.723144 9.529159-31.496088-0.304711-3.44878-0.373964-6.925261-0.872583-10.34634-0.664825-4.612224 0.387815-7.617787 5.083142-9.889273a11.717542 11.717542 0 0 0 6.260436-14.681554c-2.11913-6.37124-6.218885-12.077655-9.335252-18.144184-1.385052-2.770104-3.573435-5.637163-3.573435-8.462669 0-18.919813 0.360114-37.853477 0.678676-56.787141 0-1.980625 0.498619-3.961249 0.927985-7.16072 3.379527 2.603898 5.858771 4.556822 8.310313 6.454343 19.09987 14.404543 40.097262 24.612378 63.90631 28.296617 4.972338 0.775629 10.318639 1.482006 15.138621 0.484768 8.407267-1.717465 12.46547 2.174532 15.235574 9.099794 0.941836 2.354589 2.105279 4.639925 2.770105 7.063766 2.39614 8.019452 0.609423 12.105356-7.520834 13.919775-10.567949 2.354589-21.412907 3.351826-32.022407 5.540209-9.002839 1.814418-18.227287 3.504182-26.676106 6.925261-11.828346 4.77843-14.016729 16.371317-4.542971 24.833986a65.748429 65.748429 0 0 0 21.689917 12.936388c21.371356 7.340777 43.532192 12.46547 64.69579 20.304866 13.462708 4.986188 26.135936 12.576274 38.379797 20.235613 9.529159 5.955725 7.506983 25.98358-3.310274 31.454536a68.047616 68.047616 0 0 1-23.698244 6.495895c-38.490601 3.684239-76.427182-1.482006-114.072902-8.988989-11.731392-2.340738-23.241176-5.803369-34.834063-8.850484a36.149863 36.149863 0 0 1-5.30475-2.617748z m124.820907 19.459983c0.914134-3.060965 2.673151-5.678714 2.077578-7.534684-2.950161-9.127494 0.941836-15.415631 7.326926-21.23285 1.523557-1.385052 2.036027-3.864296 3.005564-5.844921-2.188383-1.024939-4.335213-2.770104-6.578999-2.93631-6.398941-0.415516-10.013928-3.324125-11.786794-9.52916-0.734078-2.562347-3.18562-4.639925-4.847683-6.925261-2.299187 2.022176-5.346302 3.642687-6.745204 6.163482-2.687001 4.916935-5.914173 8.019452-11.842197 7.714741a14.736956 14.736956 0 0 0-4.681476 1.094192c-4.335213 1.385052-6.260436 3.587285-1.966774 7.091467 5.817219 4.750729 6.288137 9.958526 2.880908 16.412869-1.094191 2.063728-0.387815 5.083142-0.512469 7.673189 2.770104-0.138505 6.121931 0.678676 8.144107-0.609423 5.540209-3.587285 10.193984-2.90861 15.041667 1.177295 2.783955 2.326888 5.983426 4.182858 10.484846 7.285374zM928.857577 302.509257c6.412792 3.864296 11.39898 7.728591 17.008441 10.083181 15.928101 6.703653 32.327119 12.299264 48.144416 19.238375 23.199625 10.166283 46.537755 20.180211 68.809394 32.147062 10.193984 5.540209 18.462746 15.013966 26.662256 23.545888 4.030502 4.23826 8.199509 10.817258 2.562346 16.620627s-11.177371 0.831031-16.205111-2.11913c-11.717542-6.925261-22.881063-14.889311-35.01412-20.914289-37.479513-18.587401-76.288677-27.562539-118.906734-12.368516 2.340738-22.243939 4.584523-43.7538 6.939112-66.233198zM317.052306 303.10483c2.39614 22.784109 4.612224 43.809202 6.925261 65.194408a11.966851 11.966851 0 0 1-3.17177 0c-35.485038-12.46547-69.834333-6.468194-102.950932 7.9502-16.16356 7.049916-30.928216 17.299302-46.385399 25.98358-5.443255 3.047115-11.468232 8.808932-17.257751 2.229934-5.443255-6.163482-0.498619-12.72863 3.559584-17.271601 6.689802-7.493133 13.850522-15.235575 22.285491-20.374119a457.524303 457.524303 0 0 1 49.003148-25.47111c28.559777-12.922537 60.415978-18.518148 87.992368-38.241292zM658.038314 305.570223c0.997238-2.091429 1.606661-3.559584 2.38229-4.916936a26.315992 26.315992 0 0 1 2.202233-2.770104 55.277434 55.277434 0 0 1 7.396179 5.360152c1.094191 1.080341 2.022176 3.698089 1.385052 4.750729s-3.282574 1.952924-4.723028 1.57896c-2.756254-0.706377-5.318601-2.409991-8.642726-4.002801zM465.377549 260.902288l3.739641 8.573474-7.063766 0.761779v-8.587324z" p-id="5303"></path><path d="M1016.9746 677.110483c-4.50142-3.102517-7.70089-4.958487-10.484846-7.299225-4.847683-4.155157-9.432206-4.76458-15.041667-1.177294-2.022176 1.288099-5.387853 0.470918-8.144107 0.609423 0.124655-2.590048-0.581722-5.609462 0.512469-7.67319 3.407228-6.454343 2.936311-11.66214-2.880908-16.412868-4.293662-3.504182-2.368439-5.761817 1.966774-7.091468a14.736956 14.736956 0 0 1 4.681476-1.094191c5.928024 0.304711 9.155195-2.770104 11.842197-7.714741 1.385052-2.520795 4.446018-4.155157 6.745204-6.163482 1.662063 2.299187 4.155157 4.376765 4.847683 6.925261 1.772867 6.205034 5.387853 9.113644 11.786794 9.529159 2.243785 0.138505 4.390616 1.911372 6.578999 2.936311-0.969537 1.980625-1.482006 4.459868-3.005564 5.84492-6.385091 5.817219-10.277088 12.105356-7.326926 21.232851 0.595572 1.869821-1.163444 4.487569-2.077578 7.548534z m-6.717504-13.061042L1020.783493 645.434339c-8.850484-2.146831-8.850484-2.146831-15.900399-12.368516-2.202233 2.631599-3.905847 5.969575-6.62055 7.506983s-6.731354 1.59281-12.880986 2.770104c9.833871 4.085904 5.941874 10.775706 6.648251 17.908725 7.977901-6.218885 13.157996-0.180057 18.227287 2.797806zM204.142848 643.758426c3.573435-1.288099 5.803369-2.770104 8.074855-2.770105 6.772905-0.207758 10.34634-3.531883 12.243861-9.889273 0.747928-2.493094 3.310275-4.446018 5.04159-6.6344 2.008326 1.689764 4.806131 3.005563 5.844921 5.166245 2.770104 5.775668 6.523596 8.933587 13.241099 9.01669 2.631599 0 5.221647 2.285336 7.839396 3.518033-1.385052 2.216084-2.299187 4.903085-4.155157 6.551297-4.709178 4.155157-2.880909 8.407267-1.246547 13.130295 0.955686 2.770104 0.595572 5.941874 0.831031 8.933587-2.950161-0.332413-6.565148 0.304711-8.739679-1.177295-7.036065-4.792281-11.495934 0-16.68988 3.241023a63.712403 63.712403 0 0 1-8.808932 3.905847c-0.221608-3.282574-1.149593-6.703653-0.52632-9.82002a12.46547 12.46547 0 0 0-3.808893-12.46547c-3.033264-2.991713-5.526358-6.468194-9.141345-10.706454z m7.243823 1.939073c3.919698 4.321363 6.814457 6.703653 8.628876 9.695366s2.506945 6.62055 3.891996 10.567948c6.10808-3.601136 11.634439-9.778469 19.972454-3.227172-1.551258-7.603937-2.631599-13.919775 4.349064-18.892112-8.836633 0.941836-14.5846-2.243785-18.656654-11.883748-2.423841 11.025016-7.756292 15.12477-18.185736 13.739718zM533.245108 921.863063c7.908648 0.900284 15.138621 1.842119 22.410145 2.493094 7.797844 0.706377 15.623389 1.301949 23.435084 1.648212 4.695327 0.207758 7.229973 1.814418 7.257674 6.925261 0.083103 12.673228 0.664825 25.360306 0.429366 38.019684 0 1.883671-3.545734 5.443255-5.193946 5.30475-15.997353-1.385052-31.967005-3.268723-47.908956-5.249348a4.418317 4.418317 0 0 1-2.770105-3.241022c0.623274-15.11092 1.509707-30.23569 2.340738-45.900631z" p-id="5304"></path></svg>