<?xml version="1.0" standalone="no"?><!DOCTYPE svg PUBLIC "-//W3C//DTD SVG 1.1//EN" "http://www.w3.org/Graphics/SVG/1.1/DTD/svg11.dtd"><svg t="1651276001212" class="icon" viewBox="0 0 1826 1024" version="1.1" xmlns="http://www.w3.org/2000/svg" p-id="4949" xmlns:xlink="http://www.w3.org/1999/xlink" width="356.640625" height="200"><defs><style type="text/css">@font-face { font-family: feedback-iconfont; src: url("//at.alicdn.com/t/font_1031158_u69w8yhxdu.woff2?t=1630033759944") format("woff2"), url("//at.alicdn.com/t/font_1031158_u69w8yhxdu.woff?t=1630033759944") format("woff"), url("//at.alicdn.com/t/font_1031158_u69w8yhxdu.ttf?t=1630033759944") format("truetype"); }
</style></defs><path d="M1390.892797 689.950768c0.805605 0 1.61121 0.290913 1.432186 1.297919 0 0.604204-0.783227 0.716093-1.38743 0.738471 0-0.671337-0.022378-1.365053-0.044756-2.03639z" p-id="4950"></path><path d="M1088.947572 447.463667a13.42675 13.42675 0 0 0-7.496602-1.007006c-31.329083 0-62.658166-0.246157-93.987248 0-14.187599 0.134267-25.398935-4.811252-35.804666-14.590402-11.188958-10.539999-16.470146-22.377916-15.306495-37.572521 0.358047-4.72174 0-9.510614 0-14.277111a32.850781 32.850781 0 0 1 9.331591-23.161143c3.379065-3.625222 6.914776-7.116177 10.517621-10.517621a34.931927 34.931927 0 0 1 24.749975-10.025306c50.596469 0 101.192937 0 151.811784 0.134267 34.730526 0 69.37154 0.693715 104.169201 0.514692a40.504028 40.504028 0 0 1 31.776641 13.42675c4.990275 5.393078 10.539999 10.20433 13.784796 17.029595a33.298339 33.298339 0 0 1 3.513333 14.321866c0 6.937154 0.134267 13.896686 0 20.83384a34.663392 34.663392 0 0 1-9.823905 23.586324c-9.286835 9.846283-19.804456 18.305136-29.785007 27.390569-27.323436 24.817109-54.55736 49.72373-81.231836 75.234555-24.615708 23.452056-47.799229 48.179654-70.087634 73.847124-1.007006 1.18603-1.924501 2.461571-3.065774 3.893757 2.03639 1.879745 4.29656 1.141274 6.288194 1.051762 34.305346-1.588832 68.655447-1.365053 102.938415-1.07414 20.431038 0.156645 40.839697 1.07414 61.248357 2.349681a41.958593 41.958593 0 0 1 25.533203 11.345604c13.023947 11.323226 18.842206 25.108022 17.566664 42.159994-0.313291 4.139915 0 8.324585 0 12.486877a30.143053 30.143053 0 0 1-4.475583 15.888321 66.216254 66.216254 0 0 1-23.071632 22.735963 36.520759 36.520759 0 0 1-19.491165 4.475583c-16.470146-0.335669-32.940293-0.53707-49.410439-1.118896-29.091291-1.029384-58.31685-0.827983-87.475275 0-40.70543 1.208407-81.18708 4.744118-121.601597 9.488237a272.540642 272.540642 0 0 1-38.042458 2.483949c-11.077069-0.268535-20.632439-3.513333-28.285686-11.726029-2.841995-3.065775-5.863014-5.930148-8.816899-8.951166a33.387851 33.387851 0 0 1-10.002929-23.496812c-0.223779-7.541358-0.179023-15.082716 0-22.624074a32.873159 32.873159 0 0 1 5.863015-17.902333 1086.895394 1086.895394 0 0 1 85.707419-111.195866c24.727597-27.994773 51.469207-53.997912 77.96466-80.247207a15.910698 15.910698 0 0 0 4.497961-5.191677zM718.302145 106.692758c1.49932 7.675625-2.909129 14.590401-5.997282 21.840846-3.289554 7.720381-4.587473 6.086793 2.774862 12.77779 4.095159 3.737112 8.100806 7.586114 12.128831 11.39036a13.96382 13.96382 0 0 1 4.475583 10.025306 52.789505 52.789505 0 0 0 0.358047 5.952526c1.432187 10.047684-3.356687 17.096728-10.786156 22.98212a14.769425 14.769425 0 0 1-7.563736 3.088152c-6.109171 0.671337-12.218342 1.387431-18.327513 1.969257-6.713375 0.64896-6.713375 0.626582-8.16794 7.049044-1.18603 5.616857-2.237792 11.188958-3.580466 16.872949a23.63108 23.63108 0 0 1-22.377917 17.768065 9.309213 9.309213 0 0 0-1.767855 0c-11.412737 1.946879-18.864583-4.028025-25.085644-12.464499-2.730106-3.6476-5.415456-7.339957-8.011294-11.188958a4.318938 4.318938 0 0 0-5.594479-1.790234c-12.643523 4.207048-10.674266 2.439193-10.405731 13.42675 0.201401 8.570742-4.83363 13.091081-11.188958 16.828193-11.412737 6.713375-22.803097 13.628151-33.790654 21.147131a336.854774 336.854774 0 0 0-55.944791 47.821607 16.872949 16.872949 0 0 0-1.230785 1.297919c-5.057409 6.713375-11.658894 9.264457-20.140125 8.660254-10.137196-0.738471-17.029594-6.937154-17.186239-17.298129-0.201401-15.46314-0.156645-30.948658-0.22378-46.411799 0-6.713375 0-6.713375-6.556729-8.190317-11.435115-2.416815-22.847853-5.035031-34.372479-7.116178-6.243439-1.141274-10.114818-5.102165-13.762419-9.600126a7.339957 7.339957 0 0 1-1.409809-4.475583 52.632859 52.632859 0 0 0-0.134267-5.952526c-1.275541-8.682632 3.177664-14.344244 9.801527-18.842205 35.804666-24.280039 73.175786-45.31528 113.545547-60.912688a35.625643 35.625643 0 0 1 13.896686-2.640594c5.661613 0.11189 5.683991 0 5.683991-5.594479v-10.719022a22.691207 22.691207 0 0 1 17.902333-20.766707c6.713375-1.029384 13.42675-1.521698 20.140125-2.237791 4.945519-0.53707 5.169299-0.693715 6.22106-5.527346 1.275541-5.818258 2.394437-11.658894 3.692357-17.477152 2.416815-10.853289 11.994563-17.72331 23.026876-18.730316 12.531633-1.163652 20.811462 4.341316 27.412947 13.986198 2.014012 2.953885 4.274182 5.728747 6.243439 8.705009s4.095159 4.117537 7.496602 2.551082c1.61121-0.760849 3.446199-0.984628 5.057409-1.723099 7.877027-3.580467 16.201611-3.423821 24.615708-3.155286a13.42675 13.42675 0 0 1 8.727387 3.356687 89.511665 89.511665 0 0 1 7.138555 7.138555c3.893757 4.542717 3.401443 10.025306 3.267176 16.179234z" p-id="4951"></path><path d="M1636.960364 432.985155c-0.156645 1.790233-1.633588 2.237792-2.68535 3.088153-8.257451 6.422462-16.626792 12.733034-24.817109 19.22263a7.877027 7.877027 0 0 1-7.630869 1.723099c-4.475583-1.208407-8.951167-1.969257-13.292483-3.043396-3.132908-0.760849-3.490955-1.61121-1.521698-3.826624 3.267176-3.669978 7.250445-6.713375 9.465859-11.188958 0.581826-1.163652 1.924501-1.297919 3.11053-1.409809a338.846408 338.846408 0 0 0 35.804666-4.83363 4.251804 4.251804 0 0 1 1.566454 0.268535z" p-id="4952"></path><path d="M433.677428 284.865727c-3.75949 12.218342-8.212695 24.16815-13.00157 36.028446-1.07414-6.176305-1.454565-6.44484-7.183311-5.079787a9.689638 9.689638 0 0 1 0.939873-5.169299 183.633181 183.633181 0 0 0 10.047684-27.838128c3.132908-10.249086 2.528705-20.72195 1.834989-31.194815a7.877027 7.877027 0 0 1 4.475584 2.416815 2.662972 2.662972 0 0 0 4.095158 0 6.44484 6.44484 0 0 1 2.506327 4.475583c0.246157 8.973544 2.170658 18.215624-3.714734 26.361185z" p-id="4953"></path><path d="M1248.34547 287.148275c0.358047 0.179023 0.805605 0.268535 1.029384 0.559448a41.801948 41.801948 0 0 0 13.068703 10.293841c-8.011294-0.044756-11.412737-2.551082-14.098087-10.853289z" p-id="4954"></path><path d="M388.988729 853.48858c1.946879-0.693715 2.125902-2.662972 2.752484-4.229426a503.503116 503.503116 0 0 1 25.331801-53.706999c2.730106-4.990275 6.556729-7.228067 11.479871-6.579108s8.302207 3.513333 9.488236 9.24208c3.177664 15.351251 6.198683 30.724879 9.219702 46.120885 3.6476 18.68556 7.183311 37.393498 10.786156 56.079059a32.134688 32.134688 0 0 1 0.53707 3.53571c0.492314 6.713375-2.416815 10.920423-8.05605 11.972186-7.250445 1.365053-11.748406-1.163652-13.292483-8.369341-3.401443-16.1121-6.422462-32.291333-9.622504-48.448189-1.454565-7.362334-2.976263-14.702291-4.475583-22.377916-2.774862 0.96225-3.088152 3.11053-3.849001 4.72174a219.012667 219.012667 0 0 0-17.566665 52.94615c-0.402802 2.237792-0.850361 4.29656-1.365053 6.422462A9.600126 9.600126 0 0 1 391.718835 908.605388a10.696644 10.696644 0 0 1-11.188958-5.124543 19.782078 19.782078 0 0 1-1.946879-4.318938c-5.012653-15.060338-10.20433-30.075919-14.187599-45.449548-0.984628-3.781868-2.237792-7.496602-3.490955-11.188958-2.483949 0.134267-2.483949 1.812611-2.819617 3.021019-5.482589 19.267386-12.195964 38.176725-17.230996 57.578378a25.488447 25.488447 0 0 1-2.014012 5.572102 10.786156 10.786156 0 0 1-12.106453 5.393077 10.450487 10.450487 0 0 1-8.503608-10.719021 21.147131 21.147131 0 0 1 0.850361-5.258811c9.197324-32.246577 19.782078-64.067974 31.038169-95.665592 0.201401-0.559448 0.402802-1.118896 0.626582-1.655966 2.081146-4.676985 5.325944-8.145562 10.674266-8.235073s8.59312 3.558089 10.428109 8.324585c1.007006 2.57346 1.7231 5.25881 2.551083 7.921782q6.556729 21.303776 13.091081 42.674687c0.290913 0.895117 0.514692 1.700722 1.49932 2.014012z" p-id="4955"></path><path d="M734.973693 857.964163a102.938415 102.938415 0 0 1-0.939873 13.628151 76.084915 76.084915 0 0 0 0.268535 17.18624c1.096518 12.24072 1.745477 24.615708-0.716093 36.722161a45.203391 45.203391 0 0 1-18.170868 28.263308c-10.226708 7.608492-35.468997 9.644882-47.799229-0.469936a11.882674 11.882674 0 0 1-4.811252-5.840636c-1.029384-4.005647-1.007006-7.854649 2.237791-11.054691a10.159574 10.159574 0 0 1 10.539999-2.058768 15.284117 15.284117 0 0 1 4.207048 2.237791c11.927429 7.809893 30.143053 1.208407 33.410229-13.091081 0.693715-3.088152 1.633588-6.131549 2.125902-9.242079 0.716093-4.475583-0.358047-5.25881-4.274182-3.401443a48.11252 48.11252 0 0 1-13.42675 4.475583 26.696854 26.696854 0 0 1-23.541568-7.205689c-11.188958-10.763778-13.96382-24.615708-12.509255-39.295621a45.673327 45.673327 0 0 1 8.48123-23.161144c11.188958-15.261739 34.126322-18.349891 46.769846-6.713374a6.847642 6.847642 0 0 0 6.042037 1.454564c8.033672-0.939872 11.882674 2.506327 12.128831 10.607132 0.044756 2.193036-0.022378 4.587473-0.022378 6.959532zM1311.316927 872.017495c0.156645-31.754263 31.329083-50.238422 59.16721-35.379486 9.242079 4.967897 17.07435 11.547005 21.057619 21.773713a35.804666 35.804666 0 0 1 1.7231 17.007216 10.472865 10.472865 0 0 1-9.935795 9.421103 31.530484 31.530484 0 0 1-7.116177 0c-11.188958-1.544076-22.198893-0.559448-33.275962-0.917495a6.959532 6.959532 0 0 0-1.186029 0c-1.163652 0.11189-2.595838-0.134267-3.043397 1.253164s0.604204 2.237792 1.521698 2.976262c7.183311 5.594479 15.149849 8.570742 24.369551 7.026666a40.615918 40.615918 0 0 0 9.689638-2.886751 15.060338 15.060338 0 0 1 7.541358-1.297919 9.689638 9.689638 0 0 1 8.951166 7.384712c1.208407 4.856008 0 8.951167-4.207048 11.412737-28.084285 15.955454-65.18687 3.737112-74.003769-27.726238a31.843775 31.843775 0 0 1-1.253163-10.047684zM1298.136334 877.768619a130.664653 130.664653 0 0 1-1.275541 24.906621 12.419744 12.419744 0 0 1-5.952526 9.734394 11.323226 11.323226 0 0 1-12.397366-0.492314 10.965179 10.965179 0 0 1-4.856008-12.486878c2.864373-10.965179 1.588832-22.064625 1.857367-33.119316a11.188958 11.188958 0 0 0-2.372059-7.809893 10.316219 10.316219 0 0 0-12.822546-2.774861c-10.539999 5.236432-15.664541 14.321866-16.872949 25.533202a103.274084 103.274084 0 0 0 0.559448 21.975114 10.920423 10.920423 0 0 1-8.436474 12.486877 11.188958 11.188958 0 0 1-13.784797-8.190317 15.440762 15.440762 0 0 1-0.805605-4.676985c0.246157-9.935795-1.163652-19.7597-1.521698-29.673117-0.313291-8.951167-1.275541-17.745688-1.879745-26.652098A67.133749 67.133749 0 0 1 1217.463946 836.996056a10.719022 10.719022 0 0 1 9.801527-10.226708 11.188958 11.188958 0 0 1 12.263098 8.100806 21.460422 21.460422 0 0 1 0.53707 2.909129c0.380425 2.237792 1.566454 2.640594 3.379065 1.544076a53.147551 53.147551 0 0 1 11.905052-5.348322 32.380845 32.380845 0 0 1 26.473075 2.774862c9.644882 5.863014 16.134478 14.635157 16.42539 26.696854-0.022378 4.878386-0.11189 9.577748-0.111889 14.321866zM824.328712 870.853843a63.754683 63.754683 0 0 0 3.311932 22.624074 27.994773 27.994773 0 0 1 1.476942 7.541357 10.472865 10.472865 0 0 1-6.713374 10.338598 10.271464 10.271464 0 0 1-11.949808-2.551083c-0.290913-0.268535-0.53707-0.581826-0.805605-0.872739-2.841995-3.088152-2.864373-3.088152-6.400084-0.380424a47.664962 47.664962 0 0 1-8.570742 5.325944c-18.215624 8.59312-38.378126 0-43.525047-19.33452-5.057409-19.021229-2.483949-37.169719 11.345604-52.162923 10.607132-11.502249 26.8535-12.598767 39.429888-3.602844a20.587683 20.587683 0 0 1 7.429468 10.495243 6.713375 6.713375 0 0 0 4.609851 4.878385c9.107812 2.819617 10.338597 4.654607 10.271464 13.941442z" p-id="4956"></path><path d="M548.02858 870.13775a64.179864 64.179864 0 0 0 3.513333 23.94437 21.840846 21.840846 0 0 1 1.230785 7.586114 10.114818 10.114818 0 0 1-6.713375 9.689638 9.801527 9.801527 0 0 1-11.502249-2.237792 24.615708 24.615708 0 0 1-2.237791-2.730106 2.237792 2.237792 0 0 0-3.580467-0.313291 72.728228 72.728228 0 0 1-6.221061 4.475584 33.164072 33.164072 0 0 1-29.091291 3.625222 27.480081 27.480081 0 0 1-15.46314-13.225348c-5.974904-10.808534-6.176305-22.377916-4.229426-34.171079a48.381055 48.381055 0 0 1 12.956813-26.226917c9.801527-10.249086 28.375198-10.830911 39.407511-2.640595a21.393288 21.393288 0 0 1 6.892398 10.226708 7.94416 7.94416 0 0 0 5.885392 5.169299c7.272823 2.03639 9.085434 4.766496 9.13019 12.509255zM1064.936068 857.852274c-8.033672-0.559448-15.194605 0-22.198893-1.387431-5.79588-1.18603-8.727387-4.341316-8.951166-10.09244-0.246157-6.713375 3.289554-10.7414 10.383353-11.188958a95.934127 95.934127 0 0 1 16.626792 0c8.525986 0.96225 17.029594 0.760849 25.533202 0.895116a23.563946 23.563946 0 0 1 3.558089 0.223779 10.472865 10.472865 0 0 1 7.51898 15.440763 66.305766 66.305766 0 0 1-7.474224 9.98055c-7.071422 8.570742-14.075709 17.163862-21.102375 25.756982-0.827983 1.007006-2.349681 1.902123-1.432187 3.513333 0.671337 1.18603 2.081146 1.007006 3.22242 1.007006 7.742759 0 15.485518 0 23.205899 0.134268a11.009935 11.009935 0 0 1 11.188958 9.44348 10.62951 10.62951 0 0 1-8.525986 11.748406 27.860506 27.860506 0 0 1-4.744118 0.223779h-48.783858a30.366832 30.366832 0 0 1-4.744118-0.246157 10.674266 10.674266 0 0 1-8.190317-14.881314 19.110741 19.110741 0 0 1 4.811252-6.713375c8.59312-8.235073 16.403013-17.230996 24.615708-25.891249a24.101016 24.101016 0 0 0 5.482589-7.966538zM592.023563 886.831675a77.091922 77.091922 0 0 0 0.783227 12.755413 24.414307 24.414307 0 0 1 0.201402 6.511973 10.719022 10.719022 0 0 1-9.66726 9.734394 10.584754 10.584754 0 0 1-11.882674-7.675625 12.800168 12.800168 0 0 1-0.716093-4.028025c0.335669-9.152568-1.07414-18.193246-1.432187-27.301058s-1.342675-18.573671-1.9245-27.860506a95.665592 95.665592 0 0 1-0.246157-11.882674c0.358047-5.79588 3.669978-8.794521 9.55537-9.353969s10.114818 1.969257 11.70365 7.586114 1.745477 6.042037 7.362334 2.864373c8.951167-5.079787 18.506537-5.437834 28.240931-3.401443 4.475583 0.939872 5.035031 2.103524 3.177664 6.131549s-3.714734 7.451846-5.572101 11.188958a3.938513 3.938513 0 0 1-4.766496 2.551083c-5.035031-1.18603-8.951167 1.163652-12.397366 4.29656-8.503608 7.630869-13.807174 16.783437-12.419744 27.882883zM930.825216 823.927353a16.828193 16.828193 0 0 0-0.559448 6.422462 46.6132 46.6132 0 0 1-0.358047 5.325944c-1.678344 8.257451-4.028025 10.114818-12.419743 10.137196h-12.486877c-2.372059 0-4.475583 0.693715-4.318938 3.669978 0.11189 2.595838 2.081146 3.132908 4.18467 3.177664h9.532992a41.443901 41.443901 0 0 1 4.721741 0.268535 1.879745 1.879745 0 0 1 1.879745 1.902123 2.237792 2.237792 0 0 1-1.812612 2.081146 16.805815 16.805815 0 0 1-3.513332 0.469937h-8.324585c-6.265817 0.11189-6.892398 0.671337-6.98191 6.713374s0 11.905051 0 17.902333v16.671548a23.899615 23.899615 0 0 1-3.423821 12.285476c-1.879745-2.237792-1.275541-4.475583-1.297919-6.534351V850.870364v-4.744118c-0.268535-4.475583-0.984628-5.236432-5.303567-5.3707-5.169299-0.156645-10.316219-0.156645-15.485518 0-4.29656 0.134267-5.035031 1.007006-5.281188 5.3707-0.11189 1.991635 0 3.983269 0 5.952525v63.665172c0.313291 3.6476 1.051762 4.475583 4.766496 4.654607 3.356687 0.201401 6.713375 0 10.114818 0 1.387431 0 2.774862 0 4.162293 0.134267s2.551082 0.380425 2.662972 1.812612-1.275541 2.237792-2.707728 2.551082a16.268745 16.268745 0 0 1-2.953885 0.223779h-29.762629c-1.991635 0-5.214054 0.671337-5.281188-2.237791s3.177664-2.416815 5.146921-2.37206c9.756771 0.246157 8.951167-1.342675 8.951166-9.510614v-106.518882c0-11.188958 1.432187-12.531633 12.800169-12.531633h42.74182c3.983269 0 7.586114 0.514692 9.644882 4.475584 1.051762 2.014012 2.640594 2.081146 4.475583 1.49932 3.423821-1.029384 6.847642-1.991635 10.293841-2.953885 0.783227-0.223779 1.678344-0.179023 1.924501 0.760849a2.439193 2.439193 0 0 1-0.290913 1.655966 5.706369 5.706369 0 0 1-3.11053 2.662972c-1.096518 0.447558-2.237792 0.827983-3.356688 1.208408-8.951167 3.065775-10.271464 6.713375-4.475583 14.478511a5.124543 5.124543 0 0 1 0.626582 6.288195c-1.49932 3.535711-1.432187 3.580467-5.124543 1.902123z" p-id="4957"></path><path d="M1159.706544 916.146746a36.83405 36.83405 0 0 1-10.047685-1.096518c-2.237792-0.716093-3.625222-1.879745-2.349681-4.318938q4.29656-8.167939 8.749765-16.201611c1.230785-2.237792 3.558089-2.237792 5.751125-2.237792a18.931717 18.931717 0 0 0 11.905051-4.72174 21.057619 21.057619 0 0 0 4.251804-25.577959 9.085434 9.085434 0 0 1 0.313291-9.868661c2.058768-3.602845 3.804246-7.40709 5.952526-10.965179s3.267176-3.602845 6.489596-0.805605a35.536131 35.536131 0 0 1 9.353969 12.867302 44.755833 44.755833 0 0 1-3.177664 43.704071c-8.525986 13.471506-21.594689 18.998851-37.192097 19.22263z" p-id="4958"></path><path d="M1118.352154 874.590955c-1.521698-20.587683 16.022588-39.250865 35.222841-40.794941a25.958383 25.958383 0 0 0 6.87002-1.812611 21.773713 21.773713 0 0 1 14.008576-0.402803c2.237792 0.64896 2.819617 1.991635 1.745477 4.005647-3.021019 5.79588-6.131549 11.569383-9.107812 17.387641a6.064415 6.064415 0 0 1-6.33295 3.401443 19.603055 19.603055 0 0 0-10.338598 2.237792 17.342885 17.342885 0 0 0-5.818258 24.794731 9.488237 9.488237 0 0 1 0.246157 11.81554c-2.125902 3.356687-3.826624 6.959532-5.863014 10.360975-1.812611 3.043397-2.774862 3.267176-5.683991 1.275541-5.751124-3.983269-8.951167-9.935795-11.882673-16.044966a30.859147 30.859147 0 0 1-3.065775-16.223989z" p-id="4959"></path><path d="M942.215575 834.444973a5.818258 5.818258 0 0 1 4.923142-6.019659c3.960891-1.275541 7.988916-2.349681 11.927429-3.714734s4.923142-3.446199 3.088153-7.183311a3.379065 3.379065 0 0 0-4.29656-2.237792c-1.544076 0.402802-3.043397 0.917495-4.587473 1.253163-1.118896 0.246157-2.506327 0.626582-3.021019-0.939872a2.68535 2.68535 0 0 1 1.432187-2.998641 7.854649 7.854649 0 0 1 2.640594-1.297919c5.527345-1.275541 5.079787-3.401443 3.625222-7.921782a8.951167 8.951167 0 0 1-0.760849-5.214055c0.246157-0.96225 0.604204-2.014012 1.700722-2.237792s1.655966 0.917495 1.969257 1.812612c1.521698 4.475583 3.043397 8.951167 4.475583 13.583395q10.942801 34.909549 21.79609 69.863854c2.483949 7.966538 5.012653 15.910698 7.496602 23.854859a26.8535 26.8535 0 0 1 0.895117 3.446199c0.760849 4.788874-0.402802 7.026666-4.699363 9.085434-1.230785 0.581826-2.506327 1.07414-4.72174 1.991635a18.573671 18.573671 0 0 0 8.235073 0.917494c3.960891 0.11189 7.94416 0 11.905052 0.156646 1.454565 0 3.737112-0.313291 3.737112 1.834989s-2.237792 1.790233-3.737112 2.03639a42.115238 42.115238 0 0 1-7.0938 0.716094h-89.892089c-1.387431 0-2.774862 0-4.139915-0.201402s-2.03639-0.559448-2.125902-1.700721a2.237792 2.237792 0 0 1 2.081146-2.483949 25.622714 25.622714 0 0 1 4.139915-0.335669h10.719022c4.744118-0.156645 5.527345-0.872739 5.572101-5.661612 0.11189-12.88968 0-25.77936 0-38.691418a22.735963 22.735963 0 0 1 3.625222-13.426749 6.288194 6.288194 0 0 1 1.118896 5.169298v42.85371c0 1.790233 0 3.580467 0.11189 5.348322 0.134267 2.551082 1.387431 4.229426 4.028025 4.251804q12.173586 0.134267 24.391928 0c2.394437 0 3.021019-1.544076 2.394437-3.669978-0.917495-3.244798-1.834989-6.489596-2.841995-9.712016q-9.309213-29.829762-18.663182-59.637147a12.979191 12.979191 0 0 1-0.962251-5.818258c0.156645-1.208407 0.447558-2.640594 1.7231-2.886751s1.834989 1.208407 2.237792 2.237791q3.22242 10.226708 6.400084 20.453416l16.156855 51.692986c0.358047 1.141274 0.783227 2.237792 1.230786 3.356688a3.580467 3.580467 0 0 0 4.744118 2.416815c5.683991-1.790233 11.323226-3.625222 16.96246-5.549723a3.625222 3.625222 0 0 0 2.394438-4.788874 164.030126 164.030126 0 0 0-2.237792-8.033672q-10.360975-33.231206-20.811462-66.440034c-0.246157-0.760849-0.469936-1.521698-0.760849-2.237791-1.521698-3.75949-1.902123-4.028025-5.773503-2.90913-4.363694 1.275541-8.682632 2.819617-13.046325 4.139915-1.700722 0.716093-3.468577 0.984628-5.706369 1.476942z" p-id="4960"></path><path d="M646.82708 886.965943a74.249926 74.249926 0 0 1-1.297919 16.514902c-1.387431 7.451846-6.534352 11.188958-13.42675 9.980551a10.987557 10.987557 0 0 1-8.705009-13.874308c2.237792-9.197324 1.991635-18.461781 1.902123-27.726239a21.952736 21.952736 0 0 1 2.551082-10.830911c2.68535-5.057409 5.079787-10.271464 7.787515-15.328873 1.588832-2.976263 2.730106-3.043397 4.744119-0.469936a26.495453 26.495453 0 0 1 6.422461 16.872949c-0.134267 8.279829 1.163652 16.582036 0.022378 24.861865z" p-id="4961"></path><path d="M882.018981 853.667603c1.902123 4.632229 2.237792 47.485938 0.380424 54.176936-2.237792-4.878386-0.96225-9.331591-1.186029-13.605773s0-9.13019 0-13.672907-0.11189-8.749765 0-13.091081-0.693715-8.884033 0.805605-13.807175z" p-id="4962"></path><path d="M1161.519155 869.667814c1.812611 0.783227 5.3707-0.939872 5.616857 3.11053a6.713375 6.713375 0 0 1-6.579107 6.288194 5.482589 5.482589 0 0 1-5.325945-5.25881c0.089512-2.662972 2.349681-4.251804 6.288195-4.139914z" p-id="4963"></path><path d="M912.810993 908.180208c-1.857367-6.579107-1.678344-32.873159-0.134267-37.102586 1.432187 3.960891 1.700722 29.807384 0.134267 37.102586z" p-id="4964"></path><path d="M942.864535 903.659868c0.96225 0.156645 1.230785 0.939872 1.365053 1.700722s0.469936 2.237792-1.007006 2.237792c-0.917495 0-1.051762-1.029384-1.096518-1.812612s-0.134267-1.655966 0.738471-2.125902z" p-id="4965"></path><path d="M269.423522 561.16586A139.392041 139.392041 0 0 1 275.129891 534.894186c2.864373-1.767855 6.064415-3.468577 1.588832-6.914776 7.384712-9.331591 14.679913-18.707938 22.154137-27.972395 2.439193-3.021019 3.200042-2.841995 5.035031 0.53707 3.714734 6.713375 6.400084 14.075709 10.293842 20.789084a113.635059 113.635059 0 0 0 16.246367 21.930358 485.981208 485.981208 0 0 0 36.073201 32.806025c13.270104 11.345604 26.226918 23.049254 36.610271 37.281608a150.491487 150.491487 0 0 1 14.187599 24.615708c2.237792 4.654607 1.902123 5.482589-2.953885 7.653248-15.664541 7.026666-31.150059 13.941442-46.702711 20.945729s-31.127682 13.986198-46.635578 21.102375q-18.372269 8.458852-36.610271 17.230996a107.078329 107.078329 0 0 0-25.936005 17.745688c-1.253163 1.141274-2.976263 2.081146-2.998641 4.207048 1.633588 1.521698 3.379065 0.358047 5.035032 0.201401 10.786156-0.96225 21.393288-1.297919 31.172437 4.699363 7.138555 4.475583 13.023947 9.622504 15.664541 17.902333a19.088363 19.088363 0 0 1-0.268535 13.941441c-3.960891 8.951167-9.779149 16.53728-19.491165 19.670189-11.188958 3.625222-22.646451 5.728747-34.439613 1.812611s-21.639445-10.763778-27.480081-22.176515a154.407622 154.407622 0 0 1-6.713375-15.261739 149.28308 149.28308 0 0 0-9.913417-19.625432c-6.064415-10.808534-15.216983-17.902333-26.584964-22.735963a183.96885 183.96885 0 0 1-55.20632-35.580887C116.470464 659.382534 109.10813 646.783767 103.155604 633.357018a322.241994 322.241994 0 0 1-15.015582-44.509676c-4.475583-16.268745-8.951167-32.559868-13.538639-48.761479a125.092552 125.092552 0 0 0-13.42675-31.664752 31.597618 31.597618 0 0 0-22.646451-14.903692A26.987767 26.987767 0 0 0 14.449544 501.327312c-10.271464 9.980551-17.387641 29.091291-6.109171 46.993624 7.496602 11.949807 19.468787 13.225349 29.471716 3.334309 9.331591-9.242079 10.20433-21.885602 2.237791-31.664751-2.125902-2.640594-5.325944-3.983269-7.51898-6.221061 0.402802-2.237792 1.991635-2.237792 3.200043-2.730106 3.826624-1.678344 7.653247-3.289554 11.502248-4.878386 4.609851-1.879745 5.840636-1.7231 8.660254 2.237792a82.79829 82.79829 0 0 1 11.367982 22.825475 5.549723 5.549723 0 0 1-2.483949 7.160933c-10.651888 6.937154-21.124753 14.098087-31.955665 20.72195a17.678554 17.678554 0 0 1-21.505177-2.618216c-10.159574-9.107812-12.621145-20.811462-10.719022-33.566874a40.034092 40.034092 0 0 1 16.179233-26.8535c12.934436-9.823905 27.435325-16.693926 42.31664-22.847852 26.62972-11.009935 54.221691-19.200252 81.94793-26.8535 29.471716-8.145562 59.234344-15.015582 89.175996-21.191887a45.360036 45.360036 0 0 0 5.25881-0.96225c7.026666-2.237792 12.24072 0.42518 17.007217 5.3707 3.021019 3.132908 6.44484 5.885392 9.734393 8.727387a6.713375 6.713375 0 0 1 2.237792 7.384713 477.790891 477.790891 0 0 0-8.48123 52.811882c-1.297919 10.674266 0.134267 21.460422-2.237792 32.00042-0.42518 1.946879-0.805605 3.893757-1.18603 5.840637a25.645092 25.645092 0 0 1-10.942801 5.594479c-17.745688 4.923142-35.043817 11.188958-52.520969 16.940082a200.976066 200.976066 0 0 0 21.952736-6.198683c10.539999-3.513333 21.147131-6.713375 31.754263-9.98055 2.752484-0.827983 6.042037-2.864373 8.570742 0.760849-1.18603 8.727387-0.559448 17.61142-2.237792 26.316429-7.339957 0.917495-14.120465 3.849002-21.079997 6.042038-28.129041 8.816899-56.123814 18.058978-83.424872 29.31507a28.106663 28.106663 0 0 0-6.176305 3.244798c16.716303-6.221061 33.208828-12.88968 50.104155-18.484159 17.902333-5.90777 35.804666-11.793162 53.706999-17.320507a6.847642 6.847642 0 0 1 6.713375 0.64896c-0.514692 7.675625 1.432187 15.082716 2.461571 22.579317-1.7231 3.737112-5.3707 4.475583-8.749766 5.460212-13.919064 4.028025-27.502459 8.951167-41.287255 13.426749-16.044966 5.146921-31.642374 11.502249-47.239782 17.902333a14.970826 14.970826 0 0 0-5.68399 3.4462c17.902333-7.653247 34.909549-13.85193 52.073411-19.737323 14.612779-5.035031 29.225559-10.070062 44.084495-14.366622a22.087003 22.087003 0 0 1 8.145562-1.409809c0.671337 2.237792 1.320297 4.475583 2.014012 6.713375 0.335669 1.07414 0.402802 2.595838 1.812611 2.68535 1.767855 0.11189 1.969257-1.655966 2.237792-2.886751 0.716093-2.618216 1.18603-5.303566 1.857367-7.921782a33.566874 33.566874 0 0 1 1.208407-3.267176c4.162292 0.559448 7.698003-1.566454 11.457494-2.640594 10.114818-2.841995 20.140125-5.751124 30.143053-9.219702a30.948658 30.948658 0 0 0-9.756772 1.991635c-9.55537 3.267176-19.625433 4.967897-28.867512 9.242079a2.886751 2.886751 0 0 1-2.797239-0.447558 45.024368 45.024368 0 0 1 0.671337-5.25881c2.03639-8.637876 4.139915-17.253373 6.221061-25.891249 7.988916-0.53707 15.328873-3.625222 22.825475-6.042038a105.847544 105.847544 0 0 0-15.664542 3.669978c-2.125902 0.358047-4.386072 1.700722-6.713375-0.089511z" p-id="4966"></path><path d="M765.676194 482.574618a84.051454 84.051454 0 0 0-7.429468 15.261739A753.576331 753.576331 0 0 0 727.387579 577.121314a627.320127 627.320127 0 0 0-23.586324 100.09642 19.580677 19.580677 0 0 1-1.454564 5.751124c-6.33295 12.800168-15.351251 23.228277-29.852141 26.025517-24.145772 4.676985-43.771204-3.692356-52.610481-29.091291-3.513333-10.137196-6.489596-20.431038-9.891039-30.590612a9.488237 9.488237 0 0 1 0.984629-8.436474c18.931717-33.275962 36.990696-67.133749 55.295831-100.700624 19.267386-35.357108 38.803307-70.579948 58.182582-105.8923 22.377916-40.906831 45.583815-81.343726 68.83447-121.758242 0.402802-0.671337 0.805605-1.365053 1.230786-2.03639 4.475583-7.40709 5.616857-7.94416 12.844924-2.90913 9.689638 6.713375 16.738681 15.373628 19.088362 27.569593 5.549723 28.822756 11.636516 57.556001 17.342886 86.378757 5.616857 28.397576 11.054691 56.862285 16.582035 85.304617q16.582036 85.304617 33.208828 170.586856a98.999902 98.999902 0 0 1 0.760849 24.928999 25.577958 25.577958 0 0 1-5.549723 13.628151c-10.965179 14.50089-25.309423 20.699573-43.636937 18.68556-14.209977-1.566454-23.51919-9.600126-31.127681-20.587683a23.586324 23.586324 0 0 1-3.021019-8.951167c-11.927429-56.302837-22.377916-112.896588-33.231206-169.400826-3.11053-16.156856-6.511974-32.291333-9.846283-48.403433a6.33295 6.33295 0 0 0-2.260169-4.744118z" p-id="4967"></path><path d="M563.872145 502.043405a10.607132 10.607132 0 0 0-2.68535 5.863014c-6.377706 21.079997-12.598767 42.20475-19.021229 63.262369-5.035031 16.514902-10.338597 32.917915-15.418384 49.410439-7.765137 25.219912-14.545646 50.730736-21.684201 76.084916-4.744118 16.828193-15.888321 27.860506-33.074561 31.508106A41.600546 41.600546 0 0 1 439.831355 722.868683c-15.306495-10.137196-22.377916-24.615708-19.961102-43.323646 1.655966-12.263098 5.79588-23.899615 9.107812-35.804666 10.338597-36.878806 22.221271-73.287676 33.992055-109.65179 15.664541-48.313921 31.843775-96.448819 48.023009-144.583717 5.415456-16.179233 11.345604-32.179444 17.521908-48.067764 5.3707-13.874308 21.102375-27.972395 39.676046-27.077279 18.238002 0.872739 34.909549 11.748406 40.750185 29.091291 6.98191 20.878596 13.180593 42.025727 18.954095 63.26237 1.365053 4.990275 2.79724 9.935795 4.475583 14.836558 8.257451 24.615708 16.380635 49.231416 23.63108 74.272304a24.615708 24.615708 0 0 0 3.580467 9.174946c2.237792-0.917495 2.483949-2.886751 3.11053-4.475583 14.568024-36.050823 31.03817-71.251285 47.709718-106.384614 11.569383-24.391929 24.615708-48.045386 36.408869-72.258292 6.198683-12.643523 22.937364-21.594689 37.080208-20.453416 3.692356 0.313291 4.050403 0.96225 2.081146 4.475584-5.706369 9.980551-11.502249 19.916345-17.18624 29.919274q-17.051972 30.008786-34.014433 60.039949-19.491165 34.730526-38.825684 69.617698c-8.05605 14.568024-15.933076 29.270314-23.877237 43.905471q-17.902333 32.940293-35.804666 65.83583-13.829552 25.331801-27.770994 50.596469c-0.895117 1.61121-1.208407 4.475583-3.625223 4.028025s-2.237792-3.088152-2.774861-4.900764c-8.951167-25.868871-16.962461-52.051033-24.347173-78.322707-3.714734-13.180593-7.384712-26.361185-11.188958-39.541778-0.514692-1.7231-0.514692-3.916135-2.68535-5.035031z" p-id="4968"></path><path d="M263.269595 509.83092a336.026791 336.026791 0 0 1 9.846283-66.395278 319.198598 319.198598 0 0 1 37.371121-92.89073 13.292482 13.292482 0 0 1 4.117536-5.325944c2.864373 1.275541 2.506327 5.236432 5.527346 6.914776a30.053542 30.053542 0 0 0-1.678344-8.235073 8.302207 8.302207 0 0 1 1.365053-7.787515A223.644895 223.644895 0 0 1 409.039342 259.645816c4.475583-2.237792 5.527345-1.521698 5.616857 3.580466a46.635578 46.635578 0 0 1-1.946879 12.285476c-2.237792 8.279829-5.191677 16.246367-8.100805 24.257662a9.66726 9.66726 0 0 1-6.55673 6.288194 30.971036 30.971036 0 0 0-10.316219 4.475583c4.475583 0.716093 8.279829-1.767855 12.039319-1.38743 1.163652 1.767855 0.134267 2.953885-0.335669 4.18467-5.325944 13.717663-12.464499 26.562587-18.842206 39.765557a8.637876 8.637876 0 0 1-5.863014 4.475583c-6.265817 1.879745-12.509255 3.849002-18.752694 5.818259a17.096728 17.096728 0 0 0-6.355328 2.931507 32.403223 32.403223 0 0 0 10.517621 0.246157c2.976263-0.134267 5.952526-0.626582 8.951166-0.559448 3.669978 0.11189 4.341316 1.230785 2.573461 4.475583-4.609851 8.324585-9.353969 16.582036-14.165221 24.794731-5.012653 8.570742-10.316219 16.940083-15.194605 25.577959a12.24072 12.24072 0 0 1-9.264458 6.534351 32.313711 32.313711 0 0 0-10.002928 3.065775c4.072781 1.544076 8.05605-0.179023 12.151208 0.492314-0.380425 3.267176-2.439193 5.281188-3.893757 7.51898q-24.503818 38.042458-52.52097 73.578588c-1.61121 2.03639-3.088152 4.139915-4.632228 6.198683-3.75949-0.358047-2.752484-2.864373-2.237792-5.102165 1.07414-5.572101 3.311932-10.786156 4.788874-16.201611 6.713375-19.670188 14.836558-38.780929 22.847853-57.981181 7.474224-17.902333 16.850571-34.887171 24.615708-52.699993 5.863014-13.561017 14.187599-25.913627 21.863224-38.512394a520.823624 520.823624 0 0 1 34.350101-49.544707c1.924501-2.439193 4.363694-4.475583 5.48259-6.198682-27.211546 30.769635-46.523688 67.939354-68.342157 103.453107a584.690197 584.690197 0 0 0-26.540208 52.789504c-2.57346 5.885392-3.75949 12.419744-7.63087 17.768066-3.893757 6.064415-5.482589 13.135837-7.228067 19.782078-2.237792 8.660254-6.713375 16.380635-9.219701 24.794731-0.246157 0.738471 0.156645-0.156645-0.201402 0.559448-0.626582 1.18603-1.07414 2.998641-2.819617 2.237791s-1.163652-2.26017-0.604204-3.558088z" p-id="4969"></path><path d="M301.177785 784.698865c21.124753-18.238002 15.485518-55.474854-17.141483-66.79808-0.335669-1.588832 0.984628-1.991635 1.946878-2.551082 3.446199-1.969257 6.847642-4.005647 10.405731-5.751125q50.574091-25.108022 101.371961-50.059398c6.064415-2.976263 12.195964-5.773502 18.305136-8.637876 1.051762-0.492314 2.237792-1.275541 3.311931-0.447558s0.469936 2.237792 0.223779 3.311931a8.503608 8.503608 0 0 1-0.335668 1.141274c-4.475583 12.35261-5.169299 25.108022-4.878386 38.042458a32.828403 32.828403 0 0 0 10.025306 23.966748c4.967897 4.900764 4.856008 5.236432-0.96225 8.235073q-42.339018 21.751335-84.700413 43.457914c-10.428109 5.325944-21.214265 9.868661-32.067554 14.254732-1.790233 0.760849-3.669978 1.253163-5.504968 1.834989zM22.930774 515.313509a24.615708 24.615708 0 0 1 12.710657 6.713375 16.067344 16.067344 0 0 1 5.169299 12.710657 22.064625 22.064625 0 0 1-6.489596 15.46314c-5.818258 5.997282-12.710656 6.198683-18.954095 0.559448-8.257451-7.451846-10.360975-17.007216-8.951167-27.591971a34.1487 34.1487 0 0 1 12.77779-22.087004 23.273033 23.273033 0 0 1 26.249296-1.991634c3.267176 1.879745 3.356687 3.065775 0 4.72174-6.221061 3.043397-12.554011 5.863014-18.819827 8.794521a6.713375 6.713375 0 0 0-3.692357 2.707728z" p-id="4970"></path><path d="M249.059618 572.936644c-15.821187 5.191677-31.57524 10.539999-47.46356 15.552651-21.751335 6.87002-43.010355 15.082716-64.135108 23.653458-0.917495 0.380425-1.790233 0.827983-2.707728 1.208407-1.387431 0.604204-2.774862 0.693715-3.692356-0.760849a3.423821 3.423821 0 0 1 0.42518-4.83363 14.590401 14.590401 0 0 1 3.580467-2.058768c21.214265-8.951167 42.652308-17.18624 64.582666-24.101016 14.568024-4.475583 29.091291-9.353969 43.592181-14.008575 2.237792-0.760849 5.146921-2.394437 5.952526 1.879745zM252.975754 600.260079c-1.096518 2.506327-3.490955 3.065775-5.728747 3.781868-9.443481 3.043397-18.909339 5.974904-28.330442 9.085434-23.51919 7.765137-46.993624 15.776431-69.640075 25.824116a24.928999 24.928999 0 0 1-3.960891 1.320297 3.289554 3.289554 0 0 1-2.730106-5.795881 13.85193 13.85193 0 0 1 2.57346-1.454564c13.561017-6.109171 27.39057-11.591761 41.376767-16.53728 19.625433-6.914776 39.362755-13.583395 59.323856-19.491165 1.902123-0.559448 3.849002-0.917495 5.773503-1.387431z" p-id="4971"></path><path d="M270.385773 519.341534c-4.050403 12.016941-5.885392 24.615708-8.145562 36.990696-1.141274 6.221061-1.745477 12.531633-2.662972 18.775072a27.010145 27.010145 0 0 1-1.633588 6.131549c-1.297919-20.140125 1.454565-39.832691 5.504968-59.413368 1.946879-15.664541 7.899404-30.232565 13.20297-44.957234 1.454565-4.095159 3.200042-8.078428 5.012653-12.016941a643.208448 643.208448 0 0 1 30.926281-62.344875c0.984628-1.700722 1.61121-5.818258 5.169298-2.237791a3.692356 3.692356 0 0 1-0.492314 2.237791 745.721682 745.721682 0 0 0-39.004708 92.15226c-2.707728 8.235073-4.497961 16.716303-7.877026 24.682841z" p-id="4972"></path><path d="M251.454055 543.263527c-8.727387 2.595838-17.499531 5.057409-26.204539 7.765137-12.285476 3.849002-24.615708 7.899404-36.766917 11.815539a25.488447 25.488447 0 0 1-4.028025 1.07414c-1.879745 0.246157-2.909129-0.939872-3.468577-2.57346a2.68535 2.68535 0 0 1 1.342675-3.535711 21.281398 21.281398 0 0 1 3.804246-1.655966c20.363904-6.556729 40.615918-13.42675 61.225979-19.22263a41.13061 41.13061 0 0 1 5.281188-0.783227v1.163652c-1.320297 1.790233 0.290913 4.162292-1.141274 5.952526zM262.240211 594.486577a8.548364 8.548364 0 0 1 5.48259-4.139914c12.598767-3.558089 25.1304-7.272823 37.684411-10.920424l1.745477-0.447558a3.356687 3.356687 0 0 1 4.363694 2.864373 3.021019 3.021019 0 0 1-2.394437 4.050403c-3.043397 0.917495-6.131549 1.678344-9.174946 2.551083-10.651888 3.11053-21.281398 6.265817-31.955664 9.286835-2.237792 0.671337-5.25881 2.081146-5.930148-2.237792 0.044756-0.179023 0.11189-0.64896 0.179023-1.007006zM269.423522 561.16586a16.872949 16.872949 0 0 1 5.773503-2.976263l18.775071-5.415456 1.141274-0.290913a3.580467 3.580467 0 0 1 4.475583 2.953885c0.693715 2.237792-0.559448 3.446199-2.439192 3.983269-7.966538 2.237792-15.955454 4.609851-23.921993 6.892398-2.618216 0.738471-3.602845-0.716093-4.028025-2.976262 0.022378-0.716093 0.134267-1.454565 0.223779-2.170658z" p-id="4973"></path><path d="M282.402714 464.672285q-3.33431 8.525986-6.713375 17.051972a249.04383 249.04383 0 0 0-11.39036 37.930568 13.874308 13.874308 0 0 1-0.895116 2.237792c-0.559448-3.983269-2.081146-7.966538-0.179024-11.994563 0.402802 0.335669 0.201401 2.125902 1.118896 0.939872a13.941442 13.941442 0 0 0 1.387431-4.475583c3.826624-13.091081 8.458852-25.913627 13.42675-38.579528a22.042248 22.042248 0 0 1 1.812611-3.021019q0.805605-1.118896 1.432187-0.089511z" p-id="4974"></path><path d="M276.718723 527.934654a36.744539 36.744539 0 0 1 5.751124-0.96225 3.804246 3.804246 0 0 1 3.893758 3.625222c0.313291 2.014012-1.208407 2.774862-2.79724 3.088153-2.774862 0.53707-5.3707 2.618216-8.436474 1.163651a19.849212 19.849212 0 0 1 1.588832-6.914776z" p-id="4975"></path><path d="M270.385773 519.341534a125.316331 125.316331 0 0 1 7.205689-24.928999c0.984628 0.469936 0.358047 1.700722 1.07414 2.237792-1.521698 5.124543-3.088152 10.226708-4.475584 15.373629-0.559448 2.014012-1.812611 4.117537 0 6.22106a2.506327 2.506327 0 0 1-3.804245 1.096518z" p-id="4976"></path><path d="M251.454055 543.263527a10.360975 10.360975 0 0 1 1.141274-5.952526 8.794521 8.794521 0 0 1-1.141274 5.952526z" p-id="4977"></path><path d="M1601.379477 407.720488a46.07613 46.07613 0 0 0 10.875668-0.760849c8.391719-1.544076 16.761059-3.200042 25.1304-4.766497 1.655966-0.313291 3.580467-1.432187 4.788874 0.693716 0.939872 1.678344-0.53707 4.923142-2.68535 5.930148a18.14849 18.14849 0 0 1-3.960891 1.253163 269.474868 269.474868 0 0 1-48.179654 7.116177c-1.387431 0-2.774862 0.201401-4.139915 0.402803-5.683991 0.850361-5.79588 0.850361-6.44484 6.511973a15.485518 15.485518 0 0 1-6.042037 11.188959c-3.311932 2.528705-8.190317 2.79724-10.495243 0.693715s-2.528705-6.713375-0.134267-10.405731c1.7231-2.68535 3.781868-4.29656 8.302207-7.272823h-10.20433c-2.461571 0-3.849002 1.834989-5.393078 3.379066a10.271464 10.271464 0 0 1-6.511974 3.759489c-4.005647 0.290913-6.198683-0.626582-7.272822-4.475583a5.348322 5.348322 0 0 0-5.48259-4.318938c-10.070062-0.895117-20.140125-2.237792-30.031163-4.162292A388.54776 388.54776 0 0 1 1418.865192 386.349578a462.618663 462.618663 0 0 1-58.182582-30.881525l-1.029384-0.626581c-3.11053-1.678344-3.714734-1.454565-4.318938 1.902122-0.64896 3.714734-1.208407 7.451846-1.588832 11.188959a23.474434 23.474434 0 0 1-9.443481 16.582036 12.598767 12.598767 0 0 1-6.44484 2.841995c-8.414097 0.984628-13.42675-5.102165-10.271463-12.979191a20.699573 20.699573 0 0 1 14.903692-13.42675c5.057409-1.141274 4.83363-1.342675 5.885392-6.601486 0.96225-4.788874-0.492314-7.630869-4.587473-10.293841-20.140125-12.956814-38.042458-28.576599-56.571372-43.525047-5.25881-4.251804-10.607132-8.324585-15.888321-12.554011-1.879745-1.49932-3.625222-2.998641-6.355328-2.528705a2.864373 2.864373 0 0 1-3.401443-2.595838 9.376347 9.376347 0 0 0-4.475584-6.01966 564.124892 564.124892 0 0 0-57.802157-35.491375c-7.474224-3.938513-7.966538-3.535711-9.085434 4.676985-0.514692 3.737112-0.939872 7.496602-1.521699 11.188958a13.605773 13.605773 0 0 1-7.317578 9.600126 6.937154 6.937154 0 0 1-8.324585-0.64896 6.713375 6.713375 0 0 1-1.521699-7.698003 13.807174 13.807174 0 0 1 6.780509-7.765137c1.7231-0.917495 4.18467-0.984628 4.923142-3.065774a31.03817 31.03817 0 0 0 1.633588-9.935795 3.535711 3.535711 0 0 0-2.125902-3.311932c-3.021019-1.521698-6.243439-3.960891-9.353969-3.490955-4.654607 0.671337-1.991635 5.594479-3.132909 8.458853a35.379486 35.379486 0 0 0-1.007006 5.840636 13.874308 13.874308 0 0 1-7.228067 9.712015 7.116177 7.116177 0 0 1-8.369341-0.156645 6.892398 6.892398 0 0 1-1.700721-7.698003 12.88968 12.88968 0 0 1 8.190317-8.816899c2.237792-0.850361 3.826624-1.812611 4.475583-4.341316 1.118896-5.124543 0-7.250445-5.102165-8.839277-6.87002-2.081146-8.951167-3.468577-9.219701 5.549723a14.209977 14.209977 0 0 1-7.049044 11.793162 7.630869 7.630869 0 0 1-9.846283-0.581826 7.51898 7.51898 0 0 1 0.179023-9.376346 17.745688 17.745688 0 0 1 7.586114-6.511974c1.678344-0.716093 3.513333-1.320297 3.155286-3.6476s-2.237792-2.640594-3.983269-3.021019c-4.274182-0.939872-8.548364-1.857367-12.822546-2.618216-6.064415-1.051762-12.128831-2.237792-18.215624-2.931507-5.214054-0.693715-6.33295 0.156645-7.049043 5.460211-1.096518 8.257451-1.857367 16.559658-2.864374 24.817109-0.693715 5.504967-1.432187 11.009935-2.439192 16.470147a21.25902 21.25902 0 0 1-8.749766 13.046325 12.956814 12.956814 0 0 1-4.162292 2.237792c-3.692356 1.051762-7.541358 1.790233-10.62951-1.29792a9.622504 9.622504 0 0 1-1.790234-11.188958 21.505178 21.505178 0 0 1 15.328873-13.74004 5.885392 5.885392 0 0 0 5.3707-5.840637c1.007006-8.279829 2.237792-16.492524 3.446199-24.749975 0.827983-5.997282 0.335669-6.713375-5.639235-6.713375a226.822559 226.822559 0 0 0-57.623134 7.720381A281.827478 281.827478 0 0 0 948.92895 259.645816c-8.548364 5.79588-17.141484 11.479871-25.779359 17.141484a9.286835 9.286835 0 0 1-7.0938 2.237791c29.091291-24.235283 59.122455-44.755833 93.785847-58.31685-5.661613-4.475583-6.086793-8.235073-2.103524-13.426749a13.42675 13.42675 0 0 1 8.816899-5.616857 5.012653 5.012653 0 0 0 4.744118-5.079787c0.42518-3.155286 0.783227-6.310572 1.208408-9.443481 0.268535-2.081146-0.559448-3.11053-2.68535-2.640594a65.052603 65.052603 0 0 0-6.892398 1.834989c-11.972185 4.18467-23.854859 8.48123-35.536131 13.42675a376.351796 376.351796 0 0 0-60.979822 34.596258c-5.057409 3.401443-9.712016 7.40709-15.46314 9.756772A367.669165 367.669165 0 0 1 957.880117 205.46888c-0.156645-1.365053-0.783227-1.476942-1.342675-1.49932-11.793162-0.223779-19.33452-7.093799-25.421313-16.223989-2.864373-4.318938-3.021019-4.475583-7.474224-1.991635-9.55537 5.25881-18.640804 11.188958-27.726238 17.365263a21.191887 21.191887 0 0 1-7.183312 3.714734c0-1.857367 1.387431-2.394437 2.394437-3.065774 10.360975-6.98191 20.520549-14.299489 31.440973-20.386282 4.117537-2.237792 5.303566-4.967897 4.699362-9.644882a25.846493 25.846493 0 0 1 8.951167-24.011504 15.664541 15.664541 0 0 1 16.671547-3.155286 12.106453 12.106453 0 0 1 8.458853 11.188958c0.335669 4.005647 0.827983 4.251804 4.475583 2.886751 10.539999-4.072781 20.900974-8.637876 31.776641-11.860296a4.878386 4.878386 0 0 0 3.893758-5.214054c0-3.379065 0.179023-6.713375 0-10.114818s-0.917495-4.318938-4.475584-3.177664a53.841267 53.841267 0 0 1-17.589042 2.528704 30.657745 30.657745 0 0 1-15.955454-3.983269 7.272823 7.272823 0 0 0-7.317579-0.268535 543.179162 543.179162 0 0 0-50.932137 24.503818q-2.237792 1.275541-4.766496 2.416815c-0.290913 0.156645-0.738471 0-1.454565 0-0.201401-2.237792 1.834989-2.752484 3.177664-3.513332a463.021466 463.021466 0 0 1 41.66768-21.751335c3.244798-1.454565 6.467218-3.021019 9.689638-4.475583 1.902123-0.895117 2.841995-2.237792 1.476942-4.251804-6.086793-8.749765-5.616857-18.282758-3.513332-28.03953a4.475583 4.475583 0 0 0-0.290913-1.655965 8.324585 8.324585 0 0 0-5.751125 1.253163c-10.987557 4.587473-22.087003 8.951167-32.828403 14.008576a21.773713 21.773713 0 0 1-4.475583 1.588832 1.902123 1.902123 0 0 1-2.349681-1.320297 1.834989 1.834989 0 0 1 0.53707-2.237792 20.900974 20.900974 0 0 1 3.446199-2.237792c12.509255-6.511974 25.488447-11.994563 38.534771-17.275751A11.636516 11.636516 0 0 0 954.970988 80.622485c9.376347-16.53728 23.295411-28.487087 39.564156-37.729166a17.096728 17.096728 0 0 0 9.421102-13.292483 39.922203 39.922203 0 0 1 13.068703-24.123393 20.565305 20.565305 0 0 1 18.215624-5.035032 8.951167 8.951167 0 0 1 7.832271 10.226708 18.349891 18.349891 0 0 1-7.541358 13.023947 191.532585 191.532585 0 0 1-22.243649 15.910699 7.94416 7.94416 0 0 0-4.475583 7.630869c0.11189 5.549723-0.156645 11.188958 0 16.64917 0 3.490955 0.984628 4.095159 4.475583 3.692356 8.951167-1.029384 17.700932-2.416815 26.584965-3.177664a283.617711 283.617711 0 0 1 55.810523 0.380425 296.954949 296.954949 0 0 1 51.939144 10.002928 330.656091 330.656091 0 0 1 60.532263 24.615708c6.310572 3.33431 6.489596 3.22242 7.675626-3.75949 0.604204-3.513333 0.939872-7.093799 1.745477-10.562376 0.939872-4.028025 3.468577-4.811252 6.355328-1.790234a35.580887 35.580887 0 0 0 12.912058 8.235074c6.422462 2.551082 9.734394 7.071422 9.13019 14.27711a52.476214 52.476214 0 0 1-1.49932 10.584755 5.25881 5.25881 0 0 0 2.528704 6.534351A399.93812 399.93812 0 0 1 1282.359903 150.262561a517.511692 517.511692 0 0 1 53.706999 51.469207c3.021019 3.423821 6.064415 6.713375 9.197324 10.114819 2.461571 2.595838 2.886751 2.461571 4.475583-0.76085 1.879745-3.983269 3.065775-4.341316 6.713375-1.857367 0.96225 0.671337 1.834989 1.49932 2.864373 2.237792 7.384712 4.475583 9.13019 7.921782 6.221061 16.044966a7.809893 7.809893 0 0 0 2.237791 9.398725c10.942801 11.188958 21.90798 22.377916 33.29834 33.208828a73.847124 73.847124 0 0 0 5.952525 4.923141c1.812611 1.387431 2.909129 0.671337 3.356688-1.387431s0.671337-3.513333 1.208407-5.236432c1.007006-3.244798 2.595838-4.028025 5.818259-2.909129a11.81554 11.81554 0 0 1 2.640594 1.365053c9.197324 5.863014 18.327513 11.837918 27.614348 17.566664a8.525986 8.525986 0 0 1 4.475584 8.951166c-0.358047 3.33431-0.492314 6.713375-1.007007 10.047685a7.675625 7.675625 0 0 0 3.692357 8.548364 346.4549 346.4549 0 0 0 55.004918 29.471716c1.700722 0.716093 3.692356 2.506327 5.437834 0.626581a5.974904 5.974904 0 0 0 0.53707-6.22106c-0.872739-2.483949-3.200042-1.812611-5.124543-1.902123h-4.744119c-11.188958-0.469936-18.215624-8.727387-16.649169-19.961102 1.253163-8.951167 6.422462-15.664541 12.598767-21.728956a45.516682 45.516682 0 0 1 10.898045-8.235074 10.853289 10.853289 0 0 0 6.153927-8.145561 19.804456 19.804456 0 0 1 7.429468-12.531633 17.18624 17.18624 0 0 1 4.654607-2.551083 7.563736 7.563736 0 0 1 8.302207 12.374988 45.829973 45.829973 0 0 1-11.188959 8.794521 8.816899 8.816899 0 0 0-4.676984 8.951167c0.156645 2.237792 0 4.363694 0 6.556729a5.952526 5.952526 0 0 0 2.57346 5.012653c6.98191 5.504967 8.682632 15.485518 2.237792 21.751335s-4.475583 13.091081-5.48259 19.87159c-0.469936 3.132908 2.461571 3.669978 4.676985 4.475583a323.092355 323.092355 0 0 0 40.59354 11.614138c9.510614 2.081146 19.177874 3.177664 28.800378 4.475584 2.931507 0.380425 5.885392 0.738471 8.302207-1.879745a3.244798 3.244798 0 0 1 4.811252 0c3.849002 3.289554 8.391719 3.490955 12.979192 2.841995 7.675625-1.096518 15.485518 0 23.138765-1.655966 1.49932-0.290913 3.33431-0.447558 3.87138 1.678344a4.095159 4.095159 0 0 1-3.200042 4.900764 109.338499 109.338499 0 0 1-14.791803 1.49932c-3.155286 0-6.355328 0.11189-9.510614 0.313291-1.432187 0-2.909129 0.581826-2.819618 2.394437s1.678344 1.946879 3.065775 2.014012a109.786057 109.786057 0 0 0 18.372269-1.476942c0.783227 0 1.566454-0.358047 2.237791-0.402803 1.655966-0.11189 3.960891-1.07414 4.274183 1.588833 0.268535 2.237792-1.924501 2.819617-3.647601 3.132908-3.916135 0.693715-7.832271 1.365053-11.770784 1.700721-6.914776 0.604204-13.85193 0.939872-20.766706 1.387431h-1.790233c-1.566454 0.156645-3.446199 0.134267-3.558089 2.237792s1.790233 2.349681 3.379065 2.349681a64.560288 64.560288 0 0 0 8.324585-0.268535c7.877027-0.939872 15.664541-2.081146 23.586324-3.132908a6.914776 6.914776 0 0 1 1.163652-0.156646c1.297919 0 3.043397-0.917495 3.53571 1.051762a2.864373 2.864373 0 0 1-2.394437 3.535711 46.993624 46.993624 0 0 1-5.79588 1.275541 225.681286 225.681286 0 0 1-24.817109 2.774862 35.110951 35.110951 0 0 0-5.303566 0.693716c-1.633588 0.313291-3.33431 0.895117-2.931507 2.976262s1.969257 1.700722 3.401443 1.544077c3.535711-0.358047 7.116177-0.604204 10.651888-1.141274 6.847642-1.029384 13.695285-2.237792 20.542927-3.33431a26.428319 26.428319 0 0 1 2.931507-0.42518 1.700722 1.700722 0 0 1 1.834989 1.186029 2.528705 2.528705 0 0 1-0.402802 2.237792 6.825264 6.825264 0 0 1-4.744118 2.237792A255.578182 255.578182 0 0 1 1609.077481 402.86448c-3.33431 0.134267-6.422462 0.447558-7.698004 4.856008z" p-id="4978"></path><path d="M1119.001114 435.491482a17.902333 17.902333 0 0 0-7.40709-0.64896h-117.864485a67.558929 67.558929 0 0 1-11.188959-0.939872c-14.120465-2.237792-23.205899-11.345604-30.635367-22.55694-2.595838-3.916135-2.909129-8.637876-3.401443-13.158215-1.18603-11.054691-0.671337-21.840846 6.086793-31.329082a46.590822 46.590822 0 0 1 21.863224-16.76106 26.8535 26.8535 0 0 1 10.002929-0.917494h225.009948c5.437834 0.223779 5.997282 1.230785 2.886751 5.930148-14.277111 21.4828-28.688489 42.898466-42.898465 64.403643-21.326154 32.268955-42.719442 64.493155-63.754684 96.963511-28.755622 44.46492-57.265088 89.086485-85.036082 134.267498-12.374988 20.140125-24.414307 40.280249-36.476003 60.666531a8.951167 8.951167 0 0 1-6.914776 4.766496c-8.794521 1.454565-17.61142 1.834989-25.756982-1.879745-15.440762-7.093799-25.354179-18.730316-26.719232-36.364114a45.113879 45.113879 0 0 1 8.033672-30.344455c20.900974-30.187809 42.518041-59.81617 66.305766-87.810943q19.64781-23.09401 40.280249-45.248147c14.881314-16.00021 30.38921-31.329083 46.008996-46.546066 9.376347-9.107812 18.931717-18.058978 28.151419-27.368191 1.409809-1.454565 3.423821-2.461571 3.423821-5.124543z" p-id="4979"></path><path d="M996.459644 712.79862c5.169299-8.727387 9.823905-16.761059 14.679913-24.615707 13.046325-21.326154 26.070272-42.652308 39.317999-63.866574 12.822546-20.520549 25.913627-40.884453 38.870441-61.31549 29.091291-45.740461 58.764408-91.010986 88.638926-136.191999 16.179233-24.48144 32.694136-48.783857 48.940503-73.220542A8.570742 8.570742 0 0 1 1235.366279 349.157481c6.064415 0.358047 12.039319 1.297919 16.96246 4.856008 18.842206 13.695285 24.749975 26.137406 21.035241 48.403433a31.754263 31.754263 0 0 1-8.951166 17.119106c-10.517621 10.830911-22.377916 20.274392-33.566874 30.366832-7.071422 6.355328-13.896686 13.001569-20.968108 19.379275-14.970826 13.583395-29.628361 27.524837-44.375408 41.376768S1135.69504 539.369769 1121.462685 554.161572c-15.664541 16.492524-31.329083 33.18645-45.673327 50.909759-3.356687 4.162292-6.98191 8.123184-10.428109 12.218343-0.850361 1.007006-2.237792 2.058768-1.320297 3.602844 0.693715 1.163652 2.237792 1.029384 3.267175 0.850361 8.951167-1.320297 18.215624-0.693715 27.301058-1.678344 1.969257-0.201401 3.938513-0.380425 5.930148-0.469936 33.678764-1.655966 67.424662-1.767855 101.125804-1.051762 18.417025 0.402802 36.878806 0.626582 55.251075 2.237792A39.273243 39.273243 0 0 1 1293.548861 660.635698c0 6.33295 0.358047 12.621145-1.902123 18.819827a39.832691 39.832691 0 0 1-36.453626 25.891249c-12.688279 0-25.421313 0.380425-38.042457-0.380424-26.8535-1.61121-53.550354-1.051762-80.314342-0.716094-22.98212 0.290913-45.941862 1.342675-68.901604 2.976263-19.782078 1.409809-39.474644 3.602845-59.234344 5.258811-3.826624 0.313291-7.451846 1.7231-12.240721 0.31329z" p-id="4980"></path><path d="M1712.799123 615.72322c0.290913 35.804666-10.450487 64.627422-28.643733 90.85434-18.864583 27.189168-43.81596 47.396427-73.086275 62.277741A241.681496 241.681496 0 0 1 1533.91006 792.240223a354.533328 354.533328 0 0 1-42.652309 3.200042 190.570335 190.570335 0 0 1-43.099866-4.475583c-25.577958-5.415456-49.432817-14.679913-70.221902-30.881524a63.777061 63.777061 0 0 1-16.022588-17.454775 20.677195 20.677195 0 0 1-2.730106-6.534352 11.658894 11.658894 0 0 1 5.751125-13.74004 53.9084 53.9084 0 0 1 17.230995-6.288195c9.242079-2.237792 18.79745-3.155286 27.793372-6.467218a36.229846 36.229846 0 0 0 8.951167-4.60985c10.696644-7.720381 8.705009-18.618426 0.939872-25.846494a36.162713 36.162713 0 0 0-11.815539-6.713375c-10.965179-4.139915-21.997492-8.011294-33.253584-11.188958-12.621145-3.692356-25.040888-7.742759-35.200462-16.671547-6.042037-5.281188-11.502249-10.898045-13.896686-18.886962a39.922203 39.922203 0 0 1-0.760849-17.656176c2.237792-14.92607 8.772143-27.92764 17.410018-40.011714 13.068703-18.305136 29.85214-32.806025 48.000631-45.807595 36.699783-26.31643 77.897527-41.555791 122.250557-48.470566 28.957024-4.475583 57.712646-3.311932 85.841686 5.773502 1.946879 0.626582 4.945519 0.469936 5.348322 2.998641 0.335669 2.237792-2.394437 2.909129-3.871379 4.072781a384.90016 384.90016 0 0 0-34.775282 31.597618c-12.77779 12.979191-25.510825 26.070272-37.281609 40.034092-7.921782 9.398725-16.335879 18.372269-24.414306 27.614348a7.877027 7.877027 0 0 1-6.198683 2.886752c-13.919064 0.201401-23.429678 7.765137-30.344454 18.954095a62.255363 62.255363 0 0 0-8.951167 26.853499c-0.693715 7.228067 2.931507 10.249086 9.622504 7.541358a50.439823 50.439823 0 0 1 19.155496-3.468577c16.268745 0 25.376557-6.579107 30.792013-22.042247a21.281398 21.281398 0 0 1 8.011294-10.651889q29.874518-21.684201 58.182583-45.248146a710.364574 710.364574 0 0 0 58.988187-55.318209c3.177664-3.311932 3.267176-3.356687 6.87002-0.895117a145.456456 145.456456 0 0 1 49.969887 56.369971c9.286835 18.26038 14.008576 37.751545 13.270105 54.915407z" p-id="4981"></path><path d="M1461.830791 633.536041c1.857367-15.082716 7.742759-28.554221 21.124753-37.773923a19.625433 19.625433 0 0 1 12.956814-3.6476c5.504967 0.53707 8.816899-2.081146 12.106453-5.90777 15.888321-18.506537 32.00042-36.83405 48.873369-54.467848a507.061205 507.061205 0 0 1 57.265088-51.827254q31.597618-24.324795 63.329503-48.470567c2.416815-1.857367 4.676985-4.766496 8.36934-2.618216 4.318938 2.528705 8.503608 5.25881 9.622504 10.674266a5.393078 5.393078 0 0 1-1.857367 4.811252c-2.819617 3.043397-5.728747 6.019659-8.548364 9.085434-17.454775 18.976473-34.663392 38.176725-52.386702 56.929419a653.949848 653.949848 0 0 1-64.761689 58.652519q-23.09401 18.775072-47.239782 36.18509a14.366622 14.366622 0 0 0-5.751124 7.988916 36.050823 36.050823 0 0 1-6.713375 13.202971 19.737322 19.737322 0 0 1-14.747047 7.742759c-8.682632 0.492314-17.432397 0.581826-25.756982 3.916135-3.849002 1.544076-5.773502-0.179023-5.885392-4.475583z" p-id="4982"></path><path d="M706.285204 105.820019a21.997492 21.997492 0 0 1-2.57346 9.107812c-2.79724 6.131549-5.661613 12.24072-8.391719 18.394647-2.237792 5.281188-2.237792 5.728747 2.081146 9.734394 5.393078 4.967897 10.898045 9.823905 16.425391 14.635157a14.366622 14.366622 0 0 1 5.728746 10.62951c0.290913 7.630869-3.22242 12.643523-10.786155 14.030954-6.422462 1.18603-12.979191 1.655966-19.468788 2.439193-0.984628 0-1.991635 0-2.976262 0.156645-8.123184 0.671337-8.816899 1.275541-10.517621 9.24208-1.49932 6.98191-2.864373 13.986198-4.475583 20.968107a12.755412 12.755412 0 0 1-6.579108 9.398725 13.42675 13.42675 0 0 1-17.902333-4.095159c-4.475583-6.042037-8.794521-12.24072-13.247726-18.327513s-4.475583-5.952526-11.188958-3.714734l-19.7597 6.556729a20.140125 20.140125 0 0 1-6.400084 1.230786 13.247726 13.247726 0 0 1-12.554011-17.902333c1.969257-5.594479 4.699362-10.920423 7.093799-16.380635 1.18603-2.730106 2.237792-5.504967 3.580467-8.16794a5.482589 5.482589 0 0 0-1.499321-7.384712c-5.504967-4.83363-10.920423-9.801527-16.447768-14.612779a20.610061 20.610061 0 0 1-5.393078-6.243439 13.42675 13.42675 0 0 1 10.159574-19.737322c7.854649-1.051762 15.664541-1.745477 23.63108-2.483949 5.952526-0.559448 6.713375-0.984628 7.988916-6.713375s2.372059-11.658894 3.602844-17.477152c0.492314-2.237792 1.096518-4.632229 1.745478-6.914776a13.202971 13.202971 0 0 1 10.763777-9.801528 12.733034 12.733034 0 0 1 13.023948 5.393078c4.139915 5.303566 7.966538 10.875667 11.882673 16.358257 5.818258 8.167939 5.818258 8.212695 15.507896 5.102165 6.713375-2.237792 13.135837-4.475583 19.826834-6.422462a13.292482 13.292482 0 0 1 17.119106 13.001569z" p-id="4983"></path><path d="M453.817552 220.036904c10.002929 2.237792 19.64781 4.274182 29.315071 6.288194 13.42675 2.774862 13.695285 2.976263 13.74004 16.671548v33.320717a31.888531 31.888531 0 0 0 0 3.580467c0.358047 3.065775 1.409809 3.580467 3.692357 1.678344s5.169299-4.341316 7.563735-6.713375c22.377916-21.751335 48.00063-38.937574 74.809374-54.534982a32.627002 32.627002 0 0 1 5.348322-2.573461 7.250445 7.250445 0 0 1 8.727388 3.177665 7.116177 7.116177 0 0 1-1.745478 8.660253 23.608702 23.608702 0 0 1-3.938513 2.618216 397.498927 397.498927 0 0 0-65.634428 46.098508c-9.197324 8.123184-17.61142 17.163862-26.383564 25.756982a31.664752 31.664752 0 0 1-4.878385 4.318937 7.138555 7.138555 0 0 1-11.412738-4.766496 33.992055 33.992055 0 0 1-0.53707-7.093799c0-16.067344 0-32.134688-0.134267-48.202032 0-7.205689-0.201401-7.362334-7.451846-8.951166l-38.982331-8.257452c-0.984628-0.201401-1.946879-0.42518-2.909129-0.693715-3.22242-0.939872-5.90777-2.595838-6.422462-6.221061a8.05605 8.05605 0 0 1 4.028025-8.078427c9.286835-6.086793 18.484159-12.330232 27.972396-18.126113a514.938232 514.938232 0 0 1 83.536761-41.734814 69.37154 69.37154 0 0 1 7.854649-2.752483 7.093799 7.093799 0 0 1 5.102165 13.225348c-3.714734 1.834989-7.720381 3.132908-11.591761 4.676985A519.771862 519.771862 0 0 0 456.614792 216.724972a4.811252 4.811252 0 0 0-2.79724 3.311932z" p-id="4984"></path><path d="M572.51002 157.311605c7.40709 3.379065 7.921782 4.475583 4.967898 11.188958a39.899825 39.899825 0 0 1-2.237792 4.856008C570.249851 181.323109 570.316985 190.274275 570.742165 199.225442a13.42675 13.42675 0 0 0 2.372059 7.250445c1.49932 2.237792 1.07414 3.468577-1.163651 4.744118-3.781868 2.237792-7.451846 4.475583-11.188959 6.713375a397.028991 397.028991 0 0 0-45.785216 32.985048c-1.454565 1.208407-2.640594 2.998641-4.923142 3.088153-1.655966-1.655966-0.984628-3.75949-1.029384-5.639235-0.11189-5.348322 0-10.696644-0.134268-16.044966a17.902333 17.902333 0 0 0-12.822546-16.559658c-2.081146-0.581826-4.18467-1.07414-6.489595-1.655966 0.358047-2.68535 2.595838-3.043397 4.162292-3.938513a445.656203 445.656203 0 0 1 62.881945-29.494094 30.993414 30.993414 0 0 0 12.039319-8.302207 11.188958 11.188958 0 0 0 3.200042-8.05605 15.955454 15.955454 0 0 1 0.648959-7.004287z" p-id="4985"></path><path d="M223.034102 457.198061c0.290913 5.191677-2.237792 7.317579-6.33295 8.548364-13.829552 4.251804-27.591971 8.727387-41.421524 12.867302-16.917705 5.079787-33.566874 11.032313-50.059398 17.07435-10.428109 3.781868-20.72195 7.899404-31.082926 11.860295a3.960891 3.960891 0 0 1-4.475583-0.223779c-2.058768-1.767855-2.237792-4.005647 0.246157-5.236432a114.619687 114.619687 0 0 1 11.435115-4.967898c27.27868-10.226708 54.714005-20.005857 82.574511-28.487087 10.226708-3.11053 20.386282-6.467218 30.590612-9.689638a24.347173 24.347173 0 0 1 8.525986-1.745477z" p-id="4986"></path><path d="M105.594797 532.880174a3.132908 3.132908 0 0 1-3.625222-2.461571 2.79724 2.79724 0 0 1 1.253163-3.602845 51.200672 51.200672 0 0 1 5.393078-2.483948c32.806025-13.068703 66.3729-23.966748 100.029286-34.551503a18.931717 18.931717 0 0 1 2.886751-0.760849c1.432187-0.179023 2.237792 0.514692 2.237791 2.03639 0 3.177664-1.521698 5.035031-5.303566 6.243439-6.019659 1.946879-12.084075 3.87138-18.14849 5.706368-27.144412 8.235073-53.841267 17.745688-80.22483 28.151419-1.7231 0.738471-3.401443 1.320297-4.497961 1.7231z" p-id="4987"></path><path d="M315.633919 394.38325c0.402802 0.760849 0.895117 1.320297 1.767856 0.671337s1.342675-2.416815 3.490955-2.752484a17.365263 17.365263 0 0 1-4.028025 8.078428c-2.819617 0-3.267176 2.662972-4.251804 4.475583-8.816899 15.284117-16.604414 31.105304-24.145772 46.993625-2.03639 4.29656-4.095159 8.570742-6.153927 12.867302h-1.275541a587.66646 587.66646 0 0 1 28.643733-60.03995 57.153198 57.153198 0 0 1 5.952525-10.293841z" p-id="4988"></path><path d="M1054.776494 70.328644c44.576809 0.313291 80.426231 7.765137 115.201513 21.214265 13.561017 5.236432 26.249296 12.173586 39.273243 18.484158 5.549723 2.707728 5.79588 3.75949 4.856008 9.935795-0.626582 4.117537-1.141274 8.257451-1.745477 12.374988-0.693715 4.632229-1.655966 5.281188-5.795881 3.177664-8.503608-4.274182-17.18624-8.167939-25.891249-12.016941A279.723954 279.723954 0 0 0 1125.714489 106.334711a268.91542 268.91542 0 0 0-40.101226-4.923141 259.583829 259.583829 0 0 0-57.421733 2.953885c-5.191677 0.827983-5.191677 0.760849-5.079787-4.721741 0.223779-11.435115-2.439193-15.664541-12.844924-20.140124-0.53707-0.246157-1.118896-0.42518-1.633588-0.693716s-1.409809-0.895117-1.342675-1.790233a1.790233 1.790233 0 0 1 1.544076-1.544076c1.946879-0.447558 3.87138-0.939872 5.818258-1.208408 15.709297-2.03639 31.418594-4.318938 40.123604-3.938513zM1168.389175 218.201915c-5.303566 0.156645-9.980551-2.237792-14.881314-3.647601a3.849002 3.849002 0 0 1-2.864373-4.139914 11.658894 11.658894 0 0 1 0-1.767855c1.387431-9.577748 1.521698-8.682632 8.391718-4.475584 8.436474 5.214054 17.029594 10.137196 25.600336 15.14985 1.432187 0.850361 2.752484 2.237792 4.878386 1.61121 0-2.237792-2.03639-2.819617-3.423821-3.647601-9.331591-5.639235-18.730316-11.188958-28.106663-16.738681-0.335669-0.201401-0.693715-0.358047-1.051762-0.53707-5.124543-2.439193-5.952526-2.03639-7.228067 3.446199-2.058768 8.772143-2.103524 8.951167-11.054691 7.228067-12.442121-2.416815-24.996132-4.095159-37.594899-5.415456a81.254214 81.254214 0 0 0-11.188958-0.179023c-22.668829 0.827983-45.024368 3.6476-66.663813 10.763778a11.681272 11.681272 0 0 1-6.579107 1.141273c7.429468-6.579107 6.086793-15.373628 7.541358-23.362544 0.223779-1.163652 0.134267-2.394437 0.268535-3.558089 0.738471-6.467218 1.521698-7.250445 7.698003-8.749765 10.808534-2.618216 21.930358-3.244798 32.917915-4.788874a2.976263 2.976263 0 0 1 2.797239 0.693715c0.268535 1.879745-1.230785 3.244798-1.566454 4.990275-0.917495 4.72174 1.857367 7.854649 6.713375 7.183312a12.195964 12.195964 0 0 0 9.823905-7.809893c1.857367-4.72174 4.923142-5.437834 9.264458-5.236433a231.00723 231.00723 0 0 1 32.403222 4.028025 269.922426 269.922426 0 0 1 65.254004 21.751335 22.534562 22.534562 0 0 1 2.506327 1.588832c7.160933 6.153927 16.64917 8.302207 24.145772 13.96382 2.103524 1.588832 4.475583 2.707728 6.713375 4.274182 2.819617 2.03639 3.983269 4.274182 1.342674 7.2952a4.318938 4.318938 0 0 0-1.096517 4.788874c2.237792 6.400084 0.581826 8.033672-6.153927 6.713375l-22.937365-11.188958a6.713375 6.713375 0 0 1-2.483948-1.544076c-5.572101-7.51898-14.232355-10.293841-21.975114-14.478512-1.834989 1.096518 0.11189 3.401443-1.409809 4.654607z" p-id="4989"></path><path d="M1058.871653 130.18957a4.341316 4.341316 0 0 1 0 1.07414c-1.409809 1.700722 0.53707 4.72174-2.237792 5.818258a330.186155 330.186155 0 0 0-44.576809 7.407091c-4.83363 1.118896-5.393078 0.559448-5.572101-4.475584 0-1.387431 0.156645-2.79724 0-4.162292-0.783227-6.556729 0.335669-12.173586 6.713375-15.664542A8.525986 8.525986 0 0 0 1016.062699 116.427152c2.551082-5.303566 7.026666-6.713375 12.486877-7.541358a276.97147 276.97147 0 0 1 70.579948-0.872739 299.707433 299.707433 0 0 1 66.305766 16.223989c13.091081 4.654607 25.398935 11.188958 38.042458 17.029595a36.565515 36.565515 0 0 1 4.475583 2.819617 4.475583 4.475583 0 0 1 1.544076 5.818258c-0.671337 2.014012-2.439193 1.700722-4.005647 1.499321a14.769425 14.769425 0 0 0-12.554011 4.318937c-4.475583 4.251804-8.414097 3.75949-13.426749 1.476943a234.453429 234.453429 0 0 0-50.462202-15.664541c-9.510614-1.969257-19.200252-3.043397-28.800378-4.475584a4.83363 4.83363 0 0 0-3.468577-0.380424c-4.923142 1.096518-7.295201-1.49932-8.660253-5.683991-7.496602-5.616857-14.321866-12.643523-24.16815-14.568023-4.475583 0.313291-2.707728 4.318938-3.916135 6.579107-1.454565 2.14828 0.268535 4.923142-1.163652 7.183311zM1406.020268 314.964025c-0.827983 2.014012 0.358047 5.527345-2.237791 7.160933s-5.191677-0.760849-7.407091-2.237792a446.551319 446.551319 0 0 1-43.457913-34.1487c-16.984838-15.216983-33.566874-30.903902-50.081777-46.546066a92.197015 92.197015 0 0 1-10.002928-9.309213c-3.75949-4.811252-7.004288-9.913417-13.561018-11.188958Q1264.45757 207.259114 1249.464366 195.958266a8.257451 8.257451 0 0 1-2.909129-5.012653c-1.07414-4.18467-2.595838-5.549723-6.713375-4.788874a11.569383 11.569383 0 0 1-8.816899-2.237792c-5.549723-3.446199-11.188958-6.713375-16.940083-9.913417-4.475583-2.483949-5.706369-2.707728-3.22242-8.123184 2.014012-4.475583 1.61121-9.353969 2.707728-13.963819 0.783227-3.289554 1.566454-3.804246 4.475583-1.946879 6.713375 4.475583 13.986198 8.279829 20.677195 12.934436a558.575168 558.575168 0 0 1 57.444111 46.143263c12.576389 11.502249 24.235283 24.011504 36.319358 36.028445a5.191677 5.191677 0 0 1 1.409809 5.840636c-1.879745 6.310572 0.223779 8.794521 6.713375 7.586114a6.847642 6.847642 0 0 1 6.713375 2.237792 521.405449 521.405449 0 0 0 55.430098 48.515322c1.790233 1.230785 3.669978 2.528705 3.267176 5.706369z" p-id="4990"></path><path d="M1098.279163 143.124006a160.382526 160.382526 0 0 1 36.386492 5.818258 251.818692 251.818692 0 0 1 43.323646 14.635157c4.251804 1.946879 5.504967 2.237792 4.721741 7.362335-1.342675 9.085434 7.093799 14.299489 14.791802 8.951166 6.198683-4.274182 10.562376-2.394437 15.664542 0.626582 4.587473 2.752484 9.13019 5.594479 13.717662 8.324585a5.504967 5.504967 0 0 1 2.909129 6.937154 78.143684 78.143684 0 0 0-1.991634 13.426749c-0.358047 4.341316-1.409809 4.878386-5.214055 2.461571a270.772787 270.772787 0 0 0-40.414516-20.140124 241.032536 241.032536 0 0 0-71.609332-18.90934 28.285686 28.285686 0 0 1-4.028025-0.917494c-3.75949-3.468577-7.94416-0.335669-11.905052-0.604204-7.653247-0.514692-8.951167-2.058768-6.892398-9.309213a79.978673 79.978673 0 0 0 1.834989-13.046325c0.805605-6.489596 0-6.579107 6.55673-6.377707a3.6476 3.6476 0 0 1 2.148279 0.76085zM1348.240488 233.195119c-0.313291 1.969257-0.53707 3.938513-0.984628 5.863014-1.007006 4.207048-3.87138 5.393078-7.451846 3.021018a24.928999 24.928999 0 0 1-3.938513-3.602844c-7.026666-7.004288-14.075709-13.941442-20.990486-21.057619-20.811462-21.393288-44.062117-39.877447-68.140755-57.376978-8.705009-6.33295-17.902333-11.70365-27.16679-17.119106-3.311932-1.946879-4.856008-4.072781-4.028025-8.145561 0.96225-4.654607 1.118896-9.443481 1.745477-14.165221s1.476942-4.878386 5.169299-2.640594a396.447165 396.447165 0 0 1 61.830183 46.210397c5.863014 5.325944 11.905051 10.472865 17.745687 15.843565 11.972185 11.009935 22.646451 23.273033 33.566875 35.245218 3.22242 3.513333 6.467218 6.98191 9.801527 10.383353a8.794521 8.794521 0 0 1 2.841995 7.541358zM1026.669831 168.433429c-2.483949 3.267176-1.18603 7.586114-4.005647 10.09244s-6.713375 2.103524-10.047684 3.33431c-4.29656 1.566454-8.59312 3.11053-12.912058 4.475583-1.633588 0.559448-3.22242 1.61121-5.102165 1.007006-1.007006-1.633588 0.358047-2.640594 1.051762-3.669978a60.756043 60.756043 0 0 0 9.555371-27.256302c0.626582-5.281188 0.895117-5.818258 5.639235-7.004288a254.235507 254.235507 0 0 1 42.20475-7.116177c3.580467-0.268535 4.095159 0.335669 3.804245 4.07278 0 0.984628-0.313291 1.946879-0.358046 2.931508a4.207048 4.207048 0 0 1-4.29656 4.632228c-5.012653 0.42518-8.05605 3.960891-10.920423 7.563736a7.004288 7.004288 0 0 0-1.409809 3.200042c-0.42518 2.57346-0.760849 5.348322 1.700722 7.116177a6.400084 6.400084 0 0 0 7.317578 0 16.1121 16.1121 0 0 0 8.772143-11.367981c0.827983-4.900764 1.566454-9.801527 2.237792-14.702291a4.117537 4.117537 0 0 1 3.75949-3.87138 66.059609 66.059609 0 0 1 20.140125 0 2.528705 2.528705 0 0 1 2.439193 3.311932c-1.029384 7.250445-2.058768 14.523268-3.155287 21.773712a4.139915 4.139915 0 0 1-4.050403 3.669979c-2.237792 0.246157-4.318938 0.716093-6.489595 0.827983a229.93309 229.93309 0 0 0-39.474645 5.102165c-0.96225 0.201401-1.924501 0.447558-2.909129 0.581825a2.707728 2.707728 0 0 1-3.490955-2.931507c-0.067134-1.834989 0-3.804246 0-5.773502zM1390.915175 325.548779a8.145562 8.145562 0 0 1-0.827983 1.521698c-0.760849 0.917495-1.678344 1.678344-2.461571 2.573461-4.475583 5.146921-4.475583 5.236432-10.316219 1.208407-6.713375-4.744118-13.42675-9.712016-20.140125-14.724669s-13.42675-9.846283-19.737322-15.194605c-13.96382-11.726028-27.70386-23.720591-41.533413-35.603265-6.914776-5.930148-13.896686-11.81554-20.83384-17.723309a26.8535 26.8535 0 0 1-2.68535-2.349681c-1.834989-2.103524-1.365053-3.849002 1.365053-4.050403a15.239361 15.239361 0 0 0 10.114818-4.475584c2.416815-2.461571 4.475583-1.61121 6.713375 0.447559 4.587473 4.475583 9.309213 8.637876 13.919064 12.979191 8.503608 8.033672 17" p-id="4991"></path></svg>