<?xml version="1.0" standalone="no"?><!DOCTYPE svg PUBLIC "-//W3C//DTD SVG 1.1//EN" "http://www.w3.org/Graphics/SVG/1.1/DTD/svg11.dtd"><svg t="1651276050159" class="icon" viewBox="0 0 1153 1024" version="1.1" xmlns="http://www.w3.org/2000/svg" p-id="8168" xmlns:xlink="http://www.w3.org/1999/xlink" width="225.1953125" height="200"><defs><style type="text/css">@font-face { font-family: feedback-iconfont; src: url("//at.alicdn.com/t/font_1031158_u69w8yhxdu.woff2?t=1630033759944") format("woff2"), url("//at.alicdn.com/t/font_1031158_u69w8yhxdu.woff?t=1630033759944") format("woff"), url("//at.alicdn.com/t/font_1031158_u69w8yhxdu.ttf?t=1630033759944") format("truetype"); }
</style></defs><path d="M579.514732 742.400468a400.017574 400.017574 0 0 1-204.718596-50.924298C261.177073 628.165319 196.196307 500.21417 210.787796 370.820085c10.165404-90.710426 52.513149-163.505745 121.076936-222.666127 46.417149-40.061745 100.227319-65.969745 156.826085-87.548937A860.492553 860.492553 0 0 1 659.881413 15.630809c40.20766-6.404043 80.658511-12.208213 121.239064-15.094085 25.632383-1.81583 51.767362 1.34566 77.513234 3.972127a52.124043 52.124043 0 0 1 37.289361 22.341192c37.289362 52.448298 44.77966 109.290255 23.086979 169.780085-2.399489 6.744511-6.695872 12.970213-10.830127 18.887872-8.106383 11.689404-18.563617 18.920298-33.609064 21.287362-35.976128 5.674468-71.692851 13.099915-107.474426 19.974128a17.671915 17.671915 0 0 0-7.068766 3.40468c-29.863915 22.876213-61.608511 24.724468-95.233787 9.144a31.987787 31.987787 0 0 0-13.797064-2.772383c-21.076596 0.567447-41.066936 6.112213-60.506042 13.780851a14.76983 14.76983 0 0 0-7.003915 6.906639c-14.072681 29.182979-37.175872 45.395745-69.179873 49.578638-2.983149 0.389106-6.922851 2.561617-8.26851 5.074596-7.522723 13.942979-14.591489 28.145362-21.271149 42.493659-1.183532 2.529191-0.648511 6.322979 0.17834 9.241277 5.609617 19.763362 4.620638 38.910638-4.166681 57.636383a14.591489 14.591489 0 0 0-1.345659 8.446851c2.188723 10.830128 4.620638 21.62783 7.538936 32.279617s7.182255 20.10383 17.299021 27.010468c10.84634 7.393021 15.71017 19.568809 17.947532 32.506596 0.405319 2.318426 0.486383 5.463702 1.961745 6.695872q16.455957 13.667362 33.560425 26.507872c1.329447 0.988979 4.555787 0.210766 6.566171-0.599872 23.168043-9.241277 43.677191-3.437106 58.85234 16.47217a11.965021 11.965021 0 0 0 7.701064 4.539575c17.509787 0.859277 35.068213 1.394298 52.594213 1.361872a13.407957 13.407957 0 0 0 9.03051-4.86383c11.13817-14.234809 27.561702-17.072043 43.125958-7.198468a12.224426 12.224426 0 0 0 7.879404 1.913107c33.560426-6.047362 60.830298-22.957277 82.377064-49.076043a104.361574 104.361574 0 0 0 13.310681-21.076596c4.539574-9.43583 2.026596-15.612894-6.825575-21.076595-16.828851-10.214043-22.162851-30.074681-12.645957-46.287447a34.046809 34.046809 0 0 1 46.579276-12.110936c16.212766 9.484468 21.076596 29.442383 11.900171 46.66034a21.076596 21.076596 0 0 0-2.172511 12.759447c2.853447 15.304851 0.907915 30.155745-2.75617 44.925574-18.304213 73.914-64.008 125.405745-131.420681 158.333873-50.437915 24.56234-93.304468 32.782213-162.322213 33.009191zM909.087838 131.552085c-0.664723-6.485106-1.070043-15.71017-2.577829-24.724468-4.085617-24.546128-12.418979-47.470979-28.242639-67.056-16.212766-20.022766-38.618809-19.714723-52.221319 1.621277a92.720808 92.720808 0 0 0-13.099915 32.620085c-6.631021 37.289362 1.524 72.957447 16.212766 107.182596a54.539745 54.539745 0 0 0 16.407319 21.708893c23.232894 17.185532 35.668085 16.212766 48.638298-5.706893 11.365149-19.439106 13.926766-40.985872 14.883319-65.64549zM491.57669 336.49766c-25.535106-4.166681-45.509234-16.650511-58.78749-38.991702-12.970213-21.80617-15.515617-45.395745-10.797702-70.525532-37.62983 24.594766-85.084596 99.64366-83.933489 132.231319 19.455319-19.779574 42.590936-30.269234 70.525532-27.885958s49.043617 17.34766 65.369872 39.088979c5.966298-11.381362 11.478638-22.114213 17.623277-33.917106zM688.496945 115.550085c-14.348298 0-35.668085 9.030511-48.508596 31.209575-27.707617 47.616894 7.830766 110.943957 62.986596 113.392085 47.503404 2.10766 84.484723-48.395106 69.828383-95.36349-9.970851-31.987787-35.34383-48.994979-84.306383-49.23817z m-68.190894 25.745873l-94.034042 26.118766 0.535021 2.286c46.076681 14.899532 67.980128 46.109106 63.618894 94.698766l49.935319-12.094724c-30.415149-31.695957-36.10583-68.028766-20.055192-111.008808z m-118.353191 44.017659c-37.127234-0.097277-62.95417 25.681021-63.327064 63.229787-0.405319 40.013106 27.237447 69.714894 65.094255 70.022937 38.910638 0.275617 68.515149-29.182979 68.40166-67.947703-0.097277-37.240723-30.139532-65.191532-70.152638-65.305021zM335.36669 414.740468c-0.340468 35.003362 30.642128 65.872468 66.358851 66.131873 36.28417 0.259404 67.137064-28.356128 67.509957-62.59749 0.372894-35.668085-31.53383-68.093617-67.461319-68.353021-35.63566-0.29183-66.067021 29.458596-66.407489 64.818638zM475.980009 504.218724c-3.015574-10.505872-5.998723-20.930681-9.208851-32.133703-17.039617 16.877489-36.673277 26.702426-59.987234 27.950809-23.622 1.280809-43.969021-7.214681-62.516426-22.697872C350.217583 502.597447 378.638562 555.937447 400.477158 573.771489c3.129064-49.254383 25.389191-69.877021 75.502851-69.552765z m-17.736766 116.407659a286.771404 286.771404 0 0 0 91.504851 32.117489c-14.980596-19.325617-16.099277-38.116213-1.99417-56.825744L520.646179 575.554894c-9.662809 28.696596-29.977404 43.466426-62.402936 45.022851z m5.366425-102.918638a49.335447 49.335447 0 0 0-48.94634 48.930127c-0.081064 23.135617 19.374255 40.159021 45.687574 39.964469 27.432-0.194553 48.18434-20.411872 48.330256-47.114298 0.129702-23.946255-19.147277-41.812723-45.07149-41.828937zM842.680349 228.601702C802.894221 201.769575 797.689924 160.118979 789.421413 119.97617l-20.606426 1.199745c32.814638 38.002723 33.722553 77.54566 9.241277 120.169021z m-157.26383 391.651787h-55.123404c0.875489 14.153745-4.620638 26.19983-16.115489 36.608426A269.375106 269.375106 0 0 0 693.928221 640.292468c-2.804809-6.776936-5.398851-12.856723-8.479276-20.10383z m-101.070383 35.959915c18.920298-0.17834 35.084426-15.158936 34.906085-32.425532-0.17834-17.607064-16.94234-33.155106-35.489744-32.928127-19.001362 0.226979-35.165489 15.191362-34.970936 32.344468 0.243191 17.526 17.05583 33.106468 35.587021 32.94434z m155.642554-36.608425a22.697872 22.697872 0 0 0-22.697873-22.535745A21.903447 21.903447 0 0 0 695.549498 618.664638c-0.308043 12.240638 9.889787 22.292553 22.778936 22.454681a21.498128 21.498128 0 0 0 21.676468-21.579191z m8.430638-5.431277l12.273064-9.095361-1.05383-1.621277-13.262043 4.036979c0.680936 2.10766 1.199745 3.728936 2.059022 6.614808zM148.530775 848.74h37.419064V909.537872c2.091447-1.426723 4.231532-2.739957 6.209489-4.263957 11.624553-8.917021 24.837957-11.494851 39.024128-9.533106 15.142723 2.091447 27.123957 14.218596 28.031872 33.12268 1.459149 30.107106 0.389106 60.327702 0.389106 91.131958h-37.289361v-14.332085c0-19.455319 0.17834-38.910638-0.097277-58.365958-0.097277-7.522723-0.194553-15.693957-9.160213-18.920298-7.652426-2.739957-20.736128 2.123872-25.129787 9.273703a13.845702 13.845702 0 0 0-1.215957 6.906638v75.567702H148.530775zM125.297881 878.441787l-19.455319 23.946256c-3.242553-2.253574-6.177064-4.474723-9.289915-6.485107-19.585021-12.159574-42.704426-4.377447-51.978128 17.834043-6.955277 16.618085-6.955277 33.754979-1.313234 50.664893 8.641404 26.345745 35.830213 34.306213 57.847149 17.34766 2.10766-1.621277 4.118043-3.388468 6.776937-5.577192l20.071404 23.767915c-16.764 18.839234-37.435277 26.329532-61.349107 23.184256C23.70869 1017.628383-0.837438 986.662 0.021839 940.163787c0.599872-31.42034 11.462426-57.522894 39.932042-73.768085s63.521617-11.170596 85.344 12.046085zM534.783711 955.533489c-0.097277 42.153191-26.151191 69.406851-62.484 68.093617-23.086979-0.875489-40.434638-12.062298-50.843234-33.009191-14.591489-29.491021-6.193277-67.99634 19.066213-84.987319 19.730936-13.278255 40.888596-14.591489 61.997617-3.712724 23.103191 11.786681 31.631106 32.490383 32.263404 53.615617z m-82.11766 2.075234c1.621277 7.409234 2.626468 15.71017 5.220511 23.492298 2.512979 7.522723 8.803532 11.624553 16.828851 11.592128a17.072043 17.072043 0 0 0 16.893702-11.575915 58.96583 58.96583 0 0 0-0.145915-44.082511 16.780213 16.780213 0 0 0-16.407319-11.02468c-8.025319 0-14.29966 3.615447-17.136894 11.105744-2.318426 6.193277-3.372255 12.954-5.252936 20.492936zM353.314222 940.958213c-2.237362-11.786681-9.338553-17.526-20.833405-15.272426-10.181617 2.010383-19.99034 5.933872-30.625915 9.208851L289.273796 911.159149c23.346383-14.072681 47.53583-21.076596 74.043702-12.970213 14.591489 4.507149 24.513702 15.791234 25.794511 30.528638 2.626468 30.204383 2.902085 60.619532 4.166681 91.391362h-32.328256c-0.907915-3.51817-1.832043-7.084979-3.064212-11.802893-2.999362 2.140085-5.479915 3.972128-8.02532 5.706893-11.348936 7.701064-23.573362 11.802894-37.419063 8.446851-14.510426-3.51817-24.481277-13.861915-26.556511-28.210213-2.253574-15.515617 1.183532-29.020851 15.24-38.116212 12.970213-8.414426 27.788681-11.348936 42.753064-13.651149 3.096638-0.372894 6.339191-0.972766 9.43583-1.524z m-0.778213 22.795149c-7.976681 2.642681-16.002 4.555787-23.33017 7.944255-5.982511 2.772383-9.72766 8.333362-6.874213 15.304851s9.387191 8.106383 15.629106 6.485106c15.402128-4.036979 17.850255-8.85217 14.575277-29.734212zM1136.244902 987.002468l12.532468 22.876213c-23.751702 14.591489-48.119489 19.293191-73.460042 7.295745-23.200468-10.95983-32.328255-31.06366-32.911915-55.998894-0.421532-17.461149 3.972128-33.138894 15.385915-46.498213a57.668808 57.668808 0 0 1 61.835489-16.958553c19.179702 6.404043 31.939149 25.000085 33.34966 49.157106 0.437745 7.44166 0 14.94817 0 23.346383h-72.50349c1.442936 22.924851 23.91383 29.53966 55.771915 16.780213z m-16.212766-41.91c-0.210766-13.262043-6.128426-20.055191-17.282808-20.75234-12.451404-0.794426-21.562979 7.214681-23.15183 20.75234zM822.835924 987.959021v32.312043h-100.40566v-159.857872H760.400562v127.545829zM905.018434 897.605277h38.732298c8.009106 30.933957 16.018213 61.835489 24.643404 95.201361 8.576553-33.009191 16.553234-63.813447 24.627192-94.909532h37.094808l-39.640212 122.714426c-13.878128 0-27.367149 0.17834-40.839958-0.210766-1.848255 0-4.636851-2.529191-5.285362-4.458511-13.148553-39.056553-26.037702-78.19417-39.33217-118.336978zM646.765285 911.159149l-16.407319 22.130425c-2.707532-1.621277-4.86383-3.048-7.32817-4.134255a81.842043 81.842043 0 0 0-13.456596-5.398851c-8.722468-2.156298-16.407319 0.47017-17.493574 5.755532-1.864468 9.014298 5.674468 10.505872 11.348936 12.970213 8.106383 3.566809 16.731574 6.177064 24.594766 10.246468 12.743234 6.598596 19.812 17.201745 19.260766 32.052638s-7.701064 25.599957-20.736128 32.425532c-23.054553 11.965021-57.944426 7.003915-77.642936-11.203021l16.326255-22.989702c5.382638 2.983149 10.051915 6.485106 15.288639 8.252298a74.157191 74.157191 0 0 0 18.774383 3.81c5.188085 0.372894 11.559702-1.280809 11.478638-7.457873 0-3.680298-4.166681-8.252298-7.668638-10.668-4.555787-3.145277-10.37617-4.361234-15.515617-6.728298a110.473787 110.473787 0 0 1-15.791234-8.106383c-23.297745-15.564255-21.352213-47.811447 3.485744-60.992425 21.368426-11.284085 52.934681-6.971489 71.482085 10.035702zM886.130562 897.945745v122.228042h-37.289362v-122.228042zM867.745285 841.817149c13.489021 0 21.319787 7.344383 21.076596 19.779574-0.145915 11.575915-8.592766 19.455319-21.076596 19.45532-13.180979 0-21.400851-7.490298-21.481915-19.763362s7.814553-19.487745 21.481915-19.471532z" p-id="8169"></path><path d="M646.797711 187.713107c0-34.354851 24.140809-60.100723 55.236893-58.900979 24.789319 0.956553 49.303021 20.379447 56.744681 44.974213 7.376809 24.319149-1.621277 52.642851-21.51434 67.52617-12.208213 9.176426-25.940426 11.705617-40.661617 8.511702-28.242638-6.144638-49.805617-33.301021-49.805617-62.111106z m94.633915 4.555787l-2.042809-0.859277c0-18.547404-14.737404-36.413872-32.94434-40.013106-13.375532-2.642681-24.659617 2.367064-31.71217 14.072681a42.558511 42.558511 0 0 0 23.21668 62.127319c12.435191 4.069404 25.194638 0.94034 32.344469-9.987064 4.977319-7.62 7.506511-16.828851 11.13817-25.340553zM510.415924 306.131149c-32.085064 0.113489-57.62017-24.902809-57.73366-56.56634-0.097277-29.377532 20.298383-51.297191 47.924936-51.507958a58.706426 58.706426 0 0 1 58.868553 58.641575c0 28.210213-20.946894 49.319234-49.059829 49.432723zM471.813328 249.062213a37.970298 37.970298 0 0 0 38.537745 38.489106c17.315234 0 29.766638-12.613532 30.07468-30.36651 0.356681-21.887234-17.299021-40.353574-38.910638-40.629192-17.153106-0.210766-29.604511 13.391745-29.701787 32.506596zM404.368222 466.361915c-28.923574-0.17834-53.502128-23.573362-53.502128-51.070213 0-27.950809 24.919021-51.734936 53.972298-51.378255 28.793872 0.356681 53.502128 23.930043 53.599404 51.216128 0.145915 27.804894-24.756894 51.394468-54.069574 51.23234z m0.162127-16.488383c19.925489 0 36.981319-15.515617 37.289362-34.046808 0.275617-18.952723-17.461149-35.538383-37.873021-35.424894-19.455319 0.097277-36.608426 16.618085-36.39766 35.084425s17.169319 34.306213 36.981319 34.387277zM462.085668 527.662383c19.244553-0.113489 35.668085 15.126511 35.814 33.34966 0.194553 19.293191-16.601872 36.024766-36.219319 36.089617-19.244553 0-34.889872-14.883319-34.695319-33.155107 0.226979-19.730936 16.115489-36.154468 35.100638-36.28417z m0.551234 14.380723c-11.770468-0.113489-21.076596 9.43583-21.271149 21.74132-0.129702 10.84634 8.106383 18.741957 19.763362 18.920297a21.595404 21.595404 0 0 0 22.373617-20.719914c0.259404-11.057106-8.884596-19.812-20.849617-19.941703zM584.605541 597.150298a25.340553 25.340553 0 0 1 25.50268 25.697234 26.053915 26.053915 0 0 1-25.940425 25.599957 26.426809 26.426809 0 0 1-26.167404-25.518893c-0.259404-14.056468 11.835319-25.72966 26.605149-25.778298z m-0.421532 40.013106a14.737404 14.737404 0 0 0 14.591489-14.234808 14.121319 14.121319 0 0 0-14.169957-14.429362c-8.446851 0-15.483191 6.712085-15.256213 14.478a15.077872 15.077872 0 0 0 14.834681 14.18617zM716.917924 600.684681c8.625191-0.259404 17.169319 8.398213 17.623276 17.834042s-6.793149 17.834043-15.775021 18.077235a17.623277 17.623277 0 0 1-17.99617-16.958554c-0.226979-9.743872 7.393021-18.693319 16.147915-18.952723z m12.256851 18.644681l-12.094724-9.987064c-2.642681 3.323617-7.457872 6.712085-7.32817 9.922213s4.993532 7.425447 8.511702 8.317149c2.237362 0.551234 5.80417-4.182894 10.911192-8.252298z" p-id="8170"></path></svg>