<?xml version="1.0" standalone="no"?><!DOCTYPE svg PUBLIC "-//W3C//DTD SVG 1.1//EN" "http://www.w3.org/Graphics/SVG/1.1/DTD/svg11.dtd"><svg t="1651276031461" class="icon" viewBox="0 0 1083 1024" version="1.1" xmlns="http://www.w3.org/2000/svg" p-id="6903" xmlns:xlink="http://www.w3.org/1999/xlink" width="211.5234375" height="200"><defs><style type="text/css">@font-face { font-family: feedback-iconfont; src: url("//at.alicdn.com/t/font_1031158_u69w8yhxdu.woff2?t=1630033759944") format("woff2"), url("//at.alicdn.com/t/font_1031158_u69w8yhxdu.woff?t=1630033759944") format("woff"), url("//at.alicdn.com/t/font_1031158_u69w8yhxdu.ttf?t=1630033759944") format("truetype"); }
</style></defs><path d="M348.598983 568.264095c-3.883482 2.472333-1.422438 6.028429-0.180628 7.845989 3.138396 4.639858 7.315397 8.579786 11.074699 12.790655 2.969058 3.386758 6.85254 6.231634 8.715256 10.160274 5.520415 11.458531 10.442503 23.221869 15.161386 34.996497 1.96432 4.944666 4.820485 8.195954 9.889333 9.889333a453.024015 453.024015 0 0 0 81.53055 19.485147c30.661447 4.222158 61.458365 8.80557 92.323018 9.990935 42.898932 1.659511 86.00107 0.270941 129.012895 0.248362 4.425364 0 8.862016 0.722508 13.264801 0.56446 11.131144-0.395122 22.296156-0.666062 33.359565-1.783692 21.449466-2.178814 42.989246-4.357628 64.348398-7.575049 16.843476-2.540068 33.472456-6.615467 50.180462-10.06996 6.559021-1.354703 13.084174-2.878744 19.631906-4.301182s13.027728-2.257839 19.191628-4.380207c2.811009-0.98216 5.272053-4.154423 6.98801-6.897697 13.095464-20.952742 30.255037-38.281653 48.351613-54.786452 2.122368-1.941741 4.922088-3.160974 7.529891-4.797907l15.285567 8.049194c-0.056446 0.474146-0.124181 0.948292-0.191916 1.422439l-11.661736-2.167525c2.506201 3.510939-1.806271 4.775329-4.109266 7.044456q-19.248074 18.898109-38.383256 37.886531c-0.98216 0.970871-1.512752 2.404598-2.765852 4.515677l16.425776-3.21742c0.869268-3.49965 8.557208-7.349264 11.797206-6.118742 2.348152-2.201393 3.985085-4.764039 6.231634-5.531705 1.885295-0.643484 4.515677 0.801533 6.773516 1.309546l-5.644596 3.657699 5.644596 3.386758c-8.579786 4.809196-15.80487 9.550657-23.594413 13.016439-7.281529 3.251288-15.150097 5.215607-22.79288 7.642783s-15.443616 5.012402-23.267026 7.146059c-5.125294 1.39986-10.668287 1.501463-15.601665 3.319023-11.165012 4.120555-22.250999 8.557208-33.009599 13.614767-6.875118 3.228709-13.129331 7.812121-20.185077 12.102014 10.013514 6.479997 19.812533 10.984385 26.032879 20.128631s4.605991 14.066334-0.722509 21.280128c-6.412261 8.681389-16.109678 13.626056-26.619916 16.933789-6.85254 2.111079-13.298669 5.486548-20.015739 8.060484-7.631494 2.93519-15.421037 5.475258-23.029953 8.489473-1.761114 0.69993-2.93519 2.765852-4.583412 3.894771-4.583412 3.138396-9.268427 6.118742-13.919575 9.155536v1.772403c4.041531 1.580487 8.060484 3.206131 12.124593 4.718882 3.714144 1.377282 8.150797 2.867455 8.658811 6.942854 0.485435 3.906061-1.241811 8.083062-2.009476 12.147171l-4.086688-1.128919c-0.970871 4.233447-5.475258 2.788431-9.336163 3.104528-44.219768 3.63512-88.529849 4.515677-132.862509 3.883482-23.131556-0.316097-46.28569-1.591776-69.383378-2.472333-11.006963-0.428989-22.025215-0.767665-33.0096-1.546619-4.459231-0.316097-8.828149-1.930452-13.298669-2.449755-1.761114-0.203205-3.680277 0.98216-5.58815 1.546619 0.293519-2.731985 0.530592-4.843064 0.722508-6.626756h-14.111491l-0.541881-2.257838L522.689624 777.82538c-2.257839-1.806271-4.143134-3.465782-6.186478-4.820486-19.609328-12.959993-41.702278-20.546331-63.275925-29.351901-9.245849-3.759301-17.848214-8.862016-23.978246-17.159573a23.007375 23.007375 0 0 1-2.811009-4.865642c-2.257839-5.486548-0.643484-8.139508 5.170451-7.812121 4.865642 0.28223 7.225083-1.727246 9.753862-5.723621 2.946479-4.639858 7.326686-8.410449 11.289193-12.418112a57.789378 57.789378 0 0 1 5.892959-4.685015c-0.722508-1.128919-1.038606-2.054633-1.704669-2.528779-12.418112-8.760414-24.61044-17.577273-40.144369-20.614066-41.555518-8.094351-82.772361-17.701454-120.117011-38.620328-9.821598-5.497837-18.570722-13.298669-26.755386-21.144658-3.928639-3.759301-5.813934-9.9232-7.902435-15.285567-2.257839-5.780067 1.580487-9.900622 7.529891-8.037906a17.170862 17.170862 0 0 0 14.382432-1.614354c1.309546-0.745087 1.95303-2.664249 2.912612-4.041531 0.112892-0.643484 0.214495-1.275679 0.327386-1.919163 0.948292-1.975609 1.603065-4.188291 2.93519-5.859091 0.98216-1.2531 2.833587-1.828849 4.301183-2.698117l0.993449 1.998187-4.605991 1.320836 4.177001 1.941741-5.712331 11.514976 0.846689 0.530592c1.68209-2.393309 3.386758-4.797907 4.888221-6.999299 1.39986 0 3.849615 0.69993 4.718882-0.169338 1.128919-1.128919 1.377282-3.533517 1.422439-5.396234 0.079024-3.025504-0.304808-6.073586-0.530593-9.810309a5.915537 5.915537 0 0 1 2.94648 0.643484c1.128919 0.745087 1.806271 2.336863 2.969057 3.985085l-2.743273 3.567385a27.873017 27.873017 0 0 1 0.982159 5.159161c0 1.411149-0.643484 2.822298 0.101603 4.639859 0.733798-1.591776 1.467595-3.194842 2.675539-5.802645 0.948292 2.257839 1.445017 3.386758 1.388571 3.262576l9.437765-2.619092 1.445016 1.501462-2.78843 5.475259a44.919698 44.919698 0 0 1 6.694491 3.160974c17.47567 11.864942 31.090437 27.534341 43.406946 44.479419 3.522228 4.854353 8.624943 6.999299 15.737135 7.55247-1.038606-2.607804-1.445017-5.012402-2.754563-6.705781-11.819785-15.262989-23.62828-30.48082-35.843187-45.472868-3.612542-4.414074-8.478184-7.789543-13.095464-10.645709l-8.128219-2.562646 0.158049 0.191916 5.159161-0.812822 1.365993 1.332125 2.686827-8.229822 4.797907 1.794982-3.793168 4.967245 6.118742 4.854353c1.851428-2.969058 1.614355-3.386758-3.454493-4.831775 3.036793-3.386758 5.068848-3.07066 6.446129 0.248362l6.265502-4.357628z m277.070657 167.859007l3.386758-0.191917c0-9.889333 0.349965-19.801244-0.101603-29.679287-0.485435-10.600552-0.812822-10.589263 10.160273-10.577974 8.489473 0 8.53463 0.248362 7.484735 8.579786-1.275679 10.06996-1.298257 20.117341 2.144947 30.142145a277.341598 277.341598 0 0 0 6.42355-32.975732c0.756376-5.441391 2.573936-6.694491 10.160274-5.768777 5.746199 0.69993 2.878744 4.515677 2.619093 7.247661-1.219233 12.327798-2.540068 24.655597-3.815747 36.983396l1.840138 0.293519a6.683202 6.683202 0 0 0 1.128919-1.81756c2.765852-12.418112 5.430102-24.836224 8.286268-37.254336 0.451568-1.96432 1.501463-5.080137 2.754563-5.339788 4.391496-0.914425 9.031354-0.812822 14.67595-1.12892-4.515677 17.148284-7.958881 32.817683-4.707593 49.141856a407.539858 407.539858 0 0 0 10.216719-41.341024c1.478884-7.428289 2.09979-8.2524 9.753863-8.410448 4.605991-0.090314 5.31721 1.343414 3.883482 5.768777a138.857071 138.857071 0 0 0-6.863829 41.837749 13.264801 13.264801 0 0 0 1.772403-2.257839c5.057558-13.072885 10.329611-26.066746 15.003337-39.275101 2.494912-7.055745 7.033167-9.257138 14.246962-5.384945-6.897697 13.547031-11.210168 27.816571-11.210169 43.3505 6.773516-12.689053 12.779366-25.682913 18.356228-38.857402 3.251288-7.676651 12.835812-11.435952 21.449466-7.281529a108.681058 108.681058 0 0 0-18.062709 39.952453c1.128919-0.790243 1.693379-1.004738 1.975609-1.411149 8.613654-12.542293 17.249887-25.062008 25.773227-37.660747 3.262577-4.820485 7.078324-6.028429 11.458531-3.804458q-9.200692 15.612954-18.446541 31.32751c7.067035-5.03498 12.971282-10.713444 18.909398-16.35804 1.512752-1.433727 3.646409-2.494912 4.515677-4.210869 3.285155-6.29937 7.417-11.526266 13.829261-15.048494 4.075399-2.257839 7.631494-5.430102 11.424663-8.184665l-0.903135-1.964319c-5.486548 0.338676-11.006963 0.406411-16.470933 1.038605-19.541593 2.257839-39.026739 5.215607-58.624778 6.988011-21.596226 1.96432-43.282765 2.890033-64.935436 4.33505-11.60529 0.767665-23.21058 2.494912-34.793292 2.336863-17.249887-0.248362-34.488484-1.557909-51.704503-2.811009-34.996497-2.562647-69.992995-5.373656-104.989492-8.139508-6.954143-0.55317-13.885707-1.332125-21.054345-2.032055l43.406946 43.813357 1.12892-0.767665-17.396647-29.667999c6.626756-1.806271 9.031354-0.56446 13.276091 5.88167 7.823411 11.763339 15.872605 23.379918 23.820197 35.064232l2.359441-1.309546c-5.802645-12.564872-11.594001-25.141032-17.464381-37.863952 2.833587 0 5.960694 0.14676 9.031354 0 6.999299-0.406411 9.900622 3.273866 12.237485 9.607103 3.759301 10.160273 8.895884 19.846401 13.547031 29.679287a70.62519 70.62519 0 0 0 3.680277 6.209056l2.257839-0.914424q-6.141321-21.043055-12.30522-42.052243c9.031354-2.596514 11.526266-0.508014 14.348564 8.6701 4.018953 13.118042 9.166825 25.886119 13.84055 38.812244l1.862717-0.643484c-0.214495-15.590375-4.018953-30.48082-9.494211-45.066457 11.458531-3.386758 14.472745-1.2531 16.516089 8.828149 2.438466 11.977833 5.644596 23.808907 8.557208 35.696427l1.794981-0.406411c0-7.179927 0.541881-14.40501-0.146759-21.517201-0.722508-7.371843-2.641671-14.675951-4.210869-22.905772 3.307733 0 6.254213 0.214495 9.144246 0 5.17045-0.474146 7.371843 1.286968 7.642784 6.85254 0.609616 12.745499 4.131845 24.836224 8.952329 36.701165 2.51749-12.418112 1.072473-24.542705-1.591776-36.644719-0.654773-2.946479-2.020765-6.096164 3.014215-6.559021 7.157348-0.666062 8.95233 0.4177 9.629681 5.091426 1.715957 11.729471 3.725434 23.481521 5.610729 35.256149z m-100.575418 29.351901c3.386758 5.012402 6.479997 9.742573 13.163198 10.397346a13.061596 13.061596 0 0 1 7.608916 4.097977 105.260433 105.260433 0 0 1 10.927939 14.224383c2.461044 3.838326 5.215607 7.800832 9.810308 6.773516 2.912612-0.632195 5.125294-4.425364 7.654073-6.773516l-1.128919-1.128919-3.025504 2.427176-9.573235-15.895183c6.028429-1.512752 9.426476 0.383833 12.045568 5.294631a72.510485 72.510485 0 0 0 9.810309 14.303407c1.512752 1.693379 5.238185 1.39986 7.902435 2.009477 0.101603-2.257839 0.8354-4.639858 0.191916-6.626756-1.388571-4.346339-3.477071-8.466895-5.339788-12.824523 8.624943-1.422438 9.708706-0.688641 13.276091 6.615467A49.288615 49.288615 0 0 0 605.100731 799.274846c1.39986 1.591776 4.594701 1.603065 6.976721 2.336863 0.248362-2.404598 1.219233-5.023691 0.575749-7.168638-1.128919-3.860904-3.262577-7.439578-4.978534-11.131144 5.644596-2.37073 8.658811-1.196654 10.736022 3.906061a92.57138 92.57138 0 0 0 4.865642 11.289193c0.8354 1.467595 3.273866 2.020765 4.989823 2.991636 0.575749-1.727246 1.828849-3.567385 1.591776-5.18174-0.587038-4.018953-1.851428-7.902435-3.07066-12.790655h22.92835c-1.128919 2.822298-1.96432 4.515677-2.551357 6.242923a21.246261 21.246261 0 0 0-1.53533 5.983273c0 1.930452 0.824111 3.883482 1.298257 5.825223 1.783692-1.2531 4.256026-2.133657 5.215607-3.849615 1.896584-3.386758 2.754563-7.383132 4.436653-10.927938 2.257839-4.854353 6.175188-5.859091 11.650446-3.239999-1.862717 4.05282-3.973796 8.037905-5.486547 12.237485-0.575749 1.603065 0.191916 3.702855 0.349965 5.644597 2.054633-0.474146 4.955956-0.270941 6.00585-1.557909a63.219479 63.219479 0 0 0 7.484735-11.898809c3.386758-6.773516 5.644596-7.902435 13.919575-5.712332-0.688641 1.53533-1.365992 2.980347-2.009477 4.447942a76.653619 76.653619 0 0 0-3.872193 9.324874c-0.428989 1.524041 0 4.515677 0.925714 4.922088a7.213794 7.213794 0 0 0 5.644596-0.395122c1.68209-0.903135 2.923901-2.856166 4.041531-4.515677 2.461044-3.77059 4.651147-7.710519 7.089614-11.503688 3.262577-5.114004 6.412261-6.118742 11.763338-3.872193-2.585225 4.75275-5.362367 9.403898-7.620205 14.292118-0.69993 1.501463-0.474146 5.001112 0.180627 5.238186a8.703968 8.703968 0 0 0 6.186478-0.101603c1.885295-0.903135 3.262577-3.002925 4.628569-4.764039 3.239998-4.143134 5.926826-8.81686 9.629681-12.418112a29.905072 29.905072 0 0 1 10.160274-6.051008c5.226896-2.020765 9.403898-4.831774 11.808495-10.611841-74.711878 9.979646-149.20926 8.918462-223.966294-0.857978z" p-id="6904"></path><path d="M713.973705 483.064557c2.336863-1.941741 4.515677 0.225784 5.757489 3.172263 1.128919 2.528779 0.293519 4.143134-2.969058 5.249475-2.79972 0.959581-4.910799 3.962507-8.365292 6.965432l-1.851427-9.573236-0.632195-0.440278a37.118866 37.118866 0 0 1-1.038606 5.644596c-0.824111 2.415887-1.39986 5.644596-3.206131 6.85254-15.974208 10.35219-32.140332 20.41086-48.362901 30.35664q-37.626879 23.007375-75.434386 45.86799c-4.515677 2.720695-6.98801 1.275679-7.55247-4.018953a42.79733 42.79733 0 0 1-0.056446-4.515677c0-30.616291 0-61.243871 0.112892-91.860161 0.101603-21.449466 0.496724-42.819908 0.790243-64.235507 0.101603-7.191216 3.465782-9.132957 9.663549-5.644596 22.65741 12.58745 45.359976 25.084586 67.97223 37.728482q30.48082 17.035392 60.803592 34.364302c1.422438 0.812822 2.461044 2.257839 4.368917 4.086688zM468.885331 306.366112c0.733798-4.876931 1.467595-9.753863 2.257839-14.596926 1.343414 0.880557 2.765852 1.128919 2.257838 5.351078-0.643484 5.249475-2.088501 12.327798 3.793169 16.628981-0.812822-5.226896-1.625644-10.498949-2.506201-16.132257l6.096164 2.257839c-0.248362 0.925714-0.508014 1.907874-0.903135 3.386757 4.154423-4.165712 3.91735-4.876931-1.930452-7.82341l11.537555-1.128919 0.372543-1.12892-2.844876-1.693379c0.903135-2.754563 1.761114-5.384945 2.720695-8.286267l1.207944 0.756376 10.826336-5.644596c0.575749 7.710519-1.433727 14.845288 1.027316 21.020476 1.388571-3.510939 2.675539-6.773516 3.962507-9.990935 0.733798-0.880557 1.467595-1.783692 2.201392-2.698117 0.316097-2.585225 0.632195-5.181739 0.778955-6.310659 18.153022-3.228709 35.233571-2.551358 52.325408-10.781179l-29.001936-3.172263 0.237073-1.68209c21.53978-5.881669 39.749248-20.704379 64.111325-22.894483-5.644596-3.093239-3.138396-4.922088-0.530592-6.615467 13.817972-8.963619 28.448766-13.547031 44.942277-8.478183a48.94994 48.94994 0 0 0 5.802645 1.038605v-7.179926c-0.169338-6.592889 3.115817-10.544106 9.618392-11.797207a38.439701 38.439701 0 0 0 9.189403-2.461044c6.028429-2.890033 10.837625 0.338676 15.917762 2.483623a1.874006 1.874006 0 0 1 0.982159 1.241811c1.128919 7.902435 2.585225 15.748424 3.138396 23.707305 0.13547 1.96432-2.573936 4.120555-3.849615 6.017139v-14.67595l-2.257838-0.158049a40.302418 40.302418 0 0 1-0.970871 6.954143c-2.438466 7.586338-7.68794 12.000412-15.52264 13.795393a9.607103 9.607103 0 0 0-5.915537 4.143134c-3.386758 6.671913-6.15261 13.659923-9.031354 20.580198a79.950063 79.950063 0 0 0-3.386758 9.539368c-2.991636 11.006963-1.128919 14.596926 9.132957 18.548144-5.520415 8.658811-15.127518 4.210869-24.633019-12.339088 0.778954 5.091426 1.343414 8.828149 2.043344 13.388983-7.789543-3.07066-6.333237-10.397347-9.528078-15.714556-4.933377 2.257839-9.708706 4.809196-14.675951 6.649334-2.359441 0.869268-5.226896 0.248362-7.82341 0.620906a12.056858 12.056858 0 0 0-5.068848 1.648222A163.828765 163.828765 0 0 1 547.672607 316.097397c-4.639858 1.388571-9.381319 2.483622-14.12278 3.477071-1.072473 0.214495-2.348152-0.55317-5.091426-1.275679a276.178811 276.178811 0 0 0 57.574883-43.666597c-7.789543 5.644596-15.443616 11.60529-23.402496 17.046681s-15.80487 10.48766-23.989535 15.251699a186.621645 186.621645 0 0 1-26.416711 12.847101c6.694491-7.033167 15.94034-10.216719 23.707305-15.500061l-0.553171-1.467595c-2.506201 0.903135-5.102715 1.614355-7.507313 2.743274-13.298669 6.242924-26.405422 12.926126-39.873429 18.773927-11.18759 4.865642-23.131556 2.37073-34.793292 1.930452-1.320836 0-2.585225-1.275679-4.425363-2.257838 3.657698-3.748012 1.614355-6.491286-1.851428-9.031355l1.445017-1.2531 5.644596 2.856166c0.13547-1.26439 0.383833-3.465782 0.620906-5.644597l1.016027-0.338675 2.562647 5.892958c0.948292-2.257839 1.715957-4.030242 2.257839-5.418812l6.412261 3.63512c0.304808-0.530592 0.609616-1.061184 0.925714-1.591776l-4.685015-2.652961 6.536442-1.027316c-0.270941-1.004738-0.530592-2.032055-0.778954-3.059372z m190.064849-67.577107c7.010589 2.573936 12.779366-1.907874 14.551769-11.989123-4.447942 5.509126-12.768077 4.33505-14.551769 11.989123z m10.419925-17.949817c-2.833587-1.332125-4.775329-2.890033-5.486548-2.461044a62.767912 62.767912 0 0 0-7.315397 5.938116c1.128919 0.959581 2.923901 2.991636 3.465783 2.709406 2.878744-1.456306 5.45268-3.49965 9.336162-6.186478z m-12.090725-5.892958l-1.298258-1.004738c-1.128919 2.133657-2.969058 4.177001-3.262576 6.412261-0.395122 3.160974 0.349965 6.479997 0.609616 9.719995l0.824111-0.28223 3.127107-14.845288z m9.110378-4.030242l11.853652 2.991636c-3.838326-5.915537-6.954143-6.796094-11.853652-2.991636zM594.48889 818.285846c1.670801-8.376581 12.734209-9.799019 21.257549-4.436652 6.457418-3.928639 10.882782-3.386758 14.179227 0.722508 3.093239-1.128919 5.644596-2.811009 8.308845-2.878744 2.156236 0 4.368918 1.772403 7.021878 2.980347 3.386758-3.77059 6.98801-4.515677 12.418112-1.851428a5.463969 5.463969 0 0 0 2.901323 0.722508c4.357628-0.620906 8.6701-1.445017 13.00515-2.190103 4.955956-0.857979 7.766965 0.587038 6.592888 6.615467 3.273866-5.983272 8.274978-7.620205 14.484035-7.236373s6.773516 0.733798 5.983272 6.9993a5.780067 5.780067 0 0 0 0.440278 3.49965c0.790243-1.591776 1.467595-3.239998 2.38202-4.76404 2.257839-3.668988 4.831774-5.960694 9.810308-6.084875 15.398459-0.372543 30.76305-1.512752 46.15022-2.257838a69.168884 69.168884 0 0 1 14.980759 0.857979l-6.773515 3.319022c9.708706 4.165712-4.143134 7.586338-0.338676 11.853653l-3.770591-1.772404 3.059372 4.922088 10.092538 1.12892 0.248362 2.427176c-12.282642 3.567385-24.373367 8.015327-36.859214 10.532817-44.705203 9.031354-89.895842 11.356928-135.402578 8.263689-30.401796-2.065922-60.55523-5.554283-89.805528-14.551769-11.119855-3.386758-22.420337-6.886408-31.022702-15.206543-3.251288-3.138396-5.057558-7.778254-7.518602-11.740761 4.233447-0.914425 8.466895-2.619093 12.689053-2.585225 8.173376 0.079024 16.335462 1.128919 24.508837 1.772404 14.788842 1.061184 29.566396 2.562647 44.377817 2.867455 7.676651 0.158049 12.982572 2.257839 15.804869 10.239297 2.720695-3.228709-1.81756-9.268427 4.515678-9.765151s12.542293-0.69993 16.279016 7.597626zM880.263514 551.872187c0.101603 1.377282 0.722508 2.991636 0.214495 4.097977-6.773516 14.743686-13.829261 29.430925-20.783404 44.118165a7.213794 7.213794 0 0 1-1.998187 2.709406c-0.203205-11.571423 0.666062-22.92835 4.865642-33.867578 1.95303-5.080137 4.289893-10.06996 5.644597-15.308145 0.959581-3.601252 0.598327-7.563759 0.812821-11.210169-8.771703-1.794982-11.797206-0.722508-15.071072 6.288081-2.528779 5.407523-4.030242 11.289193-6.039718 16.933789-3.115817 8.794281-6.28808 17.577273-9.449054 26.360265l-1.828849-0.361254c0.55317-4.605991 0.959581-9.245849 1.727246-13.817972s1.772403-9.23456 2.991636-13.761526c1.26439-4.696304 2.822298-9.336162 4.436653-13.930864 1.524041-4.357628 3.273866-8.636232 4.967245-13.050307-7.304108-1.557909-12.350377 0.846689-14.40501 7.089613-4.967245 15.161386-9.618392 30.48082-14.382432 45.664785a22.860615 22.860615 0 0 1-3.48836 7.710519c0.530592-9.708706 0.632195-19.451279 1.715957-29.09225 1.061184-9.426476 3.127106-18.751349 4.854353-28.730996-6.70578 1.388571-11.289193 4.605991-12.497137 10.577974-3.556096 17.046681-6.999299 34.138519-9.753862 51.331959-1.388571 8.6701-1.219233 17.599851-1.749825 26.360265-3.894771-26.326397-4.515677-52.562481-0.079024-79.193687 2.37073-14.066334 7.292819-26.619916 13.298669-39.128342 2.122368-4.402785 5.03498-5.73491 9.968357-4.685015 11.932677 2.51749 23.989535 4.436653 35.978657 6.773516 8.049194 1.524041 9.866754 4.876931 8.026616 12.914836-0.361254 1.557909 1.128919 3.533517 1.885295 5.859091l-3.748012-1.862716c-0.112892 0.28223-0.270941 0.575749-0.225783 0.609616 5.012402 3.759301 1.738536 11.876231 5.542993 14.303407 5.238185 3.386758 1.828849 5.813934 0.959582 9.279717 2.257839-1.39986 3.985085-2.449755 5.701042-3.488361l-0.259652 0.13547 2.009477 2.257839zM503.272212 865.248888a47.414609 47.414609 0 0 1 6.705781 0c15.748424 2.325574 31.46298 4.854353 47.211404 7.123481 3.296444 0.474146 5.881669-0.575749 8.850727-3.149685a30.48082 30.48082 0 0 1 14.506612-6.525153c26.902146-4.391496 54.041366-5.102715 81.214453-3.386758 10.645709 0.677352 21.268839 1.919163 31.88068 3.115817 2.494912 0.28223 4.88822 1.411149 8.466895 2.494912-4.515677 5.644596-6.773516 11.876231-14.506613 12.079436-23.763751 0.620906-47.606526 2.720695-71.291252 1.591776-34.883606-1.659511-69.665608-5.554283-104.492768-8.636233-3.025504-0.270941-5.971983-1.546619-8.95233-2.359441zM853.982274 398.068225l-12.508426-3.63512c0.970871 4.177001 1.862717 7.992748 3.138396 13.42285-8.015327-2.111079-15.025916-1.546619-18.175601-9.189403q1.388571 5.644596 2.765853 11.345639l-1.907874 0.575749c-0.620906-1.275679-1.230522-2.562647-1.941741-4.030242a946.881041 946.881041 0 0 0-3.386758 5.418813l-0.97087-0.316098c0.14676-1.027317 0.293519-2.054633 0.327386-2.257838-5.949405-5.159161-11.571423-10.329611-17.520827-15.082362s-6.231634-14.529191-16.482221-18.130443c-0.654773-4.515677-0.891846-11.085987-2.709407-17.182152-1.478884-4.922088-4.865642-9.279716-7.608916-14.246961l1.39986-1.128919c2.257839 1.930452 4.515677 5.272053 6.536443 5.114004 2.731985-0.214495 5.644596-2.686828 7.733097-4.89951 1.874006-1.998187 2.731985-4.955956 4.041531-7.496024l1.365992 0.598328-2.890033 8.320135c11.413374 0.891846 21.280128 5.226896 28.222982 14.980758 0.756376 1.061184 2.257839 2.630382 1.975609 3.21742-2.890033 5.723621 2.720695 6.096164 5.102715 8.354003 8.342713 7.902435 16.798319 15.737135 25.208767 23.583124zM428.029743 528.33422c-0.69993-3.883482 0.406411-8.545919-5.04627-10.724733-0.383833 1.128919-0.767665 2.156236-1.128919 3.228709h-1.557908a17.994973 17.994973 0 0 1 0.485435-4.086688 54.707428 54.707428 0 0 1 2.890033-5.802645c8.500762-1.659511 17.836925-3.49965 27.173087-5.294631 3.386758-0.654773 5.554283 0.158049 7.484735 3.781879a161.435456 161.435456 0 0 1 18.988422 65.477318c1.004738 15.014626-1.128919 30.255037-2.178814 45.371266-0.191916 2.822298-1.95303 5.531704-3.544807 9.776441-0.688641-13.817972-0.857979-26.111903-2.043344-38.304231a469.515268 469.515268 0 0 0-5.520415-39.252523c-1.241811-6.773516-6.039718-11.379506-14.314696-13.547032 4.447942 19.72222 7.473446 39.071896 6.513864 60.318157-4.515677-15.127518-8.500762-28.742285-12.655185-42.311894a72.792715 72.792715 0 0 0-4.730172-12.598739c-1.445017-2.765852-4.154423-4.865642-6.28808-7.28153s-3.996374-4.515677-5.994561-6.773515zM390.357706 489.239746c1.128919-10.160273 5.554283-16.933789 12.011702-21.980059 7.394421-5.791356 15.500062-10.679576 23.300893-15.94034 1.038606-0.69993 2.156236-1.286968 3.239999-1.930452l-0.959582-1.286968-5.226896 0.790244c0.361254-1.501463 0.293519-2.743274 0.880557-3.386758 4.097977-4.312472 8.512051-8.354003 12.497136-12.768077s7.40571-9.178114 11.289193-13.547031a11.75205 11.75205 0 0 1 4.741461-2.844877c4.19958-1.546619 9.155535-1.603065 8.11693-8.782992-0.248362-1.68209 5.03498-4.583412 8.184664-6.073586 0.970871-0.451568 4.436653 1.693379 4.741461 3.08195 0.643484 2.93519 1.128919 7.13477-0.428989 9.031354-3.386758 4.154423-5.531704 8.173376-5.58815 13.614767-0.067735 8.263689-7.462156 12.135882-11.740761 17.746611-5.057558 6.615467-11.289193 12.361666-17.227308 18.277203-3.048082 3.025504-5.475258 7.383132-11.356928 5.565572-1.478884-0.451568-4.041531 1.693379-5.73491 3.081949-3.386758 2.811009-6.559021 5.938115-9.832887 8.929752-5.723621 5.283342-12.677763 7.179927-20.907585 8.421738zM465.938852 1023.771733c-16.832186 0-27.184376-7.981459-30.401796-24.136295-2.573936-12.903547-1.557909-25.332949 8.579786-35.481932 8.862016-8.873305 19.688352-9.674838 30.729183-6.965432 11.966544 2.923901 18.45783 12.000412 20.388282 23.707305 2.111079 12.700342 1.501463 25.107165-8.568497 35.143256-6.01714 5.983272-13.027728 8.591076-20.726958 7.733098zM483.177449 988.865549c-1.467595-6.773516-2.438466-13.648634-4.515677-20.162499s-6.671913-11.661736-13.637345-11.413374-11.04083 6.005851-13.163199 12.293931a64.066169 64.066169 0 0 0-0.40641 39.760537c2.088501 6.954143 6.479997 11.955255 13.659923 13.377694 4.809196 0.948292 11.853652-5.396234 13.97602-12.801945 1.930452-6.739648 2.698117-13.806683 4.086688-21.054344zM433.505001 788.629137c-1.332125 0.666062-2.844877 2.122368-3.973796 1.862717-4.741461-1.128919-10.092538 0.508014-14.235672-3.928639-1.298257-1.388571-5.03498-0.383833-7.620205-0.711219-13.682502-1.727246-26.777965-5.486548-38.518726-12.926126-8.218532-5.193029-8.6701-9.640971-0.541881-14.675951a95.777511 95.777511 0 0 1 21.449466-9.573235c10.002225-3.172263 20.320547-5.305921 30.582424-7.665362 2.765852-0.632195 5.723621-0.4177 8.591075-0.587038 0.124181 0.587038 0.248362 1.128919 0.383833 1.783692-1.885295 0.778954-3.759301 1.580487-5.644597 2.314285-7.665362 3.002925-15.80487 5.226896-22.917061 9.155535-9.832887 5.384945-10.047382 11.447241-0.925714 17.76919 5.430102 3.77059 11.864942 6.084875 17.746611 9.22327a53.149519 53.149519 0 0 1 5.870381 4.289893c0.056446 0 1.377282-1.546619 2.257838-1.309546 2.743274 0.756376 6.875118-0.338676 7.258951 4.380207zM605.541009 138.710311c7.812121-4.357628 15.94034-6.98801 21.234972-12.418112s7.8347-13.614766 11.88752-21.189815c2.336863 17.836925 12.418112 29.001936 31.248485 31.372667-7.902435 4.436653-15.962919 7.067035-21.223682 12.418112s-7.902435 13.547031-12.02299 21.234972c-2.314285-17.972395-12.655185-28.832598-31.124305-31.417824zM963.577757 822.982151c3.63512 18.661036 14.224383 29.747023 33.56277 32.738658-18.864241 3.49965-30.06312 13.738948-32.366116 32.738659-4.19958-7.744386-6.773516-16.008075-12.135882-21.449466s-13.784104-8.083062-20.851139-11.943966c17.633719-2.415887 28.505212-13.129331 31.790367-32.083885zM287.671209 369.495278c16.369329-3.172263 27.681101-12.135882 30.480821-30.661447 4.143134 17.48696 13.817972 28.087512 30.808207 30.605001-6.773516 3.860904-14.303407 6.513864-19.451279 11.61658s-7.902435 12.655185-11.379507 18.706192c-3.014214-5.644596-5.396234-13.547031-10.532817-18.807795s-13.016439-7.665362-19.925425-11.458531zM193.327426 933.367877c0-2.890033 0.203205-5.791356-0.067736-8.647522a24.553994 24.553994 0 0 0-1.614354-5.080136c-1.625644 0.541881-3.680277 0.632195-4.809196 1.704668-10.103827 9.494211-20.060895 19.191628-30.040542 28.776152-1.061184 1.027317-2.032055 2.133657-3.059371 3.206131l-1.738536-0.395122c0.632195-3.748012 1.128919-7.529892 1.95303-11.289193s2.054633-7.55247 2.257839-12.418112c-2.336863 1.490173-4.741461 2.890033-6.98801 4.515677-20.580198 14.811421-41.11524 29.690577-61.740595 44.445552a25.513576 25.513576 0 0 1-9.211982 4.018953c7.021878-4.560834 14.359853-8.907173 21.076923-13.98731 19.191628-14.484034 39.038028-28.302006 56.77335-44.411684 8.794281-7.992748 13.659923-20.320547 20.00445-30.954967 4.730172-7.902435 8.963619-16.019364 14.12278-23.707304q-8.512051 17.374068-17.046681 34.770713l2.190103 1.580487a74.598986 74.598986 0 0 0 5.147872-6.231634c6.931564-10.498949 13.98731-20.918874 20.42215-31.700053 2.133657-3.567385 2.551358-8.162086 4.086688-13.388983 3.115817-0.869268 4.357628 1.941741 3.443203 5.45268-1.128919 4.312472-2.540068 8.873305-5.068847 12.418112-10.611841 15.014626-21.449466 29.871204-32.738659 44.434263-4.583412 5.971983-8.037905 12.090725-8.015327 20.523752 3.77059-3.386758 7.258951-7.100902 11.379506-9.9232a79.645255 79.645255 0 0 1 16.403197-9.211982c4.696304-1.772403 6.491286 0.666062 5.384945 5.712332-0.711219 3.251288-1.377282 6.513864-2.054633 9.776441zM981.2905 1006.634738c0 4.515677 0.214495 9.031354-0.180627 13.547031-0.079024 0.925714-2.393309 2.359441-3.702855 2.370731-14.800132 0.169338-29.600263 0.112892-42.989246 0.112892 1.128919-3.556096 3.08195-6.965432 3.160974-10.419925 0.349965-14.82271 0.327387-29.667999 0-44.501998-0.067735-3.386758-1.840138-6.683202-2.833587-10.06996h19.011c-0.745087 3.759301-2.054633 7.236373-1.975609 10.679576 0.14676 6.649335 1.207944 13.28738 1.580487 19.948004 0.101603 1.704668-1.343414 3.454493-1.38857 5.204318-0.191916 7.699229-0.203205 15.398459-0.079025 23.097688a5.813934 5.813934 0 0 0 1.738536 3.386758c4.707593 4.865642 19.812533 1.377282 21.923612-4.978534 0.959581-2.912612 1.96432-5.813934 2.94648-8.715257zM648.46252 1022.326716h-22.691277c5.03498-2.09979 6.175188-5.565572 6.118742-10.081249-0.169338-15.048494 0-30.096988-0.124181-45.156771 0-2.93519-0.812822-5.859091-1.309546-9.23456h16.606402c-0.485435 3.838326-1.354703 7.586338-1.388571 11.289193-0.169338 14.484034-0.237073 28.979358 0 43.452103 0.124181 3.251288 1.806271 6.412261 2.788431 9.731284zM381.845655 1022.349294h-20.997898c0.98216-3.691566 2.731985-7.371843 2.811009-11.085987 0.338676-14.40501 0.270941-28.832598 0-43.248897 0-3.149685-1.388571-6.276791-2.257839-10.002225h18.062708c-1.027317 10.510238-4.797907 21.043055 1.016028 31.970994-4.459231 4.978534-4.357628 25.479708 1.365992 32.366115zM496.284202 602.3123c1.004738-18.491698-6.039718-35.391619-10.408636-52.776976-3.251288-12.948704-7.541181-25.637757-10.781179-38.59775-0.587038-2.325574 1.715957-5.373656 2.686828-8.094351 2.325574 1.061184 6.039718 1.569198 6.773516 3.285155 4.594701 11.435952 9.584525 22.871904 12.418112 34.782003 4.933377 20.331836 2.607804 40.934613-0.688641 61.401919zM512.043915 1022.213824c0.733798-3.273866 1.998187-6.355816 2.043344-9.460344q0.316097-22.217131 0-44.445551c0-3.386758-1.128919-6.649335-1.761114-10.49895h18.062708c-4.233447 9.550657-3.714144 19.315809-0.948292 29.171274a7.179927 7.179927 0 0 1 0.55317 2.438466c-0.801533 8.060484-2.020765 16.109678-2.382019 24.19274-0.124181 2.822298 1.783692 5.73491 2.765852 8.602365zM419.698318 1022.371873H398.960071c5.960694-7.033167 6.446129-27.218244 1.12892-32.659635 4.75275-6.231634 4.854353-23.707305-0.248363-31.903259h19.846401c-5.351077 10.295744-2.65296 21.449466-2.664249 32.185489s-2.65296 21.663961 2.675538 32.377405zM576.787435 1022.315427c0.993449-3.736723 2.641671-7.157348 2.686828-10.600552 0.214495-14.845288 0.101603-29.713155-0.237073-44.558444-0.067735-2.946479-1.625644-5.859091-2.65296-9.324873h19.191627c-0.98216 4.267315-2.765852 8.692678-2.901322 13.163198-0.383833 13.332537-0.327387 26.698941 0 40.042767 0.101603 3.793169 1.772403 7.55247 2.720695 11.289193zM776.256182 601.601081c-4.075399-28.11009-4.865642-55.204152 5.328499-81.451526a67.001359 67.001359 0 0 1 6.299369-13.174488c1.343414-1.998187 4.662437-2.686828 7.089613-3.962506 0.98216 2.765852 2.912612 5.644596 2.720696 8.274978-0.270941 3.63512-2.404598 7.078324-3.386758 10.713444-5.757488 22.149396-11.492398 44.298792-16.933789 66.515924-0.993449 3.962507-0.745087 8.218532-1.11763 13.084174zM864.323174 957.763823h18.570722c0.169338 3.748012-0.327387 7.055745 0.553171 9.945778 3.386758 10.939228 7.067035 21.776853 10.916649 32.558032 0.925714 2.607804 2.923901 4.843064 4.425364 7.247662l1.907873-0.474146c-1.128919 3.91735-1.907874 7.97017-3.522228 11.673025-0.733798 1.693379-3.206131 3.849615-4.696304 3.714145a7.371843 7.371843 0 0 1-5.17045-3.928639c-6.389683-17.035392-12.418112-34.228832-18.615879-51.320671-1.106341-3.08195-2.731985-5.915537-4.368918-9.415186zM830.444307 957.66222h17.678876c-4.515677 9.189403-2.754563 18.796506-3.172263 28.076222-0.406411 8.918462 0.14676 17.882081 0.541881 26.823122 0.13547 3.025504 1.128919 6.01714 1.727246 9.358741h-16.933789a271.85505 271.85505 0 0 0 0.158049-64.258085zM330.547563 1023.331454c-13.468007 2.393309-24.971694-1.580487-32.43385-12.86968-8.297557-12.564872-8.376581-26.698941-0.756376-39.512174 6.592889-11.05212 17.47567-16.008075 31.609739-14.675951-8.681389 3.036793-16.5048 6.649335-18.762638 15.330724-2.054633 7.845989-3.759301 16.279016-3.07066 24.226607 1.490173 17.362778 9.291006 25.558732 23.413785 27.500474zM595.121084 915.440639c9.471633-1.388571 18.909398-3.307733 28.426188-3.996374a259.188576 259.188576 0 0 1 27.940752 0 108.669769 108.669769 0 0 1 16.64027 1.975609c4.018953 0.790243 4.75275 4.064109 2.032054 6.649334-2.257839 2.133657-5.644596 4.177001-8.557208 4.256026-15.748424 0.383833-31.542005 0.711219-47.245271-0.158049-6.559021-0.361254-12.959993-3.725434-19.43999-5.723621zM537.365574 1021.028459c8.941041-3.115817 13.084174-8.918462 12.621318-17.227308-0.496724-8.692678-6.265502-13.00515-14.754975-15.082362 6.897697-3.601252 11.289193-8.128219 11.18759-15.80487s-4.267315-12.237485-12.474558-14.40501c12.203617-2.167525 21.923612 1.320836 24.452391 8.094352 3.093239 8.274978 0.225784 13.039018-13.016439 21.24626 6.400972 3.386758 14.675951 4.515677 17.06926 12.418112a17.90466 17.90466 0 0 1-0.259652 10.386058c-2.686828 7.631494-14.924313 12.982572-24.824935 10.374768zM915.70029 566.819078c-9.686127 15.974208-19.191628 31.60974-28.640682 47.200115l-1.422438-0.598327a20.230233 20.230233 0 0 1 0.8354-4.515677c4.19958-9.832887 8.410449-19.654485 12.86968-29.351901 2.336863-5.102715 6.841251-9.731284 0.959582-16.527379l-21.799432 32.524165a85.617238 85.617238 0 0 1 10.024804-34.702979c0.440279-0.801533 2.133657-1.332125 3.228709-1.309546 6.062296 0.14676 12.124593 0.508014 18.582011 0.812822 0-0.462857-0.101603-1.445017-0.304808-4.154423 2.37073 4.425364 4.030242 7.55247 5.667174 10.62313z" p-id="6905"></path><path d="M428.029743 528.33422l-1.478885 1.986898c-1.128919 4.764039-2.325574 9.539368-3.386757 14.145358l3.036792-2.438465c2.93519 8.613654 6.197767 16.674138 8.376581 25.02814s3.262577 17.05797 4.831775 25.603889l-1.467595 0.42899c-0.666062-1.704668-1.298257-3.386758-2.009476-5.114005-5.475258-13.072885-10.894071-26.179638-16.5048-39.207366-3.510939-8.139508-8.907173-9.618392-16.267727-4.436653-0.158049-1.783692-0.293519-3.386758-0.4177-4.967245l-2.156236-5.644596 1.96432-4.007663 3.544806 5.02369 1.128919-0.598327c-0.383833-1.26439-0.756376-2.51749-0.937003-3.081949l4.256026-4.639859 5.396234 4.131845c0.372543-2.09979 1.128919-3.736723 0.812822-5.091426-0.925714-3.623831 0-4.346339 3.386758-3.093239 1.354703 0.485435 3.025504 0.079024 5.068847 0.079024 0.688641 1.53533 1.761114 3.725434 2.822299 5.892959zM449.005063 934.643556v-9.460344c3.386758-6.084875 6.547732-10.995674 8.929751-16.256437a281.304105 281.304105 0 0 1 34.940052-58.45544 46.646944 46.646944 0 0 1 8.500762-8.173376c1.501463-1.128919 3.951217-1.049895 5.971983-1.512752 0 1.930452 0.778954 4.312472-0.067735 5.73491-4.097977 6.897697-8.004038 14.043756-13.118042 20.13992-11.785917 14.066334-24.136294 27.647233-32.806394 44.027852-3.985085 7.518602-7.812121 15.150097-12.350377 23.955667zM504.626915 844.973498l-2.257838-1.377282-16.549957 25.1749 1.569198 1.038606q8.6701-12.418112 17.238597-24.836224zM937.533589 573.23134l3.488361 1.53533c-0.643484 1.445017-0.970871 3.206131-1.998187 4.289893-4.256026 4.515677-9.178114 8.444316-13.050307 13.242223-10.250587 12.689053-20.094763 25.705492-30.108277 38.586461-0.891846 1.128919-1.851428 2.257839-2.777142 3.330312l-1.648222-0.790244c3.736723-8.850727 6.773516-18.062708 11.413374-26.450578s10.826336-16.143546 16.36933-24.147584c1.603065-2.257839 4.143134-4.346339 4.797907-6.875118 1.591776-6.073586 5.136583-7.394421 10.589262-5.859091l-0.316097-0.248362 2.077211 1.128919-0.169338-0.214495 1.12892 2.257839zM597.84178 884.056683c5.509126-3.239998 75.332783-3.104528 78.211527-0.756376-7.992748 6.028429-16.832186 9.257138-26.936014 8.907173s-20.241523 0.327387-30.176012-0.982159c-6.841251-0.903135-13.343826-4.425364-21.099501-7.168638zM327.691398 866.242337c-6.096164 11.842363-14.066334 22.578385-16.798319 37.593012C327.386589 890.717307 336.982403 874.17864 348.045812 857.888334c-0.451568 2.257839-0.304808 4.876931-1.467595 6.671913-6.378394 9.889333-12.655185 19.902847-19.823822 29.216431-4.876931 6.321948-10.961806 11.75205-16.832187 17.238597-6.107453 5.644596-7.597627 13.129331-6.920275 20.56891 0.575749 6.231634-2.506201 10.363479-4.594701 16.832186-1.241811-2.415887-2.111079-3.307733-2.077212-4.154423 0.372543-7.563759 0.395122-15.183964 1.591776-22.578385 0.598327-3.804458 3.804458-7.112191 5.080137-10.894071a146.251492 146.251492 0 0 1 22.409048-42.040954 31.146883 31.146883 0 0 1 2.280417-2.506201zM696.260962 995.763245c-7.473446-3.522228-16.064521-7.078324-18.694903-17.362778-3.160974-12.361666 6.671913-23.255737 20.004449-21.449466a52.15607 52.15607 0 0 0-5.351077 4.120555c-4.820485 4.775329-4.933377 11.955255 0.169338 16.470932 3.319023 2.93519 7.496024 4.88822 11.097276 7.541181 1.806271 1.343414 4.572123 3.386758 4.425364 4.933377-0.304808 2.969058-2.336863 5.757488-3.646409 8.624943l-2.607804-0.327386c-0.474146-2.619093-0.948292-5.226896-1.53533-8.421738zM515.32907 556.703961c-2.923901-7.40571-5.949405-14.777553-8.749124-22.239709-3.21742-8.602365-6.344526-17.249887-9.223271-25.965144-0.620906-1.874006-0.530592-5.712332 0.169338-5.960693a11.198879 11.198879 0 0 1 7.191216 0c1.896584 0.733798 3.522228 2.833587 4.673726 4.696304 9.460344 15.353302 10.611841 31.914548 5.938115 49.469242zM709.356426 867.010002a185.763666 185.763666 0 0 0-25.028141 45.890569l1.365993 1.128919c2.257839-2.065922 4.955956-3.838326 6.773515-6.242924 9.031354-11.966544 18.062708-23.966956 26.653784-36.283465 2.133657-3.07066 2.461044-7.394421 3.939929-12.192328 0.406411 2.743274 1.794982 5.644596 0.914424 7.383132-4.809196 9.460344-9.313584 19.270652-15.579086 27.737546a142.243828 142.243828 0 0 1-22.126818 23.165424 38.676774 38.676774 0 0 0-12.519714 18.841663 40.41531 40.41531 0 0 1-4.515677 10.002224c7.857278-29.239009 18.186889-57.281364 40.121791-79.43076zM757.640303 556.083056c-4.515677-15.996786-3.567385-31.248485 4.097977-45.563182 1.772403-3.319023 4.831774-6.096164 7.778254-8.545919 1.004738-0.846689 3.793169-0.474146 5.17045 0.349965 0.959581 0.575749 1.659511 3.104528 1.230522 4.312472-5.994561 16.527378-12.147171 32.987021-18.277203 49.446664zM769.076255 957.52675h21.246261c-5.994561 6.999299-3.21742 14.675951-4.120555 21.822009-0.620906 4.989823-1.049895 10.002225-1.591777 15.229121l-6.886407-1.81756-2.867455 5.949405c-4.933377-13.614766 1.840138-28.019776-5.780067-41.182975zM487.185113 832.690856c-2.844877 1.580487-5.757488 3.07066-8.545919 4.741461-7.992748 4.797907-8.320135 8.703968-1.840139 15.342013 1.467595 1.501463 1.919163 4.007663 2.833588 6.051007-2.257839 0.733798-5.114004 2.698117-6.773516 1.986898a128.132338 128.132338 0 0 1-17.972395-9.607103c-2.675539-1.693379-2.777141-4.876931-0.237073-7.281529 8.974908-8.421738 20.320547-10.747311 31.60974-13.42285zM369.156602 568.456011c10.160273 15.52264 16.674138 30.334061 20.501175 46.579209-4.61728-6.841251-9.268427-13.659923-13.840551-20.523752-6.412261-9.595814-12.824523-19.191628-19.044868-28.900334-0.609616-0.959581 0.13547-2.765852 0.248362-4.177001l1.433728 0.169338 1.128919 3.578674 5.068848-3.657698c2.562647 1.501463 5.73491 4.143134 6.163899-1.907874a1.81756 1.81756 0 0 1 1.185365-1.2531c5.328499-0.428989 4.188291-3.160974 1.332125-6.988011l7.315397 2.675539z" p-id="6906"></path><path d="M400.529269 533.798189l2.156236 5.644597c-1.128919 5.509126-2.020765 10.06996 1.219233 16.290305 7.462156 14.314696 16.177413 28.855177 13.016439 46.613077-4.515677-16.279016-15.364591-30.096988-18.062708-47.166248l-3.059372 1.862717c-0.338676-4.673726-0.632195-8.873305-0.948292-13.28738 7.676651-0.191916 3.285155-5.565572 2.641671-8.466894a28.539079 28.539079 0 0 1-0.214494-11.966544c0.158049-0.778954-0.259651-1.659511-0.180627-2.472334 0.13547-1.53533 0.451568-3.048082 0.699929-4.515677l1.445017 0.361254zM802.955123 850.008478c6.660624-3.962507 6.660624-3.962507 12.090725-1.128919-0.891846 2.754563-1.783692 5.520415-2.969058 9.234559l-2.957768-5.45268c-0.304808 2.088501-0.541881 3.691566-0.801533 5.520415-5.712332 1.986898-11.481109 4.515677-17.509538 5.926827-5.305921 1.286968-10.656998 2.427176-15.985497 3.657698-6.197767 1.445017-12.497136 2.461044-18.796506 3.386758s-12.813234 1.422438-19.191627 2.09979l-0.587038-1.772403a22.679988 22.679988 0 0 1 4.244736-1.862717c14.359853-3.048082 28.889044-5.463969 43.056981-9.245849 5.971983-1.591776 11.176301-6.039718 16.719295-9.178114v8.083062l1.128919 0.090314 5.87038-9.911912zM81.417658 845.142836c-1.219233 1.896584-2.065922 4.222158-3.702855 5.644596-22.330023 19.090025-44.535865 38.383255-59.945614 63.851674-6.378394 10.566684-11.650447 21.799431-17.769189 32.738659 2.867455-6.773516 5.384945-13.671212 8.658811-20.207655 15.432326-30.921099 38.496147-55.475093 64.720942-77.297102 2.359441-1.96432 5.418813-3.08195 8.139508-4.583413zM820.995253 944.781251c0.451568-0.508014 0 0.327387-0.553171 0.541881-2.483622 0.880557-5.03498 1.569198-7.55247 2.325574-0.56446-2.449755-1.603065-4.89951-1.569198-7.337975 0-3.160974 1.185365-6.28808 1.377282-9.460344a39.365415 39.365415 0 0 0-0.733798-7.067035c1.806271-3.048082 3.872193-6.28808 5.644597-9.663549 1.53533-2.878744 3.567385-5.746199 6.773515-3.691566 1.422438 0.914425 1.81756 4.922088 1.253101 7.168638-1.445017 5.780067-4.018953 11.289193-5.441391 17.05797-0.598327 2.607804 0.406411 5.622018 0.801533 10.126406zM156.660128 722.587359c-1.388571-2.856166-4.278604-7.40571-3.702856-7.902434 3.657698-3.104528 7.845989-6.773516 12.293931-7.484735 6.773516-1.004738 13.230934 6.863829 12.418112 13.648634a6.773516 6.773516 0 0 1-3.567385 4.368917c-2.822298 1.275679-6.028429 1.693379-9.990935 2.709407-0.508014-4.018953-0.98216-7.755675-1.512752-11.932677zM389.838404 545.934072c-1.749825 3.160974-4.978534 6.367105-4.876932 9.460343 0.124181 3.793169-3.206131 8.782992 2.257839 12.327799-0.485435-1.96432-0.846689-3.386758-1.207944-4.831775L388.34823 562.201798l9.245849 30.559845-1.727246 0.812822-19.191628-28.414898c1.772403-3.488361 3.702855-7.304108 6.00585-11.819785l-6.14132-3.386758a46.364715 46.364715 0 0 1 4.685015-1.038606 30.48082 30.48082 0 0 1 3.793168 0.079025c0-1.128919-0.112892-2.325574 0-3.465782a33.585348 33.585348 0 0 1 0.609617-3.319023c0.801533 0.383833 1.614355 0.767665 2.427176 1.128919 0.587038 0.801533 1.185365 1.704668 1.783693 2.596515zM244.806144 918.703216c0.903135-2.822298 1.388571-6.367105 5.644597-5.305921 3.78188 0.937003 5.746199 5.926826 4.346339 9.51679-1.128919 2.93519-1.445017 6.367105-3.104528 8.929751a47.730707 47.730707 0 0 1-9.482922 11.289193c-1.693379 1.377282-6.107453 1.128919-8.094351-0.169338-1.614355-1.061184-1.614355-4.786618-2.065922-7.383132s-0.530592-4.989823-0.767665-7.484735l-2.257839-0.937003 15.951629-8.636232c-3.386758 5.859091-7.067035 11.60529-10.103827 17.645008-0.609616 1.207944 1.049895 3.544807 1.659511 5.362366 1.614355-0.632195 4.086688-0.801533 4.696304-1.95303a129.678957 129.678957 0 0 0 7.98146-17.486959c1.128919-3.149685-0.846689-4.978534-4.402786-3.386758zM583.877048 55.317044q-6.265502 6.141321-12.519714 12.30522l5.701042 0.395122L564.651553 55.317044l-3.07066 3.149685 12.418112-11.842363 12.361666 11.785917c-0.824111-1.027317-1.659511-2.043344-2.483623-3.093239zM463.985821 189.477811c0.293519 3.996374 0.530592 7.213794 0.880558 11.943966l-9.618393 5.283342a23.707305 23.707305 0 0 1-3.872193-2.991636c-1.738536-2.088501-5.023691-5.260764-4.515677-6.468708a46.28569 46.28569 0 0 1 8.557208-12.203617c1.727246-1.794982 4.89951 1.320836 5.418813 5.497837zM1050.594854 782.01367l-9.945778 9.031354 4.289893 0.824111-11.639158-12.15846 0.101603 4.515677 11.661736-11.537555-3.759301-0.98216zM715.486457 946.418184c8.060484-9.595814 16.019364-19.281941 24.294343-28.685839 1.230522-1.39986 3.973796-1.467595 6.01714-2.156236 0 1.919163 0.620906 4.154423-0.14676 5.644597-2.844877 5.712332-7.021878 11.04083-2.257838 17.961105-6.694491 1.2531-7.68794-4.380207-11.289193-9.031354l-14.292118 18.32236zM688.031141 588.099206l7.304107 8.128219-8.139508 8.173376-8.139508-8.173376zM909.908935 753.542326c-2.257839 0.959581-4.289893 1.896584-6.355816 2.664249-4.515677 1.68209-8.320135 2.359441-12.959993-1.320835-5.486548-4.346339-12.418112-6.920275-19.191628-10.498949 0.767665-0.462857 2.257839-2.032055 3.149685-1.772404 11.684314 3.206131 23.312183 6.671913 34.940051 10.092539 0.124181 0.033868 0.158049 0.28223 0.417701 0.8354zM254.774502 450.066247l8.681389 9.437765-10.081249 9.189403-10.747312-9.957068 1.761114 1.964319zM892.128456 336.801776c2.088501 1.95303 5.644596 5.193029 8.150797 7.575048l-10.047381 9.031355-8.139508-9.031355c2.212682-1.693379 6.039718-4.572123 10.036092-7.575048zM109.22294 902.412911c18.062708-15.511351 20.591488-36.486671 22.578385-56.445964 1.614355 7.078324 1.377282 15.80487-2.257838 29.159985a166.662352 166.662352 0 0 1-8.229822 22.736434c-2.675539 6.186478-5.881669 7.100902-12.090725 4.549545zM287.027725 784.361822c9.0878-8.184665 10.216719-8.139508 18.909398 0.654773a65.985332 65.985332 0 0 0-5.926826 4.933378 59.00861 59.00861 0 0 0-4.515677 6.051007zM874.336688 931.019725c-1.896584-6.886408-0.756376-9.257138 7.191216-14.100202a18.841663 18.841663 0 0 1 6.084875-2.675538c1.749825-0.327387 4.177001-0.090314 5.373656 0.959581 0.756376 0.643484 0.270941 3.556096-0.541882 4.933377a11.853652 11.853652 0 0 1-4.459231 4.075399c-4.459231 2.449755-9.099089 4.572123-13.648634 6.807383zM568.264095 929.83436H654.773179v1.636933h-86.497795c0-0.541881 0-1.083763-0.011289-1.636933zM853.372657 904.264338c-1.072473 3.138396-2.144947 6.28808-3.228709 9.426476-0.124181 0.349965-0.248362 0.891846-0.496724 0.98216-10.656998 3.691566-13.400272 15.059783-21.031766 21.663961a18.491698 18.491698 0 0 1-2.494912 1.39986c1.445017-2.686828 2.257839-4.515677 3.262577-6.028429 5.644596-8.331424 11.198879-16.708005 17.080548-24.836224 1.343414-1.862717 3.849615-2.878744 5.825224-4.278604zM704.185975 185.413702c2.336863-6.378394 4.515677-12.813234 7.078324-19.112604 0.643484-1.603065 2.257839-3.578674 3.680277-3.90606a7.766965 7.766965 0 0 1 5.87038 1.365992c0.869268 0.711219 0.970871 3.973796 0.112892 4.978534-5.057558 5.915537-10.48766 11.503687-15.80487 17.20473zM379.316876 939.689825c-5.938115-0.677352-7.281529-3.307733-8.229822-7.812121-1.365992-6.547732 1.704668-10.679576 5.644597-14.675951 1.038606-1.049895 3.172263-1.027317 4.797907-1.501463 0.124181 1.636933 0.869268 3.567385 0.248362 4.843064-2.822298 5.847802-7.067035 11.311771-2.461044 19.146471zM334.837457 949.014698c1.603065-12.102015 11.571423-22.92835 0.406411-34.736846 0.383833-0.462857 0.778954-0.914425 1.128919-1.365992 2.336863 1.603065 5.73491 2.698117 6.773515 4.922088 2.144947 4.515677 3.386758 9.460344 0.857979 14.563059-1.986898 4.007663-3.386758 8.308846-5.373656 12.316509-0.767665 1.659511-2.483622 2.878744-3.793168 4.301182zM784.305376 333.934321l3.307734 7.733097-0.84669 1.128919-8.229821-5.644596c0.745087-2.257839 1.343414-4.143134 1.95303-5.994561l-0.937003-0.519303-2.088501 2.822298-1.569197-0.270941c0.462857-2.257839 0.937003-4.61728 1.320835-6.502575 3.623831 0.722508 7.168637 1.26439 10.611841 2.178815 1.715957 0.462857 4.515677 1.433727 4.61728 2.449754 0.451568 3.567385-2.37073 2.867455-4.628569 2.607804-0.711219-0.056446-1.433727 0.011289-3.510939 0.011289zM911.534578 957.560617h6.976721l-13.129331 34.996498c0.304808-12.44069 7.68794-22.52194 6.15261-34.996498zM514.166283 935.874078a138.191008 138.191008 0 0 1 42.052243-16.36933l0.778954 2.257839-42.966667 14.009888zM366.966499 561.242217v-35.572246l1.478884-0.067736c3.477071 11.718182 1.95303 23.63957 0.248363 35.572247zM246.307607 989.373562c-4.109266 2.664249-6.57031 5.497837-8.828149 5.351078-1.96432-0.13547-3.691566-3.657698-5.520415-5.644597 2.133657-1.919163 4.075399-5.001112 6.457418-5.384945 1.794982-0.338676 4.154423 2.811009 7.891146 5.678464zM343.191459 975.047577l-7.191216-17.035392c10.442503-1.727246 12.497136 5.384945 9.031355 16.166124zM218.807134 989.67837c-3.872193 2.540068-6.491286 5.531704-8.320135 5.114005-2.257839-0.519303-5.068848-3.725434-5.339789-6.051008-0.191916-1.591776 3.601252-5.181739 5.497837-5.114004 2.291706 0.090314 4.459231 3.127106 8.162087 6.051007zM343.767208 1004.952648c5.565572 12.045569 2.404598 18.74006-7.179927 17.193441zM664.933452 973.997682q-3.567385-7.902435-7.146059-15.917762c8.512051-1.738536 9.471633-1.027317 9.437765 7.68794 0 2.630382-0.316097 5.249475-0.485435 7.902435zM176.641999 987.668894c2.257839-1.445017 4.33505-3.838326 6.683202-4.097977a4.696304 4.696304 0 0 1 5.226896 6.141321c-0.609616 2.178814-3.736723 4.876931-5.904248 5.03498-1.930452 0.13547-4.097977-2.901323-6.15261-4.515677zM619.505741 956.601036l-7.484735 18.062708c-2.257839-2.867455-3.386758-13.964731-1.512752-15.274278 2.144947-1.53533 5.204318-1.715957 8.997487-2.78843zM969.741656 957.763823c10.160273-1.501463 12.926126 3.386758 7.97017 16.380618-3.002925-6.051007-5.430102-11.018252-7.97017-16.380618zM679.609403 1005.867073l7.450867 17.633719c-3.973796-1.727246-8.647522-2.348152-9.313584-4.33505-1.309546-3.894771-0.383833-8.545919-0.383833-12.892258zM1034.57549 982.159768c2.506201 3.714144 5.384945 6.118742 5.114004 8.071773s-3.556096 3.759301-5.531704 5.644596c-1.738536-2.054633-4.605991-3.962507-4.876931-6.186477-0.225784-1.885295 2.664249-4.05282 5.294631-7.529892z" p-id="6907"></path><path d="M389.838404 545.934072c-0.598327-0.891846-1.196654-1.794982-1.794982-2.66425v-6.649334l1.874006-0.101603 1.26439 3.465782 0.869267-0.079024 0.812822-6.626757 1.072474-0.316097c1.128919 2.461044 2.190103 4.933377 3.319022 7.439578-4.75275 1.727246-5.994561 6.457418-3.623831 14.461456l-5.701042-1.828849c0.69993-2.607804 1.309546-4.854353 1.907874-7.100902zM148.814139 989.328405c2.664249-2.765852 4.843064-5.938115 5.644596-5.644596 2.494912 1.027317 5.373656 2.946479 6.276791 5.238186 0.485435 1.241811-2.822298 5.644596-4.312471 5.644596-2.280417-0.13547-4.414074-2.867455-7.608916-5.238186zM500.935349 906.781828c-13.400272 11.289193-13.795394 12.192328-11.616579 23.312183-9.189403-8.749124-5.622018-16.730584 11.616579-23.312183zM128.583905 981.245343c2.38202 3.454493 5.091426 5.644596 4.843064 7.484735s-3.386758 5.080137-5.068848 5.001113c-2.032055-0.101603-5.486548-3.093239-5.486547-4.820486 0-2.111079 2.969058-4.210869 5.712331-7.665362zM714.481719 972.213989l-6.400972-14.088912c0.112892-0.519303 0.214495-1.027317 0.327386-1.54662 2.709406 1.128919 6.15261 1.603065 7.902435 3.567385 3.273866 3.567385 1.625644 7.800832-0.090313 11.61658zM348.711874 568.33183c-0.327387-3.386758-0.790243-6.773516-0.959581-10.160274-0.191916-3.962507-0.304808-7.902435-0.13547-11.887519 0.13547-3.194842 0.880557-6.367105 1.128919-9.561947 0.112892-1.467595-0.372543-2.969058-0.13547-4.662436 1.501463 1.68209 5.193029 1.783692 2.415887 6.28808-1.2531 2.032055 0.338676 5.802645 0.575749 8.782992 0.214495 2.754563 1.219233 5.847802 0.327386 8.207243-1.591776 4.210869 1.196654 9.516789-3.386757 12.858391a0.688641 0.688641 0 0 0 0.169337 0.13547zM444.00395 788.550113c7.676651 0 15.071072 0.711219 20.376993 7.902435-6.130032-1.39986-12.282642-2.664249-18.333649-4.357629-0.937003-0.259651-1.343414-2.427176-2.009476-3.702855zM504.265661 905.788379c3.059371-0.541881 5.542994 0.158049 5.012402 4.109266a26.823122 26.823122 0 0 1-2.630382 8.907173c-0.587038 1.128919-3.296444 1.128919-5.03498 1.54662a19.519014 19.519014 0 0 1 0.338676-4.323761c0.914425-3.014214 2.122368-5.938115 3.194841-8.907173zM81.519261 845.289595c4.978534-3.838326 9.844176-7.812121 14.95818-11.447241 2.257839-1.591776 4.967245-2.472333 8.6701-4.244737-1.016027 1.919163-1.309546 3.386758-2.167525 3.962507-5.825223 3.962507-11.706893 7.8347-17.712743 11.514977-0.937003 0.587038-2.551358 0.079024-3.849615 0.067735zM1007.537873 671.300557c2.573936 3.183552 4.786618 5.068848 5.644597 7.462156 0.327387 0.891846-2.325574 4.041531-3.860904 4.244737-3.939928 0.508014-5.531704-2.720695-5.644597-6.028429 0-1.411149 1.885295-2.867455 3.860904-5.678464zM1062.900075 984.530499c-1.309546 4.030242 7.981459 5.825223 2.156235 9.866754a5.407523 5.407523 0 0 1-8.263689-2.856166c-1.783692-5.283342 2.946479-5.215607 6.107454-7.010588zM967.811204 998.213c-1.275679-3.002925-2.540068-6.01714-3.849615-9.121668l3.973796-9.257138 1.038606 0.112892v18.198179zM322.961226 573.174894c-0.225784 0.745087-0.496724 2.144947-0.666063 2.133657a37.739771 37.739771 0 0 1-11.60529-2.144947l9.742574-3.262576c-0.349965-2.257839-0.632195-4.131845-0.925714-6.005851l1.219233-0.180627 3.759301 4.19958-1.365992 5.45268zM493.50706 633.052772a56.208891 56.208891 0 0 1-0.587038-8.557208c0.067735-1.004738 1.874006-1.896584 2.878745-2.844877 1.016027 1.128919 3.002925 2.415887 2.856165 3.386758-0.428989 2.890033-1.693379 5.644596-2.630382 8.478184zM970.38514 606.22965c0.440279 4.064109 1.128919 7.179927 1.004738 10.250587a17.803057 17.803057 0 0 1-3.081949 8.681389c1.670801-6.01714-3.736723-13.095464 2.077211-18.931976zM770.747056 295.370439c-4.89951-1.332125-6.141321-6.005851-3.070661-11.040831 6.818672 2.201393 3.657698 6.863829 3.070661 11.040831zM482.421073 289.285564l2.325574-4.515677c1.230522 0.69993 1.230522 0.69993-1.230522 9.189403l-5.328499-3.827037c-0.474146 1.478884-0.824111 2.551358-1.128919 3.63512l-1.68209-0.191916c0.203205-1.456306-0.079024-3.386758 0.745087-4.244736s2.698117-0.812822 4.131844-0.937003c0.598327 0 1.26439 0.530592 2.167525 0.891846zM778.412418 632.443155c-0.722508-0.090314-0.959581 0-1.061185-0.13547-2.720695-2.641671-4.515677-5.644596-2.099789-9.257138 0.372543-0.55317 2.833587-0.620906 3.307733-0.067735 2.65296 3.21742 1.524041 6.400972-0.146759 9.460343zM468.885331 306.366112c0.248362 1.027317 0.508014 2.054633 0.778954 3.070661-2.957768-1.332125-6.01714-2.09979-4.177001-6.942854 1.128919-2.844877 0.191916-6.446129 0.191916-9.708705l2.257839-0.158049z" p-id="6908"></path><path d="M958.328282 622.802185l-2.257838-5.03498 11.706893 2.348152c-3.386758 1.986898-6.028429 2.754563-7.258951 4.515677-0.891846 1.2531 0.079024 3.827036-0.632195 6.039718l-3.160974-4.922088 3.714144-4.707593-0.857978-0.541881c-0.440279 0.756376-0.869268 1.512752-1.309547 2.257838l0.056446 0.045157zM213.478635 351.161629c-2.427176 1.53533-4.030242 3.330312-5.565572 3.273866-1.230522 0-3.556096-2.607804-3.330312-3.533517 0.395122-1.591776 2.37073-3.77059 3.77059-3.838326s2.878744 2.167525 5.125294 4.097977zM508.89423 286.745496c-0.733798 0.914425-1.467595 1.81756-2.201392 2.698117l-3.386758 1.049895c2.314285-3.386758-2.765852-9.099089 2.811009-11.210169z" p-id="6909"></path><path d="M802.955123 850.008478l4.278604-0.575749-5.870381 9.911911-1.128919-0.090313v-8.083062z" p-id="6910"></path><path d="M567.327092 882.56651c-5.396234 4.233447-6.773516 4.244736-11.831074-0.857979l11.808495-0.903135c0.011289 0.587038 0.011289 1.174076 0.022579 1.761114zM654.028092 0c1.636933 2.09979 3.533517 3.465782 3.522228 4.820485s-2.065922 2.494912-3.21742 3.748012c-1.2531-1.128919-3.386758-2.257839-3.510939-3.578674s1.693379-2.822298 3.206131-4.989823zM784.361822 799.929619c-4.955956-4.515677-4.402785-8.2524 0.778954-12.248774-0.28223 4.380207-0.541881 8.320135-0.778954 12.248774zM444.00395 788.550113v-0.191917c-3.059371 0.948292-6.107453 1.95303-9.211981 2.731985-0.225784 0-0.869268-1.591776-1.309546-2.449755-0.112892-0.237073-0.203205-0.451568-0.28223-0.643484 3.860904-4.368918 7.27024-0.778954 10.803757 0.553171zM797.231502 795.334917l-7.563759 4.515678 1.128919-4.515678-4.865642-4.131844c0.327387-0.406411 0.643484-0.824111 0.959581-1.230522zM251.86189 727.543315l-5.644596 1.411149c-0.361254-1.580487-1.580487-3.815747-0.948293-4.651147 3.386758-4.515677 3.894771 1.975609 6.446129 1.354703zM795.639726 806.759581l-10.826336 8.444316c0.316097-1.919163 0.14676-3.127106 0.643484-3.567385 2.777141-2.461044 5.723621-4.730172 8.602365-7.067035zM514.030813 935.716029c-4.177001 2.878744-8.365292 5.746199-13.411561 9.200692l-1.941741-2.257838c1.128919-0.598327 2.156236-1.275679 3.296444-1.761114 4.041531-1.704668 8.11693-3.386758 12.192328-5.023691zM847.919977 309.922208c0.903135-0.609616 2.257839-1.930452 2.630382-1.693379a6.57031 6.57031 0 0 1 2.912612 3.183553c0.180627 0.541881-1.625644 2.449755-2.607804 2.51749-1.501463 0.101603-3.07066-0.869268-4.617279-1.377282zM1080.804734 454.040043c1.39986 1.851428 2.856166 2.923901 2.822298 3.951217s-1.524041 2.065922-2.382019 3.08195c-1.128919-1.038606-2.65296-1.907874-3.138396-3.183553-0.248362-0.677352 1.365992-2.043344 2.698117-3.849614zM979.05524 598.12401l0.541881 2.709406c-4.651147-2.257839-4.515677-4.154423 0.643484-9.550657l-0.643484 0.688641 0.677352 0.146759c-0.112892-0.28223-0.225784-0.56446-0.349965-0.846689l4.989823 1.715957c-2.111079 1.128919-4.233447 2.257839-6.276791 3.477071-0.14676 0.079024 0.259651 1.083763 0.4177 1.659512z" p-id="6911"></path><path d="M979.05524 598.12401c-0.158049-0.575749-0.56446-1.580487-0.4177-1.659512 2.043344-1.241811 4.165712-2.348152 6.276791-3.477071l0.914425 1.128919-1.219233 3.08195 0.169338-0.169338-3.036793 1.219233h0.191916-3.025503z" p-id="6912"></path><path d="M880.263514 551.872187l-0.124181-0.158049 1.343414-2.472333h-0.112892c-0.361254 0.8354-0.733798 1.738536-1.106341 2.630382z" p-id="6913"></path><path d="M979.90193 591.27147c0.124181 0.28223 0.237073 0.56446 0.349965 0.846689l-0.677352-0.146759 0.643484-0.688641z" p-id="6914"></path><path d="M881.482747 549.241805l0.98216-0.13547-1.128919 0.090313zM934.293591 569.844582l0.316097 0.259651-0.022578-0.316097-0.293519 0.056446z" p-id="6915"></path><path d="M287.118039 577.295449c-0.112892 0.643484-0.214495 1.275679-0.327387 1.919163 0.112892-0.643484 0.214495-1.275679 0.327387-1.919163z" p-id="6916"></path><path d="M984.609523 597.198296l1.219233-3.036793zM978.908481 598.203034zM981.742068 598.214323l3.036793-1.219233zM936.201464 570.781585l0.169338 0.214494zM878.129857 549.478878l0.259651-0.13547zM937.533589 573.23134l-0.214494-0.237073z" p-id="6917"></path></svg>