<?xml version="1.0" standalone="no"?><!DOCTYPE svg PUBLIC "-//W3C//DTD SVG 1.1//EN" "http://www.w3.org/Graphics/SVG/1.1/DTD/svg11.dtd"><svg t="1651276026995" class="icon" viewBox="0 0 1024 1024" version="1.1" xmlns="http://www.w3.org/2000/svg" p-id="6589" xmlns:xlink="http://www.w3.org/1999/xlink" width="200" height="200"><defs><style type="text/css">@font-face { font-family: feedback-iconfont; src: url("//at.alicdn.com/t/font_1031158_u69w8yhxdu.woff2?t=1630033759944") format("woff2"), url("//at.alicdn.com/t/font_1031158_u69w8yhxdu.woff?t=1630033759944") format("woff"), url("//at.alicdn.com/t/font_1031158_u69w8yhxdu.ttf?t=1630033759944") format("truetype"); }
</style></defs><path d="M93.795887 107.384497h8.493565q170.188721 0 340.399333 0.120398c5.264697 0 8.033862-1.608961 10.627902-6.184103 18.18017-32.01505 36.677754-63.833084 55.076831-95.71679 0.930352-1.696524 2.024883-3.360212 3.393048-5.604002 1.324383 2.090555 2.40797 3.666681 3.371158 5.330369 18.497584 32.03694 37.060841 64.0301 55.372354 96.187439 2.462696 4.312455 5.089572 5.998033 10.179144 5.987087Q751.215358 107.264099 921.644876 107.384497h8.263714v6.348283q0 274.727436 0.087562 549.454872c0 4.016931-1.006969 6.775151-4.224892 9.292574-5.866689 4.586087-11.383129 9.609988-17.370217 14.72145l79.112746 137.232374h-7.661722q-112.999444 0-226.009833-0.098508a15.958271 15.958271 0 0 0-11.273676 4.224892q-112.922827 96.504853-225.911326 192.954979c-3.513446 2.999017-5.560221 3.524392-9.402027 0.229852Q394.39805 925.109068 281.387661 828.713669a16.658771 16.658771 0 0 0-11.722434-4.378127q-112.999444 0.218906-226.020779 0.098508H36.486211c1.357219-2.583095 2.189063-4.378126 3.163197-6.008978q36.33845-62.979349 72.764462-125.871136c2.386079-4.115439 2.189063-6.424901-1.587071-9.380136-5.866689-4.586087-13.418958-8.756253-16.242849-15.006029s-0.788063-14.666724-0.788063-22.142374V115.746719z m821.161401 15.980162H110.137244c-0.087563 1.992048-0.229852 3.611954-0.229852 5.220915q0 264.29655 0.131344 528.582154a10.759246 10.759246 0 0 0 3.283595 7.300526q196.796785 168.141947 393.692077 336.021207c1.751251 1.499508 3.590064 2.911454 5.472659 4.465689 2.681602-2.26568 5.045791-4.246783 7.399033-6.249776Q715.566463 831.844029 911.257771 665.004575c3.031853-2.583095 3.765189-5.253752 3.765189-8.942324q-0.098508-263.202018-0.065672-526.39309zM770.216427 806.111591h186.453461c-20.796101-35.9882-41.088717-71.232118-61.687802-106.924794-3.852751 3.360212-7.08162 6.162213-10.419941 9.084613 16.231904 28.184189 32.20112 55.886784 48.706657 84.530676h-7.486597c-43.026038 0-86.063021 0.53632-129.067168-0.339304-12.017957-0.251742-18.497584 6.096541-26.49861 13.648809z m-702.054471 0.065672h187.044509c-3.480611-2.999017-6.140322-4.892556-8.29655-7.245799-4.520416-4.936338-9.850785-6.315447-16.538373-6.271667-43.781265 0.284578-87.562529 0.153234-131.278122 0.153235h-7.486596L140.390098 708.161956l-10.584121-8.810979zM471.135662 107.570567c3.535337 0 5.757236-0.295524 7.858737 0.065672 5.921416 0.996024 9.106503-1.554235 11.886613-6.764205 6.665698-12.510496 14.042841-24.626961 21.463765-37.487708 1.247766 2.035829 2.189063 3.524392 3.08658 5.045791 6.829877 11.820941 13.594083 23.685664 20.544358 35.429988 0.897516 1.521399 2.648767 3.283595 4.192056 3.524392 4.060712 0.492539 8.219932 0.16418 13.550302 0.16418l-41.296678-71.560477z" p-id="6590"></path><path d="M903.442815 135.108983v6.862713q0 254.445765 0.098508 508.880585c0 4.378126-1.171149 7.344307-4.586088 10.255761Q707.795288 823.963402 516.799521 987.004831c-1.521399 1.302493-3.075634 2.561204-4.826884 4.016931Q485.79144 968.660481 459.851041 946.583779 293.14293 804.371286 126.369148 662.2573c-4.312455-3.677626-5.910471-7.311471-5.910471-12.937363q0.229852-253.088546 0.131344-506.155201v-8.055753zM638.259695 291.780239l-1.816923 0.087562a25.622985 25.622985 0 0 1-0.383086-3.141306v-27.910556c-0.065672-6.512463-2.057719-8.438839-8.559237-8.438839H399.323443c-6.994057 0-8.701526 1.674633-8.756253 8.701527-0.087563 8.756253 0 17.512506-0.087563 26.268759a42.883749 42.883749 0 0 1-0.601992 5.133353l-1.784087-0.186071v-5.20997-25.174227c0-8.099534-1.433836-9.522425-9.544315-9.522425H162.412074c-8.13237 0-9.850785 1.685579-9.850785 10.014964 0 43.420069 0.065672 86.829193-0.087562 130.249262 0 5.385096 1.805977 8.6468 6.56719 11.372184 30.143401 17.413998 60.122622 35.090684 90.145624 52.701697 1.685579 0.985078 3.283595 2.101501 4.170165 2.659712-10.343324 23.433922-20.478687 46.375305-30.646885 69.393305v-62.935568c0-6.807987-1.89354-8.679636-8.756253-8.690581h-50.89572c-8.756253 0-10.39805 1.641797-10.398051 10.606011 0 49.056907 0.065672 98.12476-0.098508 147.192612 0 5.472658 1.663688 9.18312 5.954252 12.565223 9.796058 7.738339 19.230921 15.93638 28.928471 24.079695l-24.287656 27.921502L512.607465 977.690367l349.549617-298.22703-23.773226-27.36329c10.233871-8.548292 20.029929-16.96524 30.110564-25.020993 3.940314-3.152251 5.472658-6.676643 5.472659-11.711488-0.142289-49.790243-0.240797-99.602377 0.087562-149.381675 0-7.442815-2.134337-11.722434-8.613964-15.695584-50.819103-31.106589-101.375518-62.629099-151.975715-94.074992-1.773141-1.094532-4.542306-2.670657-4.607978-4.13733-0.426867-8.99705-0.218906-18.026936-0.218906-26.816024h95.005344V395.662234c0 6.304502 1.89354 8.252768 8.088589 8.274659q26.816025 0.076617 53.632049 0c6.56719 0 8.48262-1.948266 8.48262-8.50451q0.065672-67.576382 0-135.16371c0-5.965197-1.860704-7.891573-7.847792-7.891573h-220.000855c-5.70251 0-7.661721 2.189063-7.727393 8.088589v26.268759z m-241.749199-125.761683h-34.215058c-7.661721 0-9.150284 1.444782-9.18312 9.3473q-0.076617 25.415024 0 50.808157c0 1.751251 0.262688 3.491556 0.383086 5.144299h10.649792V208.07046h14.469708c1.258711 5.965197 2.462696 11.809996 3.732353 17.632905 0.711446 3.217923 2.068665 5.7244 5.921416 6.096541 6.786096 0.656719 8.001026-0.569156 8.11048-8.865706-7.26769-2.637821-4.564197-9.456753-6.019924-12.707512 2.626876-3.206978 5.822908-5.286588 5.91047-7.497542 0.503485-11.952285 0.240797-23.937406 0.240797-36.71059z m379.802472 65.737569c13.353286 0 25.732438 0.076617 38.100645 0 3.863697 0 5.35226-2.637821 5.35226-6.205995 0-18.410022 0-36.809098 0.065672-55.208174 0-3.349267-1.258711-4.378126-4.520416-4.378127-10.573175 0.153234-21.135406 0-31.741417 0.076617-5.70251 0-7.256745 1.707469-7.28958 7.661722v37.706614z m-314.130575-0.273633c0-21.244859 0.054727-41.800162-0.142289-62.388302 0-1.094532-2.07961-2.94429-3.228868-2.966181-11.459746-0.218906-22.930437-0.18607-34.401129-0.087563-3.414939 0-5.472658 1.948266-5.472658 5.472658q0 29.486682 0.229852 58.962419c0 0.284578 0.372141 0.580102 0.53632 0.809953h9.927402c0-3.874642-0.218906-7.333362 0.120399-10.7483 0.109453-1.193039 1.521399-3.206978 2.407969-3.283595 6.118432-0.284578 12.247809-0.142289 19.04485-0.142289v14.283637z m264.701527 0.306469h35.605113c6.435846 0 7.530378-1.160204 7.541323-7.78212v-52.449955c0-1.72936-0.240797-3.45872-0.394031-5.472658h-37.126513c-3.349267 0-5.593057 1.740305-5.604002 5.352259-0.021891 19.821968 0 39.65488 0 60.352474z m-102.885972-43.879773c0-5.844799 0.131344-11.098551 0-16.341357-0.120398-3.754243-2.40797-5.527385-6.096541-5.527385h-31.194151c-4.060712 0-6.030869 2.189063-6.107487 6.107487s-0.054727 7.661721 0 11.492582a11.700543 11.700543 0 0 0 5.735346 10.452777c7.333362 4.772158 14.141348 10.354269 21.606054 14.896575 5.417932 3.283595 6.151268 7.322417 4.564197 12.554278h-21.157296v-11.525418h-10.781137v14.874684c0 4.85972 2.090555 7.026893 6.972167 6.928386 6.742315-0.142289 13.495575 0 20.248834 0 17.216982 0 18.399076-1.401 16.144342-18.913507-0.558211-4.378126-2.24379-7.793065-6.173158-10.343324-7.191073-4.640814-13.867716-10.113472-21.212023-14.480653-5.067681-3.020907-5.801018-6.698533-4.607978-11.744324H613.304374v11.602035zM202.855017 187.81068c0-5.877635 0.448758-11.536363-0.262687-17.030912-0.240797-1.795032-3.491556-4.443798-5.472658-4.531361-10.540339-0.448758-21.12446-0.251742-31.686691-0.197015-3.710462 0-5.7244 1.926376-5.680619 5.790072s0.098508 8.011971 0 12.039848a10.704519 10.704519 0 0 0 5.297533 10.025909c7.289581 4.804994 14.097567 10.387105 21.573218 14.874685 5.472658 3.283595 6.107486 7.333362 4.728377 12.893582h-20.489632c-0.229852-4.082603-0.426867-7.814956-0.623883-11.525417h-10.452777v16.177177c0 3.590064 1.937321 5.472658 5.406986 5.472658q16.122451 0.087563 32.244902 0c3.480611 0 5.417932-1.948266 5.472658-5.472658 0-4.553252 0.656719-9.259737-0.262688-13.615973a17.512506 17.512506 0 0 0-5.385095-9.402027 224.521271 224.521271 0 0 0-21.890633-15.323443c-4.67365-2.94429-5.801018-6.457737-4.060712-11.645816h20.303562c0.240797 3.99504 0.448758 7.716448 0.678609 11.580144z m330.373424 16.538373H547.632477v17.260764h-20.467741v-45.970328H558.577793v-9.588097h-34.751379c-6.665698 0-8.055753 1.390055-8.066698 7.946299v51.92458c0 1.773141 0.18607 3.535337 0.317414 5.844799 12.893582 0 25.425969 0.153234 37.936466-0.197016 1.663688 0 4.597033-2.637821 4.65176-4.126384 0.404977-10.846808 0.218906-21.704562 0.218906-32.660823h-25.655821zM209.422207 231.788961h35.594168c6.041815 0 7.26769-1.302493 7.278635-7.453761v-53.544486c0-1.390055-0.273633-2.78011-0.415922-4.257728h-10.408995v6.873658c0 14.579161 0.065672 29.147377-0.098508 43.715593 0 1.608961-1.291547 4.564197-2.112446 4.607978-6.249776 0.394031-12.543332 0.218906-19.121467 0.218906V174.030527c0-8.307495 0-8.31844-8.48262-7.869682a12.981145 12.981145 0 0 0-2.189064 0.53632z m468.153063-65.529608v65.058959h10.452777v-25.174227H709.623156v25.316516h10.54034c0.142289-1.707469 0.372141-3.119415 0.37214-4.542306 0-18.607037-0.109453-37.214075 0.098508-55.755441 0.054727-4.213947-1.401-5.286588-5.363205-5.18808s-6.118432 0.404977-5.877634 5.242807c0.404977 8.121425 0.109453 16.28663 0.109453 24.659797h-21.890633v-29.552353z m-409.114028 43.168327c8.99705 0 17.162256-0.054727 25.327462 0 4.629869 0 7.180127-1.762196 7.136346-6.75326-0.098508-10.7483-0.142289-21.496601 0-32.244902 0.065672-3.754243-1.54329-4.542306-4.914447-4.487579-10.201035 0.16418-20.402069 0-30.646885 0.076617-6.40301 0-7.935354 1.619907-7.9463 8.198042v52.4609c0 1.576126 0.262688 3.141306 0.404977 4.695541h10.54034z m79.627176-43.365343c-12.663731 0-24.659797-0.098508-36.66681 0.054727-3.896533 0-5.078627 2.75822-5.067681 6.370174q0.087563 26.531446 0 53.062892c0 4.378126 2.07961 6.282611 6.359229 6.249776 7.10351-0.065672 14.228911 0 21.332421 0h13.812989c1.094532-9.752277 1.094532-9.752277-7.661721-9.752277h-22.733422v-17.895592h27.155329v-9.774167h-27.210056v-18.607038h30.646886z m293.268801 9.850785c9.456753 0 18.005045-0.175125 26.531447 0.065671 3.984095 0.120398 4.378126-1.860704 4.378126-5.034845s-0.470649-5.100517-4.378126-5.012955c-10.21198 0.229852-20.434905 0.142289-30.646886 0-4.826884 0-6.851768 2.057719-6.807986 6.972167q0.218906 25.995126 0 51.979306c0 4.936338 2.046774 6.928385 6.873658 6.873659 10.02591-0.120398 20.062765-0.197016 30.088674 0 3.929369 0.098508 4.914447-1.335329 4.958229-5.045791 0.065672-4.049767-1.641797-4.936338-5.242807-4.83783-7.10351 0.18607-14.228911 0-21.332421 0-2.298516 0-4.443798 0.065672-4.378127-3.283595-0.010945-13.812989-0.043781-27.833939-0.043781-42.664842z m-131.124888-9.850785H474.627218c-3.732353 0-5.811963 2.090555-5.833854 5.779127-0.065672 18.026936-0.175125 36.053871 0.175125 54.080807 0 1.959212 2.856728 5.472658 4.498525 5.527385 12.12741 0.470649 24.287657 0.262688 36.732481 0.262687v-9.752276h-29.946385v-46.243961h29.979221z m316.122622 0.240797c0 20.708538-0.087563 40.880756 0.186071 61.052974 0 1.466672 2.583095 4.104494 4.027876 4.148274 11.032879 0.35025 22.098593 0.197016 33.032964 0.197016 1.554235-9.566206 1.499508-9.642824-7.114455-9.642823h-19.70157v-55.777332z" p-id="6591"></path><path d="M354.04267 275.646843c3.382103 1.816922 7.08162 3.206978 10.080636 5.472658a873.895934 873.895934 0 0 0 142.387618 88.197357c4.848775 2.40797 8.756253 2.462696 13.615973 0a865.774509 865.774509 0 0 0 142.289111-88.241139c6.56719-5.034845 13.736372-5.910471 19.022959-2.26568 5.100517 3.502501 8.055753 12.368207 4.925392 19.285647a107.198427 107.198427 0 0 1-12.488605 21.025952c-22.908547 29.77126-49.877806 55.602206-78.948566 79.26598a334.040104 334.040104 0 0 1-55.821112 37.235966c-17.512506 9.139339-33.864808 9.106503-51.38826 0-25.973235-13.440848-49.089743-30.646885-70.96943-49.801189s-42.785241-39.687716-60.910685-62.661935A127.523879 127.523879 0 0 1 341.860533 301.751422c-2.013938-4.005986-2.189063-9.489589-1.619907-14.130404 0.853735-7.541323 5.53833-10.835863 13.802044-11.974175zM503.150712 742.628757c-21.015007-8.438839-31.621018-21.135406-30.646885-36.732481h82.275941c2.736329 13.572192-8.548292 27.428962-30.099619 36.776262 0.886571 2.189063 1.707469 4.312455 2.670657 6.435846 9.850785 21.715507 19.570225 43.463851 29.552354 65.113686a11.930395 11.930395 0 0 1-0.054727 11.306512c-12.379153 25.349352-24.408055 50.862884-36.798153 76.201291a11.098551 11.098551 0 0 1-6.041814 5.045791c-3.852751 1.236821-5.166189-2.189063-6.56719-5.078627-12.10552-25.272735-24.156313-50.578306-36.458848-75.752533a12.532387 12.532387 0 0 1-0.197016-11.853778c10.277652-22.306554 20.303562-44.733507 30.417034-67.116678 0.623883-1.302493 1.193039-2.626876 1.948266-4.345291zM502.75668 861.265039l1.346274 0.251742c8.110479-15.56424 16.231904-31.117534 24.834923-47.612125h-12.346317c3.962204-12.609004 7.716448-24.506563 11.459746-36.404122l-1.094531-0.459703L495.094959 823.251956h17.019967z" p-id="6592"></path><path d="M634.450725 258.156227c0 12.707512 0 24.681688-0.054727 36.655864a4.224892 4.224892 0 0 1-1.21493 2.298517 10.781136 10.781136 0 0 1-2.189063 1.663688c-6.195049 4.15922-12.039848 10.595066-18.738382 11.79905-6.381119 1.094532-13.769208-3.13036-20.675702-5.177134-26.104579-7.760229-52.701697-12.543332-80.064988-11.645817-28.063791 0.930352-55.142503 6.851768-81.465988 16.330412-4.203001 1.510454-7.45376 1.411946-11.032879-1.411946-5.275642-4.148275-12.981145-6.742315-15.805036-12.039847s-0.941297-13.134379-1.094532-19.832913c-0.065672-4.925392 0.087563-9.850785 0-14.765232-0.065672-2.812946 1.094532-4.049767 3.852752-3.863696 1.269657 0.076617 2.550259 0 3.819915 0h224.66356zM319.335072 323.981359c0 12.368207-0.67861 24.419 0.197016 36.349395 0.777117 10.627902-1.576126 18.946342-10.332379 25.63393-4.695541 3.590064-8.263714 8.6468-12.499551 13.210997-1.587071-0.831844-3.042798-1.521399-4.378126-2.331352-21.387148-12.499551-42.686733-25.086665-64.19428-37.476763-3.053743-1.762196-4.268673-3.666681-4.15922-7.256745 0.295524-9.259737 0.098508-18.519475 0.098508-28.129462zM516.536834 607.465048a576.358459 576.358459 0 0 1-82.089872-7.530378c-2.977126-0.503485-6.359229-0.744281-5.472658-4.947283 0.799008-4.016931 4.378126-2.736329 6.775151-2.298516a423.73697 423.73697 0 0 0 93.494891 6.184103c20.292616-0.842789 40.49767-3.732353 60.735559-5.713455 0.908461-0.087563 1.970157-0.722391 2.648767-0.415922a36.021036 36.021036 0 0 1 4.53136 2.791056c-1.017914 1.433836-1.816922 3.841806-3.108469 4.148275a118.647227 118.647227 0 0 1-17.687631 3.174142c-19.975202 1.740305-39.895677 3.119415-59.827098 4.607978zM418.926504 533.945359a16.034888 16.034888 0 0 1-15.93638 16.012997 16.242849 16.242849 0 1 1 15.93638-16.012997zM639.824875 533.682671a16.253795 16.253795 0 0 1-16.253795 16.26474 16.242849 16.242849 0 0 1 0.470649-32.474753 16.242849 16.242849 0 0 1 15.783146 16.210013zM804.95686 532.23789l-19.515499-48.783275c6.654752 4.15922 12.554278 7.771174 18.333405 11.558254a3.819915 3.819915 0 0 1 1.094532 2.823892c0.120398 11.010988 0.087563 22.065757 0.087562 34.401129zM365.600924 196.534097v-21.321476h20.927444v21.321476zM810.013596 220.657574h-20.872718V175.125059h20.872718zM431.349438 175.048442h20.796101v31.270768h-20.796101zM760.496986 175.223567c0 14.414981 0.065672 28.457822-0.109453 42.424045 0 1.094532-1.663688 3.020907-2.626876 3.064689-5.943307 0.284578-11.908504 0.142289-18.202061 0.142289v-45.631023zM270.157766 198.18684v-22.908547h20.861773v22.908547z" p-id="6593"></path></svg>