<?xml version="1.0" standalone="no"?><!DOCTYPE svg PUBLIC "-//W3C//DTD SVG 1.1//EN" "http://www.w3.org/Graphics/SVG/1.1/DTD/svg11.dtd"><svg t="1651276020600" class="icon" viewBox="0 0 1024 1024" version="1.1" xmlns="http://www.w3.org/2000/svg" p-id="6083" xmlns:xlink="http://www.w3.org/1999/xlink" width="200" height="200"><defs><style type="text/css">@font-face { font-family: feedback-iconfont; src: url("//at.alicdn.com/t/font_1031158_u69w8yhxdu.woff2?t=1630033759944") format("woff2"), url("//at.alicdn.com/t/font_1031158_u69w8yhxdu.woff?t=1630033759944") format("woff"), url("//at.alicdn.com/t/font_1031158_u69w8yhxdu.ttf?t=1630033759944") format("truetype"); }
</style></defs><path d="M818.928211 0.000347c-19.251666 38.433957-37.63614 74.231649-55.014671 110.480281-4.960339 10.406306-12.903819 7.908793-20.53511 7.908793h-322.352671A280.588696 280.588696 0 0 0 355.951659 126.124775c-58.067187 13.875075-85.366396 54.667794-95.564576 110.20278A341.361523 341.361523 0 0 0 255.357369 300.048835c0.277501 58.310001 0.346877 116.65469 1.179381 174.964691a208.334245 208.334245 0 0 0 4.925651 41.174284c14.985081 69.687562 47.83432 103.29993 121.406903 109.196837 77.492292 6.209096 155.817088 8.359732 233.205316-4.682838 49.77683-8.359732 69.583499-32.918614 69.999752-82.903571 0.242814-31.218918-0.45094-62.437836 0.312189-93.656753 0.242814-11.377561-3.121892-14.534141-14.499453-14.464765-67.01661 0.520315-134.033221 0.277501-201.188582 0.277501h-20.53511c4.093147-16.3379 12.938507-29.172344 19.49448-42.943356 10.163492-21.332927 21.367615-42.145539 31.461731-63.478466 3.885021-8.186294 8.220982-11.793813 18.072285-11.759126q142.982644 0.659066 285.965288 0c10.787871 0 13.458822 2.913766 13.389447 13.528198-0.45094 71.040382 1.040631 142.219515-0.659066 213.155833-1.318132 55.7778-12.383504 109.3009-55.7778 149.920181-33.057365 30.941416-74.509151 43.706485-117.764696 49.429954a1204.113662 1204.113662 0 0 1-277.98712 3.989084c-137.536677-13.875075-229.805923-103.889621-247.219141-241.287548-11.342873-89.494231-12.071315-179.751591 2.497513-269.211135C141.824571 107.081235 226.150337 25.807986 351.823825 6.937884a619.591456 619.591456 0 0 1 93.10175-6.937537h374.002636z" p-id="6084"></path><path d="M380.649292 1021.136462c-27.229834 6.45191-47.348692 2.428138-60.42595-23.379501-8.012856-15.782897-19.876044-29.657972-30.178287-44.261488-5.688781-8.047543-8.671922-16.684777-4.093147-25.911701s13.875075-8.671922 22.755122-8.70661c24.489507 0 29.796723-4.301273 27.472648-20.812612a15.470708 15.470708 0 0 0-5.307216-10.406306c-3.468769-2.740327-49.291203-4.474712-53.002785-1.94251-5.376591 3.676895-3.468769 9.435051-3.468769 14.326015-0.173438 35.83238-0.936568 71.66476 0.277502 107.531828 0.520315 15.644147-6.937537 15.852273-18.731351 16.3379-13.007882 0.555003-16.823528-3.468769-16.615402-16.650089 0.728441-47.38338 0.659066-94.76676 0-142.219515 0-12.348816 3.815646-15.956336 15.782898-15.505396 21.922618 0.832504 43.879923 0.208126 65.906604 0.277501 25.668888 0 42.596479 11.655063 48.562761 33.196116 7.561916 26.570768 0 55.222797-21.402302 65.698479-15.123831 7.423165-9.2963 13.077258-3.468769 21.402302 12.106003 16.615402 23.761065 33.542993 35.936443 51.025587z" p-id="6085"></path><path d="M789.894618 971.255569c-26.952332 0-26.952332 0-36.213945 28.409215-8.359732 25.530137-8.325045 25.217948-34.687687 23.795753-7.631291-0.416252-10.406306-1.907823-7.908792-9.920678 15.123831-47.105878 29.623284-94.419883 45.093992-141.352323 4.717525-14.256639 16.441963-22.096056 31.808609-22.442933 16.164462-0.381565 28.547966 7.527228 33.542993 22.442933 15.74821 46.897752 30.178287 94.211757 45.302118 141.317635 2.532201 7.874105 0 9.539114-7.839417 9.955366-26.432017 1.456883-26.397329 1.769072-34.687686-23.726377-0.520315-1.630321-1.387507-3.156579-1.907823-4.821589-7.700666-23.657002-7.665979-23.657002-32.502362-23.657002z" p-id="6086"></path><path d="M690.44502 924.392504c0 19.04354 0.277501 38.156455 0 57.199995-0.416252 24.767008-16.65009 41.104909-41.313034 41.625224-18.488537 0.346877-36.977074 0.312189-55.500299 0-21.853242-0.346877-40.862095-16.615402-41.625223-38.433956-1.144694-41.625224-0.277501-83.250448-0.45094-124.875672 0-15.29727 11.377561-9.469738 18.766038-10.163492s16.3379-2.081261 16.129774 11.134747c-0.555003 35.242689 0 70.485379-0.242814 105.728069 0 11.412249 0.589691 25.04451 12.90382 27.403272 16.719465 3.191267 35.173314 10.822558 51.337776-3.121892 6.00097-5.168465 5.133778-12.522255 5.133777-19.390416 0-35.83238 0.589691-71.66476-0.277501-107.531828-0.312189-13.424135 5.758156-15.193207 16.650089-14.638204 9.885991 0.520315 19.633231-1.630321 18.627288 14.326014-1.075318 20.222921-0.138751 40.515218-0.138751 60.738139z" p-id="6087"></path><path d="M95.551197 985.685646c13.875075-44.018674 26.778894-84.013577 39.509275-124.008479 3.087204-9.781928 32.224861-17.898846 39.058335-10.78787 3.087204 3.191267 0.346877 6.625348-0.555003 9.573801-14.39539 46.134623-28.721404 92.269246-43.63711 138.230431-5.064402 15.678834-15.713522 24.281381-33.43893 24.73232-18.315098 0.312189-29.900786-7.908793-35.312064-24.524194-14.915705-45.961185-29.137657-92.165183-43.949299-138.161055-2.566889-8.047543-1.560946-10.926621 7.804729-11.377561 26.397329-1.283444 26.327954-1.734384 34.444873 23.622314 11.516312 36.179257 23.136687 72.289139 36.075194 112.700293zM533.240425 849.605852c-3.815646 21.29824-13.146633 29.345783-33.542993 27.992963-27.923588-1.873135-24.59357-3.468769-24.73232 24.558882-0.173438 35.173314-0.693754 70.416004 0.277501 105.55463 0.416252 14.152576-5.584718 16.095087-17.343843 15.817585-10.995997-0.277501-18.315098-0.416252-17.898846-15.262582 1.005943-38.642083 0-77.318853 0.58969-115.960936 0.208126-12.383504-3.989084-16.268525-15.88696-15.43602s-24.281381 0-36.318008 0.242814c-10.926621 0.346877-9.851303-6.937537-9.955366-13.875075s-0.416252-13.875075 10.406306-13.666948c47.626194 0.277501 95.460513 0.034688 144.404839 0.034687z" p-id="6088"></path><path d="M881.157921 935.457876c0-24.281381 0.763129-48.562761-0.277502-72.636015-0.624378-14.985081 8.39442-13.216009 17.760096-13.320072s17.864159-1.075318 17.517281 13.597573c-0.90188 38.156455 0.520315 76.139472-0.693753 114.157177-0.485628 15.852273 4.925651 19.771981 19.702606 18.870101 19.529168-1.179381 39.197086-0.589691 58.795628 0 5.515342 0.173438 15.262582-1.248757 13.875075 7.874105-1.214069 7.457853-2.358763 18.904789-13.875075 19.04354-34.687687 0.45094-69.201935 0-103.785558 0-9.851303 0-8.775985-6.937537-8.775984-13.320072-0.242814-24.59357-0.208126-49.464641-0.242814-74.266337zM222.334691 938.059453c0 24.281381-0.624378 48.389323 0.242814 72.56664 0.555003 15.470708-9.608489 12.348816-18.384474 12.626318s-16.927591 1.214069-16.754153-12.556943q0.936568-74.301024 0-148.602049c0-13.875075 7.804729-12.903819 16.719465-12.522254s18.974165-3.225955 18.45385 12.452879c-0.90188 25.322011-0.277501 50.67871-0.277502 76.035409z" p-id="6089"></path></svg>