<?xml version="1.0" standalone="no"?><!DOCTYPE svg PUBLIC "-//W3C//DTD SVG 1.1//EN" "http://www.w3.org/Graphics/SVG/1.1/DTD/svg11.dtd"><svg t="1651276010463" class="icon" viewBox="0 0 1024 1024" version="1.1" xmlns="http://www.w3.org/2000/svg" p-id="5459" xmlns:xlink="http://www.w3.org/1999/xlink" width="200" height="200"><defs><style type="text/css">@font-face { font-family: feedback-iconfont; src: url("//at.alicdn.com/t/font_1031158_u69w8yhxdu.woff2?t=1630033759944") format("woff2"), url("//at.alicdn.com/t/font_1031158_u69w8yhxdu.woff?t=1630033759944") format("woff"), url("//at.alicdn.com/t/font_1031158_u69w8yhxdu.ttf?t=1630033759944") format("truetype"); }
</style></defs><path d="M248.170727 454.737365c-11.740333-21.001341-16.334376-33.762572-24.720328-43.315265-26.980889-30.772798-19.032465-54.253464 9.698536-79.338399a721.921089 721.921089 0 0 0 75.838175-78.609185c40.981783-48.638522 80.213454-98.881313 121.632765-150.509609 4.229437 12.250782 10.50067 29.168529 16.042691 46.669646 8.531795 26.543361 20.199206 52.795037 23.991115 80.213454C479.039633 290.956075 520.823551 320.853818 570.993421 342.730214a60.233012 60.233012 0 0 0 40.763019-1.020898c46.669646-16.771904 92.464237-35.950212 144.967588-56.80571 3.208538 40.544255 5.760784 77.296601 9.188087 113.976026 4.156515 45.21122 4.739886 45.138298 51.044925 37.846166q43.096501-6.781683 86.55761-11.667411c40.83594-4.521122 45.867512 0.875056 37.335717 40.179648-14.584264 67.598066-29.168529 135.269053-45.21122 202.429591-7.292132 29.751899-8.604716 56.80571 9.479772 83.349071 18.959544 27.855945 14.584264 53.670093-7.292132 79.557162-39.012907 46.596725-74.306827 96.329067-114.778161 141.394444a119.809732 119.809732 0 0 1-60.378855 33.252123C684.167313 1013.606378 643.404294 1013.606378 604.02678 1020.89851c-49.148971 8.82348-94.068506-1.823033-137.019165-23.772351-29.168529-14.584264-53.888857-11.959097-81.817723 4.95865-60.378855 36.460661-150.874216 20.636734-198.273075-32.158303-24.355722-27.126732-50.680319-52.795037-71.973345-82.18233-11.886176-16.480219-26.178755-43.02358-20.636734-58.337058C137.038632 710.982891 99.629994 596.788101 82.055956 481.645333c-6.271234-41.273468-4.083594-45.138298 37.335716-41.492232 39.450435 3.500223 78.682107 8.82348 128.779055 14.584264z m176.396679-232.400254l-13.563366 1.020899C367.178325 269.808892 322.477555 316.04101 280.620716 364.606611c-6.344155 7.292132-4.083594 28.293473 1.895954 38.575379 20.563813 35.658527 44.336164 69.566941 67.306381 103.912884 16.407297 24.574486 53.159644 29.168529 90.203675 8.969323 26.980889-14.584264 13.709209-37.700324 9.042244-57.680766a461.08152 461.08152 0 0 0-17.209432-49.003128c63.44155 27.710102 64.608291 76.567388 61.108068 125.935123-0.510449 7.875503-13.927973 18.886622-23.261902 21.365947a617.570677 617.570677 0 0 1-99.82929 20.053364c-13.417523 1.312584-31.283247-7.292132-41.565153-17.355275-16.917747-16.407297-29.168529-37.48156-44.773692-58.337057-47.836387 31.720775-87.505587 62.274809-92.901765 122.143214A459.40433 459.40433 0 0 1 166.936375 736.86996c-28.220552 77.150759-9.333929 135.852423 51.044925 190.470494 53.159644 47.98223 105.88176 57.89953 161.229043 19.397072-4.156515-17.938645-15.094714-37.48156-9.479772-49.148971 4.594043-9.479772 28.731001-9.990221 44.409086-13.563366a37.919088 37.919088 0 0 1 18.084488 0c16.698983 4.521122 38.721222 5.687863 47.47178 16.917746 5.833706 7.292132-7.292132 29.824821-13.125838 47.471781 81.744802 44.70077 168.22949 13.417523 254.276651-0.947977 7.292132-1.166741 13.490445-9.9173 18.959543-16.261455 31.939539-36.460661 63.222786-73.869299 95.308169-110.32996 17.501117-19.907521 19.761678-39.960885 6.854604-63.368629-23.407744-42.513131-45.867512-85.609632-68.4002-128.633213-20.782577-39.596278-14.584264-59.357956 22.897295-81.67188l36.460661 93.558056 14.584264-2.552246c17.282353-53.232565 34.491785-106.46513 54.472228-167.719041l-255.224628 46.596724L637.278903 503.157123c67.743908-29.970663 111.059174-71.317053 78.244578-147.665677-62.493573 5.906627-111.569623 72.921322-187.55364 23.116059C468.247278 339.74044 422.161002 301.748431 424.567406 222.337111zM196.104903 502.209146l-72.556715-15.532242c7.802581 34.856392 13.563366 60.67054 20.199206 90.495361z" p-id="5460"></path><path d="M674.468777 0c36.460661 80.650982 65.62919 155.249495 27.928866 237.14014A57.170317 57.170317 0 0 1 679.500348 262.51676c-19.105386 10.427749-41.34639 15.240556-59.722563 26.616282-32.887516 20.345049-60.451776 7.948424-80.942667-15.313477s-30.626955-53.743014-16.188534-87.505587c19.105386-44.627849 40.83594-84.224127 93.266371-98.225021 12.615389-3.281459 23.626508-19.032465 31.647854-31.42909C657.696873 40.908862 663.968106 22.678531 674.468777 0z m-0.947977 101.579402c-20.855498 12.68831-42.221446 21.876397-58.337058 36.460661a213.951159 213.951159 0 0 0-46.815489 60.305933c-4.95865 10.136064 2.406404 32.01246 11.521569 41.638075 6.125391 6.489998 26.689204 4.739886 38.06493 0C673.447878 217.451383 691.969894 167.719041 673.5208 101.579402z" p-id="5461"></path><path d="M196.104903 502.209146L143.747394 577.172265c-6.63584-29.824821-12.396625-55.638969-20.199206-90.495361zM673.5208 101.579402c18.667858 66.139639 0 115.871981-55.420205 138.550512-11.375726 4.666965-31.939539 6.417076-38.06493 0-9.115165-9.625615-16.480219-31.502011-11.521569-41.638075a213.951159 213.951159 0 0 1 46.815489-60.305933c15.96977-14.87595 37.335717-23.918194 58.191215-36.606504z" p-id="5462"></path><path d="M535.918265 809.426676c58.337058-14.146737 101.725244-73.577614 173.844432-48.200994-9.333929 65.045819-66.795931 65.62919-107.267265 84.515812-25.303699 11.667412-53.159644 4.666965-66.577167-36.314818zM331.009349 820.510717c-10.208985 26.543361-26.689204 41.638075-51.044925 33.397966-28.074709-9.552693-63.295708-15.386399-63.587393-59.212114 47.690545-28.366394 77.150759 12.469546 114.632318 25.814148z" p-id="5463"></path></svg>